<?xml version="1.0" encoding="UTF-8"?>
<svg id="Layer_2" data-name="Layer 2" xmlns="http://www.w3.org/2000/svg" viewBox="0 0 420.98 358.09">
  <defs>
    <style>
      .cls-1, .cls-2, .cls-3, .cls-4 {
        fill: #fff;
      }

      .cls-2, .cls-3, .cls-5 {
        stroke: #000;
      }

      .cls-2, .cls-3, .cls-5, .cls-4, .cls-6 {
        stroke-miterlimit: 10;
      }

      .cls-2, .cls-5, .cls-6 {
        stroke-width: .25px;
      }

      .cls-3 {
        stroke-width: .5px;
      }

      .cls-5 {
        fill: none;
      }

      .cls-4 {
        stroke: #231f20;
      }

      .cls-6 {
        stroke: #f6f5f5;
      }
    </style>
  </defs>
  <g id="Capa_1" data-name="Capa 1">
    <g>
      <rect x=".25" y="0" width="402.29" height="357.84"/>
      <ellipse class="cls-4" cx="137.67" cy="262.27" rx="58.53" ry="58.58"/>
      <path class="cls-2" d="M.25,277.66c58.72-2.27,88.68-4.66,105.26-6.55,4.39-.5,17.43-2.05,34.73-1.67,14.41.32,24.62,1.83,30.49,2.62,31.26,4.17,61.28,3.94,78.48,3.81,41.87-.32,43.6-5.22,73.18-2.86,12.82,1.02,20.89,2.61,44.01,4.28,15.14,1.1,27.74,1.58,36.24,1.81,0,4.19,0,8.37,0,12.56-134.13-.45-268.26-.89-402.39-1.34,0-4.23,0-8.45,0-12.68Z"/>
      <path class="cls-3" d="M402.54,279.5v78.34H.25v-78.34h40.17c23.1,0,26.71.4,37.65,0,19.23-.71,20.96-2.01,35.61-2.13,14.93-.13,21.35,1.14,35.61,2.13,12.25.85,29.58,1.45,51.02.14.71-.04,1.43-.09,2.16-.14h38.02c23.1,0,26.71.4,37.65,0,19.23-.71,20.96-2.01,35.61-2.13,14.93-.13,21.35,1.14,35.61,2.13,12.66.88,30.74,1.49,53.18,0Z"/>
      <path class="cls-5" d="M385.9,330.61c-.22,6.32-38.54,9.24-42.37,9.52-35.64,2.6-73.63-4.14-73.67-10.47-.04-5.8,31.84-10.08,34.64-10.45,40.42-5.28,81.63,4.81,81.4,11.4Z"/>
      <path class="cls-5" d="M376.28,330.35c-.18,5.16-31.49,7.55-34.61,7.77-29.12,2.12-60.15-3.38-60.18-8.55-.03-4.74,26.01-8.24,28.3-8.53,33.02-4.31,66.69,3.93,66.5,9.31Z"/>
      <path class="cls-5" d="M360.96,329.98c-.12,3.49-21.32,5.11-23.43,5.26-19.71,1.44-40.72-2.29-40.74-5.79-.02-3.21,17.61-5.58,19.16-5.78,22.35-2.92,45.15,2.66,45.02,6.3Z"/>
      <path class="cls-5" d="M400.89,330.97c-.28,7.95-48.5,11.62-53.31,11.97-44.84,3.27-92.65-5.21-92.7-13.17-.05-7.3,40.06-12.69,43.59-13.15,50.86-6.64,102.72,6.05,102.43,14.34Z"/>
      <path class="cls-5" d="M419.73,331.42c-.36,10-61.01,14.62-67.07,15.06-56.42,4.11-116.56-6.56-116.63-16.57-.06-9.18,50.4-15.96,54.83-16.54,63.99-8.36,129.23,7.62,128.86,18.05Z"/>
      <path d="M126.24,296.33c1.86-.02,2.41.14,4.19.15,1.72,0,2.17-.14,3.82-.22,2.76-.13,4.08.15,7.96.3,4.85.19,8.5-.04,8.52,0,.02.04-3.82.3-8.38.16-3.48-.1-4.14-.34-6.95-.28-2.52.05-2.87.26-5.3.23-1.59-.02-2.16-.12-4.49-.13-1.52,0-2.45.03-2.49,0-.06-.04,1.39-.2,3.1-.21Z"/>
      <path d="M179.83,294.06c1.68-.02,2.18.2,3.79.21,1.56,0,1.96-.2,3.46-.31,2.49-.18,3.69.22,7.2.44,4.39.27,7.69-.05,7.71,0,.02.05-3.46.43-7.58.24-3.15-.14-3.74-.48-6.28-.4-2.28.07-2.6.37-4.79.33-1.43-.03-1.96-.17-4.06-.19-1.38-.01-2.21.04-2.25,0-.05-.06,1.26-.28,2.81-.31Z"/>
      <path d="M234.94,284.4c1.68-.02,2.18.2,3.79.21,1.56,0,1.96-.2,3.46-.31,2.49-.18,3.69.22,7.2.44,4.39.27,7.69-.05,7.71,0,.02.05-3.46.43-7.58.24-3.15-.14-3.74-.48-6.28-.4-2.28.07-2.6.37-4.79.33-1.43-.03-1.96-.17-4.06-.19-1.38-.01-2.21.04-2.25,0-.05-.06,1.26-.28,2.81-.31Z"/>
      <path d="M149.47,316.14c2.6-.02,3.37.18,5.87.19,2.41,0,3.04-.17,5.35-.27,3.86-.16,5.71.19,11.14.38,6.79.23,11.9-.04,11.93,0,.03.04-5.35.37-11.73.2-4.87-.13-5.79-.42-9.72-.35-3.53.07-4.02.32-7.41.28-2.22-.03-3.03-.15-6.28-.17-2.13-.01-3.42.03-3.49,0-.08-.05,1.95-.25,4.34-.27Z"/>
      <path d="M31.99,311.86c3.34-.02,4.34.13,7.55.14,3.09,0,3.9-.13,6.88-.2,4.96-.12,7.35.14,14.33.28,8.73.17,15.3-.03,15.34,0,.04.03-6.87.27-15.09.15-6.27-.09-7.44-.31-12.5-.26-4.54.05-5.16.24-9.53.21-2.85-.02-3.89-.11-8.08-.12-2.74,0-4.4.03-4.48,0-.1-.04,2.51-.18,5.58-.2Z"/>
      <path d="M48.68,338.27c3.02-.01,3.92.1,6.82.11,2.8,0,3.53-.1,6.21-.16,4.48-.09,6.64.11,12.94.22,7.89.14,13.82-.03,13.85,0,.04.03-6.21.22-13.63.12-5.66-.07-6.72-.25-11.29-.2-4.1.04-4.66.19-8.61.17-2.58-.02-3.52-.09-7.3-.1-2.47,0-3.98.02-4.05,0-.09-.03,2.27-.14,5.04-.16Z"/>
      <path d="M208.93,318.67c1.46-.03,1.89.21,3.29.22,1.35.01,1.7-.2,3-.32,2.16-.19,3.2.23,6.25.45,3.81.27,6.67-.05,6.69,0,.02.05-3,.44-6.58.24-2.73-.15-3.25-.49-5.45-.41-1.98.08-2.25.38-4.16.33-1.24-.03-1.7-.18-3.52-.2-1.19-.01-1.92.04-1.95,0-.04-.06,1.09-.29,2.43-.31Z"/>
      <g>
        <path d="M149.46,330.17c1.08-.02,2,.25,3.02.55,1.44.42,1.91.93,3.02,1.23,1.48.4,3.55.86,6.05,1.09,5.68.52,9.16-.55,9.21-.27.03.14-6.71,2.31-14.99,2.05-4.34-.14-10.91-1.01-11-2.46-.06-.92,2.49-2.14,4.67-2.18Z"/>
        <path class="cls-2" d="M148.91,331.81c-.4-1.17.06-2.68.96-3.55.95-.91,2.06-.78,4.32-.95,5.36-.4,5.41-1.6,7.87-1.05,1.78.39,2.96,1.29,5.31,3.07,2.34,1.77,3.5,2.66,3.4,3.43-.31,2.19-8.57,2.93-14.99,2.05-5.99-.83-6.72-2.56-6.87-3Z"/>
        <path class="cls-2" d="M148.91,331.81c-.42-1.29.36-2.69.96-3.55.49.82,1.3,1.88,2.61,2.46,1.47.65,2.17.07,4.27.46,2.41.44,2.31,1.34,4.8,1.86,1.22.26,2.38.18,4.7.11,1.77-.06,3.3-.22,4.51-.38-.01.05-.03.12-.07.2-.41,1-1.69,1.46-3,1.73-6.15,1.25-11.92.11-11.92.11-3.92-.77-6.31-1.27-6.87-3Z"/>
      </g>
      <g>
        <path d="M24.34,347.25c1.08-.02,2,.25,3.02.55,1.44.42,1.91.93,3.02,1.23,1.48.4,3.55.86,6.05,1.09,5.68.52,9.16-.55,9.21-.27.03.14-6.71,2.31-14.99,2.05-4.34-.14-10.91-1.01-11-2.46-.06-.92,2.49-2.14,4.67-2.18Z"/>
        <path class="cls-2" d="M23.79,348.89c-.4-1.17.06-2.68.96-3.55.95-.91,2.06-.78,4.32-.95,5.36-.4,5.41-1.6,7.87-1.05,1.78.39,2.96,1.29,5.31,3.07,2.34,1.77,3.5,2.66,3.4,3.43-.31,2.19-8.57,2.93-14.99,2.05-5.99-.83-6.72-2.56-6.87-3Z"/>
        <path class="cls-2" d="M23.79,348.89c-.42-1.29.36-2.69.96-3.55.49.82,1.3,1.88,2.61,2.46,1.47.65,2.17.07,4.27.46,2.41.44,2.31,1.34,4.8,1.86,1.22.26,2.38.18,4.7.11,1.77-.06,3.3-.22,4.51-.38-.01.05-.03.12-.07.2-.41,1-1.69,1.46-3,1.73-6.15,1.25-11.92.11-11.92.11-3.92-.77-6.31-1.27-6.87-3Z"/>
      </g>
      <g>
        <path d="M104.35,312.18c.72-.01,1.32.16,2,.36.95.28,1.26.61,2,.81.98.26,2.34.57,4,.72,3.76.35,6.05-.36,6.09-.18.02.1-4.44,1.53-9.9,1.35-2.87-.09-7.21-.67-7.27-1.62-.04-.61,1.65-1.41,3.09-1.44Z"/>
        <path class="cls-2" d="M103.98,313.26c-.31-.97.43-2.05.64-2.34.97-1.4,2.57-1.69,2.92-1.75,1.4-.25,2.53.18,4.44,1.06,4.35,2.01,6.53,3.01,6.45,3.66-.17,1.44-5.82,1.89-9.9,1.35-1.66-.22-4.09-.56-4.54-1.98Z"/>
        <path class="cls-2" d="M103.98,313.26c-.11-.43-.15-1.18.64-2.34.34.44.9,1.06,1.73,1.62,1.72,1.17,3.54,1.32,6,1.53.32.03,1.52.12,3.11.07,1.17-.04,2.18-.14,2.98-.25,0,.03-.02.08-.05.14-.33.82-1.54,1.05-1.98,1.14-1.42.28-11.52,1.46-12.42-1.91Z"/>
      </g>
      <g>
        <path d="M78.45,299.02c.55-.01,1.01.12,1.53.28.73.21.96.47,1.53.62.75.2,1.79.43,3.05.55,2.87.26,4.62-.28,4.65-.14.02.07-3.39,1.17-7.56,1.03-2.19-.07-5.5-.51-5.55-1.24-.03-.46,1.26-1.08,2.36-1.1Z"/>
        <path class="cls-2" d="M78.17,299.85c-.25-.76.32-1.56.49-1.79.94-1.32,2.89-1.72,4.38-1.4.82.17.9.43,2.97,1.68,2.56,1.54,3.22,1.62,3.19,2-.07.93-4.13,1.49-7.56,1.03-1.31-.17-3.11-.44-3.47-1.51Z"/>
        <path class="cls-2" d="M78.17,299.85c-.28-.74.11-1.73.49-1.79.38-.06.48.86,1.32,1.24.78.35,1.15-.23,2.22-.06,1.11.18,1.08.88,2.36,1.23.52.14,1.14.1,2.37.06.89-.03,1.67-.11,2.28-.19,0,.02-.02.06-.03.1-.21.51-.85.74-1.52.87-3.1.63-6.01.06-6.01.06-1.96-.38-3.13-.63-3.47-1.51Z"/>
      </g>
      <g>
        <path d="M21.91,319.89c.55-.01,1.01.12,1.53.28.73.21.96.47,1.53.62.75.2,1.79.43,3.05.55,2.87.26,4.62-.28,4.65-.14.02.07-3.39,1.17-7.56,1.03-2.19-.07-5.5-.51-5.55-1.24-.03-.46,1.26-1.08,2.36-1.1Z"/>
        <path class="cls-2" d="M21.63,320.72c-.25-.76.32-1.56.49-1.79.94-1.32,2.89-1.72,4.38-1.4.82.17.9.43,2.97,1.68,2.56,1.54,3.22,1.62,3.19,2-.07.93-4.13,1.49-7.56,1.03-1.31-.17-3.11-.44-3.47-1.51Z"/>
        <path class="cls-2" d="M21.63,320.72c-.28-.74.11-1.73.49-1.79.38-.06.48.86,1.32,1.24.78.35,1.15-.23,2.22-.06,1.11.18,1.08.88,2.36,1.23.52.14,1.14.1,2.37.06.89-.03,1.67-.11,2.28-.19,0,.02-.02.06-.03.1-.21.51-.85.74-1.52.87-3.1.63-6.01.06-6.01.06-1.96-.38-3.13-.63-3.47-1.51Z"/>
      </g>
      <g>
        <path d="M97.57,282.86c.24,0,.45.06.68.12.32.09.43.21.68.28.33.09.8.19,1.36.25.45.04.49,0,1.06.03.52.03.93.06.94.12,0,.12-1.56.49-3.29.36-.94-.07-2.47-.31-2.48-.66,0-.22.57-.48,1.05-.49Z"/>
        <path class="cls-2" d="M97.44,283.23c-.09-.27.04-.59.22-.8.75-.85,2.86-.04,3.28.12.59.23,1.46.56,1.42.89-.05.48-1.94.65-3.37.46-1.35-.18-1.52-.59-1.55-.68Z"/>
        <path class="cls-2" d="M97.44,283.23c-.03-.16,0-.43.45-.85.04.16.13.41.35.6.15.13.3.17.68.28.33.09.8.19,1.36.25.51.05.93.03,1.06.02.63-.02.98-.11,1-.04.02.08-.42.29-.68.39-1.62.64-4.07.18-4.23-.65Z"/>
      </g>
      <g>
        <path d="M390.07,286.24c.24,0,.45.06.68.12.32.09.43.21.68.28.33.09.8.19,1.36.25.45.04.49,0,1.06.03.52.03.93.06.94.12,0,.12-1.56.49-3.29.36-.94-.07-2.47-.31-2.48-.66,0-.22.57-.48,1.05-.49Z"/>
        <path class="cls-2" d="M389.95,286.6c-.09-.27.04-.59.22-.8.75-.85,2.86-.04,3.28.12.59.23,1.46.56,1.42.89-.05.48-1.94.65-3.37.46-1.35-.18-1.52-.59-1.55-.68Z"/>
        <path class="cls-2" d="M389.95,286.6c-.03-.16,0-.43.45-.85.04.16.13.41.35.6.15.13.3.17.68.28.33.09.8.19,1.36.25.51.05.93.03,1.06.02.63-.02.98-.11,1-.04.02.08-.42.29-.68.39-1.62.64-4.07.18-4.23-.65Z"/>
      </g>
      <g>
        <path d="M363.25,345.48c.24,0,.45.06.68.12.32.09.43.21.68.28.33.09.8.19,1.36.25.45.04.49,0,1.06.03.52.03.93.06.94.12,0,.12-1.56.49-3.29.36-.94-.07-2.47-.31-2.48-.66,0-.22.57-.48,1.05-.49Z"/>
        <path class="cls-2" d="M363.13,345.85c-.09-.27.04-.59.22-.8.75-.85,2.86-.04,3.28.12.59.23,1.46.56,1.42.89-.05.48-1.94.65-3.37.46-1.35-.18-1.52-.59-1.55-.68Z"/>
        <path class="cls-2" d="M363.13,345.85c-.03-.16,0-.43.45-.85.04.16.13.41.35.6.15.13.3.17.68.28.33.09.8.19,1.36.25.51.05.93.03,1.06.02.63-.02.98-.11,1-.04.02.08-.42.29-.68.39-1.62.64-4.07.18-4.23-.65Z"/>
      </g>
      <g>
        <path d="M14.83,288.57c.24,0,.45.06.68.12.32.09.43.21.68.28.33.09.8.19,1.36.25.45.04.49,0,1.06.03.52.03.93.06.94.12,0,.12-1.56.49-3.29.36-.94-.07-2.47-.31-2.48-.66,0-.22.57-.48,1.05-.49Z"/>
        <path class="cls-2" d="M14.7,288.94c-.09-.27.04-.59.22-.8.75-.85,2.86-.04,3.28.12.59.23,1.46.56,1.42.89-.05.48-1.94.65-3.37.46-1.35-.18-1.52-.59-1.55-.68Z"/>
        <path class="cls-2" d="M14.7,288.94c-.03-.16,0-.43.45-.85.04.16.13.41.35.6.15.13.3.17.68.28.33.09.8.19,1.36.25.51.05.93.03,1.06.02.63-.02.98-.11,1-.04.02.08-.42.29-.68.39-1.62.64-4.07.18-4.23-.65Z"/>
      </g>
      <g>
        <path d="M154.97,296.51c.37,0,.68.08,1.02.18.48.14.64.31,1.02.41.5.13,1.2.29,2.04.37,1.92.18,3.09-.18,3.1-.09.01.05-2.26.78-5.05.69-1.46-.05-3.68-.34-3.71-.83-.02-.31.84-.72,1.58-.74Z"/>
        <path class="cls-2" d="M154.79,297.06c-.14-.4.05-.89.32-1.2,1.13-1.27,4.28-.06,4.91.18.88.34,2.19.84,2.13,1.33-.08.71-2.91.97-5.05.69-2.03-.27-2.27-.88-2.32-1.01Z"/>
        <path class="cls-2" d="M154.79,297.06c-.19-.5.07-1.16.32-1.2.22-.03.34.43.88.83.37.27.75.37,1.02.41.5.13,1.2.29,2.04.37.14.01.76.06,1.58.04.6-.02,1.11-.07,1.52-.13,0,.02-.01.04-.02.07-.14.34-.57.49-1.01.58-2.07.42-4.02.04-4.02.04-1.31-.26-2.09-.42-2.32-1.01Z"/>
      </g>
      <g>
        <path d="M372.07,322.36c.37,0,.68.08,1.02.18.48.14.64.31,1.02.41.5.13,1.2.29,2.04.37,1.92.18,3.09-.18,3.1-.09.01.05-2.26.78-5.05.69-1.46-.05-3.68-.34-3.71-.83-.02-.31.84-.72,1.58-.74Z"/>
        <path class="cls-2" d="M371.88,322.91c-.14-.4.05-.89.32-1.2,1.13-1.27,4.28-.06,4.91.18.88.34,2.19.84,2.13,1.33-.08.71-2.91.97-5.05.69-2.03-.27-2.27-.88-2.32-1.01Z"/>
        <path class="cls-2" d="M371.88,322.91c-.19-.5.07-1.16.32-1.2.22-.03.34.43.88.83.37.27.75.37,1.02.41.5.13,1.2.29,2.04.37.14.01.76.06,1.58.04.6-.02,1.11-.07,1.52-.13,0,.02-.01.04-.02.07-.14.34-.57.49-1.01.58-2.07.42-4.02.04-4.02.04-1.31-.26-2.09-.42-2.32-1.01Z"/>
      </g>
      <path class="cls-1" d="M200.54,279.44c-.73.05-1.45.09-2.16.14v-.14h2.16Z"/>
      <path d="M258.3,293.39c2.21-.01,2.87.12,5,.13,2.05,0,2.59-.12,4.56-.18,3.29-.11,4.87.13,9.49.26,5.78.16,10.13-.03,10.16,0,.03.03-4.55.25-9.99.14-4.15-.09-4.93-.29-8.28-.24-3.01.04-3.42.22-6.31.2-1.89-.02-2.58-.1-5.35-.11-1.81,0-2.92.02-2.97,0-.07-.04,1.66-.17,3.7-.18Z"/>
      <path d="M29.17,287.32c2.52,0,3.27.05,5.7.05,2.34,0,2.95-.04,5.19-.07,3.74-.04,5.55.05,10.81.1,6.59.06,11.55-.01,11.58,0,.03.01-5.19.1-11.39.05-4.73-.03-5.62-.11-9.43-.09-3.43.02-3.9.08-7.19.07-2.15,0-2.94-.04-6.1-.04-2.07,0-3.32,0-3.38,0-.08-.01,1.89-.06,4.21-.07Z"/>
      <path d="M281.48,350.34c2.79-.01,3.63.1,6.31.1,2.59,0,3.27-.09,5.76-.15,4.15-.09,6.15.11,11.99.21,7.31.13,12.8-.02,12.83,0,.03.02-5.75.2-12.62.11-5.24-.07-6.23-.23-10.46-.19-3.8.04-4.32.18-7.97.16-2.39-.01-3.26-.08-6.76-.09-2.29,0-3.68.02-3.75,0-.09-.03,2.1-.13,4.67-.15Z"/>
      <path d="M134.63,343.08c2.79-.01,3.63.1,6.31.1,2.59,0,3.27-.09,5.76-.15,4.15-.09,6.15.11,11.99.21,7.31.13,12.8-.02,12.83,0,.03.02-5.75.2-12.62.11-5.24-.07-6.23-.23-10.46-.19-3.8.04-4.32.18-7.97.16-2.39-.01-3.26-.08-6.76-.09-2.29,0-3.68.02-3.75,0-.09-.03,2.1-.13,4.67-.15Z"/>
      <path class="cls-5" d="M339.58,323.69c.57-.03.74.28,1.29.29.53.01.67-.27,1.17-.42.85-.25,1.25.3,2.44.59,1.49.36,2.61-.07,2.62,0,0,.07-1.17.58-2.57.32-1.07-.2-1.27-.65-2.13-.54-.77.1-.88.5-1.63.44-.49-.04-.66-.23-1.38-.26-.47-.02-.75.05-.76-.01-.02-.09.43-.38.95-.41Z"/>
      <path d="M326.77,282.59c-1.75-.04-2.28.02-3.97,0-1.63-.02-2.05-.09-3.62-.15-2.61-.1-3.86,0-7.53,0-4.59,0-8.04-.15-8.06-.14-.02.02,3.61.19,7.93.21,3.29.01,3.91-.08,6.57,0,2.39.06,2.72.16,5.01.18,1.5.02,2.04-.02,4.25.02,1.44.02,2.31.05,2.36.04.05-.02-1.32-.11-2.93-.14Z"/>
      <path d="M343.03,297.98c-1.22-.04-1.59.14-2.77.13-1.14-.01-1.43-.19-2.52-.29-1.82-.18-2.7.13-5.26.26-3.21.16-5.61-.14-5.63-.1-.02.04,2.52.39,5.53.29,2.3-.08,2.74-.34,4.59-.24,1.67.09,1.89.34,3.5.33,1.05,0,1.43-.11,2.97-.1,1,0,1.62.06,1.64.02.04-.05-.92-.24-2.05-.28Z"/>
      <path d="M303.78,289.26c.25,0,.46.06.7.13.33.1.44.21.7.28.34.09.82.2,1.39.25,1.31.12,2.11-.13,2.12-.06,0,.03-1.55.53-3.45.47-1-.03-2.51-.23-2.53-.57-.01-.21.57-.49,1.08-.5Z"/>
      <g>
        <path d="M208.17,286.02c.3,0,.56.07.85.15.4.12.53.26.85.34.41.11.99.24,1.69.31,1.59.15,2.56-.15,2.58-.08,0,.04-1.88.65-4.2.57-1.22-.04-3.06-.28-3.08-.69-.02-.26.7-.6,1.31-.61Z"/>
        <path class="cls-2" d="M208.02,286.48c-.11-.33.04-.74.27-.99.94-1.05,3.56-.05,4.08.15.73.28,1.82.7,1.77,1.11-.06.59-2.42.81-4.2.57-1.68-.22-1.89-.73-1.93-.84Z"/>
        <path class="cls-2" d="M208.02,286.48c-.16-.41.06-.96.27-.99.19-.03.28.36.73.69.3.22.62.31.85.34.41.11.99.24,1.69.31.12.01.63.05,1.32.03.5-.02.92-.06,1.26-.11,0,.01,0,.03-.02.06-.11.28-.47.41-.84.48-1.72.35-3.34.03-3.34.03-1.09-.21-1.74-.35-1.93-.84Z"/>
      </g>
      <path class="cls-2" d="M303.66,289.64c-.09-.27.04-.61.22-.82.77-.87,2.93-.04,3.36.13.6.23,1.49.57,1.46.91-.05.49-1.99.67-3.45.47-1.39-.18-1.55-.6-1.58-.69Z"/>
      <path class="cls-2" d="M303.66,289.64c-.13-.34.05-.79.22-.82.15-.02.23.3.6.57.25.18.51.25.7.28.34.09.82.2,1.39.25.1,0,.52.04,1.08.03.41-.01.76-.05,1.04-.09,0,.01,0,.03-.02.05-.09.23-.39.34-.69.4-1.42.29-2.75.03-2.75.03-.89-.18-1.43-.29-1.58-.69Z"/>
      <g>
        <path d="M373.41,299.57c.37,0,.69.09,1.04.19.5.15.66.32,1.04.42.51.14,1.22.3,2.09.38,1.96.18,3.16-.19,3.18-.09.01.05-2.32.8-5.17.71-1.5-.05-3.76-.35-3.79-.85-.02-.32.86-.74,1.61-.75Z"/>
        <path class="cls-2" d="M373.22,300.13c-.14-.41.05-.91.33-1.22,1.15-1.3,4.38-.06,5.03.19.9.35,2.24.86,2.18,1.36-.08.73-2.98,1-5.17.71-2.07-.28-2.32-.9-2.37-1.04Z"/>
        <path class="cls-2" d="M373.22,300.13c-.19-.51.07-1.18.33-1.22.23-.03.34.44.9.85.38.27.77.38,1.04.42.51.14,1.22.3,2.09.38.14.01.78.07,1.62.04.61-.02,1.14-.07,1.56-.13,0,.02-.01.04-.02.07-.14.35-.58.5-1.04.6-2.12.43-4.11.04-4.11.04-1.34-.26-2.14-.43-2.37-1.04Z"/>
      </g>
      <g>
        <path d="M243.99,305.2c.68-.01,1.25.16,1.88.36.9.28,1.19.61,1.88.81.92.26,2.21.57,3.77.72,3.54.35,5.7-.36,5.73-.18.02.1-4.18,1.53-9.33,1.35-2.7-.09-6.79-.67-6.85-1.62-.04-.61,1.55-1.41,2.91-1.44Z"/>
        <path class="cls-2" d="M243.65,306.28c-.27-.77-.02-1.8.6-2.34.66-.57,1.45-.38,4.57-.1,2.62.23,2.27.11,2.91.23,2.37.42,5.64,1.78,5.53,2.85-.13,1.3-5.29,1.94-9.33,1.35-1.65-.24-3.79-.58-4.28-1.98Z"/>
        <path class="cls-2" d="M243.65,306.28c-.35-.97.13-2.27.6-2.34.41-.07.62.85,1.63,1.62.68.52,1.39.72,1.88.81.92.26,2.21.57,3.77.72.26.03,1.4.12,2.92.07,1.1-.04,2.05-.14,2.81-.25,0,.03-.02.08-.04.14-.25.66-1.05.97-1.87,1.14-3.83.83-7.42.08-7.42.08-2.41-.5-3.87-.83-4.28-1.98Z"/>
      </g>
      <g>
        <path d="M249.42,328.25c.68-.01,1.25.16,1.88.36.9.28,1.19.61,1.88.81.92.26,2.21.57,3.77.72,3.54.35,5.7-.36,5.73-.18.02.1-4.18,1.53-9.33,1.35-2.7-.09-6.79-.67-6.85-1.62-.04-.61,1.55-1.41,2.91-1.44Z"/>
        <path class="cls-2" d="M249.08,329.33c-.27-.77-.02-1.8.6-2.34.66-.57,1.45-.38,4.57-.1,2.62.23,2.27.11,2.91.23,2.37.42,5.64,1.78,5.53,2.85-.13,1.3-5.29,1.94-9.33,1.35-1.65-.24-3.79-.58-4.28-1.98Z"/>
        <path class="cls-2" d="M249.08,329.33c-.35-.97.13-2.27.6-2.34.41-.07.62.85,1.63,1.62.68.52,1.39.72,1.88.81.92.26,2.21.57,3.77.72.26.03,1.4.12,2.92.07,1.1-.04,2.05-.14,2.81-.25,0,.03-.02.08-.04.14-.25.66-1.05.97-1.87,1.14-3.83.83-7.42.08-7.42.08-2.41-.5-3.87-.83-4.28-1.98Z"/>
      </g>
      <path d="M317.87,321.64c2.24-.29,4.03,1.15,4.75,1.51,4.96,2.43,6.46,6.47,14.21,8.28,10.21,2.38,20.74-1.25,20.82-.87.06.27-6.22,1.23-14.44,3.78-5.08,1.58-13.03,4.43-18.55,3.72-1.17-.15-3.08-.39-5-1.66-1.6-1.06-1.55-1.74-3.06-2.62-2.32-1.36-3.29-.26-5.65-1.35-2.61-1.21-1.96-2.8-4.93-4.34-2.1-1.09-4.23-1.22-5.12-1.26-1.43-.07-2.63.09-3.47.25-4.18-.67-8.35-1.34-12.53-2.01,10.03-.7,20.05-1.4,30.08-2.1.59-.49,1.58-1.16,2.89-1.33Z"/>
      <g>
        <path class="cls-2" d="M329,328.22c-.66-1.81.12-4.05,1.36-5.41,1.77-1.93,4.08-1.64,10.96-2.02,9.1-.5,9.18-1.24,11.64-.52,4.81,1.41,9.95,5.82,9.23,8.8-1.1,4.56-15.6,4.34-22.69,3.51-9.05-1.06-10.25-3.62-10.51-4.37Z"/>
        <path class="cls-2" d="M329,328.22c-.89-2.22.23-5.21,1.36-5.41,1-.17,1.55,1.92,4.03,3.65,1.67,1.16,3.41,1.6,4.62,1.78,4.56.69,6.64,1.93,9.21,1.49,2.5-.42,2.65-1.33,5.03-1.91,3.35-.81,6.54.13,8.94,1.25-.02.07-.05.18-.1.31-.59,1.53-2.52,2.26-4.51,2.7-9.29,2.06-18.08.49-18.08.49-5.9-1.05-9.46-1.74-10.51-4.37Z"/>
      </g>
      <path class="cls-6" d="M325.05,306.72c-3.58-3.64-7.16-7.27-10.74-10.91-3.83,3.45-7.67,6.89-11.5,10.34.48.07.97.13,1.45.19.11,6.02.22,12.04.33,18.06,6.47-.12,12.93-.23,19.4-.35-.21-11.42-.32-17.44-.32-17.44h0s.54.04,1.38.1Z"/>
      <g>
        <path class="cls-2" d="M307.87,327.74c-.51-1.43.24-3.08,1.01-4.02,1.58-1.94,4.18-2.05,9.31-2.21,4.27-.13,6.4-.19,8.56.77,2.6,1.16,6.3,3.96,5.8,6.09-.79,3.33-11.38,3.26-16.86,2.61-6.74-.8-7.62-2.7-7.81-3.25Z"/>
        <path class="cls-2" d="M307.87,327.74c-.5-1.45.35-3.04,1.01-4.02.54.96,1.48,2.24,3,2.72,1.7.54,2.44-.47,4.53-.27,2.62.25,2.67,1.95,5.75,2.7,1.17.28,2.54.17,5.3.03,2-.1,3.72-.31,5.08-.52-.01.05-.04.14-.07.23-.44,1.14-1.88,1.68-3.35,2.01-6.91,1.53-13.44.37-13.44.37-4.43-.79-7.14-1.31-7.81-3.25Z"/>
      </g>
      <path class="cls-2" d="M345.04,321.82c-.14,3.62-.28,7.24-.42,10.87-.06.4-.22,1-.68,1.58-1.54,2-4.84,1.77-5.27,1.74-.62-.05-3.11-.25-3.95-1.81-.25-.47-.29-.92-.27-1.24.21-3.71.42-7.41.63-11.12-.01-.16-.13-2.12,1.56-3.2.75-.48,1.54-.58,1.96-.6.06-1.38.12-2.76.18-4.15l3.23.09-.18,4.15c.37.01,1.25.09,2.03.65,1.52,1.09,1.2,2.94,1.18,3.03Z"/>
      <path d="M334.97,328.82c-.08,1.27-.15,2.54-.23,3.81-.03.26-.04.69.15,1.16,0,0,.13.33.38.63.78.93,6.56,2.47,8.52-.37.37-.54.53-1.12.59-1.63.03-1.3.06-2.6.1-3.9-1.58-.04-3.25-.03-5,.03-1.57.05-3.07.15-4.5.28Z"/>
      <path d="M336.65,322.61c.63.24,1.47.48,2.49.61,1.66.2,3.03,0,3.9-.2-.21,3.23-.43,6.45-.64,9.68-.75.25-2.07.58-3.7.46-.94-.07-1.72-.27-2.3-.47.08-3.36.17-6.71.25-10.07Z"/>
      <g>
        <path d="M343.48,312.3c-.08.64-.17,1.27-.25,1.91-.45.24-1.57.75-3.06.63-1.33-.11-2.28-.67-2.7-.96v-1.78c.21.16.51.37.91.55.78.35,1.45.39,1.85.4,1.45.06,2.66-.45,3.26-.75Z"/>
        <path class="cls-5" d="M337.57,312.1c0,.44,1.56.8,2.67.86,1.37.08,3.09-.23,3.13-.7.03-.44-1.44-1.02-2.77-1.08-1.45-.07-3.04.46-3.03.91Z"/>
      </g>
      <g>
        <path class="cls-2" d="M320.38,333.94c-.41-1.17.31-2.38.82-3.24,2.06-3.49,6.97-5.83,9.66-4.32.78.43.88.92,1.68,2,3.34,4.55,7.83,4.68,7.72,6.07-.13,1.78-7.48,2.8-13.59,2.1-5.45-.63-6.15-2.19-6.3-2.62Z"/>
        <path class="cls-2" d="M320.38,333.94c-.17-.58-.23-1.62.82-3.24.43.57,1.2,1.46,2.41,2.19.48.29,1.48.88,2.77,1.07,2.39.34,2.88-1.11,5.07-.96,2.05.14,2.37,1.46,4.72,1.88,1.69.3,3.17-.08,4.1-.42-.01.04-.03.11-.06.19-.44,1.13-2.09,1.49-2.7,1.62-1.95.42-15.8,2.29-17.13-2.32Z"/>
      </g>
      <g>
        <path d="M208.46,343.66c1.48-.03,2.74.34,4.13.75,1.97.58,2.61,1.26,4.13,1.68,2.02.55,4.85,1.18,8.27,1.49,7.77.72,12.51-.75,12.59-.37.04.2-9.17,3.16-20.48,2.8-5.93-.19-14.91-1.38-15.03-3.36-.08-1.26,3.41-2.92,6.39-2.98Z"/>
        <path class="cls-2" d="M207.71,345.9c-.62-1.84.5-4.01,1.32-4.85,1.46-1.51,3.7-.59,9.86,0,6.66.64,6.81-.16,10.05.74,3.29.91,8.87,3.33,8.64,5.41-.31,2.89-11.8,3.95-20.48,2.8-8.22-1.09-9.21-3.55-9.4-4.1Z"/>
        <path class="cls-2" d="M207.71,345.9c-.25-.75-.16-1.64-.11-1.86.17-.79.59-1.77,1.43-2.98.7.66,1.88,1.79,3.57,3.36,1.24,1.16,2.17,1.99,3.59,2.23.54.09.94.06,1.19.04,2.61-.16,4.35.53,7.63.9,2.42.28,4.22.22,6.42.15,2.42-.08,4.51-.29,6.17-.52-.02.07-.05.16-.09.28-.56,1.37-2.31,2-4.1,2.36-5.88,1.19-16.29.16-16.29.16h0s-8.28-.74-9.4-4.1Z"/>
      </g>
      <rect class="cls-1" x="402.64" y="278.3" width="18.33" height="72.74"/>
    </g>
  </g>
</svg>