<?xml version="1.0" encoding="UTF-8"?>
<svg id="Layer_2" data-name="Layer 2" xmlns="http://www.w3.org/2000/svg" viewBox="0 0 401.89 195.62">
  <defs>
    <style>
      .cls-1 {
        stroke: #fff;
      }

      .cls-1, .cls-2 {
        stroke-miterlimit: 10;
        stroke-width: .25px;
      }

      .cls-3, .cls-2 {
        fill: #fff;
      }

      .cls-2 {
        stroke: #000;
      }
    </style>
  </defs>
  <g id="Capa_1" data-name="Capa 1">
    <g>
      <rect x="0" y="37.26" width="401.89" height="146.97"/>
      <g>
        <g>
          <path class="cls-1" d="M276.45,68c-9.06,5.48-9.89,5.99-9.96,5.86-.2-.34,5.13-5.86,12.91-10.31,6.58-3.76,8.3-2.49,14.52-6.55,1.3-.85,10.3-6.72,9.4-11-.29-1.38-1.55-2.31-1.61-2.35-2.17-1.57-5.12,0-5.2-.24-.11-.35,5.53-4.64,12.47-5.83,15.96-2.72,30.19,12.48,30,12.87-.1.2-4.23-3.48-10.04-2.88-1.34.14-4.02.42-6.33,2.57-3.49,3.26-4.12,9.17-3.83,13.48.24,3.54,2.06,6.23.95,7.45-.71.78-2.04.4-2.71.25-7.07-1.58-14.94,5.83-15.61,4.69-.5-.86,4.69-3.73,4.38-7.37-.35-4.11-7.57-7.42-9.56-5.57-.75.69-.74,2.1-2.4,3.84-.45.47-1,1.04-1.38.86-.75-.36.14-3.17-1.02-4.15-.4-.34-.9-.33-1.31-.3-7.01.64-13.67,4.66-13.67,4.66Z"/>
          <path class="cls-1" d="M276.48,68.89c-9.06,5.48-9.89,5.99-9.96,5.86-.2-.34,5.13-5.86,12.91-10.31,6.58-3.76,8.3-2.49,14.52-6.55,1.3-.85,10.3-6.72,9.4-11-.29-1.38-1.55-2.31-1.61-2.35-2.17-1.57-5.12,0-5.2-.24-.11-.35,5.53-4.64,12.47-5.83,15.96-2.72,30.19,12.48,30,12.87-.1.2-4.23-3.48-10.04-2.88-1.34.14-4.02.42-6.33,2.57-3.49,3.26-4.12,9.17-3.83,13.48.24,3.54,2.06,6.23.95,7.45-.71.78-2.04.4-2.71.25-7.07-1.58-14.94,5.83-15.61,4.69-.5-.86,4.69-3.73,4.38-7.37-.35-4.11-7.57-7.42-9.56-5.57-.75.69-.74,2.1-2.4,3.84-.45.47-1,1.04-1.38.86-.75-.36.14-3.17-1.02-4.15-.4-.34-.9-.33-1.31-.3-7.01.64-13.67,4.66-13.67,4.66Z"/>
        </g>
        <g>
          <path class="cls-1" d="M186.12,143.25c.23-.38.48-.86.41-1.42-.19-1.63-2.81-2.13-2.71-3.04.05-.46.76-.72,1.34-.93,2.16-.77,3.25-.08,4.15-.47,2.41-1.04,3.39-9.74.38-12.1-2.67-2.09-7.43,1.58-7.86.67-.56-1.21,9.04-5.29,11.29-12.99.21-.73.57-2.22,1.52-2.53,1.49-.49,2.67,2.62,5.3,4.59,3.2,2.4,8.09,4.68,12.33,2.87,2.8-1.2,4.34-3.7,5.1-4.94,3.32-5.4,2.5-11.25,2.7-11.25.39,0,5.18,21.41-4.77,35.71-4.32,6.21-10.42,9.63-10.63,9.35-.15-.2,2.51-2.32,2.37-5.22,0-.07-.11-1.77-1.03-2.73-2.87-2.99-11.84,2.95-13.13,3.81-6.19,4.1-6.05,6.41-12.2,11.01-7.26,5.44-14.16,7.95-14.32,7.59-.06-.13.74-.7,9.43-6.88,0,0,6.39-4.55,10.32-11.1Z"/>
          <path class="cls-1" d="M186.15,144.14c.23-.38.48-.86.41-1.42-.19-1.63-2.81-2.13-2.71-3.04.05-.46.76-.72,1.34-.93,2.16-.77,3.25-.08,4.15-.47,2.41-1.04,3.39-9.74.38-12.1-2.67-2.09-7.43,1.58-7.86.67-.56-1.21,9.04-5.29,11.29-12.99.21-.73.57-2.22,1.52-2.53,1.49-.49,2.67,2.62,5.3,4.59,3.2,2.4,8.09,4.68,12.33,2.87,2.8-1.2,4.34-3.7,5.1-4.94,3.32-5.4,2.5-11.25,2.7-11.25.39,0,5.18,21.41-4.77,35.71-4.32,6.21-10.42,9.63-10.63,9.35-.15-.2,2.51-2.32,2.37-5.22,0-.07-.11-1.77-1.03-2.73-2.87-2.99-11.84,2.95-13.13,3.81-6.19,4.1-6.05,6.41-12.2,11.01-7.26,5.44-14.16,7.95-14.32,7.59-.06-.13.74-.7,9.43-6.88,0,0,6.39-4.55,10.32-11.1Z"/>
        </g>
        <path class="cls-1" d="M194.14,122.65c-4.59-1.84-6-7.21-7.33-6.65-.65.28-.54,1.63-.78,2.94-1.03,5.75-8.75,11.05-15.63,11.7,0,0-9.46.91-10.07,2.16-.04.08-.19.4-.46.77-1.15,1.5-3.3,2.16-4.01,1.37-.38-.42-.07-.93-.5-1.43-.4-.47-.87-.23-2.11-.37-1.76-.2-2.41-.84-3.17-.3-.23.16-.13.19-.56.63-.5.51-1.15,1.18-1.92,1.28-.94.12-1.17-.72-1.95-.51-.76.2-.76,1.06-1.45,1.18-.76.13-1.07-.83-1.82-.7-.73.13-.75,1.1-1.47,1.22-.77.13-1.12-.95-1.87-.81-.7.13-.7,1.15-1.42,1.31-.74.16-1.08-.82-1.87-.68-.72.13-.77,1.01-1.47,1.09-.72.08-.96-.84-1.65-.77-.78.09-.88,1.33-1.64,1.4-.69.06-1.01-.91-1.72-.79-.46.08-.74.55-.87.75-.98,1.48-3.35,2-4.22,2.18-4.42.95-11.37-7.55-12.68-9.74-.16-.27-.69-1.19-1.56-1.36-.73-.14-1.36.32-1.52.43-2.73,1.87-13.58.94-13.84,2.75-.11.73,1.61,1,1.74,2.26.17,1.8-3.05,4.22-6.34,4.89-3.49.71-4.57-1.07-8.77-1.48-6.09-.59-10.84,2.46-10.8,2.65.04.19,4.26-2.08,9.51-.9,3.86.87,4.01,2.65,7.36,3.69,7.38,2.31,14.06-4.02,15.11-2.16.56,1-.87,3.71-2.29,5.21-1.42,1.5-2.73,2.01-8.13,3.13-8.16,1.69-11.19,2.72-13.01.87-.39-.38-1-1.19-2.08-1.46-1.51-.38-2.83.29-3.24.48-3.73,1.7-8.26-6.43-14.96-6.92-5.69-.41-9.46,4.84-14.3,3.23-.48-.16-1.43-.54-2.55-.2-1.95.59-3.24,3.07-3.65,5.19-.48,2.49.55,2.96.33,5.08-.46,4.4-5.11,4.58-6.46,9.31-.96,3.37,1.04,4.63.38,8.54-.33,1.96-1.38,4.95-5.79,8.65-10.38,8.74-24.25,8.77-24.2,9.97.06,1.38,18.05.1,30.35.74,3.78.19,7.77.6,11.89-1.39.89-.43,1.52-.92,2.77-1.26,4.17-1.13,6.47,1.42,8.21-.06,1.41-1.2.2-3.13,1.84-5.33,1.72-2.3,3.85-1.24,5.01-3.21,1.27-2.15-.9-4.07-.1-7.56.72-3.12,3.49-6.11,6.29-6.44,2.54-.3,4.36,1.69,5.48.57.72-.72.23-1.79.96-3.25.75-1.51,2.19-2.23,3.32-2.61,5.41-1.6,9.85-1.92,12.94-1.9,5.37.03,7.14,1.08,12.36.44,5.02-.61,10.81-2.49,10.96-4.97.08-1.21-1.25-1.63-1.2-3.02.09-2.96,6.24-4.85,6.99-5.08,5.92-1.77,12.35-.58,12.61,1.4.14,1.06-1.38,1.8-1.12,3.07.29,1.44,2.55,2,2.95,2.1,4.92,1.22,10.46-3.11,11.95-4.27,1.42-1.11,2.2-1.96,3.77-2.31,1.91-.42,3.89.14,5.12.48,2.4.68,3.3,1.49,3.92.93.83-.75-.19-2.71.83-3.78.55-.58,1.54-.72,2.08-.29.7.56.06,1.78.72,2.79.58.89,1.41.46,3.79,1.22,1.93.62,2.54,1.27,3.11.85.6-.45.26-1.45.56-2.72.62-2.7,3.82-5.39,6.15-4.41,1.24.52,2.41,2.1,2.27,3.54-.16,1.66-1.93,1.92-3.49,4.78-.89,1.64-.41,1.75-1.11,2.89-1.63,2.67-4.95,3.17-9.94,3.94-.82.13-1.46.19-2.18.2-2.32.03-3.17-.53-4.51-.57-3.15-.11-5.86,2.73-5.72,3.06.1.24,1.63-.94,4.1-1.35,5.56-.92,7.86,3.39,12.9,2.23,1.45-.33.66-.55,4.35-2.16,5.42-2.35,7.22-1.66,8.36-3.86.76-1.46.9-3.43,2.59-4.71.35-.26,1.45-1.1,2.44-.7.55.22.61.65,1.03.67.4.01.8-.36,2.07-2.64.8-1.44,1.26-2.11,1.57-2.41,1.79-1.72,5.84-1.05,8.02,1.38,1.37,1.53.84,3.33,2.04,3.96,1.02.53,2.09-.24,3.71-1.11,5.44-2.94,6.99-1.67,10.92-4.8,1.49-1.19,2.95-2.71,2.73-3.12-.29-.55-3.02,1.93-6.17,1.6-3.99-.42-7.7-5.29-8.97-10.16-1.54-5.9.54-11.58-.75-12.08-.56-.22-.98.81-2.43,1.63-2.7,1.53-5.81.28-6.65-.06ZM115.64,142.64c-.18.39-.51.32-1.56.86-1.58.81-2.47,1.81-3.36,2.7-2.69,2.68-6.55,5.52-6.77,5.23-.26-.34,5.39-4.17,5.12-8.91-.15-2.52-1.93-4.7-3.48-5.78-2.52-1.75-5.14-1.07-5.17-1.47-.03-.47,3.64-2.11,7.48-1.01,4.89,1.4,8.5,6.78,7.74,8.38ZM159.95,140.6c-.76.69-1.29,1.14-2.06,2.13-.86,1.11-.68,1.77-1.3,2.1-.79.42-1.57-.38-2.76-.92-2.44-1.09-5.26-.44-6.91.61-1.63,1.04-1.18,1.89-3.03,3.44-2.6,2.19-5.88,2.54-6.19,1.83-.25-.57,1.64-1.42,1.6-2.93-.05-2.14-3.93-3.62-4.64-3.88-4.79-1.75-8.87-.16-8.94-.53-.06-.32,2.98-1.78,6.72-1.8,2.77-.01,3.08,1.23,5.63.99,2.26-.22,3-1.14,4.79-.62,1.6.46,2.61,1.65,2.94,1.29.24-.26-.09-1.13-.43-1.67-.7-1.12-1.73-1.36-1.7-1.5.07-.29,4.47,1.64,8.81,1.33,6.05-.43,10.05-5.48,10.57-4.73.36.51-1.28,3.19-3.11,4.87Z"/>
        <g>
          <path class="cls-1" d="M310.96,49.7c1.8.54,3.18,1.97,3.32,2.14,2.51,2.68,3.28,7.11,2.31,10.26-.82,2.62-2.5,3.21-7.38,6.7-3.87,2.76-8.37,6.37-17.35,13.6-.06.04-4.16,3.34-4.55,2.83-.34-.45,2.69-3.4,2.07-4.64-.4-.81-2.18-.51-3.25-.27-10.95,2.44-16.31,11.11-16.31,11.11-1.43,2.31-1.9,3.89-4.14,6.72-.88,1.11-4.27,5.41-6.25,4.48-.74-.34-.61-1.09-1.64-1.67-.91-.51-1.62-.28-3.58-.18-1.67.08-2.47-.09-3.05-.02-4.39.59-9.31,5.07-19.22,13.63-.31.27-2.26,2.06-4.65,4.67-3.77,4.12-4.78,6.11-5.3,8.07-.17.63-1,3.82.2,4.94.86.8,2.25.04,2.32.29.18.54-5.85,7.14-11.9,4.3-4.62-2.17-6.6-8.45-5.56-12.85.63-2.64,2.31-4.44,3.5-5.72.56-.61,1.03-1.01,1.46-1.33,1.03-.75,1.81-1.16,2.5-1.51,2.42-1.23,3.63-1.85,4.75-3.07,1.28-1.39,1.15-2.14,2.32-2.75,1.14-.6,1.65-.09,2.61-.8,1.13-.83.83-1.84,1.91-2.51,1.02-.64,1.5.14,2.61-.44,1.28-.67.99-1.87,2.39-2.76.99-.63,1.26-.11,2.45-.78,1.35-.76,1.16-1.53,2.41-2.2,1.28-.69,1.74-.02,2.9-.77,1-.64.77-1.22,1.89-2.09.95-.75,1.22-.4,2.84-1.3,1.18-.65,1.98-1.12,2.29-2.05.29-.87-.14-1.26.2-1.85.51-.91,2-.86,3.15-.82,1.89.07,2.21.59,3.2.4,1.44-.27,2.13-1.63,2.93-2.59,2.96-3.54,6.66-.67,11.45-4.08,2.25-1.6,4.49-4.41,3.97-6.3-.26-.93-.99-.95-1.13-1.55-.62-2.56,11.92-5.85,23.04-14.66,8.44-6.7,13.02-14.16,18.29-12.58Z"/>
          <path class="cls-1" d="M310.74,50.51c1.8.54,3.18,1.97,3.32,2.14,2.51,2.68,3.28,7.11,2.31,10.26-.82,2.62-2.5,3.21-7.38,6.7-3.87,2.76-8.37,6.37-17.35,13.6-.06.04-4.16,3.34-4.55,2.83-.34-.45,2.69-3.4,2.07-4.64-.4-.81-2.18-.51-3.25-.27-10.95,2.44-16.31,11.11-16.31,11.11-1.43,2.31-1.9,3.89-4.14,6.72-.88,1.11-4.27,5.41-6.25,4.48-.74-.34-.61-1.09-1.64-1.67-.91-.51-1.62-.28-3.58-.18-1.67.08-2.47-.09-3.05-.02-4.39.59-9.31,5.07-19.22,13.63-.31.27-2.26,2.06-4.65,4.67-3.77,4.12-4.78,6.11-5.3,8.07-.17.63-1,3.82.2,4.94.86.8,2.25.04,2.32.29.18.54-5.85,7.14-11.9,4.3-4.62-2.17-6.6-8.45-5.56-12.85.63-2.64,2.31-4.44,3.5-5.72.56-.61,1.03-1.01,1.46-1.33,1.03-.75,1.81-1.16,2.5-1.51,2.42-1.23,3.63-1.85,4.75-3.07,1.28-1.39,1.15-2.14,2.32-2.75,1.14-.6,1.65-.09,2.61-.8,1.13-.83.83-1.84,1.91-2.51,1.02-.64,1.5.14,2.61-.44,1.28-.67.99-1.87,2.39-2.76.99-.63,1.26-.11,2.45-.78,1.35-.76,1.16-1.53,2.41-2.2,1.28-.69,1.74-.02,2.9-.77,1-.64.77-1.22,1.89-2.09.95-.75,1.22-.4,2.84-1.3,1.18-.65,1.98-1.12,2.29-2.05.29-.87-.14-1.26.2-1.85.51-.91,2-.86,3.15-.82,1.89.07,2.21.59,3.2.4,1.44-.27,2.13-1.63,2.93-2.59,2.96-3.54,6.66-.67,11.45-4.08,2.25-1.6,4.49-4.41,3.97-6.3-.26-.93-.99-.95-1.13-1.55-.62-2.56,11.92-5.85,23.04-14.66,8.44-6.7,13.02-14.16,18.29-12.58Z"/>
        </g>
        <path class="cls-3" d="M196.38,130.42c-2.89-2.02-4.03-1.67-5.67-3.76-1.69-2.14-1.14-3.32-2.82-5.31-2.45-2.87-5.94-3.13-5.99-2.99-.04.11,1.94.56,2.91,2.46.15.31.78,1.54.35,2.49-.54,1.19-2.54,1.48-4,.92-1.88-.72-2.59-2.72-3.39-2.38-.44.19-.29.83-1.06,1.69-.29.33-.88.99-1.59.99-1.08,0-1.48-1.52-2.2-1.35-.61.14-.45,1.27-1.38,2.1-.91.8-2.09.67-2.17.65-1.55-.21-2.35-1.86-2.88-1.52-.24.16-.11.53-.31,1.09-.37,1.07-1.55,1.87-2.54,1.91-1.82.08-2.9-2.42-3.74-1.94-.38.22-.18.74-.74,1.53-.06.09-.87,1.2-1.93,1.25-1.4.06-2.22-1.79-2.85-1.44-.31.18-.21.69-.38,1.18-.79,2.23-6.45,1.28-6.63,2.23-.15.77,3.44,1.3,4.15,3.44.99,3-3.58,9.49-9.26,11.16-10.43,3.07-21.01-11.18-21.43-13.95-.02-.12-.07-.55-.35-.87-1.03-1.14-3.88.38-5.21,1.06-7.55,3.85-16.37,6-19.79,5.71-.26-.02-1.22-.24-2.42.04-1.06.24-1.8.73-2.04.89-2.23,1.45-6.66,3.69-9.48,5.11-5.64,2.84-10.51,2.51-10.49,2.74.02.21,4.32.49,9.66-.9,7.69-2,10.7-5.67,15.67-4.14,1.48.46,3.28,1.43,3.27,2.34-.03,2.19-10.02.65-13.64,6.89-1.57,2.71-.5,4.39-3.04,9.58-.65,1.33-1.36,2.51-1.35,4.27.02,2.81,1.82,4.15,1.26,5.11-.66,1.12-3.99.77-5.16-1.11-.48-.77-.41-1.5-1.01-1.88-.9-.57-2.19.31-2.69.6-2.98,1.72-7.36-.66-9.07-1.59-4.67-2.54-8.97-8.58-10.8-10.1-.3-.25-.7-.59-1.26-.94-.54-.34-.97-.53-1.1-.59-1.39-.63-3.62-2.39-3.96-2.65-3.15-2.42-8.66-2.74-8.72-2.48-.05.25,4.81.65,7.83,4.75.89,1.21,1.77,2.96,1.39,3.41-.51.6-2.57-1.9-5.97-3.18-3.5-1.31-6.86-.59-13.57.86-1.78.38-3.6.78-5.9,1.53-9.71,3.18-16.36,8.98-16.24,9.23.12.24,6.83-4.83,17.36-7.55,5.33-1.38,9.32-1.56,11.72.92.29.3,1.56,1.61,1.61,3.45.08,3.33-3.94,5.61-4.12,5.71-4.54,2.49-9.49-.26-9.6.18-.1.42,4.09,3.42,8.15,2.15,1.31-.41,2.4-1.2,2.94-.67.77.75-.26,3.38-.43,3.82-2.56,6.57-10.87,9.47-11.42,9.63.44-.08,7.24-1.1,12.7-6.91,1.24-1.33,3.14-3.67,5.19-3.25,1.27.27,1.39,1.34,3.06,1.92,2.26.79,3.24-.84,4.99-.07,2.65,1.16,2.25,4.44,3.73,4.44,1.18,0,1.88-2.11,5.79-6.92,1.28-1.58,1.93-2.37,2.31-2.51,5.02-1.86,13.26,12.05,15.43,10.41.2-.15.08-.23.39-.72,1.6-2.53,6.27-2.95,9.35-1.09.86.52,1.04.89,1.46.78,1.51-.39.2-5.37,2.57-9.97,1.93-3.76,4.68-4.1,4.58-6.4-.12-2.65-3.8-3.19-3.81-5.56,0-3.03,5.98-5.38,7.27-5.88,3.08-1.21,4.35-1.01,6.44-1.48,4.19-.93,7.66-10.91,13.19-12.11,5.05-1.09,11.73,5.57,11.75,10.85.02,3.19-2.4,6.41-1.98,6.71.34.25,1.58-2.22,3.7-2.27.74-.02.88.28,1.63.35,1.88.18,2.75-1.51,4.52-2.47,2.73-1.48,6.39-.52,8.68,1.31,1.53,1.23,4,4.07,3.33,5.75-.99,2.48-7.33-1.31-15.4,1.91-3.91,1.56-3.85,3.01-7.85,4.23-6.32,1.92-11.32-.23-11.37.06-.05.33,6.25,3.59,13.15,1.5,3.95-1.2,3.61-2.79,7.59-3.97,6.11-1.81,8.31,1.51,13.37-.8,3.45-1.58,6.33-4.91,5.86-6.23-.23-.63-1.07-.43-1.78-1.03-2.03-1.71-.62-8.1.57-11.05,4.89-12.07,26.72-16.98,32.3-9.5,2.65,3.56.47,8.56,4.31,12.11,1.89,1.75,5.32,3.21,8.43,1.49,2.82-1.56,4.48-5.23,4.03-8.29-.49-3.31-3.36-5.32-5.97-7.15ZM108.88,138.94c-2.4,2.89-3.06,6-3.8,5.79-.48-.14-.15-1.44-1.06-2.72-1.09-1.53-2.87-1.51-2.82-1.94.04-.4,1.64-.52,2.71-.6,1.86-.14,1.86.1,2.52-.1,1.51-.44,1.59-1.69,3.34-3.01,1.62-1.22,3.45-1.58,3.56-1.31.14.32-2.25,1.22-4.46,3.89Z"/>
        <path class="cls-3" d="M279.01,66.71c-.27.03.59,6.2-.7,16.76-1.34,11.04-3.33,12.97-4.05,13.51-.36.27-2.23,1.57-2.09,2.97.03.32.14.39.24.76.35,1.32-.28,3.17-1.09,3.67-1.5.93-4.75-2.17-6.53-4.84-.72-1.08-3.44-5.17-2.8-10.07.44-3.3,2.21-5.54,1.55-6.21-.35-.36-1.03.1-2.52.76-2.39,1.05-6.04,2.66-8.78,1.39-1.1-.51-1.69-1.32-1.94-1.59-5.13-5.46-45.85,29.37-45.77,29.47.07.09,28.92-25.25,43.21-24.41.57.03,6.33.42,6.95,3.05.35,1.49-1.22,2.55-1.76,6.35-.33,2.34.19,2.51-.21,3.93-.44,1.56-1.62,3.34-6.38,5.83-3.7,1.94-5.71,2.02-7.37,3.02-9.19,5.53-8.08,17.46-13.84,18.25-4.82.66-7.97-7.5-12.83-5.62-2.27.88-3.41,3.21-3.49,3.39-1.04,2.22-1.16,5.53.31,7.4,2.11,2.67,5.38-.32,10.69,2.43,1.85.96,4.69,2.99,4.96,2.57.13-.2-.3-.99-.07-1.87.02-.08.2-.85.63-1.25,1.26-1.12,4,1.52,4.84.62.5-.51-.31-1.52.15-3.21.11-.41.57-1.88,1.67-2.41,1.75-.87,3.78,1.31,4.45.53.42-.48-.32-1.42.08-2.76.37-1.25,1.42-1.87,1.58-1.97,2.12-1.23,4.47.95,5.4-.18.34-.43.03-.77.31-1.79.56-2.03,2.42-3.03,2.62-3.13,2.33-1.22,4.35.41,5.08-.72.4-.63-.17-1.19.08-2.76.05-.32.35-1.97,1.35-2.95,1.83-1.78,4.65.05,5.63-1.51.4-.63-.02-1.01.4-2.23.47-1.36,2.15-2.77,2.15-2.77,2.51-1.97,3.77-2.96,4.57-3.03,1.65-.15,3.53.63,4.61,2.09.81,1.1.79,2.07,1.28,2.11.73.06,1.16-2.08,2.63-4.93,1.06-2.06,2.01-3.23,2.36-3.76,3.81-5.71,2.99-34.93,2.41-34.87ZM248.94,114.31c-.18.69-.18,1.14-.56,1.5-.58.54-1.23.09-2.47.21-.32.03-1.81.18-2.94,1.36-.98,1.03-1.28,2.4-1.36,2.78-.23,1.13.04,1.4-.25,1.88-.62,1.05-2.16.24-3.84.83-2.75.98-3.43,4.9-4.25,4.63-.57-.18-.7-2.17-.43-3.93.55-3.54,2.84-6.94,5.94-8.84,2.84-1.74,3.48-.46,8.48-2.8,1.66-.78,3.51-1.82,3.75-1.42.22.38-1.46,1.37-2.08,3.8Z"/>
        <path class="cls-1" d="M193.97,124.8c-4.9-1.81-7.09-6.65-8.03-5.99-.4.28-.06,1.24-.08,2.28-.09,4.8-7.88,10.68-15.63,11.7-.75.1-8.67,1.15-9.82,1.77-.18.1-.79.42-.79.85,0,.14.06.2.07.3.08.74-3.09,2.39-4.01,1.37-.38-.42-.07-.93-.5-1.43-.4-.47-.87-.23-2.11-.37-1.76-.2-2.41-.84-3.17-.3-.23.16-.13.19-.56.63-.5.51-1.15,1.18-1.92,1.28-.94.12-1.11-.68-1.95-.51-.87.18-.95,1.14-1.73,1.18-.7.03-.86-.74-1.54-.7-.82.05-.97,1.18-1.76,1.21-.71.03-.88-.85-1.57-.8-.79.05-.93,1.24-1.75,1.31-.68.06-.86-.74-1.55-.68-.81.07-.98,1.22-1.72,1.22-.64,0-.75-.86-1.39-.89-.84-.04-1.14,1.39-1.99,1.35-.6-.02-.75-.75-1.37-.74-.58,0-.99.64-1.24.97,0,0-.97,1.27-3.84,1.96-4.26,1.03-11.31-7.45-12.68-9.74-.16-.27-.69-1.19-1.56-1.36-.73-.14-1.36.32-1.52.43-2.73,1.87-13.87,1.42-14.01,3.05-.06.65,1.73.77,1.91,1.97.29,1.92-3.87,4.39-6.34,4.89-.76.15-1.41.19-2,.15-.62-.04-1.35-.08-2.3-.3-1.78-.4-3.09-1.03-3.29-1.12-3.64-1.68-12.74,2.91-12.67,3.11.05.15,5.22-2.91,10.2-1.55.39.11,1.33.29,2.39.84,1.77.91,2.5,2.08,4.97,2.86,7.38,2.31,14.06-4.02,15.11-2.16.56,1-.87,3.71-2.29,5.21-1.42,1.5-2.73,2.01-8.13,3.13-8.16,1.69-11.19,2.72-13.01.87-.39-.38-1-1.19-2.08-1.46-1.51-.38-2.83.29-3.24.48-3.73,1.7-8.26-6.43-14.96-6.92-5.69-.41-9.46,4.84-14.3,3.23-.48-.16-1.43-.54-2.55-.2-1.95.59-3.24,3.07-3.65,5.19-.48,2.49.55,2.96.33,5.08-.46,4.4-5.11,4.58-6.46,9.31-.96,3.37,1.04,4.63.38,8.54-.33,1.96-1.38,4.95-5.79,8.65-10.38,8.74-24.25,8.77-24.2,9.97.06,1.38,18.05.1,30.35.74,3.78.19,7.77.6,11.89-1.39.89-.43,1.52-.92,2.77-1.26,4.17-1.13,6.47,1.42,8.21-.06,1.41-1.2.2-3.13,1.84-5.33,1.72-2.3,3.85-1.24,5.01-3.21,1.27-2.15-.9-4.07-.1-7.56.72-3.12,3.49-6.11,6.29-6.44,2.54-.3,4.36,1.69,5.48.57.72-.72.23-1.79.96-3.25.75-1.51,2.19-2.23,3.32-2.61,5.41-1.6,9.85-1.92,12.94-1.9,5.37.03,7.14,1.08,12.36.44,5.02-.61,10.81-2.49,10.96-4.97.08-1.21-1.25-1.63-1.2-3.02.09-2.96,6.24-4.85,6.99-5.08,5.92-1.77,12.35-.58,12.61,1.4.14,1.06-1.38,1.8-1.12,3.07.29,1.44,2.55,2,2.95,2.1,4.92,1.22,10.46-3.11,11.95-4.27,1.42-1.11,2.2-1.96,3.77-2.31,1.91-.42,3.89.14,5.12.48.79.22,1.54.13,2.1.73.4.43.54.96.91.99.42.04.78-.58.9-.79.91-1.56.03-2.95.83-3.78.55-.58,1.54-.72,2.08-.29.7.56.06,1.78.72,2.79.58.89,1.41.46,3.79,1.22,1.93.62,2.54,1.27,3.11.85.6-.45.26-1.45.56-2.72.62-2.7,3.82-5.39,6.15-4.41,1.24.52,2.41,2.1,2.27,3.54-.16,1.66-1.93,1.92-3.49,4.78-.89,1.64-.41,1.75-1.11,2.89-1.63,2.67-4.95,3.17-9.94,3.94-.82.13-1.46.19-2.18.2-2.32.03-3.17-.53-4.51-.57-3.15-.11-5.86,2.73-5.72,3.06.1.24,1.63-.94,4.1-1.35,5.56-.92,7.86,3.39,12.9,2.23.86-.2.93-.35,1.62-.79.66-.41,1.69-.94,2.73-1.37,3.45-1.43,7.19-.76,8.15-3,.1-.24,0-.12.21-.86.33-1.2.93-3.42,2.59-4.71.19-.15,1.67-1.27,2.44-.7.57.43.33,1.47.69,1.59.44.14,1.07-1.32,2.41-3.55.87-1.44,1.31-2.15,1.57-2.41,1.79-1.72,5.84-1.05,8.02,1.38,1.37,1.53.84,3.33,2.04,3.96,1.02.53,2.09-.24,3.71-1.11,4.15-2.24,6.03-2.03,8.44-3.2.32-.16,1.33-.65,2.48-1.6.21-.17,2.28-1.9,2.04-2.46-.27-.6-2.76,1.23-5.47.95-4.02-.41-7.72-5.37-8.97-10.16-1.54-5.9.54-11.58-.75-12.08-.56-.22-.98.81-2.43,1.63-2.6,1.47-5.54.36-6.65-.06ZM115.97,145.29c-.19.39-.51.33-1.92.98-1.07.5-1.88,1.02-3.5,2.08-3.38,2.2-7.33,6.06-7.47,5.89-.16-.21,6.14-4.52,5.81-9.57-.16-2.49-1.91-4.69-3.48-5.78-2.52-1.75-5.14-1.07-5.17-1.47-.03-.46,3.62-2.05,7.48-1.01,5.24,1.41,9.06,7.18,8.24,8.87ZM159.78,142.76c-.76.69-1.29,1.14-2.06,2.13-.86,1.11-.68,1.77-1.3,2.1-.79.42-1.57-.38-2.76-.92-2.44-1.09-5.26-.44-6.91.61-1.63,1.04-1.18,1.89-3.03,3.44-2.6,2.19-5.88,2.54-6.19,1.83-.25-.57,1.64-1.42,1.6-2.93-.05-2.14-3.93-3.62-4.64-3.88-4.79-1.75-8.87-.16-8.94-.53-.06-.32,2.98-1.78,6.72-1.8,2.77-.01,3.08,1.23,5.63.99,2.26-.22,3-1.14,4.79-.62,1.6.46,2.61,1.65,2.94,1.29.24-.26-.09-1.13-.43-1.67-.7-1.12-1.73-1.36-1.7-1.5.07-.29,4.47,1.64,8.81,1.33,6.05-.43,10.05-5.48,10.57-4.73.36.51-1.28,3.19-3.11,4.87Z"/>
        <path class="cls-1" d="M193.27,125.46c-4.59-1.84-6-7.21-7.33-6.65-.65.28-.54,1.63-.78,2.94-1.03,5.75-8.75,11.05-15.63,11.7,0,0-9.46.91-10.07,2.16-.04.08-.19.4-.46.77-1.15,1.5-3.3,2.16-4.01,1.37-.38-.42-.07-.93-.5-1.43-.4-.47-.87-.23-2.11-.37-1.76-.2-2.41-.84-3.17-.3-.23.16-.13.19-.56.63-.5.51-1.15,1.18-1.92,1.28-.94.12-1.17-.72-1.95-.51-.76.2-.76,1.06-1.45,1.18-.76.13-1.07-.83-1.82-.7-.73.13-.75,1.1-1.47,1.22-.77.13-1.12-.95-1.87-.81-.7.13-.7,1.15-1.42,1.31-.74.16-1.08-.82-1.87-.68-.72.13-.77,1.01-1.47,1.09-.72.08-.96-.84-1.65-.77-.78.09-.88,1.33-1.64,1.4-.69.06-1.01-.91-1.72-.79-.46.08-.74.55-.87.75-.98,1.48-3.35,2-4.22,2.18-4.42.95-11.37-7.55-12.68-9.74-.16-.27-.69-1.19-1.56-1.36-.73-.14-1.36.32-1.52.43-2.73,1.87-13.58.94-13.84,2.75-.11.73,1.61,1,1.74,2.26.17,1.8-3.05,4.22-6.34,4.89-3.49.71-4.57-1.07-8.77-1.48-6.09-.59-10.84,2.46-10.8,2.65.04.19,4.26-2.08,9.51-.9,3.86.87,4.01,2.65,7.36,3.69,7.38,2.31,14.06-4.02,15.11-2.16.56,1-.87,3.71-2.29,5.21-1.42,1.5-2.73,2.01-8.13,3.13-8.16,1.69-11.19,2.72-13.01.87-.39-.38-1-1.19-2.08-1.46-1.51-.38-2.83.29-3.24.48-3.73,1.7-8.26-6.43-14.96-6.92-5.69-.41-9.46,4.84-14.3,3.23-.48-.16-1.43-.54-2.55-.2-1.95.59-3.24,3.07-3.65,5.19-.48,2.49.55,2.96.33,5.08-.46,4.4-5.11,4.58-6.46,9.31-.96,3.37,1.04,4.63.38,8.54-.33,1.96-1.38,4.95-5.79,8.65-10.38,8.74-24.25,8.77-24.2,9.97.06,1.38,18.05.1,30.35.74,3.78.19,7.77.6,11.89-1.39.89-.43,1.52-.92,2.77-1.26,4.17-1.13,6.47,1.42,8.21-.06,1.41-1.2.2-3.13,1.84-5.33,1.72-2.3,3.85-1.24,5.01-3.21,1.27-2.15-.9-4.07-.1-7.56.72-3.12,3.49-6.11,6.29-6.44,2.54-.3,4.36,1.69,5.48.57.72-.72.23-1.79.96-3.25.75-1.51,2.19-2.23,3.32-2.61,5.41-1.6,9.85-1.92,12.94-1.9,5.37.03,7.14,1.08,12.36.44,5.02-.61,10.81-2.49,10.96-4.97.08-1.21-1.25-1.63-1.2-3.02.09-2.96,6.24-4.85,6.99-5.08,5.92-1.77,12.35-.58,12.61,1.4.14,1.06-1.38,1.8-1.12,3.07.29,1.44,2.55,2,2.95,2.1,4.92,1.22,10.46-3.11,11.95-4.27,1.42-1.11,2.2-1.96,3.77-2.31,1.91-.42,3.89.14,5.12.48,2.4.68,3.3,1.49,3.92.93.83-.75-.19-2.71.83-3.78.55-.58,1.54-.72,2.08-.29.7.56.06,1.78.72,2.79.58.89,1.41.46,3.79,1.22,1.93.62,2.54,1.27,3.11.85.6-.45.26-1.45.56-2.72.62-2.7,3.82-5.39,6.15-4.41,1.24.52,2.41,2.1,2.27,3.54-.16,1.66-1.93,1.92-3.49,4.78-.89,1.64-.41,1.75-1.11,2.89-1.63,2.67-4.95,3.17-9.94,3.94-.82.13-1.46.19-2.18.2-2.32.03-3.17-.53-4.51-.57-3.15-.11-5.86,2.73-5.72,3.06.1.24,1.63-.94,4.1-1.35,5.56-.92,7.86,3.39,12.9,2.23,1.45-.33.66-.55,4.35-2.16,5.42-2.35,7.22-1.66,8.36-3.86.76-1.46.9-3.43,2.59-4.71.35-.26,1.45-1.1,2.44-.7.55.22.61.65,1.03.67.4.01.8-.36,2.07-2.64.8-1.44,1.26-2.11,1.57-2.41,1.79-1.72,5.84-1.05,8.02,1.38,1.37,1.53.84,3.33,2.04,3.96,1.02.53,2.09-.24,3.71-1.11,5.44-2.94,6.99-1.67,10.92-4.8,1.49-1.19,2.95-2.71,2.73-3.12-.29-.55-3.02,1.93-6.17,1.6-3.99-.42-7.7-5.29-8.97-10.16-1.54-5.9.54-11.58-.75-12.08-.56-.22-.98.81-2.43,1.63-2.7,1.53-5.81.28-6.65-.06ZM114.77,145.45c-.18.39-.51.32-1.56.86-1.58.81-2.47,1.81-3.36,2.7-2.69,2.68-6.55,5.52-6.77,5.23-.26-.34,5.39-4.17,5.12-8.91-.15-2.52-1.93-4.7-3.48-5.78-2.52-1.75-5.14-1.07-5.17-1.47-.03-.47,3.64-2.11,7.48-1.01,4.89,1.4,8.5,6.78,7.74,8.38ZM159.08,143.41c-.76.69-1.29,1.14-2.06,2.13-.86,1.11-.68,1.77-1.3,2.1-.79.42-1.57-.38-2.76-.92-2.44-1.09-5.26-.44-6.91.61-1.63,1.04-1.18,1.89-3.03,3.44-2.6,2.19-5.88,2.54-6.19,1.83-.25-.57,1.64-1.42,1.6-2.93-.05-2.14-3.93-3.62-4.64-3.88-4.79-1.75-8.87-.16-8.94-.53-.06-.32,2.98-1.78,6.72-1.8,2.77-.01,3.08,1.23,5.63.99,2.26-.22,3-1.14,4.79-.62,1.6.46,2.61,1.65,2.94,1.29.24-.26-.09-1.13-.43-1.67-.7-1.12-1.73-1.36-1.7-1.5.07-.29,4.47,1.64,8.81,1.33,6.05-.43,10.05-5.48,10.57-4.73.36.51-1.28,3.19-3.11,4.87Z"/>
        <path class="cls-1" d="M197.21,136.9c.63,1.29.2,2.91-.95,3.62-1.15.7-2.59.23-3.22-1.07s-.2-2.91.95-3.62c1.15-.7,2.59-.23,3.22,1.07Z"/>
        <path class="cls-1" d="M215.16,128.95c.63,1.29.2,2.91-.95,3.62-1.15.7-2.59.23-3.22-1.07s-.2-2.91.95-3.62c1.15-.7,2.59-.23,3.22,1.07Z"/>
        <path class="cls-1" d="M260.72,95.92c.63,1.29.2,2.91-.95,3.62-1.15.7-2.59.23-3.22-1.07s-.2-2.91.95-3.62c1.15-.7,2.59-.23,3.22,1.07Z"/>
        <g>
          <path class="cls-1" d="M310.24,52.41c1.8.54,3.18,1.97,3.32,2.14,2.51,2.68,3.28,7.11,2.31,10.26-.82,2.62-2.5,3.21-7.38,6.7-3.87,2.76-8.37,6.37-17.35,13.6-.06.04-4.16,3.34-4.55,2.83-.34-.45,2.69-3.4,2.07-4.64-.4-.81-2.18-.51-3.25-.27-10.95,2.44-16.31,11.11-16.31,11.11-1.43,2.31-1.9,3.89-4.14,6.72-.88,1.11-4.27,5.41-6.25,4.48-.74-.34-.61-1.09-1.64-1.67-.91-.51-1.62-.28-3.58-.18-1.67.08-2.47-.09-3.05-.02-4.39.59-9.31,5.07-19.22,13.63-.31.27-2.26,2.06-4.65,4.67-3.77,4.12-4.78,6.11-5.3,8.07-.17.63-1,3.82.2,4.94.86.8,2.25.04,2.32.29.18.54-5.85,7.14-11.9,4.3-4.62-2.17-6.6-8.45-5.56-12.85.63-2.64,2.31-4.44,3.5-5.72.56-.61,1.03-1.01,1.46-1.33,1.03-.75,1.81-1.16,2.5-1.51,2.42-1.23,3.63-1.85,4.75-3.07,1.28-1.39,1.15-2.14,2.32-2.75,1.14-.6,1.65-.09,2.61-.8,1.13-.83.83-1.84,1.91-2.51,1.02-.64,1.5.14,2.61-.44,1.28-.67.99-1.87,2.39-2.76.99-.63,1.26-.11,2.45-.78,1.35-.76,1.16-1.53,2.41-2.2,1.28-.69,1.74-.02,2.9-.77,1-.64.77-1.22,1.89-2.09.95-.75,1.22-.4,2.84-1.3,1.18-.65,1.98-1.12,2.29-2.05.29-.87-.14-1.26.2-1.85.51-.91,2-.86,3.15-.82,1.89.07,2.21.59,3.2.4,1.44-.27,2.13-1.63,2.93-2.59,2.96-3.54,6.66-.67,11.45-4.08,2.25-1.6,4.49-4.41,3.97-6.3-.26-.93-.99-.95-1.13-1.55-.62-2.56,11.92-5.85,23.04-14.66,8.44-6.7,13.02-14.16,18.29-12.58Z"/>
          <path class="cls-1" d="M310.03,53.23c1.8.54,3.18,1.97,3.32,2.14,2.51,2.68,3.28,7.11,2.31,10.26-.82,2.62-2.5,3.21-7.38,6.7-3.87,2.76-8.37,6.37-17.35,13.6-.06.04-4.16,3.34-4.55,2.83-.34-.45,2.69-3.4,2.07-4.64-.4-.81-2.18-.51-3.25-.27-10.95,2.44-16.31,11.11-16.31,11.11-1.43,2.31-1.9,3.89-4.14,6.72-.88,1.11-4.27,5.41-6.25,4.48-.74-.34-.61-1.09-1.64-1.67-.91-.51-1.62-.28-3.58-.18-1.67.08-2.47-.09-3.05-.02-4.39.59-9.31,5.07-19.22,13.63-.31.27-2.26,2.06-4.65,4.67-3.77,4.12-4.78,6.11-5.3,8.07-.17.63-1,3.82.2,4.94.86.8,2.25.04,2.32.29.18.54-5.85,7.14-11.9,4.3-4.62-2.17-6.6-8.45-5.56-12.85.63-2.64,2.31-4.44,3.5-5.72.56-.61,1.03-1.01,1.46-1.33,1.03-.75,1.81-1.16,2.5-1.51,2.42-1.23,3.63-1.85,4.75-3.07,1.28-1.39,1.15-2.14,2.32-2.75,1.14-.6,1.65-.09,2.61-.8,1.13-.83.83-1.84,1.91-2.51,1.02-.64,1.5.14,2.61-.44,1.28-.67.99-1.87,2.39-2.76.99-.63,1.26-.11,2.45-.78,1.35-.76,1.16-1.53,2.41-2.2,1.28-.69,1.74-.02,2.9-.77,1-.64.77-1.22,1.89-2.09.95-.75,1.22-.4,2.84-1.3,1.18-.65,1.98-1.12,2.29-2.05.29-.87-.14-1.26.2-1.85.51-.91,2-.86,3.15-.82,1.89.07,2.21.59,3.2.4,1.44-.27,2.13-1.63,2.93-2.59,2.96-3.54,6.66-.67,11.45-4.08,2.25-1.6,4.49-4.41,3.97-6.3-.26-.93-.99-.95-1.13-1.55-.62-2.56,11.92-5.85,23.04-14.66,8.44-6.7,13.02-14.16,18.29-12.58Z"/>
        </g>
        <g>
          <path class="cls-1" d="M184.7,148.68c.23-.38.48-.86.41-1.42-.19-1.63-2.81-2.13-2.71-3.04.05-.46.76-.72,1.34-.93,2.16-.77,3.25-.08,4.15-.47,2.41-1.04,3.39-9.74.38-12.1-2.67-2.09-7.43,1.58-7.86.67-.56-1.21,9.04-5.29,11.29-12.99.21-.73.57-2.22,1.52-2.53,1.49-.49,2.67,2.62,5.3,4.59,3.2,2.4,8.09,4.68,12.33,2.87,2.8-1.2,4.34-3.7,5.1-4.94,3.32-5.4,2.5-11.25,2.7-11.25.39,0,5.18,21.41-4.77,35.71-4.32,6.21-10.42,9.63-10.63,9.35-.15-.2,2.51-2.32,2.37-5.22,0-.07-.11-1.77-1.03-2.73-2.87-2.99-11.84,2.95-13.13,3.81-6.19,4.1-6.05,6.41-12.2,11.01-7.26,5.44-14.16,7.95-14.32,7.59-.06-.13.74-.7,9.43-6.88,0,0,6.39-4.55,10.32-11.1Z"/>
          <path class="cls-1" d="M184.72,149.57c.23-.38.48-.86.41-1.42-.19-1.63-2.81-2.13-2.71-3.04.05-.46.76-.72,1.34-.93,2.16-.77,3.25-.08,4.15-.47,2.41-1.04,3.39-9.74.38-12.1-2.67-2.09-7.43,1.58-7.86.67-.56-1.21,9.04-5.29,11.29-12.99.21-.73.57-2.22,1.52-2.53,1.49-.49,2.67,2.62,5.3,4.59,3.2,2.4,8.09,4.68,12.33,2.87,2.8-1.2,4.34-3.7,5.1-4.94,3.32-5.4,2.5-11.25,2.7-11.25.39,0,5.18,21.41-4.77,35.71-4.32,6.21-10.42,9.63-10.63,9.35-.15-.2,2.51-2.32,2.37-5.22,0-.07-.11-1.77-1.03-2.73-2.87-2.99-11.84,2.95-13.13,3.81-6.19,4.1-6.05,6.41-12.2,11.01-7.26,5.44-14.16,7.95-14.32,7.59-.06-.13.74-.7,9.43-6.88,0,0,6.39-4.55,10.32-11.1Z"/>
        </g>
        <path class="cls-1" d="M396.62,62.04c.07-.07-27.09-30.83-31.43-27.36-.21.17-.72.7-1.6.96-2.16.63-4.74-1-6.42-2.06-1.05-.67-1.52-1.09-1.81-.86-.57.44.76,2.3.58,4.82-.25,3.4-3.01,4.47-2.53,6.95.26,1.37,1.31,2.14,1.64,2.38,2.36,1.72,6.12.39,6.84-1.7.63-1.83-1.31-3.38-.72-4.95.71-1.89,5.04-1.5,5.47-1.46,10.75,1.05,29.93,23.34,29.99,23.28ZM358.58,44.09c-.19.53-.72.79-1.19.58s-.7-.81-.52-1.34.72-.79,1.19-.58.7.81.52,1.34Z"/>
        <path class="cls-1" d="M336.43,34.65c-.36-.35-2.53-2.53-2.62-6.16-.08-3.04,1.35-5.13,1.73-5.66,1.94,5.3,4.32,7.24,6.19,8.01,3.22,1.32,5.86-.43,7.91,1.73,1.64,1.73.58,3.52,2.21,5.91,1.91,2.81,4.44,1.89,7.74,3.89,5.3,3.21,7.35,10.76,6.73,11.28-.43.36-1.96-2.77-6.27-6.06-1.36-1.04-1.83-1.2-12.9-6.6-1.75-.86-3.41-1.67-5.58-2.96-2.22-1.32-3.98-2.55-5.14-3.39Z"/>
        <path class="cls-1" d="M347.01,31.09c.06.69.26,1.52.82,2.08,1.14,1.14,2.83.21,3.23.95.41.77-.76,3.07-2.66,4.13-2.57,1.43-4.13-.7-6.36.61-2.16,1.28-1.53,3.79-3.9,5.12-1.33.74-3.2.9-4.7.1-2.34-1.24-2.11-3.93-4.85-5.36-.74-.38-1.78-.93-2.65-.46-1.64.88-.51,4.17-1.98,7.05-1.58,3.09-5.89,5.21-9.47,3.74-3.05-1.25-5.44-5.06-4.81-7.69.47-1.95,2.3-1.99,3.82-4.26,1.77-2.65,1.65-6.15,1.21-8.86,1.64.91,4.2,2.06,7.41,2.35,3.95.37,4.91-.91,9.2-.57,3.88.31,4.46,1.46,8.39,1.77,3.07.24,5.62-.24,7.29-.69Z"/>
        <path class="cls-2" d="M396.69,62.01c.07-.07-27.09-30.83-31.43-27.36-.21.17-.72.7-1.6.96-2.16.63-4.74-1-6.42-2.06-1.05-.67-1.52-1.09-1.81-.86-.57.44.76,2.3.58,4.82-.25,3.4-3.01,4.47-2.53,6.95.26,1.37,1.31,2.14,1.64,2.38,2.36,1.72,6.12.39,6.84-1.7.63-1.83-1.31-3.38-.72-4.95.71-1.89,5.04-1.5,5.47-1.46,10.75,1.05,29.93,23.34,29.99,23.28ZM358.64,44.05c-.19.53-.72.79-1.19.58s-.7-.81-.52-1.34.72-.79,1.19-.58c.47.21.7.81.52,1.34Z"/>
        <path class="cls-1" d="M336.49,34.61c-.36-.35-2.53-2.53-2.62-6.16-.08-3.04,1.35-5.13,1.73-5.66,1.94,5.3,4.32,7.24,6.19,8.01,3.22,1.32,5.86-.43,7.91,1.73,1.64,1.73.58,3.52,2.21,5.91,1.91,2.81,4.44,1.89,7.74,3.89,5.3,3.21,7.35,10.76,6.73,11.28-.43.36-1.96-2.77-6.27-6.06-1.36-1.04-1.83-1.2-12.9-6.6-1.75-.86-3.41-1.67-5.58-2.96-2.22-1.32-3.98-2.55-5.14-3.39Z"/>
        <path class="cls-1" d="M347.07,31.05c.06.69.26,1.52.82,2.08,1.14,1.14,2.83.21,3.23.95.41.77-.76,3.07-2.66,4.13-2.57,1.43-4.13-.7-6.36.61-2.16,1.28-1.53,3.79-3.9,5.12-1.33.74-3.2.9-4.7.1-2.34-1.24-2.11-3.93-4.85-5.36-.74-.38-1.78-.93-2.65-.46-1.64.88-.51,4.17-1.98,7.05-1.58,3.09-5.89,5.21-9.47,3.74-3.05-1.25-5.44-5.06-4.81-7.69.47-1.95,2.3-1.99,3.82-4.26,1.77-2.65,1.65-6.15,1.21-8.86,1.64.91,4.2,2.06,7.41,2.35,3.95.37,4.91-.91,9.2-.57,3.88.31,4.46,1.46,8.39,1.77,3.07.24,5.62-.24,7.29-.69Z"/>
        <path class="cls-2" d="M399.26,6.37c.03-.1-37.48-10.1-39.53-4.58-.1.27-.28,1.03-.91,1.76-1.54,1.82-4.5,1.96-6.43,2.06-1.21.06-1.8-.02-1.94.35-.28.71,1.73,1.5,2.75,3.75,1.39,3.03-.46,5.58,1.11,7.41.87,1.01,2.12,1.04,2.51,1.05,2.81.06,5.38-3.31,5.01-5.5-.33-1.93-2.7-2.1-2.94-3.77-.29-2.02,3.57-4.27,3.96-4.49,9.62-5.49,36.38,2.06,36.4,1.97ZM358.52,13.7c.09.56-.24,1.1-.74,1.2s-.98-.27-1.07-.83.24-1.1.74-1.2.98.27,1.07.83Z"/>
        <path class="cls-1" d="M335.28,18.83c-.48-.08-3.34-.64-5.12-3.67-1.49-2.54-1.26-5.16-1.19-5.84,4.13,3.35,7.07,3.59,9.02,3.13,3.35-.79,4.77-3.85,7.53-3.23,2.21.5,2.15,2.65,4.65,3.71,2.94,1.26,4.66-1.03,8.4-1.29,6-.42,11.29,4.77,11.01,5.59-.19.57-2.96-1.19-8.17-1.43-1.64-.08-2.11.07-14.06,2.05-1.89.32-3.68.61-6.13.8-2.51.2-4.58.2-5.96.17Z"/>
        <path class="cls-1" d="M342.59,9.52c.38.55.93,1.13,1.67,1.28,1.51.29,2.51-1.5,3.19-1.11.71.41.79,3.06-.32,5.08-1.51,2.74-3.84,1.86-5.11,4.3-1.24,2.37.48,4.13-.91,6.66-.78,1.42-2.3,2.66-3.94,2.87-2.57.33-3.63-2.09-6.64-1.68-.81.11-1.95.27-2.47,1.19-.98,1.72,1.52,3.85,1.62,7.17.11,3.57-2.56,7.92-6.29,8.8-3.18.75-7-1.07-7.69-3.68-.51-1.94,1.02-3.06,1.25-5.89.26-3.3-1.48-6.21-3.13-8.25,1.82-.2,4.53-.74,7.4-2.4,3.52-2.03,3.74-3.69,7.55-5.94,3.44-2.04,4.48-1.41,7.95-3.48,2.72-1.62,4.66-3.54,5.87-4.91Z"/>
        <path class="cls-2" d="M361.88,75.5c-.41-.16-4.51-1.75-4.49-3.8.02-1.7,2.34-2.25,2.42-4.21.09-2.24-2.89-5.15-5.66-4.63-.38.07-1.62.3-2.35,1.45-1.32,2.07.83,4.29-.15,7.51-.73,2.39-2.62,3.5-2.25,4.15.19.34.76.16,1.97.03,1.92-.22,4.87-.55,6.62,1,.71.62.99,1.35,1.12,1.6,2.74,5.13,38.57-10.85,38.53-10.95-.03-.08-25.54,11.73-35.77,7.86ZM355.45,68c-.51-.02-.9-.5-.89-1.07s.44-1.02.95-1c.51.02.9.5.89,1.07-.02.57-.44,1.02-.95,1Z"/>
        <path class="cls-1" d="M332.74,65.69c-.46.16-3.22,1.18-4.6,4.47-1.15,2.75-.59,5.31-.42,5.97,3.66-3.99,6.54-4.7,8.53-4.56,3.42.24,5.22,3.03,7.87,1.97,2.12-.85,1.79-2.97,4.12-4.43,2.75-1.72,4.74.26,8.48-.09,5.99-.56,10.56-6.55,10.18-7.32-.27-.53-2.78,1.66-7.9,2.74-1.62.34-2.1.28-14.17.25-1.91,0-3.71,0-6.16.2-2.51.21-4.56.54-5.92.8Z"/>
        <path class="cls-1" d="M341.17,73.72c.3-.6.77-1.27,1.49-1.53,1.45-.53,2.67,1.08,3.3.58.65-.52.39-3.15-.97-4.98-1.84-2.46-4.04-1.22-5.61-3.42-1.53-2.14-.06-4.16-1.75-6.44-.95-1.28-2.62-2.26-4.27-2.2-2.59.09-3.33,2.66-6.35,2.74-.81.02-1.96.05-2.59-.77-1.19-1.55,1.01-4.05.69-7.36-.35-3.55-3.55-7.42-7.35-7.68-3.24-.22-6.79,2.19-7.14,4.89-.26,2,1.41,2.86,1.99,5.62.68,3.22-.67,6.38-2.04,8.67,1.83-.1,4.58,0,7.63,1.18,3.75,1.44,4.17,3.04,8.23,4.66,3.67,1.46,4.61.67,8.31,2.15,2.9,1.16,5.06,2.75,6.44,3.91Z"/>
        <g>
          <path class="cls-1" d="M275.73,70.27c-9.06,5.48-9.89,5.99-9.96,5.86-.2-.34,5.13-5.86,12.91-10.31,6.58-3.76,8.3-2.49,14.52-6.55,1.3-.85,10.3-6.72,9.4-11-.29-1.38-1.55-2.31-1.61-2.35-2.17-1.57-5.12,0-5.2-.24-.11-.35,5.53-4.64,12.47-5.83,15.96-2.72,30.19,12.48,30,12.87-.1.2-4.23-3.48-10.04-2.88-1.34.14-4.02.42-6.33,2.57-3.49,3.26-4.12,9.17-3.83,13.48.24,3.54,2.06,6.23.95,7.45-.71.78-2.04.4-2.71.25-7.07-1.58-14.94,5.83-15.61,4.69-.5-.86,4.69-3.73,4.38-7.37-.35-4.11-7.57-7.42-9.56-5.57-.75.69-.74,2.1-2.4,3.84-.45.47-1,1.04-1.38.86-.75-.36.14-3.17-1.02-4.15-.4-.34-.9-.33-1.31-.3-7.01.64-13.67,4.66-13.67,4.66Z"/>
          <path class="cls-1" d="M275.75,71.16c-9.06,5.48-9.89,5.99-9.96,5.86-.2-.34,5.13-5.86,12.91-10.31,6.58-3.76,8.3-2.49,14.52-6.55,1.3-.85,10.3-6.72,9.4-11-.29-1.38-1.55-2.31-1.61-2.35-2.17-1.57-5.12,0-5.2-.24-.11-.35,5.53-4.64,12.47-5.83,15.96-2.72,30.19,12.48,30,12.87-.1.2-4.23-3.48-10.04-2.88-1.34.14-4.02.42-6.33,2.57-3.49,3.26-4.12,9.17-3.83,13.48.24,3.54,2.06,6.23.95,7.45-.71.78-2.04.4-2.71.25-7.07-1.58-14.94,5.83-15.61,4.69-.5-.86,4.69-3.73,4.38-7.37-.35-4.11-7.57-7.42-9.56-5.57-.75.69-.74,2.1-2.4,3.84-.45.47-1,1.04-1.38.86-.75-.36.14-3.17-1.02-4.15-.4-.34-.9-.33-1.31-.3-7.01.64-13.67,4.66-13.67,4.66Z"/>
        </g>
        <path class="cls-3" d="M51.14,168.59c1.13-.97,2.02-1.7,1.91-2.72-.14-1.34-1.22-2.31-2.42-2.15-1.06.14-1.52,1.57-1.91,2.72-.54,1.59-.46,3.02-.37,3.81.69-.26,1.73-.74,2.79-1.66Z"/>
        <path class="cls-3" d="M196.72,138.67c.67-1.41,1.22-2.49.75-3.36-.62-1.16-1.96-1.54-2.99-.84-.91.62-.81,2.13-.75,3.36.09,1.7.68,2.97,1.06,3.64.54-.56,1.3-1.48,1.93-2.8Z"/>
        <path class="cls-3" d="M215.97,132.74c.17-1.59.32-2.81-.4-3.44-.95-.83-2.32-.63-3.06.45-.65.95-.07,2.32.4,3.44.64,1.54,1.6,2.48,2.17,2.96.32-.74.73-1.91.89-3.4Z"/>
        <path class="cls-3" d="M307.47,65.53c.17-1.59.32-2.81-.4-3.44-.95-.83-2.32-.63-3.06.45-.65.95-.07,2.32.4,3.44.64,1.54,1.6,2.48,2.17,2.96.32-.74.73-1.91.89-3.4Z"/>
        <path class="cls-3" d="M316.83,48.19c.17-1.59.32-2.81-.4-3.44-.95-.83-2.32-.63-3.06.45-.65.95-.07,2.32.4,3.44.64,1.54,1.6,2.48,2.17,2.96.32-.74.73-1.91.89-3.4Z"/>
        <path class="cls-3" d="M261.36,100.86c.17-1.59.32-2.81-.4-3.44-.95-.83-2.32-.63-3.06.45-.65.95-.07,2.32.4,3.44.64,1.54,1.6,2.48,2.17,2.96.32-.74.73-1.91.89-3.4Z"/>
      </g>
    </g>
  </g>
</svg>