<?xml version="1.0" encoding="UTF-8"?>
<svg id="Layer_2" xmlns="http://www.w3.org/2000/svg" version="1.1" viewBox="0 0 403.8 124.3">
  <!-- Generator: Adobe Illustrator 29.0.1, SVG Export Plug-In . SVG Version: 2.1.0 Build 192)  -->
  <defs>
    <style>
      .st0 {
        stroke: #fafbfa;
      }

      .st0, .st1 {
        stroke-width: .2px;
      }

      .st0, .st1, .st2 {
        stroke-miterlimit: 10;
      }

      .st1, .st2 {
        fill: #fff;
        stroke: #000;
      }

      .st2 {
        stroke-width: .5px;
      }
    </style>
  </defs>
  <g id="Capa_1">
    <g>
      <path class="st1" d="M405.4-1.8v127.5H-3.9V-1.8h409.4Z"/>
      <path class="st0" d="M405.4-1.8v108.8c-9.6-4.3-22.6-6.2-47.9-18.8-13.2-6.6-12.1-7.3-15.7-7.7-14.7-1.7-37.3,9.4-48.1,14.3-1.3.6-4.7,2.2-7.9,1.4-4.1-1-5.7-5-6.2-6.4-1-2.4-3.1-5.3-6-8.5h-.1c-10.4-11.7-30.9-27.1-51.7-35-11.7-4.4-15.9-2.5-22.2-7.4-4.9-3.8-7.2-8.4-8.7-14.7-.9-3.9-1.5-8.4-2.3-13.9-.6-4.6-1.1-8.6-1.2-12.2,0,0,218.1,0,218.1,0Z"/>
      <path class="st0" d="M199.5,97.1h0c0,7.2-1.6,12-6,16-4.8,4.4-7.5,2.9-12.3,7.7-1.5,1.5-2.7,3.2-3.7,4.9H-3.9V-.8H5c4.9,1.8,10.3,4.1,16.2,7,13.8,6.5,12.7,7.1,16.4,7.5,15.4,1.7,39-9.1,50.3-13.9.3-.1.8-.4,1.5-.6,1.7-.6,4.3-1.3,6.8-.8.7.2,1.4.4,2,.8,2.7,1.5,4,4.4,4.5,5.3.6,1.3,1.6,2.8,2.8,4.3.1.1.2.3.3.4,9.2,11.4,33,29.2,57.3,37.8,12.2,4.3,16.6,2.4,23.2,7.2,8.3,6.1,9.5,14.2,11.6,27.9.7,4.9,1.2,9.1,1.4,12.7v2.2h-.1Z"/>
      <path class="st2" d="M63.3,110.9c-9.7-5.3-16.7-9.8-24.2-14.6-10.6-6.9-23.4-15.7-37.7-26.4,0,0-2.2-2-2.3-1.8,0,0,27.5,25.1,63,47.6,7.4,4.7,13.5,8.2,16.4,9.9h15.6c-7.9-3.3-18.7-8-30.9-14.7h-.1ZM169.3,190.4s.2.1.3.2c.6.2,1.1.1,1.9-.2h-2.2ZM314.6-1.8h-15.5c42.2,21.3,66.8,41.3,67.3,40.9.4-.4-17.9-19.6-51.7-40.9h-.1ZM400.7,60.6c-6.6-.1-19.9.2-32.4,2-2.9.4-5.9.8-8.6,1.4-6.3,1.2-12.4,1.5-18.3,1.1-13-.9-23.5-5.6-28.1-8.2s-9.7-6.4-18.6-9.3c-2.4-.8-5.3-1.6-7.8-.7-3.6,1.2-2.7,4.8-5.9,7.2-4.2,3.2-12,1.8-15.3,1.2-22.5-3.8-48-29.2-40.3-40.5,2.7-4,8.8-5,8.3-6-.9-1.6-19.3-.4-32.9,8.3-6,3.9-7.4,6.9-11.7,6.9h-.4c-6.2-.3-5.7-8.7-17-11.8-6.6-1.8-14.9-4.3-25.2-6.5-2.1-.5-6.7-1.4-7.6-3.9-.4-1.2.3-2.4,1.2-3.6h-35.9c2.4,3.6,3.5,7.1,1.8,9.1-.3.4-.7.7-1.1.9-2.8,1.8-8.1,2.1-8.1,3.6s2.3,1.2,5.1,3.4c.3.2,4.7,3.9,3.9,7.3-1.1,4.2-10.2,6.9-16.8,6-3.2-.5-3.6-1.4-5.4-1.1-6,.9-5.1,11.2-11.9,12.9-1.8.5-3.7.3-8.9-1.3-14.4-4.3-15.9-6-24-8.8-7.4-2.6-15.3-2.5-23.1-.8-3.9.8-7.7,1.5-11.3,2.9-2.7,1-5.5,1.8-8.2,2.7v10c.3,0,.7,0,1-.1,2.9-.4,5.9-.8,8.7-1.4,6.3-1.2,12.4-1.5,18.3-1.1,13,.9,23.5,5.6,28.1,8.2s9.7,6.4,18.6,9.3c2.4.8,5.3,1.6,7.8.7,3.6-1.2,2.7-4.8,5.9-7.2,4.2-3.2,12-1.8,15.3-1.2,22.5,3.8,48,29.2,40.3,40.5-2.7,4-8.8,5-8.3,6,.9,1.6,19.3.4,32.9-8.4,6-3.9,7.4-6.9,11.7-6.9,6.7,0,5.8,8.6,17.4,11.8,1.2.3,2.4.7,3.8,1,5.9,1.6,13,3.7,21.4,5.4,2.1.5,6.7,1.4,7.6,3.9.5,1.4-.6,2.7-1.6,4.4-.8,1.4-2.8,6.6-1.4,11.4.3,1,1,2.8,2.6,4.5h56.4c-3.6-1.4-8.8-4.1-13.9-9-.9-.9-12.8-12.2-9.1-16.8,2.3-2.8,9.2-2.8,9.2-4.5s-2.3-1.2-5.1-3.4c-2-1.6-5-4.9-3.9-7.3.4-.8,1.5-1.8,6.8-3,2.3-.5,4.2-.8,5.8-.9,4.8-.4,6.7.4,9.7-.8,7.6-3,5-10.8,11.9-12.9,3.8-1.2,9.4.9,20.9,5.3,8.4,3.3,7.6,3.7,12,4.8,10.4,2.7,19.8,1.5,23.1.8,3.9-.8,7.7-1.5,11.3-2.9,13.7-5.2,31.7-7,44.3-7.5v-6.8c-1.6,0-3.1-.1-4.8-.2h-.2Z"/>
    </g>
  </g>
</svg>