<?xml version="1.0" encoding="UTF-8"?>
<svg id="Layer_2" xmlns="http://www.w3.org/2000/svg" version="1.1" viewBox="0 0 404.3 85">
  <!-- Generator: Adobe Illustrator 29.0.1, SVG Export Plug-In . SVG Version: 2.1.0 Build 192)  -->
  <defs>
    <style>
      .st0, .st1 {
        fill: #fff;
      }

      .st0, .st1, .st2, .st3 {
        stroke: #000;
        stroke-miterlimit: 10;
      }

      .st0, .st2 {
        stroke-width: .2px;
      }

      .st1 {
        stroke-width: .5px;
      }

      .st2 {
        fill: none;
      }
    </style>
  </defs>
  <g id="Capa_1">
    <g>
      <path class="st3" d="M403.8.9v83.7H.5V.9h403.3Z"/>
      <path class="st0" d="M403.8.9v71.4c-9.6-2.8-22.5-4-47.7-12.3-13.1-4.3-12-4.8-15.6-5.1-14.7-1.2-37.1,6.2-47.9,9.3-1.3.4-4.6,1.4-7.9.9-4-.7-5.6-3.3-6.1-4.2-1-1.6-3.1-3.5-6-5.6,0,0,0,0-.1,0-10.3-7.6-30.7-17.7-51.4-22.9-11.6-2.9-15.8-1.6-22.1-4.8-4.9-2.5-7.2-5.5-8.7-9.7-.9-2.6-1.6-5.6-2.3-9.1-.6-3.1-1.1-5.7-1.3-8h217,0Z"/>
      <path d="M198.9,64.4c-1.3-.2-2.5-.5-3.7-.7-11.4-2.1-10.6-7.8-17.1-7.8-4.2,0-5.6,2-11.5,4.5-13.4,5.8-31.6,6.5-32.4,5.5-.5-.6,5.5-1.3,8.2-3.9,7.6-7.4-17.6-24.1-39.7-26.6-3.3-.4-11-1.2-15.1.8-3,1.5-2.2,3.9-5.8,4.8-2.5.6-5.3,0-7.7-.5-8.8-1.9-13.9-4.4-18.3-6.1-4.5-1.7-14.9-4.8-27.7-5.4-5.8-.3-11.8,0-18,.7-2.8.4-5.7.7-8.6.9-.3,0-.7,0-1,0V.8h8.8c4.7,1.2,10,2.7,15.9,4.6,13.5,4.2,12.3,4.7,16.1,5,12.2.9,49.1-9.2,49.1-9.2.4-.1,1.1-.3,1.4-.4h8.6c.6.2,1.5.6,2.4,1.3.2.2.9.8,1.9,2.2.6.8,1.4,1.7,2.5,2.7,0,0,.2.2.3.2.1,0,.2.2.3.3,9,7.6,32.2,19.2,55.9,25,11.9,2.9,16.2,1.6,22.7,4.8,2.8,1.4,4.7,2.9,6.2,4.6,2.8,3.4,3.7,7.1,5.1,13.8.7,3.4,1.1,6.3,1.4,8.7h0Z"/>
      <path class="st0" d="M198.9,65.6h0c0,4.8-1.6,7.9-5.9,10.6-4.7,2.9-7.3,1.9-12,5.1-1.5,1-2.6,2.1-3.6,3.2H.5V30.8c.3,0,.7,0,1,0,2.9-.3,5.8-.5,8.5-.9,6.2-.8,12.2-1,18-.7,12.8.6,23.2,3.7,27.7,5.4,4.5,1.7,9.6,4.2,18.3,6.1,2.4.5,5.2,1,7.7.5,3.5-.8,2.7-3.2,5.8-4.8,4.1-2.1,11.8-1.2,15.1-.8,22.2,2.5,47.3,19.2,39.7,26.6-2.7,2.6-8.7,3.3-8.2,3.9.9,1.1,19,.3,32.4-5.5,5.9-2.5,7.3-4.5,11.5-4.5,6.6,0,5.7,5.7,17.1,7.8,1.2.2,2.4.4,3.7.7,0,.4,0,.8,0,1.2h0Z"/>
      <rect class="st2" x=".5" y=".9" width="403.3" height="83.7"/>
      <path class="st1" d="M399.1,41.2c-6.5,0-19.6,0-31.9,1.3-2.9.3-5.8.5-8.5.9-6.2.8-12.2,1-18,.7-12.8-.6-23.2-3.7-27.7-5.4-4.5-1.7-9.6-4.2-18.3-6.1-2.4-.5-5.2-1-7.7-.5-3.5.8-2.7,3.2-5.8,4.7-4,2.1-11.8,1.2-15.1.8-22.1-2.5-47.3-19.2-39.7-26.6,2.7-2.6,8.7-3.3,8.2-3.9-.9-1-19-.3-32.4,5.5-5.9,2.5-7.3,4.5-11.5,4.5-.1,0-.3,0-.4,0-6.1-.2-5.5-5.7-16.7-7.8-6.5-1.2-14.7-2.8-24.8-4.3-2.5-.4-6.8-.5-7.5-2.5-.2-.7,0-1.4.2-1.8-11.3,0-22.6,0-33.9,0,1.3,2.6,1.7,4.9,1.1,5.4,0,0-.5.3-1.1.6-.2,0-.4.2-.6.2-2.9,1-7.4,1.2-7.4,2.2s2.3.8,5,2.2c.3.2,4.6,2.5,3.8,4.8-1.1,2.8-10,4.5-16.6,3.9-3.2-.3-3.5-1-5.3-.8-5.9.6-5,7.3-11.7,8.5-1.8.3-3.6.2-8.8-.9-14.2-2.8-15.7-3.9-23.6-5.8-7.3-1.7-15.1-1.6-22.8-.5-3.8.5-7.6,1-11.1,1.9-2.7.7-5.4,1.2-8.1,1.8v6.6c.3,0,.7,0,1,0,2.9-.3,5.8-.5,8.6-.9,6.2-.8,12.2-1,18-.7,12.8.6,23.2,3.7,27.7,5.4,4.5,1.7,9.6,4.2,18.3,6.1,2.4.5,5.2,1,7.7.5,3.5-.8,2.7-3.2,5.8-4.8,4.1-2.1,11.8-1.2,15.1-.8,22.2,2.5,47.3,19.2,39.7,26.6-2.7,2.6-8.7,3.3-8.2,3.9.9,1.1,19,.3,32.4-5.5,5.9-2.5,7.3-4.5,11.5-4.5,6.6,0,5.7,5.7,17.1,7.8,1.2.2,2.4.4,3.7.7h0c5.8,1.1,12.8,2.4,21.1,3.6,2.1.3,6.6.9,7.5,2.5.5,1-.6,1.8-1.6,2.9-.6.7-2.6,4.5-1.4,7.5.9,2.3,3.3,3.3,4.4,3.7,17.6,0,35.1,0,52.6.1-5.6-2.3-9.7-4.8-12.5-6.7-3.6-2.5-10.7-7.2-9.6-10.1.1-.3.3-.6.7-.9,2.3-1.9,9.1-1.8,9.1-3s-2.3-.8-5-2.2c-2-1.1-4.9-3.2-3.8-4.8.4-.5,1.5-1.2,6.7-2,2.3-.3,4.1-.5,5.7-.6,4.7-.3,6.6.3,9.6-.5,7.5-2,4.9-7.1,11.7-8.5,3.7-.8,9.3.6,20.6,3.5,8.3,2.1,7.5,2.4,11.8,3.2,10.2,1.8,19.5,1,22.8.5,3.8-.5,7.6-1,11.1-1.9,13.5-3.4,31.2-4.6,43.6-4.9v-4.4c-1.6,0-3.1,0-4.7,0h0ZM314.3.2h-15.3c41.6,14.1,65.8,27.1,66.3,26.8.4-.2-17.6-12.9-50.9-26.8h0ZM171.2,126.4c.1,0,.2,0,.3.1.5.2,1.1,0,1.9-.1h-2.2Z"/>
    </g>
  </g>
</svg>