<?xml version="1.0" encoding="UTF-8"?>
<svg id="Layer_1" xmlns="http://www.w3.org/2000/svg" version="1.1" viewBox="0 0 304.7 35.6">
  <!-- Generator: Adobe Illustrator 29.0.1, SVG Export Plug-In . SVG Version: 2.1.0 Build 192)  -->
  <defs>
    <style>
      .st0 {
        fill: #fff;
      }
    </style>
  </defs>
  <path class="st0" d="M10,21c0,.6,5.6-1,11.5,1.9,3,1.5,2.8,2.5,6.5,4.3,1.9.9,7.3,3.6,10,1.5,1.2-1,.6-2.1,1.7-4.1,2.2-3.9,7.6-5.6,11.9-5.2,3.1.2,7.2,1.7,7.3,3.4,0,2.2-7.3,3.2-7.2,4.3.2,1.8,20.6,1.2,20.7-.9,0-1.1-5.4-1.8-5.4-3.5s5.4-3,6.6-3.3c12-2.7,22,1.6,22.4.4.3-.7-3.1-3.6-7.7-4.5-8.4-1.8-14,4-18.6.9-1.9-1.3-2.2-3.1-4.4-3.4-1.6-.2-2.4.5-5.5,1.1,0,0-2.2.4-4.6.4-4.2,0-6.4-2.3-9.9-3.8-7.6-3.3-15.4-.2-15.4-.3,0,0,6.5-2,10.3,1.2,2.1,1.7,3.2,5,2.1,7-1.9,3.5-9.9,2.5-12,2.3-3.4-.4-3.6-1.1-6.9-1.6-7.2-1-13.4,1.2-13.4,1.9h0Z"/>
  <path class="st0" d="M211.7,21.1c0,.6,5.6-1,11.5,1.9,3,1.5,2.8,2.5,6.5,4.3,1.9.9,7.3,3.6,10,1.5,1.2-1,.6-2.1,1.7-4.1,2.2-3.9,7.6-5.6,11.9-5.2,3.1.2,7.2,1.7,7.3,3.4,0,2.2-7.3,3.2-7.2,4.3.2,1.8,20.6,1.2,20.7-.9,0-1.1-5.4-1.8-5.4-3.5s5.4-3,6.6-3.3c12-2.7,22,1.6,22.4.4.3-.7-3-3.6-7.7-4.5-8.4-1.8-14,4-18.6.9-1.9-1.3-2.2-3.1-4.4-3.4-1.6-.2-2.4.5-5.5,1.1,0,0-2.2.4-4.6.4-4.2,0-6.4-2.3-9.9-3.8-7.6-3.3-15.4-.2-15.4-.3,0,0,6.5-2,10.3,1.2,2,1.7,3.2,5,2.1,7-1.9,3.5-9.9,2.5-12,2.3-3.4-.4-3.6-1.1-6.9-1.6-7.2-1-13.5,1.2-13.4,1.9h0Z"/>
</svg>