<?xml version="1.0" encoding="UTF-8"?>
<svg id="Layer_2" data-name="Layer 2" xmlns="http://www.w3.org/2000/svg" viewBox="0 0 101.32 35.6">
  <defs>
    <style>
      .cls-1 {
        fill: #fff;
        stroke: #000;
        stroke-miterlimit: 10;
        stroke-width: .25px;
      }
    </style>
  </defs>
  <g id="Capa_1" data-name="Capa 1">
    <g>
      <path d="M19.2,15.83c5.22-1.38,7.6-1.9,10.77-1.47,5.09.69,6.59,4.04,11.78,5.72,5.75,1.86,13.81,4.01,23.55,5.08,22.12,2.44,35.64-2.55,35.86-1.27.12.67-26.13,10.78-58.34,9.53C20.82,32.57-.26,25.74,0,21.99c.08-1.11,6.45-2.79,19.2-6.15Z"/>
      <path class="cls-1" d="M16.06,19.44c-1.77-6.26,1.43-13.66,3.75-16.52,4.16-5.14,10.55-2.01,28.1.02,18.97,2.19,19.4-.55,28.64,2.52,9.36,3.11,25.26,11.36,24.62,18.43-.89,9.84-33.62,13.48-58.34,9.53-23.4-3.73-26.23-12.11-26.76-13.98Z"/>
      <path class="cls-1" d="M16.06,19.44c-.35-1.35-.6-3.75-.31-6.36.55-4.99,2.83-8.52,4.06-10.17,1.05.86,2.66,2.35,4.03,4.56,3.71,5.98,1.44,10.34,4.35,12.72,2.74,2.24,5.5-1,13.57-.13,4.3.47,4.37,1.6,11.54,3.16,3.45.75,7.43,1.44,12.01,1.92,8.32.87,14.77.65,18.29.52,6.9-.26,12.85-1,17.57-1.79-.21,1.03-.63,2.47-1.56,3.94-2.94,4.64-9.05,6.55-23.4,7.2-13.22.6-21.03.95-32.41-1.44-9.11-1.92-25.48-5.37-27.74-14.15Z"/>
    </g>
  </g>
</svg>