<?xml version="1.0" encoding="UTF-8"?>
<svg id="Layer_2" data-name="Layer 2" xmlns="http://www.w3.org/2000/svg" viewBox="0 0 402.93 90.86">
  <defs>
    <style>
      .cls-1, .cls-2, .cls-3 {
        fill: #fff;
      }

      .cls-2 {
        stroke-width: .25px;
      }

      .cls-2, .cls-3 {
        stroke: #000;
        stroke-miterlimit: 10;
      }

      .cls-3 {
        stroke-width: .5px;
      }
    </style>
  </defs>
  <g id="Capa_1" data-name="Capa 1">
    <g>
      <rect y="0" width="402.93" height="90.61"/>
      <path class="cls-3" d="M332.93,20.35v70.26h-63.79c-8.44-8.58-13.64-20.34-13.64-33.32,0-26.25,21.28-47.53,47.54-47.53,11.33,0,21.73,3.96,29.9,10.59Z"/>
      <path class="cls-1" d="M273.5,20.35v70.26s63.79,0,63.79,0c8.44-8.58,13.64-20.34,13.64-33.32,0-26.25-21.28-47.53-47.54-47.53-11.33,0-21.73,3.96-29.9,10.59Z"/>
      <path class="cls-2" d="M97.11,50.46c-1.54,6.01,50.4,32.58,61.32,21.73.45-.45,3.88-3.98,8.02-8.48,4.78-5.19,6.61-7.43,7.61-8.48,9.91-10.34,33.1-2.62,33.26,3.18.14,5.03-17.11,7.04-16.83,10.07.44,4.78,44.1,7.77,50.09-11.66.93-3.02.15-3.96,1.2-6.36,7.07-16.07,51.78,4.3,52.5,1.06.31-1.41-7.82-6.55-18.03-10.6-17.4-6.9-32.4-7.25-41.28-6.89-23.75.97-23.54,7.87-43.28,7.95-21.94.08-39.25-8.38-39.67-6.36-.42,2,16.92,8.02,16.43,12.72-.52,5-20.89,5.22-28.05,5.3-30.1.33-42.53-6.12-43.28-3.18Z"/>
    </g>
  </g>
</svg>