<?xml version="1.0" encoding="UTF-8"?>
<svg id="Layer_2" data-name="Layer 2" xmlns="http://www.w3.org/2000/svg" viewBox="0 0 402.79 166.07">
  <defs>
    <style>
      .cls-1 {
        stroke-width: .5px;
      }

      .cls-1, .cls-2 {
        stroke: #fff;
      }

      .cls-1, .cls-2, .cls-3, .cls-4 {
        stroke-miterlimit: 10;
      }

      .cls-1, .cls-2, .cls-4 {
        fill: none;
      }

      .cls-2, .cls-3, .cls-4 {
        stroke-width: .25px;
      }

      .cls-3 {
        fill: #fff;
      }

      .cls-3, .cls-4 {
        stroke: #000;
      }
    </style>
  </defs>
  <g id="Capa_1" data-name="Capa 1">
    <g>
      <path d="M22.07,34.01c3.4-.04,4.42.3,7.69.32,3.15.01,3.98-.29,7.01-.45,5.05-.27,7.48.33,14.59.64,8.89.39,15.58-.07,15.62,0,.04.08-7,.63-15.36.35-6.38-.21-7.58-.71-12.73-.59-4.62.11-5.26.55-9.71.48-2.91-.05-3.96-.25-8.23-.28-2.79-.02-4.48.06-4.56-.01-.1-.09,2.56-.42,5.68-.45Z"/>
      <path d="M99.39,10.2c3.4-.04,4.42.3,7.69.32,3.15.01,3.98-.29,7.01-.45,5.05-.27,7.48.33,14.59.64,8.89.39,15.58-.07,15.62,0,.04.08-7,.63-15.36.35-6.38-.21-7.58-.71-12.73-.59-4.62.11-5.26.55-9.71.48-2.91-.05-3.96-.25-8.23-.28-2.79-.02-4.48.06-4.56-.01-.1-.09,2.56-.42,5.68-.45Z"/>
      <g>
        <path d="M76,93.17c4.56-1.15,5.85-1.08,6.71-.95,2.28.34,2.65,1.61,5.47,2.45,2.67.8,6.41,1.72,10.93,2.18,3.25.33,6.1.34,8.48.22,5.12-.26,8.1-1.08,8.17-.77.11.45-5.89,3.06-11.96,4.42-17.74,3.97-35.21-2.94-35.01-5.23.04-.51,2.43-1.11,7.21-2.32Z"/>
        <path class="cls-3" d="M76.25,94.4c-.73-2.31-.07-5.57,1.74-7.08,3.01-2.51,6.51,2.01,13.05,0,2.43-.75,3.57-1.87,5.73-1.39,1.43.32,2.27,1.1,5.03,1.9,1.26.36,2.17.46,2.54.58,4.35,1.33,11.73,4.87,11.43,7.9-.38,3.92-15.16,5.84-27.09,4.09-10.81-1.59-12.16-5.16-12.43-5.99Z"/>
        <path class="cls-3" d="M76.25,94.4c-.78-1.86-.12-3.91-.01-4.25.45-1.41,1.27-2.35,1.75-2.83.55.37,1.29.98,1.87,1.95,1.06,1.78.49,2.93,1.17,4.6,1,2.45,4.08,3.54,6.27,3.51,1.88-.03,2.02-.89,4.32-1.37,2.6-.55,3.67.28,7.5.84,2.83.42,4.87.35,8.49.22,3.2-.11,5.96-.43,8.16-.77-.02.1-.06.24-.12.41-.74,2-3.05,2.92-5.43,3.45-7.77,1.74-21.54.23-21.54.23-.01,0-10.43-1.2-12.42-5.99Z"/>
      </g>
      <g>
        <path d="M302.58,75.24c2.79-.7,3.88-.89,5.31-.67,1.98.31,2.48,1.44,4.7,2.11,2.29.69,5.51,1.48,9.4,1.87,2.79.28,5.24.3,7.29.19,4.58-.23,6.98-.87,7.03-.66.08.38-7.17,3.57-16.22,4.29-6.1.48-10.37-.37-18.07-1.9-7.18-1.43-7.46-2.28-7.46-2.56,0-.65,2.68-1.33,8.03-2.67Z"/>
        <path class="cls-3" d="M302.33,76.44c-.62-2.01.09-4.6,1.5-6.09,1.48-1.56,3.2-1.34,6.71-1.63,8.32-.69,8.41-2.74,12.24-1.81,3.95.96,4.55,4.47,8.25,5.27,1.34.29,1.63-.09,2.55.43,1.78.98,3.12,3.7,2.72,5.47-1.29,5.72-21.42,3.8-23.29,3.51-9.31-1.42-10.45-4.4-10.68-5.15Z"/>
        <path class="cls-3" d="M302.33,76.44c-.66-2.21.55-4.62,1.5-6.09.76,1.42,2.02,3.23,4.06,4.21,2.29,1.11,3.37.13,6.64.78,3.74.75,3.59,2.3,7.46,3.2,1.89.44,3.69.32,7.3.19,2.75-.1,5.13-.37,7.01-.66-.02.08-.05.21-.11.35-.63,1.72-2.62,2.51-4.66,2.97-9.55,2.14-18.52.2-18.52.2-6.09-1.32-9.8-2.19-10.68-5.15Z"/>
      </g>
      <g>
        <path d="M24.49,125.12c.52-.09,1.58-.27,2.82.12,1.24.39,1.42,1.19,2.7,1.74,1.32.57,3.17,1.22,5.41,1.55,1.49.22,2.82.24,3.94.17,2.62-.16,4.06-1,4.29-.56.24.44-.91,1.82-2.12,2.75-5.1,3.94-12.77,1.11-16.19-.15-1.93-.71-4.97-1.83-4.92-3.18.05-1.2,2.54-2.17,4.06-2.44Z"/>
        <path class="cls-3" d="M24.12,126.79c-.37-1.74.19-3.79.86-5.03,1.28-2.37,2.93-1.7,8.02-2.96,4.08-1,4.32-1.75,5.64-1.18,3.08,1.33,5.79,7.12,5.01,10.52-1.26,5.53-11.41,3.33-13.4,2.9-5.31-1.15-5.99-3.52-6.14-4.25Z"/>
        <path class="cls-3" d="M24.12,126.79c-.11-.56-.16-1.64.08-2.75.19-.88.5-1.68.78-2.28.44.97,1.19,2.34,2.33,3.48.07.07.16.16.28.27,0,0,1.12,1.03,2.42,1.47,2.13.73,4.11-2.24,6.56-1.07,1.46.7,1.42,2.06,3.05,2.78,1.53.67,3,.09,4.03-.54-.01.07-.03.17-.06.29-.36,1.42-1.51,2.07-2.68,2.45-4.89,1.58-10.65.16-10.65.16-1.97-.63-5.68-1.81-6.14-4.25Z"/>
      </g>
      <g>
        <path d="M41.44,16.62c.67-.02,1.24.22,1.87.48.89.37,1.18.82,1.87,1.09.91.35,2.19.76,3.74.97,3.51.46,5.66-.49,5.7-.24.02.13-4.15,2.05-9.27,1.81-2.68-.12-6.74-.9-6.8-2.18-.04-.81,1.54-1.9,2.89-1.94Z"/>
        <path class="cls-3" d="M41.1,18.07c-.26-1.09.13-2.37.6-3.14.89-1.48,2.03-1.06,5.55-1.85,2.82-.63,2.99-1.1,3.9-.74,2.13.83,4,4.45,3.47,6.58-.87,3.46-7.9,2.08-9.27,1.81-3.67-.72-4.14-2.2-4.25-2.66Z"/>
        <path class="cls-3" d="M41.1,18.07c-.26-1.14.22-2.39.6-3.14.31.61.82,1.46,1.62,2.18.05.04.11.1.19.17,0,0,.77.64,1.68.92,1.48.45,2.84-1.4,4.54-.67,1.01.43.98,1.29,2.11,1.74,1.06.42,2.07.06,2.79-.34,0,.04-.02.11-.04.18-.25.89-1.04,1.3-1.86,1.53-3.8,1.11-7.37.1-7.37.1-2.42-.68-3.9-1.13-4.25-2.66Z"/>
      </g>
      <g>
        <path d="M83.15,42.28c1.43-.03,2.65.36,4,.79,1.9.61,2.52,1.35,4,1.79,1.95.58,4.69,1.25,8,1.59,7.51.76,12.1-.81,12.18-.41.04.21-8.87,3.38-19.81,3-5.74-.2-14.42-1.47-14.54-3.58-.08-1.34,3.29-3.12,6.18-3.19Z"/>
        <path class="cls-3" d="M82.42,44.67c-.52-1.7.45-3.55,1.27-5.18.74-1.48,2.44-4.84,5.31-5.45,2.07-.44,2.76.97,8.48,2.86,2.25.74,2.37.6,3.75,1.07,4.35,1.49,10.47,5.41,10.08,8.08-.51,3.48-12.02,4.17-19.81,3-7.86-1.18-8.86-3.62-9.09-4.38Z"/>
        <path class="cls-3" d="M82.42,44.67c-.56-1.88.47-3.93,1.27-5.18.66,1,1.76,2.41,3.45,3.58.1.07.24.16.41.28.82.3,2.08.8,3.59,1.51,3.84,1.83,3.93,2.58,5.69,3.07,2.49.7,3.48-.46,8.52-1.32,2.5-.43,4.59-.54,5.97-.56-.02.07-.05.18-.09.3-.54,1.47-2.23,2.13-3.97,2.53-8.12,1.83-15.75.17-15.75.17-5.18-1.12-8.34-1.85-9.09-4.38Z"/>
      </g>
      <path d="M16.88,89.84c2.99-.02,3.89.19,6.77.2,2.77,0,3.5-.18,6.17-.28,4.45-.17,6.59.2,12.85.4,7.83.24,13.72-.05,13.75,0,.04.05-6.16.39-13.53.21-5.62-.13-6.67-.44-11.21-.36-4.07.07-4.63.34-8.55.3-2.56-.03-3.49-.16-7.24-.17-2.45-.01-3.95.04-4.02,0-.09-.06,2.25-.26,5.01-.28Z"/>
      <path d="M347.29,108.91c4.2-.04,5.46.3,9.5.31,3.9.01,4.91-.29,8.66-.45,6.24-.27,9.25.32,18.03.64,10.99.39,19.26-.07,19.31,0,.05.08-8.65.62-18.99.35-7.89-.21-9.37-.71-15.73-.58-5.71.11-6.5.55-12,.48-3.59-.04-4.9-.25-10.17-.28-3.45-.02-5.54.06-5.64-.01-.13-.09,3.16-.41,7.03-.45Z"/>
      <path d="M284.25,28.83c3.07-.02,3.99.12,6.94.13,2.84,0,3.59-.12,6.32-.19,4.56-.11,6.75.13,13.17.26,8.03.16,14.06-.03,14.1,0,.04.03-6.32.26-13.87.14-5.76-.09-6.84-.29-11.49-.24-4.17.05-4.75.23-8.76.2-2.62-.02-3.58-.1-7.43-.12-2.52,0-4.05.02-4.12,0-.09-.04,2.31-.17,5.13-.19Z"/>
      <path d="M398.65,56.47c-13.27-.23-15.76-.77-26.46-.64-9.61.12-10.93.6-20.18.52-6.04-.05-8.24-.27-17.11-.3-5.8-.02-9.32.06-9.49-.01-.22-.1,5.31-.45,11.82-.49,7.07-.04,9.19.33,15.98.34,6.55.02,8.27-.32,14.57-.49,10.5-.29,15.55.35,30.34.69l.53.38Z"/>
      <path d="M76.11,142.57c2.31-.03,3,.29,5.23.3,2.14.01,2.7-.28,4.76-.43,3.44-.26,5.09.31,9.92.61,6.05.38,10.59-.07,10.62,0,.03.07-4.76.6-10.45.33-4.34-.2-5.15-.68-8.65-.56-3.14.11-3.58.53-6.6.46-1.98-.04-2.69-.24-5.59-.27-1.9-.02-3.05.06-3.1-.01-.07-.09,1.74-.4,3.86-.43Z"/>
      <g>
        <path d="M349.42,137.94c1.94-.25,1.98-.58,2.98-.53,1.45.08,1.98,1.11,3.46,1.55,1.69.51,4.06,1.09,6.93,1.38,2.06.21,3.86.22,5.37.14,3.3-.17,5.14-.67,5.18-.49.06.29-4.42,2.35-9.66,3.16-10.3,1.58-20.2-2.21-20.09-3.67.04-.54,1.45-.95,2.27-1.19,1.28-.37,1.7-.12,3.57-.36Z"/>
        <path class="cls-3" d="M348.31,138.79c-.54-1.86.75-3.92,1.1-4.49,1.35-2.16,3.41-2.93,4.48-3.22.21-.06.36-.1.58-.13,2.36-.36,3.85,1.46,6.41,2.83,1.46.78,1.47.45,4.09,1.44,3.46,1.3,8.45,3.16,8.37,4.78-.1,2.16-9.2,3.74-17.16,2.59-2.88-.42-7.09-1.08-7.87-3.8Z"/>
        <path class="cls-3" d="M348.31,138.79c-.2-.82-.26-2.26,1.1-4.49.3.42.69.93,1.18,1.47.83.91,1.77,1.02,1.81,1.64.02.39-.31.51-.27.73.15.87,5.34-.64,10.84.87,2.21.61,2.88,1.26,5.2,1.47,2.15.19,3.96-.15,5.17-.49-.01.06-.04.15-.08.26-.58,1.57-2.67,2.02-3.44,2.19-2.47.53-19.95,2.8-21.52-3.65Z"/>
      </g>
      <g>
        <path d="M328.49,10.98c1.13-.14,1.16-.34,1.74-.31.84.05,1.15.65,2.02.91.99.29,2.37.63,4.04.8,1.2.12,2.25.13,3.13.08,1.92-.1,3-.39,3.02-.28.04.17-2.58,1.37-5.64,1.84-6.01.92-11.78-1.29-11.72-2.14.02-.31.84-.55,1.32-.69.75-.22.99-.07,2.08-.21Z"/>
        <path class="cls-3" d="M327.84,11.48c-.31-1.09.44-2.29.64-2.62.79-1.26,1.99-1.71,2.61-1.88.12-.03.21-.06.34-.08,1.38-.21,2.24.85,3.74,1.65.85.45.86.27,2.38.84,2.02.76,4.93,1.85,4.88,2.79-.06,1.26-5.37,2.18-10.01,1.51-1.68-.24-4.13-.63-4.59-2.21Z"/>
        <path class="cls-3" d="M327.84,11.48c-.12-.48-.15-1.32.64-2.62.17.24.4.54.69.85.49.53,1.03.6,1.06.96.01.23-.18.3-.16.43.08.51,3.11-.37,6.32.51,1.29.35,1.68.74,3.03.86,1.25.11,2.31-.09,3.01-.28,0,.04-.02.09-.05.15-.34.91-1.55,1.18-2,1.27-1.44.31-11.63,1.63-12.55-2.13Z"/>
      </g>
      <g>
        <path d="M370.32,35.08c1.26-.03,2.34.32,3.53.7,1.68.54,2.22,1.19,3.53,1.58,1.72.52,4.14,1.11,7.05,1.41,6.63.67,10.68-.7,10.74-.35.03.19-7.83,2.98-17.48,2.64-5.06-.18-12.72-1.3-12.83-3.16-.07-1.18,2.91-2.75,5.45-2.81Z"/>
        <path class="cls-3" d="M369.68,37.18c-.47-1.49-.06-3.64,1.12-4.57,1.91-1.5,4.33,1.33,8.42,0,1.1-.36,1.45-.73,2.51-.76,1.22-.04,1.83.43,4.43,1.09.86.22,1.28.26,1.64.37,2.8.86,7.57,3.14,7.38,5.1-.25,2.53-9.78,3.77-17.48,2.64-6.98-1.03-7.85-3.33-8.02-3.87Z"/>
        <path class="cls-3" d="M369.68,37.18c-.32-.88-.3-2.28,1.12-4.57.59.62,1.61,1.68,3.05,3.16,1.06,1.09,1.85,1.88,3.06,2.1.43.08.76.06,1.02.04,4.01-.3,5.3-.53,6.53-.5,2.56.05,2.54,1.14,5.45,1.49,2.23.27,4.09-.14,5.26-.49-.02.06-.04.16-.08.26-.48,1.29-1.97,1.88-3.5,2.23-5.02,1.13-13.9.15-13.9.15,0,0-6.88-.72-8.02-3.87Z"/>
      </g>
      <path d="M171.23.13h108.06l-6.85,7.54-19.2,6.33c2.91,3.9,5.83,7.81,8.74,11.71l-.25,7.86c-9,2.23-18.01,4.45-27.01,6.68l25.54,6.17c4.35,2.05,8.69,4.09,13.04,6.14-10.85,6.38-21.71,12.76-32.56,19.14,17.14,5.09,34.29,10.18,51.43,15.27,7,4.57,14,9.14,21,13.72-4.15,4.04-8.29,8.08-12.44,12.12-13.43,4.5-26.86,8.99-40.28,13.49,17.28,4.58,34.56,9.16,51.84,13.74,9.72,5.87,19.45,11.74,29.17,17.62H119c2.8-5.72,5.61-11.44,8.41-17.15,10.38-6.27,20.76-12.54,31.14-18.82l-37.42-37.33c4.52-3.89,9.03-7.79,13.55-11.68l43.89-16.78c-9.57-2.14-19.15-4.29-28.72-6.43-1.49-3.95-2.98-7.91-4.47-11.86,4.35-4.14,8.7-8.28,13.05-12.42l21.46-9.62c-8.73-1.65-17.45-3.3-26.18-4.95,5.84-3.5,11.67-6.99,17.51-10.49Z"/>
      <path class="cls-1" d="M141.67,157.66c2.07-3.04,4.14-6.07,6.2-9.11,3.41-8.97,6.81-17.93,10.22-26.9"/>
      <path class="cls-1" d="M151.58,117.42c1.17-6.92,2.34-13.84,3.51-20.75,7.56-13.49,15.12-26.97,22.68-40.46"/>
      <path class="cls-1" d="M160.03,53.19c.63-2.53,1.27-5.06,1.9-7.59,5.99-10.01,11.97-20.03,17.96-30.04"/>
      <path class="cls-1" d="M158.24,23.87c-1.65,8.99-3.3,17.97-4.96,26.96"/>
      <path class="cls-1" d="M170.8,1.23c-.83,6.22-1.65,12.44-2.48,18.66"/>
      <path class="cls-1" d="M134.64,70.79c-.54,9.29-1.08,18.59-1.63,27.88"/>
      <path class="cls-1" d="M291.66,86.4c.26,11.47.52,22.94.78,34.4"/>
      <path class="cls-2" d="M313.4,138.79c-.17,9.1-.33,18.19-.5,27.29"/>
      <path class="cls-1" d="M127.56,136.31c-.54,9.29-1.08,18.59-1.63,27.88"/>
      <path class="cls-1" d="M260.85,46.49c-.2,6.77-.39,13.54-.59,20.31"/>
      <path class="cls-1" d="M255.88,35.98c-.88-7.33-1.76-14.66-2.65-21.99"/>
      <path class="cls-1" d="M249.86,69.57c-.24-3.89-.49-7.78-.73-11.67-4.8-5.88-9.61-11.76-14.41-17.65"/>
      <path class="cls-1" d="M273.01,123.12c-2.36-8.51-4.73-17.01-7.09-25.52-8.39-8.63-16.79-17.27-25.18-25.9"/>
      <path class="cls-1" d="M292.47,157.17c-1.58-2.85-3.16-5.69-4.74-8.54-8.65-7.32-17.3-14.65-25.95-21.97"/>
      <rect class="cls-4" x=".13" y=".13" width="402.49" height="157.53"/>
    </g>
  </g>
</svg>