<?xml version="1.0" encoding="UTF-8"?>
<svg id="Layer_2" xmlns="http://www.w3.org/2000/svg" version="1.1" viewBox="0 0 402.9 90.9">
  <!-- Generator: Adobe Illustrator 29.0.1, SVG Export Plug-In . SVG Version: 2.1.0 Build 192)  -->
  <defs>
    <style>
      .st0 {
        fill: #fff;
        stroke: #000;
        stroke-miterlimit: 10;
        stroke-width: .2px;
      }
    </style>
  </defs>
  <g id="Capa_1">
    <path class="st0" d="M97.1,50.5c-1.5,6,50.4,32.6,61.3,21.7.4-.4,3.9-4,8-8.5,4.8-5.2,6.6-7.4,7.6-8.5,9.9-10.3,33.1-2.6,33.3,3.2.1,5-17.1,7-16.8,10.1.4,4.8,44.1,7.8,50.1-11.7.9-3,.1-4,1.2-6.4,7.1-16.1,51.8,4.3,52.5,1.1.3-1.4-7.8-6.5-18-10.6-17.4-6.9-32.4-7.2-41.3-6.9-23.8,1-23.5,7.9-43.3,8-21.9,0-39.2-8.4-39.7-6.4-.4,2,16.9,8,16.4,12.7-.5,5-20.9,5.2-28.1,5.3-30.1.3-42.5-6.1-43.3-3.2h0Z"/>
  </g>
</svg>