<?xml version="1.0" encoding="UTF-8"?>
<svg id="Layer_2" data-name="Layer 2" xmlns="http://www.w3.org/2000/svg" viewBox="0 0 404.09 110.6">
  <defs>
    <style>
      .cls-1 {
        fill: none;
        stroke: #000;
        stroke-miterlimit: 10;
        stroke-width: .25px;
      }

      .cls-2 {
        fill: #f6f5f5;
      }
    </style>
  </defs>
  <g id="Capa_1" data-name="Capa 1">
    <g>
      <rect x=".29" y=".13" width="403.67" height="110.35"/>
      <path class="cls-2" d="M.29,24.05c17.31-4.93,42.46-9.02,68.28,0,45.09,15.75,53.77,58.06,89.02,64.07,16.08,2.74,40.39-1.6,74.82-35.85-11.78,16.94-24.63,27.38-33.17,33.31-12.23,8.49-29.92,20.77-54.34,20.3-16.46-.31-28.66-6.28-31.3-7.61-21.11-10.69-20.42-24.39-39.33-32.99-3.37-1.53-21.01-9.12-39.33-2.54C6.44,72.99.54,108.82.29,110.48V24.05Z"/>
      <path class="cls-2" d="M294.52.52h-65.97c46.51,9.72,69.65,44.57,63.44,66.34-6.21,21.76-41.3,28.83-43.14,29.18,32.62,1.05,59.36-20.03,63.86-46.1,4.62-26.76-16.15-47.46-18.19-49.42Z"/>
      <path class="cls-2" d="M375.6,110.48h-39.01c27.5-5.75,41.19-26.36,37.51-39.23-3.67-12.87-24.42-17.05-25.51-17.26,19.29-.62,35.1,11.85,37.76,27.26,2.73,15.83-9.55,28.07-10.75,29.23Z"/>
      <path class="cls-1" d="M44.13,60.84c-3.55-9.78-1.18-20.71,6.05-27.91,10.42-10.39,24.8-6.91,25.45-6.74"/>
      <path class="cls-1" d="M10.21,84c-1.78-1.52-4.13-3.89-6.13-7.29-3.11-5.28-3.79-10.31-3.95-13.08.06-6.45.11-12.9.17-19.35.06-6.35,1.43-10.08,3.99-14.51,2.63-4.54,6.04-7.41,8.34-9.04"/>
      <path class="cls-1" d="M65.2,62.41c-.18-1.41-1.53-13.55,7.51-22.24,6.03-5.8,13.21-6.72,15.57-6.92"/>
      <path class="cls-1" d="M83.32,71.33c.05-1.75.48-10.27,7.46-17.01,6.09-5.88,13.28-6.65,15.3-6.8"/>
      <path class="cls-1" d="M97.45,86.77c-.05-1.38-.22-11.34,7.78-18.32,6.11-5.33,13.14-5.58,15.07-5.59"/>
      <path class="cls-1" d="M107.72,95.4c-.09-.65-1.43-11.6,6.95-18.48,6.31-5.18,13.7-4.42,15.08-4.26"/>
      <path class="cls-1" d="M126.02,103.37c-.29-.98-3.55-12.63,3.66-20.51,2.35-2.57,5.08-3.94,7.12-4.68"/>
      <path class="cls-1" d="M149.33,106.2c-3.76-3.31-5.08-8.47-3.37-12.79,2.07-5.23,7.54-6.59,8.05-6.71"/>
      <path class="cls-1" d="M167.09,103.17c-.41-.39-3.21-3.16-2.95-7.43.3-4.83,4.25-7.32,4.61-7.53"/>
      <path class="cls-1" d="M184.58,95.46c-.52-.3-2.37-1.45-3.09-3.74-1.1-3.47,1.21-6.98,1.74-6.87.1.02.22.19.26.92"/>
      <path class="cls-1" d="M268.08,19.29c2.61-8.97,9.1-15.75,17.13-17.44,4.91-1.04,9.14.1,11.53.99"/>
      <path class="cls-1" d="M278.39,28.39c2.79-8.5,9.28-14.6,16.81-15.54,4.4-.55,8.07.8,10.18,1.82"/>
      <path class="cls-1" d="M199.72,85.82c-.36-.41-1.47-1.78-1.53-3.83-.09-2.79,1.83-4.56,2.11-4.81"/>
      <path class="cls-1" d="M212.65,75.34c-.3-.17-1.26-.77-1.77-2.02-.55-1.35-.2-2.55-.09-2.86"/>
      <rect class="cls-1" x=".29" y=".13" width="403.67" height="110.35"/>
      <path class="cls-1" d="M24.7,68.63c-2.11-2.4-8.48-10.23-8.99-21.96-.71-16.17,10.26-26.59,11.91-28.1"/>
      <path class="cls-1" d="M283.14,35.47c.75-1.26,4.96-8.12,13.8-10.31,9.36-2.31,16.62,2.4,17.76,3.17"/>
      <path class="cls-1" d="M286.63,50.69c.6-.93,5.41-8.07,14.75-9.04,9.24-.96,15.38,4.92,16.18,5.71"/>
      <path class="cls-1" d="M287.11,61.48c.84-.39,6.02-2.72,11.89-.32,5.6,2.29,7.71,7.18,8.09,8.09"/>
      <path class="cls-1" d="M285.68,76.23c2.3-2.71,6.18-3.11,8.65-1.24,1.99,1.51,2.82,4.32,1.98,6.95"/>
      <path class="cls-1" d="M276.01,83.21c.41-.06,2.83-.35,4.6,1.27,1.91,1.75,2.29,5.02.63,7.77"/>
      <path class="cls-1" d="M263.32,90.34c1.38-.42,2.87.11,3.65,1.27.84,1.27.66,3.02-.48,4.12"/>
      <path class="cls-1" d="M256.82,15.17c-.14-1.13-.55-5.39,2.22-9.36,3.98-5.71,10.93-5.7,11.54-5.69"/>
      <path class="cls-1" d="M246.27,8.91c-.04-.75-.07-3.02,1.43-5.23,1.85-2.74,4.7-3.42,5.31-3.55"/>
      <path class="cls-1" d="M360.85,62.75c-.91-2.15-.47-4.64,1.11-6.34,1.57-1.69,3.99-2.31,6.19-1.59"/>
      <path class="cls-1" d="M365.13,67.82c.25-.92,1.2-4.02,4.28-6.19,4.06-2.85,8.53-1.76,9.2-1.59"/>
      <path class="cls-1" d="M371.32,71.63c.35-.63,1.61-2.74,4.28-3.81,3.25-1.3,6.13-.08,6.66.16"/>
      <path class="cls-1" d="M372.9,79.08c1.23-.5,2.98-1.01,5.07-.95,6.15.17,9.99,5.04,10.63,5.87"/>
      <path class="cls-1" d="M366.4,89.87c1.69-.28,5.92-.73,10.47,1.43,6.8,3.23,8.99,9.77,9.36,10.94"/>
      <path class="cls-1" d="M353.87,100.02c2.5-.52,8.69-1.46,15.7,1.27,5.61,2.18,9.11,5.69,10.78,7.61"/>
      <path class="cls-1" d="M346.42,105.41c2.68.04,6.56.45,10.84,2.17,2.2.88,4.03,1.92,5.5,2.9"/>
    </g>
  </g>
</svg>