<?xml version="1.0" encoding="UTF-8"?>
<svg id="Layer_2" xmlns="http://www.w3.org/2000/svg" version="1.1" viewBox="0 0 400.3 518.9">
  <!-- Generator: Adobe Illustrator 29.0.1, SVG Export Plug-In . SVG Version: 2.1.0 Build 192)  -->
  <defs>
    <style>
      .st0 {
        stroke: #f6f5f5;
      }

      .st0, .st1, .st2, .st3, .st4, .st5, .st6, .st7, .st8, .st9 {
        stroke-miterlimit: 10;
      }

      .st0, .st1, .st2, .st3, .st5, .st6, .st7, .st9 {
        stroke-width: .2px;
      }

      .st0, .st5, .st7, .st8 {
        fill: none;
      }

      .st1 {
        stroke: #dcdedd;
      }

      .st2, .st3, .st4, .st5 {
        stroke: #fff;
      }

      .st2, .st10, .st6 {
        fill: #fff;
      }

      .st4 {
        stroke-width: .2px;
      }

      .st6, .st7, .st8, .st9 {
        stroke: #000;
      }

      .st8 {
        stroke-width: .5px;
      }

      .st9 {
        fill: #dcdedd;
      }
    </style>
  </defs>
  <rect class="st10" x=".1" y="392.1" width="400.2" height="126.6"/>
  <g id="Capa_1">
    <g>
      <path d="M400.2,0H.1v460.2c7.1-2.6,19.1-6.6,34.3-8.8,21.2-3.1,37.2-1,44-.4,59.4,5.2,126.9,5.8,152.8,5.5,27.4-.3,47.6-1.6,47.6-1.6,16.1-1,19.9-1.8,25.3-2.1,0,0,3.1-.1,6.3-.2,11.7,0,44.9,5.9,50.4,6.8,9.1,1.5,22.5,2.8,39.4.8V0h0Z"/>
      <path class="st6" d="M.1,456.8c2.3-.4,6.4-1.1,11.3-2,13.7-2.5,21.5-4.2,25.2-5,27.4-5.3,53.7,1.2,76.6-1.2,2.9-.3,13.9-1.5,27.6-1.1,14.2.4,24.3,2.2,30.1,3.1,30.9,5,60.5,4.7,77.5,4.5,41.4-.4,43.1-6.2,72.3-3.4,12.7,1.2,20.6,3.1,43.5,5.1,15,1.3,27.4,1.9,35.8,2.1v4.5c-22.9-1.4-58-2.9-101.2-2.5-27.6.3-28.6,1.1-50.7,1.5-26.9.4-129.8-14.2-226.1-2.6-4.4.5-12.2,1.5-22,3.1v-6.2h0Z"/>
      <path class="st7" d="M125.8,488.7c.5,0,.6.2,1.1.2.4,0,.6-.2,1-.4.7-.2,1.1.3,2.1.5,1.3.3,2.2,0,2.2,0,0,0-1,.5-2.2.3-.9-.2-1.1-.6-1.8-.5-.7,0-.8.4-1.4.4-.4,0-.6-.2-1.2-.2-.4,0-.6,0-.7,0,0,0,.4-.3.8-.4h0Z"/>
      <path class="st7" d="M170,486.7c.5,0,.6.2,1.1.2.4,0,.6-.2,1-.4.7-.2,1.1.3,2.1.5,1.3.3,2.2,0,2.2,0,0,0-1,.5-2.2.3-.9-.2-1.1-.6-1.8-.5-.7,0-.8.4-1.4.4-.4,0-.6-.2-1.2-.2-.4,0-.6,0-.6,0,0,0,.4-.3.8-.4h0Z"/>
      <path d="M177.1,499.9c-7.9-.3-20.2-.7-35.2-.5-28.4.3-31.8,2.2-51.6,1.4-7.7-.3-20-1.8-44.5-4.8-19.8-2.4-24.5-3.3-24.5-4.2,0-2.1,21.1-3.4,30-4,17.7-1.1,42.7-2,73.6-.8,43.9.3,66,2.4,66.3,6.3.1,1.8-4.5,4-14,6.7h0Z"/>
      <rect x="172.2" y="401.2" width="9.9" height="6.8"/>
      <g>
        <rect class="st1" x="127.5" y="369.8" width="4.9" height="13.3"/>
        <path class="st1" d="M132.4,369.8h-4.9c-.6-.8-1.3-1.6-1.9-2.5h8.1c-.4.8-.8,1.6-1.2,2.5h0Z"/>
        <path class="st1" d="M126.9,364.6h4.9c.6.8,1.3,1.6,1.9,2.5h-8.1c.4-.8.8-1.6,1.2-2.5h0Z"/>
      </g>
      <path class="st3" d="M180.9,376.5c-22.7.4-45.4.8-68,1.2-13.1,14.5-26.1,28.9-39.2,43.4,1.5,0,2.9,0,4.4,0-.3,1.7-.5,3.4-.8,5.1.3,0,.6,0,.9,0-.3,1.8-.6,3.6-.9,5.5.3,0,.7,0,1,0-.4,1.8-.9,3.6-1.3,5.5.4,0,.8,0,1.2,0-.3,1.8-.6,3.6-.9,5.4h1.1c-.3,1.8-.7,3.6-1.1,5.4.4,0,.8,0,1.2,0-.4,1.8-.8,3.6-1.2,5.4.5,0,.9,0,1.4,0-.2,1.8-.4,3.6-.6,5.4.2,0,.5,0,.7,0-.2,1.9-.3,3.9-.5,5.8.2,0,.4,0,.7,0-.1,1.9-.2,3.8-.3,5.7.2,0,.5,0,.7,0-.3,1.9-.5,3.8-.8,5.6.3,0,.6,0,.9,0l-.5,5.6c.2,0,.4,0,.6,0-.2,1.6-.4,3.3-.6,4.9h.7c0,1.9,0,3.7,0,5.5,20.7,2.4,41.3,4.8,62,7.2,13.1-40.9,26.1-81.9,39.2-122.8h0Z"/>
      <path class="st6" d="M221.5,415.1l-43.4-35.1c-13.1,14-26.3,28-39.4,42-.1,1.7-.3,3.5-.4,5.2.2,0,.3,0,.5,0,0,1.9-.2,3.9-.2,5.8h.7s-.4,6.3-.4,6.3c.2,0,.4,0,.6.1-.1,1.7-.3,3.4-.4,5.1.2,0,.4,0,.6,0-.2,1.9-.4,3.8-.6,5.7h.7c.7,16.4,1.4,32.8,2.1,49.1,27.3-1.4,54.6-2.8,82-4.2,0-1-.1-2.1-.2-3.1.1,0,.3,0,.4,0-.2-1.3-.3-2.6-.5-3.9.1,0,.2,0,.3,0-.1-1.5-.3-3.1-.4-4.6.1,0,.2,0,.3,0-.1-1.4-.3-2.8-.4-4.1,0,0,.2,0,.3,0-.1-1.4-.2-2.9-.4-4.3.1,0,.2,0,.3,0-.1-1.2-.3-2.4-.4-3.6h.3c-.1-1.4-.3-2.7-.4-4.1-.2-8.5-.5-17.1-.7-25.6h.2c-.1-2.1-.3-4.3-.4-6.5h.2l-.4-5.1h.2c-.1-2.4-.3-4.7-.4-7h.3c-.2-1.6-.3-3.2-.5-4.8v-3s0,0,0,0Z"/>
      <path d="M189.5,448c-5.8.1-11.6.2-17.3.4.4,16.5.8,33,1.1,49.4,5.4-.4,10.9-.7,16.4-1,0-16.2-.1-32.5-.2-48.7h0Z"/>
      <path class="st3" d="M78.1,421.2c1.7,0,3.5,0,5.2,0h4.5c16.9.2,33.8.3,50.7.4"/>
      <path class="st9" d="M137.6,418.6c27.9-1.1,55.9-2.3,83.8-3.5"/>
      <path class="st9" d="M138.8,439.2c27.9-1.4,55.9-2.7,83.8-4.1"/>
      <path class="st9" d="M137.6,432.9c28.4-1,56.8-1.9,85.2-2.9"/>
      <path class="st9" d="M137.4,427.2c28.4-1.4,56.8-2.8,85.1-4.2"/>
      <path class="st5" d="M77.3,426.3c20.3.3,40.6.6,60.9.9"/>
      <path class="st5" d="M77.3,431.7c20.3.4,40.7.8,61,1.1"/>
      <path class="st5" d="M77.3,437.2c20.3.6,40.6,1.2,60.9,1.8"/>
      <path class="st5" d="M77.3,442.6c20.6.6,41.2,1.2,61.7,1.9"/>
      <path class="st5" d="M77.3,448c20.8.7,41.6,1.4,62.3,2.1"/>
      <path class="st5" d="M77.3,453.5c20.8.6,41.6,1.3,62.4,1.9"/>
      <path class="st5" d="M77.3,458.9c20.8.9,41.5,1.9,62.3,2.8"/>
      <path class="st5" d="M77.3,464.6c21,1.2,41.9,2.3,62.9,3.5"/>
      <path class="st5" d="M77.3,470.2c21,1.3,42.1,2.6,63.1,3.9"/>
      <path class="st5" d="M77.3,475.9c21.2,1.4,42.4,2.8,63.6,4.2"/>
      <path class="st5" d="M77.3,481.6c21.3,1.7,42.5,3.5,63.8,5.2"/>
      <path class="st5" d="M79.8,486.6c20.6,2.3,41.2,4.5,61.9,6.8"/>
      <path class="st9" d="M132.3,415.8c28.4-1.4,56.8-2.8,85.1-4.2"/>
      <path class="st9" d="M131.4,412.3c28.4-1.4,56.8-2.8,85.1-4.2"/>
      <path class="st9" d="M129.7,409.3c28.4-1.4,56.8-2.8,85.1-4.2"/>
      <path class="st9" d="M125.5,406.7c28.4-1.4,56.8-2.8,85.2-4.2"/>
      <path class="st9" d="M122.8,403.4c28.4-1.4,56.8-2.8,85.2-4.2"/>
      <path class="st9" d="M117.1,399c28.4-1.4,56.8-2.8,85.1-4.2"/>
      <path class="st9" d="M117.1,401.3c28.4-1.4,56.8-2.8,85.1-4.2"/>
      <path class="st9" d="M111.3,396.5c28.4-1.4,56.8-2.8,85.1-4.2"/>
      <path class="st9" d="M106,384.6c28.4-1.4,56.8-2.8,85.2-4.2"/>
      <path class="st9" d="M106,383.9c28.4-1.4,56.8-2.8,85.2-4.2"/>
      <path class="st9" d="M106,385.7c28.4-1.4,56.8-2.8,85.2-4.2"/>
      <path class="st9" d="M106,387.6c28.4-1.4,56.8-2.8,85.2-4.2"/>
      <path class="st9" d="M106,389.5c28.4-1.4,56.8-2.8,85.2-4.2"/>
      <path class="st9" d="M106,386.5c28.4-1.4,56.8-2.8,85.2-4.2"/>
      <path class="st9" d="M106,388.5c28.4-1.4,56.8-2.8,85.2-4.2"/>
      <path class="st9" d="M106,391.1c28.4-1.4,56.8-2.8,85.2-4.2"/>
      <path class="st9" d="M106,392.3c28.4-1.4,56.8-2.8,85.2-4.2"/>
      <path class="st9" d="M106,394.2c28.4-1.4,56.8-2.8,85.2-4.2"/>
      <path class="st9" d="M138.7,422c28-1.3,56-2.6,84.1-3.9"/>
      <path d="M217.6,463.9c-5.7.2-11.4.4-17.2.7,0-5.7-.1-11.5-.2-17.2,5.9-.2,11.7-.4,17.6-.6,0,5.7-.1,11.4-.2,17.1h0Z"/>
      <path d="M199.3,465.7c-.2,0-.5,0-.8-.1,0-6.3-.1-12.7-.2-19,.2,0,.5-.1.7-.2,0,6.5.1,12.9.2,19.4h0Z"/>
      <path class="st7" d="M218.5,464.8c-6.4.2-12.7.5-19,.7,0-6.4-.1-12.7-.2-19,6.5-.2,13-.4,19.5-.6,0,6.3-.1,12.6-.2,19h0Z"/>
      <path class="st7" d="M171.1,497.8c-.3-17.1-.6-34.3-1-51.4,6.8-.1,13.7-.3,20.5-.4.2,17,.4,33.9.5,50.9"/>
      <path class="st8" d="M168.1,498c-.2-12.2-.3-24.4-.5-36.5"/>
      <path class="st8" d="M171,498c-.3-17.2-.5-34.4-.8-51.6"/>
      <path class="st7" d="M138.7,460.5c10.6-.2,21.2-.4,31.8-.7"/>
      <path class="st7" d="M138.7,459c10.6-.2,21.1-.4,31.6-.5"/>
      <path class="st7" d="M138.7,457.6c10.6-.1,21.1-.3,31.7-.5"/>
      <path class="st7" d="M138.6,456.2c10.6-.3,21.2-.6,31.8-.8"/>
      <path class="st7" d="M138.6,454.8c10.6-.4,21.2-.8,31.8-1.3"/>
      <path class="st7" d="M138.5,453.4c10.6-.4,21.2-.8,31.8-1.3"/>
      <path class="st7" d="M138.5,452c10.6-.4,21.2-.8,31.8-1.3"/>
      <path class="st7" d="M138.9,450.6c10.4-.4,20.9-.9,31.3-1.3"/>
      <path class="st7" d="M190.9,476.3c10.8-.4,21.6-.9,32.4-1.3"/>
      <path class="st7" d="M190.9,472.7c10.8-.4,21.5-.9,32.3-1.3"/>
      <path class="st7" d="M191.1,468.5c10.7-.4,21.4-.8,32-1.2"/>
      <path class="st7" d="M139.7,444.5l83.2-2.9"/>
      <path class="st7" d="M191,480.5c10.8-.4,21.6-.8,32.4-1.2"/>
      <path class="st7" d="M191.2,484.7c10.8-.4,21.6-.9,32.3-1.3"/>
      <path class="st7" d="M191.3,489.5c10.8-.5,21.6-.9,32.3-1.4"/>
      <path class="st7" d="M191.2,493.3c10.9-.5,21.7-.9,32.5-1.4"/>
      <path class="st7" d="M139.6,461.7c10.2-.2,20.3-.3,30.5-.5"/>
      <path class="st8" d="M165.1,498.3c-.2-12.3-.4-24.6-.6-37"/>
      <path class="st8" d="M162.4,498.3c-.2-12.3-.3-24.6-.5-36.9"/>
      <path class="st8" d="M159.6,498.5c-.2-12.4-.4-24.7-.6-37.1"/>
      <path class="st8" d="M156.6,498.5c-.2-12.4-.4-24.7-.6-37.1"/>
      <path class="st8" d="M154.1,498.8c-.2-12.4-.4-24.9-.6-37.3"/>
      <path class="st8" d="M151.4,499c-.3-12.5-.5-25-.8-37.5"/>
      <path class="st8" d="M148.6,499c-.3-12.5-.5-25-.8-37.4"/>
      <path class="st8" d="M143.6,499l-.8-37.3"/>
      <path class="st8" d="M146.2,499c-.2-12.5-.5-24.9-.7-37.4"/>
      <path class="st9" d="M177.7,379c14.6,12,29.2,24.1,43.8,36.1"/>
      <g>
        <path class="st3" d="M119.9,465.3l-4.5-.2c-7.4-.4-14.8-.8-22.1-1.1,0-5.9.1-11.8.2-17.7l26.6.3c0,6.3-.2,12.5-.2,18.8h0Z"/>
        <path class="st3" d="M117.9,463.5c-7.5-.2-15.1-.5-22.6-.7l.2-15,22.6.3c0,5.1-.1,10.3-.2,15.5h0Z"/>
        <path class="st10" d="M120.1,465.5c.4-.2.8-.3,1.2-.5,0-6.1.2-12.2.3-18.3-.4-.1-.9-.2-1.3-.4,0,6.4-.1,12.8-.2,19.2h0Z"/>
        <path class="st10" d="M95.5,462.9c.4-.1.8-.3,1.2-.4,0-4.7.2-9.4.3-14.1-.4,0-.9-.2-1.3-.2,0,4.9-.1,9.9-.2,14.8Z"/>
      </g>
      <path class="st4" d="M178.1,380l43.4,38.2h6.6c-15.7-13.9-31.5-27.8-47.2-41.7-.9,1.2-1.9,2.3-2.8,3.5h0Z"/>
      <g>
        <path class="st0" d="M78.5,421.1c12.7-14.5,25.5-29,38.2-43.5"/>
        <path class="st0" d="M83.2,421.1c12.9-14.5,25.8-29,38.7-43.6"/>
        <path class="st0" d="M87.8,421.1c12.6-14.5,25.2-29,37.8-43.6"/>
        <path class="st0" d="M91.3,421.1c12.9-14.5,25.9-29,38.8-43.6"/>
        <path class="st0" d="M95.5,421.1c12.9-14.5,25.9-29,38.8-43.6"/>
        <path class="st0" d="M99.2,421.3c12.9-14.6,25.9-29.2,38.8-43.7"/>
        <path class="st0" d="M102.7,421.3c13-14.6,26-29.2,39-43.7"/>
        <path class="st0" d="M106.3,421.3c13-14.6,26-29.2,39-43.7"/>
        <path class="st0" d="M109.7,421.3c13.1-14.6,26.2-29.2,39.4-43.7"/>
        <path class="st0" d="M113.5,421.3c13.1-14.6,26.1-29.2,39.2-43.7"/>
        <path class="st0" d="M117.2,421.3c13.1-14.6,26.1-29.2,39.2-43.7"/>
        <path class="st0" d="M120.9,421.4c13.1-14.6,26.1-29.3,39.2-43.9"/>
        <path class="st0" d="M124.8,421.5c13-14.6,26-29.3,39-43.9"/>
        <path class="st0" d="M128.5,421.5c13-14.6,26-29.3,38.9-44"/>
        <path class="st0" d="M131.8,421.5c13.1-14.6,26.2-29.3,39.4-43.9"/>
        <path class="st0" d="M135.6,421.5c13.1-14.6,26.1-29.3,39.2-43.9"/>
      </g>
      <path class="st6" d="M175.9,446.7c.4-.1.8-.2,1.2-.4,4.1.5,8.2,1,12.3,1.6,0,16.2.1,32.5.2,48.7-3.9,1.2-7.7,2.3-11.6,3.5-.3,0-.6-.1-.9-.2-.4-17.8-.8-35.5-1.2-53.3h0Z"/>
      <path class="st6" d="M177.1,446.4c4.1.5,8.2,1,12.4,1.6,0,16.2.1,32.5.2,48.7-3.8,1.1-7.6,2.2-11.4,3.3-.4-17.9-.8-35.8-1.1-53.6h0Z"/>
      <path d="M182.2,474c0,0,0-.3-.2-.5-.3-.2-.9-.1-1.3.2-.2.2-.3.4-.3.6h-.5c0,.2,0,.2,0,.3.1,0,.3,0,.4.1,0,.1.1.3.3.5.4.3.8.2,1.1,0,.2-.1.3-.3.4-.4,0-.1,0-.3,0-.3,0,.3-.2.5-.5.6-.4.1-.9-.2-1.1-.5-.1-.4.1-.7.4-.9,0,0,.5-.3.9-.1.2.1.2.3.2.4Z"/>
      <circle class="st2" cx="343.9" cy="358.4" r="19.2"/>
      <g>
        <path d="M286.5,497.5c.4,0,.7,0,1,.2.5.1.6.3,1,.4.5.1,1.2.3,2,.4,1.9.2,3.1-.2,3.1,0,0,0-2.2.8-5,.7-1.5,0-3.7-.3-3.7-.8,0-.3.8-.7,1.6-.7h0Z"/>
        <path class="st6" d="M286.3,498c-.1-.4,0-.9.3-1.2,1.1-1.3,4.3,0,4.9.2.9.3,2.2.8,2.1,1.3,0,.7-2.9,1-5,.7-2-.3-2.3-.9-2.3-1h0Z"/>
        <path class="st6" d="M286.3,498c-.2-.5,0-1.2.3-1.2.2,0,.3.4.9.8.4.3.8.4,1,.4.5.1,1.2.3,2,.4.1,0,.8,0,1.6,0,.6,0,1.1,0,1.5-.1,0,0,0,0,0,0-.1.3-.6.5-1,.6-2.1.4-4,0-4,0-1.3-.3-2.1-.4-2.3-1h0Z"/>
      </g>
      <g>
        <path d="M188.8,510.8c.8,0,1.4.2,2.2.4,1,.3,1.4.7,2.2,1,1.1.3,2.6.7,4.4.8,4.1.4,6.6-.4,6.7-.2,0,.1-4.9,1.8-10.8,1.6-3.1-.1-7.9-.8-7.9-1.9,0-.7,1.8-1.6,3.4-1.7h0Z"/>
        <path class="st6" d="M188.4,512c-.3-.9,0-2.1.7-2.7.8-.7,1.7-.4,5.3-.1,3,.3,2.6.1,3.4.3,2.8.5,6.6,2.1,6.4,3.3-.1,1.5-6.1,2.3-10.8,1.6-1.9-.3-4.4-.7-5-2.3h0Z"/>
        <path class="st6" d="M188.4,512c-.4-1.1.2-2.6.7-2.7.5,0,.7,1,1.9,1.9.8.6,1.6.8,2.2,1,1.1.3,2.6.7,4.4.8.3,0,1.6.2,3.4,0,1.3,0,2.4-.2,3.3-.3,0,0,0,0,0,.2-.3.8-1.2,1.1-2.2,1.3-4.4,1-8.6,0-8.6,0-2.8-.6-4.5-1-5-2.3h0Z"/>
      </g>
      <g>
        <path d="M279,473.3c.3,0,.6,0,.8.1.4.1.5.3.8.3.4.1,1,.2,1.7.3,1.6.1,2.5-.1,2.6,0,0,0-1.9.6-4.2.6-1.2,0-3-.3-3.1-.7,0-.3.7-.6,1.3-.6h0Z"/>
        <path class="st6" d="M278.8,473.7c-.1-.3,0-.7.3-1,.9-1,3.5,0,4.1.1.7.3,1.8.7,1.8,1.1,0,.6-2.4.8-4.2.6-1.7-.2-1.9-.7-1.9-.8h0Z"/>
        <path class="st6" d="M278.8,473.7c-.2-.4,0-1,.3-1,.2,0,.3.4.7.7.3.2.6.3.8.3.4.1,1,.2,1.7.3.1,0,.6,0,1.3,0,.5,0,.9,0,1.3-.1,0,0,0,0,0,0-.1.3-.5.4-.8.5-1.7.4-3.3,0-3.3,0-1.1-.2-1.7-.4-1.9-.8h0Z"/>
      </g>
      <g>
        <path d="M311.8,503.4c.7,0,1.2.2,1.9.4.9.3,1.2.6,1.9.8.9.3,2.2.6,3.8.7,3.5.4,5.7-.4,5.7-.2,0,.1-4.2,1.5-9.3,1.4-2.7,0-6.8-.7-6.8-1.6,0-.6,1.5-1.4,2.9-1.4h0Z"/>
        <path class="st6" d="M311.5,504.5c-.3-.8,0-1.8.6-2.3.6-.6,1.5-.4,4.5-.1,2.6.2,2.2.1,2.9.2,2.4.4,5.6,1.8,5.5,2.8-.1,1.3-5.3,1.9-9.3,1.4-1.6-.2-3.8-.6-4.3-2Z"/>
        <path class="st6" d="M311.5,504.5c-.4-1,.1-2.3.6-2.3.4,0,.6.9,1.6,1.6.7.5,1.4.7,1.9.8.9.3,2.2.6,3.8.7.3,0,1.4.1,2.9,0,1.1,0,2-.1,2.8-.2,0,0,0,0,0,.1-.2.7-1,1-1.9,1.1-3.8.8-7.4,0-7.4,0-2.4-.5-3.9-.8-4.3-2h0Z"/>
      </g>
      <path d="M290.6,467.8c-1.6,0-2.1.1-3.6,0-1.5,0-1.9-.2-3.3-.3-2.4-.2-3.6,0-6.9.2-4.2.1-7.4-.2-7.4-.1s3.3.4,7.3.3c3,0,3.6-.3,6-.2,2.2,0,2.5.3,4.6.3s1.9,0,3.9,0c1.3,0,2.1,0,2.2,0,0,0-1.2-.2-2.7-.2h0Z"/>
      <path d="M314.9,494.3c-1.2,0-1.6.1-2.7.1-1.1,0-1.4-.2-2.5-.3-1.8-.2-2.6.1-5.1.2-3.1.2-5.5-.1-5.5-.1,0,0,2.5.4,5.4.3,2.2,0,2.7-.3,4.5-.2,1.6,0,1.9.3,3.4.3,1,0,1.4-.1,2.9-.1,1,0,1.6,0,1.6,0,0,0-.9-.2-2-.3h0Z"/>
      <path d="M279.5,487.9c-1.2,0-1.6.1-2.7.1-1.1,0-1.4-.2-2.5-.3-1.8-.2-2.6.1-5.1.2-3.1.2-5.5-.1-5.5-.1,0,0,2.5.4,5.4.3,2.2,0,2.7-.3,4.5-.2,1.6,0,1.9.3,3.4.3,1,0,1.4-.1,2.9-.1,1,0,1.6,0,1.6,0,0,0-.9-.2-2-.3h0Z"/>
      <path d="M302.2,510.2c-1.2,0-1.6.1-2.7.1-1.1,0-1.4-.2-2.5-.3-1.8-.2-2.6.1-5.1.2-3.1.2-5.5-.1-5.5-.1,0,0,2.5.4,5.4.3,2.2,0,2.7-.3,4.5-.2,1.6,0,1.9.3,3.4.3,1,0,1.4-.1,2.9-.1,1,0,1.6,0,1.6,0,0,0-.9-.2-2-.3h0Z"/>
      <path d="M229.2,500.6c2.2,0,2.9,0,5.1,0,2.1,0,2.6,0,4.6-.1,3.3,0,4.9,0,9.6.2,5.9.1,10.3,0,10.3,0s-4.6.1-10.1,0c-4.2,0-5-.2-8.4-.1-3,0-3.5.1-6.4.1-1.9,0-2.6,0-5.4,0-1.8,0-2.9,0-3,0,0,0,1.7-.1,3.7-.1h0Z"/>
      <g>
        <path d="M323.6,468c.2,0,.4,0,.6,0,.3,0,.4.1.6.2.3,0,.7.1,1.1.2,1.1,0,1.8,0,1.8,0,0,0-1.3.4-2.9.3-.8,0-2.1-.2-2.1-.4,0-.1.5-.4.9-.4Z"/>
        <path class="st6" d="M323.5,468.3c0-.2,0-.4.2-.6.6-.6,2.4,0,2.8,0,.5.2,1.2.4,1.2.6,0,.4-1.6.5-2.9.3-1.1-.1-1.3-.4-1.3-.5Z"/>
        <path class="st6" d="M323.5,468.3c-.1-.2,0-.6.2-.6.1,0,.2.2.5.4.2.1.4.2.6.2.3,0,.7.1,1.1.2,0,0,.4,0,.9,0,.3,0,.6,0,.9,0,0,0,0,0,0,0,0,.2-.3.2-.6.3-1.2.2-2.3,0-2.3,0-.7-.1-1.2-.2-1.3-.5h0Z"/>
      </g>
      <g>
        <path d="M247.6,488.6c.4,0,.7,0,1,.2.5.1.6.3,1,.4.5.1,1.2.3,2,.4,1.9.2,3.1-.2,3.1,0,0,0-2.2.8-5,.7-1.5,0-3.7-.3-3.7-.8,0-.3.8-.7,1.6-.7h0Z"/>
        <path class="st6" d="M247.4,489.2c-.1-.4,0-.9.3-1.2,1.1-1.3,4.3,0,4.9.2.9.3,2.2.8,2.1,1.3,0,.7-2.9,1-5,.7-2-.3-2.3-.9-2.3-1h0Z"/>
        <path class="st6" d="M247.4,489.2c-.2-.5,0-1.2.3-1.2.2,0,.3.4.9.8.4.3.8.4,1,.4.5.1,1.2.3,2,.4.1,0,.8,0,1.6,0,.6,0,1.1,0,1.5-.1,0,0,0,0,0,0-.1.3-.6.5-1,.6-2.1.4-4,0-4,0-1.3-.3-2.1-.4-2.3-1h0Z"/>
      </g>
      <g>
        <path d="M146.2,509c.4,0,.7,0,1,.2.5.1.6.3,1,.4.5.1,1.2.3,2,.4,1.9.2,3.1-.2,3.1,0,0,0-2.2.8-5,.7-1.5,0-3.7-.3-3.7-.8,0-.3.8-.7,1.6-.7h0Z"/>
        <path class="st6" d="M146.1,509.6c-.1-.4,0-.9.3-1.2,1.1-1.3,4.3,0,4.9.2.9.3,2.2.8,2.1,1.3,0,.7-2.9,1-5,.7-2-.3-2.3-.9-2.3-1h0Z"/>
        <path class="st6" d="M146.1,509.6c-.2-.5,0-1.2.3-1.2.2,0,.3.4.9.8.4.3.8.4,1,.4.5.1,1.2.3,2,.4.1,0,.8,0,1.6,0,.6,0,1.1,0,1.5-.1,0,0,0,0,0,0-.1.3-.6.5-1,.6-2.1.4-4,0-4,0-1.3-.3-2.1-.4-2.3-1h0Z"/>
      </g>
      <path d="M266.1,478.7c-3.3,0-4.3,0-7.5,0-3.1,0-3.9-.2-6.8-.4-3.3-.1-8,0-14.1,0-7.5,0-14.1-.2-14.1-.2,0,0,.2,0,.3,0,6.8.2,10.2.4,13.5.3,3.7,0,4.9-.1,9.2-.1.9,0,1.9,0,3.1,0,4.5.1,5.1.4,9.4.4,2.8,0,3.8,0,8,0,2.7,0,4.4.1,4.4,0,.1,0-2.5-.2-5.5-.3h0Z"/>
      <path d="M230.7,510c2.2,0,2.9.2,5.1.3,2.1,0,2.6-.2,4.6-.4,3.3-.2,4.9.3,9.6.5,5.9.3,10.3,0,10.3,0s-4.6.5-10.1.3c-4.2-.2-5-.6-8.4-.5-3,0-3.5.5-6.4.4-1.9,0-2.6-.2-5.4-.2-1.8,0-2.9,0-3,0,0,0,1.7-.3,3.7-.4h0Z"/>
      <g>
        <path d="M76.9,510.6c.7,0,1.3.2,2,.4.9.3,1.2.6,2,.8,1,.3,2.3.6,4,.7,3.7.3,6-.4,6.1-.2,0,0-4.4,1.5-9.8,1.3-2.8,0-7.2-.7-7.2-1.6,0-.6,1.6-1.4,3.1-1.4h0Z"/>
        <path class="st6" d="M76.6,511.6c-.3-1,.4-2,.6-2.3,1-1.4,2.6-1.7,2.9-1.8,1.4-.2,2.5.2,4.4,1.1,4.3,2,6.5,3,6.4,3.7-.2,1.4-5.8,1.9-9.8,1.3-1.7-.2-4.1-.6-4.5-2h0Z"/>
        <path class="st6" d="M76.6,511.6c-.1-.4-.2-1.2.6-2.3.3.4.9,1.1,1.7,1.6,1.7,1.2,3.5,1.3,6,1.5.3,0,1.5.1,3.1,0,1.2,0,2.2-.1,3-.2,0,0,0,0,0,.1-.3.8-1.5,1-2,1.1-1.4.3-11.5,1.5-12.3-1.9h0Z"/>
      </g>
      <g>
        <path d="M49.8,501.7c.5,0,1,.1,1.5.3.7.2,1,.5,1.5.6.7.2,1.8.4,3,.5,2.8.3,4.6-.3,4.6-.1,0,0-3.4,1.2-7.5,1-2.2,0-5.5-.5-5.5-1.2,0-.5,1.2-1.1,2.3-1.1h0Z"/>
        <path class="st6" d="M49.5,502.5c-.2-.8.3-1.6.5-1.8.9-1.3,2.9-1.7,4.4-1.4.8.2.9.4,3,1.7,2.5,1.5,3.2,1.6,3.2,2,0,.9-4.1,1.5-7.5,1-1.3-.2-3.1-.4-3.5-1.5h0Z"/>
        <path class="st6" d="M49.5,502.5c-.3-.7.1-1.7.5-1.8.4,0,.5.9,1.3,1.2.8.4,1.2-.2,2.2,0,1.1.2,1.1.9,2.3,1.2.5.1,1.1.1,2.4,0,.9,0,1.7-.1,2.3-.2,0,0,0,0,0,.1-.2.5-.8.7-1.5.9-3.1.6-6,0-6,0-2-.4-3.1-.6-3.5-1.5h0Z"/>
      </g>
      <g>
        <path d="M11.1,492c.2,0,.4,0,.7.1.3,0,.4.2.7.3.3,0,.8.2,1.4.2,1.3.1,2.1-.1,2.1,0,0,0-1.5.5-3.4.5-1,0-2.4-.2-2.5-.5,0-.2.6-.5,1.1-.5h0Z"/>
        <path class="st6" d="M11.4,491.9c0-.3,0-.6.2-.8.8-.9,2.8,0,3.3.1.6.2,1.4.6,1.4.9,0,.5-1.9.6-3.4.5-1.4-.2-1.5-.6-1.5-.7h0Z"/>
        <path class="st6" d="M11.4,491.9c-.1-.3,0-.8.2-.8.1,0,.2.3.6.5.2.2.5.2.7.3.3,0,.8.2,1.4.2,0,0,.5,0,1.1,0,.4,0,.7,0,1,0,0,0,0,0,0,0,0,.2-.4.3-.7.4-1.4.3-2.7,0-2.7,0-.9-.2-1.4-.3-1.5-.7h0Z"/>
      </g>
      <g>
        <path d="M18.5,503.2c.5,0,1,.1,1.5.3.7.2,1,.5,1.5.6.7.2,1.8.4,3,.5,2.9.3,4.6-.3,4.6-.1,0,0-3.4,1.2-7.5,1-2.2,0-5.5-.5-5.5-1.2,0-.5,1.2-1.1,2.4-1.1h0Z"/>
        <path class="st6" d="M18.2,504c-.2-.8.3-1.6.5-1.8.9-1.3,2.9-1.7,4.4-1.4.8.2.9.4,3,1.7,2.5,1.5,3.2,1.6,3.2,2,0,.9-4.1,1.5-7.5,1-1.3-.2-3.1-.4-3.5-1.5h0Z"/>
        <path class="st6" d="M18.2,504c-.3-.7.1-1.7.5-1.8.4,0,.5.9,1.3,1.2.8.4,1.1-.2,2.2,0,1.1.2,1.1.9,2.4,1.2.5.1,1.1.1,2.4,0,.9,0,1.7-.1,2.3-.2,0,0,0,0,0,.1-.2.5-.9.7-1.5.9-3.1.6-6,0-6,0-2-.4-3.1-.6-3.5-1.5h0Z"/>
      </g>
      <g>
        <path d="M50.9,471.1c.2,0,.5,0,.7.1.3,0,.4.2.7.3.3,0,.8.2,1.4.2,1.3.1,2-.1,2.1,0,0,0-1.5.5-3.4.5-1,0-2.4-.2-2.5-.5,0-.2.6-.5,1-.5h0Z"/>
        <path class="st6" d="M50.7,471.5c0-.3,0-.6.2-.8.8-.9,2.8,0,3.3.1.6.2,1.5.6,1.4.9,0,.5-1.9.6-3.4.5-1.3-.2-1.5-.6-1.5-.7h0Z"/>
        <path class="st6" d="M50.7,471.5c-.1-.3,0-.8.2-.8.2,0,.2.3.6.5.2.2.5.2.7.3.3,0,.8.2,1.4.2,0,0,.5,0,1,0,.4,0,.7,0,1,0,0,0,0,0,0,0,0,.2-.4.3-.7.4-1.4.3-2.7,0-2.7,0-.9-.2-1.4-.3-1.5-.7h0Z"/>
      </g>
      <g>
        <path d="M31.8,483.4c.4,0,.7,0,1,.2.5.1.6.3,1,.4.5.1,1.2.3,2,.4,1.9.2,3.1-.2,3.1,0,0,0-2.2.8-5,.7-1.5,0-3.7-.3-3.7-.8,0-.3.8-.7,1.6-.7h0Z"/>
        <path class="st6" d="M31.6,483.9c-.1-.4,0-.9.3-1.2,1.1-1.3,4.3,0,4.9.2.9.3,2.2.8,2.1,1.3,0,.7-2.9,1-5,.7-2-.3-2.3-.9-2.3-1h0Z"/>
        <path class="st6" d="M31.6,483.9c-.2-.5,0-1.2.3-1.2.2,0,.3.4.9.8.4.3.8.4,1,.4.5.1,1.2.3,2,.4.1,0,.8,0,1.6,0,.6,0,1.1,0,1.5-.1,0,0,0,0,0,0-.1.3-.6.5-1,.6-2.1.4-4,0-4,0-1.3-.3-2.1-.4-2.3-1h0Z"/>
      </g>
      <path d="M86.6,478.2c-3.3,0-4.3,0-7.4,0-3.1,0-3.9-.2-6.8-.4-4.9-.2-7.3,0-14.2,0-8.6,0-15.1-.3-15.2-.3,0,0,6.8.4,14.9.4s7.3-.2,12.3,0c4.5.1,5.1.4,9.4.4,2.8,0,3.8,0,8,0,2.7,0,4.3.1,4.4,0,0,0-2.5-.2-5.5-.3h0Z"/>
      <path d="M70,473.5c-1.7,0-2.2.1-3.8.1-1.5,0-1.9-.2-3.4-.3-2.5-.2-3.7.1-7.1.3-4.3.2-7.6-.2-7.6-.1s3.4.4,7.5.3c3.1,0,3.7-.4,6.2-.2,2.2.1,2.6.4,4.7.4s1.9-.1,4-.1c1.4,0,2.2,0,2.2,0,0,0-1.2-.3-2.8-.3h0Z"/>
      <path d="M34.8,472.4c-1.6,0-2.1.1-3.6,0-1.5,0-1.9-.2-3.3-.3-2.4-.2-3.6,0-6.9.2-4.2.1-7.4-.2-7.4-.1s3.3.4,7.3.3c3,0,3.6-.3,6-.2,2.2,0,2.5.3,4.6.3s1.9,0,3.9,0c1.3,0,2.1,0,2.2,0,0,0-1.2-.2-2.7-.2h0Z"/>
      <path d="M67.5,494c-1.2,0-1.6.1-2.7.1-1.1,0-1.4-.2-2.5-.3-1.8-.2-2.6.1-5.2.2-3.1.2-5.5-.1-5.5-.1,0,0,2.5.4,5.4.3,2.2,0,2.7-.3,4.5-.2,1.6,0,1.8.3,3.4.3,1,0,1.4-.1,2.9-.1,1,0,1.6,0,1.6,0,0,0-.9-.2-2-.3h0Z"/>
      <path d="M95.6,504.9c2.2,0,2.9.2,5.1.3,2.1,0,2.6-.2,4.6-.4,3.3-.2,4.9.3,9.6.5,5.8.3,10.2,0,10.3,0s-4.6.5-10.1.3c-4.2-.2-5-.6-8.4-.5-3,0-3.5.5-6.4.4-1.9,0-2.6-.2-5.4-.2-1.8,0-2.9,0-3,0,0,0,1.7-.3,3.7-.4h0Z"/>
      <g>
        <path d="M38.6,466.7c.2,0,.4,0,.6.1.3,0,.4.2.6.2.3,0,.7.2,1.1.2,1.1.1,1.7-.1,1.7,0,0,0-1.2.4-2.8.4-.8,0-2-.2-2-.5,0-.2.5-.4.9-.4h0Z"/>
        <path class="st6" d="M38.5,467c0-.2,0-.5.2-.7.6-.7,2.4,0,2.7.1.5.2,1.2.5,1.2.7,0,.4-1.6.5-2.8.4-1.1-.1-1.3-.5-1.3-.6h0Z"/>
        <path class="st6" d="M38.5,467c0-.3,0-.6.2-.7.1,0,.2.2.5.5.2.1.4.2.6.2.3,0,.7.2,1.1.2,0,0,.4,0,.9,0,.3,0,.6,0,.8,0,0,0,0,0,0,0,0,.2-.3.3-.6.3-1.2.2-2.2,0-2.2,0-.7-.1-1.2-.2-1.3-.6h0Z"/>
      </g>
      <g>
        <path d="M376.6,507.6c.7,0,1.3.2,2,.4,1,.3,1.2.6,2,.8,1,.3,2.3.6,4,.7,3.7.4,6-.4,6.1-.2,0,.1-4.4,1.5-9.9,1.4-2.9,0-7.2-.7-7.2-1.6,0-.6,1.6-1.4,3.1-1.4h0Z"/>
        <path class="st6" d="M376.2,508.7c-.3-1,.4-2,.6-2.3,1-1.4,2.5-1.7,2.9-1.8,1.4-.2,2.5.2,4.4,1.1,4.3,2,6.5,3,6.4,3.7-.2,1.4-5.8,1.9-9.9,1.4-1.6-.2-4.1-.6-4.5-2h0Z"/>
        <path class="st6" d="M376.2,508.7c-.1-.4-.1-1.2.6-2.3.3.4.9,1.1,1.7,1.6,1.7,1.2,3.5,1.3,6,1.5.3,0,1.5.1,3.1,0,1.2,0,2.2-.1,3-.2,0,0,0,0,0,.1-.3.8-1.5,1-2,1.1-1.4.3-11.5,1.5-12.4-1.9h0Z"/>
      </g>
      <g>
        <path d="M350.8,494.5c.5,0,1,.1,1.5.3.7.2,1,.5,1.5.6.7.2,1.8.4,3,.5,2.9.3,4.6-.3,4.6-.1,0,0-3.4,1.2-7.5,1-2.2,0-5.5-.5-5.5-1.2,0-.5,1.2-1.1,2.4-1.1h0Z"/>
        <path class="st6" d="M350.5,495.3c-.2-.8.3-1.6.5-1.8.9-1.3,2.9-1.7,4.4-1.4.8.2.9.4,3,1.7,2.5,1.5,3.2,1.6,3.2,2,0,.9-4.1,1.5-7.5,1-1.3-.2-3.1-.4-3.5-1.5h0Z"/>
        <path class="st6" d="M350.5,495.3c-.3-.7.1-1.7.5-1.8.4,0,.5.9,1.3,1.2.8.4,1.1-.2,2.2,0,1.1.2,1.1.9,2.4,1.2.5.1,1.1.1,2.4,0,.9,0,1.7-.1,2.3-.2,0,0,0,0,0,.1-.2.5-.9.7-1.5.9-3.1.6-6,0-6,0-2-.4-3.1-.6-3.5-1.5h0Z"/>
      </g>
      <g>
        <path d="M343.4,475.3c.2,0,.5,0,.7.1.3,0,.4.2.7.3.3,0,.8.2,1.4.2,1.3.1,2-.1,2.1,0,0,0-1.5.5-3.4.5-1,0-2.4-.2-2.5-.5,0-.2.6-.5,1-.5h0Z"/>
        <path class="st6" d="M343.7,475.2c0-.3,0-.6.2-.8.8-.9,2.8,0,3.3.1.6.2,1.5.6,1.4.9,0,.5-1.9.6-3.4.5-1.4-.2-1.5-.6-1.5-.7h0Z"/>
        <path class="st6" d="M343.7,475.2c-.1-.3,0-.8.2-.8.1,0,.2.3.6.5.2.2.5.2.7.3.3,0,.8.2,1.4.2,0,0,.5,0,1,0,.4,0,.7,0,1,0,0,0,0,0,0,0,0,.2-.4.3-.7.4-1.4.3-2.7,0-2.7,0-.9-.2-1.4-.3-1.5-.7h0Z"/>
      </g>
      <g>
        <path d="M350.8,494.5c.5,0,1,.1,1.5.3.7.2,1,.5,1.5.6.7.2,1.8.4,3,.5,2.9.3,4.6-.3,4.6-.1,0,0-3.4,1.2-7.5,1-2.2,0-5.5-.5-5.5-1.2,0-.5,1.2-1.1,2.4-1.1h0Z"/>
        <path class="st6" d="M350.5,495.3c-.2-.8.3-1.6.5-1.8.9-1.3,2.9-1.7,4.4-1.4.8.2.9.4,3,1.7,2.5,1.5,3.2,1.6,3.2,2,0,.9-4.1,1.5-7.5,1-1.3-.2-3.1-.4-3.5-1.5h0Z"/>
        <path class="st6" d="M350.5,495.3c-.3-.7.1-1.7.5-1.8.4,0,.5.9,1.3,1.2.8.4,1.1-.2,2.2,0,1.1.2,1.1.9,2.4,1.2.5.1,1.1.1,2.4,0,.9,0,1.7-.1,2.3-.2,0,0,0,0,0,.1-.2.5-.9.7-1.5.9-3.1.6-6,0-6,0-2-.4-3.1-.6-3.5-1.5h0Z"/>
      </g>
      <g>
        <path d="M387.4,469.9c.2,0,.5,0,.7.1.3,0,.4.2.7.3.3,0,.8.2,1.4.2,1.3.1,2-.1,2.1,0,0,0-1.5.5-3.4.5-1,0-2.4-.2-2.5-.5,0-.2.6-.5,1-.5h0Z"/>
        <path class="st6" d="M387.2,470.2c0-.3,0-.6.2-.8.8-.9,2.8,0,3.3.1.6.2,1.5.6,1.4.9,0,.5-1.9.6-3.4.5-1.4-.2-1.5-.6-1.5-.7h0Z"/>
        <path class="st6" d="M387.2,470.2c-.1-.3,0-.8.2-.8.1,0,.2.3.6.5.2.2.5.2.7.3.3,0,.8.2,1.4.2,0,0,.5,0,1,0,.4,0,.7,0,1,0,0,0,0,0,0,0,0,.2-.4.3-.7.4-1.4.3-2.7,0-2.7,0-.9-.2-1.4-.3-1.5-.7h0Z"/>
      </g>
      <g>
        <path d="M319,481c.4,0,.7,0,1,.2.5.1.6.3,1,.4.5.1,1.2.3,2,.4,1.9.2,3.1-.2,3.1,0,0,0-2.2.8-5,.7-1.5,0-3.7-.3-3.7-.8,0-.3.8-.7,1.6-.7h0Z"/>
        <path class="st6" d="M318.8,481.6c-.1-.4,0-.9.3-1.2,1.1-1.3,4.3,0,4.9.2.9.3,2.2.8,2.1,1.3,0,.7-2.9,1-5,.7-2-.3-2.3-.9-2.3-1h0Z"/>
        <path class="st6" d="M318.8,481.6c-.2-.5,0-1.2.3-1.2.2,0,.3.4.9.8.4.3.8.4,1,.4.5.1,1.2.3,2,.4.1,0,.8,0,1.6,0,.6,0,1.1,0,1.5-.1,0,0,0,0,0,0-.1.3-.6.5-1,.6-2.1.4-4,0-4,0-1.3-.3-2.1-.4-2.3-1h0Z"/>
      </g>
      <g>
        <path d="M368.4,482.1c.4,0,.7,0,1,.2.5.1.6.3,1,.4.5.1,1.2.3,2,.4,1.9.2,3.1-.2,3.1,0,0,0-2.2.8-5,.7-1.5,0-3.7-.3-3.7-.8,0-.3.8-.7,1.6-.7h0Z"/>
        <path class="st6" d="M368.2,482.6c-.1-.4,0-.9.3-1.2,1.1-1.3,4.3,0,4.9.2.9.3,2.2.8,2.1,1.3,0,.7-2.9,1-5,.7-2-.3-2.3-.9-2.3-1h0Z"/>
        <path class="st6" d="M368.2,482.6c-.2-.5,0-1.2.3-1.2.2,0,.3.4.9.8.4.3.8.4,1,.4.5.1,1.2.3,2,.4.1,0,.8,0,1.6,0,.6,0,1.1,0,1.5-.1,0,0,0,0,0,0-.1.3-.6.5-1,.6-2.1.4-4,0-4,0-1.3-.3-2.1-.4-2.3-1h0Z"/>
      </g>
      <path d="M371.3,471.2c-1.6,0-2.1.1-3.6,0-1.5,0-1.9-.2-3.3-.3-2.4-.2-3.6,0-6.9.2-4.2.1-7.4-.2-7.4-.1s3.3.4,7.3.3c3,0,3.6-.3,6-.2,2.2,0,2.5.3,4.6.3s1.9,0,3.9,0c1.3,0,2.1,0,2.2,0,0,0-1.2-.2-2.7-.2h0Z"/>
      <path d="M389.8,492.8c-1.2,0-1.6.1-2.7.1-1.1,0-1.4-.2-2.5-.3-1.8-.2-2.6.1-5.1.2-3.1.2-5.5-.1-5.5-.1,0,0,2.5.4,5.4.3,2.2,0,2.7-.3,4.5-.2,1.6,0,1.9.3,3.4.3,1,0,1.4-.1,2.9-.1,1,0,1.6,0,1.6,0,0,0-.9-.2-2-.3h0Z"/>
      <path d="M337.5,503.4c2.2,0,2.9.2,5.1.3,2.1,0,2.6-.2,4.6-.4,3.3-.2,4.9.3,9.6.5,5.9.3,10.2,0,10.3,0s-4.6.5-10.1.3c-4.2-.2-5-.6-8.4-.5-3,0-3.5.5-6.4.4-1.9,0-2.6-.2-5.4-.2-1.8,0-3,0-3,0,0,0,1.7-.3,3.7-.4h0Z"/>
      <g>
        <path d="M375.1,465.5c.2,0,.4,0,.6.1.3,0,.4.2.6.2.3,0,.7.2,1.1.2,1.1.1,1.7-.1,1.7,0,0,0-1.2.4-2.8.4-.8,0-2-.2-2-.5,0-.2.5-.4.9-.4h0Z"/>
        <path class="st6" d="M375,465.8c0-.2,0-.5.2-.7.6-.7,2.4,0,2.7.1.5.2,1.2.5,1.2.7,0,.4-1.6.5-2.8.4-1.1-.1-1.3-.5-1.3-.6h0Z"/>
        <path class="st6" d="M375,465.8c-.1-.3,0-.6.2-.7.1,0,.2.2.5.5.2.1.4.2.6.2.3,0,.7.2,1.1.2,0,0,.4,0,.9,0,.3,0,.6,0,.8,0,0,0,0,0,0,0,0,.2-.3.3-.6.3-1.1.2-2.2,0-2.2,0-.7-.1-1.2-.2-1.3-.6h0Z"/>
      </g>
      <rect class="st7" x=".1" y="275.2" width="400" height="243.5"/>
    </g>
  </g>
</svg>