<?xml version="1.0" encoding="UTF-8"?>
<svg id="Layer_2" xmlns="http://www.w3.org/2000/svg" xmlns:xlink="http://www.w3.org/1999/xlink" version="1.1" viewBox="0 0 403 441.9">
  <!-- Generator: Adobe Illustrator 29.0.1, SVG Export Plug-In . SVG Version: 2.1.0 Build 192)  -->
  <defs>
    <style>
      .st0 {
        isolation: isolate;
      }

      .st1 {
        fill: #fff;
      }
    </style>
  </defs>
  <g id="Capa_1">
    <g>
      <rect width="403" height="441.6"/>
      <ellipse class="st1" cx="201.9" cy="93" rx="30.3" ry="30.3" transform="translate(-6.6 170) rotate(-45)"/>
      <image class="st0" width="1508" height="1780" transform="translate(19.4 88.7) scale(.2)" xlink:href="slide-23-shape-1.png"/>
      <path class="st1" d="M300,441.7c0-1.3,3-2.7,9.3-4.2-7,1.6-12.4-.8-13-3.2-.5-2.4,3.1-6.5,9.3-8.4-4.5-.8-15.4-2.8-15.3-5.1,0-2,8.1-3.5,13-4.2-7.8-2.5-12.9-5.6-12.5-7.9.4-2.6,7.7-3.5,9.3-3.7-6.3-.2-9.4-1.9-10.7-4.2-1.8-3.1,0-6.7-1.9-7.9-1.7-1.1-4.8,1.1-7,2.3-4,2.3-10.2,4.3-20,3.2,10.4-2.4,12.8-5,13-7,.2-2.4-2.9-3.5-7-9.3-2.6-3.7-6.2-8.9-4.6-13,1.3-3.4,4.9-2.9,8.3-7.4,2.2-2.9,3-6.1,3.2-8.4,8.4-3.2,15.2-4,20-4.2,4.5-.1,9.5.2,9.8-.9.2-1.1-3.6-2.3-9.3-7.4-2.7-2.5-2.1-2.7-11.6-18.6-2.9-4.8-5.1-8.3-3.7-11.1.6-1.3,2.8-4.2,2.8-4.2l-12.1-12.1c9.7-2.2,13.9-2.9,14.7-2.8,0,0,.1,0,.1,0,.3-.4-4.9-4.2-8.8-9.8-1.6-2.2-5.4-7.5-3.7-9.8,1-1.3,3.5-1.2,5.1-.9-.2-1.5-.6-3.7-1.9-6-6-11.3-23.8-12.7-27.9-13-12.2-1-16.4,2.7-24.9-1.2-1.5-.7-9.3-3.9-9.2-8,.2-4.2,8.7-6.9,10.5-7.4,6.9-2.1,13-1,16.1-.1,2.3-1,6-3,9.3-7,5.9-7.2,5.7-15.4,5.6-17.6-.8,7.9-5.6,14.6-12.3,16.9-5.9,2.1-11.2.2-12.9-.5,2.5-1,7.7-3.6,11.1-9.2,1.5-2.5,2.6-5.5,3-10.5.5-5.3,1.9-22-9.8-36.2-2.5-3-7-7.7-14.2-11.4,3.9,3,13.6,11.4,16.1,25.1.3,1.4,3.7,21.4-6.5,26.7-6.7,3.5-15.3-1.5-16.8-2.4-4-2.4-12.3-8.9-10.4-15.7,1.4-4.9,7.4-7,8.6-7.4-5.9.7-8.8,2.9-10.2,4.6-4.4,5.2-1.2,12-6,15.8-2.7,2.1-6,1.9-7.4,1.9-7.1-.4-11.2-6.5-12.1-7.8-6.2-9.1-1.3-20.6-.9-21.5-2.7,3.5-7.1,10.1-8.8,19.5-.7,4-1.7,9.7.5,16.2,3.4,10,11.9,15,15,16.6-2-1-6.1-2.6-11.3-2.2-7.9.7-12.7,5.7-13.9,7,10.5-5.1,19.2-4.8,21.4-1.2,1.8,3.1-1.2,8.2-2.3,10,4.3.7,9,1.9,9.3,4.2.7,4.7-17.9,10.9-24.1,13-8.1,2.7-19.4,5.8-33.4,7.4,8.4,1.8,13,2.8,13,2.8-1,2.1-2.6,4.7-5.1,7-8.4,7.5-21.4,6-21.4,6.5,0,.6,21.8-1.2,23.2,3.7.9,3.2-5.9,10.9-12.5,14.9-1.2.7-3.9,2.1-3.7,3.7.1,1.4,2.4,1.7,3.7,3,3.5,3.5-.5,13.6-3.7,19.3-5.9,10.6-15.2,16.9-22.3,20.4,13-.9,22.5,2,27.9,4.2,5.8,2.4,13.3,5.5,14.4,11.6.5,3.1-.6,6.8-2.8,9.3-3.9,4.5-9.8,3.3-10.7,6.5-.5,1.7.8,3.3,3.2,6.5,4.6,5.9,10.7,9.8,10.7,9.8-2.4,1.7-4.6,2.4-6,2.8-.5.1-9.1,2.3-15.1-2.4-1.5-1.1-1.7-1.8-2.6-1.8-3.2,0-3.7,8.1-8.8,10.6-1.8.9-4.5,1.2-8.8-.5,3.4,2.2,6.8,4.3,10.2,6.5-4,1.1-8.1,2.2-12.1,3.2,7.6.3,12.6,3.9,12.5,6.5,0,2.6-5.1,5.9-12.5,6,6.2,1.4,9.3,2.8,9.3,4.2s-4.8,3.4-14.4,5.1c3.8.9,8.8,2.4,8.8,4.2,0,0,0,.1,0,.2h27.2c-1.3-2.4-2.2-5.1-2.1-8.1,0-2.2,1-9.6,19.5-20,28.6-16.1,57.1-15.6,64.1-15.3,14.1.5,32.6,1.4,49.2,13.9,5.9,4.4,17.9,13.5,15.8,23.7-.4,2.1-1.4,4-2.8,5.8h33.3c-2.9-.8-4.4-1.6-4.4-2.5h0ZM250.1,294.6c3.6-1.3,6.8-1.3,8.8-1.2,4.9,1.9,7.8,6.6,7.3,11.3-.7,6.6-8.1,9-9,9.3-1.1.3-5.7,1.8-7.7-.3-1.9-2,.3-5.1-1.2-9.6-1-2.9-2.9-4.8-4.5-6,1.4-1.1,3.5-2.4,6.3-3.4h0ZM161.1,274.5c3.9-4.5,16.6,2,18.6-1.4,1-1.8-2.1-4.4-.9-8,.6-1.8,2.1-3,3.2-3.7,2.1,1.8,5.7,4.6,10.7,7,12.1,5.7,19.4,2.6,33.9,7,11.3,3.4,18.9,8.8,18.6,9.8-.4,1.1-11.8-5-25.5-2.3-5.6,1.1-10,3.3-13,5.1-4-2.3-10.6-5.4-19-6-13.3-1.1-22.9,4.5-26.5,0-1.6-2-1.6-5.6,0-7.4h0ZM149.2,290.8c2.5.2,6,.9,9.9,2.5,2.9,1.3,5.2,2.8,6.9,4.1-2,1-4.8,2.8-7,5.9-4.2,6.2-1.8,12-5.5,14.2-3.1,1.8-7.8-.3-10.3-2.3-.2-.2-3.8-3.1-4.5-7.8-.9-6,3.2-12.8,10.6-16.6h0ZM133.5,334.6c-2.8,1.1-6.8,3-11.3,6.5,1.2-2.5,3.2-5.8,6.9-7.9,5.6-3.3,11.2-1.6,12.7-4.8,1.4-2.9-2.1-6.9-1.1-7.7.7-.5,2.4,1.2,5.8,3.2,3.2,1.9,6.7,2,9.8,2.1,3.6,0,5.9-.7,6-.4.1.5-5,2.4-10.6,4.1-9.7,2.9-12.3,2.5-18.1,4.9ZM185.5,384.1c-7.8,4.9-14.9,4.6-32,5.8-6.4.5-11.1.9-11.8-.9-.6-1.5,1.5-3.6,2.1-4.2,5.2-5.3,12.5-3.1,13.5-6,.7-1.9-2.4-3.6-5.8-9-2.4-3.7-3.7-7.2-4.4-9.8,7.9,5.7,15,9.2,20.4,11.4,11.1,4.5,21.1,6.1,21.1,9.5,0,1-.9,1.9-3,3.2h0ZM191.6,358.2c-.8-.5-3.1-2.1-6.4-2.5-2.7-.4-5.1.2-6.7.8,3.7-.7,6.7.9,7.4,2.9.4,1.3-.2,2.9-1.2,3.9-2.2,2.2-6.3,1.4-9,.8-17.5-4-26.3-6-29.1-12.5-.3-.8-3.2-7.4,0-12.5,6.4-10.2,33-7.6,34.1-12.5,0-.2.1-.8.5-2.9.4-2.3.7-4.1.8-4.4,1.1-5,2-8.5,4.3-11.6,3.6-4.7,9-6,11-6.5,10.1-2.5,23.1,1.9,25,8.8,1.2,4.5-3,7.4-1.1,11.5,1.3,2.7,4.1,3.7,10.8,5.7,17.9,5.5,18.6,5.4,21.4,6.6,8.3,3.8,16.4,10.8,15.3,13.6-.8,2-6,1.9-9.4.8-6.2-1.9-8.5-7.8-8.8-8.6.3,2.4,1.1,5.4,3.2,8.1,3,3.8,6.1,3.7,6.2,5.1.2,4.4-31.8,10-50.1,8.9-9.3-.5-14.2-.8-18.3-3.4h0ZM254.5,394.1c-12.3.7-21.7-2-23-2.3-9.5-2.8-16-4.7-17.2-9.5-.8-3.3,1.4-6.5,1.9-7.2,3.8-5.6,11.4-6.2,16.2-7,7.4-1.1,17.5-3.8,29.7-10.5-1.9,7.4-5.1,11-7.9,13-2.3,1.6-4.4,2.2-4.9,4.2-.6,2.4,1.6,4.9,5.3,9,4.5,5.1,7.2,6.6,6.7,8.1-.4,1.4-3.1,1.9-7,2.1h0Z"/>
    </g>
  </g>
</svg>