<?xml version="1.0" encoding="UTF-8"?>
<svg id="Layer_2" xmlns="http://www.w3.org/2000/svg" version="1.1" viewBox="0 0 403.6 150">
  <!-- Generator: Adobe Illustrator 29.0.1, SVG Export Plug-In . SVG Version: 2.1.0 Build 192)  -->
  <defs>
    <style>
      .st0 {
        fill: none;
        stroke: #f6f5f5;
        stroke-miterlimit: 10;
        stroke-width: .5px;
      }

      .st1 {
        fill: #fff;
      }
    </style>
  </defs>
  <g id="Capa_1">
    <g>
      <rect y="-2.2" width="403.6" height="151.7"/>
      <path class="st0" d="M405.5,76.4v33.4c-4.8.8-8.7,1.5-11.5,2-1.7.3-5.6.9-10.5.4-7.7-.8-8.4-3.5-15.4-5.1-8-1.9-21.7-2-29.7,2.3-1.2.6-4,2.3-7.2,1.9-2.8-.3-4.5-1.9-5.3-2.6-6.1-5.3-12.6-4-31.1-12.9-7.2-3.4-6.6-3.8-8.6-4-8.1-.9-20.4,4.9-26.3,7.5-.7.3-2.6,1.2-4.3.7-2.2-.5-3.1-2.7-3.4-3.3-.6-1.3-1.7-2.8-3.3-4.5-5.6-6.1-16.9-14.1-28.3-18.3-6.4-2.3-8.7-1.3-12.2-3.9-2.7-2-3.9-4.4-4.8-7.7-.5-2.1-.9-4.4-1.3-7.3-1.3-8.8-1.2-13.3,2.4-16.7,2.5-2.4,3.9-1.5,6.4-4.2.8-.8,1.4-1.8,1.9-2.7,1.3-2.5,1.6-5.2,1.7-7.6,0-.9,0-1.7,0-2.5,0-1.9-.2-2.3-.4-7.1-.1-3.6-.2-5.3-.1-5.6,2.4-6.1,19.4-2.6,28.2-10.1.9-.8,1.6-1.6,2.1-2.4h119c-8.6,3-19.7,8.3-22.3,17.6-3.3,11.9,9.4,22.2,11.2,23.7,3.8,1.4,8.5-1.3,15.8,1.8,18.5,7.8,15.4,22.8,33.5,35.1,1.1.8,2.2,1.4,3.4,2.1h0Z"/>
      <path class="st0" d="M205.2,108.7c-2.6,2.3-4,1.5-6.6,4-3.3,3.3-3.7,7.4-3.8,10.9v1.5c0,1.9.2,2.2.4,6.9.1,3.4.2,5.1.1,5.4-.2.4-.4.7-.6,1-3.1,3.5-20,1.2-28.4,8.7-.6.6-1.7,1.6-2.8,3.4-94.8,4.9-123.9,3.6-124.2.1-.3-3.1,22.4-5.7,25.4-18.2,1.8-7.6-4.4-16-11.5-22.9-3.8-1.3-8.7,1.3-16.2-1.7-19-7.6-15.8-22.1-34.5-34-1.1-.7-2.3-1.4-3.5-2v-32.3c4.9-.8,8.9-1.5,11.8-1.9,1.8-.3,5.8-.9,10.8-.4,7.9.8,8.6,3.3,15.8,5,8.2,1.9,22.3,1.9,30.5-2.2,1.2-.6,4.1-2.2,7.4-1.8,2.8.3,4.7,1.9,5.4,2.5,6.3,5.2,13,3.9,32,12.5,7.4,3.3,6.8,3.7,8.8,3.9,8.3.9,21-4.8,27.1-7.2.7-.3,2.6-1.1,4.4-.7,2.3.5,3.2,2.6,3.5,3.2.3.7.8,1.4,1.5,2.3,4.8,6,17.8,15.3,31,19.9,6.6,2.3,9,1.2,12.5,3.7,4.5,3.2,5.1,7.3,6.2,14.5.4,2.6.7,4.8.7,6.7h0c.2,4.4-.6,7.2-3.2,9.5h0Z"/>
      <path class="st1" d="M351,138.6c-19.8-1.2-22.2-5.5-49.8-11.8-24.5-5.5-44.5-7-54.5-15.8-.4-.4-7-6.2-4.9-8.8,1.2-1.5,5-1.4,5-2.4s-1.3-.6-2.7-1.8c-1.1-.8-2.7-2.6-2.1-3.8.2-.4.8-1,3.6-1.6,5.1-1.1,6.2,0,8.3-.9,4.1-1.6,2.7-5.6,6.4-6.8,2-.6,5.1.5,11.2,2.8,4.5,1.7,4.1,1.9,6.5,2.5,5.6,1.4,10.7.8,12.4.4,2.1-.4,4.2-.8,6.1-1.5,11.9-4.3,29.5-4.1,31.9-4.1,12.9,0,20.6,2.4,20.8,1.9.2-.6-15.9-5.1-31.3-5.4-3.6,0-10.7,0-17.4,1-1.6.2-3.1.4-4.7.7-3.4.6-6.7.8-9.8.6-7-.5-12.7-3-15.1-4.3-2.4-1.3-5.2-3.3-10-4.8-1.3-.4-2.8-.8-4.2-.4-1.9.6-1.5,2.5-3.1,3.8-2.2,1.7-6.5,1-8.3.7-12.1-2-25.9-15.2-21.7-21.1,1.5-2.1,4.7-2.6,4.5-3.1-.5-.8-10.4-.2-17.7,4.4-3.2,2-4,3.6-6.3,3.6-3.6,0-3.1-4.5-9.4-6.2-3.5-.9-8-2.2-13.6-3.4-1.2-.2-3.6-.8-4.1-2-.3-.8.4-1.4.9-2.3,1.1-1.8,1.5-4.2.7-5.9-.9-2.1-4-4.2-7-6.1-.4-.3-1.5-1-1.3-1.4.1-.3.9-.5,1.9-.5,4.1-.2,5.9.9,7.1.2,1-.6.3-1.9.7-2.8,1.2-2.6,12.5-3.8,32.2-.2,20.5,3.7,35.2,9.9,38.9,11.6,30,13,47.9,27.1,48.2,26.8.3-.3-17.3-18-48.9-32.5-19.9-9.1-43.5-12.5-44.2-21.9-.3-3.8,3.1-8.8,1.3-9.5-1.1-.4-2.6,1.4-6.5,3.1-6.7,2.9-10.6,1-15.3,3.3-5,2.4-2.5,5.4-7,9.2-3.6,3-8.9,4.3-16.6,4.9-.4-1-1.2-2.5-2.6-4-3.7-4-9.6-6.2-10.2-5.7-.3.3,1.1,1.3,2.1,2.9,1.5,2.3,1.9,5,1.6,7.2-6.1,1.4-15.4,3-26.6,2.1-16.3-1.2-19.1-6.4-40-9.5-14.6-2.2-26.4-1.6-32.3-1.3-10.7.5-19.7,2-19.7,2.4,0,.6,18.2-2,40.9,1.4,7.7,1.1,13.3,2.5,18,4,9,2.8,12.3,5.5,21.1,8,6.7,1.9,12.4,2.6,16,3,0,0,15.2.9,23.9,7.5,3.6,2.8,6.5,6.8,4.9,8.8-1.2,1.5-5,1.4-5,2.4s1.3.6,2.7,1.8c.2.1,2.5,2,2.1,3.8-.6,2.2-5.5,3.6-9.1,3.1-1.8-.2-1.9-.8-2.9-.6-3.2.5-2.7,5.8-6.4,6.8-1,.3-1.9.1-4.8-.7-7.8-2.2-8.6-3.1-12.9-4.6-4-1.4-8.2-1.3-12.4-.4-2.1.4-4.2.8-6.1,1.5-10.1,3.6-20.9,4.3-31.9,4.1-5.8-.1-9.6-.2-11.9-.5-5.6-.6-8.8-1.5-8.9-1.4,0,.2,15.9,5.1,31.3,5.4,3.6,0,10.7,0,17.4-1,1.6-.2,3.1-.4,4.7-.7,3.4-.6,6.7-.8,9.8-.6,7,.5,12.7,3,15.1,4.3,2.4,1.3,5.2,3.3,10,4.8,1.3.4,2.8.8,4.2.4,1.9-.6,1.5-2.5,3.1-3.8,2.2-1.7,6.5-1,8.3-.7,12.1,2,25.9,15.2,21.7,21.1-1.5,2.1-4.7,2.6-4.5,3.1.5.8,10.4.2,17.7-4.4,3.2-2,4-3.6,6.3-3.6,3.6,0,3.1,4.5,9.4,6.2,3.5.9,8,2.2,13.6,3.4,1.2.2,3.6.8,4.1,2,.3.8-.4,1.4-.9,2.3-1.1,1.8-1.5,4.2-.7,5.9.9,2.1,4,4.2,7,6.1.4.3,1.5.9,1.3,1.4-.1.3-.9.4-1.9.5-4.1.2-5.9-.9-7.1-.2-1,.6-.3,1.9-.7,2.8-1,2.1-9.2,4-32.2.2-14-2.3-25.8-4.3-40.4-10.1,0,0-17.2-6.9-45.4-27.3,0,0-1.2-1-1.3-1-.1,0,17.3,18,48.9,32.4,19.9,9.1,43.5,12.5,44.2,21.9.3,3.8-3.1,8.8-1.3,9.5,1.1.4,2.6-1.4,6.5-3.1,6.7-2.9,10.6-1,15.3-3.3,5-2.4,2.5-5.4,7-9.2,3.6-3,8.9-4.3,16.6-4.9.1.4.4.9.7,1.6,3.2,5.8,11.5,8.8,12.2,8.2.3-.3-.9-1-2.1-2.9-1.5-2.3-1.9-5-1.6-7.2,2.8,0,5.6,0,8.7-.2,5.9-.2,11.3-.8,16.2-1.4,6.3,1.2,16.2,3.1,28.5,5.8,26.8,5.8,34.1,8.5,48.3,8.8,17.2.4,31.1-3.1,31-3.6-.1-.6-13.2,1.6-29.7.6h0Z"/>
    </g>
  </g>
</svg>