<?xml version="1.0" encoding="UTF-8"?>
<svg id="Layer_2" xmlns="http://www.w3.org/2000/svg" version="1.1" viewBox="0 0 402.8 348.3">
  <!-- Generator: Adobe Illustrator 29.0.1, SVG Export Plug-In . SVG Version: 2.1.0 Build 192)  -->
  <defs>
    <style>
      .st0 {
        stroke-linecap: square;
      }

      .st0, .st1, .st2 {
        stroke: #fff;
      }

      .st0, .st1, .st2, .st3, .st4 {
        stroke-miterlimit: 10;
        stroke-width: .2px;
      }

      .st0, .st2, .st4 {
        fill: none;
      }

      .st5, .st3 {
        fill: #fff;
      }

      .st3, .st4 {
        stroke: #000;
      }
    </style>
  </defs>
  <g id="Capa_1">
    <g>
      <rect x=".1" width="402.6" height="318.4"/>
      <path class="st3" d="M402.5,257v91.3H.1v-91.3h40.2c23.1,0,26.7.5,37.6,0,19.2-.8,21-2.3,35.6-2.5,14.9-.1,21.4,1.3,35.6,2.5,12.2,1,29.6,1.7,51,.2.7,0,1.4-.1,2.2-.2h38c23.1,0,26.7.5,37.6,0,19.2-.8,21-2.3,35.6-2.5,14.9-.1,21.4,1.3,35.6,2.5,12.7,1,30.8,1.7,53.2,0h.2Z"/>
      <path d="M261.5,274.9c-1.9,0-2.4.1-4.2.1s-2.2-.2-3.9-.3c-2.8-.2-4.1.1-8.1.2-4.9.1-8.6-.2-8.6-.1,0,0,3.9.4,8.5.3,3.5,0,4.2-.3,7-.2,2.6.1,2.9.3,5.4.3s2.2-.1,4.5,0h2.5s-1.4-.2-3.1-.3h0Z"/>
      <g>
        <path d="M106.2,335.1c.7,0,1.3.2,2,.4.9.3,1.3.6,2,.8,1,.3,2.3.6,4,.7,3.8.3,6.1-.4,6.1-.2,0,0-4.4,1.5-9.9,1.3-2.9,0-7.2-.7-7.3-1.6,0-.6,1.7-1.4,3.1-1.4h0Z"/>
        <path class="st3" d="M105.8,336.1c-.3-1,.4-2,.6-2.3,1-1.4,2.6-1.7,2.9-1.7,1.4-.2,2.5.2,4.4,1,4.4,2,6.5,3,6.5,3.6-.2,1.4-5.8,1.9-9.9,1.3-1.7-.2-4.1-.5-4.6-2h0Z"/>
        <path class="st3" d="M105.8,336.1c0-.4-.2-1.2.6-2.3.3.4.9,1,1.7,1.6,1.7,1.1,3.5,1.3,6,1.5.3,0,1.5.1,3.1,0,1.2,0,2.2-.1,3-.2h0c-.3.9-1.5,1.1-2,1.2-1.4.3-11.5,1.4-12.4-1.9h0Z"/>
      </g>
      <g>
        <path d="M80.2,322.2c.6,0,1,.1,1.5.3.7.2,1,.5,1.5.6.8.2,1.8.4,3.1.5,2.9.3,4.6-.3,4.7-.1,0,0-3.4,1.1-7.6,1-2.2,0-5.5-.5-5.6-1.2,0-.5,1.3-1.1,2.4-1.1h0Z"/>
        <path class="st3" d="M79.9,323c-.2-.7.3-1.5.5-1.8.9-1.3,2.9-1.7,4.4-1.4.8.2.9.4,3,1.6,2.6,1.5,3.2,1.6,3.2,2,0,.9-4.1,1.5-7.6,1-1.3-.2-3.1-.4-3.5-1.5h0Z"/>
        <path class="st3" d="M79.9,323c-.3-.7,0-1.7.5-1.8s.5.9,1.3,1.2c.8.3,1.2-.2,2.2,0,1.1.2,1.1.9,2.4,1.2.5.1,1.1,0,2.4,0s1.7-.1,2.3-.2h0c-.2.6-.8.8-1.5,1-3.1.6-6,0-6,0-2-.4-3.1-.6-3.5-1.5h-.1Z"/>
      </g>
      <g>
        <path d="M77.8,270.1c.2,0,.4,0,.7.1.3,0,.4.2.7.3.3,0,.8.2,1.4.2,1.3.1,2.1-.1,2.1,0,0,0-1.5.5-3.4.5s-2.5-.2-2.5-.5.6-.5,1.1-.5h0Z"/>
        <path class="st3" d="M78.1,270.1c0-.3,0-.6.2-.8.8-.8,2.9,0,3.3.1.6.2,1.5.5,1.4.9,0,.5-1.9.6-3.4.5-1.4-.2-1.5-.6-1.6-.7h0Z"/>
        <path class="st3" d="M78.1,270.1c0-.3,0-.8.2-.8s.2.3.6.5c.2.2.5.2.7.3.3,0,.8.2,1.4.2h2.1c0,.2-.4.3-.7.4-1.4.3-2.7,0-2.7,0-.9-.2-1.4-.3-1.6-.7h0Z"/>
      </g>
      <g>
        <path d="M25.4,290.2c.4,0,.7,0,1,.2.5.1.6.3,1,.4.5.1,1.2.3,2,.4,1.9.2,3.1-.2,3.1,0,0,0-2.3.8-5.1.7-1.5,0-3.7-.3-3.7-.8s.8-.7,1.6-.7h0v-.2Z"/>
        <path class="st3" d="M25.2,290.7c-.1-.4,0-.9.3-1.2,1.1-1.2,4.3,0,4.9.2.9.3,2.2.8,2.1,1.3,0,.7-2.9,1-5.1.7-2-.3-2.3-.9-2.3-1h.1Z"/>
        <path class="st3" d="M25.2,290.7c-.2-.5,0-1.1.3-1.2.2,0,.3.4.9.8.4.3.8.4,1,.4.5.1,1.2.3,2,.4h1.6c.6,0,1.1,0,1.5-.1h0c0,.3-.6.5-1,.6-2.1.4-4,0-4,0-1.3-.2-2.1-.4-2.3-1h0Z"/>
      </g>
      <g>
        <path d="M132.1,310c.4,0,.7,0,1,.2.5.1.6.3,1,.4.5.1,1.2.3,2,.4,1.9.2,3.1-.2,3.1,0,0,0-2.3.8-5.1.7-1.5,0-3.7-.3-3.7-.8s.8-.7,1.6-.7h0v-.2Z"/>
        <path class="st3" d="M131.9,310.5c-.1-.4,0-.9.3-1.2,1.1-1.2,4.3,0,4.9.2.9.3,2.2.8,2.1,1.3,0,.7-2.9,1-5.1.7-2-.3-2.3-.9-2.3-1h.1Z"/>
        <path class="st3" d="M131.9,310.5c-.2-.5,0-1.1.3-1.2.2,0,.3.4.9.8.4.3.8.4,1,.4.5.1,1.2.3,2,.4h1.6c.6,0,1.1,0,1.5-.1h0c-.1.3-.6.5-1,.6-2.1.4-4,0-4,0-1.3-.2-2.1-.4-2.3-1h0Z"/>
      </g>
      <g>
        <path d="M37.1,337.1c.8,0,1.5.2,2.2.4,1,.3,1.4.7,2.2.9,1.1.3,2.6.6,4.4.8,4.1.4,6.7-.4,6.7-.2s-4.9,1.8-10.9,1.5c-3.2-.1-7.9-.8-8-1.9,0-.7,1.8-1.6,3.4-1.6h0Z"/>
        <path class="st3" d="M36.7,338.4c-.3-.9,0-2.1.7-2.7.8-.7,1.7-.4,5.3-.1,3.1.3,2.7.1,3.4.3,2.8.5,6.6,2,6.5,3.3-.2,1.5-6.2,2.2-10.9,1.5-1.9-.3-4.4-.7-5-2.3h0Z"/>
        <path class="st3" d="M36.7,338.4c-.4-1.1.2-2.6.7-2.7.5,0,.7,1,1.9,1.9.8.6,1.6.8,2.2.9,1.1.3,2.6.6,4.4.8.3,0,1.6.1,3.4,0,1.3,0,2.4-.2,3.3-.3h0c-.3.9-1.2,1.2-2.2,1.4-4.5,1-8.7,0-8.7,0-2.8-.6-4.5-1-5-2.3h0v.3Z"/>
      </g>
      <path class="st5" d="M202.5,302.9c-.7,0-1.4,0-2.2.1h0c0-.1,2.2-.1,2.2-.1Z"/>
      <path class="st4" d="M172.5,278.3c-.3,0-.4.1-.8.1s-.4-.2-.7-.2c-.5-.1-.7.2-1.4.3-.9.2-1.5,0-1.5,0,0,0,.7.3,1.5.2.6-.1.8-.4,1.2-.3.4,0,.5.3.9.3s.4-.1.8-.1.4,0,.4,0c0,0-.2-.2-.6-.2h.2Z"/>
      <g>
        <path d="M17.8,266.4c.3,0,.6,0,.9.1.4.1.5.2.9.3.4.1,1,.2,1.7.3,1.6.1,2.6-.1,2.6,0,0,0-1.9.6-4.2.6s-3.1-.3-3.1-.7.7-.6,1.3-.6h-.1Z"/>
        <path class="st3" d="M17.7,266.9c-.1-.3,0-.7.3-1,.9-1,3.6,0,4.1.1.7.3,1.8.7,1.8,1.1,0,.6-2.4.8-4.2.6-1.7-.2-1.9-.7-1.9-.8h-.1Z"/>
        <path class="st3" d="M17.7,266.9c-.2-.4,0-.9.3-1,.2,0,.3.4.7.7.3.2.6.3.9.3.4.1,1,.2,1.7.3h1.3c.5,0,.9,0,1.3-.1h0c-.1.3-.5.4-.8.5-1.7.3-3.3,0-3.3,0-1.1-.2-1.7-.3-1.9-.8h-.2Z"/>
      </g>
      <g>
        <path d="M85.2,289c.6,0,1,.1,1.5.3.7.2,1,.5,1.5.6.8.2,1.8.4,3.1.5,2.9.3,4.6-.3,4.7-.1,0,0-3.4,1.1-7.6,1-2.2,0-5.5-.5-5.6-1.2,0-.5,1.3-1.1,2.4-1.1h0Z"/>
        <path class="st3" d="M85,289.8c-.2-.7.3-1.5.5-1.8.9-1.3,2.9-1.7,4.4-1.4.8.2.9.4,3,1.6,2.6,1.5,3.2,1.6,3.2,2,0,.9-4.1,1.5-7.6,1-1.3-.2-3.1-.4-3.5-1.5h0Z"/>
        <path class="st3" d="M85,289.8c-.3-.7,0-1.7.5-1.8s.5.9,1.3,1.2c.8.3,1.2-.2,2.2,0,1.1.2,1.1.9,2.4,1.2.5.1,1.1,0,2.4,0s1.7-.1,2.3-.2h0c-.2.6-.8.8-1.5,1-3.1.6-6,0-6,0-2-.4-3.1-.6-3.5-1.5h-.1Z"/>
      </g>
      <g>
        <path d="M14.4,307.4c.6,0,1,.1,1.5.3.7.2,1,.5,1.5.6.8.2,1.8.4,3.1.5,2.9.3,4.6-.3,4.7-.1,0,0-3.4,1.1-7.6,1-2.2,0-5.5-.5-5.6-1.2,0-.5,1.3-1.1,2.4-1.1h0Z"/>
        <path class="st3" d="M14.2,308.2c-.2-.7.3-1.5.5-1.8.9-1.3,2.9-1.7,4.4-1.4.8.2.9.4,3,1.6,2.6,1.5,3.2,1.6,3.2,2,0,.9-4.1,1.5-7.6,1-1.3-.2-3.1-.4-3.5-1.5h0Z"/>
        <path class="st3" d="M14.2,308.2c-.3-.7.1-1.7.5-1.8s.5.9,1.3,1.2c.8.3,1.2-.2,2.2,0,1.1.2,1.1.9,2.4,1.2.5.1,1.1,0,2.4,0s1.7-.1,2.3-.2h0c-.2.6-.9.8-1.5,1-3.1.6-6,0-6,0-2-.4-3.1-.6-3.5-1.5h0Z"/>
      </g>
      <g>
        <path d="M122.1,264.8c.2,0,.4,0,.7.1.3,0,.4.2.7.3.3,0,.8.2,1.4.2,1.3.1,2.1-.1,2.1,0,0,0-1.5.5-3.4.5s-2.5-.2-2.5-.5.6-.5,1.1-.5h0Z"/>
        <path class="st3" d="M121.9,265.2c0-.3,0-.6.2-.8.8-.8,2.9,0,3.3.1.6.2,1.5.5,1.4.9,0,.5-1.9.6-3.4.5-1.4-.2-1.5-.6-1.6-.7h0Z"/>
        <path class="st3" d="M121.9,265.2c0-.3,0-.8.2-.8s.2.3.6.5c.2.2.5.2.7.3.3,0,.8.2,1.4.2h2.1c0,.2-.4.3-.7.4-1.4.3-2.7,0-2.7,0-.9-.2-1.4-.3-1.6-.7h0Z"/>
      </g>
      <g>
        <path d="M53.2,275.8c.4,0,.7,0,1,.2.5.1.6.3,1,.4.5.1,1.2.3,2,.4,1.9.2,3.1-.2,3.1,0,0,0-2.3.8-5.1.7-1.5,0-3.7-.3-3.7-.8s.8-.7,1.6-.7h0v-.2Z"/>
        <path class="st3" d="M53,276.4c0-.4,0-.9.3-1.2,1.1-1.2,4.3,0,4.9.2.9.3,2.2.8,2.1,1.3,0,.7-2.9,1-5.1.7-2-.3-2.3-.9-2.3-1h0Z"/>
        <path class="st3" d="M53,276.4c-.2-.5,0-1.1.3-1.2.2,0,.3.4.9.8.4.3.8.4,1,.4.5.1,1.2.3,2,.4h1.6c.6,0,1.1,0,1.5-.1h0c0,.3-.6.5-1,.6-2.1.4-4,0-4,0-1.3-.2-2.1-.4-2.3-1h0Z"/>
      </g>
      <g>
        <path d="M102.9,276.8c.4,0,.7,0,1,.2.5.1.6.3,1,.4.5.1,1.2.3,2,.4,1.9.2,3.1-.2,3.1,0,0,0-2.3.8-5.1.7-1.5,0-3.7-.3-3.7-.8s.8-.7,1.6-.7h0v-.2Z"/>
        <path class="st3" d="M102.7,277.4c0-.4,0-.9.3-1.2,1.1-1.2,4.3,0,4.9.2.9.3,2.2.8,2.1,1.3,0,.7-2.9,1-5.1.7-2-.3-2.3-.9-2.3-1h0Z"/>
        <path class="st3" d="M102.7,277.4c-.2-.5,0-1.1.3-1.2.2,0,.3.4.9.8.4.3.8.4,1,.4.5.1,1.2.3,2,.4h1.6c.6,0,1.1,0,1.5-.1h0c0,.3-.6.5-1,.6-2.1.4-4,0-4,0-1.3-.2-2.1-.4-2.3-1h0Z"/>
      </g>
      <g>
        <path d="M139.4,281.5c.4,0,.7,0,1,.2.5.1.6.3,1,.4.5.1,1.2.3,2,.4,1.9.2,3.1-.2,3.1,0,0,0-2.3.8-5.1.7-1.5,0-3.7-.3-3.7-.8s.8-.7,1.6-.7h0v-.2Z"/>
        <path class="st3" d="M139.2,282c-.1-.4,0-.9.3-1.2,1.1-1.2,4.3,0,4.9.2.9.3,2.2.8,2.1,1.3,0,.7-2.9,1-5.1.7-2-.3-2.3-.9-2.3-1h.1Z"/>
        <path class="st3" d="M139.2,282c-.2-.5,0-1.1.3-1.2.2,0,.3.4.9.8.4.3.8.4,1,.4.5.1,1.2.3,2,.4h1.6c.6,0,1.1,0,1.5-.1h0c-.1.3-.6.5-1,.6-2.1.4-4,0-4,0-1.3-.2-2.1-.4-2.3-1h0Z"/>
      </g>
      <g>
        <path d="M51.2,309.7c.7,0,1.2.2,1.9.4.9.3,1.2.6,1.9.8.9.3,2.2.6,3.8.7,3.5.3,5.7-.4,5.7-.2,0,0-4.2,1.5-9.3,1.3-2.7,0-6.8-.7-6.9-1.6,0-.6,1.6-1.4,2.9-1.4h0Z"/>
        <path class="st3" d="M50.8,310.7c-.3-.8,0-1.8.6-2.3.7-.6,1.5-.4,4.6-.1,2.6.2,2.3.1,2.9.2,2.4.4,5.7,1.8,5.5,2.8,0,1.3-5.3,1.9-9.3,1.3-1.7-.2-3.8-.6-4.3-2h0Z"/>
        <path class="st3" d="M50.8,310.7c-.3-1,0-2.2.6-2.3.4,0,.6.8,1.6,1.6.7.5,1.4.7,1.9.8.9.3,2.2.6,3.8.7.3,0,1.4.1,2.9,0,1.1,0,2.1-.1,2.8-.2h0c-.2.7-1,1.1-1.9,1.2-3.8.8-7.4,0-7.4,0-2.4-.5-3.9-.8-4.3-2h0v.2Z"/>
      </g>
      <path d="M391.3,303.6h-7.5c-3.1,0-3.9-.2-6.9-.3-4.9-.2-7.3,0-14.2,0s-15.2-.3-15.3-.2,6.8.4,15,.4,7.4-.2,12.4,0c4.5.1,5.1.4,9.5.4h8c2.7,0,4.4.1,4.5,0,.1,0-2.5-.2-5.5-.3Z"/>
      <path d="M339.7,332c-1.7,0-2.2.1-3.8.1s-2-.2-3.4-.3c-2.5-.2-3.7.1-7.2.3-4.4.2-7.6-.2-7.7-.1,0,0,3.4.4,7.5.3,3.1,0,3.7-.4,6.2-.2,2.3.1,2.6.4,4.8.4s2-.1,4-.1h2.2s-1.2-.3-2.8-.3h.2Z"/>
      <path d="M257.3,331.7h-2.8c-1.2,0-1.5-.1-2.6-.2-1.9-.1-2.8,0-5.4.1-3.3,0-5.7-.1-5.7-.1,0,0,2.6.3,5.6.2,2.3,0,2.8-.2,4.7-.1,1.7,0,1.9.2,3.6.2h4.7s-.9-.2-2.1-.2h0Z"/>
      <path d="M327.5,304.6c-.8,0-1,.1-1.8.1s-.9-.2-1.6-.3c-1.1-.2-1.7.1-3.3.3-2,.2-3.5-.1-3.6,0,0,0,1.6.4,3.5.2,1.5,0,1.7-.3,2.9-.3s1.2.3,2.2.3.9-.1,1.9-.1h1s-.6-.2-1.3-.3h0Z"/>
      <path d="M299.6,281.9c-.8,0-1,.1-1.8.1s-.9-.2-1.6-.3c-1.1-.2-1.7.1-3.3.3-2,.2-3.5-.1-3.6,0,0,0,1.6.4,3.5.2,1.5,0,1.7-.3,2.9-.3s1.2.3,2.2.3.9-.1,1.9-.1h1s-.6-.2-1.3-.3h0Z"/>
      <path d="M339.2,298c-1.6,0-2.1.1-3.7,0-1.5,0-1.9-.2-3.4-.3-2.4-.2-3.6,0-7,.2-4.3.1-7.5-.2-7.5-.1,0,0,3.4.3,7.4.3s3.6-.3,6.1-.2c2.2,0,2.5.3,4.6.3h6.1s-1.2-.2-2.7-.2h.1Z"/>
      <path d="M275.9,263.6c-1.8,0-2.4.1-4.1.1s-2.1-.2-3.7-.3c-2.7-.2-4,.1-7.8.2-4.7.1-8.3-.2-8.3-.1,0,0,3.7.4,8.2.3,3.4,0,4-.3,6.8-.2,2.5.1,2.8.3,5.2.3s2.1-.1,4.4,0h2.4s-1.4-.2-3-.3h0Z"/>
      <path d="M287.3,318.9c-1.2,0-1.6.1-2.7.1s-1.4-.2-2.5-.3c-1.8-.2-2.7.1-5.2.2-3.2.1-5.5-.1-5.5,0,0,0,2.5.4,5.5.3,2.3,0,2.7-.3,4.5-.2,1.6,0,1.9.3,3.4.3s1.4-.1,2.9-.1h1.6s-.9-.2-2-.3h0Z"/>
      <g>
        <path d="M306.7,287.8c.3,0,.6,0,.9.1.4.1.5.2.9.3.4.1,1,.2,1.7.3,1.6.1,2.6-.1,2.6,0,0,0-1.9.6-4.2.6s-3.1-.3-3.1-.7.7-.6,1.3-.6h0Z"/>
        <path class="st3" d="M306.5,288.2c-.1-.3,0-.7.3-1,.9-1,3.6,0,4.1.1.7.3,1.8.7,1.8,1.1,0,.6-2.4.8-4.2.6-1.7-.2-1.9-.7-1.9-.8h0Z"/>
        <path class="st3" d="M306.5,288.2c-.2-.4,0-.9.3-1,.2,0,.3.4.7.7.3.2.6.3.9.3.4.1,1,.2,1.7.3h1.3c.5,0,.9,0,1.3-.1h0c-.1.3-.5.4-.8.5-1.7.3-3.3,0-3.3,0-1.1-.2-1.7-.3-1.9-.8h-.2Z"/>
      </g>
      <g>
        <path d="M324,261.1c.2,0,.4,0,.6.1.3,0,.4.2.6.2.3,0,.7.2,1.1.2,1.1.1,1.7-.1,1.7,0,0,0-1.3.4-2.8.4s-2-.2-2.1-.5c0-.2.5-.4.9-.4h0Z"/>
        <path class="st3" d="M323.9,261.4c0-.2,0-.5.2-.6.6-.7,2.4,0,2.7.1.5.2,1.2.5,1.2.7,0,.4-1.6.5-2.8.4-1.1-.1-1.3-.5-1.3-.5h0Z"/>
        <path class="st3" d="M323.9,261.4c-.1-.3,0-.6.2-.6s.2.2.5.5c.2.1.4.2.6.2.3,0,.7.2,1.1.2h1.8c0,.2-.3.3-.6.3-1.2.2-2.2,0-2.2,0-.7-.1-1.2-.2-1.3-.5h-.1Z"/>
      </g>
      <g>
        <path d="M242.6,258.9h.4c.2,0,.3.1.4.2.2,0,.5.1.9.2h1.3s-1,.4-2.1.3c-.6,0-1.6-.2-1.6-.4s.4-.3.7-.3h0Z"/>
        <path class="st3" d="M242.5,259.2c0-.2,0-.4.1-.6.5-.6,1.8,0,2.1,0,.4.2.9.4.9.6,0,.3-1.2.5-2.1.3-.9-.1-1-.4-1-.5h0v.2Z"/>
        <path class="st3" d="M242.5,259.2c0-.2,0-.5.1-.6,0,0,.1.2.4.4.1.1.3.2.4.2.2,0,.5.1.9.2h1.3c0,.2-.2.3-.4.3-.9.2-1.7,0-1.7,0-.6-.1-.9-.2-1-.5Z"/>
      </g>
      <g>
        <path d="M228.8,264.3h.4c.2,0,.3.1.4.2.2,0,.5.1.9.2h1.3s-1,.4-2.1.3c-.6,0-1.6-.2-1.6-.4s.4-.3.7-.3h0Z"/>
        <path class="st3" d="M228.7,264.5c0-.2,0-.4.1-.6.5-.6,1.8,0,2.1,0,.4.2.9.4.9.6,0,.3-1.2.5-2.1.3-.9-.1-1-.4-1-.5h0v.2Z"/>
        <path class="st3" d="M228.7,264.5c0-.2,0-.5.1-.6,0,0,.1.2.4.4.1.1.3.2.4.2.2,0,.5.1.9.2h1.3c0,.2-.2.3-.4.3-.9.2-1.7,0-1.7,0-.6-.1-.9-.2-1-.5Z"/>
      </g>
      <g>
        <path d="M376.6,265.1h.4c.2,0,.3.1.4.2.2,0,.5.1.8.2h1.3s-.9.4-2.1.3c-.6,0-1.5-.2-1.5-.4s.4-.3.6-.3h.1Z"/>
        <path class="st3" d="M376.5,265.4c0-.2,0-.4.1-.5.5-.6,1.8,0,2,0,.4.2.9.4.9.6,0,.3-1.2.5-2.1.3-.8-.1-.9-.4-1-.5h.1Z"/>
        <path class="st3" d="M376.5,265.4c0-.2,0-.5.1-.5,0,0,.1.2.4.4.1.1.3.2.4.2.2,0,.5.1.8.2h1.3c0,.2-.2.3-.4.3-.9.2-1.7,0-1.7,0-.5-.1-.9-.2-1-.5h.1Z"/>
      </g>
      <g>
        <path d="M150.9,263.3h.4c.2,0,.3.1.4.2.2,0,.5.1.9.2h1.3s-1,.4-2.1.3c-.6,0-1.6-.2-1.6-.4s.4-.3.7-.3h0Z"/>
        <path class="st3" d="M150.8,263.5c0-.2,0-.4.1-.6.5-.6,1.8,0,2.1,0,.4.2.9.4.9.6,0,.3-1.2.5-2.1.3-.9-.1-1-.4-1-.5h0v.2Z"/>
        <path class="st3" d="M150.8,263.5c0-.2,0-.5.1-.6,0,0,.1.2.4.4.1.1.3.2.4.2.2,0,.5.1.9.2h1.3c0,.2-.2.3-.4.3-.9.2-1.7,0-1.7,0-.6-.1-.9-.2-1-.5Z"/>
      </g>
      <g>
        <path d="M368.8,331.5c.7,0,1.3.2,2,.4.9.3,1.2.6,2,.8,1,.2,2.3.5,3.9.7,3.7.3,5.9-.4,6-.2,0,0-4.4,1.5-9.7,1.3-2.8,0-7.1-.6-7.1-1.6s1.6-1.4,3-1.4h0Z"/>
        <path class="st3" d="M368.5,332.5c-.3-.9.4-2,.6-2.2,1-1.4,2.5-1.6,2.9-1.7,1.4-.2,2.5.2,4.4,1,4.3,1.9,6.4,2.9,6.3,3.5-.2,1.4-5.7,1.8-9.7,1.3-1.6-.2-4-.5-4.5-1.9h0Z"/>
        <path class="st3" d="M368.5,332.5c-.1-.4-.1-1.1.6-2.2.3.4.9,1,1.7,1.6,1.7,1.1,3.5,1.3,5.9,1.5.3,0,1.5.1,3,0,1.1,0,2.1-.1,2.9-.2h0c-.3.9-1.5,1.1-2,1.2-1.4.3-11.3,1.4-12.2-1.8h.1Z"/>
      </g>
      <g>
        <path d="M311.4,319c.5,0,1,.1,1.5.3.7.2,1,.5,1.5.6.8.2,1.8.4,3.1.5,2.9.3,4.6-.3,4.7-.1,0,0-3.4,1.1-7.6,1-2.2,0-5.5-.5-5.6-1.2,0-.5,1.3-1.1,2.4-1.1h0Z"/>
        <path class="st3" d="M311.1,319.8c-.2-.7.3-1.5.5-1.8.9-1.3,2.9-1.7,4.4-1.4.8.2.9.4,3,1.6,2.6,1.5,3.2,1.6,3.2,2,0,.9-4.1,1.5-7.6,1-1.3-.2-3.1-.4-3.5-1.5h0Z"/>
        <path class="st3" d="M311.1,319.8c-.3-.7.1-1.7.5-1.8s.5.9,1.3,1.2c.8.3,1.2-.2,2.2,0,1.1.2,1.1.9,2.4,1.2.5.1,1.1,0,2.4,0s1.7-.1,2.3-.2h0c-.2.6-.9.8-1.5,1-3.1.6-6,0-6,0-2-.4-3.1-.6-3.5-1.5h0Z"/>
      </g>
      <g>
        <path d="M331.5,275.6c.4,0,.7,0,1,.2.5.1.6.3,1,.4.5.1,1.2.3,2,.4,1.9.2,3.1-.2,3.1,0,0,0-2.3.8-5.1.7-1.5,0-3.7-.3-3.7-.8s.8-.7,1.6-.7h0v-.2Z"/>
        <path class="st3" d="M331.3,276.1c-.1-.4,0-.9.3-1.2,1.1-1.2,4.3,0,4.9.2.9.3,2.2.8,2.1,1.3,0,.7-2.9,1-5.1.7-2-.3-2.3-.9-2.3-1h.1Z"/>
        <path class="st3" d="M331.3,276.1c-.2-.5,0-1.1.3-1.2.2,0,.3.4.9.8.4.3.8.4,1,.4.5.1,1.2.3,2,.4h1.6c.6,0,1.1,0,1.5-.1h0c-.1.3-.6.5-1,.6-2.1.4-4,0-4,0-1.3-.2-2.1-.4-2.3-1h0Z"/>
      </g>
      <g>
        <path d="M350.7,297.5c.4,0,.7,0,1,.2.5.1.6.3,1,.4.5.1,1.2.3,2,.4,1.9.2,3.1-.2,3.1,0,0,0-2.3.8-5.1.7-1.5,0-3.7-.3-3.7-.8s.8-.7,1.6-.7h0v-.2Z"/>
        <path class="st3" d="M350.5,298c-.1-.4,0-.9.3-1.2,1.1-1.2,4.3,0,4.9.2.9.3,2.2.8,2.1,1.3,0,.7-2.9,1-5.1.7-2-.3-2.3-.9-2.3-1h.1Z"/>
        <path class="st3" d="M350.5,298c-.2-.5,0-1.1.3-1.2.2,0,.3.4.9.8.4.3.8.4,1,.4.5.1,1.2.3,2,.4h1.6c.6,0,1.1,0,1.5-.1h0c-.1.3-.6.5-1,.6-2.1.4-4,0-4,0-1.3-.2-2.1-.4-2.3-1h0Z"/>
      </g>
      <g>
        <path d="M267.8,333.7c.7,0,1.2.2,1.9.4.9.3,1.2.6,1.9.8.9.3,2.2.6,3.8.7,3.5.3,5.7-.4,5.7-.2,0,0-4.2,1.5-9.4,1.3-2.7,0-6.8-.7-6.9-1.6,0-.6,1.6-1.4,2.9-1.4h.1Z"/>
        <path class="st3" d="M267.5,334.8c-.3-.8,0-1.8.6-2.3.7-.6,1.5-.4,4.6-.1,2.6.2,2.3.1,2.9.2,2.4.4,5.6,1.8,5.5,2.8-.1,1.3-5.3,1.9-9.4,1.3-1.6-.2-3.8-.6-4.3-2h0Z"/>
        <path class="st3" d="M267.5,334.8c-.4-1,.1-2.2.6-2.3.4,0,.6.8,1.6,1.6.7.5,1.4.7,1.9.8.9.3,2.2.6,3.8.7.3,0,1.4.1,2.9,0,1.1,0,2.1-.1,2.8-.2h0c-.2.7-1,1.1-1.9,1.2-3.8.8-7.4,0-7.4,0-2.4-.5-3.9-.8-4.3-2h0v.2Z"/>
      </g>
      <path d="M255.5,293.2c2.2,0,2.9.2,5.1.2s2.6-.2,4.6-.4c3.4-.2,5,.3,9.7.5,5.9.3,10.3,0,10.4,0,0,0-4.6.5-10.2.3-4.2-.2-5-.6-8.4-.5-3.1,0-3.5.4-6.4.4s-2.6-.2-5.4-.2h-3s1.7-.3,3.8-.4h-.2Z"/>
      <path d="M158,271.7h-7.5c-3.1,0-3.9-.2-6.9-.3-4.9-.2-7.3,0-14.2,0s-15.2-.3-15.3-.2,6.8.4,15,.4,7.4-.2,12.4,0c4.5.1,5.1.4,9.5.4h8c2.7,0,4.4.1,4.5,0,.1,0-2.5-.2-5.6-.3h.1Z"/>
      <path d="M100.6,294.5c-1.7,0-2.2.1-3.8.1s-1.9-.2-3.4-.3c-2.5-.2-3.7.1-7.2.3-4.4.2-7.7-.2-7.7-.1s3.4.4,7.5.3c3.1,0,3.7-.4,6.2-.2,2.3.1,2.6.4,4.8.4s1.9-.1,4-.1h2.2s-1.2-.3-2.8-.3h.2Z"/>
      <path d="M105.8,266.1c-1.6,0-2.1.1-3.7,0-1.5,0-1.9-.2-3.3-.3-2.4-.2-3.6,0-7,.2-4.3.1-7.5-.2-7.5-.1,0,0,3.3.3,7.3.3s3.6-.3,6.1-.2c2.2,0,2.5.3,4.7.3h6.1s-1.2-.2-2.7-.2h0Z"/>
      <path d="M29.5,261.1c-1.6,0-2.1.1-3.7,0-1.5,0-1.9-.2-3.4-.3-2.4-.2-3.6,0-7,.2-4.3.1-7.5-.2-7.5-.1,0,0,3.4.3,7.4.3s3.6-.3,6.1-.2c2.2,0,2.5.3,4.6.3h6.1s-1.2-.2-2.7-.2h.1Z"/>
      <path d="M54,287c-1.2,0-1.6.1-2.7.1s-1.4-.2-2.5-.3c-1.8-.2-2.7.1-5.2.2-3.2.1-5.5-.1-5.5,0,0,0,2.5.4,5.5.3,2.3,0,2.7-.3,4.5-.2,1.6,0,1.9.3,3.4.3s1.4-.1,2.9-.1h1.6s-.9-.2-2-.3h0Z"/>
      <path d="M18.4,185.8c-1.2,0-1.6.1-2.7.1s-1.4-.2-2.5-.3c-1.8-.2-2.7.1-5.2.2-3.2.1-5.5-.1-5.6,0,0,0,2.5.4,5.4.3,2.3,0,2.7-.3,4.5-.2,1.6,0,1.9.3,3.4.3s1.4-.1,2.9-.1h1.6s-.9-.2-2-.3h.2Z"/>
      <path d="M138.8,287.3c-1.2,0-1.6.1-2.7.1s-1.4-.2-2.5-.3c-1.8-.2-2.7.1-5.2.2-3.2.1-5.5-.1-5.6,0,0,0,2.5.4,5.4.3,2.3,0,2.7-.3,4.5-.2,1.6,0,1.9.3,3.4.3s1.4-.1,2.9-.1h1.6s-.9-.2-2-.3h.2Z"/>
      <path d="M40.7,321.1c-1.2,0-1.6.1-2.7.1s-1.4-.2-2.5-.3c-1.8-.2-2.7.1-5.2.2-3.2.1-5.5-.1-5.6,0,0,0,2.5.4,5.5.3,2.3,0,2.7-.3,4.5-.2,1.6,0,1.9.3,3.4.3s1.4-.1,2.9-.1h1.6s-.9-.2-2-.3h.1Z"/>
      <path d="M66.8,330.9c2.2,0,2.9.2,5.1.2s2.6-.2,4.6-.4c3.3-.2,5,.3,9.7.5,5.9.3,10.3,0,10.3,0,0,0-4.6.5-10.2.3-4.2-.2-5-.6-8.4-.5-3.1,0-3.5.4-6.4.4s-2.6-.2-5.4-.2h-3s1.7-.3,3.8-.4h0Z"/>
      <path d="M121.9,320.9c2.2,0,2.9.2,5.1.2s2.6-.2,4.6-.4c3.4-.2,5,.3,9.7.5,5.9.3,10.3,0,10.4,0,0,0-4.6.5-10.2.3-4.2-.2-5-.6-8.4-.5-3.1,0-3.5.4-6.4.4s-2.6-.2-5.4-.2h-3s1.7-.3,3.8-.4h-.2Z"/>
      <path d="M394.1,274c-1.5,0-2,.1-3.4.1s-1.8-.2-3.1-.3c-2.2-.2-3.3.1-6.5.2-4,.1-6.9-.2-6.9-.1,0,0,3.1.4,6.8.3,2.8,0,3.4-.3,5.6-.2,2,0,2.3.3,4.3.3s1.8-.1,3.6,0h2s-1.1-.2-2.5-.3h.1Z"/>
      <path d="M360.7,269.6c-1.4,0-1.8.1-3.1.1s-1.6-.2-2.8-.3c-2-.2-3,.1-5.9.2s-6.3-.1-6.3-.1c0,0,2.8.4,6.2.3,2.6,0,3.1-.3,5.1-.2,1.9,0,2.1.3,3.9.3s1.6-.1,3.3,0h1.9s-1-.2-2.3-.3h0Z"/>
      <g>
        <path d="M301.1,300.6c.5,0,1,.1,1.5.3.7.2,1,.5,1.5.6.8.2,1.8.4,3.1.5,2.9.3,4.6-.3,4.7-.1,0,0-3.4,1.1-7.6,1-2.2,0-5.5-.5-5.6-1.2,0-.5,1.3-1.1,2.4-1.1h0Z"/>
        <path class="st3" d="M300.9,301.4c-.2-.7.3-1.5.5-1.8.9-1.3,2.9-1.7,4.4-1.4.8.2.9.4,3,1.6,2.6,1.5,3.2,1.6,3.2,2,0,.9-4.1,1.5-7.6,1-1.3-.2-3.1-.4-3.5-1.5h0Z"/>
        <path class="st3" d="M300.9,301.4c-.3-.7.1-1.7.5-1.8s.5.9,1.3,1.2c.8.3,1.2-.2,2.2,0,1.1.2,1.1.9,2.4,1.2.5.1,1.1,0,2.4,0s1.7-.1,2.3-.2h0c-.2.6-.9.8-1.5,1-3.1.6-6,0-6,0-2-.4-3.1-.6-3.5-1.5h0Z"/>
      </g>
      <g>
        <path d="M284,268c.4,0,.7,0,1,.2.5.1.6.3,1,.4.5.1,1.2.3,2,.4,1.9.2,3.1-.2,3.1,0,0,0-2.3.8-5.1.7-1.5,0-3.7-.3-3.7-.8s.8-.7,1.6-.7h0v-.2Z"/>
        <path class="st3" d="M283.9,268.6c-.1-.4,0-.9.3-1.2,1.1-1.2,4.3,0,4.9.2.9.3,2.2.8,2.1,1.3,0,.7-2.9,1-5.1.7-2-.3-2.3-.9-2.3-1h.1Z"/>
        <path class="st3" d="M283.9,268.6c-.2-.5,0-1.1.3-1.2.2,0,.3.4.9.8.4.3.8.4,1,.4.5.1,1.2.3,2,.4h1.6c.6,0,1.1,0,1.5-.1h0c-.1.3-.6.5-1,.6-2.1.4-4,0-4,0-1.3-.2-2.1-.4-2.3-1h0Z"/>
      </g>
      <g>
        <path d="M109.7,260.5c.2,0,.4,0,.6.1.3,0,.4.2.6.2.3,0,.7.2,1.1.2,1.1.1,1.7-.1,1.7,0,0,0-1.3.4-2.8.4s-2.1-.2-2.1-.5.5-.4.9-.4h0Z"/>
        <path class="st3" d="M109.6,260.8c0-.2,0-.5.2-.6.6-.7,2.4,0,2.7.1.5.2,1.2.5,1.2.7,0,.4-1.6.5-2.8.4-1.1-.1-1.3-.5-1.3-.5h0Z"/>
        <path class="st3" d="M109.6,260.8c0-.3,0-.6.2-.6s.2.2.5.5.4.2.6.2c.3,0,.7.2,1.1.2h1.7c0,.2-.3.3-.6.3-1.2.2-2.2,0-2.2,0-.7-.1-1.2-.2-1.3-.5h0Z"/>
      </g>
      <g>
        <path d="M62.8,261.3h.6c.3,0,.4.1.6.2.3,0,.7.1,1.2.2h1.8s-1.3.4-2.9.3c-.8,0-2.1-.2-2.1-.4s.5-.3.9-.4h-.1Z"/>
        <path class="st3" d="M62.7,261.5c0-.2,0-.4.2-.6.6-.6,2.4,0,2.8,0,.5.2,1.2.4,1.2.6,0,.3-1.7.5-2.9.3-1.2-.1-1.3-.4-1.3-.5h0v.2Z"/>
        <path class="st3" d="M62.7,261.5c0-.2,0-.5.2-.6,0,0,.2.2.5.4.2.1.4.2.6.2.3,0,.7.1,1.2.2h1.8c0,.2-.3.2-.6.3-1.2.2-2.3,0-2.3,0-.7-.1-1.2-.2-1.3-.5h0Z"/>
      </g>
      <g>
        <path d="M370.5,278.3c.4,0,.7,0,1,.2.5.1.6.3,1,.4.5.1,1.2.3,2,.4,1.9.2,3.1-.2,3.1,0,0,0-2.3.8-5.1.7-1.5,0-3.7-.3-3.7-.8s.8-.7,1.6-.7h0v-.2Z"/>
        <path class="st3" d="M370.3,278.8c-.1-.4,0-.9.3-1.2,1.1-1.2,4.3,0,4.9.2.9.3,2.2.8,2.1,1.3,0,.7-2.9,1-5.1.7-2-.3-2.3-.9-2.3-1h.1Z"/>
        <path class="st3" d="M370.3,278.8c-.2-.5,0-1.1.3-1.2.2,0,.3.4.9.8.4.3.8.4,1,.4.5.1,1.2.3,2,.4h1.6c.6,0,1.1,0,1.5-.1h0c-.1.3-.6.5-1,.6-2.1.4-4,0-4,0-1.3-.2-2.1-.4-2.3-1h0Z"/>
      </g>
      <g>
        <path d="M237.3,313.5c.6,0,1,.1,1.6.2.7.2,1,.4,1.6.6.8.2,1.8.4,3.1.5,2.9.2,4.7-.2,4.8-.1,0,0-3.5,1-7.7.9-2.2,0-5.6-.5-5.7-1.1,0-.4,1.3-1,2.4-1h-.1Z"/>
        <path class="st3" d="M237,314.2c-.2-.5,0-1.2.5-1.6s1.2-.3,3.8,0c2.2.2,1.9,0,2.4.2,2,.3,4.7,1.2,4.6,2-.1.9-4.4,1.3-7.7.9-1.4-.2-3.1-.4-3.5-1.4h-.1Z"/>
        <path class="st3" d="M237,314.2c-.3-.7.1-1.5.5-1.6.3,0,.5.6,1.4,1.1.6.4,1.1.5,1.6.6.8.2,1.8.4,3.1.5h2.4c.9,0,1.7-.1,2.3-.2h0c-.2.5-.9.7-1.6.8-3.2.6-6.1,0-6.1,0-2-.4-3.2-.6-3.5-1.4h0v.2Z"/>
      </g>
      <g>
        <path d="M342.3,319.8c.7,0,1.2.2,1.9.4.9.3,1.2.6,1.9.8.9.3,2.2.6,3.8.7,3.5.3,5.7-.4,5.7-.2,0,0-4.2,1.5-9.4,1.3-2.7,0-6.8-.7-6.9-1.6,0-.6,1.6-1.4,2.9-1.4h.1Z"/>
        <path class="st3" d="M342,320.9c-.3-.8,0-1.8.6-2.3.7-.6,1.5-.4,4.6-.1,2.6.2,2.3.1,2.9.2,2.4.4,5.6,1.8,5.5,2.8-.1,1.3-5.3,1.9-9.4,1.3-1.6-.2-3.8-.6-4.3-2h0Z"/>
        <path class="st3" d="M342,320.9c-.4-1,.1-2.2.6-2.3.4,0,.6.8,1.6,1.6.7.5,1.4.7,1.9.8.9.3,2.2.6,3.8.7.3,0,1.4.1,2.9,0,1.1,0,2.1-.1,2.8-.2h0c-.2.7-1,1.1-1.9,1.2-3.8.8-7.4,0-7.4,0-2.4-.5-3.9-.8-4.3-2h0v.2Z"/>
      </g>
      <path d="M162.7,348.2c1-2.1,1.9-4.1,2.9-6.2,4.6-2.7,9.2-5.4,13.8-8-3.8-2.1-7.7-4.1-11.5-6.2-1.4-3-2.8-6.1-4.2-9.1,3.1-2.1,6.3-4.1,9.4-6.2,5.2-1.5,10.5-3.1,15.7-4.7-4.3-1.1-8.6-2.1-12.8-3.2l-1.5-4.5c1.7-1.8,3.4-3.5,5.1-5.3,1.1-.6,2.2-1.3,3.3-2,2.1-.2,4.3-.5,6.4-.7-3.9-1.1-7.8-2.1-11.7-3.2,1.7-1.6,3.4-3.2,5.1-4.8,2.6-1,5.2-2,7.9-3-1.7-.8-3.4-1.5-5.1-2.3-.8-2.5-1.5-5.1-2.3-7.6,3.8-1.5,7.5-2.9,11.2-4.4-2.9-1.2-5.9-2.5-8.8-3.7-3.2-1.9-6.3-3.8-9.5-5.7,11.5-.3,23-.7,34.5-1,2,1.7,4,3.4,6,5-5.1,3.5-10.2,6.9-15.2,10.4,3.2,3.2,6.4,6.4,9.5,9.6-1.7.6-3.4,1.2-5.1,1.8,3.8,1,7.6,1.9,11.4,2.9,3.1,2.1,6.1,4.3,9.2,6.4-.9,1.9-1.7,3.8-2.6,5.7-4,1.2-7.9,2.4-11.9,3.6,4.2.8,8.4,1.7,12.7,2.5,1.3.9,2.5,1.7,3.8,2.6-1.3,1.2-2.6,2.4-3.9,3.6-3.2,1.2-6.4,2.5-9.6,3.7,7.4,2.1,14.8,4.2,22.1,6.2,2.9,1.6,5.9,3.2,8.9,4.8-7.5,3.4-15,6.9-22.5,10.3,7.6,2.4,15.2,4.8,22.8,7.2,4,1.8,7.9,3.6,11.9,5.5h-95.4Z"/>
      <path class="st2" d="M176.2,349.8c.9-5.3,1.9-10.6,2.8-15.9"/>
      <path class="st2" d="M176.6,333.1c3.8-8.5,7.6-17,11.4-25.5"/>
      <path class="st2" d="M178.8,307.9c.3-4.5.6-8.9.9-13.4"/>
      <path class="st2" d="M173,333.1v-21.1"/>
      <path class="st2" d="M236.7,337.1c0-5.4.1-10.9.2-16.3"/>
      <path class="st2" d="M223.7,314.5c.2-3.5.3-7.1.5-10.6"/>
      <path class="st2" d="M184.5,306.7c1.4-4.9,2.8-9.7,4.2-14.6"/>
      <path class="st2" d="M189.9,281.4c1.4-4.9,2.8-9.7,4.2-14.6"/>
      <path class="st2" d="M182.8,292.8c.1-3.2.2-6.4.4-9.6"/>
      <path class="st2" d="M184.1,291.2c1.9-3.2,3.9-6.4,5.9-9.6"/>
      <path class="st0" d="M214,301c-2.6-5.9-5.3-11.8-7.9-17.7"/>
      <path class="st0" d="M220.3,275.4c-2.7-6-5.4-11.9-8.1-17.9"/>
      <path class="st2" d="M216.7,301.2c.1-5.2.2-10.3.4-15.5"/>
      <path class="st2" d="M217.4,313.5c-1.8-4-3.6-7.9-5.3-11.9"/>
      <path class="st2" d="M228.1,334c-4.3-6.5-8.7-13.1-13-19.6"/>
      <path class="st2" d="M226.6,348.2c-1-4.2-1.9-8.4-2.9-12.6"/>
      <path d="M255.2,302c-.1-.9-5.5-.1-27.3.1-2.8,0-6.5,0-6.5.3s4.4.6,12.9,1.7c6.2.9,6.7,1.1,8.9,1.1,6.3-.1,12.2-2.4,12-3.3h0Z"/>
      <path d="M160.8,303c0,.5-6.2-.4-16.1.9-3.6.5-4.8.8-7.5.8-6-.1-11.8-2-11.7-3,.2-1.6,16.6-1,17.6-.9,9.4.4,17.7,1.7,17.7,2.2h0Z"/>
      <ellipse class="st3" cx="198.6" cy="219.4" rx="14.7" ry="14.2"/>
      <path class="st1" d="M227.9,302.1c-2.5-7.7-6.4-11.9-9.4-14.3-15-11.8-44.6-6.9-72.2,13.9h-20.8c2.5-1.3,6.2-3.3,10.5-5.8,10.1-6,22.9-13.6,34.9-26.2,4-4.2,9.4-10.6,14.7-19.2.3,6-.6,13.1-4.9,19.2-1.7,2.4-3.3,3.8-2.8,4.8,1.4,2.7,17.7-4.1,28.4-6.3,13.2-2.7,33-1.3,61.1,17.5-2.2-1.2-21.3-11.5-25.7-6.7-.6.6-1,1.6-.9,3.1,4.8,6.6,9.6,13.2,14.5,19.8-8.9,0-17.8,0-26.7.1h-.7Z"/>
    </g>
  </g>
</svg>