<?xml version="1.0" encoding="UTF-8"?>
<svg id="Layer_2" xmlns="http://www.w3.org/2000/svg" version="1.1" viewBox="0 0 403.8 124.3">
  <!-- Generator: Adobe Illustrator 29.0.1, SVG Export Plug-In . SVG Version: 2.1.0 Build 192)  -->
  <defs>
    <style>
      .st0 {
        stroke: #fafbfa;
      }

      .st0, .st1, .st2, .st3 {
        stroke-miterlimit: 10;
      }

      .st0, .st1, .st3 {
        stroke-width: .2px;
      }

      .st1, .st2 {
        fill: #fff;
      }

      .st1, .st2, .st3 {
        stroke: #000;
      }

      .st2 {
        stroke-width: .5px;
      }

      .st3 {
        fill: none;
      }
    </style>
  </defs>
  <g id="Capa_1">
    <g>
      <path class="st1" d="M403.5.2v124.2H.2V.2h403.3Z"/>
      <path class="st0" d="M403.5.2v106c-9.5-4.2-22.3-6-47.2-18.3-13-6.4-11.9-7.1-15.5-7.5-14.5-1.7-36.7,9.2-47.4,13.9-1.3.6-4.6,2.1-7.8,1.4-4-1-5.6-4.9-6.1-6.2-1-2.3-3.1-5.2-5.9-8.3,0,0,0,0-.1-.1-10.2-11.3-30.4-26.3-50.9-34-11.5-4.3-15.7-2.4-21.9-7.2-4.8-3.7-7.1-8.2-8.6-14.3-.9-3.8-1.5-8.2-2.3-13.5-.6-4.5-1.1-8.4-1.2-11.9h214.9Z"/>
      <path class="st0" d="M403.5.2v95.2c-9-3.8-21.3-5.4-45-16.4-12.4-5.8-11.4-6.4-14.8-6.8-13.9-1.5-35,8.2-45.2,12.5-1.2.5-4.4,1.9-7.4,1.2-3.8-.9-5.3-4.4-5.8-5.5-1-2.1-2.9-4.6-5.6-7.4,0,0,0,0-.1,0-9.7-10.1-28.9-23.6-48.6-30.6-11-3.9-15-2.1-20.9-6.4-4.6-3.3-6.8-7.4-8.2-12.9-.9-3.4-1.5-7.4-2.2-12.1-.6-4.1-1-7.6-1.2-10.6h204.9,0Z"/>
      <path class="st0" d="M403.5.2v76.9c-8.6-3.1-20.2-4.3-42.8-13.2-11.8-4.7-10.8-5.2-14-5.5-13.2-1.2-33.3,6.6-43,10.1-1.2.4-4.2,1.6-7.1,1-3.6-.7-5.1-3.6-5.5-4.5-1-1.7-2.8-3.7-5.4-6,0,0,0,0,0,0-9.2-8.2-27.5-19.1-46.2-24.7-10.4-3.1-14.2-1.7-19.9-5.2-4.4-2.7-6.4-6-7.8-10.4-.8-2.8-1.4-6-2.1-9.8-.6-3.3-1-6.1-1.1-8.6h194.8Z"/>
      <path class="st0" d="M403.5.2v62.1c-7.5-2.5-17.8-3.5-37.6-10.7-10.4-3.8-9.5-4.2-12.3-4.4-11.6-1-29.2,5.4-37.7,8.1-1,.3-3.7,1.3-6.2.8-3.2-.6-4.4-2.9-4.8-3.6-.8-1.3-2.5-3-4.7-4.9,0,0,0,0,0,0-8.1-6.6-24.2-15.4-40.5-19.9-9.2-2.5-12.5-1.4-17.4-4.2-3.9-2.2-5.7-4.8-6.9-8.4-.7-2.2-1.2-4.8-1.8-7.9-.5-2.7-.9-4.9-1-6.9h171.1,0Z"/>
      <path class="st0" d="M403.5.2v47.6c-6.9-1.9-16.3-2.7-34.5-8.2-9.5-2.9-8.7-3.2-11.3-3.4-10.6-.8-26.9,4.1-34.7,6.2-.9.2-3.4,1-5.7.6-2.9-.4-4.1-2.2-4.4-2.8-.8-1-2.3-2.3-4.3-3.7,0,0,0,0,0,0-7.5-5.1-22.2-11.8-37.3-15.3-8.4-2-11.5-1.1-16-3.2-3.5-1.7-5.2-3.7-6.3-6.4-.7-1.7-1.1-3.7-1.7-6.1-.5-2-.8-3.8-.9-5.3h157.3,0Z"/>
      <path class="st0" d="M403.5.2v34.2c-6.4-1.4-15-1.9-31.6-5.9-8.7-2.1-8-2.3-10.4-2.4-9.7-.5-24.6,3-31.8,4.5-.9.2-3.1.7-5.2.4-2.7-.3-3.7-1.6-4.1-2-.7-.7-2.1-1.7-4-2.7,0,0,0,0,0,0-6.8-3.6-20.4-8.5-34.1-11-7.7-1.4-10.5-.8-14.7-2.3-3.2-1.2-4.8-2.6-5.8-4.6-.6-1.2-1-2.7-1.5-4.4-.4-1.5-.7-2.7-.8-3.8h144Z"/>
      <path class="st0" d="M403.5.2v23c-5.5-.9-13-1.3-27.5-4-7.6-1.4-6.9-1.5-9-1.6-8.5-.4-21.4,2-27.6,3-.7.1-2.7.5-4.5.3-2.3-.2-3.2-1.1-3.5-1.3-.6-.5-1.8-1.1-3.4-1.8,0,0,0,0,0,0-5.9-2.4-17.7-5.7-29.6-7.4-6.7-.9-9.1-.5-12.7-1.6-2.8-.8-4.1-1.8-5-3.1-.5-.8-.9-1.8-1.3-2.9-.4-1-.6-1.8-.7-2.6h125.1Z"/>
      <path class="st0" d="M403.5.2v15.8c-3.9-.6-9.2-.9-19.5-2.7-1.6-.3-2.7-.5-3.5-.6-1.2-.2-2-.4-2.1-.4-6.4-1.2-16.3.2-16.3.2-4.4.6-8,1.6-12.3-.2t0,0c-4.2-1.7-12.5-3.9-21-5.1-4.8-.6-6.5-.3-9-1.1-1.1-.3-2.5-.9-3.5-2.1-1.2-1.4-1.4-3-1.5-3.8h88.8,0Z"/>
      <path class="st0" d="M403.5.2v7.2c-5.4-.8-10-1.1-13.5-1.2-9.1-.4-13.7-.6-19.1.5-5.2,1.1-6.5,2.2-9.5,1.5-4.4-1.1-5.1-4.4-9.7-4.8-2.4-.2-3.9.5-6.3-.5-1.6-.7-2.8-1.8-3.5-2.7h61.5Z"/>
      <path class="st0" d="M200.6,96.5h0c0,7-1.6,11.7-5.9,15.6-4.7,4.3-7.4,2.8-12.1,7.5-1.5,1.5-2.7,3.1-3.6,4.8H.2V1.2h8.8c4.8,1.8,10.1,4,16,6.8,13.6,6.3,12.5,6.9,16.2,7.3,15.2,1.7,38.4-8.9,49.6-13.5.3-.1.8-.4,1.5-.6,1.7-.6,4.2-1.3,6.7-.8.7.2,1.4.4,2,.8,2.7,1.5,3.9,4.3,4.4,5.2.6,1.3,1.6,2.7,2.8,4.2.1.1.2.3.3.4,9.1,11.1,32.5,28.4,56.5,36.8,12,4.2,16.4,2.3,22.9,7,8.2,5.9,9.4,13.8,11.4,27.2.7,4.8,1.2,8.9,1.4,12.4,0,.7,0,1.4,0,2.1h0Z"/>
      <path class="st0" d="M189.6,97.1h0c0,6.9-1.5,11.4-5.6,15.3-4.5,4.2-6.9,2.7-11.4,7.3-1.4,1.5-2.5,3.1-3.4,4.7H.2V3.8h8.4c4.5,1.8,9.5,3.9,15.2,6.6,12.8,6.1,11.8,6.8,15.3,7.2,14.4,1.6,36.3-8.7,46.8-13.2.3-.1.8-.3,1.4-.6,1.6-.6,4-1.3,6.3-.7.7.2,1.3.4,1.9.7,2.6,1.5,3.7,4.2,4.1,5.1.6,1.2,1.5,2.6,2.6,4.1,0,.1.2.3.3.4,8.6,10.9,30.7,27.7,53.4,36,11.4,4.1,15.5,2.3,21.6,6.8,7.8,5.8,8.9,13.5,10.8,26.6.7,4.7,1.1,8.7,1.3,12.2,0,.7,0,1.4,0,2.1Z"/>
      <path class="st0" d="M170.9,98.1h0c0,6.6-1.4,11.1-5.1,14.7-4,4-6.3,2.6-10.3,7.1-1.3,1.4-2.3,2.9-3.1,4.5H.2V8h7.5c4,1.7,8.6,3.8,13.7,6.4,11.6,5.9,10.6,6.5,13.8,6.9,12.9,1.6,32.7-8.4,42.2-12.8.3-.1.7-.3,1.2-.6,1.4-.6,3.6-1.2,5.7-.7.6.2,1.2.4,1.7.7,2.3,1.4,3.3,4,3.7,5,.5,1.2,1.3,2.5,2.4,4,0,.1.2.2.3.4,7.7,10.5,27.7,26.8,48.1,34.7,10.2,4,14,2.2,19.5,6.6,7,5.6,8,13,9.7,25.6.6,4.6,1,8.4,1.1,11.8,0,.7,0,1.3,0,2h0Z"/>
      <path class="st0" d="M156.8,100.1h0c0,6.1-1.3,10.2-4.6,13.6-3.7,3.7-5.7,2.4-9.4,6.6-1.2,1.3-2.1,2.7-2.8,4.2H.2V16.8h6.9c3.7,1.6,7.9,3.5,12.5,5.9,10.6,5.5,9.7,6,12.7,6.4,11.9,1.5,30-7.8,38.7-11.8.3-.1.7-.3,1.2-.5,1.3-.5,3.3-1.1,5.2-.6.6.1,1.1.4,1.6.6,2.1,1.3,3.1,3.7,3.4,4.6.5,1.1,1.2,2.3,2.2,3.7,0,.1.2.2.2.4,7.1,9.7,25.4,24.7,44.1,32.1,9.4,3.7,12.8,2,17.9,6.1,6.4,5.2,7.3,12,8.9,23.7.6,4.2.9,7.8,1.1,10.9,0,.6,0,1.2,0,1.8h0Z"/>
      <path class="st0" d="M138.4,103.2h0c0,5.3-1.1,8.9-4.1,11.9-3.2,3.2-5.1,2.1-8.3,5.7-1,1.2-1.8,2.4-2.5,3.6H.2V30.7h6.1c3.3,1.4,6.9,3.1,11.1,5.1,9.4,4.8,8.6,5.3,11.2,5.6,10.5,1.3,26.5-6.8,34.2-10.3.2-.1.6-.3,1-.4,1.2-.5,2.9-1,4.6-.6.5.1,1,.3,1.4.6,1.9,1.1,2.7,3.2,3,4,.4,1,1.1,2,1.9,3.2,0,0,.1.2.2.3,6.2,8.5,22.4,21.6,38.9,28,8.3,3.2,11.3,1.8,15.8,5.3,5.7,4.5,6.5,10.5,7.8,20.7.5,3.7.8,6.8.9,9.5,0,.6,0,1.1,0,1.6h0Z"/>
      <path class="st0" d="M131.8,105.4h0c0,4.8-1.1,7.9-3.9,10.6-3.1,2.9-4.8,1.9-7.9,5.1-1,1-1.8,2.1-2.4,3.2H.2V40.7h5.8c3.1,1.2,6.6,2.7,10.5,4.6,8.9,4.2,8.2,4.7,10.6,5,10,1.1,25.2-6.1,32.5-9.2.2,0,.6-.2,1-.4,1.1-.4,2.8-.9,4.4-.5.5.1.9.3,1.3.5,1.8,1,2.6,2.9,2.9,3.6.4.8,1,1.8,1.8,2.9l.2.3c5.9,7.6,21.3,19.2,37.1,25,7.9,2.9,10.8,1.6,15,4.8,5.4,4,6.2,9.3,7.5,18.4.5,3.3.8,6.1.9,8.5,0,.5,0,1,0,1.4h0Z"/>
      <path class="st0" d="M132.8,105.4h0c0,4.8-1.1,7.9-3.9,10.6-3.1,2.9-4.9,1.9-8,5.1-1,1-1.8,2.1-2.4,3.2H.2V40.7h5.8c3.2,1.2,6.7,2.7,10.6,4.6,9,4.2,8.2,4.7,10.7,5,10,1.1,25.4-6.1,32.8-9.2.2,0,.6-.2,1-.4,1.1-.4,2.8-.9,4.4-.5.5.1.9.3,1.3.5,1.8,1,2.6,2.9,2.9,3.6.4.8,1,1.8,1.8,2.9l.2.3c6,7.6,21.5,19.2,37.3,25,8,2.9,10.9,1.6,15.2,4.8,5.4,4,6.2,9.3,7.5,18.4.5,3.3.8,6.1.9,8.5,0,.5,0,1,0,1.4h0Z"/>
      <path class="st0" d="M121.7,108.4h0c0,4-1,6.7-3.6,8.9-2.9,2.4-4.4,1.6-7.3,4.3-.9.9-1.6,1.8-2.2,2.7H.2V53.8h5.4c2.9,1,6.1,2.3,9.7,3.9,8.2,3.6,7.5,4,9.8,4.2,9.2,1,23.2-5.1,30-7.7.2,0,.5-.2.9-.3,1-.4,2.6-.8,4-.4.5,0,.8.2,1.2.4,1.7.8,2.4,2.5,2.6,3,.4.7.9,1.5,1.7,2.4,0,0,.1.2.2.2,5.5,6.4,19.7,16.2,34.2,21.1,7.3,2.4,9.9,1.3,13.9,4,5,3.4,5.7,7.9,6.9,15.6.4,2.8.7,5.1.8,7.1,0,.4,0,.8,0,1.2h0Z"/>
      <path class="st0" d="M110.2,111.2h0c0,3.3-.9,5.5-3.3,7.4-2.6,2-4,1.3-6.6,3.6-.8.7-1.5,1.5-2,2.2H.2v-58.2h4.8c2.6.9,5.5,1.9,8.8,3.2,7.5,2.9,6.8,3.3,8.9,3.5,8.3.8,21.1-4.2,27.2-6.4.2,0,.5-.2.8-.3.9-.3,2.3-.6,3.7-.3.4,0,.8.2,1.1.3,1.5.7,2.2,2,2.4,2.5.3.6.8,1.3,1.5,2,0,0,.1.1.2.2,5,5.3,17.8,13.4,31,17.4,6.6,2,9,1.1,12.6,3.3,4.5,2.8,5.2,6.5,6.2,12.8.4,2.3.7,4.2.7,5.9,0,.3,0,.7,0,1h0Z"/>
      <path class="st0" d="M89.9,113.8h0c0,2.7-.7,4.4-2.7,5.9-2.1,1.6-3.3,1.1-5.4,2.9-.7.6-1.2,1.2-1.6,1.8H.2v-46.8h4c2.1.7,4.5,1.5,7.2,2.6,6.1,2.4,5.6,2.6,7.3,2.8,6.8.6,17.2-3.4,22.2-5.1.2,0,.4-.1.7-.2.8-.2,1.9-.5,3-.3.3,0,.6.2.9.3,1.2.6,1.8,1.6,2,2,.3.5.7,1,1.2,1.6,0,0,0,0,.1.2,4,4.2,14.6,10.8,25.3,14,5.4,1.6,7.3.9,10.2,2.7,3.7,2.2,4.2,5.2,5.1,10.3.3,1.8.5,3.4.6,4.7,0,.3,0,.5,0,.8h0Z"/>
      <path class="st0" d="M79,116.4h0c0,2-.6,3.3-2.3,4.5-1.9,1.2-2.9.8-4.8,2.2-.6.4-1.1.9-1.4,1.4H.2v-35.3h3.5c1.9.5,4,1.2,6.3,1.9,5.3,1.8,4.9,2,6.4,2.1,6,.5,15.1-2.6,19.5-3.9.1,0,.3,0,.6-.2.7-.2,1.7-.4,2.6-.2.3,0,.5.1.8.2,1.1.4,1.5,1.2,1.7,1.5.2.4.6.8,1.1,1.2,0,0,0,0,.1.1,3.6,3.2,12.8,8.1,22.2,10.5,4.7,1.2,6.4.7,9,2,3.2,1.7,3.7,3.9,4.5,7.8.3,1.4.5,2.6.5,3.6,0,.2,0,.4,0,.6h0Z"/>
      <path class="st0" d="M57.2,118.6h0c0,1.4-.5,2.4-1.7,3.2-1.3.9-2.1.6-3.4,1.6-.4.3-.8.6-1,1H.2v-25.5h2.5c1.3.4,2.9.8,4.6,1.4,3.9,1.3,3.5,1.4,4.6,1.5,4.3.3,10.9-1.8,14.1-2.8.1,0,.2,0,.4-.1.5-.1,1.2-.3,1.9-.2.2,0,.4,0,.6.2.8.3,1.1.9,1.2,1.1.2.3.4.6.8.9,0,0,0,0,0,0,2.6,2.3,9.2,5.9,16,7.6,3.4.9,4.7.5,6.5,1.4,2.3,1.2,2.7,2.8,3.2,5.6.2,1,.3,1.8.4,2.6,0,.2,0,.3,0,.4h0Z"/>
      <path class="st0" d="M43.8,120h0c0,1.1-.3,1.8-1.3,2.5-1,.7-1.6.4-2.6,1.2-.3.2-.6.5-.8.8H.2v-19.5h1.9c1,.3,2.2.6,3.5,1.1,3,1,2.7,1.1,3.5,1.2,3.3.3,8.3-1.4,10.8-2.1,0,0,.2,0,.3,0,.4,0,.9-.2,1.5-.1.2,0,.3,0,.4.1.6.2.9.7,1,.8.1.2.3.4.6.7,0,0,0,0,0,0,2,1.8,7.1,4.5,12.3,5.8,2.6.7,3.6.4,5,1.1,1.8.9,2,2.2,2.5,4.3.2.8.3,1.4.3,2v.3h0Z"/>
      <path class="st0" d="M27.1,121.7h0c0,.7-.2,1.1-.8,1.5-.6.4-1,.3-1.6.7-.2.2-.4.3-.5.5H.2v-12h1.2c.6.2,1.4.4,2.2.7,1.8.6,1.7.7,2.2.7,2,.2,5.1-.9,6.6-1.3,0,0,.1,0,.2,0,.2,0,.6-.1.9,0,.1,0,.2,0,.3,0,.4.2.5.4.6.5,0,.1.2.3.4.4,0,0,0,0,0,0,1.2,1.1,4.4,2.8,7.6,3.6,1.6.4,2.2.2,3.1.7,1.1.6,1.3,1.3,1.5,2.7.1.5.2.9.2,1.2v.2h0Z"/>
      <path class="st2" d="M66.5,110c-9.6-5.2-16.5-9.5-23.8-14.2-10.4-6.7-23.1-15.3-37.1-25.7,0,0-2.2-1.9-2.3-1.8,0,0,27.1,24.5,62.1,46.4,7.3,4.6,13.3,8,16.2,9.6h15.4c-7.8-3.2-18.4-7.8-30.4-14.3ZM170.9,187.4c0,0,.2.1.3.2.6.2,1.1.1,1.9-.2h-2.2ZM314,.2h-15.3c41.6,20.8,65.8,40.2,66.3,39.8.4-.4-17.6-19.1-50.9-39.8ZM398.9,61c-6.5-.1-19.6.2-31.9,1.9-2.9.4-5.8.8-8.5,1.4-6.2,1.2-12.2,1.5-18,1.1-12.8-.9-23.2-5.5-27.7-8-4.5-2.5-9.6-6.2-18.3-9.1-2.4-.8-5.2-1.6-7.7-.7-3.5,1.2-2.7,4.7-5.8,7-4.1,3.1-11.8,1.8-15.1,1.2-22.2-3.7-47.3-28.4-39.7-39.5,2.7-3.9,8.7-4.9,8.2-5.8-.9-1.6-19-.4-32.4,8.1-5.9,3.8-7.3,6.7-11.5,6.7h-.4c-6.1-.3-5.6-8.5-16.7-11.5-6.5-1.8-14.7-4.2-24.8-6.3-2.1-.5-6.6-1.4-7.5-3.8-.4-1.2.3-2.3,1.2-3.5h-35.4c2.4,3.5,3.4,6.9,1.8,8.9-.3.4-.7.7-1.1.9-2.8,1.8-8,2-8,3.5s2.3,1.2,5,3.3c.3.2,4.6,3.8,3.8,7.1-1.1,4.1-10,6.7-16.6,5.8-3.2-.5-3.5-1.4-5.3-1.1-5.9.9-5,10.9-11.7,12.6-1.8.5-3.6.3-8.8-1.3-14.2-4.2-15.7-5.8-23.6-8.6-7.3-2.5-15.1-2.4-22.8-.8-3.8.8-7.6,1.5-11.1,2.8-2.7,1-5.4,1.8-8.1,2.6v9.7c.3,0,.7,0,1-.1,2.9-.4,5.8-.8,8.6-1.4,6.2-1.2,12.2-1.5,18-1.1,12.8.9,23.2,5.5,27.7,8,4.5,2.5,9.6,6.2,18.3,9.1,2.4.8,5.2,1.6,7.7.7,3.5-1.2,2.7-4.7,5.8-7,4.1-3.1,11.8-1.8,15.1-1.2,22.2,3.7,47.3,28.4,39.7,39.5-2.7,3.9-8.7,4.9-8.2,5.8.9,1.6,19,.4,32.4-8.2,5.9-3.8,7.3-6.7,11.5-6.7,6.6,0,5.7,8.4,17.1,11.5,1.2.3,2.4.7,3.7,1,5.8,1.6,12.8,3.6,21.1,5.3,2.1.5,6.6,1.4,7.5,3.8.5,1.4-.6,2.6-1.6,4.3-.8,1.4-2.8,6.4-1.4,11.1.3,1,1,2.7,2.6,4.4h55.6c-3.5-1.4-8.7-4-13.7-8.8-.9-.9-12.6-11.9-9-16.4,2.3-2.7,9.1-2.7,9.1-4.4s-2.3-1.2-5-3.3c-2-1.6-4.9-4.8-3.8-7.1.4-.8,1.5-1.8,6.7-2.9,2.3-.5,4.1-.8,5.7-.9,4.7-.4,6.6.4,9.6-.8,7.5-2.9,4.9-10.5,11.7-12.6,3.7-1.2,9.3.9,20.6,5.2,8.3,3.2,7.5,3.6,11.8,4.7,10.2,2.6,19.5,1.5,22.8.8,3.8-.8,7.6-1.5,11.1-2.8,13.5-5.1,31.2-6.8,43.6-7.3v-6.6c-1.6,0-3.1-.1-4.7-.2h0Z"/>
      <rect class="st3" x=".2" y=".2" width="403.3" height="124.2"/>
    </g>
  </g>
</svg>