<?xml version="1.0" encoding="UTF-8"?>
<svg id="Layer_2" xmlns="http://www.w3.org/2000/svg" version="1.1" viewBox="0 0 402.5 358.1">
  <!-- Generator: Adobe Illustrator 29.0.1, SVG Export Plug-In . SVG Version: 2.1.0 Build 192)  -->
  <defs>
    <style>
      .st0, .st1, .st2, .st3 {
        fill: #fff;
      }

      .st1, .st2, .st4 {
        stroke: #000;
      }

      .st1, .st2, .st4, .st3, .st5 {
        stroke-miterlimit: 10;
      }

      .st1, .st4, .st5 {
        stroke-width: .2px;
      }

      .st2 {
        stroke-width: .5px;
      }

      .st4 {
        fill: none;
      }

      .st3 {
        stroke: #231f20;
      }

      .st5 {
        stroke: #f6f5f5;
      }
    </style>
  </defs>
  <g id="Capa_1">
    <g>
      <rect x=".2" width="402.3" height="357.8"/>
      <ellipse class="st3" cx="137.7" cy="262.3" rx="58.5" ry="58.6"/>
      <path class="st1" d="M.2,277.7c58.7-2.3,88.7-4.7,105.3-6.5,4.4-.5,17.4-2,34.7-1.7,14.4.3,24.6,1.8,30.5,2.6,31.3,4.2,61.3,3.9,78.5,3.8,41.9-.3,43.6-5.2,73.2-2.9,12.8,1,20.9,2.6,44,4.3,15.1,1.1,27.7,1.6,36.2,1.8v12.6c-134.1-.5-268.3-.9-402.4-1.3v-12.7H.2Z"/>
      <path class="st2" d="M402.5,279.5v78.3H.2v-78.3h40.2c23.1,0,26.7.4,37.7,0,19.2-.7,21-2,35.6-2.1,14.9-.1,21.3,1.1,35.6,2.1,12.2.9,29.6,1.5,51,.1.7,0,1.4,0,2.2-.1h38c23.1,0,26.7.4,37.6,0,19.2-.7,21-2,35.6-2.1,14.9-.1,21.4,1.1,35.6,2.1,12.7.9,30.7,1.5,53.2,0h0Z"/>
      <path class="st4" d="M385.9,330.6c-.2,6.3-38.5,9.2-42.4,9.5-35.6,2.6-73.6-4.1-73.7-10.5,0-5.8,31.8-10.1,34.6-10.5,40.4-5.3,81.6,4.8,81.4,11.4h0Z"/>
      <path class="st4" d="M376.3,330.4c-.2,5.2-31.5,7.5-34.6,7.8-29.1,2.1-60.1-3.4-60.2-8.5,0-4.7,26-8.2,28.3-8.5,33-4.3,66.7,3.9,66.5,9.3h0Z"/>
      <path class="st4" d="M361,330c-.1,3.5-21.3,5.1-23.4,5.3-19.7,1.4-40.7-2.3-40.7-5.8,0-3.2,17.6-5.6,19.2-5.8,22.4-2.9,45.1,2.7,45,6.3h0Z"/>
      <path class="st4" d="M400.9,331c-.3,8-48.5,11.6-53.3,12-44.8,3.3-92.6-5.2-92.7-13.2,0-7.3,40.1-12.7,43.6-13.1,50.9-6.6,102.7,6,102.4,14.3h0Z"/>
      <path class="st4" d="M419.7,331.4c-.4,10-61,14.6-67.1,15.1-56.4,4.1-116.6-6.6-116.6-16.6,0-9.2,50.4-16,54.8-16.5,64-8.4,129.2,7.6,128.9,18h0Z"/>
      <path d="M126.2,296.3c1.9,0,2.4.1,4.2.1,1.7,0,2.2-.1,3.8-.2,2.8-.1,4.1.1,8,.3,4.9.2,8.5,0,8.5,0s-3.8.3-8.4.2c-3.5-.1-4.1-.3-6.9-.3-2.5,0-2.9.3-5.3.2-1.6,0-2.2-.1-4.5-.1-1.5,0-2.4,0-2.5,0,0,0,1.4-.2,3.1-.2h0Z"/>
      <path d="M179.8,294.1c1.7,0,2.2.2,3.8.2,1.6,0,2-.2,3.5-.3,2.5-.2,3.7.2,7.2.4,4.4.3,7.7,0,7.7,0s-3.5.4-7.6.2c-3.1-.1-3.7-.5-6.3-.4-2.3,0-2.6.4-4.8.3-1.4,0-2-.2-4.1-.2-1.4,0-2.2,0-2.2,0,0,0,1.3-.3,2.8-.3h0Z"/>
      <path d="M234.9,284.4c1.7,0,2.2.2,3.8.2,1.6,0,2-.2,3.5-.3,2.5-.2,3.7.2,7.2.4,4.4.3,7.7,0,7.7,0,0,0-3.5.4-7.6.2-3.1-.1-3.7-.5-6.3-.4-2.3,0-2.6.4-4.8.3-1.4,0-2-.2-4.1-.2-1.4,0-2.2,0-2.2,0,0,0,1.3-.3,2.8-.3h0Z"/>
      <path d="M149.5,316.1c2.6,0,3.4.2,5.9.2,2.4,0,3-.2,5.4-.3,3.9-.2,5.7.2,11.1.4,6.8.2,11.9,0,11.9,0,0,0-5.4.4-11.7.2-4.9-.1-5.8-.4-9.7-.4-3.5,0-4,.3-7.4.3-2.2,0-3-.1-6.3-.2-2.1,0-3.4,0-3.5,0,0,0,1.9-.2,4.3-.3h0Z"/>
      <path d="M32,311.9c3.3,0,4.3.1,7.6.1,3.1,0,3.9-.1,6.9-.2,5-.1,7.3.1,14.3.3,8.7.2,15.3,0,15.3,0,0,0-6.9.3-15.1.1-6.3,0-7.4-.3-12.5-.3-4.5,0-5.2.2-9.5.2-2.8,0-3.9-.1-8.1-.1-2.7,0-4.4,0-4.5,0-.1,0,2.5-.2,5.6-.2h0Z"/>
      <path d="M48.7,338.3c3,0,3.9.1,6.8.1,2.8,0,3.5-.1,6.2-.2,4.5,0,6.6.1,12.9.2,7.9.1,13.8,0,13.8,0,0,0-6.2.2-13.6.1-5.7,0-6.7-.2-11.3-.2-4.1,0-4.7.2-8.6.2-2.6,0-3.5,0-7.3-.1-2.5,0-4,0-4,0,0,0,2.3-.1,5-.2h0Z"/>
      <path d="M208.9,318.7c1.5,0,1.9.2,3.3.2,1.4,0,1.7-.2,3-.3,2.2-.2,3.2.2,6.2.5,3.8.3,6.7,0,6.7,0s-3,.4-6.6.2c-2.7-.1-3.2-.5-5.4-.4-2,0-2.2.4-4.2.3-1.2,0-1.7-.2-3.5-.2-1.2,0-1.9,0-1.9,0,0,0,1.1-.3,2.4-.3h0Z"/>
      <g>
        <path d="M149.5,330.2c1.1,0,2,.2,3,.5,1.4.4,1.9.9,3,1.2,1.5.4,3.6.9,6.1,1.1,5.7.5,9.2-.5,9.2-.3,0,.1-6.7,2.3-15,2-4.3-.1-10.9-1-11-2.5,0-.9,2.5-2.1,4.7-2.2h0Z"/>
        <path class="st1" d="M148.9,331.8c-.4-1.2,0-2.7,1-3.5.9-.9,2.1-.8,4.3-1,5.4-.4,5.4-1.6,7.9-1,1.8.4,3,1.3,5.3,3.1,2.3,1.8,3.5,2.7,3.4,3.4-.3,2.2-8.6,2.9-15,2-6-.8-6.7-2.6-6.9-3Z"/>
        <path class="st1" d="M148.9,331.8c-.4-1.3.4-2.7,1-3.5.5.8,1.3,1.9,2.6,2.5,1.5.6,2.2,0,4.3.5,2.4.4,2.3,1.3,4.8,1.9,1.2.3,2.4.2,4.7.1,1.8,0,3.3-.2,4.5-.4,0,0,0,.1,0,.2-.4,1-1.7,1.5-3,1.7-6.1,1.2-11.9.1-11.9.1-3.9-.8-6.3-1.3-6.9-3h0Z"/>
      </g>
      <g>
        <path d="M24.3,347.2c1.1,0,2,.2,3,.5,1.4.4,1.9.9,3,1.2,1.5.4,3.5.9,6,1.1,5.7.5,9.2-.5,9.2-.3,0,.1-6.7,2.3-15,2-4.3-.1-10.9-1-11-2.5,0-.9,2.5-2.1,4.7-2.2h0Z"/>
        <path class="st1" d="M23.8,348.9c-.4-1.2,0-2.7,1-3.5,1-.9,2.1-.8,4.3-1,5.4-.4,5.4-1.6,7.9-1,1.8.4,3,1.3,5.3,3.1,2.3,1.8,3.5,2.7,3.4,3.4-.3,2.2-8.6,2.9-15,2-6-.8-6.7-2.6-6.9-3Z"/>
        <path class="st1" d="M23.8,348.9c-.4-1.3.4-2.7,1-3.5.5.8,1.3,1.9,2.6,2.5,1.5.6,2.2,0,4.3.5,2.4.4,2.3,1.3,4.8,1.9,1.2.3,2.4.2,4.7.1,1.8,0,3.3-.2,4.5-.4,0,0,0,.1,0,.2-.4,1-1.7,1.5-3,1.7-6.2,1.2-11.9.1-11.9.1-3.9-.8-6.3-1.3-6.9-3h0Z"/>
      </g>
      <g>
        <path d="M104.3,312.2c.7,0,1.3.2,2,.4.9.3,1.3.6,2,.8,1,.3,2.3.6,4,.7,3.8.4,6.1-.4,6.1-.2,0,.1-4.4,1.5-9.9,1.4-2.9,0-7.2-.7-7.3-1.6,0-.6,1.7-1.4,3.1-1.4h0Z"/>
        <path class="st1" d="M104,313.3c-.3-1,.4-2,.6-2.3,1-1.4,2.6-1.7,2.9-1.8,1.4-.2,2.5.2,4.4,1.1,4.3,2,6.5,3,6.4,3.7-.2,1.4-5.8,1.9-9.9,1.4-1.7-.2-4.1-.6-4.5-2h0Z"/>
        <path class="st1" d="M104,313.3c-.1-.4-.2-1.2.6-2.3.3.4.9,1.1,1.7,1.6,1.7,1.2,3.5,1.3,6,1.5.3,0,1.5.1,3.1,0,1.2,0,2.2-.1,3-.2,0,0,0,0,0,.1-.3.8-1.5,1-2,1.1-1.4.3-11.5,1.5-12.4-1.9h0Z"/>
      </g>
      <g>
        <path d="M78.4,299c.6,0,1,.1,1.5.3.7.2,1,.5,1.5.6.8.2,1.8.4,3.1.5,2.9.3,4.6-.3,4.7-.1,0,0-3.4,1.2-7.6,1-2.2,0-5.5-.5-5.6-1.2,0-.5,1.3-1.1,2.4-1.1h0Z"/>
        <path class="st1" d="M78.2,299.9c-.2-.8.3-1.6.5-1.8.9-1.3,2.9-1.7,4.4-1.4.8.2.9.4,3,1.7,2.6,1.5,3.2,1.6,3.2,2,0,.9-4.1,1.5-7.6,1-1.3-.2-3.1-.4-3.5-1.5h0Z"/>
        <path class="st1" d="M78.2,299.9c-.3-.7.1-1.7.5-1.8s.5.9,1.3,1.2c.8.4,1.2-.2,2.2,0,1.1.2,1.1.9,2.4,1.2.5.1,1.1.1,2.4,0,.9,0,1.7-.1,2.3-.2,0,0,0,0,0,.1-.2.5-.8.7-1.5.9-3.1.6-6,0-6,0-2-.4-3.1-.6-3.5-1.5h0Z"/>
      </g>
      <g>
        <path d="M21.9,319.9c.5,0,1,.1,1.5.3.7.2,1,.5,1.5.6.8.2,1.8.4,3,.5,2.9.3,4.6-.3,4.7-.1,0,0-3.4,1.2-7.6,1-2.2,0-5.5-.5-5.6-1.2,0-.5,1.3-1.1,2.4-1.1h0Z"/>
        <path class="st1" d="M21.6,320.7c-.2-.8.3-1.6.5-1.8.9-1.3,2.9-1.7,4.4-1.4.8.2.9.4,3,1.7,2.6,1.5,3.2,1.6,3.2,2,0,.9-4.1,1.5-7.6,1-1.3-.2-3.1-.4-3.5-1.5h0Z"/>
        <path class="st1" d="M21.6,320.7c-.3-.7.1-1.7.5-1.8s.5.9,1.3,1.2c.8.4,1.1-.2,2.2,0,1.1.2,1.1.9,2.4,1.2.5.1,1.1.1,2.4,0,.9,0,1.7-.1,2.3-.2,0,0,0,0,0,.1-.2.5-.9.7-1.5.9-3.1.6-6,0-6,0-2-.4-3.1-.6-3.5-1.5h0Z"/>
      </g>
      <g>
        <path d="M97.6,282.9c.2,0,.4,0,.7.1.3,0,.4.2.7.3.3,0,.8.2,1.4.2.4,0,.5,0,1.1,0,.5,0,.9,0,.9.1,0,.1-1.6.5-3.3.4-.9,0-2.5-.3-2.5-.7,0-.2.6-.5,1.1-.5h0Z"/>
        <path class="st1" d="M97.4,283.2c0-.3,0-.6.2-.8.8-.9,2.9,0,3.3.1.6.2,1.5.6,1.4.9,0,.5-1.9.6-3.4.5-1.3-.2-1.5-.6-1.6-.7h0Z"/>
        <path class="st1" d="M97.4,283.2c0-.2,0-.4.4-.9,0,.2.1.4.3.6.2.1.3.2.7.3.3,0,.8.2,1.4.2.5,0,.9,0,1.1,0,.6,0,1-.1,1,0,0,0-.4.3-.7.4-1.6.6-4.1.2-4.2-.6h0Z"/>
      </g>
      <g>
        <path d="M390.1,286.2c.2,0,.5,0,.7.1.3,0,.4.2.7.3.3,0,.8.2,1.4.2.5,0,.5,0,1.1,0,.5,0,.9,0,.9.1,0,.1-1.6.5-3.3.4-.9,0-2.5-.3-2.5-.7,0-.2.6-.5,1-.5h0Z"/>
        <path class="st1" d="M390,286.6c0-.3,0-.6.2-.8.8-.9,2.9,0,3.3.1.6.2,1.5.6,1.4.9,0,.5-1.9.6-3.4.5-1.4-.2-1.5-.6-1.5-.7h0Z"/>
        <path class="st1" d="M390,286.6c0-.2,0-.4.5-.9,0,.2.1.4.4.6.1.1.3.2.7.3.3,0,.8.2,1.4.2.5,0,.9,0,1.1,0,.6,0,1-.1,1,0,0,0-.4.3-.7.4-1.6.6-4.1.2-4.2-.6h0Z"/>
      </g>
      <g>
        <path d="M363.2,345.5c.2,0,.5,0,.7.1.3,0,.4.2.7.3.3,0,.8.2,1.4.2.5,0,.5,0,1.1,0,.5,0,.9,0,.9.1,0,.1-1.6.5-3.3.4-.9,0-2.5-.3-2.5-.7,0-.2.6-.5,1-.5h0Z"/>
        <path class="st1" d="M363.1,345.9c0-.3,0-.6.2-.8.8-.9,2.9,0,3.3.1.6.2,1.5.6,1.4.9,0,.5-1.9.6-3.4.5-1.4-.2-1.5-.6-1.5-.7h0Z"/>
        <path class="st1" d="M363.1,345.9c0-.2,0-.4.5-.9,0,.2.1.4.4.6.1.1.3.2.7.3.3,0,.8.2,1.4.2.5,0,.9,0,1.1,0,.6,0,1-.1,1,0,0,0-.4.3-.7.4-1.6.6-4.1.2-4.2-.6h0Z"/>
      </g>
      <g>
        <path d="M14.8,288.6c.2,0,.4,0,.7.1.3,0,.4.2.7.3.3,0,.8.2,1.4.2.5,0,.5,0,1.1,0,.5,0,.9,0,.9.1,0,.1-1.6.5-3.3.4-.9,0-2.5-.3-2.5-.7,0-.2.6-.5,1.1-.5h0Z"/>
        <path class="st1" d="M14.7,288.9c0-.3,0-.6.2-.8.8-.9,2.9,0,3.3.1.6.2,1.5.6,1.4.9,0,.5-1.9.6-3.4.5-1.4-.2-1.5-.6-1.6-.7h0Z"/>
        <path class="st1" d="M14.7,288.9c0-.2,0-.4.4-.9,0,.2.1.4.4.6.1.1.3.2.7.3.3,0,.8.2,1.4.2.5,0,.9,0,1.1,0,.6,0,1-.1,1,0,0,0-.4.3-.7.4-1.6.6-4.1.2-4.2-.6h0Z"/>
      </g>
      <g>
        <path d="M155,296.5c.4,0,.7,0,1,.2.5.1.6.3,1,.4.5.1,1.2.3,2,.4,1.9.2,3.1-.2,3.1,0,0,0-2.3.8-5.1.7-1.5,0-3.7-.3-3.7-.8,0-.3.8-.7,1.6-.7h0Z"/>
        <path class="st1" d="M154.8,297.1c-.1-.4,0-.9.3-1.2,1.1-1.3,4.3,0,4.9.2.9.3,2.2.8,2.1,1.3,0,.7-2.9,1-5.1.7-2-.3-2.3-.9-2.3-1h0Z"/>
        <path class="st1" d="M154.8,297.1c-.2-.5,0-1.2.3-1.2.2,0,.3.4.9.8.4.3.8.4,1,.4.5.1,1.2.3,2,.4.1,0,.8,0,1.6,0,.6,0,1.1,0,1.5-.1,0,0,0,0,0,0-.1.3-.6.5-1,.6-2.1.4-4,0-4,0-1.3-.3-2.1-.4-2.3-1h0Z"/>
      </g>
      <g>
        <path d="M372.1,322.4c.4,0,.7,0,1,.2.5.1.6.3,1,.4.5.1,1.2.3,2,.4,1.9.2,3.1-.2,3.1,0,0,0-2.3.8-5,.7-1.5,0-3.7-.3-3.7-.8,0-.3.8-.7,1.6-.7h0Z"/>
        <path class="st1" d="M371.9,322.9c-.1-.4,0-.9.3-1.2,1.1-1.3,4.3,0,4.9.2.9.3,2.2.8,2.1,1.3,0,.7-2.9,1-5,.7-2-.3-2.3-.9-2.3-1h0Z"/>
        <path class="st1" d="M371.9,322.9c-.2-.5,0-1.2.3-1.2.2,0,.3.4.9.8.4.3.8.4,1,.4.5.1,1.2.3,2,.4.1,0,.8,0,1.6,0,.6,0,1.1,0,1.5-.1,0,0,0,0,0,0-.1.3-.6.5-1,.6-2.1.4-4,0-4,0-1.3-.3-2.1-.4-2.3-1h0Z"/>
      </g>
      <path class="st0" d="M200.5,279.4c-.7,0-1.4,0-2.2.1h0c0-.1,2.2-.1,2.2-.1Z"/>
      <path d="M258.3,293.4c2.2,0,2.9.1,5,.1,2,0,2.6-.1,4.6-.2,3.3-.1,4.9.1,9.5.3,5.8.2,10.1,0,10.2,0s-4.5.2-10,.1c-4.1,0-4.9-.3-8.3-.2-3,0-3.4.2-6.3.2-1.9,0-2.6-.1-5.4-.1-1.8,0-2.9,0-3,0,0,0,1.7-.2,3.7-.2h0Z"/>
      <path d="M29.2,287.3c2.5,0,3.3,0,5.7,0s3,0,5.2,0c3.7,0,5.5,0,10.8.1,6.6,0,11.5,0,11.6,0s-5.2.1-11.4,0c-4.7,0-5.6-.1-9.4,0-3.4,0-3.9,0-7.2,0-2.2,0-2.9,0-6.1,0h-3.4c0,0,1.9,0,4.2,0h0Z"/>
      <path d="M281.5,350.3c2.8,0,3.6.1,6.3.1s3.3,0,5.8-.1c4.1,0,6.1.1,12,.2,7.3.1,12.8,0,12.8,0s-5.8.2-12.6.1c-5.2,0-6.2-.2-10.5-.2-3.8,0-4.3.2-8,.2-2.4,0-3.3,0-6.8,0-2.3,0-3.7,0-3.8,0,0,0,2.1-.1,4.7-.1Z"/>
      <path d="M134.6,343.1c2.8,0,3.6.1,6.3.1s3.3,0,5.8-.1c4.1,0,6.1.1,12,.2,7.3.1,12.8,0,12.8,0s-5.8.2-12.6.1c-5.2,0-6.2-.2-10.5-.2-3.8,0-4.3.2-8,.2-2.4,0-3.3,0-6.8,0-2.3,0-3.7,0-3.8,0,0,0,2.1-.1,4.7-.1Z"/>
      <path class="st4" d="M339.6,323.7c.6,0,.7.3,1.3.3.5,0,.7-.3,1.2-.4.9-.2,1.2.3,2.4.6,1.5.4,2.6,0,2.6,0,0,0-1.2.6-2.6.3-1.1-.2-1.3-.6-2.1-.5-.8.1-.9.5-1.6.4-.5,0-.7-.2-1.4-.3-.5,0-.8,0-.8,0,0,0,.4-.4,1-.4h0Z"/>
      <path d="M326.8,282.6c-1.8,0-2.3,0-4,0-1.6,0-2,0-3.6-.1-2.6-.1-3.9,0-7.5,0s-8-.1-8.1-.1c0,0,3.6.2,7.9.2,3.3,0,3.9,0,6.6,0,2.4,0,2.7.2,5,.2,1.5,0,2,0,4.2,0,1.4,0,2.3,0,2.4,0,0,0-1.3-.1-2.9-.1h0Z"/>
      <path d="M343,298c-1.2,0-1.6.1-2.8.1-1.1,0-1.4-.2-2.5-.3-1.8-.2-2.7.1-5.3.3-3.2.2-5.6-.1-5.6-.1,0,0,2.5.4,5.5.3,2.3,0,2.7-.3,4.6-.2,1.7,0,1.9.3,3.5.3,1,0,1.4-.1,3-.1,1,0,1.6,0,1.6,0,0,0-.9-.2-2-.3h0Z"/>
      <path d="M303.8,289.3c.2,0,.5,0,.7.1.3.1.4.2.7.3.3,0,.8.2,1.4.2,1.3.1,2.1-.1,2.1,0,0,0-1.5.5-3.5.5-1,0-2.5-.2-2.5-.6,0-.2.6-.5,1.1-.5h0Z"/>
      <g>
        <path d="M208.2,286c.3,0,.6,0,.9.1.4.1.5.3.9.3.4.1,1,.2,1.7.3,1.6.1,2.6-.1,2.6,0,0,0-1.9.6-4.2.6-1.2,0-3.1-.3-3.1-.7,0-.3.7-.6,1.3-.6h0Z"/>
        <path class="st1" d="M208,286.5c-.1-.3,0-.7.3-1,.9-1,3.6,0,4.1.1.7.3,1.8.7,1.8,1.1,0,.6-2.4.8-4.2.6-1.7-.2-1.9-.7-1.9-.8h0Z"/>
        <path class="st1" d="M208,286.5c-.2-.4,0-1,.3-1,.2,0,.3.4.7.7.3.2.6.3.9.3.4.1,1,.2,1.7.3.1,0,.6,0,1.3,0,.5,0,.9,0,1.3-.1,0,0,0,0,0,0-.1.3-.5.4-.8.5-1.7.4-3.3,0-3.3,0-1.1-.2-1.7-.4-1.9-.8h0Z"/>
      </g>
      <path class="st1" d="M303.7,289.6c0-.3,0-.6.2-.8.8-.9,2.9,0,3.4.1.6.2,1.5.6,1.5.9,0,.5-2,.7-3.5.5-1.4-.2-1.5-.6-1.6-.7h0Z"/>
      <path class="st1" d="M303.7,289.6c-.1-.3,0-.8.2-.8.1,0,.2.3.6.6.2.2.5.2.7.3.3,0,.8.2,1.4.2.1,0,.5,0,1.1,0,.4,0,.8,0,1,0,0,0,0,0,0,0,0,.2-.4.3-.7.4-1.4.3-2.8,0-2.8,0-.9-.2-1.4-.3-1.6-.7h0Z"/>
      <g>
        <path d="M373.4,299.6c.4,0,.7,0,1,.2.5.1.7.3,1,.4.5.1,1.2.3,2.1.4,2,.2,3.2-.2,3.2,0,0,0-2.3.8-5.2.7-1.5,0-3.8-.4-3.8-.9,0-.3.9-.7,1.6-.8h0Z"/>
        <path class="st1" d="M373.2,300.1c-.1-.4,0-.9.3-1.2,1.1-1.3,4.4,0,5,.2.9.4,2.2.9,2.2,1.4,0,.7-3,1-5.2.7-2.1-.3-2.3-.9-2.4-1h0Z"/>
        <path class="st1" d="M373.2,300.1c-.2-.5,0-1.2.3-1.2.2,0,.3.4.9.9.4.3.8.4,1,.4.5.1,1.2.3,2.1.4.1,0,.8,0,1.6,0,.6,0,1.1,0,1.6-.1,0,0,0,0,0,0-.1.4-.6.5-1,.6-2.1.4-4.1,0-4.1,0-1.3-.3-2.1-.4-2.4-1h0Z"/>
      </g>
      <g>
        <path d="M244,305.2c.7,0,1.2.2,1.9.4.9.3,1.2.6,1.9.8.9.3,2.2.6,3.8.7,3.5.4,5.7-.4,5.7-.2,0,.1-4.2,1.5-9.3,1.4-2.7,0-6.8-.7-6.9-1.6,0-.6,1.6-1.4,2.9-1.4h0Z"/>
        <path class="st1" d="M243.6,306.3c-.3-.8,0-1.8.6-2.3.7-.6,1.4-.4,4.6-.1,2.6.2,2.3.1,2.9.2,2.4.4,5.6,1.8,5.5,2.9-.1,1.3-5.3,1.9-9.3,1.4-1.6-.2-3.8-.6-4.3-2h0Z"/>
        <path class="st1" d="M243.6,306.3c-.4-1,.1-2.3.6-2.3.4,0,.6.9,1.6,1.6.7.5,1.4.7,1.9.8.9.3,2.2.6,3.8.7.3,0,1.4.1,2.9,0,1.1,0,2-.1,2.8-.2,0,0,0,0,0,.1-.2.7-1,1-1.9,1.1-3.8.8-7.4,0-7.4,0-2.4-.5-3.9-.8-4.3-2h0Z"/>
      </g>
      <g>
        <path d="M249.4,328.2c.7,0,1.2.2,1.9.4.9.3,1.2.6,1.9.8.9.3,2.2.6,3.8.7,3.5.4,5.7-.4,5.7-.2,0,.1-4.2,1.5-9.3,1.4-2.7,0-6.8-.7-6.9-1.6,0-.6,1.6-1.4,2.9-1.4h0Z"/>
        <path class="st1" d="M249.1,329.3c-.3-.8,0-1.8.6-2.3.7-.6,1.4-.4,4.6-.1,2.6.2,2.3.1,2.9.2,2.4.4,5.6,1.8,5.5,2.9-.1,1.3-5.3,1.9-9.3,1.4-1.6-.2-3.8-.6-4.3-2h0Z"/>
        <path class="st1" d="M249.1,329.3c-.4-1,.1-2.3.6-2.3.4,0,.6.9,1.6,1.6.7.5,1.4.7,1.9.8.9.3,2.2.6,3.8.7.3,0,1.4.1,2.9,0,1.1,0,2-.1,2.8-.2,0,0,0,0,0,.1-.2.7-1,1-1.9,1.1-3.8.8-7.4,0-7.4,0-2.4-.5-3.9-.8-4.3-2h0Z"/>
      </g>
      <path d="M317.9,321.6c2.2-.3,4,1.1,4.8,1.5,5,2.4,6.5,6.5,14.2,8.3,10.2,2.4,20.7-1.2,20.8-.9,0,.3-6.2,1.2-14.4,3.8-5.1,1.6-13,4.4-18.5,3.7-1.2-.1-3.1-.4-5-1.7-1.6-1.1-1.5-1.7-3.1-2.6-2.3-1.4-3.3-.3-5.6-1.4-2.6-1.2-2-2.8-4.9-4.3-2.1-1.1-4.2-1.2-5.1-1.3-1.4,0-2.6,0-3.5.2-4.2-.7-8.4-1.3-12.5-2,10-.7,20-1.4,30.1-2.1.6-.5,1.6-1.2,2.9-1.3h0Z"/>
      <g>
        <path class="st1" d="M329,328.2c-.7-1.8.1-4,1.4-5.4,1.8-1.9,4.1-1.6,11-2,9.1-.5,9.2-1.2,11.6-.5,4.8,1.4,10,5.8,9.2,8.8-1.1,4.6-15.6,4.3-22.7,3.5-9-1.1-10.2-3.6-10.5-4.4h0Z"/>
        <path class="st1" d="M329,328.2c-.9-2.2.2-5.2,1.4-5.4,1-.2,1.5,1.9,4,3.6,1.7,1.2,3.4,1.6,4.6,1.8,4.6.7,6.6,1.9,9.2,1.5,2.5-.4,2.6-1.3,5-1.9,3.4-.8,6.5.1,8.9,1.2,0,0,0,.2-.1.3-.6,1.5-2.5,2.3-4.5,2.7-9.3,2.1-18.1.5-18.1.5-5.9-1-9.5-1.7-10.5-4.4h0Z"/>
      </g>
      <path class="st5" d="M325,306.7c-3.6-3.6-7.2-7.3-10.7-10.9-3.8,3.5-7.7,6.9-11.5,10.3.5,0,1,.1,1.5.2.1,6,.2,12,.3,18.1,6.5-.1,12.9-.2,19.4-.4-.2-11.4-.3-17.4-.3-17.4h0s.5,0,1.4.1h0Z"/>
      <g>
        <path class="st1" d="M307.9,327.7c-.5-1.4.2-3.1,1-4,1.6-1.9,4.2-2,9.3-2.2,4.3-.1,6.4-.2,8.6.8,2.6,1.2,6.3,4,5.8,6.1-.8,3.3-11.4,3.3-16.9,2.6-6.7-.8-7.6-2.7-7.8-3.2h0Z"/>
        <path class="st1" d="M307.9,327.7c-.5-1.5.4-3,1-4,.5,1,1.5,2.2,3,2.7,1.7.5,2.4-.5,4.5-.3,2.6.2,2.7,2,5.8,2.7,1.2.3,2.5.2,5.3,0,2-.1,3.7-.3,5.1-.5,0,0,0,.1,0,.2-.4,1.1-1.9,1.7-3.4,2-6.9,1.5-13.4.4-13.4.4-4.4-.8-7.1-1.3-7.8-3.2h0Z"/>
      </g>
      <path class="st1" d="M345,321.8c-.1,3.6-.3,7.2-.4,10.9,0,.4-.2,1-.7,1.6-1.5,2-4.8,1.8-5.3,1.7-.6,0-3.1-.2-4-1.8-.2-.5-.3-.9-.3-1.2.2-3.7.4-7.4.6-11.1,0-.2-.1-2.1,1.6-3.2.8-.5,1.5-.6,2-.6,0-1.4.1-2.8.2-4.1h3.2c0,0-.2,4.2-.2,4.2.4,0,1.2,0,2,.6,1.5,1.1,1.2,2.9,1.2,3h0Z"/>
      <path d="M335,328.8c0,1.3-.1,2.5-.2,3.8,0,.3,0,.7.1,1.2,0,0,.1.3.4.6.8.9,6.6,2.5,8.5-.4.4-.5.5-1.1.6-1.6,0-1.3,0-2.6.1-3.9-1.6,0-3.2,0-5,0-1.6,0-3.1.1-4.5.3h0Z"/>
      <path d="M336.6,322.6c.6.2,1.5.5,2.5.6,1.7.2,3,0,3.9-.2-.2,3.2-.4,6.5-.6,9.7-.8.2-2.1.6-3.7.5-.9,0-1.7-.3-2.3-.5,0-3.4.2-6.7.2-10.1h0Z"/>
      <g>
        <path d="M343.5,312.3c0,.6-.2,1.3-.2,1.9-.5.2-1.6.8-3.1.6-1.3-.1-2.3-.7-2.7-1v-1.8c.2.2.5.4.9.5.8.4,1.5.4,1.9.4,1.5,0,2.7-.5,3.3-.8h0Z"/>
        <path class="st4" d="M337.6,312.1c0,.4,1.6.8,2.7.9,1.4,0,3.1-.2,3.1-.7,0-.4-1.4-1-2.8-1.1-1.5,0-3,.5-3,.9h0Z"/>
      </g>
      <g>
        <path class="st1" d="M320.4,333.9c-.4-1.2.3-2.4.8-3.2,2.1-3.5,7-5.8,9.7-4.3.8.4.9.9,1.7,2,3.3,4.5,7.8,4.7,7.7,6.1-.1,1.8-7.5,2.8-13.6,2.1-5.5-.6-6.1-2.2-6.3-2.6h0Z"/>
        <path class="st1" d="M320.4,333.9c-.2-.6-.2-1.6.8-3.2.4.6,1.2,1.5,2.4,2.2.5.3,1.5.9,2.8,1.1,2.4.3,2.9-1.1,5.1-1,2,.1,2.4,1.5,4.7,1.9,1.7.3,3.2,0,4.1-.4,0,0,0,.1,0,.2-.4,1.1-2.1,1.5-2.7,1.6-2,.4-15.8,2.3-17.1-2.3h0Z"/>
      </g>
      <g>
        <path d="M208.5,343.7c1.5,0,2.7.3,4.1.8,2,.6,2.6,1.3,4.1,1.7,2,.5,4.9,1.2,8.3,1.5,7.8.7,12.5-.8,12.6-.4,0,.2-9.2,3.2-20.5,2.8-5.9-.2-14.9-1.4-15-3.4,0-1.3,3.4-2.9,6.4-3h0Z"/>
        <path class="st1" d="M207.7,345.9c-.6-1.8.5-4,1.3-4.9,1.5-1.5,3.7-.6,9.9,0,6.7.6,6.8-.2,10.1.7,3.3.9,8.9,3.3,8.6,5.4-.3,2.9-11.8,4-20.5,2.8-8.2-1.1-9.2-3.5-9.4-4.1h0Z"/>
        <path class="st1" d="M207.7,345.9c-.2-.8-.2-1.6-.1-1.9.2-.8.6-1.8,1.4-3,.7.7,1.9,1.8,3.6,3.4,1.2,1.2,2.2,2,3.6,2.2.5,0,.9,0,1.2,0,2.6-.2,4.4.5,7.6.9,2.4.3,4.2.2,6.4.1,2.4,0,4.5-.3,6.2-.5,0,0,0,.2,0,.3-.6,1.4-2.3,2-4.1,2.4-5.9,1.2-16.3.2-16.3.2h0s-8.3-.7-9.4-4.1h0Z"/>
      </g>
      <rect class="st0" x="402.6" y="278.3" width="18.3" height="72.7"/>
    </g>
  </g>
</svg>