<?xml version="1.0" encoding="UTF-8"?>
<svg id="Layer_2" data-name="Layer 2" xmlns="http://www.w3.org/2000/svg" viewBox="0 0 402.24 105.5">
  <defs>
    <style>
      .cls-1 {
        fill: #f6f5f5;
      }

      .cls-1, .cls-2 {
        stroke: #000;
      }

      .cls-1, .cls-2, .cls-3 {
        stroke-miterlimit: 10;
        stroke-width: .25px;
      }

      .cls-2 {
        fill: none;
      }

      .cls-3 {
        stroke: #f6f5f5;
      }
    </style>
  </defs>
  <g id="Capa_1" data-name="Capa 1">
    <g>
      <path class="cls-1" d="M313.24,44.35c-1.65.85-3.29-.27-3.4-.35-.22-.16-1.3-.93-1.39-2.26-.08-1.21.7-2.41,1.95-3,1.26-.5,2.53-.99,3.79-1.49.23,1.59.47,3.18.7,4.77-.03.19-.32,1.63-1.66,2.32Z"/>
      <path class="cls-1" d="M90.03,41.8c-.8,1.1-1.6,2.09-2.38,2.97-1.14-2.1-2.29-4.2-3.43-6.3.3-.71.84-1.78,1.82-2.84.92-.99,1.87-1.6,2.53-1.95,2.27-.79,4.54-1.57,6.81-2.36-.87,2.05-1.73,4.11-2.6,6.16-.74,1.34-1.64,2.81-2.75,4.32Z"/>
      <path class="cls-1" d="M130.09,57.13c-1.65.85-3.29-.27-3.4-.35-.22-.16-1.3-.93-1.39-2.26-.08-1.21.7-2.41,1.95-3,1.26-.5,2.53-.99,3.79-1.49.23,1.59.47,3.18.7,4.77-.03.19-.32,1.63-1.66,2.32Z"/>
      <path d="M402.24.13v105.19c-63.38,0-126.76,0-190.13,0H.12V.13h120.05c94.02,0,188.04,0,282.06,0Z"/>
      <path class="cls-3" d="M218.87,58.79c-.17,1.02-.5,2.07-.93,3.1.51.04.92.01,1.23-.11,1.03-.4.53-1.72-.3-2.99ZM214.22,68.27c-.1.14-.19.27-.28.38.08-.11.18-.24.28-.38ZM124.05,44.8c-1.14.14-1.43.49-1.94.88,2.5.87,4.21,1.24,4.21,1.24,1.07.24,1.7.31,2.2.37-.78-.72-1.7-1.55-2.69-2.49-.58-.06-1.18-.08-1.78,0ZM307.33,61.85c-.3-.35-.6-.66-.89-.94-2.36-2.19-4.69-2.67-6.37-4.85-1.41-1.82-.31-2.19-1.88-3.82-.41-.43-.83-.75-1.25-1.02-.51-.33-1.03-.57-1.58-.83-.85-.4-1.79-.83-2.87-1.61-4.02-2.92-1.66-4.64-5.55-7.37-2.06-1.47-2.71-.96-6.89-3.26-4.6-2.51-4.06-3.26-7.44-4.7-1.14-.49-2.09-.78-2.94-1.01h0c-1.83-.5-3.22-.69-5.1-1.85-1.74-1.09-1.38-1.44-3.17-2.55-2.55-1.6-5.07-1.95-8.04-2.86-1.56-.48-2.89-1.01-4.07-1.56,0,0,0,0,0,0-1.95-.9-3.51-1.86-5.07-2.74,0,0-.01,0-.02-.01,0,0,0,0,0,0-.25-.14-.5-.28-.75-.42-.98-.54-2.17-1.14-3.66-1.81,0,0-.02,0-.02-.01,0,0-.01,0-.02,0-.78-.36-1.65-.73-2.6-1.13-.57-.24-1.18-.49-1.83-.74,0,0,0,0,0,0,0,0,0,0,0,0,0,0,0,0,0,0h0c-.52-.21-1.06-.42-1.63-.63h0c-.14-.05-.28-.11-.42-.16-.71-.27-1.46-.55-2.25-.83-.49-.18-.99-.36-1.51-.54-3.98-1.4-8.87-2.98-14.91-4.77-.43.58-.86,1.16-1.3,1.74-.43.58-.86,1.16-1.3,1.74-1.35,1.42-2.72,2.66-4.08,3.75h0c-.99.79-1.98,1.49-2.96,2.12h0c-.09.06-.17.11-.26.17-1.41.88-2.81,1.61-4.19,2.21-1.63.71-3.25,1.24-4.84,1.62-2.33.56-4.59.8-6.75.82-1.79.02-3.51-.11-5.14-.33-.83-.12-1.64-.26-2.43-.42h0s0,0,0,0c-1.66-.34-3.24-.78-4.76-1.29-9.62-3.22-16.9-9.26-29.31-11.42-.49-.08-.98-.16-1.48-.24-.89-.13-2.4-.32-4.74-.24-3.87.12-10.02.98-19.46,4.03-1.56.51-3.2,1.07-4.95,1.7-.59.21-1.2.44-1.81.67-1.71.64-3.51,1.35-5.38,2.14h0c-.26.11-.52.22-.79.33-.26.11-.53.23-.8.34-.24.1-.48.21-.72.31-.3.13-.6.26-.91.4,0,0-.02,0-.03.01-.24.11-.48.21-.73.33-.17.08-.33.15-.5.23-.16.07-.31.14-.47.21-.26.12-.51.24-.77.36-.18.08-.35.17-.53.25-.71.34-1.43.68-2.16,1.04-.06.03-.12.06-.18.09-.59.29-1.18.59-1.77.89-1.92.99-3.87,2.05-5.84,3.18-.74.43-1.48.87-2.23,1.32h0s-.1.06-.15.09c-.55.34-1.11.68-1.67,1.03-1.18.75-2.36,1.52-3.54,2.33-.98-.15-1.96-.29-2.94-.44-.16-.02-.33-.05-.49-.07-5.06-.75-10.13-1.51-15.18-2.26-.43,1.26-.81,2.57-1.14,3.93h0c-.08.34-.16.69-.23,1.04-.32,1.52-.57,3.11-.72,4.76,0,0-.08.9-.13,1.81-.6,11.83,3.95,23.8,3.95,23.8,3.39,8.9,8.21,15.29,11.74,19.24,0-.7,0-1.05,0-1.05,0,0,0,1.26.01,3.77.47,1.23,1.09,1.95,1.55,2.38,1.09,1.01,2.07,1.08,3.69,2.46,1.83,1.56,1.11,1.98,2.8,3.69,1.8,1.83,2.95,1.73,4.78,3.59,1.84,1.84,1,2.19,2.8,3.69,1.8,1.51,2.85,1.3,5.01,2.89.38.28.68.52.93.75,28.62,0,57.24,0,85.85,0-.41-1.33-.33-2.73.14-4.16.29-.89.73-1.78,1.28-2.66.67-1.06,1.51-2.11,2.48-3.11,1.07-1.12,2.3-2.18,3.62-3.16,1.25-.93,2.57-1.77,3.92-2.5.07-.04.14-.08.22-.12,2.07-1.09,6.64-3.52,12.29-4.18,1.58-.18,3.25-.23,4.97-.06,1.38.13,2.8.4,4.23.83,5.37,1.62,6.12,4.13,9.44,4.58,1.02.14,1.87.03,2.6-.27,1.4-.59,2.44-1.59,3.28-2.84,0,0,0,0,0,0,.1-.15.2-.29.29-.45,0,0,0,0,0,0,.06-.1.12-.2.18-.31.73-1.26,1.33-2.72,1.96-4.25.64-1.57,2.79-6.44,5.62-9.49,1.36-1.47,4.31-4.09,9.93-5.37.44-1.28.88-2.55,1.31-3.83-3.17-.38-8.21-1.11-10.87-2.27h0c-.26-.12-.5-.23-.72-.36-.65-.38-1.05-.79-1.08-1.25-.01-.21.06-.43.19-.66.2-.35.55-.72,1.02-1.09.09-.07.18-.14.28-.21.23-.17.49-.33.77-.49,2.12-1.22,5.43-2.19,8.6-1.87,1.12.11,2.18.31,3.2.57.73.19,1.44.41,2.14.66h0c.61.22,1.21.46,1.8.72,3.7,1.61,7.18,3.87,11.78,5.72,3.57,1.44,8.15,2.78,14.01,3.44.91.1,1.86.19,2.84.26.73.05,1.47.09,2.24.12.54.02,1.09.04,1.65.05.94.01,1.9.01,2.89,0,.2,0,.4,0,.6-.01.05,0,.09,0,.14,0,.72-.02,1.45-.05,2.19-.09,1.15-.06,2.34-.15,3.56-.26,1.52-.14,3.09-.32,4.71-.54.52-.07,1.05-.15,1.59-.23-.15-1.79-.98-3.21-1.9-4.29ZM175.12,66.73c-1.08.77-.28,1.75-1.79,3.99,0,0-1.11,1.48-2.78,2.4-2.77,1.53-9.7,1.03-15.87-.4-1.92-.44-3.76-.98-5.38-1.58h0c-1.47-.54-2.76-1.13-3.76-1.74h0c-.75-.46-1.33-.93-1.7-1.41-.89-1.14-.48-2.18.56-3.13.16-.15.34-.29.53-.43,3.19-2.39,10.01-4.13,8.73-5.18-.45-.37-1.79-.58-3.55-.62h0c-.72-.02-1.52,0-2.35.04h0c-.32.02-.65.04-.98.06-3.9.3-8.36,1.23-10.41,2.9-.8.65-1.24,1.41-1.13,2.29.19,1.47,1.58,2.35,2.7,5.17.11.27.21.56.31.88.62,1.94.48,2.76.5,3.48,0,.01,0,.03,0,.04.01.41.09.8.41,1.35.89,1.58,2.69,2.69,4.83,3.67h0c3.88,1.78,8.86,3.1,11.46,5.95.33.37.6.72.8,1.07,1.7,2.91-.67,5.4-1.75,8.24-.6,1.59-.8,3.28.35,5.22.32.54.74,1.09,1.29,1.67.8.84,1.61,1.46,1.99,1.95h0c.21.27.29.49.17.69-.57.93-5.6.13-11.8-1.59-.53-.15-1.08-.3-1.63-.47-3.57-1.05-7.43-2.37-10.99-3.81-5-2.02-13.44-5.46-19.24-11.32-1.29-1.29-4.46-4.52-4.91-7.73h0c-.11-.78-.06-1.55.21-2.29.01-.04.03-.08.04-.12.04-.1.1-.26.21-.47.27-.53.78-1.34,1.74-2.06.86-.64,2.09-1.21,3.83-1.44,1.94-.26,2.43.17,3.5-.13.87-.24,1.39-.74,1.64-1.43.39-1.03.19-2.46-.3-4-.09-.28-.19-.57-.3-.86-.19-.51-.4-1.02-.63-1.52-.91-2.03-2.04-3.96-2.71-5.11-.18-.3-.35-.6-.53-.88h0c-2.23-3.66-4.12-5.92-2.47-6.68.29-.14.63-.2,1.01-.21,1.4-.06,3.36.47,5.61-.17,2.05-.6,1.63-1.41,3.51-1.64,2.95-.36,5.85,1.35,6.68.9.57-.31-.45-1.36-2.2-2.97h0c-.78-.72-1.7-1.55-2.69-2.49-1.15-1.09-2.4-2.31-3.61-3.64h0c-.98-1.08-1.94-2.23-2.82-3.45-1.44-2.01-3.35-4.69-3.45-7.7-.04-.79-.1-1.96.18-3.12.41-1.69,1.54-3.34,4.53-3.72,4.63-.58,11.49,2.17,15.09,4.13,2.98,1.64,2.99,2.34,4.57,2.75,3.4.9,5.2-1.86,7.85-4.01.83-.68,1.73-1.29,2.8-1.72,1.2-.49,2.61-.74,4.32-.56,4.22.45,6.49,2.89,11.15,5.54,1.85,1.05,4.08,2.13,6.96,3.13,5.41,1.89,11.14,2.78,16.27,2.97,3.92.14,7.5-.12,10.34-.66,4.91-.93,7.28-2.62,9.8-3.6,1.19-.46,2.42-.77,3.97-.76.74,0,1.56.08,2.49.25,2.67.49,7.23,1.88,9.14,3.99h0c.72.79.99,1.59.91,2.4-.13,1.45-1.35,2.91-3.04,4.34-2.69,2.27-6.58,4.45-9.16,6.31-.22.15-.42.31-.62.46-.15.11-.28.22-.42.33-.07.06-.14.12-.21.17-.03.02-.05.05-.08.07-.03.02-.05.05-.08.07-.01.01-.03.02-.04.04-.06.06-.12.11-.18.17-.06.06-.12.11-.17.17-.02.02-.04.04-.06.06-.02.02-.04.04-.06.06-.06.06-.1.11-.15.17-.04.05-.08.09-.12.14-.02.03-.04.06-.06.08-.02.03-.04.05-.06.08-.02.03-.04.06-.06.09-.03.05-.07.1-.1.16,0,0,0,0,0,0-.02.03-.03.06-.04.08-.01.03-.03.05-.04.08-.02.04-.03.08-.05.12-.01.04-.03.07-.03.11,0,.02-.01.04-.02.06,0,.01,0,.02,0,.03v.03s0,.01,0,.02c0,0,0,.01,0,.02,0,.01,0,.02,0,.03,0,0,0,.02,0,.03,0,0,0,.01,0,.02-.02.34.13.66.5.94,1.05.82,2.56.36,4.5,1.46.05.03.1.06.15.09.02.01.05.03.07.04,0,0,.01,0,.02,0,0,0,.01,0,.02.01,0,0,0,0,.01,0,.05.03.11.07.16.1.08.05.15.1.22.16.03.03.07.05.1.08.03.02.06.05.1.08.06.05.12.1.18.16.05.05.1.1.15.15.07.07.13.14.19.21.04.04.07.08.1.12,0,0,0,0,0,0,0,0,0,0,.01.01,0,0,0,0,0,0,0,0,0,0,0,0h0s.07.09.1.13c.02.02.03.04.05.07.02.03.04.05.06.08.03.04.06.08.08.13.04.06.07.12.11.18.02.04.04.07.06.11.03.05.05.09.07.14.05.1.09.19.13.29,0,0,0,0,0,0,.24.6.35,1.24.37,1.91.01.49-.03.99-.12,1.51-.17,1.02-.5,2.07-.93,3.1-.02.06-.05.11-.07.17-.02.06-.05.11-.07.17-.02.06-.05.11-.07.16-.02.06-.05.11-.07.16-.05.11-.1.23-.16.34-.05.1-.1.21-.15.31-.01.02-.02.04-.03.07-.04.08-.08.17-.13.25-.05.1-.11.21-.16.31-.16.31-.33.62-.5.91-.06.1-.11.2-.17.29-.1.17-.19.33-.29.49-.02.04-.05.08-.07.12-.02.04-.05.08-.07.12-.05.08-.1.15-.14.23,0,0,0,0,0,.01,0,0-.01.02-.02.03-.06.1-.12.2-.19.3-.07.11-.14.22-.21.32,0,0,0,0,0,0-.05.08-.1.16-.15.23-.05.08-.11.16-.16.23-.07.1-.13.19-.2.29-.23.33-.43.62-.61.86-.1.14-.19.27-.28.38-.06.08-.12.16-.17.22-.48.65-.93,1.2-1.34,1.65h0c-1.97,2.18-3.2,2.38-3.99,2.45-.57.05-1.12.04-1.68,0-.22-.02-.45-.05-.67-.08-3.85-.57-8.25-3.06-17.82-5.2-4.81-1.09-11-2.48-13.15-.97Z"/>
      <path class="cls-1" d="M147.76,54.12c.86.17,1.56.21,2.03.09.12-.03.22-.08.3-.13-.72-.01-1.5,0-2.33.04ZM128.53,42.73h0c-2.42-2.23-6.22-5.56-9.12-9.58-1.21-1.68-2.75-3.84-3.27-6.27-.1-.47-.16-.95-.18-1.44-.03-.56-.07-1.3,0-2.09-.14.02-.26.04-.39.05-3.86.43-5.72-.94-9.63-.39-1.53.21-2.7.78-3.56,1.58-.78.73-1.32,1.65-1.65,2.71h0c5.92,11.56,18.3,17.19,18.98,17.47.85.35,1.66.65,2.4.91.51-.39.8-.74,1.94-.88.6-.07,1.2-.06,1.78,0,2.26.25,4.24,1.26,4.9.9.57-.31-.45-1.36-2.2-2.97ZM153.94,105.32h38.31c-.67-.36-1.29-.75-1.84-1.18-1.16-.91-1.92-1.91-2.34-2.98-.41-1.04-.49-2.13-.32-3.25.2-1.31.77-2.65,1.6-3.97.78-1.23,1.79-2.45,2.96-3.6.96-.94,2.02-1.84,3.14-2.68,1.31-.97,2.71-1.86,4.14-2.61,1.67-.88,4.97-2.64,9.15-3.62h0c1-.24,2.05-.43,3.14-.55,2.85-.33,5.98-.21,9.2.77,5.37,1.62,6.12,4.13,9.44,4.58,5.88.82,6.1-6.63,9.68-12.78h0c1.02-1.75,2.31-3.39,4.08-4.71,1.73-1.29,3.92-2.27,6.76-2.73.24-.04.96-.03,1.87-.31.73-.22,2.62-.94,2.79-1.73.28-1.27-3.51-2.85-7.03-4.54h0c-1.22-.58-2.4-1.18-3.38-1.79-.44-.27-.83-.55-1.17-.82h0c-.53-.43-.91-.86-1.09-1.29-.16-.38-.18-.75-.08-1.1.1-.38.35-.75.7-1.08,1.4-1.34,4.57-2.28,8.25-2.24.65,0,1.32.04,1.99.11,1.12.11,2.18.31,3.2.57.73.19,1.44.41,2.14.66h0c4.42,1.59,8.25,4.28,13.58,6.43,3.56,1.44,8.12,2.77,13.96,3.43.06,0,.12.01.17.02h0c.88.1,1.78.18,2.72.24,1.5.1,3.07.16,4.72.17.03,0,.07,0,.1,0,.88,0,1.78,0,2.71-.03,1.58-.04,3.22-.14,4.94-.28,1.67-.14,3.41-.33,5.22-.57.53-.07,1.07-.15,1.62-.23.09-.01.19-.03.28-.04-.2-2.38-1.6-4.1-2.79-5.23-1.07-.99-2.13-1.63-3.13-2.24h0c-1.21-.73-2.32-1.42-3.24-2.62-.41-.53-.61-.94-.72-1.29-.1-.3-.13-.56-.19-.82h0c-.1-.48-.26-.96-.98-1.71-.41-.43-.83-.75-1.25-1.02-.29-.19-.58-.35-.88-.5-1.05-.53-2.19-.95-3.57-1.95-2.28-1.66-2.51-2.93-2.99-4.21-.37-.98-.88-1.98-2.56-3.16-1.09-.78-1.79-1-2.83-1.38-.92-.34-2.1-.8-4.06-1.88-4.6-2.51-4.06-3.26-7.44-4.71-3.6-1.54-5.28-1.17-8.04-2.86-1.74-1.09-1.38-1.44-3.17-2.55-2.55-1.6-5.07-1.95-8.04-2.86-1.56-.48-2.89-1.01-4.08-1.56,0,0,0,0-.01,0-1.95-.9-3.5-1.86-5.05-2.74,0,0-.02-.01-.03-.01-.25-.14-.5-.28-.75-.42-.98-.54-2.17-1.14-3.65-1.81,0,0-.02,0-.02-.01,0,0-.01,0-.02,0-.78-.36-1.65-.73-2.6-1.13-1.07-.45-2.26-.92-3.58-1.42-.12-.05-.24-.09-.36-.14-.33-.12-.66-.25-1.01-.38-.41-.15-.83-.3-1.26-.46-4.22-1.53-9.57-3.28-16.36-5.29-.43.58-.86,1.16-1.3,1.74-.43.58-.87,1.16-1.3,1.74-2.42,2.53-4.87,4.51-7.3,6.04-1.41.88-2.81,1.61-4.2,2.22-1.63.71-3.25,1.24-4.84,1.62-2.33.56-4.59.8-6.75.82-1.79.02-3.51-.11-5.14-.33-.83-.12-1.64-.26-2.43-.42-1.67-.34-3.25-.78-4.77-1.29-9.99-3.35-17.47-9.74-30.78-11.65-.89-.13-2.38-.32-4.71-.24-2.11.07-4.91.35-8.55,1.09h0c-4.12.84-9.34,2.27-15.88,4.64-.59.21-1.2.44-1.81.67-.99.37-2.02.77-3.07,1.19-3.88,1.55-8.12,3.42-12.52,5.68-.39.2-.77.4-1.16.6h0c-2.02,1.06-4.07,2.2-6.13,3.43-.78.46-1.56.94-2.34,1.43-.13.08-.26.16-.39.24-1.18.75-2.37,1.52-3.54,2.33-.98-.15-1.96-.29-2.94-.44-5.22-.78-10.46-1.56-15.67-2.33-.36,1.05-.68,2.13-.97,3.25,0,0,0,0,0,0h0c-.15.57-.28,1.14-.4,1.72h0c-.32,1.52-.57,3.11-.72,4.76-.2,2.13-.23,4.26-.13,6.37.73,14.89,8.43,28.96,15.68,39.26-.43,2.07.59,3.45,1.57,4.31,1.22,1.04,2.16,1.15,3.69,2.46,1.83,1.56,1.11,1.98,2.8,3.69,1.8,1.83,2.95,1.73,4.78,3.59,1.84,1.84,1,2.19,2.8,3.69,1.8,1.5,2.85,1.3,5.01,2.89,2.25,1.63,1.66,2.23,4.05,4.35.39.34.78.66,1.17.96h47.18M208.44,68.42c-.56.05-1.12.04-1.68,0-4.03-.35-8.36-3.01-18.49-5.28-4.63-1.05-10.54-2.38-12.89-1.12-.09.05-.18.1-.26.16-.37.26-.52.55-.61.9h0s0,0,0,0c-.19.68-.18,1.61-1.17,3.09,0,0-1.11,1.48-2.78,2.4-.38.21-.85.38-1.38.52h0s0,0,0,0c-.57.15-1.21.25-1.92.32-.39.04-.8.06-1.23.08-3.26.11-7.45-.42-11.34-1.32-.3-.07-.61-.14-.91-.22-3.31-.83-6.33-1.92-8.25-3.1-.22-.13-.42-.27-.61-.41-.46-.33-.82-.66-1.08-1-1.41-1.81.44-3.37,2.91-4.7.12-.07.25-.13.38-.2,3.35-1.71,7.55-3,6.52-3.85-.45-.37-1.79-.58-3.56-.62h0c-.72-.01-1.5,0-2.33.04h0c-2.59.13-5.56.56-7.96,1.3-2.77.86-4.79,2.16-4.57,3.94.1.79.56,1.42,1.13,2.27.59.87,1.3,1.99,1.88,3.78.63,1.97.47,2.79.5,3.51.01.41.09.8.41,1.35.52.93,1.36,1.7,2.4,2.37.73.47,1.55.9,2.43,1.3,1.54.7,3.25,1.34,4.92,2.02,2.54,1.05,4.97,2.21,6.54,3.93,1.86,2.03,1.58,3.83.8,5.63-1.09,2.53-3.19,5.06-1.75,8.24.33.74.86,1.52,1.64,2.33,1.24,1.3,2.49,2.08,2.16,2.64-.27.44-1.54.49-3.45.24-2.13-.28-5.07-.93-8.34-1.83,0,0,0,0,0,0-4.01-1.11-8.52-2.61-12.63-4.28-1.8-.73-4.05-1.64-6.46-2.78-.04-.02-.09-.04-.13-.06-.33-.16-.66-.32-.99-.48-.1-.05-.21-.1-.32-.16,0,0,0,0,0,0,0,0,0,0,0,0-.54-.27-1.08-.55-1.62-.84h0c-3.4-1.83-6.87-4.12-9.72-6.99-.84-.84-2.46-2.48-3.62-4.41h0c-.32-.53-.6-1.08-.83-1.64-.53-1.32-.72-2.69-.25-3.97.01-.04.03-.08.04-.12.24-.58,1.3-3.27,5.56-3.93.07-.01.15-.02.22-.03,1.94-.26,2.43.17,3.5-.13.61-.17,1.05-.46,1.34-.87.13-.17.23-.36.3-.56.09-.23.15-.48.18-.75.1-.91-.1-2.02-.46-3.19-.87-2.8-2.71-5.94-3.65-7.55-.71-1.21-1.41-2.28-2-3.22-1.45-2.3-2.27-3.77-1.01-4.35,1.38-.64,3.76.43,6.61-.39.81-.24,1.24-.51,1.57-.76.51-.39.8-.74,1.94-.88.6-.07,1.2-.06,1.78,0,2.26.25,4.24,1.26,4.9.9.57-.31-.45-1.36-2.2-2.97h0c-2.42-2.23-6.22-5.56-9.12-9.58-1.21-1.68-2.75-3.84-3.27-6.27-.1-.47-.16-.95-.18-1.44-.03-.56-.07-1.3,0-2.09.19-1.99,1.1-4.29,4.7-4.75.13-.02.26-.03.4-.04,4.61-.39,11.19,2.26,14.69,4.17,2.98,1.64,2.99,2.34,4.57,2.75,2.73.72,4.43-.91,6.36-2.7.47-.44.96-.89,1.48-1.31,1.76-1.44,3.9-2.62,7.12-2.28,3.23.34,5.31,1.85,8.2,3.73,1.77,1.15,3.83,2.43,6.64,3.66.99.44,2.07.86,3.27,1.28,5.41,1.88,11.13,2.78,16.27,2.97,3.92.15,7.5-.12,10.34-.66.89-.17,1.69-.36,2.43-.57.68-.19,1.31-.4,1.88-.61,2.26-.83,3.84-1.77,5.48-2.42,1.77-.69,3.61-1.03,6.46-.51,2.29.42,5.97,1.5,8.17,3.13.37.27.7.56.97.86.53.59.82,1.18.9,1.78.13.92-.23,1.85-.9,2.77-.53.73-1.27,1.46-2.12,2.18-1.33,1.12-2.96,2.22-4.57,3.27-4.42,2.88-8.75,5.37-6.76,6.92.58.45,1.31.51,2.17.67.69.12,1.47.3,2.33.79.63.36,1.13.78,1.5,1.25,1.01,1.25,1.2,2.86.91,4.56-.01.08-.02.15-.04.23-.06.3-.13.6-.21.91-.01.06-.03.11-.05.17-.01.05-.03.09-.04.14-.02.06-.04.12-.06.19-.01.04-.02.08-.04.12-.01.04-.03.08-.04.12-.06.19-.13.37-.19.55,0,0,0,.02-.01.03-.05.13-.1.27-.16.4-.03.08-.07.16-.1.24-.01.04-.03.07-.05.11-.15.36-.32.72-.49,1.07-.04.09-.08.18-.13.26-.03.06-.06.12-.09.18-.03.06-.06.12-.09.18-.07.14-.14.27-.21.4-.04.07-.07.13-.11.2-.03.07-.07.13-.11.2-.04.07-.07.13-.11.19-.03.07-.07.13-.11.19-.08.13-.15.26-.22.38-.04.06-.07.12-.11.19-.11.19-.23.37-.34.55-.11.17-.21.34-.32.5-.05.08-.1.15-.15.22-.05.07-.09.14-.14.21-.04.06-.07.11-.11.16-.07.11-.14.21-.21.31-.03.05-.07.1-.1.15-.06.09-.12.18-.18.26,0,0-.01.01-.02.02-.03.05-.06.09-.09.13-.14.19-.26.36-.37.51-.04.06-.08.11-.12.16-.07.09-.13.17-.18.24-.48.65-.93,1.2-1.34,1.65h0c-1.97,2.18-3.2,2.38-3.99,2.46Z"/>
      <path class="cls-1" d="M218.48,55.08c-.02-.05-.04-.1-.07-.14-.02-.04-.04-.08-.06-.11-.03-.06-.07-.12-.11-.18-.02-.04-.05-.09-.08-.13-.02-.03-.04-.05-.06-.08-.01-.02-.03-.04-.04-.07-.04-.04-.07-.09-.11-.13h-.01s-.01-.02-.01-.02t-.01-.01s-.06-.08-.1-.12c-.06-.07-.12-.14-.19-.21-.05-.05-.1-.1-.16-.15-.05-.05-.11-.1-.18-.15-.03-.03-.06-.06-.09-.08-.03-.03-.07-.05-.1-.08-.07-.05-.15-.11-.22-.16-.06-.03-.11-.07-.16-.1-.01,0-.01-.01-.01-.01-.01,0-.02-.01-.02-.01-.01,0-.01-.01-.02-.01-.02-.02-.05-.03-.07-.05-.05-.03-.1-.06-.15-.08-1.94-1.1-3.45-.65-4.5-1.47-.37-.28-.52-.6-.5-.94v-.02s.01-.02.01-.03v-.05s.01-.01.01-.02v-.03s.01-.02.01-.04.01-.04.02-.06c.01-.04.02-.07.03-.11s.03-.07.05-.11c0-.03.02-.06.04-.08,0-.03.03-.06.04-.08h0c.03-.06.07-.11.1-.17.02-.03.04-.05.06-.08.02-.03.04-.06.06-.08l.06-.09s.08-.09.12-.14c.05-.06.1-.11.16-.17.01-.02.03-.04.05-.06.02-.01.04-.04.06-.05.05-.06.11-.11.17-.17.06-.05.12-.11.18-.17.01-.01.03-.02.04-.03.03-.02.05-.05.08-.07.02-.02.05-.05.08-.07.06-.06.13-.11.2-.17-1.47-1.02-3.37-2.1-5.69-2.99-2.31-.87-2.71-.68-7.13-2.06-3.63-1.16-6-2.13-7.43-2.67-1.63-.62-3.59-1.27-5.68-1.87-.24.4-.3.88-.15,1.36.26.85,1.09,1.48,2.06,2.09-.64.12-1.19.62-1.57,1.21,1.89.54,3.64,1.13,5.14,1.69.07.03.13.06.2.08,1.43.54,3.8,1.51,7.43,2.66,4.42,1.39,4.82,1.2,7.13,2.07,5.42,2.06,8.53,5.24,9.26,6,.08.08.57.61,1.14,1.32.03.04.07.08.1.12.02-.04.03-.07.05-.11.03-.08.06-.16.09-.24.06-.14.11-.27.16-.41,0,0,.01-.01.01-.02.07-.19.14-.37.2-.56.01-.04.02-.08.04-.12.01-.04.02-.08.03-.12.02-.06.04-.12.06-.19.02-.04.03-.09.04-.14.02-.05.03-.11.05-.16h0c-.05-.11-.09-.2-.14-.3ZM115.58,18.85c-2.54.47-4.35,0-6.18-.29h-.01c-.26.11-.52.22-.78.33-.27.11-.53.23-.8.34-.24.1-.48.21-.72.31-.3.14-.6.27-.9.4-.01.01-.02.01-.03.02-.24.1-.48.21-.73.32-.16.08-.33.15-.5.23-.15.07-.31.14-.46.21-.26.12-.52.24-.77.36-.18.08-.36.17-.53.25-.72.34-1.44.69-2.16,1.04l-.18.09c-.42,1.16-.59,2.5-.56,3.9.15.32.3.63.46.94.34-1.05.88-1.98,1.66-2.7.86-.81,2.03-1.37,3.56-1.58,3.9-.55,5.76.82,9.63.39.12-.01.25-.03.38-.05,1.2-.17,2.88-.61,4.84-1.79.09-1,.18-2,.26-3,.11-1.2.21-2.4.31-3.59-.53,1.49-2.4,3.26-5.79,3.87ZM305.87,75.11c.84-.13,2.1.88,3.18,1.19-.55-2.39-1.68-5.21-4.01-7.59-.66-.67-1.38-1.27-2.12-1.8-1.62-1.16-3.37-1.99-4.84-2.48-.29-.57-.6-1.15-.91-1.73-.2-.37-.41-.74-.62-1.12-.26.02-.56.03-.92.01-.71-.04-1.45-.18-2.18-.38.34.51.68,1.02,1.01,1.52.05.08.1.15.14.22.22.33.42.66.63.98.05.09.11.19.17.28.63,1.02,1.22,2.03,1.77,3.05.09.17.18.34.27.51.18.34.36.67.53,1,.13.27.27.54.4.81.08.17.16.34.24.51,2.33,4.87,3.79,9.72,4.28,14.46.04.42.08.84.11,1.25.03-.49.06-.98.07-1.48.83-1.05,1.54-2.03,2.06-2.96-.43-.05-.96.08-1.41.22.31-1.84.61-3.68.92-5.52.38.38.76.75,1.14,1.13-.02-.05-.04-.09-.06-.14-.13-.34-.78-1.8.15-1.94ZM233.85,20.59c.3,1.27.68,2.17,1.1,2.65.24.28.74.71,2.94,2.94,1.29,1.29,1.83,1.86,2.72,2.13,1.16.33,1.46-.27,2.72.04,1.54.37,1.94,1.52,3.46,1.96,1.34.39,1.79-.26,3.01-.26.62,0,1.37.17,2.22.46-5.63-3.52-11.71-6.85-18.17-9.92ZM218.48,55.08c-.02-.05-.04-.1-.07-.14-.02-.04-.04-.08-.06-.11-.03-.06-.07-.12-.11-.18-.02-.04-.05-.09-.08-.13-.02-.03-.04-.05-.06-.08-.01-.02-.03-.04-.04-.07-.04-.04-.07-.09-.11-.13h-.01s-.01-.02-.01-.02t-.01-.01s-.06-.08-.1-.12c-.06-.07-.12-.14-.19-.21-.05-.05-.1-.1-.16-.15-.05-.05-.11-.1-.18-.15-.03-.03-.06-.06-.09-.08-.03-.03-.07-.05-.1-.08-.07-.05-.15-.11-.22-.16-.06-.03-.11-.07-.16-.1-.01,0-.01-.01-.01-.01-.01,0-.02-.01-.02-.01-.01,0-.01-.01-.02-.01-.02-.02-.05-.03-.07-.05-.05-.03-.1-.06-.15-.08-1.94-1.1-3.45-.65-4.5-1.47-.37-.28-.52-.6-.5-.94v-.02s.01-.02.01-.03v-.05s.01-.01.01-.02v-.03s.01-.02.01-.04.01-.04.02-.06c.01-.04.02-.07.03-.11s.03-.07.05-.11c0-.03.02-.06.04-.08,0-.03.03-.06.04-.08h0c.03-.06.07-.11.1-.17.02-.03.04-.05.06-.08.02-.03.04-.06.06-.08l.06-.09s.08-.09.12-.14c.05-.06.1-.11.16-.17.01-.02.03-.04.05-.06.02-.01.04-.04.06-.05.05-.06.11-.11.17-.17.06-.05.12-.11.18-.17.01-.01.03-.02.04-.03.03-.02.05-.05.08-.07.02-.02.05-.05.08-.07.06-.06.13-.11.2-.17-1.47-1.02-3.37-2.1-5.69-2.99-2.31-.87-2.71-.68-7.13-2.06-3.63-1.16-6-2.13-7.43-2.67-1.63-.62-3.59-1.27-5.68-1.87-.24.4-.3.88-.15,1.36.26.85,1.09,1.48,2.06,2.09-.64.12-1.19.62-1.57,1.21,1.89.54,3.64,1.13,5.14,1.69.07.03.13.06.2.08,1.43.54,3.8,1.51,7.43,2.66,4.42,1.39,4.82,1.2,7.13,2.07,5.42,2.06,8.53,5.24,9.26,6,.08.08.57.61,1.14,1.32.03.04.07.08.1.12.02-.04.03-.07.05-.11.03-.08.06-.16.09-.24.06-.14.11-.27.16-.41,0,0,.01-.01.01-.02.07-.19.14-.37.2-.56.01-.04.02-.08.04-.12.01-.04.02-.08.03-.12.02-.06.04-.12.06-.19.02-.04.03-.09.04-.14.02-.05.03-.11.05-.16h0c-.05-.11-.09-.2-.14-.3ZM115.58,18.85c-2.54.47-4.35,0-6.18-.29h-.01c-.26.11-.52.22-.78.33-.27.11-.53.23-.8.34-.24.1-.48.21-.72.31-.3.14-.6.27-.9.4-.01.01-.02.01-.03.02-.24.1-.48.21-.73.32-.16.08-.33.15-.5.23-.15.07-.31.14-.46.21-.26.12-.52.24-.77.36-.18.08-.36.17-.53.25-.72.34-1.44.69-2.16,1.04l-.18.09c-.42,1.16-.59,2.5-.56,3.9.15.32.3.63.46.94.34-1.05.88-1.98,1.66-2.7.86-.81,2.03-1.37,3.56-1.58,3.9-.55,5.76.82,9.63.39.12-.01.25-.03.38-.05,1.2-.17,2.88-.61,4.84-1.79.09-1,.18-2,.26-3,.11-1.2.21-2.4.31-3.59-.53,1.49-2.4,3.26-5.79,3.87ZM305.87,75.11c.84-.13,2.1.88,3.18,1.19-.55-2.39-1.68-5.21-4.01-7.59-.66-.67-1.38-1.27-2.12-1.8-1.62-1.16-3.37-1.99-4.84-2.48-.29-.57-.6-1.15-.91-1.73-.2-.37-.41-.74-.62-1.12-.26.02-.56.03-.92.01-.71-.04-1.45-.18-2.18-.38.34.51.68,1.02,1.01,1.52.05.08.1.15.14.22.22.33.42.66.63.98.05.09.11.19.17.28.63,1.02,1.22,2.03,1.77,3.05.09.17.18.34.27.51.18.34.36.67.53,1,.13.27.27.54.4.81.08.17.16.34.24.51,2.33,4.87,3.79,9.72,4.28,14.46.04.42.08.84.11,1.25.03-.49.06-.98.07-1.48.83-1.05,1.54-2.03,2.06-2.96-.43-.05-.96.08-1.41.22.31-1.84.61-3.68.92-5.52.38.38.76.75,1.14,1.13-.02-.05-.04-.09-.06-.14-.13-.34-.78-1.8.15-1.94ZM233.85,20.59c.3,1.27.68,2.17,1.1,2.65.24.28.74.71,2.94,2.94,1.29,1.29,1.83,1.86,2.72,2.13,1.16.33,1.46-.27,2.72.04,1.54.37,1.94,1.52,3.46,1.96,1.34.39,1.79-.26,3.01-.26.62,0,1.37.17,2.22.46-5.63-3.52-11.71-6.85-18.17-9.92ZM305.87,75.11c.84-.13,2.1.88,3.18,1.19-.55-2.39-1.68-5.21-4.01-7.59-.66-.67-1.38-1.27-2.12-1.8-1.62-1.16-3.37-1.99-4.84-2.48-.29-.57-.6-1.15-.91-1.73-.2-.37-.41-.74-.62-1.12-.26.02-.56.03-.92.01-.71-.04-1.45-.18-2.18-.38.34.51.68,1.02,1.01,1.52.05.08.1.15.14.22.22.33.42.66.63.98.05.09.11.19.17.28.63,1.02,1.22,2.03,1.77,3.05.09.17.18.34.27.51.18.34.36.67.53,1,.13.27.27.54.4.81.08.17.16.34.24.51,2.33,4.87,3.79,9.72,4.28,14.46.04.42.08.84.11,1.25.03-.49.06-.98.07-1.48.83-1.05,1.54-2.03,2.06-2.96-.43-.05-.96.08-1.41.22.31-1.84.61-3.68.92-5.52.38.38.76.75,1.14,1.13-.02-.05-.04-.09-.06-.14-.13-.34-.78-1.8.15-1.94ZM234.95,23.24c.24.28.74.71,2.94,2.94,1.29,1.29,1.83,1.86,2.72,2.13,1.16.33,1.46-.27,2.72.04,1.54.37,1.94,1.52,3.46,1.96,1.34.39,1.79-.26,3.01-.26.62,0,1.37.17,2.22.46-5.63-3.52-11.71-6.85-18.17-9.92.3,1.27.68,2.17,1.1,2.65ZM218.83,54.47c-.3-.07-.59-.15-.88-.23h-.01s-.01-.02-.01-.02t-.01-.01s-.06-.08-.1-.12c-.06-.07-.12-.14-.19-.21-.05-.05-.1-.1-.16-.15-.05-.05-.11-.1-.18-.15-.03-.03-.06-.06-.09-.08-.03-.03-.07-.05-.1-.08-.07-.05-.15-.11-.22-.16-.06-.03-.11-.07-.16-.1-.01,0-.01-.01-.01-.01-.01,0-.02-.01-.02-.01-.01,0-.01-.01-.02-.01-.02-.02-.05-.03-.07-.05-.05-.03-.1-.06-.15-.08-1.94-1.1-3.45-.65-4.5-1.47-.37-.28-.52-.6-.5-.94v-.02s.01-.02.01-.03v-.05s.01-.01.01-.02v-.03s.01-.02.01-.04.01-.04.02-.06c.01-.04.02-.07.03-.11s.03-.07.05-.11c0-.03.02-.06.04-.08,0-.03.03-.06.04-.08h0c.03-.06.07-.11.1-.17.02-.03.04-.05.06-.08.02-.03.04-.06.06-.08l.06-.09s.08-.09.12-.14c.05-.06.1-.11.16-.17.01-.02.03-.04.05-.06.02-.01.04-.04.06-.05.05-.06.11-.11.17-.17.06-.05.12-.11.18-.17.01-.01.03-.02.04-.03.03-.02.05-.05.08-.07.02-.02.05-.05.08-.07.06-.06.13-.11.2-.17-1.47-1.02-3.37-2.1-5.69-2.99-2.31-.87-2.71-.68-7.13-2.06-3.63-1.16-6-2.13-7.43-2.67-1.63-.62-3.59-1.27-5.68-1.87-.24.4-.3.88-.15,1.36.26.85,1.09,1.48,2.06,2.09-.64.12-1.19.62-1.57,1.21,1.89.54,3.64,1.13,5.14,1.69.07.03.13.06.2.08,1.43.54,3.8,1.51,7.43,2.66,4.42,1.39,4.82,1.2,7.13,2.07,5.42,2.06,8.53,5.24,9.26,6,.08.08.57.61,1.14,1.32.03.04.07.08.1.12.02-.04.03-.07.05-.11.41.04.76.02,1.04-.05.07-.01.13-.04.18-.06.96-.37.59-1.53-.12-2.71-.07-.02-.14-.03-.21-.05ZM115.58,18.85c-2.54.47-4.35,0-6.18-.29h-.01c-.26.11-.52.22-.78.33-.27.11-.53.23-.8.34-.24.1-.48.21-.72.31-.3.14-.6.27-.9.4-.01.01-.02.01-.03.02-.24.1-.48.21-.73.32-.16.08-.33.15-.5.23-.15.07-.31.14-.46.21-.26.12-.52.24-.77.36-.18.08-.36.17-.53.25-.72.34-1.44.69-2.16,1.04l-.18.09c-.42,1.16-.59,2.5-.56,3.9.15.32.3.63.46.94.34-1.05.88-1.98,1.66-2.7.86-.81,2.03-1.37,3.56-1.58,3.9-.55,5.76.82,9.63.39.12-.01.25-.03.38-.05,1.2-.17,2.88-.61,4.84-1.79.09-1,.18-2,.26-3,.11-1.2.21-2.4.31-3.59-.53,1.49-2.4,3.26-5.79,3.87ZM233.85,20.59c.3,1.27.68,2.17,1.1,2.65.24.28.74.71,2.94,2.94,1.29,1.29,1.83,1.86,2.72,2.13,1.16.33,1.46-.27,2.72.04,1.54.37,1.94,1.52,3.46,1.96,1.34.39,1.79-.26,3.01-.26.62,0,1.37.17,2.22.46-5.63-3.52-11.71-6.85-18.17-9.92ZM305.87,75.11c.84-.13,2.1.88,3.18,1.19-.55-2.39-1.68-5.21-4.01-7.59-.66-.67-1.38-1.27-2.12-1.8-1.62-1.16-3.37-1.99-4.84-2.48-.29-.57-.6-1.15-.91-1.73-.2-.37-.41-.74-.62-1.12-.26.02-.56.03-.92.01-.71-.04-1.45-.18-2.18-.38.34.51.68,1.02,1.01,1.52.05.08.1.15.14.22.22.33.42.66.63.98.05.09.11.19.17.28.63,1.02,1.22,2.03,1.77,3.05.09.17.18.34.27.51.18.34.36.67.53,1,.13.27.27.54.4.81.08.17.16.34.24.51,2.33,4.87,3.79,9.72,4.28,14.46.04.42.08.84.11,1.25.03-.49.06-.98.07-1.48.83-1.05,1.54-2.03,2.06-2.96-.43-.05-.96.08-1.41.22.31-1.84.61-3.68.92-5.52.38.38.76.75,1.14,1.13-.02-.05-.04-.09-.06-.14-.13-.34-.78-1.8.15-1.94ZM115.58,18.85c-2.54.47-4.35,0-6.18-.29h-.01c-.26.11-.52.22-.78.33-.27.11-.53.23-.8.34-.24.1-.48.21-.72.31-.3.14-.6.27-.9.4-.01.01-.02.01-.03.02-.24.1-.48.21-.73.32-.16.08-.33.15-.5.23-.15.07-.31.14-.46.21-.26.12-.52.24-.77.36-.18.08-.36.17-.53.25-.72.34-1.44.69-2.16,1.04l-.18.09c-.42,1.16-.59,2.5-.56,3.9.15.32.3.63.46.94.34-1.05.88-1.98,1.66-2.7.86-.81,2.03-1.37,3.56-1.58,3.9-.55,5.76.82,9.63.39.12-.01.25-.03.38-.05,1.2-.17,2.88-.61,4.84-1.79.09-1,.18-2,.26-3,.11-1.2.21-2.4.31-3.59-.53,1.49-2.4,3.26-5.79,3.87ZM218.48,55.08c-.02-.05-.04-.1-.07-.14-.02-.04-.04-.08-.06-.11-.03-.06-.07-.12-.11-.18-.02-.04-.05-.09-.08-.13-.02-.03-.04-.05-.06-.08-.01-.02-.03-.04-.04-.07-.04-.04-.07-.09-.11-.13h-.01s-.01-.02-.01-.02t-.01-.01s-.06-.08-.1-.12c-.06-.07-.12-.14-.19-.21-.05-.05-.1-.1-.16-.15-.05-.05-.11-.1-.18-.15-.03-.03-.06-.06-.09-.08-.03-.03-.07-.05-.1-.08-.07-.05-.15-.11-.22-.16-.06-.03-.11-.07-.16-.1-.01,0-.01-.01-.01-.01-.01,0-.02-.01-.02-.01-.01,0-.01-.01-.02-.01-.02-.02-.05-.03-.07-.05-.05-.03-.1-.06-.15-.08-1.94-1.1-3.45-.65-4.5-1.47-.37-.28-.52-.6-.5-.94v-.02s.01-.02.01-.03v-.05s.01-.01.01-.02v-.03s.01-.02.01-.04.01-.04.02-.06c.01-.04.02-.07.03-.11s.03-.07.05-.11c0-.03.02-.06.04-.08,0-.03.03-.06.04-.08h0c.03-.06.07-.11.1-.17.02-.03.04-.05.06-.08.02-.03.04-.06.06-.08l.06-.09s.08-.09.12-.14c.05-.06.1-.11.16-.17.01-.02.03-.04.05-.06.02-.01.04-.04.06-.05.05-.06.11-.11.17-.17.06-.05.12-.11.18-.17.01-.01.03-.02.04-.03.03-.02.05-.05.08-.07.02-.02.05-.05.08-.07.06-.06.13-.11.2-.17-1.47-1.02-3.37-2.1-5.69-2.99-2.31-.87-2.71-.68-7.13-2.06-3.63-1.16-6-2.13-7.43-2.67-1.63-.62-3.59-1.27-5.68-1.87-.24.4-.3.88-.15,1.36.26.85,1.09,1.48,2.06,2.09-.64.12-1.19.62-1.57,1.21,1.89.54,3.64,1.13,5.14,1.69.07.03.13.06.2.08,1.43.54,3.8,1.51,7.43,2.66,4.42,1.39,4.82,1.2,7.13,2.07,5.42,2.06,8.53,5.24,9.26,6,.08.08.57.61,1.14,1.32.03.04.07.08.1.12.02-.04.03-.07.05-.11.03-.08.06-.16.09-.24.06-.14.11-.27.16-.41,0,0,.01-.01.01-.02.07-.19.14-.37.2-.56.01-.04.02-.08.04-.12.01-.04.02-.08.03-.12.02-.06.04-.12.06-.19.02-.04.03-.09.04-.14.02-.05.03-.11.05-.16h0c-.05-.11-.09-.2-.14-.3ZM233.85,20.59c.3,1.27.68,2.17,1.1,2.65.24.28.74.71,2.94,2.94,1.29,1.29,1.83,1.86,2.72,2.13,1.16.33,1.46-.27,2.72.04,1.54.37,1.94,1.52,3.46,1.96,1.34.39,1.79-.26,3.01-.26.62,0,1.37.17,2.22.46-5.63-3.52-11.71-6.85-18.17-9.92ZM305.87,75.11c.84-.13,2.1.88,3.18,1.19-.55-2.39-1.68-5.21-4.01-7.59-.66-.67-1.38-1.27-2.12-1.8-1.62-1.16-3.37-1.99-4.84-2.48-.29-.57-.6-1.15-.91-1.73-.2-.37-.41-.74-.62-1.12-.26.02-.56.03-.92.01-.71-.04-1.45-.18-2.18-.38.34.51.68,1.02,1.01,1.52.05.08.1.15.14.22.22.33.42.66.63.98.05.09.11.19.17.28.63,1.02,1.22,2.03,1.77,3.05.09.17.18.34.27.51.18.34.36.67.53,1,.13.27.27.54.4.81.08.17.16.34.24.51,2.33,4.87,3.79,9.72,4.28,14.46.04.42.08.84.11,1.25.03-.49.06-.98.07-1.48.83-1.05,1.54-2.03,2.06-2.96-.43-.05-.96.08-1.41.22.31-1.84.61-3.68.92-5.52.38.38.76.75,1.14,1.13-.02-.05-.04-.09-.06-.14-.13-.34-.78-1.8.15-1.94ZM115.58,18.85c-2.54.47-4.35,0-6.18-.29h-.01c-.26.11-.52.22-.78.33-.27.11-.53.23-.8.34-.24.1-.48.21-.72.31-.3.14-.6.27-.9.4-.01.01-.02.01-.03.02-.24.1-.48.21-.73.32-.16.08-.33.15-.5.23-.15.07-.31.14-.46.21-.26.12-.52.24-.77.36-.18.08-.36.17-.53.25-.72.34-1.44.69-2.16,1.04l-.18.09c-.42,1.16-.59,2.5-.56,3.9.15.32.3.63.46.94.34-1.05.88-1.98,1.66-2.7.86-.81,2.03-1.37,3.56-1.58,3.9-.55,5.76.82,9.63.39.12-.01.25-.03.38-.05,1.2-.17,2.88-.61,4.84-1.79.09-1,.18-2,.26-3,.11-1.2.21-2.4.31-3.59-.53,1.49-2.4,3.26-5.79,3.87ZM218.48,55.08c-.02-.05-.04-.1-.07-.14-.02-.04-.04-.08-.06-.11-.03-.06-.07-.12-.11-.18-.02-.04-.05-.09-.08-.13-.02-.03-.04-.05-.06-.08-.01-.02-.03-.04-.04-.07-.04-.04-.07-.09-.11-.13h-.01s-.01-.02-.01-.02t-.01-.01s-.06-.08-.1-.12c-.06-.07-.12-.14-.19-.21-.05-.05-.1-.1-.16-.15-.05-.05-.11-.1-.18-.15-.03-.03-.06-.06-.09-.08-.03-.03-.07-.05-.1-.08-.07-.05-.15-.11-.22-.16-.06-.03-.11-.07-.16-.1-.01,0-.01-.01-.01-.01-.01,0-.02-.01-.02-.01-.01,0-.01-.01-.02-.01-.02-.02-.05-.03-.07-.05-.05-.03-.1-.06-.15-.08-1.94-1.1-3.45-.65-4.5-1.47-.37-.28-.52-.6-.5-.94v-.02s.01-.02.01-.03v-.05s.01-.01.01-.02v-.03s.01-.02.01-.04.01-.04.02-.06c.01-.04.02-.07.03-.11s.03-.07.05-.11c0-.03.02-.06.04-.08,0-.03.03-.06.04-.08h0c.03-.06.07-.11.1-.17.02-.03.04-.05.06-.08.02-.03.04-.06.06-.08l.06-.09s.08-.09.12-.14c.05-.06.1-.11.16-.17.01-.02.03-.04.05-.06.02-.01.04-.04.06-.05.05-.06.11-.11.17-.17.06-.05.12-.11.18-.17.01-.01.03-.02.04-.03.03-.02.05-.05.08-.07.02-.02.05-.05.08-.07.06-.06.13-.11.2-.17-1.47-1.02-3.37-2.1-5.69-2.99-2.31-.87-2.71-.68-7.13-2.06-3.63-1.16-6-2.13-7.43-2.67-1.63-.62-3.59-1.27-5.68-1.87-.24.4-.3.88-.15,1.36.26.85,1.09,1.48,2.06,2.09-.64.12-1.19.62-1.57,1.21,1.89.54,3.64,1.13,5.14,1.69.07.03.13.06.2.08,1.43.54,3.8,1.51,7.43,2.66,4.42,1.39,4.82,1.2,7.13,2.07,5.42,2.06,8.53,5.24,9.26,6,.08.08.57.61,1.14,1.32.03.04.07.08.1.12.02-.04.03-.07.05-.11.03-.08.06-.16.09-.24.06-.14.11-.27.16-.41,0,0,.01-.01.01-.02.07-.19.14-.37.2-.56.01-.04.02-.08.04-.12.01-.04.02-.08.03-.12.02-.06.04-.12.06-.19.02-.04.03-.09.04-.14.02-.05.03-.11.05-.16h0c-.05-.11-.09-.2-.14-.3ZM219.04,54.52c-.07-.02-.14-.03-.21-.05-.3-.07-.59-.15-.88-.23.04.04.07.09.11.13,0,.03.03.05.04.07.02.03.04.05.06.08.03.04.06.09.08.13.04.06.08.12.11.18.02.03.04.07.06.11.03.04.05.09.07.14.05.1.09.19.14.29h0c-.02.06-.03.12-.05.17,0,.05-.02.1-.04.14-.02.07-.04.13-.06.19-.01.04-.02.08-.03.12-.02.04-.03.08-.04.12-.06.19-.13.37-.2.56,0,.01-.01.02-.01.02-.05.14-.1.27-.16.41-.03.08-.06.16-.09.24.41.04.76.02,1.04-.05.07-.01.13-.04.18-.06.96-.37.59-1.53-.12-2.71ZM233.85,20.59c.3,1.27.68,2.17,1.1,2.65.24.28.74.71,2.94,2.94,1.29,1.29,1.83,1.86,2.72,2.13,1.16.33,1.46-.27,2.72.04,1.54.37,1.94,1.52,3.46,1.96,1.34.39,1.79-.26,3.01-.26.62,0,1.37.17,2.22.46-5.63-3.52-11.71-6.85-18.17-9.92ZM305.87,75.11c.84-.13,2.1.88,3.18,1.19-.55-2.39-1.68-5.21-4.01-7.59-.66-.67-1.38-1.27-2.12-1.8-1.62-1.16-3.37-1.99-4.84-2.48-.29-.57-.6-1.15-.91-1.73-.2-.37-.41-.74-.62-1.12-.26.02-.56.03-.92.01-.71-.04-1.45-.18-2.18-.38.34.51.68,1.02,1.01,1.52.05.08.1.15.14.22.22.33.42.66.63.98.05.09.11.19.17.28.63,1.02,1.22,2.03,1.77,3.05.09.17.18.34.27.51.18.34.36.67.53,1,.13.27.27.54.4.81.08.17.16.34.24.51,2.33,4.87,3.79,9.72,4.28,14.46.04.42.08.84.11,1.25.03-.49.06-.98.07-1.48.83-1.05,1.54-2.03,2.06-2.96-.43-.05-.96.08-1.41.22.31-1.84.61-3.68.92-5.52.38.38.76.75,1.14,1.13-.02-.05-.04-.09-.06-.14-.13-.34-.78-1.8.15-1.94ZM115.58,18.85c-2.54.47-4.35,0-6.18-.29h-.01c-.26.11-.52.22-.78.33-.27.11-.53.23-.8.34-.24.1-.48.21-.72.31-.3.14-.6.27-.9.4-.01.01-.02.01-.03.02-.24.1-.48.21-.73.32-.16.08-.33.15-.5.23-.15.07-.31.14-.46.21-.26.12-.52.24-.77.36-.18.08-.36.17-.53.25-.72.34-1.44.69-2.16,1.04l-.18.09c-.42,1.16-.59,2.5-.56,3.9.15.32.3.63.46.94.34-1.05.88-1.98,1.66-2.7.86-.81,2.03-1.37,3.56-1.58,3.9-.55,5.76.82,9.63.39.12-.01.25-.03.38-.05,1.2-.17,2.88-.61,4.84-1.79.09-1,.18-2,.26-3,.11-1.2.21-2.4.31-3.59-.53,1.49-2.4,3.26-5.79,3.87ZM218.48,55.08c-.02-.05-.04-.1-.07-.14-.02-.04-.04-.08-.06-.11-.03-.06-.07-.12-.11-.18-.02-.04-.05-.09-.08-.13-.02-.03-.04-.05-.06-.08-.01-.02-.03-.04-.04-.07-.04-.04-.07-.09-.11-.13h-.01s-.01-.02-.01-.02t-.01-.01s-.06-.08-.1-.12c-.06-.07-.12-.14-.19-.21-.05-.05-.1-.1-.16-.15-.05-.05-.11-.1-.18-.15-.03-.03-.06-.06-.09-.08-.03-.03-.07-.05-.1-.08-.07-.05-.15-.11-.22-.16-.06-.03-.11-.07-.16-.1-.01,0-.01-.01-.01-.01-.01,0-.02-.01-.02-.01-.01,0-.01-.01-.02-.01-.02-.02-.05-.03-.07-.05-.05-.03-.1-.06-.15-.08-1.94-1.1-3.45-.65-4.5-1.47-.37-.28-.52-.6-.5-.94v-.02s.01-.02.01-.03v-.05s.01-.01.01-.02v-.03s.01-.02.01-.04.01-.04.02-.06c.01-.04.02-.07.03-.11s.03-.07.05-.11c0-.03.02-.06.04-.08,0-.03.03-.06.04-.08h0c.03-.06.07-.11.1-.17.02-.03.04-.05.06-.08.02-.03.04-.06.06-.08l.06-.09s.08-.09.12-.14c.05-.06.1-.11.16-.17.01-.02.03-.04.05-.06.02-.01.04-.04.06-.05.05-.06.11-.11.17-.17.06-.05.12-.11.18-.17.01-.01.03-.02.04-.03.03-.02.05-.05.08-.07.02-.02.05-.05.08-.07.06-.06.13-.11.2-.17-1.47-1.02-3.37-2.1-5.69-2.99-2.31-.87-2.71-.68-7.13-2.06-3.63-1.16-6-2.13-7.43-2.67-1.63-.62-3.59-1.27-5.68-1.87-.24.4-.3.88-.15,1.36.26.85,1.09,1.48,2.06,2.09-.64.12-1.19.62-1.57,1.21,1.89.54,3.64,1.13,5.14,1.69.07.03.13.06.2.08,1.43.54,3.8,1.51,7.43,2.66,4.42,1.39,4.82,1.2,7.13,2.07,5.42,2.06,8.53,5.24,9.26,6,.08.08.57.61,1.14,1.32.03.04.07.08.1.12.02-.04.03-.07.05-.11.03-.08.06-.16.09-.24.06-.14.11-.27.16-.41,0,0,.01-.01.01-.02.07-.19.14-.37.2-.56.01-.04.02-.08.04-.12.01-.04.02-.08.03-.12.02-.06.04-.12.06-.19.02-.04.03-.09.04-.14.02-.05.03-.11.05-.16h0c-.05-.11-.09-.2-.14-.3Z"/>
      <path class="cls-3" d="M319.57,89.71c-.04-.52-.08-1.05-.08-1.05-.14-1.61-.37-3.22-.7-4.85-1.47-7.28-4.84-14.76-9.85-22.19-1.69-2.51-3.57-5.01-5.64-7.5-1.04-1.26-2.12-2.51-3.25-3.75-.29-.33-.59-.65-.89-.98h0c-.73-.79-1.47-1.57-2.23-2.35l-.87-.87c-2.06-2.08-4.25-4.14-6.56-6.17-1.73-1.53-3.53-3.04-5.39-4.53-13.74-11.06-30.91-21.2-50.48-29.43-.05-.01-.09-.03-.13-.05-.1-.04-.21-.08-.31-.13-.17-.07-.35-.14-.52-.21-4.7-1.96-9.54-3.8-14.51-5.52H85.1c-8.72,5.57-14.88,12.78-17.72,21.54-.6,1.83-1.03,3.69-1.32,5.57h0c-.16,1.08-.28,2.16-.34,3.24-.02.3-.03.6-.04.9,0,0-.04,1.07-.02,2.14,0,.45,1.35,23.13,27.18,48.07,6.91,6.67,18.19,16.03,34.57,23.79,5.49-.02,10.98-.04,16.47-.06-38.52-19.41-63.28-47.28-61.62-70.98.08-1.16.23-2.32.44-3.46.22-1.16.5-2.32.85-3.46l5.63,1.57,1.41.39,1.01.28c-.46,1.49-1.04,3.76-1.28,6.56-1.6,18.59,14.15,33.58,23.88,42.84,14.86,14.15,31.31,21.95,44.62,26.33,13.3-.02,26.6-.04,39.9-.06-1.83-.75-3.07-1.75-4.09-2.54-1.98-1.57-1.82-2.06-2.94-2.95-.66-.52-1.46-.96-2.35-1.33-.51-.22-1.05-.41-1.6-.59-3.73-1.19-7.97-1.49-8.04-1.72-.09-.31,7.37.75,7.42-.33.02-.5-2.73-1.07-2.72-2.12.01-1.05,2.75-1.49,2.72-2.43-.03-1.01-3.21-.96-4.09-2.63-.52-.99-.34-2.78,2.41-6.23,1.44,2.99,3.13,4.8,4.18,5.77,1.12,1.03,2.38,1.91,2.69,2.12,1.04.7,2.1,1.32,3.14,1.89.62.33,1.23.65,1.82.96,3.67,1.93,5.55,2.8,7.28,3.11,1.93.34,1.83-.23,4.5-.12,5.16.21,9.29,2.96,9.09,3.7-.13.46-1.92.02-2.41.97-.3.59.2,1.15.19,2.55,0,.73-.15,1.31-.26,1.68,33.81.08,67.63.16,101.44.24,1.95-11.11,2.53-15.02,2.48-15.61ZM213.87,16.72c.36-1.12,2.42-1.44,4.62-.73,2.21.72,3.68,2.19,3.32,3.31-.37,1.13-2.43,1.45-4.63.74-2.21-.72-3.68-2.19-3.31-3.32ZM200.06,17.21c.36-1.12,2.39-1.45,4.58-.75.02.01.03.01.04.02,2.21.71,3.68,2.18,3.31,3.31-.36,1.12-2.42,1.45-4.62.73-1.31-.42-2.36-1.12-2.92-1.84-.39-.5-.54-1.01-.39-1.47ZM188.16,19.31c.36-1.13,2.42-1.45,4.62-.74,1.24.4,2.25,1.04,2.83,1.73.45.53.65,1.09.49,1.59-.37,1.12-2.43,1.45-4.63.73-1.1-.36-2.02-.9-2.62-1.5-.6-.6-.88-1.25-.69-1.81ZM174.71,20.16c.2-.6.88-.98,1.81-1.08.8-.1,1.79.01,2.82.34.75.25,1.4.57,1.94.94h0c.88.62,1.43,1.35,1.43,2.02,0,.12-.02.24-.06.36-.36,1.12-2.46,1.43-4.62.73-2.21-.72-3.68-2.19-3.32-3.31ZM162.23,21.07c.15-.48.61-.81,1.26-.98.88-.23,2.09-.17,3.36.25,2.21.71,3.68,2.19,3.32,3.31-.02.03-.03.07-.04.1-.46,1.04-2.5,1.31-4.59.63-2.21-.71-3.68-2.19-3.31-3.31ZM204.31,56.47c-3.29-1.72-5.8-3.3-7.35-4.38-.61.2-1.54.52-2.72.86-1.05.3-2.06.55-3,.76-2.65.6-4.69.88-5.37.99-1.38.21-6.07.91-10.33,2.56-2.21.86-4.3,1.97-5.75,3.4-1.54,1.52-2.05,3.1-2.23,4.58-.19,1.54-.02,2.99-.3,4.17-.03.13-.07.26-.11.39-.35,1.01-1.15,1.78-2.99,2.2-3.1.68-5.1-.51-8.97.57-.14.04-.3.08-.5.15-.71.26-2.01.89-5.82,3.25-.25.16-.52.32-.79.5-1.91,1.18-2.94,1.8-4.12,2.04-.4.08-.83.12-1.3.12h-.16c-2.13-.02-4.27-.72-5.89-1.35-.32-.12-.61-.24-.88-.35-1.13-.46-2.25-.92-3.36-1.38-2.72-1.12-5.34-2.23-7.82-3.35-1.19-.54-2.35-1.09-3.47-1.65-.07-.03-.14-.07-.21-.1-1.92-.96-3.72-1.94-5.37-2.97-3.44-2.15-6.21-4.48-8.01-7.18-.89-1.33-3.83-5.93-2.37-9.35.04-.11.09-.22.15-.32.02-.04.04-.08.07-.13.32-.59.97-1.71.8-3.35-.04-.4-.13-.84-.29-1.3-.06-.18-.13-.35-.19-.51-.46-1.09-1.12-1.92-1.36-2.23-2.22-2.92-4.73-9.72-3.86-14.62.07-.41.17-.81.29-1.18h0c-.16-.32-.31-.63-.46-.95-.03-1.4.14-2.74.56-3.9l.18-.09c.72-.35,1.44-.7,2.16-1.04.17-.08.35-.17.53-.25.25-.12.51-.24.77-.36.15-.07.31-.14.46-.21.17-.08.34-.15.5-.23.25-.11.49-.22.73-.32.01,0,.02,0,.03-.02.3-.13.6-.26.9-.4.24-.1.48-.21.72-.31.27-.11.53-.23.8-.34.26-.11.52-.22.78-.33h.01c1.83.29,3.64.76,6.18.29,3.39-.61,5.26-2.38,5.79-3.87-1.66,1.25-3.46,1.8-4.87,1.8-.62,0-1.17-.11-1.6-.3-.04-.02-.08-.04-.12-.06-1.16-.55-1.96-1.5-1.96-1.5-.27-.31-.45-.59-.57-.79-.24-.37-.42-.73-.54-1.08-.44-1.27-.09-2.38.58-3.41.43-.68,1-1.32,1.56-1.95,2.23-2.48,3.36-3.73,6.1-3.73,2.82,0,4.11,1.28,9.99,2.25,1.07.18,1.88.28,2.53.34,1.01.09,1.62.09,2.17.13.55.04,1.04.12,1.84.41,0,0,.49.18.99.42.47.23,1.74,1.12,3.52,2.51,1.19.92,2.61,2.06,4.17,3.37.35.22.7.43,1.04.64-.21.85-.42,1.69-.64,2.54-.07,1.35-.15,2.7-.22,4.05.6,1.3,1.81,3.51,4.12,5.55,2.31,2.04,4.66,2.98,6.03,3.42v2.89c.34.17.83.43,1.37.79,1.2.82,2.63,1.78,2.85,3.29.05.37.08,1.03-.33,1.9,0,1.07.02,2.15.02,3.22.35-.02.91-.07,1.58-.21,3.04-.66,4.03-2.43,5.45-2.05,1.04.27.88,1.32,2.02,2.1,1.9,1.31,4.66-.47,6.22-.4,3.99.19,8.7,1.19,12.81,2.39.38-.59.93-1.09,1.57-1.21-.97-.61-1.8-1.24-2.06-2.09-.15-.48-.09-.96.15-1.36,2.09.6,4.05,1.25,5.68,1.87,1.43.54,3.8,1.51,7.43,2.67,4.42,1.38,4.82,1.19,7.13,2.06,2.32.89,4.22,1.97,5.69,2.99-.07.06-.14.11-.2.17-.03.02-.06.05-.08.07-.03.02-.05.05-.08.07-.01.01-.03.02-.04.03-.06.06-.12.12-.18.17-.06.06-.12.11-.17.17-.02.01-.04.04-.06.05-.02.02-.04.04-.05.06-.06.06-.11.11-.16.17-.04.05-.08.09-.12.14l-.06.09s-.04.05-.06.08c-.02.03-.04.05-.06.08-.03.06-.07.11-.1.16h0s-.03.06-.04.09c-.02.02-.03.05-.04.08-.02.04-.04.07-.05.11s-.02.07-.03.11c-.01.02-.02.04-.02.06s-.01.03-.01.04v.03s0,.01-.01.02v.05s0,.02-.01.03v.02c-.02.34.13.66.5.94,1.05.82,2.56.37,4.5,1.47.05.02.1.05.15.08.02.02.05.03.07.05.01,0,.01.01.02.01,0,0,.01.01.02.01,0,0,0,.01.01.01.05.03.1.07.16.1.07.05.15.11.22.16.03.03.07.05.1.08.03.02.06.05.09.08.07.05.13.1.18.15.06.05.11.1.16.15.07.07.13.14.19.21.04.04.07.08.1.12t.01.01s.01,0,.01.01h.01c.29.09.58.17.88.24.07.02.14.03.21.05.71,1.18,1.08,2.34.12,2.71-.05.02-.11.05-.18.06-.28.07-.63.09-1.04.05-.02.04-.03.07-.05.11.33.41.67.88.98,1.35.82,1.27,1.32,2.59.29,2.99-.3.12-.72.15-1.22.11-.62-.06-1.36-.22-2.18-.46-4.18-1.21-10.34-4.39-11.45-4.97ZM264.82,81.85c-.67,2.83-1.32,5.28-4.76,7.15-.75.39-1.89.99-3.46,1.45-.92.27-4.72,1.32-8.8.28-6.69-1.71-9.84-7.94-10.3-8.9-.64.71-2.27,2.72-2.09,5.31.06.77.26,1.47.63,2.25,2.24,4.77,7.95,6.98,7.7,7.51-.15.31-2.06-.44-2.21-.12-.11.25.96.9,2.24,1.84,2.64,1.93,4.59,2.69,4.42,2.93-.28.4-6.66-1.27-12.27-3.69-.77-.32-2.17-.95-2.36-.82-.13.09.2.42.7.83-1.25-.8-2.75-1.57-3.86-1.61-.58-.01-1.08.15-1.91-.12-.75-.24-1.03-.6-1.62-1.02-.8-.56-2.15-.9-4.86-1.58-4.18-1.06-4.28-1.07-4.48-1.21-1.91-1.31.5-3.19-1.48-4.45-1-.65-1.89-.32-3.08-1.01-.74-.42-.99-.91-1.1-1.42-.2-.98.12-2.07-1.34-3.09-.61-.44-1.21-.71-1.8-.92-1.08-.4-2.08-.61-2.83-1.33-1.22-1.2.13-2.05.8-3.97,0-.01.01-.01.01-.02.09-.38.22-1,.28-1.77.19-2.39-.47-3.38-.02-4.04.77-1.14,4.05-.07,5.46.23,5.87,1.24,14.74,4.27,21.5,4.27,1.27,0,2.46-.1,3.55-.35,1-.22,1.9-.56,2.7-1h.01c1.05-.58,1.94-1.32,2.64-2.19.28-.35.89-1.15,1.43-2.52,1.68-4.25.85-9.16.5-9.17-.21,0-.29,1.76-.68,1.77-.25,0-.24-.76-.89-1.92-.43-.77-.95-1.52-1.57-2.26-.28-.34-.6-.69-.93-1.04-1.96-2.08-4.48-4.2-5.42-6.25-.37-.78-.5-1.56-.28-2.32.16-.53.46-.95.76-1.37.48-.69.93-1.37.62-2.55-.16-.59-.47-1.16-.85-1.68-1.36-1.88-3.66-3.21-3.48-3.31.16-.07,1.82.63,4.3,1.93,4.02,2.11,10.18,5.83,15.54,10.53.86.75,1.69,1.52,2.5,2.32.95.94,1.85,1.92,2.69,2.91.25.31.5.61.74.92.57.72,1.11,1.46,1.6,2.21,2.11,3.25,2.98,5.84,4.28,10.84.6,2.24,1.09,4.14,1.33,5.92.26,1.91.25,3.68-.21,5.63ZM305.87,75.11c-.93.14-.28,1.6-.15,1.94.02.05.04.09.06.14-.38-.38-.76-.75-1.14-1.13-.31,1.84-.61,3.68-.92,5.52.45-.14.98-.27,1.41-.22-.52.93-1.23,1.91-2.06,2.96,0,.5-.04.99-.07,1.48.06.97.09,1.93.07,2.89-.03,1.62-.18,3.23-.45,4.81-.07.41-.15.82-.24,1.22l-1.68-.47-3.77-1.05c-1.11-.26-2.21-.51-3.32-.77,1.17-3.58,1.34-6.56,1.31-8.5-.11-5.86-2.3-10.6-3.75-13.76-.47-1.02-.98-2.03-1.52-3.05-.87-1.61-1.83-3.22-2.9-4.82-.09-.15-.19-.3-.29-.44-2.01-2.99-4.35-5.97-6.99-8.91-7.11-7.9-16.42-15.54-27.45-22.44-.85-.29-1.6-.46-2.22-.46-1.22,0-1.67.65-3.01.26-1.52-.44-1.92-1.59-3.46-1.96-1.26-.31-1.56.29-2.72-.04-.89-.27-1.43-.84-2.72-2.13-2.2-2.23-2.7-2.66-2.94-2.94-.42-.48-.8-1.38-1.1-2.65-.01,0-.02,0-.03-.01l.02-.02c.19-1.93.38-3.86.57-5.79,4,1.95,9.53,4.76,15.96,8.46,9.29,5.34,13.94,8.01,19.67,12.79,4.77,3.98,8.45,7.87,14.47,14.24,1.16,1.23,2.77,2.96,4.67,5.29,1.54,1.88,2.97,3.77,4.27,5.66.73.2,1.47.34,2.18.38.36.02.66.01.92-.01.21.38.42.75.62,1.12.31.58.62,1.16.91,1.73,1.47.49,3.22,1.32,4.84,2.48.74.53,1.46,1.13,2.12,1.8,2.33,2.38,3.46,5.2,4.01,7.59-1.08-.31-2.34-1.32-3.18-1.19Z"/>
      <path class="cls-1" d="M305.04,68.71c-.66-.67-1.38-1.27-2.12-1.8-1.62-1.16-3.37-1.99-4.84-2.48.45.92.88,1.83,1.28,2.74,2.55,5.82,3.84,11.59,3.71,17.15.83-1.05,1.54-2.03,2.06-2.96-.43-.05-.96.08-1.41.22.09-1.15.29-2.09.46-2.76.2-.77.46-1.81.83-2.1.07-.06.13-.09.2-.09.2-.01.38.22.52.46,0-.01,0-.03-.01-.04-.08-.21-.36-.85-.34-1.34.01-.18.06-.34.17-.45h.01c.07-.08.17-.12.29-.14t.02-.01c.84-.13,2.1.88,3.18,1.19-.55-2.39-1.68-5.21-4.01-7.59ZM303,85.8c-.09,1.25-.25,2.49-.49,3.71.17-.24.36-.52.56-.82.02-.96,0-1.92-.07-2.89ZM305.04,68.71c-.66-.67-1.38-1.27-2.12-1.8-1.62-1.16-3.37-1.99-4.84-2.48.45.92.88,1.83,1.28,2.74,2.55,5.82,3.84,11.59,3.71,17.15.83-1.05,1.54-2.03,2.06-2.96-.43-.05-.96.08-1.41.22.09-1.15.29-2.09.46-2.76.2-.77.46-1.81.83-2.1.07-.06.13-.09.2-.09.2-.01.38.22.52.46,0-.01,0-.03-.01-.04-.08-.21-.36-.85-.34-1.34.01-.18.06-.34.17-.45h.01c.07-.08.17-.12.29-.14t.02-.01c.84-.13,2.1.88,3.18,1.19-.55-2.39-1.68-5.21-4.01-7.59ZM303,85.8c-.09,1.25-.25,2.49-.49,3.71.17-.24.36-.52.56-.82.02-.96,0-1.92-.07-2.89ZM305.04,68.71c-.66-.67-1.38-1.27-2.12-1.8-1.62-1.16-3.37-1.99-4.84-2.48.45.92.88,1.83,1.28,2.74,2.55,5.82,3.84,11.59,3.71,17.15.83-1.05,1.54-2.03,2.06-2.96-.43-.05-.96.08-1.41.22.09-1.15.29-2.09.46-2.76.18-.54.36-.9.83-2.1.07-.06.13-.09.2-.09.2-.01.38.22.52.46,0-.01,0-.03-.01-.04-.08-.21-.36-.85-.34-1.34.07-.17.12-.32.17-.45h.01s.24-.12.29-.14t.02-.01c.84-.13,2.1.88,3.18,1.19-.55-2.39-1.68-5.21-4.01-7.59ZM302.51,89.51c.17-.24.36-.52.56-.82.02-.96,0-1.92-.07-2.89-.09,1.25-.25,2.49-.49,3.71ZM120.93,12.89c-1.14-.72-3.44.22-6.03-.97-.04-.01-.08-.03-.12-.06-1.47-.71-2.17-1.7-2.49-2.22-.02-.03-.03-.05-.04-.07-1.73-2.62-.07-4.57,1.6-6.43,1.25-1.39,2.15-2.39,3.18-3.01h-18.39c-1.53,4.02-2.13,8.58-1.03,13.63-.04,1.87.11,3.74.43,5.57.13.72.28,1.44.47,2.15.16.64.35,1.27.55,1.88.35,1.03.76,2.04,1.21,3-.03-1.4.14-2.74.56-3.9.03-.08.06-.16.09-.24.79-1.95,2.35-3.38,5.03-3.76,1.26-.18,2.35-.07,3.44.1h.01c1.83.29,3.64.76,6.18.29,3.39-.61,5.26-2.38,5.79-3.87.12-.33.17-.64.17-.93-.02-.5-.22-.92-.61-1.16ZM303,85.8c-.09,1.25-.25,2.49-.49,3.71.17-.24.36-.52.56-.82.02-.96,0-1.92-.07-2.89ZM305.04,68.71c-.66-.67-1.38-1.27-2.12-1.8-1.62-1.16-3.37-1.99-4.84-2.48.45.92.88,1.83,1.28,2.74,2.55,5.82,3.84,11.59,3.71,17.15.83-1.05,1.54-2.03,2.06-2.96-.43-.05-.96.08-1.41.22.09-1.15.29-2.09.46-2.76.2-.77.46-1.81.83-2.1.07-.06.13-.09.2-.09.2-.01.38.22.52.46,0-.01,0-.03-.01-.04-.08-.21-.36-.85-.34-1.34.01-.18.06-.34.17-.45h.01c.07-.08.17-.12.29-.14t.02-.01c.84-.13,2.1.88,3.18,1.19-.55-2.39-1.68-5.21-4.01-7.59ZM303,85.8c-.09,1.25-.25,2.49-.49,3.71.17-.24.36-.52.56-.82.02-.96,0-1.92-.07-2.89ZM305.04,68.71c-.66-.67-1.38-1.27-2.12-1.8-1.62-1.16-3.37-1.99-4.84-2.48.45.92.88,1.83,1.28,2.74,2.55,5.82,3.84,11.59,3.71,17.15.83-1.05,1.54-2.03,2.06-2.96-.43-.05-.96.08-1.41.22.09-1.15.29-2.09.46-2.76.2-.77.46-1.81.83-2.1.07-.06.13-.09.2-.09.2-.01.38.22.52.46,0-.01,0-.03-.01-.04-.08-.21-.36-.85-.34-1.34.01-.18.06-.34.17-.45h.01c.07-.08.17-.12.29-.14t.02-.01c.84-.13,2.1.88,3.18,1.19-.55-2.39-1.68-5.21-4.01-7.59ZM303,85.8c-.09,1.25-.25,2.49-.49,3.71.17-.24.36-.52.56-.82.02-.96,0-1.92-.07-2.89ZM305.04,68.71c-.66-.67-1.38-1.27-2.12-1.8-1.62-1.16-3.37-1.99-4.84-2.48.45.92.88,1.83,1.28,2.74,2.55,5.82,3.84,11.59,3.71,17.15.83-1.05,1.54-2.03,2.06-2.96-.43-.05-.96.08-1.41.22.02-1.22.25-2.14.46-2.76.18-.54.36-.9.83-2.1,0-.02.01-.04.02-.06.14-.36.26-.68.35-.95.07-.17.12-.32.17-.45h.01s.24-.12.29-.14t.02-.01c.84-.13,2.1.88,3.18,1.19-.55-2.39-1.68-5.21-4.01-7.59ZM120.93,12.89c-1.14-.72-3.44.22-6.03-.97-.04-.01-.08-.03-.12-.06-1.47-.71-2.17-1.7-2.49-2.22-.02-.03-.03-.05-.04-.07-1.73-2.62-.07-4.57,1.6-6.43,1.25-1.39,2.15-2.39,3.18-3.01h-18.39c-1.53,4.02-2.13,8.58-1.03,13.63-.04,1.87.11,3.74.43,5.57.13.72.28,1.44.47,2.15.16.64.35,1.27.55,1.88.35,1.03.76,2.04,1.21,3-.03-1.4.14-2.74.56-3.9.03-.08.06-.16.09-.24.79-1.95,2.35-3.38,5.03-3.76,1.26-.18,2.35-.07,3.44.1h.01c1.83.29,3.64.76,6.18.29,3.39-.61,5.26-2.38,5.79-3.87.12-.33.17-.64.17-.93-.02-.5-.22-.92-.61-1.16Z"/>
      <path class="cls-1" d="M319.42,83.36c-1.09-10.5-6.3-21.51-14.87-32.27-1.41-1.76-2.91-3.53-4.5-5.28-15.05-16.6-37.94-32.25-65.75-44.03-.07-.03-.14-.06-.21-.09-1.25-.53-2.5-1.05-3.77-1.56h-106.62c1.42.45,3.23,1.03,6.24,1.52,4.44.75,4.45.13,6.54.88,1.41.51,2.28,1.11,4.54,2.93,1.03.83,2.35,1.92,4.14,3.37.77.64,1.47,1.2,2.05,1.67.4.32.76.6,1.04.83-.57.47-1.52,1.37-2.05,2.7-.38.99-.53,2.21-.11,3.68.01.04.03.09.04.14.16.46.64,1.86,2.04,3.63.69.88,1.6,1.85,2.8,2.84.22.18.45.36.69.54,2.97,2.26,6.71,3.97,6.32,4.54-.26.37-1.96-.24-2.49.19-.68.59,2.05,2.23,3.46,4.35,1.93,2.91-.5,4.24.82,4.99,1.07.61,2.73-.32,5.55-1.19.32-.1.66-.2,1.01-.29,2.13-.58,4.85-1.05,8.35-.89,3.88.19,8.44,1.14,12.47,2.29,2.09.6,4.05,1.25,5.68,1.87,1.43.54,3.8,1.51,7.43,2.67,4.42,1.38,4.82,1.19,7.13,2.06,2.32.89,4.22,1.97,5.69,2.99,1.96,1.35,3.16,2.57,3.57,3.01.13.14,1.35,1.44,2.22,2.79.06.09.11.19.17.28.71,1.18,1.08,2.34.12,2.71-.05.02-.11.05-.18.06-.28.07-.63.09-1.04.05-.05,0-.1-.01-.15-.01-3.83-.43-12.17-4.73-13.48-5.42-3.29-1.72-5.8-3.3-7.35-4.38-.61.21-1.54.52-2.72.86-.98.28-1.93.52-2.81.72-2.74.63-4.86.92-5.56,1.03-1.49.22-6.84,1.02-11.34,2.97-1.83.8-3.51,1.78-4.74,2.99l-.03.03c-3.31,3.3-1.81,6.82-2.61,9.11-.36,1.01-1.15,1.79-2.99,2.2-.55.12-1.05.18-1.55.21-2.31.13-4.23-.53-7.42.36-.14.04-.3.08-.5.15-.68.25-1.91.85-5.39,2.99-.38.23-.79.48-1.22.76-1.91,1.18-2.94,1.8-4.12,2.04-.45.09-.92.13-1.46.12-1.26-.01-2.53-.26-3.7-.6-.02,0-.05-.01-.08-.02-.79-.23-1.53-.5-2.19-.75-.28-.12-.55-.22-.8-.33-4.08-1.67-8.03-3.28-11.65-4.94-.66-.3-1.3-.61-1.94-.91-.43-.21-.85-.42-1.27-.63-.2-.1-.4-.2-.6-.3-5.66-2.88-10.21-6-12.78-9.85-.52-.78-1.74-2.67-2.37-4.79-.1-.33-.18-.66-.25-.99-.26-1.32-.23-2.68.39-3.87,0,0,0-.01.01-.02.1-.18.24-.42.39-.73.4-.86.81-2.22.19-4.05-.45-1.34-1.28-2.38-1.55-2.74-1.58-2.08-3.31-6.13-3.86-10.06h0c-.1-.72-.16-1.44-.17-2.13-.45-.96-.86-1.97-1.21-3-.2-.61-.39-1.24-.55-1.88-.19-.71-.34-1.43-.47-2.15-.32-1.83-.47-3.7-.43-5.57-1.1-5.05-.5-9.61,1.03-13.63h-19.67c-5.5,4.77-9.47,10.45-11.59,16.98-1.25,3.83-1.8,7.8-1.72,11.85h0c.01.51.03,1.01.06,1.52.04.67.1,1.33.17,2.01,1.37,12.43,8.49,25.57,20.1,38.13,11.6,12.56,27.69,24.56,46.98,34.7h20.57c-2.97-1.31-5.88-2.67-8.71-4.08-6.32-3.14-12.27-6.51-17.8-10.05-.03-.02-.05-.03-.07-.05-.2-.12-.39-.24-.58-.37-.46-.3-.93-.6-1.39-.91-5.57-3.67-10.69-7.52-15.3-11.48-8.21-7.05-14.82-14.46-19.51-21.92-4.68-7.44-7.43-14.93-7.92-22.12-.08-1.18-.1-2.36-.05-3.53.06-1.51.22-3.01.49-4.49.22-1.16.5-2.32.85-3.46l5.63,1.57.52.14,1.9.53c-.27.85-.5,1.7-.69,2.56-.02.1-.04.2-.06.29-.1.48-.19.95-.26,1.43-.36,2.24-.44,4.53-.27,6.84.84,11.49,7.89,23.78,19.58,35.31.65.64,1.31,1.28,1.99,1.92,3.02,2.83,6.31,5.6,9.85,8.3,1.32,1,2.66,1.99,4.05,2.96.81.58,1.63,1.15,2.46,1.71.11.07.21.14.31.21,5.5,3.72,11.49,7.25,17.91,10.52,3.74,1.91,7.61,3.74,11.62,5.46,2.17.93,4.39,1.84,6.63,2.71h45.15c-1.92-.97-2.61-2.42-5.24-3.36-2.32-.82-2.9-.07-5.51-1.04-2.05-.77-3.4-1.85-4.49-2.7-1.9-1.5-1.83-2.02-2.81-2.84-.04-.03-.09-.07-.13-.11-.66-.51-1.46-.95-2.35-1.33-1.74-.74-3.79-1.22-5.55-1.55-2.26-.43-4.05-.61-4.09-.76-.05-.17,2.15.07,4.17.15,1.68.06,3.23.01,3.25-.47.02-.46-1.32-.87-2.34-1.76-.13-.12-.26-.24-.38-.37-1.26-1.38-.31-2.34.43-4.33,1.2-3.22.36-5.45,1.24-5.32.74.12.95,1.73,3.54,4.13,1.79,1.68,3.86,2.93,5.83,4.01.62.33,1.23.65,1.82.96.75.4,1.44.76,2.1,1.1,1.74.87,3.25,1.53,5.18,2.01,3.24.81,4.01.26,6.46,1.11,3.38,1.17,6.56,3.85,6.48,5.59-.05,1.01-1.23,1.33-1.68,1.79-.16.17-.22.36-.08.62.21.37.75.72,1.46,1.05,1.73.81,4.42,1.44,5.45,1.69,2.69.63,5.36,1.2,7.92,1.73h84.31c1.25-2.15,2.27-4.42,3.05-6.81.93-2.86,1.48-5.81,1.66-8.8.02-.38.04-.76.05-1.14.05-1.72-.02-3.45-.2-5.21ZM170.17,21.93c-.37,1.12-2.47,1.43-4.63.73-2.21-.71-3.68-2.19-3.31-3.31.36-1.12,2.42-1.45,4.62-.73,2.21.71,3.68,2.19,3.32,3.31ZM182.65,21.02c-.36,1.12-2.46,1.43-4.62.73-2.21-.72-3.68-2.19-3.32-3.31.2-.6.88-.98,1.8-1.08.81-.1,1.8.01,2.83.34.75.25,1.41.57,1.94.95,1.05.73,1.62,1.62,1.37,2.37ZM196.1,20.16c-.37,1.13-2.43,1.46-4.63.74-1.1-.36-2.02-.9-2.62-1.5-.6-.6-.88-1.25-.69-1.81.36-1.13,2.42-1.45,4.62-.74,1.24.41,2.25,1.04,2.83,1.73.45.53.65,1.09.49,1.58ZM207.99,18.07c-.27.85-1.53,1.25-3.09,1.07-.49-.06-1.01-.17-1.53-.34-1.31-.42-2.36-1.11-2.92-1.84-.39-.5-.54-1.02-.39-1.47.36-1.12,2.39-1.45,4.59-.75.01.01.02.01.03.01,1.56.51,2.75,1.39,3.19,2.26.12.24.18.47.18.7,0,.12-.02.24-.06.36ZM217.18,18.32c-2.21-.72-3.68-2.19-3.31-3.31.36-1.13,2.42-1.46,4.62-.74,2.21.72,3.68,2.19,3.32,3.31-.37,1.13-2.43,1.45-4.63.74ZM265.03,76.22c-.05.35-.12.71-.21,1.07-.67,2.84-1.32,5.28-4.76,7.15-1.76.92-5.66,3.01-12.26,1.73-3.85-.75-7.07-2.37-8.98-3.51-.55-.33-1-.62-1.32-.83-.65.51-1.6,1.49-1.46,3,.07.7.34,1.36.82,2.08.01.01.02.03.03.05.55.82,1.35,1.74,2.39,2.9,1.04,1.16,2.25,2.55,4.49,4.2,2.64,1.92,4.59,2.68,4.42,2.92-.22.32-4.21-.65-8.63-2.25-.52-.18-1.76-1.22-3.64-1.43-.69-.08-1.27-.04-1.66,0-1.11-1.03-2.04-1.31-2.69-1.36-.38-.03-1.28-.03-2.49-.23-.23-.04-.4-.07-.59-.13-.75-.25-1.03-.61-1.62-1.03-.8-.55-2.15-.89-4.86-1.58-4.18-1.06-4.28-1.06-4.48-1.2-1.01-.7-.81-1.56-.69-2.4.1-.74.14-1.47-.79-2.06-1-.65-1.89-.32-3.08-1-.74-.43-.99-.92-1.1-1.43-.2-.98.12-2.07-1.34-3.09-1.37-.98-2.74-1.12-3.82-1.68-.29-.15-.57-.33-.81-.57-.9-.88-.41-1.57.19-2.64.13-.24.26-.49.38-.76.09-.18.16-.37.23-.57.16-.46.24-.88.27-1.27.07-.73-.05-1.35-.21-1.88-.31-1.05-.77-1.76-.22-2.37.81-.86,2.99-.69,5.89-.08.91.19,1.89.43,2.91.68,6.9,1.74,16.16,4.6,22.14,3.24,3.9-.87,6.36-3.53,7.11-6.83.11-.44.18-.9.22-1.37.02-.28.03-.56.03-.85,0-.73-.07-1.48-.23-2.24-.03-.16-.06-.32-.1-.48-.11-.43-.25-.87-.41-1.3-.29-.81-.68-1.61-1.16-2.4-.38-.61-.81-1.22-1.31-1.81-.28-.35-.6-.7-.93-1.05-1.68-1.78-3.78-3.6-4.94-5.38-.7-1.08-1.06-2.15-.76-3.18.12-.4.32-.73.53-1.05.31-.45.65-.87.82-1.38.15-.41.19-.89.03-1.5-.73-2.72-4.57-4.86-4.33-4.99.51-.21,16.28,7.29,25.03,17.69.25.31.5.61.74.92.57.73,1.11,1.47,1.6,2.22.43.66.82,1.31,1.16,1.94.15.29.3.57.44.86,1.07,2.2,1.77,4.52,2.68,8.03,1.11,4.18,1.85,7.17,1.33,10.48ZM305.87,75.11s-.01,0-.02.01c-.05.02-.24.11-.29.13h-.01c-.05.14-.1.29-.17.46-.02.49.26,1.13.34,1.34.01.01.01.03.01.04-.14-.24-.32-.47-.52-.46-.07,0-.13.03-.2.09-.47,1.2-.65,1.56-.83,2.1-.17.67-.37,1.61-.46,2.76.45-.14.98-.27,1.41-.22-.52.93-1.23,1.91-2.06,2.96,0,.5-.04.99-.07,1.48.06.97.09,1.93.07,2.89-.2.3-.39.58-.56.82-.04.22-.08.44-.13.65l-.28-.08-3.73-1.04-3.42-.95-.62-.17c.29-1.31.49-2.64.59-3.99.31-4.09-.23-8.31-1.55-12.6-.42-1.36-.91-2.72-1.49-4.09-.18-.45-.38-.89-.58-1.34-.5-1.11-1.05-2.23-1.65-3.34-.72-1.33-1.51-2.66-2.36-3.99-.05-.08-.1-.16-.15-.24-.75-1.15-1.54-2.3-2.38-3.45-1.6-2.17-3.36-4.34-5.29-6.49-10.14-11.27-24.76-22.01-42.47-30.82-.57-.28-1.14-.57-1.71-.85h-.03c-.48-.24-.96-.47-1.44-.7l3.29-3.11.09-.09c.85.4,1.68.81,2.52,1.22,0,0,.01,0,.02.01,0,0,.01,0,.02.01,1.49.73,2.96,1.47,4.4,2.23.01.01.02.01.03.02,1.71.89,3.4,1.81,5.05,2.74h.02c7.44,4.18,14.27,8.67,20.39,13.37h0c7.72,5.94,14.3,12.19,19.53,18.57,1.24,1.52,2.41,3.04,3.49,4.56,1.43,2.01,2.73,4.02,3.88,6.03.21.38.42.75.62,1.12.31.58.62,1.16.91,1.73,1.47.49,3.22,1.32,4.84,2.48.74.53,1.46,1.13,2.12,1.8,2.33,2.38,3.46,5.2,4.01,7.59-1.08-.31-2.34-1.32-3.18-1.19Z"/>
      <path class="cls-3" d="M334.71,70.24c-.07.3-.14.6-.21.9,0,0,0,0,0,0-.41,1.77-.81,3.54-1.22,5.31-3.15,3.51-7.66,7.92-13.67,12.12-.04.03-.08.06-.13.09,0,0-5.26,3.65-10.86,6.31-4.17,1.98-24.15,5.98-51.4,3.45.3,0,.6,0,.9,0,.12,0,.23,0,.35,0,3.97-.06,7.76-.22,11.31-.46,12.07-.83,21.55-2.64,27.13-4.74,2.45-.93,4.16-1.91,4.99-2.89.05-.05.11-.13.18-.23.11-.15.25-.34.42-.57.17-.24.35-.52.56-.82,1.48-2.26,3.64-6.07,2.65-7.08-.15-.15-.35-.23-.59-.25-.44-.05-.97.08-1.41.22.04-.76.16-1.7.46-2.76.34-1.21.8-2.18,1.21-2.9.08.4.2.83.39,1.27.94,2.21,2.88,3.32,3.77,3.74,0-.89-.03-2.61-.5-4.64-.55-2.39-1.68-5.21-4.01-7.59-.66-.67-1.38-1.27-2.12-1.8-.95-.68-2.56-1.84-4.84-2.48-1.37-.38-1.35-.13-2.85-.5-2.81-.71-4.24-1.97-4.38-1.78-.18.25,2.35,2.3,7.11,6.63.37.34.69.63.91.83-.04.13-.11.32-.26.48-.94.98-3.77-.26-5.63-1.18-8.97-4.45-11.78-9.74-19.19-11.42-2.86-.65-7.9-1.1-13.21-.63-.58.05-1.06.1-1.36.14h0s-.08.01-.12.02c-.43.08-.86.15-1.27.23-4.36.84-7.68,1.83-7.68,1.83-.36.12-.86.27-1.48.35h0c-.7.1-1.55.1-2.48-.15-.64-.17-1.12-.4-1.56-.68-.13-.08-.26-.17-.39-.26-.51-.37-1.01-.79-1.73-1.25-.55-.35-1.16-.67-1.79-.96-3.49-1.6-7.96-2.3-10.85-2.15-2.78.14-2.08.99-4.77,1.18-1.82.12-3.94-.14-6.04-.64-.07-.02-.14-.03-.21-.05-.29-.07-.59-.15-.88-.23h0c-1.67-.46-3.29-1.05-4.7-1.69-5.61-2.54-7.85-5.86-10.74-5.97-1.15-.05-1.43.48-2.5.18-1.75-.47-1.79-2-4.34-3.15-1.28-.57-2.71-.83-4.04-1.07-1.15-.2-1.76-.3-2.35-.27-.07,0-.14.01-.21.03-.64.12-1.2.61-1.57,1.2-.26.41-.43.86-.49,1.27-.24,1.69,1.48,3.84,4.42,4.34h0c-.06,1.54-.13,3.07-.19,4.61-.02.55-.05,1.11-.07,1.66-.06.16-.17.38-.36.61-.13.17-.37.45-.85.69-.52.25-1,.37-1.61.47-2.65.51-4.98.17-6.39.16-2.49.01-3.54,1.14-5.5,3.43-.38.44-.73.87-1.08,1.29-.3.36-.59.72-.87,1.06h0s0,0,0,0c-2.44,2.99-3.98,5.01-5.33,6.01h0s0,0,0,0c-1.43-.72-3.53-1.68-6.19-2.56-2.96-.98-4.44-1.47-5.81-1.37-3.68.26-4.44,2.81-7.98,2.54-1.46-.11-2.18-.61-3.28-.11-1.42.65-1.22,1.92-2.8,2.7-1.01.5-1.42.14-3.22.69-.95.29-1.69.65-2.18.92.03.36.31,4.17,0,4.8-.07.13-.16.23-.16.23-.22.24-.56.34-.94.37-.9.07-2.02-.26-2.37-.3-1.16-.13-2.91,1.9-5.68,9.65-.37,1.05-.77,2.19-1.18,3.46-.03.08-.05.16-.08.24-.09.28-.18.57-.28.86-.15.47-.3.96-.46,1.46-.06-.62-.12-1.25-.18-1.87-.04-.39-.08-.77-.12-1.16,0-.02,0-.05,0-.07-.16-1.61-.32-3.22-.48-4.83-.41-4.17-.82-8.34-1.23-12.52-.16-1.59-.31-3.18-.47-4.77,0-.03,0-.06,0-.08-.6-.42-1.19-.84-1.77-1.26-.43-.31-.85-.62-1.26-.94-.48-.36-.94-.71-1.4-1.07-5.84-4.55-10.54-9.18-14.3-13.56-.16-.18-.31-.36-.46-.55-5.07-5.98-8.41-11.46-10.59-15.56-1.23-2.32-2.36-4.45-3.29-6.54h0c-.03-.07-.06-.13-.09-.2-.45-1.03-.86-2.06-1.21-3.09-.04-.13-.09-.26-.13-.39-.73-2.26-1.18-4.58-1.24-7.13-.12-5.08,1.31-9.77,3.61-13.98.55-1.01,1.15-1.99,1.79-2.95h7.13c-2.05,4.4-3.17,9.05-3.26,13.63-.03,1.88.11,3.74.43,5.57h0c.13.73.28,1.44.47,2.16.17.64.35,1.26.56,1.87.35,1.04.75,2.04,1.21,3,.15.32.3.64.46.95h0c5.92,11.56,18.3,17.19,18.98,17.47.85.35,1.66.65,2.4.91,2.5.87,4.21,1.24,4.21,1.24,1.07.24,1.7.31,2.2.37h0c.5.06.88.12,1.47.33,2.9.99,3.37,2.83,6.11,5.21,1.08.93,2.35,1.81,3.68,2.59,2.53,1.48,5.28,2.61,7.35,3.12.21.05.41.1.6.14h0c.87.17,1.58.21,2.04.09.13-.03.23-.08.31-.13h0c.52-.33.4-.91,1.52-1.01,1.47-.17,2.87.76,4.19.62.65-.06,1.4-.41,1.54-1.74,3.99,1.82,5.59,2.01,6.25,1.78,1.16-.42-.51-2.18.88-2.7,1.06-.4,2.69.43,4.7.53.2,0,.39.01.59,0,2.6-.07,4.59-1.45,4.77-2.99,0-.01,0-.02,0-.03-.02-2.2-.66-3.59-1.21-4.43-1.48-2.27-3.59-2.52-5.47-5.23-.74-1.06-1.14-2.07-1.35-2.7-.06-1.1-.12-2.2-.18-3.31-.5-.98-1.23-2.19-2.28-3.43-.84-.99-1.69-1.77-2.43-2.36-.2-2.12.03-2.72.31-2.82.94-.31,2.77,4.74,5.66,5.15,1.71.24,2.74.24,2.74.24,1.05.05,1.32,0,2.47.21,4.36.84,5.46,2.57,8.38,2.72,2.16.1,2.39-.76,4.99-.37,1.35.21,2.1.58,2.79.41.46-.11.88-.42.69-1.82,0-.06-.02-.13-.03-.2-.18-1.11-.56-1.91-.88-2.5-.4-.74-.68-1.13-.31-1.36.22-.15.63-.18,1.25-.11,1.44.15,4.01.82,7.93,1.85,3.01.8,4.24,1.2,5.07.9.89-.33.67-1.32.36-2.62-.19-.82-.46-1.38-.64-1.75-.02-.04-.04-.08-.05-.11-.15-.32-.19-.49.02-.59.17-.09.47-.12.88-.08.3.03.65.08,1.04.17,1.51.33,3.62,1.11,5.48,2.14,1.11.62,2.14,1.34,2.9,2.11,2.12,2.18.34,2.99,2.36,4.74.84.74,2.14,1.47,3.65,2.07,1.41.57,3,1.03,4.57,1.29,1.98.33,3.91.33,5.38-.18,1.14-.4,1.9-1.09,2.19-1.94.19-.55.12-1.07-.29-2.41-.77-2.54-1.16-3.81-1.85-4.53-1.33-1.4-3.13-1.72-4.07-1.8l.11-2.85c1.64-2.42,3.4-5.46,4.93-9.11.49-1.16.92-2.31,1.29-3.42.48-1.42.88-2.8,1.21-4.12.46-1.83.78-3.54,1.01-5.11.13-.89.23-1.72.31-2.51,0,.91,0,1.79,0,2.64,0,.36,0,.71,0,1.05,0,1.59.02,3.07.04,4.44.02,1.68.06,3.21.1,4.59h0c.05,1.64.11,3.08.17,4.33.26,4.8.67,6.91,1.14,7.38.02.02.43.43,1,1,.43.42,1.04,1.03,1.94,1.94,1.29,1.29,1.83,1.86,2.72,2.13,1.16.33,1.45-.27,2.72.04,1.54.37,1.94,1.53,3.46,1.97,1.34.38,1.79-.26,3.01-.26,4.24.01,14.72,7.67,18.54,11.99.25.28,1.46,1.67,2.35,1.76.9.07.53-1.32,1.39-1.29,1.3.05,2.83,3.43,7.36,5.87,0,0,.02,0,.03.01,1.75.93,3.6,1.54,5.29,1.93,1.75.41,3.32.59,4.42.67.87.07,1.44.07,1.58.07.53,0,1.21,0,1.91-.07,1.17-.1,2.43-.34,3.3-.97,1.42-1.03.84-2.41.96-3.36.06-.46.27-.82.94-.99.46-.12.95-.1,1.47-.02.23.04.47.09.71.16,1.31.34,2.77.93,4.37.74.05,0,.09-.01.13-.02,2.92-.42,1.72-2.98,4.78-3.11.49-.01,1.01.03,4.56.98,4.98,1.34,8.45,2.5,8.45,2.5,1.06-.36,2.3-.69,3.72-.9,2.71-.42,5.06-.26,6.79.01-.09,1.06-.18,2.12-.28,3.18-.07.82-.14,1.64-.21,2.46-.89.14-1.47.48-1.5.86-.02.21.15.39.23.47.8.82,2.64.37,2.97.28,0,0,0,0,0,0-.55,2.04-1.09,4.07-1.63,6.11-.97.42-1.85.78-2.63,1.09-.7.27-1.32.5-1.85.69-1.5.53-2.46.77-2.35,1.22.18.73,1.82,1.51,2.8,1.9,1.44.58,3.54,1.22,6.31,1.4Z"/>
      <path class="cls-1" d="M334.74,70.5c-.06.27-.16.49-.23.64,0,0,0,0,0,0-.29.55-.7.9-.87,1.06-5.44,4.59-10.17,8.25-14.21,11.16-.21.15-.42.3-.63.45-8.21,5.85-13.52,8.54-16.17,9.69-1.07.47-1.71.68-1.92.75-.06.02-.08.03-.08.03-17.12,4.87-35.91,4.38-41.57,4.15,2.12.03,6.04-.02,10.75-.49,2.21-.22,4.58-.53,7.02-.96,1.77-.31,10.56-1.92,17.74-5.63,1.35-.69,2.64-1.46,3.81-2.31,1.37-.99,2.58-2.08,3.55-3.29.33-.41.66-.82.97-1.21.06-.08.12-.15.18-.23.83-1.05,1.55-2.03,2.07-2.96.82-1.46,1.14-2.82.64-4.17-.02-.05-.03-.09-.06-.14-.13-.34-.78-1.79.14-1.94.84-.13,2.1.89,3.18,1.19.17.05.34.08.5.08,2.28.06,2.43-5.43-1.92-10.01-.73-.78-1.59-1.52-2.6-2.22-.57-.39-1.62-1.12-2.93-1.73-.91-.42-1.94-.79-3.02-.95-1.25-.18-1.69.04-2.53.11-.1,0-.2.01-.31.02,0,0-.29,0-.6-.01-1.11-.07-2.18-.38-2.18-.38-1.8-.52-4.97-2.08-6.31-2.89-.59-.36-.96-.59-.99-.56,0,0,0,0,0,0-.03.06,1.05.74,1.15.8,1.35.86,3.82,4,5.69,5.9,2.62,2.65,6.08,4.89,5.94,5.1,0,0-.02.03-.05.04-.09.04-.27.03-.51-.03-.92-.22-2.82-1.12-4.83-2.29-.74-.43-1.5-.9-2.23-1.38,0,0,0,0,0,0-2.2-1.47-3.36-2.58-4.37-3.58h0c-.16-.16-.31-.31-.47-.46-.4-.4-.8-.78-1.26-1.17-5.81-4.95-19.37-9.32-25.98-8.25h0s-.08.01-.12.02c-.43.08-.86.15-1.28.24-1.25.24-2.41.49-3.43.73-2.55.59-4.25,1.09-4.25,1.09-.76.25-2.22.67-3.97.2-1.14-.3-1.75-.78-2.53-1.38-.33-.25-.7-.53-1.14-.81-.55-.35-1.16-.67-1.79-.96-1.68-.77-3.58-1.34-5.43-1.69-1.99-.39-3.92-.54-5.42-.46-2.78.14-2.08.99-4.77,1.18-2.13.15-4.68-.24-7.13-.91-1.57-.43-3.1-.98-4.45-1.58-.08-.04-.17-.07-.25-.11-5.61-2.54-7.85-5.86-10.74-5.97-1.15-.05-1.43.48-2.5.18-1.75-.47-1.79-2-4.34-3.15-1.28-.56-2.71-.83-4.04-1.07-1.15-.2-1.76-.3-2.35-.27-1.02.07-1.77.52-2.13,1.13-.24.4-.3.88-.14,1.37.25.85,1.09,1.48,2.06,2.09,1.33.84,2.91,1.64,3.57,2.9.01.03.03.05.04.08.61,1.27-.76.85-1.24,3.82h0c-.22,1.27-.12,2.32-1.46,3-.52.25-1,.37-1.61.47-2.65.51-4.98.17-6.39.16-2.49.01-3.54,1.14-5.5,3.43-.32.37-.62.74-.91,1.09-4.18,5.03-5.96,7.77-7.99,7.98-.13.01-.27.02-.41,0-.15,0-.3-.03-.45-.07-1.18-.26-1.27-1.04-3.31-1.82-3.68-1.42-7.58-.53-8.15-.41-3.95.9-3.63,2.92-6.68,2.55-1.13-.15-2.12-.53-3.02-.65-.39-.05-.77-.06-1.14.03-.01,0-.02,0-.03,0-.54.15-.83.45-1.32,1.06-.65.81-.75,1.27-1.02,1.66-.67.98-2.11,1.14-3.3,1.33-.29.05-.57.1-.81.17-.55.15-.95.37-1.03.8-.17.97,1.35,1.85.67,2.45-.24.21-.64.3-1.02.34-.46.04-.91,0-1.04-.01-.88-.05-1.92.72-3.13,2.87-1.19,2.12-2.56,5.57-4.11,10.87-.33,1.12-.66,2.31-1,3.6-.02.08-.04.15-.06.23-.08.29-.16.59-.23.89-.13.49-.26.99-.39,1.5-.52-.86-1.06-1.79-1.58-2.78-.23-.43-.45-.87-.67-1.32h0c-.08-.16-.16-.33-.24-.49-.91-1.93-1.74-4.05-2.34-6.3-.22-.83-.41-1.67-.56-2.53-.59-3.31-.52-6.2-.1-8.66.25-1.51.63-2.85,1.06-4.04.06-.15.11-.29.17-.44.26-.69.55-1.31.83-1.88-.78-.68-1.64-1.43-2.55-2.24-1.29-1.16-2.7-2.46-4.18-3.88h0c-3.24-3.11-6.82-6.81-10.27-10.92-.3-.35-.59-.71-.88-1.06-4.81-5.88-9.26-12.56-12.03-19.55-.5-1.25-.94-2.51-1.32-3.78-1.23-4.1-1.81-8.28-1.5-12.44.2-2.59.74-5,1.53-7.24.36-1.02.77-2,1.23-2.95h5.47c-1.53,4.02-2.13,8.58-1.03,13.63.22,1.04.52,2.09.9,3.17.21.61.44,1.21.69,1.8.51,1.2,1.09,2.37,1.72,3.5.03.05.06.1.09.15.43.76.9,1.5,1.38,2.22,5.9,8.83,14.88,14.61,17.32,15.62.9.37,1.74.69,2.51.95h0c2.44.85,4.1,1.2,4.1,1.2,1.07.24,1.7.31,2.2.37h0c.5.06.88.12,1.47.33,2.9.99,3.37,2.83,6.11,5.21,3.34,2.89,8.52,5.23,11.64,5.84h0c.86.17,1.56.21,2.03.09.12-.03.22-.08.3-.13h0c.53-.32.4-.91,1.52-1.01,1.47-.17,2.87.76,4.19.62.65-.06,1.4-.42,1.54-1.74,3.99,1.82,5.59,2.01,6.25,1.78,1.16-.42-.51-2.18.88-2.7,1.06-.4,2.69.43,4.7.53,1.66.08,3.13-.37,4.1-1.09.72-.53,1.17-1.19,1.25-1.89.27-2.29-3.55-4.41-6.07-7.07-1.09-1.14-1.93-2.39-2.11-3.79-.01-.1-.02-.19-.03-.28-.06-1.04.39-1.21-.05-2.48-.15-.43-.35-.84-.58-1.23-1.53-2.54-4.51-4.29-3.76-4.91.41-.31,1.31.03,4.51.46.35.05.74.09,1.15.14,3.76.43,3.42.12,5.22.45,4.36.84,5.46,2.57,8.38,2.72,2.16.1,2.39-.76,4.99-.37,1.21.19,1.94.51,2.57.45.07,0,.15-.02.22-.04.41-.1.8-.36.73-1.44,0-.12-.02-.24-.04-.38,0-.06-.02-.13-.03-.2-.4-2.52-1.86-3.44-1.18-3.86.74-.48,3.57.27,9.19,1.74,2.64.71,3.91,1.1,4.75.98.12-.01.22-.04.33-.08.32-.12.49-.32.57-.59.15-.49-.01-1.19-.21-2.02-.38-1.69-1.13-2.23-.67-2.45.78-.42,4.41.57,7.4,2.23,1.11.62,2.14,1.34,2.9,2.11.65.67.93,1.21,1.07,1.69.31,1.08-.11,1.84,1.29,3.06,1.63,1.42,4.98,2.82,8.22,3.36,1.05.17,2.08.26,3.04.22.86-.03,1.65-.16,2.34-.4.62-.22,1.12-.52,1.5-.88.91-.87,1.09-2.11.4-3.47-1.36-2.7-5.39-4.43-5.81-4.62,1.58-4.36,3.15-8.72,4.71-13.07.48-1.35.97-2.69,1.45-4.04.58-1.62,1.17-3.25,1.75-4.87.28-.76.55-1.53.83-2.29.2-.55.4-1.11.6-1.66.17-.48.34-.95.52-1.43-.11.51-.21,1.01-.31,1.51-.28,1.47-.51,2.9-.68,4.27-.04.34-.08.67-.12,1-.17,1.51-.27,2.95-.32,4.31-.06,1.66-.04,3.19.04,4.57.11,1.77.32,3.29.59,4.49.01.05.02.1.03.15,0,.01,0,.02,0,.03.3,1.26.68,2.17,1.09,2.64.25.28.74.71,2.94,2.95,1.29,1.29,1.83,1.86,2.72,2.13,1.16.33,1.45-.27,2.72.04,1.54.37,1.94,1.52,3.46,1.97,1.34.39,1.79-.26,3.01-.26.62,0,1.38.17,2.22.46,4.94,1.72,13.06,7.84,16.31,11.53.25.28,1.46,1.67,2.35,1.76.9.07.53-1.32,1.39-1.29,1.3.05,2.83,3.43,7.36,5.87,0,0,.02,0,.03.01,1.66.89,3.42,1.48,5.04,1.87,1.85.45,3.52.64,4.67.73.87.07,1.44.07,1.58.07,1.22,0,3.18-.02,4.59-.68.22-.1.44-.22.63-.36,1.24-.9.96-2.07.94-2.98,0-.13,0-.26.01-.38.06-.46.27-.82.94-.99.67-.18,1.4-.06,2.17.14,1.31.34,2.77.93,4.37.74,3.09-.36,1.8-2.99,4.92-3.12.49-.01,1.01.03,4.56.98,4.98,1.34,8.45,2.5,8.45,2.5,2.78.9,6.33,2.13,10.51,3.66-1.17.61-2.55,1.53-1.76,2.41.34.38.89.54,1.48.77.34.14.69.3,1.02.54,1.24.92,1.25,2.33.47,3.54-.38.59-.94,1.13-1.63,1.55-1.39.84-4.15,1.68-4.48,1.77-1.45.42-2.5.63-2.35,1.23.08.35.56.68,2.8,1.9.52.28.99.53,1.4.74,3.37,1.77,3.57,1.78,3.97,2.24.12.14,1.34,1.61.97,3.23Z"/>
      <rect class="cls-2" x=".12" y=".13" width="399.83" height="105.19"/>
      <path class="cls-1" d="M89.6,45.71c-.26.31-.53.6-.79.85-.3.04-1.39.17-2.46-.51-1.39-.88-1.61-2.4-1.64-2.62,1.06-.76,2.11-1.52,3.17-2.27,1.21-.28,2.43-.57,3.64-.85-.16,1.1-.31,2.2-.47,3.3-.36.65-.83,1.37-1.45,2.1Z"/>
      <path d="M88.81,46.56c-.13.02-1.26.2-2.46-.51-1.06-.63-1.73-1.69-1.64-2.62.23-.17,1.26-.9,1.49-1.07.29-.21,1.39-1,1.68-1.21,1.21-.28,2.43-.57,3.64-.85-.73.47-1.5.93-2.33,1.39-.46.25-.91.49-1.35.71-.73.42-1.2,1.16-1.19,1.94.01,1.06.91,2.05,2.16,2.21Z"/>
      <path class="cls-1" d="M130.09,57.13c-.12.05-1.88.74-3.4-.35-1.11-.79-1.34-2-1.39-2.26.59-.95,1.19-1.89,1.78-2.84,1.61-1.04,3.21-2.08,4.82-3.13-.09,1.87-.18,3.74-.26,5.6-.52.99-1.03,1.98-1.55,2.97Z"/>
      <path d="M130.09,57.13c-.12.05-1.88.74-3.4-.35-1.11-.79-1.34-2-1.39-2.26.59-.95,1.19-1.89,1.78-2.84,1.61-1.04,3.21-2.08,4.82-3.13l-3.72,3.9c-.77.95-.91,2.24-.34,3.25.7,1.26,2.12,1.42,2.25,1.43Z"/>
      <path class="cls-1" d="M229.42,44.72c-.12.05-1.88.74-3.4-.35-1.11-.79-1.34-2-1.39-2.26.59-.95,1.19-1.89,1.78-2.84,1.61-1.04,3.21-2.08,4.82-3.13-.09,1.87-.18,3.74-.26,5.6-.52.99-1.04,1.98-1.55,2.97Z"/>
      <path d="M229.42,44.72c-.12.05-1.88.74-3.4-.35-1.11-.79-1.34-2-1.39-2.26.59-.95,1.19-1.89,1.78-2.84,1.61-1.04,3.21-2.08,4.82-3.13-1.24,1.21-2.48,2.41-3.72,3.62-1.09.76-1.55,1.99-1.22,2.8.42,1.04,2.25,1.69,3.9.67-.26.5-.52.99-.78,1.49Z"/>
      <path class="cls-1" d="M161.39,87.84c-.12.05-1.88.74-3.4-.35-1.11-.79-1.34-2-1.39-2.26.59-.95,1.19-1.89,1.78-2.84,1.61-1.04,3.21-2.08,4.82-3.13-.09,1.87-.18,3.74-.26,5.6-.52.99-1.04,1.98-1.55,2.97Z"/>
      <path d="M161.39,87.84c-.12.05-1.88.74-3.4-.35-1.11-.79-1.34-2-1.39-2.26.59-.95,1.19-1.89,1.78-2.84,1.61-1.04,3.21-2.08,4.82-3.13-1.2,1.32-2.4,2.63-3.6,3.95-.92.72-1.05,2.07-.32,2.93.71.83,2.01.94,2.88.21-.26.5-.52.99-.78,1.49Z"/>
      <path class="cls-1" d="M308.35,56.99c-.12.05-1.88.74-3.4-.35-1.11-.79-1.34-2-1.39-2.26.59-.95,1.19-1.89,1.78-2.84,1.61-1.04,3.21-2.08,4.82-3.13-.09,1.87-.18,3.74-.26,5.6-.52.99-1.04,1.98-1.55,2.97Z"/>
      <path d="M308.35,56.99c-.12.05-1.88.74-3.4-.35-1.11-.79-1.34-2-1.39-2.26.59-.95,1.19-1.89,1.78-2.84,1.61-1.04,3.21-2.08,4.82-3.13-1.26,1.34-2.52,2.69-3.78,4.03-1.07.76-1.22,2.25-.48,3.12.77.89,2.32.94,3.21-.06l-.78,1.49Z"/>
    </g>
  </g>
</svg>