<?xml version="1.0" encoding="UTF-8"?>
<svg id="Layer_2" xmlns="http://www.w3.org/2000/svg" version="1.1" viewBox="0 0 400.7 435.4">
  <!-- Generator: Adobe Illustrator 29.0.1, SVG Export Plug-In . SVG Version: 2.1.0 Build 192)  -->
  <defs>
    <style>
      .st0, .st1, .st2, .st3, .st4, .st5, .st6 {
        stroke-miterlimit: 10;
      }

      .st0, .st2, .st5 {
        stroke-width: .5px;
      }

      .st0, .st4 {
        fill: none;
      }

      .st0, .st4, .st5, .st6 {
        stroke: #f6f5f5;
      }

      .st1 {
        stroke: #fff;
      }

      .st1, .st4, .st6 {
        stroke-width: .2px;
      }

      .st7, .st2, .st3 {
        fill: #fff;
      }

      .st2 {
        stroke: #000;
      }

      .st3 {
        stroke: #231f20;
      }
    </style>
  </defs>
  <g id="Capa_1">
    <rect x="-1.9" width="402.5" height="435.3"/>
    <circle class="st3" cx="76.5" cy="146.5" r="19.6"/>
    <path class="st2" d="M400,370.9v62.5H-1.3v-62.5c9.8-2,20.9-4,33-5.8,5.7-.8,8.6-1.2,10.5-1.3,14.6-.1,18.8,6.7,34.1,7,2.8,0,5.8-.1,11.9-.5,9.1-.5,12.8-1.1,23.7-1.2,14.9-.1,21.3.9,35.5,1.7,12.2.7,29.5,1.1,50.9.1.7,0,1.4,0,2.1-.1h37.9c23,0,26.6.3,37.5,0,19.2-.6,20.9-1.6,35.5-1.7,4,0,7.4,0,10.5.1,10.1.4,9.4.7,11.6.5,7.5-.7,8.8-4.8,15-6.9,8.2-2.8,12.9,1.9,28.5,5.4,5.2,1.1,13,2.5,22.9,2.6h.2Z"/>
    <path class="st1" d="M400.5,435.3H-1.9c-.2-19.6-.4-39.1-.6-58.7,10.7-.9,25.9-1.9,44.1-2.2,17.2-.3,30.2,0,37.1.3,42.2,1.4,86.5,4.4,115.4,6.1,60.1,3.6,90.2,5.4,104.1,4.3,13.5-1.1,41-4.1,80.5-4.4,9.2,0,16.7,0,21.8.1v54.4h0Z"/>
    <path class="st4" d="M48.4,386.1c-14,0-36.7-.4-36.7.2s18.1.4,18.8,4.3c.9,4.8-26.4,12.4-25.6,16.1.4,2.1,7.8,1.3,21.3,2.6,14.4,1.4,17.1,3.4,22.5,4.4,3.4.6,5.8.5,7.4.6,8.3.2,9.5,2.3,22.3,4.3,2.7.4,7.8,1.2,14.4,1.5,4.3.2,5.6,0,8.8.4,7.2.7,12.4,2.7,13.5,3.1,14.1,4.9,81.9-1.6,100.5-3.1,29.9-2.4,52.1-4.1,80.6.2,4,.6,29.5,4.6,61.3,2.5,16.2-1,20.9-2.8,20.9-3.9,0-2-15.6-3.4-15.5-5.4,0-.8,2.1-.8,5.1-2.1,3.7-1.6,5.4-3.6,9.7-7.8,9-8.9,10.5-9.1,10.3-10.5-.4-2-3.8-3.8-25.3-6-10.5-1.1-15.8-2.3-21-1.8-22.9,2.5-52.4-5.6-123.9-5.6s-99.3,2.4-119.4,3.8c-14.8,1-28.4,2.3-49.8,2.4h0l-.2-.2Z"/>
    <path class="st4" d="M78.8,385.4c-26.4,2-30.4,2.9-30.4,3.5,0,1.6,20.4,2.9,20.4,4.1s-14,1.8-35.8,5.9c-10,1.9-12.8,2.9-12.8,3.8,0,1.9,13.4,2.7,15.2,2.8,12.1.8,15.1-.9,23.8-.7,16.5.4,14.8,6.4,29.2,6.2,10.4-.2,19.1-3.5,25.7,2,1.3,1.1,1.9,2.2,2.3,2.4,15.1,11,67.5-1.3,152.3-2.4,0,0,67,10.3,71.2-1.9.2-.5.8-2.9,2.7-3.6,3.5-1.3,6.3,5,11.8,5.4,2.7.2,4.3-1.2,13-8.1,11.5-9.3,12.2-9.7,12.1-10.5-.9-5.3-32.3-3.7-51.2-3.2-28.5.7-57.7-4.4-116.4-6.2-42.1-1.3-61.5-5.2-92.7-3-9.9.7-15,1.6-40.3,3.5h-.1Z"/>
    <path class="st4" d="M38.7,381.8c-25.1,1.8-40.6,1-40.8,3.2-.3,2.5,18.8,5.1,18.7,9.2,0,2.8-9,5-18.6,6.5v11.4c9.2,1.8,16.8,3.2,21.9,4.2,9.9,1.9,20.2,3.9,32.2,6,18.8,3.3,26,5.3,35.6,7.1,23.3,4.4,42.8,4.5,65.2,4.2,133-1.8,127.2-12.4,156.9-6.4.6.1,1.5.3,2.8.5,33.4,6.3,65.6.2,65.6.2,10.6-2.2,21.9-5.8,21.7-8.2-.3-3.2-21.2-1.6-22.4-7-1.3-6,23.1-14.9,21.5-20.8-.3-1.1-1.6-1.6-4.2-2.7-11.1-4.6-24.5-3.5-27.9-4-3.1-.4-3-.6-6-1-15.3-2.1-27.4-.8-32.8-.3-15.7,1.4-44.3-.1-101.7-3.2-54.6-2.9-101.5-7-159.4-1.8-15.8,1.4-23.7,2.3-28.3,2.6h0v.3Z"/>
    <path class="st4" d="M119.6,403.6c3.7-.4,9.1-.6,15.4.5,9.9,1.6,13.5,4.8,20.6,7.1,7.9,2.5,17.3,1.2,36.3-1.4,21-2.9,23.2-4.4,30.6-3.8,7.5.6,10,2.1,18.5,2.6,9.9.6,18.2-.7,23.7-1.9"/>
    <g>
      <path class="st6" d="M367.2,388.6c1.2-8.9,2.5-17.8,3.7-26.8-2.7-5.7-5.5-11.4-8.2-17.1-.5-10.6-1-21.3-1.5-32l-14.9-26c-2.5,1.2-5,2.5-7.5,3.7.5,3.2,1,6.4,1.5,9.7l-15.6,15.6c-.7,23.5-1.5,47.1-2.2,70.6,6.7,1.5,14.1,3.8,21.7,7.5,1.5.7,2.9,1.4,4.3,2.2,1-.3,2.5-.9,4.3-1.7,2.7-1.2,4.1-2.2,5.7-3,1.9-1,4.7-2.1,8.7-2.7h0Z"/>
      <path class="st6" d="M340.4,300.1c.4,10.4.7,20.8,1.1,31.2"/>
      <path class="st6" d="M362.7,344.7c-2.5,5.8-5,11.6-7.5,17.5,5.2-.1,10.4-.2,15.6-.4"/>
      <path class="st6" d="M341.5,331.3l13.8,30.9c-2.2,11.3-4.5,22.5-6.7,33.8"/>
    </g>
    <path class="st5" d="M56.6,401.1c1.3-32.8,2.5-65.6,3.8-98.4,1.3-1.1,2.5-2.2,3.8-3.3l3.3-22.7c3-1.9,6-3.8,9-5.7.3-1.6.6-3.1,1-4.7,2.5-.8,5.1-1.6,7.6-2.4.5-2.5,1-5,1.4-7.6,4.3-1.4,8.5-2.8,12.8-4.3,5.9-3.3,11.7-6.6,17.5-9.9h9c2.5,3.8,5.1,7.6,7.6,11.4,4,8,7.9,16.1,11.9,24.1,3.2,1.9,6.3,3.8,9.5,5.7l3.3,6.6c6.2,1.9,12.3,3.8,18.5,5.7l32.7-1.4,49.3-20.3c4.4,1.1,8.9,2.2,13.3,3.3,8.9-3.6,17.7-7.2,26.5-10.9,2-1.7,4.1-3.5,6.2-5.2l6.2,2.4c3-5.5,4.4-8.5,5.2-10.4,0,0,0-.2.1-.3,1.6-2.6,8.4-1.1,14.5.8,2.5,1.3,5.1,2.5,7.6,3.8v63.9c.3,26.8.6,53.6,1,80.4-2.8,1.7-5.7,3.5-8.5,5.2-2.5.8-6.6,2-11.8,2.3-9.4.6-13.8-2-22.2-2.1-4.1,0-10.4.4-18.2,3.6-6.2-.6-12.3-1.3-18.5-1.9l-.3-8c-22.7.8-40.9.3-53.8-.3-11-.5-22.1-1.4-39.1-1.4s-21,.5-27.5.9c-5,1.7-10,3.4-15,5.1-4.8.2-8.7-.2-11.3-.6-4.9-.9-6.8-2-11-2.3-4.4-.4-8.1.4-10.5,1.1-2.4-1.3-4.7-2.5-7.1-3.8-4.2.8-7.6.8-9.9.6-4.6-.3-6.9-1.3-11-.9-3.1.4-5.5,1.4-7.1,2.1h0l.2-.2Z"/>
    <path class="st6" d="M257.5,347.5c8.1-1,16.2-2,24.4-3"/>
    <path class="st0" d="M86,269.1c-.5,10.4-1,20.8-1.4,31.2,2.7,1.7,5.4,3.5,8.1,5.2-.5,8.7-1,17.4-1.4,26,3.6.4,7.3.7,10.9,1.1.2,5.9.5,11.8.7,17.7,3.2,1,6.5,2,9.7,3,3.7,15.9,7.3,31.8,11,47.7.3,1.3.6,2.6.9,3.9"/>
    <path class="st0" d="M327.3,263.5c-1,25.7-1.9,51.4-2.9,77.1-14.1.5-28.1,1-42.2,1.4-1.1,6.6-2.2,13.2-3.3,19.9-5.5,1-11.1,1.9-16.6,2.8-.2,6.8-.3,13.6-.5,20.3"/>
    <g>
      <path class="st7" d="M117.1,319.1v12.7c-2.9-.4-5.9-.9-8.8-1.3v-14c2.9.9,5.9,1.8,8.8,2.6h0Z"/>
      <path class="st7" d="M132,323.6v10.5c-2.1-.3-4.2-.6-6.3-1v-11.5c2.1.6,4.2,1.2,6.3,1.9h0Z"/>
      <path class="st7" d="M145.4,327.6c0,2.8-.2,5.7-.2,8.5-1.7-.2-3.3-.5-5-.8v-9.3c1.7.5,3.5,1,5.2,1.6h0Z"/>
      <path class="st7" d="M295,325.1v12.7c2.9-.4,5.9-.9,8.8-1.3v-14c-2.9.9-5.9,1.8-8.8,2.6h0Z"/>
      <path class="st7" d="M280.2,329.6v10.5c2.1-.3,4.2-.6,6.3-1v-11.5c-2.1.6-4.2,1.2-6.3,1.9h0Z"/>
      <path class="st7" d="M266.8,333.6c0,2.8.2,5.7.2,8.5,1.7-.2,3.3-.5,5-.8v-9.3c-1.7.5-3.5,1-5.2,1.6h0Z"/>
    </g>
    <path class="st4" d="M102.1,332.6c17.6,2.2,35.2,4.5,52.9,6.7"/>
    <path class="st4" d="M112.5,353.4c4.6,3.1,9.2,6.3,13.8,9.5,2.5,6.5,4.9,12.9,7.4,19.4,42.8,1,85.5,1.9,128.2,2.8"/>
    <path class="st6" d="M243.3,332.3c22.6-4.7,45.3-9.5,67.9-14.2"/>
    <path class="st6" d="M97.4,307c20,6.3,39.9,12.6,59.9,18.9"/>
    <path class="st7" d="M176.8,376.4c-.1,0,.8,1.3.4,2-.3.5-1.4.6-2.1.4-3.1-.9-3.4-7.4-3.2-8.1,0-.4.2-.7.2-.7.2-.5.5-.7.5-1.2-.1-1.8-3.5-1.8-4.3-4.2-.4-1.3.1-2.8.2-3,.5-1.4,1.3-1.5,1.2-2.2-.1-1.3-2.7-1.1-4.1-3.3-.1-.2-1.3-2-.8-3.9.2-1,.7-1,.6-1.6-.2-1.4-3.5-1-4.8-3.1,0-.2-.6-1.2-.4-2.3.3-1.3,1.4-1.6,1.2-2.2-.2-1-3.1-.4-4.2-2-.7-1-.4-2.4-.3-2.8.4-1.6,1.6-1.9,1.4-2.6-.3-1.3-4-.9-4.5-2.6-.1-.3,0-.6,0-.8.7-3.6,13-5.9,12.8-7.8,0-.4-.7-.4-1.2-.9-3.6-2.8.8-17.4,5.8-26.5,1.1-1.9,2.9-4.9,2-7.8-.5-1.8-1.8-2.6-1.5-4.2.4-1.9,2.6-2.2,2.6-3.8s-1.9-2-1.8-3.6c.1-1.7,2.6-1.9,3.1-3.8s-1.4-3.5-2.9-5.7c-2.7-4.1-1.9-7.6-2.6-11.1-2-10.1-15.9-15.3-16-15.1,0,0,4.4,1.9,8.3,6.8,6.6,8.3,8.1,20.6,4.3,23-1.5,1-2.4-.5-4.6.6-3.8,1.9-2.8,7.4-7.2,9.8-1.7.9-2.3.3-2.9,1.1-2.2,2.9,8.1,9.9,10.1,20.8,1.8,9.4-2.8,20.7-9.9,23.7-5.5,2.3-12.3-.4-12.5.3-.1.5,3.5,1,7,3.9.4.3,2.5,2.2,4,5.2,3.3,6.8,1.4,15.1-1.2,18-.2.2-.5.5-.5.9-.4,1.9,3.5,3.2,7.4,7.6,1.1,1.3,1.8,2.3,2.4,3.3,1.3,2,3.9,5.9,2.9,8-.1.2-.5.8-1,1.9,0,0-.4.7-.6,1.3-.6,1.4-.6,3.3-.9,4.7,4.6.1,9.1.2,13.7.3,0-.5.3-1.5,1-1.7.5-.2,1,.2,1.7.5.8.4,1.9.9,3.3,1.3h3.4c-3.9-5.3-5.3-7-5.4-6.9h0ZM161.6,364.3c-3.3-4.5-4.5-3.9-6.2-6.8-1.8-3.2-2.2-7-1-10.1.6-1.5,1.7-3,2.3-2.9.9.2-.4,3.7,1.5,5.9,1.2,1.4,3,1.5,3,2.7s-.4.6-.7,1.6c-.1.3-.5,1.6-.1,2.9.4,1.5,1.7,2.5,2,2.6,1,.8,1.8.8,2.1,1.5.2.5,0,.8-.2,1.5-.6,2.2.4,3.9,0,4.1s-1.5-1.6-2.6-3.1h-.1Z"/>
    <path class="st5" d="M91.7,403c-.7-20.3-1.3-40.5-2-60.8-1.7,19-3.4,38-5.1,57"/>
    <path class="st6" d="M76.5,271c-1.3,38.3-2.6,76.6-3.9,114.9"/>
    <path class="st6" d="M64.2,299.4c-.2,22-.3,43.9-.5,65.9"/>
    <path class="st6" d="M133.7,382.2c2,4.1,3.9,8.2,5.9,12.3"/>
    <path class="st6" d="M136.5,388.2l124.5.7"/>
    <path class="st6" d="M135,384.5c42.2.8,84.3,1.6,126.5,2.4"/>
    <path class="st6" d="M137.5,390.3c41,.2,82.1.4,123.1.6"/>
    <path class="st4" d="M139.4,399.8c0-1.8.1-3.5.2-5.3,40,.4,80.1.9,120.1,1.3"/>
    <path class="st5" d="M259.7,400.6c.2-1.5.4-3.1.6-4.6l1.5-11"/>
    <path class="st6" d="M310.7,263.5c-.5,15.5-.9,31-1.4,46.5"/>
    <path class="st6" d="M298.7,266.4c.4,14.2.8,28.4,1.2,42.5"/>
    <path class="st6" d="M271,277.3c-.4,14.2-.9,28.4-1.3,42.6"/>
    <path class="st6" d="M259.2,274.2c-.4,14.2-.9,28.4-1.3,42.6"/>
    <path class="st6" d="M145.3,277.6c-.4,12.6-.8,25.2-1.1,37.8"/>
    <path class="st6" d="M176.1,295.5c-.3,29.2-.7,58.4-1,87.6"/>
    <path class="st6" d="M208.2,294.6c-.5,29.7-.9,59.5-1.3,89.2"/>
    <path class="st7" d="M237.5,339.8c0-.3.5-1.2.6-2.4,0-.9-.1-1.5-.2-1.8,0,0-1.3-5.6-2.4-11.1-1.3-6.2.3-11.1.1-11.1s-1.5,4.2-1.6,9.9c-.1,8.1,2.5,12-.1,16.6-.8,1.4-2.1,3-2.9,2.8-2-.5,1.9-10.2-2.8-15.2-2-2.2-3.8-1.5-7.8-5.1-1-1-1.9-1.9-3.5-2.3-2.5-.6-4.1.9-4.9.1-.8-.9.3-4.2,2.2-4.9.8-.3,1.4,0,1.9-.6.7-.8.2-2.3.1-2.8-.8-3.4,2.4-7.2,3.6-8.8,3.3-4,5.1-3,11.7-8.6,3.1-2.7,4.7-4.7,5.3-5.4,3.3-4.3,4.5-8.1,4.4-8.2-.2-.1-1.8,4.7-6.2,6.8-1.3.6-3.1,1.1-3.4.7-.4-.6,2.3-2.2,4.3-5.3,2-3.2,2.2-6.8,2.6-13.8,0-1.9.2-3.8,0-6.2-.5-10.4-4-18.4-4.3-18.3-.2,0,2.6,7.9,2.5,19,0,5.6-.9,9.7-3.7,11.6-.3.2-1.8,1.2-3.5.9-3-.6-4-5.2-4.1-5.4-1.1-5.1,2.6-9.5,2.2-9.7-.4-.2-4.1,3.4-3.9,7.7,0,1.4.5,2.7-.1,3.1-.9.6-3-1-3.3-1.3-5.2-4-5.8-12.9-5.8-13.5,0,.5-.8,7.5,3.1,14.2.9,1.5,2.5,4,1.6,5.9-.5,1.2-1.5,1.1-2.5,2.6-1.3,2.1,0,3.4-1.2,5-1.7,2.4-4.5,1.3-4.9,2.8-.3,1.2,1.4,2.3,4.8,7.3,1.1,1.6,1.6,2.5,1.7,2.9.7,5.4-13.9,11.1-13.1,13.2.2.4.6.1,1.2.7,1.7,1.7.8,6.6-2,9.5-.7.7-1,.8-1,1.3,0,1.6,4.8,1.4,8.3,4.8,2.9,2.8,2.5,5.6,4.6,6,2.4.5,3.8-3.1,5.9-2.6,2.7.6,3.3,7.2,3.5,8.6.3,3.4-.2,4.6-.3,6.8-.2,4.4,7.9,10,7.6,15.9-.3,5.3-7.9,10.5-12.6,9.4-2.9-.7-5.1-3.8-5.5-3.5s1.7,2.5,1,4.6c-.2.6-.4.5-.6,1.1-.6,1.8.7,3.2,1.1,5.1.3,1.2.3,2.9-.8,5.3,1.5,0,2.9,0,4.4.1.5-3.2,1.5-5.5,2.4-7,4.2-7.5,12.8-10.8,15.2-10.6.1,0,.5,0,.9-.2,1.3-.8.6-4,.3-5.5-1.6-8.4-1.4-17.7-.2-21.1h0ZM234.6,358.1c-.3,0-.5-2.5-2.4-5.3-2-3-4.6-4.4-4.2-5.1.2-.5,1.3.2,2.7-.5,1.6-.8,2.1-2.5,2.4-2.4.4.1,0,1.8-.1,2.9-.1.9-.2,1-.3,1.4-.3,1.9.9,2.8,1.6,5.2.6,1.9.5,3.8.3,3.9h0Z"/>
    <path class="st7" d="M211,299c-3.1-3.2-2.5-9.8-1.1-10.3.4-.1.7.3.9.2.5-.5-3.1-8.5-10-11-3.3-1.2-5.6-.5-6.8-2.4-1-1.6-.6-4.1.6-5.7,2.6-3.8,9-3.2,9-4.3s-3.3-.5-4.9-2.8c-1.4-2-.1-4.4-1.2-5-1.6-.9-4.8,4.3-7.5,3.5-2.4-.7-1.7-5.4-5.3-7.2-1.5-.8-2.2,0-3.5-.9-2.8-1.9-3.6-5.9-3.7-11.6-.1-11.1,2.8-19,2.5-19.1-.2,0-3.8,7.9-4.3,18.3-.1,2.5,0,4.4,0,6.2.4,7.1.5,10.6,2.5,13.8,1.8,2.9,4.6,4.9,4.3,5.3-.2.2-.9-.4-2.3-.3-1.6,0-2.9.8-2.9,1.1s1,0,1.9.2c2.2.6,3.1,4,3.4,5.2,2.6,10.2,4,15.2,5.8,16.7,2.1,1.8,6.9,3.3,9.7,3.6.2,0,1,.2,1.9.6,2,.8,3.1,4,2.2,4.9-.7.8-2.4-.7-4.9-.1-1.6.4-2.5,1.3-3.5,2.3-4,3.7-5.8,3-7.8,5.1-4.7,5-.9,14.7-2.8,15.2-.8.2-2.1-1.4-2.9-2.8-2.6-4.7,0-8.5-.1-16.6,0-5.7-1.4-9.9-1.6-9.9s1.4,4.9.1,11.1c-1.1,5.5-2.4,11.1-2.4,11.1,0,.2-.2.9-.2,1.8,0,1.3.5,2.2.6,2.4,1.1,3.4,1.3,12.7-.3,21.1-.3,1.5-1,4.7.3,5.5.4.2.8.2.9.2,2.6-.2,17.9,7.3,17.7,18.5-.1,6.1-4.8,12-7.7,11.7-2.1-.2-3.4-3.7-4.1-3.4-.8.4,1.4,5.9-.4,7.1-.4.3-.9.3-1,.6-.2.7,1.7,1.1,2,2.5.2,1.1-.6,2.1-.6,2.2-.5.7-1,.6-1.2,1.1-.3.5-.1,1.6,1.9,3.8h4.7c.1-2.4.8-9.6,6.3-14,2.7-2.2,7.7-4.6,9.7-3,.7.6.7,1.5,1.4,1.6,1.3.2,3.6-3.4,4.1-7.2.8-5.6-2.7-7.1-2.5-13.6,0-4.2,1.6-4.3,1.7-8.5.2-7.4-4.3-13-4.6-12.9-.2.1,2.9,4.7,2.7,11.4-.1,4.3-1.4,4.5-1.9,8.8-.9,8.8,4,14.3,2.1,15.9-1.3,1-4.5-.8-6-2.1-2.2-1.9-4-5.4-3.3-8.4.4-2,1.8-3.4,1.1-5.1-.3-.8-.8-.9-1-1.7-.5-2,1.7-3.8,1.4-4s-2.6,2.8-5.5,3.5c-4.7,1.1-12.3-4.1-12.6-9.4-.3-5.8,7.8-11.5,7.6-15.9-.1-2.2-.6-3.4-.3-6.8.1-1.4.8-7.9,3.5-8.6,2.1-.5,3.5,3.1,5.9,2.6,2.1-.4,1.7-3.2,4.6-6,3.5-3.4,8.3-3.1,8.3-4.7s-.4-.7-1-1.3h.4ZM182.1,330.5c-1.8,2.8-2.1,5.4-2.4,5.3-.3,0-.4-2,.3-3.9.8-2,1.9-2.4,1.9-4s-.2-.7-.5-2.5c-.2-1.1-.5-2.7-.1-2.9.4-.1.8,1.6,2.4,2.4,1.4.6,2.5,0,2.7.5.4.7-2.2,2-4.2,5.1h0Z"/>
    <path class="st0" d="M330.7,406.8l-4.5-57.5c-15.9,20.4-31.8,40.9-47.7,61.3"/>
    <path d="M279,361.9c0,9.9.2,19.7.2,29.6"/>
    <path class="st7" d="M225.1,297.6c.5.2,1.1-.6,2.6-1,2.8-.9,5.8.7,6.1.9,4.5,2.5,4,7.9,3.8,8.7-.1.4-.2.8-.2.8-.3.6-.6.8-.6,1.3.1,1.9,4.2,1.9,5.1,4.5.5,1.4-.1,2.9-.3,3.2-.6,1.5-1.6,1.6-1.5,2.4.1,1.4,3.2,1.1,5,3.5.1.2,1.6,2.1,1,4.1s-.8,1.1-.7,1.7c.3,1.5,4.2,1,5.7,3.3.1.2.8,1.2.5,2.4-.3,1.4-1.7,1.7-1.5,2.4.3,1,3.7.4,5,2.1.9,1.1.5,2.6.4,3-.5,1.7-1.9,2-1.7,2.8.4,1.3,4.8,1,5.5,2.8.1.4,0,.6,0,.9-.8,3.8-15.7,6.2-15.5,8.2,0,.4.8.5,1.5.9,4.3,3-.9,18.5-7,28.1-.9,1.3-3.3,4.8-2.4,8.3.4,1.4,1.1,2.3,1.6,2.9,6.9,0,13.9.2,20.8.3-2.3-2.2-8.4-8.9-9.3-18.9-.8-9.8,3.5-22,11.9-25.2,6.6-2.5,14.9.4,15-.3.1-.6-4.3-1-8.4-4.2-.5-.4-3-2.3-4.8-5.5-3.9-7.2-1.7-16,1.5-19.2s.5-.5.6-.9c.4-2-4.2-3.4-8.9-8.1-1.4-1.4-2.2-2.4-2.9-3.5-1.6-2.1-4.7-6.3-3.4-8.5.1-.2.6-.8,1.3-2,0,0,.5-.7.8-1.4,1-2,.6-5.3,1.8-6.3,1.4-1.2,6,.7,9.2,2.7,15.6,9.8,31.6,43.8,31.9,43.7.3,0-24-52.7-31.8-50.6-.7.2-1.5.9-2.9.8-3.1-.1-6.1-3.7-8.6-6.8-1.1-1.4-1.6-2.2-2.2-2.1-1.1.2-.5,3.1-1.9,6.1-2.1,4.5-7.4,6.3-8.8,6.8-3.4,1.2-8.7,1.9-9.7.3-.6-.9-.2-2.8,1-3.7.3-.2.5-.2.7-.5,1-1.1-.3-3.2-.5-3.7-.5-.9-1.5-3.6,3.5-13.6,4.7-9.5,9.2-14.2,8.9-14.4-.6-.4-18.3,23.5-17.5,30.4,0,.6.4,2.1.4,4.5s-.9,5.2,0,5.6h-.1ZM246.9,313.9c.7-2.4-.5-4.2,0-4.4.5-.2,1.9,1.7,3.2,3.3,4,4.8,5.4,4.1,7.4,7.2,2.2,3.4,2.7,7.5,1.2,10.8-.7,1.6-2,3.2-2.7,3-1-.2.5-3.9-1.9-6.3-1.4-1.5-3.6-1.6-3.6-2.9s.4-.6.8-1.7c.1-.4.6-1.7.2-3.1-.5-1.6-2-2.6-2.4-2.8-1.2-.8-2.2-.8-2.5-1.6-.2-.5,0-.9.3-1.6h0Z"/>
    <rect class="st7" x="-20.4" y="136.4" width="18.3" height="72.7"/>
  </g>
</svg>