<?xml version="1.0" encoding="UTF-8"?>
<svg id="Layer_2" data-name="Layer 2" xmlns="http://www.w3.org/2000/svg" viewBox="0 0 212.92 117.01">
  <defs>
    <style>
      .cls-1 {
        fill: #fff;
      }
    </style>
  </defs>
  <g id="Capa_1" data-name="Capa 1">
    <path class="cls-1" d="M194.67,107.93c-12.17-.97-13.64-4.53-30.59-9.63-15.1-4.54-27.38-5.76-33.54-12.9-.26-.3-4.33-5.1-3.02-7.17.76-1.2,3.05-1.18,3.05-1.95,0-.45-.77-.52-1.68-1.44-.68-.69-1.65-2.09-1.27-3.09.14-.36.5-.79,2.24-1.29,3.11-.89,3.79-.07,5.13-.74,2.53-1.28,1.66-4.62,3.95-5.54,1.25-.5,3.12.39,6.92,2.26,2.79,1.38,2.52,1.58,3.97,2.06,3.43,1.15,6.55.64,7.65.35,1.27-.34,2.57-.65,3.73-1.21,7.29-3.57,18.14-3.32,19.6-3.32,7.93-.02,12.69,1.93,12.78,1.58.12-.51-9.75-4.18-19.27-4.42-2.2-.06-6.58.07-10.71.82-.97.18-1.93.35-2.87.6-2.08.51-4.1.66-6.05.48-4.29-.4-7.8-2.43-9.3-3.52-1.5-1.09-3.22-2.71-6.16-3.97-.81-.35-1.75-.68-2.6-.31-1.18.52-.91,2.08-1.93,3.08-1.36,1.35-3.98.79-5.08.55-7.45-1.61-15.91-12.46-13.35-17.3.91-1.71,2.92-2.14,2.75-2.54-.29-.68-6.39-.19-10.89,3.57-1.98,1.66-2.44,2.94-3.87,2.95-2.21.02-1.92-3.69-5.76-5.05-2.18-.77-4.94-1.84-8.33-2.78-.72-.2-2.23-.61-2.52-1.64-.17-.63.21-1.15.54-1.87.68-1.5.9-3.48.46-4.86-.56-1.75-2.47-3.41-4.32-5-.26-.23-.91-.77-.78-1.16.09-.27.54-.37,1.19-.41,2.54-.18,3.65.76,4.38.18.63-.5.2-1.54.45-2.27.72-2.1,7.67-3.1,19.78-.18,12.63,3.05,21.61,8.14,23.92,9.47,18.47,10.63,29.48,22.18,29.66,21.98.19-.22-10.67-14.78-30.08-26.57-12.23-7.43-26.77-10.21-27.21-17.94-.18-3.15,1.91-7.17.83-7.74-.68-.36-1.61,1.15-3.98,2.53-4.13,2.4-6.53.85-9.43,2.72-3.08,1.97-1.52,4.44-4.32,7.57-2.22,2.48-5.51,3.51-10.18,3.99-.28-.86-.76-2.05-1.62-3.3-2.28-3.3-5.91-5.11-6.3-4.69-.2.21.65,1.04,1.31,2.4.9,1.85,1.18,4.13.99,5.94-3.75,1.16-9.5,2.44-16.33,1.75-10.04-1.01-11.71-5.2-24.61-7.74-8.97-1.77-16.24-1.34-19.89-1.1C5.5,10.56-.04,11.73,0,12.09c.05.47,11.21-1.64,25.14,1.12,4.71.93,8.21,2.06,11.06,3.26,5.51,2.31,7.56,4.49,12.98,6.56,4.1,1.57,7.64,2.16,9.83,2.42,0,0,9.33.71,14.67,6.15,2.23,2.27,4,5.61,3.02,7.17-.76,1.2-3.05,1.18-3.05,1.95,0,.45.77.52,1.68,1.44.11.11,1.56,1.65,1.27,3.09-.37,1.8-3.36,2.95-5.59,2.53-1.08-.2-1.16-.62-1.78-.5-1.99.38-1.67,4.76-3.95,5.54-.62.21-1.2.12-2.95-.56-4.77-1.83-5.27-2.56-7.93-3.77-2.46-1.11-5.07-1.07-7.65-.35-1.27.34-2.57.65-3.73,1.21-6.23,2.95-12.87,3.51-19.6,3.32-3.55-.1-5.92-.21-7.33-.41-3.45-.5-5.43-1.23-5.45-1.17-.04.13,9.75,4.18,19.27,4.42,2.2.06,6.58-.07,10.71-.82.97-.18,1.93-.35,2.87-.6,2.09-.51,4.1-.66,6.05-.48,4.29.4,7.8,2.43,9.3,3.52,1.5,1.1,3.22,2.71,6.16,3.97.81.35,1.75.68,2.6.31,1.18-.52.91-2.08,1.93-3.08,1.37-1.35,3.98-.79,5.08-.55,7.45,1.61,15.91,12.46,13.35,17.3-.91,1.71-2.92,2.14-2.75,2.54.29.68,6.39.19,10.89-3.57,1.98-1.66,2.44-2.94,3.87-2.95,2.21-.02,1.92,3.69,5.76,5.05,2.18.77,4.94,1.84,8.33,2.78.72.2,2.23.61,2.52,1.64.17.63-.21,1.15-.54,1.87-.68,1.5-.9,3.48-.46,4.86.56,1.75,2.47,3.41,4.32,5,.26.23.91.77.78,1.16-.09.27-.54.37-1.19.41-2.54.18-3.65-.76-4.38-.18-.63.5-.2,1.54-.45,2.27-.59,1.73-5.67,3.26-19.78.18-8.63-1.89-15.88-3.5-24.86-8.27,0,0-10.59-5.63-27.95-22.38,0,0-.75-.82-.78-.8-.07.07,10.63,14.76,30.08,26.57,12.23,7.42,26.77,10.21,27.21,17.94.18,3.15-1.91,7.17-.83,7.74.68.36,1.61-1.15,3.98-2.53,4.13-2.4,6.52-.85,9.43-2.72,3.08-1.98,1.52-4.44,4.32-7.58,2.22-2.48,5.51-3.51,10.17-3.99.09.33.23.78.44,1.28,1.97,4.74,7.05,7.21,7.49,6.71.19-.21-.54-.82-1.31-2.39-.9-1.85-1.18-4.13-.99-5.94,1.7,0,3.48-.03,5.33-.14,3.62-.21,6.97-.63,9.99-1.16,3.86.96,9.99,2.54,17.5,4.71,16.48,4.76,20.96,6.97,29.72,7.21,10.59.29,19.15-2.53,19.09-2.99-.06-.46-8.1,1.3-18.25.49Z"/>
  </g>
</svg>