<?xml version="1.0" encoding="UTF-8"?>
<svg id="Layer_2" data-name="Layer 2" xmlns="http://www.w3.org/2000/svg" viewBox="0 0 402.76 349.83">
  <defs>
    <style>
      .cls-1 {
        stroke-linecap: square;
      }

      .cls-1, .cls-2, .cls-3 {
        stroke: #fff;
      }

      .cls-1, .cls-2, .cls-3, .cls-4, .cls-5 {
        stroke-miterlimit: 10;
        stroke-width: .25px;
      }

      .cls-1, .cls-3, .cls-5 {
        fill: none;
      }

      .cls-6, .cls-4 {
        fill: #fff;
      }

      .cls-4, .cls-5 {
        stroke: #000;
      }
    </style>
  </defs>
  <g id="Capa_1" data-name="Capa 1">
    <g>
      <rect x=".12" y="0" width="402.64" height="318.4"/>
      <path class="cls-4" d="M402.49,257v91.28H.12v-91.28h40.18c23.1,0,26.72.47,37.65,0,19.24-.83,20.97-2.34,35.62-2.49,14.93-.15,21.36,1.33,35.62,2.49,12.25.99,29.59,1.68,51.03.16.71-.05,1.43-.1,2.16-.16h38.02c23.1,0,26.72.47,37.65,0,19.24-.83,20.97-2.34,35.62-2.49,14.93-.15,21.36,1.33,35.62,2.49,12.66,1.03,30.75,1.73,53.19,0Z"/>
      <path d="M261.46,274.88c-1.88-.05-2.44.12-4.25.1-1.74-.02-2.2-.19-3.87-.3-2.79-.19-4.13.1-8.06.2-4.91.13-8.61-.18-8.63-.15-.02.04,3.87.4,8.49.33,3.53-.05,4.19-.3,7.03-.19,2.55.1,2.9.34,5.36.34,1.61,0,2.19-.1,4.55-.07,1.54.02,2.48.07,2.52.04.06-.05-1.41-.24-3.14-.29Z"/>
      <g>
        <path d="M106.16,335.08c.72-.01,1.33.16,2,.35.95.27,1.26.6,2,.8.98.26,2.35.56,4.01.71,3.76.34,6.06-.35,6.1-.18.02.09-4.44,1.5-9.92,1.33-2.87-.09-7.22-.66-7.28-1.59-.04-.6,1.65-1.39,3.09-1.42Z"/>
        <path class="cls-4" d="M105.8,336.15c-.31-.95.43-2.01.64-2.3.97-1.37,2.57-1.66,2.93-1.72,1.4-.25,2.54.18,4.45,1.04,4.36,1.97,6.54,2.95,6.46,3.59-.17,1.41-5.83,1.85-9.92,1.33-1.66-.21-4.1-.55-4.55-1.95Z"/>
        <path class="cls-4" d="M105.8,336.15c-.11-.42-.15-1.16.64-2.3.34.43.9,1.04,1.73,1.59,1.73,1.15,3.54,1.3,6.01,1.5.32.03,1.52.12,3.11.07,1.17-.04,2.18-.14,2.99-.25,0,.03-.02.08-.05.13-.33.8-1.54,1.04-1.99,1.12-1.43.27-11.54,1.43-12.44-1.87Z"/>
      </g>
      <g>
        <path d="M80.22,322.16c.55-.01,1.01.12,1.53.27.73.21.96.46,1.53.61.75.2,1.79.43,3.06.54,2.87.26,4.63-.27,4.66-.14.02.07-3.39,1.15-7.58,1.01-2.2-.07-5.51-.5-5.56-1.22-.03-.46,1.26-1.06,2.36-1.08Z"/>
        <path class="cls-4" d="M79.94,322.97c-.25-.74.32-1.53.49-1.76.94-1.3,2.89-1.69,4.39-1.38.82.17.9.43,2.98,1.65,2.56,1.51,3.22,1.59,3.2,1.96-.07.91-4.13,1.46-7.58,1.01-1.31-.17-3.11-.43-3.48-1.49Z"/>
        <path class="cls-4" d="M79.94,322.97c-.28-.73.11-1.7.49-1.76.38-.06.48.85,1.32,1.22.78.34,1.16-.23,2.23-.06,1.11.18,1.09.86,2.36,1.21.52.14,1.14.09,2.38.06.9-.03,1.67-.11,2.28-.19,0,.02-.02.06-.03.1-.21.5-.85.72-1.52.86-3.11.62-6.02.06-6.02.06-1.96-.38-3.14-.62-3.48-1.49Z"/>
      </g>
      <g>
        <path d="M77.77,270.14c.24,0,.45.05.68.12.32.09.43.2.68.27.33.09.8.19,1.36.24,1.28.12,2.06-.12,2.08-.06,0,.03-1.51.51-3.38.45-.98-.03-2.46-.22-2.48-.54-.01-.2.56-.47,1.05-.48Z"/>
        <path class="cls-4" d="M78.1,270.06c-.09-.26.04-.58.22-.78.75-.83,2.86-.04,3.29.12.59.22,1.46.55,1.43.87-.05.47-1.95.64-3.38.45-1.36-.18-1.52-.57-1.55-.66Z"/>
        <path class="cls-4" d="M78.1,270.06c-.13-.33.05-.76.22-.78.15-.02.22.28.59.54.25.17.5.24.68.27.33.09.8.19,1.36.24.09,0,.51.04,1.06.02.4-.01.74-.05,1.02-.08,0,.01,0,.03-.02.05-.09.22-.38.32-.68.38-1.39.28-2.69.03-2.69.03-.87-.17-1.4-.28-1.55-.66Z"/>
      </g>
      <g>
        <path d="M25.38,290.16c.37,0,.68.08,1.02.18.49.14.64.31,1.02.41.5.13,1.2.28,2.04.36,1.92.17,3.09-.18,3.11-.09.01.05-2.27.77-5.06.68-1.47-.05-3.68-.33-3.71-.81-.02-.3.84-.71,1.58-.72Z"/>
        <path class="cls-4" d="M25.19,290.71c-.14-.39.05-.87.32-1.17,1.13-1.24,4.29-.06,4.92.18.88.33,2.19.82,2.14,1.31-.08.7-2.92.96-5.06.68-2.03-.26-2.28-.86-2.32-.99Z"/>
        <path class="cls-4" d="M25.19,290.71c-.19-.49.07-1.14.32-1.17.22-.03.34.43.88.81.37.26.75.36,1.02.41.5.13,1.2.28,2.04.36.14.01.76.06,1.59.04.6-.02,1.11-.07,1.52-.13,0,.02-.01.04-.02.07-.14.33-.57.48-1.01.57-2.08.41-4.02.04-4.02.04-1.31-.25-2.1-.41-2.32-.99Z"/>
      </g>
      <g>
        <path d="M132.08,310c.37,0,.68.08,1.02.18.49.14.64.31,1.02.41.5.13,1.2.28,2.04.36,1.92.17,3.09-.18,3.11-.09.01.05-2.27.77-5.06.68-1.47-.05-3.68-.33-3.71-.81-.02-.3.84-.71,1.58-.72Z"/>
        <path class="cls-4" d="M131.9,310.54c-.14-.39.05-.87.32-1.17,1.13-1.24,4.29-.06,4.92.18.88.33,2.19.82,2.14,1.31-.08.7-2.92.96-5.06.68-2.03-.26-2.28-.86-2.32-.99Z"/>
        <path class="cls-4" d="M131.9,310.54c-.19-.49.07-1.14.32-1.17.22-.03.34.43.88.81.37.26.75.36,1.02.41.5.13,1.2.28,2.04.36.14.01.76.06,1.59.04.6-.02,1.11-.07,1.52-.13,0,.02-.01.04-.02.07-.14.33-.57.48-1.01.57-2.08.41-4.02.04-4.02.04-1.31-.25-2.1-.41-2.32-.99Z"/>
      </g>
      <g>
        <path d="M37.14,337.15c.79-.02,1.46.19,2.2.41,1.05.32,1.39.7,2.2.93,1.08.3,2.58.65,4.4.83,4.14.4,6.67-.41,6.71-.21.02.11-4.89,1.75-10.91,1.55-3.16-.11-7.94-.76-8.01-1.86-.04-.7,1.82-1.62,3.4-1.65Z"/>
        <path class="cls-4" d="M36.74,338.39c-.32-.88-.03-2.06.7-2.69.77-.66,1.7-.43,5.34-.11,3.06.27,2.65.13,3.41.26,2.77.48,6.59,2.04,6.47,3.26-.15,1.49-6.18,2.22-10.91,1.55-1.93-.28-4.43-.66-5.01-2.27Z"/>
        <path class="cls-4" d="M36.74,338.39c-.41-1.11.16-2.6.7-2.69.48-.08.73.97,1.9,1.86.79.6,1.62.83,2.2.93,1.08.3,2.58.65,4.4.83.3.03,1.64.14,3.42.08,1.29-.04,2.4-.16,3.29-.29,0,.04-.03.09-.05.15-.3.76-1.23,1.11-2.19,1.31-4.48.95-8.68.09-8.68.09-2.82-.58-4.52-.95-5.01-2.27Z"/>
      </g>
      <path class="cls-6" d="M202.53,302.94c-.73.05-1.45.09-2.17.13v-.13h2.17Z"/>
      <path class="cls-5" d="M172.46,278.31c-.33-.03-.44.15-.76.15-.31,0-.39-.16-.68-.25-.49-.15-.74.16-1.44.31-.88.19-1.53-.07-1.53-.03,0,.04.68.34,1.5.21.63-.1.75-.36,1.25-.29.45.07.51.3.95.27.29-.02.39-.13.81-.13.27,0,.44.04.45,0,.01-.05-.25-.22-.55-.25Z"/>
      <g>
        <path d="M17.82,266.4c.3,0,.56.07.85.15.4.12.54.25.85.34.41.11,1,.24,1.7.3,1.6.14,2.57-.15,2.59-.08,0,.04-1.88.64-4.21.56-1.22-.04-3.06-.28-3.09-.68-.02-.25.7-.59,1.31-.6Z"/>
        <path class="cls-4" d="M17.67,266.85c-.11-.33.04-.73.27-.98.94-1.03,3.56-.05,4.09.15.74.28,1.82.68,1.78,1.09-.06.58-2.42.8-4.21.56-1.69-.22-1.89-.71-1.93-.83Z"/>
        <path class="cls-4" d="M17.67,266.85c-.16-.4.06-.94.27-.98.19-.03.28.35.73.68.31.22.62.3.85.34.41.11,1,.24,1.7.3.12.01.63.05,1.32.03.5-.02.93-.06,1.27-.11,0,.01,0,.03-.02.06-.11.28-.47.4-.84.48-1.73.34-3.34.03-3.34.03-1.09-.21-1.74-.34-1.93-.83Z"/>
      </g>
      <g>
        <path d="M85.25,289.01c.55-.01,1.01.12,1.53.27.73.21.96.46,1.53.61.75.2,1.79.43,3.06.54,2.87.26,4.63-.27,4.66-.14.02.07-3.39,1.15-7.58,1.01-2.2-.07-5.51-.5-5.56-1.22-.03-.46,1.26-1.06,2.36-1.08Z"/>
        <path class="cls-4" d="M84.97,289.82c-.25-.74.32-1.53.49-1.76.94-1.3,2.89-1.69,4.39-1.38.82.17.9.43,2.98,1.65,2.56,1.51,3.22,1.59,3.2,1.96-.07.91-4.13,1.46-7.58,1.01-1.31-.17-3.11-.43-3.48-1.49Z"/>
        <path class="cls-4" d="M84.97,289.82c-.28-.73.11-1.7.49-1.76.38-.06.48.85,1.32,1.22.78.34,1.16-.23,2.23-.06,1.11.18,1.09.86,2.36,1.21.52.14,1.14.09,2.38.06.9-.03,1.67-.11,2.28-.19,0,.02-.02.06-.03.1-.21.5-.85.72-1.52.86-3.11.62-6.02.06-6.02.06-1.96-.38-3.14-.62-3.48-1.49Z"/>
      </g>
      <g>
        <path d="M14.45,307.42c.55-.01,1.01.12,1.53.27.73.21.96.46,1.53.61.75.2,1.79.43,3.06.54,2.87.26,4.63-.27,4.66-.14.02.07-3.39,1.15-7.58,1.01-2.2-.07-5.51-.5-5.56-1.22-.03-.46,1.26-1.06,2.36-1.08Z"/>
        <path class="cls-4" d="M14.17,308.23c-.25-.74.32-1.53.49-1.76.94-1.3,2.89-1.69,4.39-1.38.82.17.9.43,2.98,1.65,2.56,1.51,3.22,1.59,3.2,1.96-.07.91-4.13,1.46-7.58,1.01-1.31-.17-3.11-.43-3.48-1.49Z"/>
        <path class="cls-4" d="M14.17,308.23c-.28-.73.11-1.7.49-1.76.38-.06.48.85,1.32,1.22.78.34,1.16-.23,2.23-.06,1.11.18,1.09.86,2.36,1.21.52.14,1.14.09,2.38.06.9-.03,1.67-.11,2.28-.19,0,.02-.02.06-.03.1-.21.5-.85.72-1.52.86-3.11.62-6.02.06-6.02.06-1.96-.38-3.14-.62-3.48-1.49Z"/>
      </g>
      <g>
        <path d="M122.06,264.83c.24,0,.45.05.68.12.32.09.43.2.68.27.33.09.8.19,1.36.24,1.28.12,2.06-.12,2.08-.06,0,.03-1.51.51-3.38.45-.98-.03-2.46-.22-2.48-.54-.01-.2.56-.47,1.05-.48Z"/>
        <path class="cls-4" d="M121.94,265.19c-.09-.26.04-.58.22-.78.75-.83,2.86-.04,3.29.12.59.22,1.46.55,1.43.87-.05.47-1.95.64-3.38.45-1.36-.18-1.52-.57-1.55-.66Z"/>
        <path class="cls-4" d="M121.94,265.19c-.13-.33.05-.76.22-.78.15-.02.22.28.59.54.25.17.5.24.68.27.33.09.8.19,1.36.24.09,0,.51.04,1.06.02.4-.01.74-.05,1.02-.08,0,.01,0,.03-.02.05-.09.22-.38.32-.68.38-1.39.28-2.69.03-2.69.03-.87-.17-1.4-.28-1.55-.66Z"/>
      </g>
      <g>
        <path d="M53.23,275.81c.37,0,.68.08,1.02.18.49.14.64.31,1.02.41.5.13,1.2.28,2.04.36,1.92.17,3.09-.18,3.11-.09.01.05-2.27.77-5.06.68-1.47-.05-3.68-.33-3.71-.81-.02-.3.84-.71,1.58-.72Z"/>
        <path class="cls-4" d="M53.04,276.35c-.14-.39.05-.87.32-1.17,1.13-1.24,4.29-.06,4.92.18.88.33,2.19.82,2.14,1.31-.08.7-2.92.96-5.06.68-2.03-.26-2.28-.86-2.32-.99Z"/>
        <path class="cls-4" d="M53.04,276.35c-.19-.49.07-1.14.32-1.17.22-.03.34.43.88.81.37.26.75.36,1.02.41.5.13,1.2.28,2.04.36.14.01.76.06,1.59.04.6-.02,1.11-.07,1.52-.13,0,.02-.01.04-.02.07-.14.33-.57.48-1.01.57-2.08.41-4.02.04-4.02.04-1.31-.25-2.1-.41-2.32-.99Z"/>
      </g>
      <g>
        <path d="M102.91,276.83c.37,0,.68.08,1.02.18.49.14.64.31,1.02.41.5.13,1.2.28,2.04.36,1.92.17,3.09-.18,3.11-.09.01.05-2.27.77-5.06.68-1.47-.05-3.68-.33-3.71-.81-.02-.3.84-.71,1.58-.72Z"/>
        <path class="cls-4" d="M102.73,277.37c-.14-.39.05-.87.32-1.17,1.13-1.24,4.29-.06,4.92.18.88.33,2.19.82,2.14,1.31-.08.7-2.92.96-5.06.68-2.03-.26-2.28-.86-2.32-.99Z"/>
        <path class="cls-4" d="M102.73,277.37c-.19-.49.07-1.14.32-1.17.22-.03.34.43.88.81.37.26.75.36,1.02.41.5.13,1.2.28,2.04.36.14.01.76.06,1.59.04.6-.02,1.11-.07,1.52-.13,0,.02-.01.04-.02.07-.14.33-.57.48-1.01.57-2.08.41-4.02.04-4.02.04-1.31-.25-2.1-.41-2.32-.99Z"/>
      </g>
      <g>
        <path d="M139.35,281.46c.37,0,.68.08,1.02.18.49.14.64.31,1.02.41.5.13,1.2.28,2.04.36,1.92.17,3.09-.18,3.11-.09.01.05-2.27.77-5.06.68-1.47-.05-3.68-.33-3.71-.81-.02-.3.84-.71,1.58-.72Z"/>
        <path class="cls-4" d="M139.16,282.01c-.14-.39.05-.87.32-1.17,1.13-1.24,4.29-.06,4.92.18.88.33,2.19.82,2.14,1.31-.08.7-2.92.96-5.06.68-2.03-.26-2.28-.86-2.32-.99Z"/>
        <path class="cls-4" d="M139.16,282.01c-.19-.49.07-1.14.32-1.17.22-.03.34.43.88.81.37.26.75.36,1.02.41.5.13,1.2.28,2.04.36.14.01.76.06,1.59.04.6-.02,1.11-.07,1.52-.13,0,.02-.01.04-.02.07-.14.33-.57.48-1.01.57-2.08.41-4.02.04-4.02.04-1.31-.25-2.1-.41-2.32-.99Z"/>
      </g>
      <g>
        <path d="M51.19,309.67c.68-.01,1.25.16,1.89.35.9.27,1.19.6,1.89.8.92.26,2.21.56,3.77.71,3.54.34,5.71-.35,5.74-.18.02.09-4.19,1.5-9.35,1.33-2.71-.09-6.8-.66-6.86-1.59-.04-.6,1.56-1.39,2.92-1.42Z"/>
        <path class="cls-4" d="M50.84,310.73c-.27-.76-.02-1.76.6-2.3.66-.56,1.46-.37,4.57-.1,2.62.23,2.27.11,2.92.22,2.37.41,5.65,1.75,5.54,2.79-.13,1.28-5.29,1.91-9.35,1.33-1.65-.24-3.79-.57-4.29-1.95Z"/>
        <path class="cls-4" d="M50.84,310.73c-.35-.95.13-2.23.6-2.3.41-.07.62.83,1.63,1.59.68.51,1.39.71,1.89.8.92.26,2.21.56,3.77.71.26.02,1.4.12,2.93.07,1.1-.04,2.06-.14,2.81-.25,0,.03-.02.08-.04.13-.25.65-1.05.95-1.87,1.12-3.83.81-7.43.07-7.43.07-2.42-.49-3.87-.81-4.29-1.95Z"/>
      </g>
      <path d="M391.34,303.6c-3.32-.07-4.31.08-7.51.03-3.08-.04-3.88-.21-6.85-.34-4.94-.22-7.31.04-14.25.08-8.68.05-15.22-.29-15.26-.25-.04.04,6.84.43,15.01.42,6.23,0,7.4-.23,12.43-.09,4.52.13,5.14.36,9.48.4,2.84.02,3.87-.06,8.04,0,2.72.04,4.38.1,4.46.07.1-.04-2.5-.25-5.55-.32Z"/>
      <path d="M339.72,332c-1.67-.05-2.17.14-3.78.12-1.55-.02-1.95-.2-3.44-.33-2.48-.2-3.68.13-7.17.26-4.37.16-7.65-.17-7.67-.13-.02.04,3.43.43,7.54.33,3.13-.07,3.73-.35,6.25-.24,2.27.1,2.58.37,4.76.36,1.43,0,1.95-.12,4.04-.1,1.37.01,2.2.07,2.24.03.05-.05-1.25-.27-2.79-.31Z"/>
      <path d="M257.32,331.72c-1.25-.03-1.62.08-2.82.06-1.16-.01-1.46-.13-2.57-.2-1.85-.13-2.75.07-5.36.14-3.26.08-5.72-.12-5.73-.1-.02.03,2.57.27,5.64.22,2.34-.04,2.78-.2,4.67-.13,1.7.07,1.93.23,3.56.23,1.07,0,1.45-.07,3.02-.05,1.02.01,1.65.05,1.67.02.04-.03-.94-.16-2.08-.19Z"/>
      <path d="M327.48,304.59c-.78-.03-1.01.14-1.76.14-.72,0-.9-.17-1.6-.27-1.15-.16-1.71.14-3.33.28-2.03.17-3.55-.1-3.56-.06,0,.04,1.59.36,3.5.24,1.46-.09,1.73-.34,2.91-.26,1.05.08,1.2.31,2.21.29.66-.01.91-.12,1.88-.12.64,0,1.02.05,1.04.01.02-.05-.58-.23-1.29-.26Z"/>
      <path d="M299.64,281.86c-.78-.03-1.01.14-1.76.14-.72,0-.9-.17-1.6-.27-1.15-.16-1.71.14-3.33.28-2.03.17-3.55-.1-3.56-.06,0,.04,1.59.36,3.5.24,1.46-.09,1.73-.34,2.91-.26,1.05.08,1.2.31,2.21.29.66-.01.91-.12,1.88-.12.64,0,1.02.05,1.04.01.02-.05-.58-.23-1.29-.26Z"/>
      <path d="M339.16,297.96c-1.63-.04-2.12.1-3.68.08-1.51-.02-1.9-.16-3.35-.26-2.42-.16-3.58.09-6.99.17-4.26.11-7.46-.16-7.48-.13-.02.03,3.35.34,7.35.28,3.06-.05,3.63-.26,6.09-.16,2.21.09,2.52.29,4.65.3,1.39,0,1.9-.08,3.94-.06,1.33.01,2.15.06,2.18.03.05-.04-1.22-.21-2.72-.25Z"/>
      <path d="M275.91,263.62c-1.81-.05-2.35.12-4.08.1-1.67-.02-2.11-.19-3.72-.3-2.68-.19-3.98.1-7.76.21-4.73.13-8.28-.18-8.3-.14-.02.04,3.72.39,8.16.32,3.39-.06,4.03-.31,6.76-.2,2.46.1,2.79.34,5.16.34,1.54,0,2.11-.1,4.37-.07,1.48.02,2.38.07,2.43.03.06-.05-1.36-.24-3.02-.29Z"/>
      <path d="M287.32,318.9c-1.21-.04-1.57.13-2.73.12-1.12-.01-1.41-.18-2.49-.28-1.79-.17-2.66.13-5.19.25-3.16.15-5.53-.13-5.55-.09-.01.04,2.48.37,5.45.28,2.27-.07,2.7-.33,4.52-.23,1.64.09,1.86.32,3.44.31,1.03,0,1.41-.11,2.92-.1.99,0,1.59.06,1.62.02.04-.05-.91-.23-2.02-.27Z"/>
      <g>
        <path d="M306.67,287.78c.3,0,.56.07.85.15.4.12.54.25.85.34.41.11,1,.24,1.7.3,1.6.14,2.57-.15,2.59-.08,0,.04-1.88.64-4.21.56-1.22-.04-3.06-.28-3.09-.68-.02-.25.7-.59,1.31-.6Z"/>
        <path class="cls-4" d="M306.51,288.23c-.11-.33.04-.73.27-.98.94-1.03,3.56-.05,4.09.15.74.28,1.82.68,1.78,1.09-.06.58-2.42.8-4.21.56-1.69-.22-1.89-.71-1.93-.83Z"/>
        <path class="cls-4" d="M306.51,288.23c-.16-.4.06-.94.27-.98.19-.03.28.35.73.68.31.22.62.3.85.34.41.11,1,.24,1.7.3.12.01.63.05,1.32.03.5-.02.93-.06,1.27-.11,0,.01,0,.03-.02.06-.11.28-.47.4-.84.48-1.73.34-3.34.03-3.34.03-1.09-.21-1.74-.34-1.93-.83Z"/>
      </g>
      <g>
        <path d="M323.97,261.1c.2,0,.38.05.57.1.27.08.36.17.57.23.28.07.67.16,1.14.2,1.07.1,1.72-.1,1.73-.05,0,.03-1.26.43-2.82.38-.82-.03-2.05-.19-2.07-.45-.01-.17.47-.39.88-.4Z"/>
        <path class="cls-4" d="M323.87,261.4c-.08-.22.03-.49.18-.65.63-.69,2.39-.03,2.74.1.49.19,1.22.46,1.19.73-.04.39-1.62.53-2.82.38-1.13-.15-1.27-.48-1.29-.55Z"/>
        <path class="cls-4" d="M323.87,261.4c-.11-.27.04-.63.18-.65.12-.02.19.24.49.45.2.14.42.2.57.23.28.07.67.16,1.14.2.08,0,.42.03.88.02.33-.01.62-.04.85-.07,0,0,0,.02-.01.04-.08.18-.32.27-.56.32-1.16.23-2.24.02-2.24.02-.73-.14-1.17-.23-1.29-.55Z"/>
      </g>
      <g>
        <path d="M242.55,258.9c.15,0,.29.04.43.09.2.07.27.15.43.19.21.06.51.14.86.17.81.08,1.3-.09,1.31-.04,0,.02-.96.37-2.13.32-.62-.02-1.55-.16-1.57-.39,0-.15.36-.34.67-.34Z"/>
        <path class="cls-4" d="M242.47,259.16c-.06-.19.02-.42.14-.56.48-.59,1.81-.03,2.08.09.37.16.92.39.9.63-.03.33-1.23.46-2.13.32-.86-.13-.96-.41-.98-.47Z"/>
        <path class="cls-4" d="M242.47,259.16c-.08-.23.03-.54.14-.56.09-.02.14.2.37.39.15.12.32.17.43.19.21.06.51.14.86.17.06,0,.32.03.67.02.25,0,.47-.03.64-.06,0,0,0,.02,0,.03-.06.16-.24.23-.43.27-.88.2-1.7.02-1.7.02-.55-.12-.88-.2-.98-.47Z"/>
      </g>
      <g>
        <path d="M228.75,264.26c.15,0,.29.04.43.09.2.07.27.15.43.19.21.06.51.14.86.17.81.08,1.3-.09,1.31-.04,0,.02-.96.37-2.13.32-.62-.02-1.55-.16-1.57-.39,0-.15.36-.34.67-.34Z"/>
        <path class="cls-4" d="M228.67,264.52c-.06-.19.02-.42.14-.56.48-.59,1.81-.03,2.08.09.37.16.92.39.9.63-.03.33-1.23.46-2.13.32-.86-.13-.96-.41-.98-.47Z"/>
        <path class="cls-4" d="M228.67,264.52c-.08-.23.03-.54.14-.56.09-.02.14.2.37.39.15.12.32.17.43.19.21.06.51.14.86.17.06,0,.32.03.67.02.25,0,.47-.03.64-.06,0,0,0,.02,0,.03-.06.16-.24.23-.43.27-.88.2-1.7.02-1.7.02-.55-.12-.88-.2-.98-.47Z"/>
      </g>
      <g>
        <path d="M376.63,265.11c.15,0,.28.04.42.08.2.07.27.14.42.19.21.06.49.13.84.17.79.08,1.28-.08,1.28-.04,0,.02-.94.36-2.09.32-.61-.02-1.52-.16-1.53-.38,0-.14.35-.33.65-.34Z"/>
        <path class="cls-4" d="M376.55,265.37c-.06-.18.02-.41.13-.55.47-.58,1.77-.03,2.03.08.37.16.9.38.88.61-.03.33-1.2.45-2.09.32-.84-.12-.94-.4-.96-.46Z"/>
        <path class="cls-4" d="M376.55,265.37c-.08-.23.03-.53.13-.55.09-.02.14.2.36.38.15.12.31.17.42.19.21.06.49.13.84.17.06,0,.31.03.66.02.25,0,.46-.03.63-.06,0,0,0,.02,0,.03-.06.16-.24.23-.42.27-.86.19-1.66.02-1.66.02-.54-.12-.87-.19-.96-.46Z"/>
      </g>
      <g>
        <path d="M150.85,263.27c.15,0,.29.04.43.09.2.07.27.15.43.19.21.06.51.14.86.17.81.08,1.3-.09,1.31-.04,0,.02-.96.37-2.13.32-.62-.02-1.55-.16-1.57-.39,0-.15.36-.34.67-.34Z"/>
        <path class="cls-4" d="M150.77,263.53c-.06-.19.02-.42.14-.56.48-.59,1.81-.03,2.08.09.37.16.92.39.9.63-.03.33-1.23.46-2.13.32-.86-.13-.96-.41-.98-.47Z"/>
        <path class="cls-4" d="M150.77,263.53c-.08-.23.03-.54.14-.56.09-.02.14.2.37.39.15.12.32.17.43.19.21.06.51.14.86.17.06,0,.32.03.67.02.25,0,.47-.03.64-.06,0,0,0,.02,0,.03-.06.16-.24.23-.43.27-.88.2-1.7.02-1.7.02-.55-.12-.88-.2-.98-.47Z"/>
      </g>
      <g>
        <path d="M368.84,331.5c.7-.01,1.3.16,1.96.35.93.27,1.24.59,1.96.78.96.25,2.3.55,3.92.69,3.68.33,5.93-.35,5.97-.17.02.09-4.35,1.47-9.71,1.3-2.81-.09-7.07-.64-7.13-1.56-.04-.58,1.62-1.36,3.03-1.39Z"/>
        <path class="cls-4" d="M368.49,332.54c-.3-.93.42-1.97.62-2.25.95-1.35,2.52-1.62,2.86-1.68,1.37-.24,2.48.18,4.36,1.02,4.27,1.93,6.4,2.89,6.32,3.52-.17,1.38-5.71,1.81-9.71,1.3-1.63-.21-4.01-.54-4.45-1.91Z"/>
        <path class="cls-4" d="M368.49,332.54c-.11-.41-.15-1.13.62-2.25.33.42.88,1.02,1.69,1.56,1.69,1.12,3.47,1.27,5.88,1.47.31.03,1.49.12,3.04.07,1.15-.04,2.14-.14,2.92-.24,0,.03-.02.08-.04.13-.33.79-1.51,1.01-1.95,1.1-1.4.27-11.29,1.4-12.18-1.83Z"/>
      </g>
      <g>
        <path d="M311.37,318.97c.55-.01,1.01.12,1.53.27.73.21.96.46,1.53.61.75.2,1.79.43,3.06.54,2.87.26,4.63-.27,4.66-.14.02.07-3.39,1.15-7.58,1.01-2.2-.07-5.51-.5-5.56-1.22-.03-.46,1.26-1.06,2.36-1.08Z"/>
        <path class="cls-4" d="M311.09,319.78c-.25-.74.32-1.53.49-1.76.94-1.3,2.89-1.69,4.39-1.38.82.17.9.43,2.98,1.65,2.56,1.51,3.22,1.59,3.2,1.96-.07.91-4.13,1.46-7.58,1.01-1.31-.17-3.11-.43-3.48-1.49Z"/>
        <path class="cls-4" d="M311.09,319.78c-.28-.73.11-1.7.49-1.76.38-.06.48.85,1.32,1.22.78.34,1.16-.23,2.23-.06,1.11.18,1.09.86,2.36,1.21.52.14,1.14.09,2.38.06.9-.03,1.67-.11,2.28-.19,0,.02-.02.06-.03.1-.21.5-.85.72-1.52.86-3.11.62-6.02.06-6.02.06-1.96-.38-3.14-.62-3.48-1.49Z"/>
      </g>
      <g>
        <path d="M331.46,275.56c.37,0,.68.08,1.02.18.49.14.64.31,1.02.41.5.13,1.2.28,2.04.36,1.92.17,3.09-.18,3.11-.09.01.05-2.27.77-5.06.68-1.47-.05-3.68-.33-3.71-.81-.02-.3.84-.71,1.58-.72Z"/>
        <path class="cls-4" d="M331.28,276.1c-.14-.39.05-.87.32-1.17,1.13-1.24,4.29-.06,4.92.18.88.33,2.19.82,2.14,1.31-.08.7-2.92.96-5.06.68-2.03-.26-2.28-.86-2.32-.99Z"/>
        <path class="cls-4" d="M331.28,276.1c-.19-.49.07-1.14.32-1.17.22-.03.34.43.88.81.37.26.75.36,1.02.41.5.13,1.2.28,2.04.36.14.01.76.06,1.59.04.6-.02,1.11-.07,1.52-.13,0,.02-.01.04-.02.07-.14.33-.57.48-1.01.57-2.08.41-4.02.04-4.02.04-1.31-.25-2.1-.41-2.32-.99Z"/>
      </g>
      <g>
        <path d="M350.72,297.48c.37,0,.68.08,1.02.18.49.14.64.31,1.02.41.5.13,1.2.28,2.04.36,1.92.17,3.09-.18,3.11-.09.01.05-2.27.77-5.06.68-1.47-.05-3.68-.33-3.71-.81-.02-.3.84-.71,1.58-.72Z"/>
        <path class="cls-4" d="M350.54,298.02c-.14-.39.05-.87.32-1.17,1.13-1.24,4.29-.06,4.92.18.88.33,2.19.82,2.14,1.31-.08.7-2.92.96-5.06.68-2.03-.26-2.28-.86-2.32-.99Z"/>
        <path class="cls-4" d="M350.54,298.02c-.19-.49.07-1.14.32-1.17.22-.03.34.43.88.81.37.26.75.36,1.02.41.5.13,1.2.28,2.04.36.14.01.76.06,1.59.04.6-.02,1.11-.07,1.52-.13,0,.02-.01.04-.02.07-.14.33-.57.48-1.01.57-2.08.41-4.02.04-4.02.04-1.31-.25-2.1-.41-2.32-.99Z"/>
      </g>
      <g>
        <path d="M267.8,333.69c.68-.01,1.25.16,1.89.35.9.27,1.19.6,1.89.8.92.26,2.21.56,3.77.71,3.54.34,5.71-.35,5.74-.18.02.09-4.19,1.5-9.35,1.33-2.71-.09-6.8-.66-6.86-1.59-.04-.6,1.56-1.39,2.92-1.42Z"/>
        <path class="cls-4" d="M267.46,334.75c-.27-.76-.02-1.76.6-2.3.66-.56,1.46-.37,4.57-.1,2.62.23,2.27.11,2.92.22,2.37.41,5.65,1.75,5.54,2.79-.13,1.28-5.29,1.91-9.35,1.33-1.65-.24-3.79-.57-4.29-1.95Z"/>
        <path class="cls-4" d="M267.46,334.75c-.35-.95.13-2.23.6-2.3.41-.07.62.83,1.63,1.59.68.51,1.39.71,1.89.8.92.26,2.21.56,3.77.71.26.02,1.4.12,2.93.07,1.1-.04,2.06-.14,2.81-.25,0,.03-.02.08-.04.13-.25.65-1.05.95-1.87,1.12-3.83.81-7.43.07-7.43.07-2.42-.49-3.87-.81-4.29-1.95Z"/>
      </g>
      <path d="M255.48,293.16c2.25-.03,2.93.24,5.09.25,2.09.01,2.64-.23,4.64-.36,3.35-.22,4.96.26,9.67.51,5.89.31,10.33-.06,10.35,0,.03.06-4.64.5-10.18.28-4.23-.17-5.02-.57-8.44-.47-3.06.09-3.49.44-6.43.38-1.93-.04-2.63-.2-5.45-.22-1.85-.01-2.97.05-3.02-.01-.07-.07,1.69-.33,3.77-.36Z"/>
      <path d="M158.03,271.74c-3.32-.07-4.31.08-7.51.03-3.08-.04-3.88-.21-6.85-.34-4.94-.22-7.31.04-14.25.08-8.68.05-15.22-.29-15.26-.25-.04.04,6.84.43,15.01.42,6.23,0,7.4-.23,12.43-.09,4.52.13,5.14.36,9.48.4,2.84.02,3.87-.06,8.04,0,2.72.04,4.38.1,4.46.07.1-.04-2.5-.25-5.55-.32Z"/>
      <path d="M100.62,294.53c-1.67-.05-2.17.14-3.78.12-1.55-.02-1.95-.2-3.44-.33-2.48-.2-3.68.13-7.17.26-4.37.16-7.65-.17-7.67-.13-.02.04,3.43.43,7.54.33,3.13-.07,3.73-.35,6.25-.24,2.27.1,2.58.37,4.76.36,1.43,0,1.95-.12,4.04-.1,1.37.01,2.2.07,2.24.03.05-.05-1.25-.27-2.79-.31Z"/>
      <path d="M105.85,266.11c-1.63-.04-2.12.1-3.68.08-1.51-.02-1.9-.16-3.35-.26-2.42-.16-3.58.09-6.99.17-4.26.11-7.46-.16-7.48-.13-.02.03,3.35.34,7.35.28,3.06-.05,3.63-.26,6.09-.16,2.21.09,2.52.29,4.65.3,1.39,0,1.9-.08,3.94-.06,1.33.01,2.15.06,2.18.03.05-.04-1.22-.21-2.72-.25Z"/>
      <path d="M29.54,261.08c-1.63-.04-2.12.1-3.68.08-1.51-.02-1.9-.16-3.35-.26-2.42-.16-3.58.09-6.99.17-4.26.11-7.46-.16-7.48-.13-.02.03,3.35.34,7.35.28,3.06-.05,3.63-.26,6.09-.16,2.21.09,2.52.29,4.65.3,1.39,0,1.9-.08,3.94-.06,1.33.01,2.15.06,2.18.03.05-.04-1.22-.21-2.72-.25Z"/>
      <path d="M54.02,287.05c-1.21-.04-1.57.13-2.73.12-1.12-.01-1.41-.18-2.49-.28-1.79-.17-2.66.13-5.19.25-3.16.15-5.53-.13-5.55-.09-.01.04,2.48.37,5.45.28,2.27-.07,2.7-.33,4.52-.23,1.64.09,1.86.32,3.44.31,1.03,0,1.41-.11,2.92-.1.99,0,1.59.06,1.62.02.04-.05-.91-.23-2.02-.27Z"/>
      <path d="M18.37,185.75c-1.21-.04-1.57.13-2.73.12-1.12-.01-1.41-.18-2.49-.28-1.79-.17-2.66.13-5.19.25-3.16.15-5.53-.13-5.55-.09-.01.04,2.48.37,5.45.28,2.27-.07,2.7-.33,4.52-.23,1.64.09,1.86.32,3.44.31,1.03,0,1.41-.11,2.92-.1.99,0,1.59.06,1.62.02.04-.05-.91-.23-2.02-.27Z"/>
      <path d="M138.82,287.33c-1.21-.04-1.57.13-2.73.12-1.12-.01-1.41-.18-2.49-.28-1.79-.17-2.66.13-5.19.25-3.16.15-5.53-.13-5.55-.09-.01.04,2.48.37,5.45.28,2.27-.07,2.7-.33,4.52-.23,1.64.09,1.86.32,3.44.31,1.03,0,1.41-.11,2.92-.1.99,0,1.59.06,1.62.02.04-.05-.91-.23-2.02-.27Z"/>
      <path d="M40.7,321.15c-1.21-.04-1.57.13-2.73.12-1.12-.01-1.41-.18-2.49-.28-1.79-.17-2.66.13-5.19.25-3.16.15-5.53-.13-5.55-.09-.01.04,2.48.37,5.45.28,2.27-.07,2.7-.33,4.52-.23,1.64.09,1.86.32,3.44.31,1.03,0,1.41-.11,2.92-.1.99,0,1.59.06,1.62.02.04-.05-.91-.23-2.02-.27Z"/>
      <path d="M66.85,330.89c2.25-.03,2.93.24,5.09.25,2.09.01,2.64-.23,4.64-.36,3.35-.22,4.96.26,9.67.51,5.89.31,10.33-.06,10.35,0,.03.06-4.64.5-10.18.28-4.23-.17-5.02-.57-8.44-.47-3.06.09-3.49.44-6.43.38-1.93-.04-2.63-.2-5.45-.22-1.85-.01-2.97.05-3.02-.01-.07-.07,1.69-.33,3.77-.36Z"/>
      <path d="M121.9,320.93c2.25-.03,2.93.24,5.09.25,2.09.01,2.64-.23,4.64-.36,3.35-.22,4.96.26,9.67.51,5.89.31,10.33-.06,10.35,0,.03.06-4.64.5-10.18.28-4.23-.17-5.02-.57-8.44-.47-3.06.09-3.49.44-6.43.38-1.93-.04-2.63-.2-5.45-.22-1.85-.01-2.97.05-3.02-.01-.07-.07,1.69-.33,3.77-.36Z"/>
      <path d="M394.1,274c-1.51-.04-1.96.12-3.41.11-1.4-.02-1.76-.18-3.11-.29-2.24-.18-3.32.11-6.48.22-3.95.14-6.92-.16-6.93-.12-.02.04,3.1.38,6.82.29,2.83-.06,3.37-.31,5.65-.21,2.05.09,2.33.32,4.31.32,1.29,0,1.76-.1,3.65-.08,1.24.01,1.99.06,2.03.03.05-.05-1.13-.23-2.52-.27Z"/>
      <path d="M360.69,269.64c-1.38-.04-1.79.13-3.11.11-1.28-.01-1.61-.18-2.83-.29-2.04-.18-3.03.12-5.91.24-3.6.15-6.3-.15-6.32-.11-.02.04,2.83.38,6.22.29,2.58-.07,3.07-.32,5.15-.22,1.87.09,2.13.33,3.93.32,1.18,0,1.6-.11,3.33-.09,1.13,0,1.81.06,1.85.02.04-.05-1.03-.24-2.3-.28Z"/>
      <g>
        <path d="M301.15,300.63c.55-.01,1.01.12,1.53.27.73.21.96.46,1.53.61.75.2,1.79.43,3.06.54,2.87.26,4.63-.27,4.66-.14.02.07-3.39,1.15-7.58,1.01-2.2-.07-5.51-.5-5.56-1.22-.03-.46,1.26-1.06,2.36-1.08Z"/>
        <path class="cls-4" d="M300.87,301.44c-.25-.74.32-1.53.49-1.76.94-1.3,2.89-1.69,4.39-1.38.82.17.9.43,2.98,1.65,2.56,1.51,3.22,1.59,3.2,1.96-.07.91-4.13,1.46-7.58,1.01-1.31-.17-3.11-.43-3.48-1.49Z"/>
        <path class="cls-4" d="M300.87,301.44c-.28-.73.11-1.7.49-1.76.38-.06.48.85,1.32,1.22.78.34,1.16-.23,2.23-.06,1.11.18,1.09.86,2.36,1.21.52.14,1.14.09,2.38.06.9-.03,1.67-.11,2.28-.19,0,.02-.02.06-.03.1-.21.5-.85.72-1.52.86-3.11.62-6.02.06-6.02.06-1.96-.38-3.14-.62-3.48-1.49Z"/>
      </g>
      <g>
        <path d="M284.04,268.05c.37,0,.68.08,1.02.18.49.14.64.31,1.02.41.5.13,1.2.28,2.04.36,1.92.17,3.09-.18,3.11-.09.01.05-2.27.77-5.06.68-1.47-.05-3.68-.33-3.71-.81-.02-.3.84-.71,1.58-.72Z"/>
        <path class="cls-4" d="M283.85,268.59c-.14-.39.05-.87.32-1.17,1.13-1.24,4.29-.06,4.92.18.88.33,2.19.82,2.14,1.31-.08.7-2.92.96-5.06.68-2.03-.26-2.28-.86-2.32-.99Z"/>
        <path class="cls-4" d="M283.85,268.59c-.19-.49.07-1.14.32-1.17.22-.03.34.43.88.81.37.26.75.36,1.02.41.5.13,1.2.28,2.04.36.14.01.76.06,1.59.04.6-.02,1.11-.07,1.52-.13,0,.02-.01.04-.02.07-.14.33-.57.48-1.01.57-2.08.41-4.02.04-4.02.04-1.31-.25-2.1-.41-2.32-.99Z"/>
      </g>
      <g>
        <path d="M109.74,260.52c.2,0,.38.05.57.1.27.08.36.17.57.23.28.07.67.16,1.14.2,1.07.1,1.72-.1,1.73-.05,0,.03-1.26.43-2.82.38-.82-.03-2.05-.19-2.07-.45-.01-.17.47-.39.88-.4Z"/>
        <path class="cls-4" d="M109.64,260.83c-.08-.22.03-.49.18-.65.63-.69,2.39-.03,2.74.1.49.19,1.22.46,1.19.73-.04.39-1.62.53-2.82.38-1.13-.15-1.27-.48-1.29-.55Z"/>
        <path class="cls-4" d="M109.64,260.83c-.11-.27.04-.63.18-.65.12-.02.19.24.49.45.2.14.42.2.57.23.28.07.67.16,1.14.2.08,0,.42.03.88.02.33-.01.62-.04.85-.07,0,0,0,.02-.01.04-.08.18-.32.27-.56.32-1.16.23-2.24.02-2.24.02-.73-.14-1.17-.23-1.29-.55Z"/>
      </g>
      <g>
        <path d="M62.76,261.26c.21,0,.39.04.58.09.28.07.37.15.58.2.28.06.68.14,1.16.17,1.09.08,1.76-.09,1.77-.04,0,.02-1.29.37-2.88.33-.83-.02-2.1-.16-2.11-.39-.01-.15.48-.34.9-.35Z"/>
        <path class="cls-4" d="M62.66,261.52c-.08-.19.03-.42.18-.57.64-.6,2.44-.03,2.8.09.5.16,1.25.4,1.22.63-.04.34-1.66.46-2.88.33-1.15-.13-1.29-.42-1.32-.48Z"/>
        <path class="cls-4" d="M62.66,261.52c-.11-.24.04-.55.18-.57.13-.02.19.21.5.39.21.13.43.18.58.2.28.06.68.14,1.16.17.08,0,.43.03.9.02.34,0,.63-.03.87-.06,0,0,0,.02-.01.03-.08.16-.32.23-.58.28-1.18.2-2.29.02-2.29.02-.74-.12-1.19-.2-1.32-.48Z"/>
      </g>
      <g>
        <path d="M370.5,278.27c.37,0,.68.08,1.02.18.49.14.64.31,1.02.41.5.13,1.2.28,2.04.36,1.92.17,3.09-.18,3.11-.09.01.05-2.27.77-5.06.68-1.47-.05-3.68-.33-3.71-.81-.02-.3.84-.71,1.58-.72Z"/>
        <path class="cls-4" d="M370.31,278.81c-.14-.39.05-.87.32-1.17,1.13-1.24,4.29-.06,4.92.18.88.33,2.19.82,2.14,1.31-.08.7-2.92.96-5.06.68-2.03-.26-2.28-.86-2.32-.99Z"/>
        <path class="cls-4" d="M370.31,278.81c-.19-.49.07-1.14.32-1.17.22-.03.34.43.88.81.37.26.75.36,1.02.41.5.13,1.2.28,2.04.36.14.01.76.06,1.59.04.6-.02,1.11-.07,1.52-.13,0,.02-.01.04-.02.07-.14.33-.57.48-1.01.57-2.08.41-4.02.04-4.02.04-1.31-.25-2.1-.41-2.32-.99Z"/>
      </g>
      <g>
        <path d="M237.28,313.48c.56-.01,1.03.11,1.56.25.74.19.98.42,1.56.56.76.18,1.83.39,3.12.49,2.93.24,4.72-.25,4.75-.12.02.07-3.46,1.05-7.72.93-2.24-.06-5.62-.46-5.67-1.11-.03-.42,1.28-.97,2.41-.99Z"/>
        <path class="cls-4" d="M236.99,314.22c-.22-.53-.02-1.23.5-1.61.54-.39,1.2-.26,3.78-.07,2.17.16,1.88.08,2.41.16,1.96.29,4.66,1.22,4.58,1.95-.11.89-4.37,1.33-7.72.93-1.36-.16-3.13-.4-3.54-1.36Z"/>
        <path class="cls-4" d="M236.99,314.22c-.29-.67.11-1.55.5-1.61.34-.05.51.58,1.35,1.11.56.36,1.15.49,1.56.56.76.18,1.83.39,3.12.49.21.02,1.16.09,2.42.05.91-.03,1.7-.1,2.33-.17,0,.02-.02.05-.04.09-.21.45-.87.66-1.55.78-3.17.57-6.14.05-6.14.05-2-.35-3.2-.57-3.54-1.36Z"/>
      </g>
      <g>
        <path d="M342.31,319.82c.68-.01,1.25.16,1.89.35.9.27,1.19.6,1.89.8.92.26,2.21.56,3.77.71,3.54.34,5.71-.35,5.74-.18.02.09-4.19,1.5-9.35,1.33-2.71-.09-6.8-.66-6.86-1.59-.04-.6,1.56-1.39,2.92-1.42Z"/>
        <path class="cls-4" d="M341.97,320.88c-.27-.76-.02-1.76.6-2.3.66-.56,1.46-.37,4.57-.1,2.62.23,2.27.11,2.92.22,2.37.41,5.65,1.75,5.54,2.79-.13,1.28-5.29,1.91-9.35,1.33-1.65-.24-3.79-.57-4.29-1.95Z"/>
        <path class="cls-4" d="M341.97,320.88c-.35-.95.13-2.23.6-2.3.41-.07.62.83,1.63,1.59.68.51,1.39.71,1.89.8.92.26,2.21.56,3.77.71.26.02,1.4.12,2.93.07,1.1-.04,2.06-.14,2.81-.25,0,.03-.02.08-.04.13-.25.65-1.05.95-1.87,1.12-3.83.81-7.43.07-7.43.07-2.42-.49-3.87-.81-4.29-1.95Z"/>
      </g>
      <path d="M162.66,348.2c.96-2.07,1.91-4.14,2.87-6.22,4.6-2.68,9.2-5.36,13.81-8.03-3.84-2.06-7.68-4.13-11.52-6.19-1.41-3.04-2.83-6.09-4.24-9.13,3.13-2.07,6.26-4.14,9.39-6.21,5.24-1.55,10.48-3.11,15.72-4.66-4.28-1.07-8.55-2.14-12.83-3.21-.49-1.5-.97-3-1.46-4.5,1.71-1.77,3.42-3.53,5.12-5.3,1.1-.65,2.2-1.31,3.3-1.96,2.14-.24,4.28-.48,6.41-.71-3.91-1.07-7.82-2.14-11.73-3.21,1.71-1.6,3.42-3.21,5.13-4.81,2.63-1.01,5.25-2.02,7.88-3.03-1.71-.77-3.42-1.54-5.13-2.32-.76-2.53-1.51-5.06-2.27-7.58,3.75-1.45,7.5-2.9,11.25-4.35-2.94-1.25-5.88-2.49-8.82-3.74-3.17-1.9-6.34-3.8-9.51-5.71,11.51-.33,23.02-.66,34.53-.99,2,1.67,4,3.35,6,5.02-5.08,3.47-10.16,6.93-15.24,10.4,3.18,3.21,6.35,6.41,9.53,9.62-1.71.59-3.42,1.19-5.13,1.78,3.79.95,7.57,1.9,11.36,2.85,3.05,2.13,6.11,4.27,9.16,6.4-.85,1.9-1.71,3.81-2.56,5.71-3.97,1.19-7.94,2.38-11.91,3.56,4.22.84,8.44,1.69,12.66,2.53,1.27.87,2.54,1.74,3.81,2.6-1.3,1.21-2.61,2.42-3.91,3.63-3.21,1.24-6.42,2.47-9.63,3.71,7.37,2.08,14.75,4.16,22.12,6.24,2.95,1.6,5.9,3.2,8.85,4.8-7.51,3.44-15.03,6.89-22.54,10.33,7.58,2.39,15.16,4.78,22.75,7.18,3.96,1.82,7.93,3.65,11.89,5.47h-95.11Z"/>
      <path class="cls-3" d="M176.22,349.8c.93-5.29,1.87-10.58,2.8-15.86"/>
      <path class="cls-3" d="M176.59,333.06c3.78-8.48,7.57-16.97,11.35-25.45"/>
      <path class="cls-3" d="M178.79,307.94c.31-4.45.61-8.91.92-13.36"/>
      <path class="cls-3" d="M172.99,333.07c.03-7.02.06-14.04.09-21.07"/>
      <path class="cls-3" d="M236.7,337.06c.08-5.43.15-10.87.23-16.3"/>
      <path class="cls-3" d="M223.7,314.54c.16-3.53.31-7.06.47-10.59"/>
      <path class="cls-3" d="M184.47,306.7c1.4-4.87,2.81-9.74,4.22-14.61"/>
      <path class="cls-3" d="M189.94,281.35c1.4-4.87,2.81-9.74,4.22-14.61"/>
      <path class="cls-3" d="M182.82,292.8c.12-3.21.24-6.41.37-9.62"/>
      <path class="cls-3" d="M184.1,291.2c1.95-3.21,3.91-6.41,5.86-9.62"/>
      <path class="cls-1" d="M213.98,301c-2.65-5.89-5.3-11.78-7.95-17.67"/>
      <path class="cls-1" d="M220.28,275.41c-2.71-5.96-5.41-11.93-8.12-17.89"/>
      <path class="cls-3" d="M216.72,301.17c.12-5.17.24-10.33.37-15.5"/>
      <path class="cls-3" d="M217.39,313.48c-1.77-3.95-3.55-7.91-5.32-11.86"/>
      <path class="cls-3" d="M228.09,333.95c-4.34-6.53-8.67-13.06-13.01-19.59"/>
      <path class="cls-3" d="M226.62,348.2c-.98-4.22-1.95-8.43-2.93-12.65"/>
      <path d="M255.16,302.01c-.13-.86-5.53-.12-27.26.13-2.82.03-6.5.06-6.51.34-.02.31,4.38.56,12.87,1.72,6.19.85,6.67,1.1,8.86,1.07,6.26-.1,12.18-2.35,12.04-3.26Z"/>
      <path d="M160.77,303.03c-.03.45-6.19-.4-16.12.88-3.61.47-4.76.83-7.52.79-5.96-.1-11.78-1.99-11.67-2.95.18-1.6,16.61-.95,17.63-.91,9.36.39,17.72,1.66,17.68,2.18Z"/>
      <ellipse class="cls-4" cx="198.58" cy="219.41" rx="14.66" ry="14.25"/>
      <path class="cls-2" d="M227.9,302.13c-2.49-7.69-6.38-11.92-9.43-14.31-15.01-11.82-44.55-6.93-72.21,13.94h-20.8c2.54-1.31,6.19-3.26,10.46-5.78,10.15-5.98,22.86-13.59,34.88-26.24,4.01-4.22,9.41-10.56,14.73-19.21.29,6.05-.58,13.09-4.91,19.21-1.69,2.38-3.34,3.84-2.84,4.77,1.42,2.68,17.71-4.12,28.42-6.28,13.19-2.66,32.97-1.3,61.1,17.45-2.19-1.2-21.3-11.55-25.71-6.66-.56.62-.97,1.58-.9,3.14,4.82,6.61,9.65,13.23,14.47,19.84-8.9.04-17.81.08-26.71.12-.18,0-.37,0-.55,0Z"/>
      <path class="cls-6" d="M94.74,221.1c.06.59,5.58-1.04,11.52,1.86,2.99,1.46,2.81,2.47,6.51,4.28,1.88.92,7.34,3.58,9.98,1.48,1.25-1,.6-2.05,1.73-4.08,2.16-3.9,7.64-5.55,11.9-5.21,3.12.25,7.23,1.7,7.26,3.4.05,2.22-7.34,3.2-7.19,4.31.25,1.82,20.57,1.17,20.73-.92.08-1.09-5.44-1.8-5.43-3.53,0-1.7,5.36-2.98,6.61-3.26,11.98-2.69,21.99,1.61,22.43.45.27-.71-3.05-3.56-7.7-4.53-8.35-1.75-13.99,4.01-18.62.86-1.86-1.27-2.22-3.07-4.44-3.4-1.6-.24-2.42.54-5.53,1.14,0,0-2.2.42-4.59.45-4.22.04-6.44-2.27-9.88-3.78-7.57-3.33-15.38-.25-15.39-.29,0-.04,6.53-1.99,10.26,1.18,2.05,1.74,3.22,4.99,2.13,7.02-1.86,3.47-9.88,2.5-11.98,2.27-3.38-.38-3.58-1.08-6.93-1.55-7.21-1.01-13.45,1.23-13.38,1.86Z"/>
      <path class="cls-6" d="M296.37,221.22c.06.59,5.58-1.04,11.52,1.86,2.99,1.46,2.81,2.47,6.51,4.28,1.88.92,7.34,3.58,9.98,1.48,1.25-1,.6-2.05,1.73-4.08,2.16-3.9,7.64-5.55,11.9-5.21,3.12.25,7.23,1.7,7.26,3.4.05,2.22-7.34,3.2-7.19,4.31.25,1.82,20.57,1.17,20.73-.92.08-1.09-5.44-1.8-5.43-3.53,0-1.7,5.36-2.98,6.61-3.26,11.98-2.69,21.99,1.61,22.43.45.27-.71-3.05-3.56-7.7-4.53-8.35-1.75-13.99,4.01-18.62.86-1.86-1.27-2.22-3.07-4.44-3.4-1.6-.24-2.42.54-5.53,1.14,0,0-2.2.42-4.59.45-4.22.04-6.44-2.27-9.88-3.78-7.57-3.33-15.38-.25-15.39-.29,0-.04,6.53-1.99,10.26,1.18,2.05,1.74,3.22,4.99,2.13,7.02-1.86,3.47-9.88,2.5-11.98,2.27-3.38-.38-3.58-1.08-6.93-1.55-7.21-1.01-13.45,1.23-13.38,1.86Z"/>
    </g>
  </g>
</svg>