<?xml version="1.0" encoding="UTF-8"?>
<svg id="Layer_2" data-name="Layer 2" xmlns="http://www.w3.org/2000/svg" viewBox="0 0 403.86 121.27">
  <defs>
    <style>
      .cls-1, .cls-2 {
        stroke: #fff;
      }

      .cls-1, .cls-2, .cls-3, .cls-4 {
        stroke-miterlimit: 10;
        stroke-width: .25px;
      }

      .cls-2, .cls-4 {
        fill: none;
      }

      .cls-3 {
        fill: #fff;
      }

      .cls-3, .cls-4 {
        stroke: #000;
      }
    </style>
  </defs>
  <g id="Capa_1" data-name="Capa 1">
    <g>
      <path d="M403.73.13v120.5H.13V.13h403.61Z"/>
      <path class="cls-3" d="M403.56,59.66c.06,10.33.11,20.65.17,30.98-11.65-.03-23.31-.07-34.96-.1-3.3,0-6.6-.02-9.9-.03-.7,0-1.39,0-2.09,0-12.77-.04-25.55-.07-38.32-.11-.7,0-1.4,0-2.1,0-6.38-.02-12.76-.04-19.14-.05-.94,0-1.89,0-2.83,0-.06,0-.11,0-.17,0h-.02c-8.93-.02-17.87-.05-26.8-.07-.83,0-1.65,0-2.47,0-2.8,0-5.61-.02-8.41-.02-1.54,0-3.09,0-4.63-.01h-.48c-1.95,0-3.89,0-5.84-.01-2.23,0-4.47-.01-6.7-.02-2.05,0-4.09-.01-6.13-.02-2.05,0-4.1,0-6.15-.01-2.05,0-4.09-.01-6.13-.02-2.05,0-4.1,0-6.14-.01-.7,0-1.41,0-2.11,0-1.34,0-2.69,0-4.03-.01-2.05,0-4.09,0-6.13-.01-2.05,0-4.09-.01-6.14-.01-1.67,0-3.35-.01-5.02-.01-2.35,0-4.69-.01-7.04-.02-14.83-.04-29.66-.08-44.49-.13-1.5,0-2.99,0-4.49,0-5.58-.02-11.16-.03-16.74-.05h-.01c-7.71-.02-15.42-.04-23.13-.06h0c-15.76-.04-31.52-.09-47.28-.13-15.84-.04-31.69-.09-47.53-.13v-37.09c16.86-.17,31.67.41,46.37.98,10.93.43,21.8.85,33.43.96,1.48.01,2.98.02,4.49.03,12,.02,24.87-.32,39.45-1.36,1.44-.1,3.79-.27,6.92-.47h.02c1.22-.08,2.56-.16,4.02-.25,1.4-.08,2.9-.16,4.49-.24,10.64-.54,25.52-1.04,42.5-.84,1.25.01,2.51.03,3.79.06,14.51.27,27.09.98,37.71,1.82,11.46.9,20.64,1.94,27.51,2.7.15.01.29.03.43.05.59.06,1.15.13,1.7.19.94.1,1.88.2,2.81.31,2.82.3,5.63.58,8.43.85.85.09,1.7.17,2.55.25,9.22.87,18.35,1.62,27.35,2.25h.03c.05,0,.11,0,.16.01.88.06,1.76.12,2.63.18,6.49.44,12.9.82,19.21,1.15,1.12.06,1.97.1,2.1.11,17.26.84,38.69-4.04,38.69-4.04,5.27-1.02,11.68-1.8,18.97-1.75,11.34.08,20.81,2.16,27.68,4.27Z"/>
      <path class="cls-3" d="M.13,107.19c0-13.53,0-27.06,0-40.59,21.67.16,30.73.36,47.32-.1.29,0,.58-.01.87-.02,13.88-.4,23.64-.9,31.61-1.4,1.56-.1,3.05-.2,4.49-.3,13.73-.93,22.85-1.81,42.58-1.94,2.73-.02,5.34-.02,7.83,0,1.54,0,3.03.02,4.49.04,17.11.22,29.22,1.16,44.07,2.2,1.32.1,2.67.19,4.04.28h.02c5.51.38,11.48.76,18.23,1.13,2.7.15,5.52.29,8.45.42.03,0,.05,0,.08,0,2,.1,4.05.18,6.14.27,2,.08,4.05.15,6.14.22,2.01.07,4.06.13,6.15.19,2.01.06,4.05.11,6.14.16,2.19.05,4.42.09,6.7.13,1.91.03,3.85.06,5.82.08.15,0,.31,0,.47,0,1.52.01,3.06.03,4.61.04,2.75.02,5.56.03,8.41.02.83,0,1.65,0,2.49,0,8.52-.03,17.49-.15,26.89-.4h.02c.06,0,.11,0,.17,0,.93-.02,1.86-.05,2.79-.08,6.2-.18,12.59-.41,19.15-.72.69-.03,1.39-.06,2.1-.1,1.57-.08,3.16-.15,4.76-.23h80.57c0,18.05,0,36.1,0,54.15-115.01,0-230.03,0-345.04,0-1.97,0-3.93,0-5.9,0h-11.69c-13.66,0-27.32,0-40.98,0,0-4.18,0-8.35,0-12.53v-.9Z"/>
      <path class="cls-1" d="M234.25.13c-.73,2.4-1.45,4.8-2.17,7.2-1.47,4.87-2.94,9.74-4.4,14.61-1.46,4.83-2.91,9.65-4.36,14.48-2.13,7.07-4.26,14.14-6.39,21.22-.73,2.42-1.46,4.84-2.19,7.25-.18.6-.36,1.19-.54,1.78-.03.08-.05.17-.08.25-.65,2.16-1.3,4.31-1.95,6.47-1.29,4.28-2.58,8.55-3.87,12.83v.02c-1.94,6.5-3.9,13.01-5.88,19.53-1.51,4.98-3.02,9.94-4.53,14.9-46.4.13-92.8.27-139.2.4-3.17,0-6.34,0-9.51,0-.03-2.97-.07-5.94-.1-8.9-.77-.05-1.54-.1-2.3-.15.74-4.09,1.49-8.18,2.23-12.27-.74.03-1.49.05-2.23.08.45-4,.9-8,1.35-12-.71,0-1.41,0-2.12,0,.55-4.96,1.1-9.93,1.64-14.89-.72.05-1.45.09-2.17.14.57-4.73,1.15-9.47,1.72-14.2-.99-.03-1.98-.06-2.96-.1.85-4.25,1.71-8.5,2.56-12.75-.85-.03-1.71-.05-2.56-.08.72-4.25,1.43-8.51,2.15-12.76-.72-.02-1.43-.04-2.15-.07.53-4.26,1.06-8.52,1.59-12.78-1.67-.06-3.33-.12-5-.18,1.79-4.21,3.58-8.42,5.37-12.63-1.22-.06-2.43-.11-3.65-.17.93-2.42,1.86-4.84,2.78-7.25h188.91Z"/>
      <path class="cls-3" d="M370.05,120.67c-62.66-.02-125.33-.04-187.99-.05-.05-18.48-.1-36.97-.15-55.45-.04-13.52-.07-27.04-.11-40.57-1-.03-2.01-.06-3.01-.1.4-4.29.81-8.57,1.21-12.86-.78-.02-1.57-.05-2.35-.07.8-3.82,1.59-7.63,2.39-11.45,62.24,0,124.48,0,186.72,0,1.05,3.96,2.11,7.93,3.16,11.89-.67-.03-1.35-.06-2.02-.09.42,3.61.84,7.21,1.25,10.82-.59.06-1.18.12-1.77.19.02.85.6,22.21.63,23.01.05,1.74.52,18.99.55,20.34.07,2.43.13,4.87.2,7.3.03,1.03.05,1.8.06,2.38.03,1.3.07,2.31.07,2.42.03.88.22,3.17,1.48,9.61-.57,0-1.15.02-1.72.02.74,2.86,1.48,5.73,2.22,8.59-.5,0-1,0-1.49,0,.5,3.19,1,6.38,1.49,9.58-.41.05-.82.1-1.23.15.55,3.34,1.11,6.68,1.66,10.02-.46-.05-.93-.1-1.39-.15.04,1.49.08,2.98.12,4.47Z"/>
      <path d="M257.54,120.64c-.08-3.61-.15-7.23-.24-10.84,0-.27,0-.54-.02-.81-.26-11.89-.52-23.78-.78-35.67-.04-1.82-.08-3.64-.12-5.46-.2-9.41-.41-18.82-.62-28.22-.04-1.89-.08-3.78-.12-5.67,2.8-.06,5.6-.12,8.41-.18.85-.02,1.7-.04,2.55-.06,9.15-.2,18.3-.39,27.46-.59h.03c.05,0,.11,0,.16,0,0,3.28.02,6.57.03,9.86.03,8.16.06,16.32.09,24.48,0,1.99.01,3.97.02,5.96.06,15.74.11,31.48.16,47.22h-37.01Z"/>
      <path class="cls-2" d="M44.24,45.96c46.35,1.51,92.7,3.01,139.05,4.52"/>
      <path class="cls-2" d="M44.24,58.79c46.28,1.5,92.56,3,138.83,4.5"/>
      <path class="cls-2" d="M44.24,73.02c46.28,1.5,92.56,3,138.83,4.5"/>
      <path class="cls-2" d="M44.24,85.82c46.28,1.5,92.56,3,138.83,4.5"/>
      <path class="cls-2" d="M44.24,20.68c44.85,1.27,89.71,2.55,134.56,3.82"/>
      <path class="cls-2" d="M44.24,33.2c46.28,1.5,92.56,3,138.83,4.5"/>
      <path class="cls-2" d="M45.83,7.44c43.94,1.38,87.89,2.76,131.83,4.14"/>
      <path class="cls-2" d="M44.24,98.63c46.28,1.5,92.56,3,138.83,4.5"/>
      <path class="cls-2" d="M44.24,111.44c46.28,1.5,92.56,3,138.83,4.5"/>
      <path d="M356.77,71.98c-12.76.56-25.53,1.12-38.29,1.68-.13-14.48-.26-28.95-.39-43.43,13.02,0,26.05,0,39.08,0-.13,13.92-.26,27.83-.39,41.75Z"/>
      <path class="cls-4" d="M358.85,74.16c-14.15.62-28.3,1.24-42.45,1.87-.14-16.05-.29-32.1-.43-48.14,14.44,0,28.88,0,43.32,0-.14,15.43-.29,30.85-.43,46.28Z"/>
      <path d="M314.31,74.87c.7.38,1.39.77,2.09,1.15-.14-16.05-.29-32.1-.43-48.14-.76.43-1.51.86-2.27,1.29.2,15.23.41,30.47.61,45.7Z"/>
      <path class="cls-4" d="M252.72,120.64c-.51-32.21-1.03-64.41-1.54-96.62"/>
      <path class="cls-4" d="M180.73,58.12c23.62-.31,47.23-.62,70.85-.93"/>
      <path class="cls-4" d="M294.48,100.08c25.47-1.05,50.94-2.1,76.41-3.15"/>
      <path class="cls-4" d="M294.27,91.41c24.8-1.03,49.6-2.07,74.4-3.1"/>
      <path class="cls-4" d="M294.37,81.75c24.95-1.04,49.9-2.08,74.85-3.12"/>
      <path class="cls-4" d="M181.14,24.68c62.08-.58,124.17-1.17,186.25-1.75"/>
      <path class="cls-4" d="M181.14,13.68c62.08-.58,124.17-1.17,186.25-1.75"/>
      <path class="cls-4" d="M294.33,110.02c25-1.04,50.01-2.07,75.01-3.11"/>
      <path class="cls-4" d="M294.55,119.92c25.13-1.11,50.25-2.22,75.38-3.34"/>
      <path class="cls-4" d="M182.35,65.23c23.11-.32,46.22-.64,69.34-.95"/>
      <g>
        <path class="cls-4" d="M245.11,65.49c.88,36.71,1.28,53.65,1.29,54.03,0,.02,0,.24.02.55,0,.24,0,.46.01.65"/>
        <path class="cls-4" d="M238.4,65.29c.02.77.04,1.55.06,2.32.04,1.89.09,3.79.14,5.69.38,15.62.75,31.24,1.13,46.86,0,.12,0,.25,0,.38,0,.09,0,.18,0,.27"/>
        <path class="cls-4" d="M232.27,65.37c.02.72.03,1.44.05,2.16.05,1.94.09,3.88.14,5.83.38,15.84.76,31.68,1.14,47.53"/>
        <path class="cls-4" d="M226.13,65.34c.44,18.54.88,37.08,1.33,55.63"/>
        <path class="cls-4" d="M219.94,64.76c.46,18.76.92,37.52,1.38,56.28"/>
        <path class="cls-4" d="M214.03,64.78c.38,18.78.76,37.56,1.14,56.34"/>
        <path class="cls-4" d="M207.55,64.98c.5,18.74.99,37.47,1.49,56.21"/>
        <path class="cls-4" d="M201.41,64.74c.4,13.75.78,27.5,1.12,41.25.13,5.09.25,10.18.37,15.27"/>
        <path class="cls-4" d="M190.42,64.76c.43,18.62.87,37.24,1.3,55.86"/>
        <path class="cls-4" d="M195.23,64.55c.51,18.69,1.01,37.38,1.52,56.07"/>
      </g>
      <path class="cls-1" d="M139.32,79.26c-19.8-2.76-39.6-5.52-59.39-8.27V29.2h59.39c0,16.69,0,33.37,0,50.06Z"/>
      <path class="cls-1" d="M134.83,75.47c-16.8-2.34-33.6-4.68-50.41-7.02v-35.46h50.41c0,14.16,0,28.32,0,42.49Z"/>
      <path class="cls-3" d="M265.95,120.64c-.08-3.5-.15-7-.23-10.5,0-.16,0-.32,0-.48-.27-12.11-.53-24.22-.79-36.34-.04-1.82-.08-3.64-.12-5.47-.2-9.13-.4-18.27-.6-27.4-.05-2.23-.1-4.47-.15-6.7-.03-1.25-.05-2.49-.08-3.74.85-.26,1.69-.51,2.54-.77.05,0,.09-.02.14-.04.02,0,.04-.01.06-.02,6.93.94,13.85,1.88,20.78,2.82.92.12,1.83.25,2.75.37,1.28.17,2.55.34,3.83.52v.21c.01,3.28.02,6.56.04,9.84.03,8.17.05,16.33.08,24.5,0,1.98.01,3.97.02,5.95.06,15.75.11,31.49.16,47.23h-28.41Z"/>
      <path class="cls-3" d="M268.33,120.6c-.07-3.66-.15-7.32-.22-10.98,0-.07,0-.14,0-.21-.24-12.03-.48-24.06-.72-36.1-.04-1.82-.07-3.65-.11-5.47-.18-9.04-.36-18.09-.54-27.13-.05-2.34-.1-4.67-.14-7.01-.03-1.48-.06-2.97-.09-4.45v-.06s.09.01.14.02c6.95.94,13.89,1.87,20.84,2.8.92.12,1.83.25,2.75.37,1.29.17,2.57.34,3.86.52v.21c0,3.28.02,6.56.03,9.84.03,8.16.05,16.33.08,24.49,0,1.98.01,3.97.02,5.95.05,15.74.1,31.47.15,47.21h-26.04Z"/>
      <path d="M274.88,87.75c0-.28-.01-1.1-.51-1.48-.74-.57-2.11.16-2.77,1.03-1.05,1.39-.9,3.95.42,4.77.7.44,1.83.44,2.5-.2.48-.46.61-1.14.65-1.39.06-.46,0-.85-.07-1.07.1.94-.24,1.8-.84,2.11-.89.47-2.08-.42-2.5-1.44-.44-1.08,0-2.26.67-2.89.1-.09,1.08-1,1.84-.55.48.29.58.95.6,1.1Z"/>
      <path class="cls-4" d="M316.4,76.02c-.14-16.05-.29-32.1-.43-48.14"/>
      <path class="cls-3" d="M275.07,89.18c-.02.9-.36,2.5-1.28,2.73-.99.26-2.36-1.15-2.49-2.64-.15-1.7,1.32-3.43,2.35-3.25.94.17,1.46,1.9,1.43,3.15Z"/>
      <path class="cls-4" d="M219.22,37.51c-3.45,2.29-6.91,4.57-10.36,6.86"/>
      <path class="cls-4" d="M224.21,37.51c-3.45,2.29-6.91,4.57-10.36,6.86"/>
      <path class="cls-4" d="M221.81,46.42c-2.16-3.66-4.32-7.31-6.48-10.97"/>
      <path class="cls-4" d="M216.82,46.42c-2.16-3.66-4.32-7.31-6.48-10.97"/>
      <rect class="cls-4" x=".13" y=".13" width="403.61" height="120.5"/>
    </g>
  </g>
</svg>