<?xml version="1.0" encoding="UTF-8"?>
<svg id="Layer_2" data-name="Layer 2" xmlns="http://www.w3.org/2000/svg" viewBox="0 0 400.29 518.88">
  <defs>
    <style>
      .cls-1, .cls-2, .cls-3, .cls-4 {
        stroke: #fff;
      }

      .cls-1, .cls-2, .cls-3, .cls-4, .cls-5, .cls-6, .cls-7, .cls-8, .cls-9, .cls-10 {
        stroke-miterlimit: 10;
      }

      .cls-1, .cls-2, .cls-4, .cls-5, .cls-6, .cls-8, .cls-9, .cls-10 {
        stroke-width: .25px;
      }

      .cls-1, .cls-11, .cls-5 {
        fill: #fff;
      }

      .cls-3 {
        stroke-width: .15px;
      }

      .cls-4, .cls-6, .cls-7, .cls-8 {
        fill: none;
      }

      .cls-5, .cls-6, .cls-7, .cls-9 {
        stroke: #000;
      }

      .cls-7 {
        stroke-width: .5px;
      }

      .cls-8 {
        stroke: #f6f5f5;
      }

      .cls-9 {
        fill: #dcdedd;
      }

      .cls-10 {
        stroke: #dcdedd;
      }
    </style>
  </defs>
  <g id="Capa_1" data-name="Capa 1">
    <g>
      <path d="M400.17,0H.13c0,153.4,0,306.79,0,460.19,7.07-2.62,19.12-6.56,34.3-8.77,21.16-3.07,37.2-.95,44.01-.36,59.4,5.19,126.86,5.76,152.75,5.45,27.42-.33,47.63-1.64,47.63-1.64,16.07-1.04,19.87-1.79,25.3-2.11,0,0,3.08-.15,6.31-.16,11.71-.03,44.9,5.89,50.35,6.8,9.12,1.53,22.52,2.81,39.39.82,0-153.41,0-306.81,0-460.22Z"/>
      <path class="cls-5" d="M.13,456.8c2.34-.41,6.36-1.11,11.34-2.02,13.71-2.53,21.53-4.25,25.22-4.96,27.4-5.31,53.72,1.18,76.61-1.2,2.88-.3,13.87-1.5,27.61-1.13,14.24.38,24.32,2.18,30.12,3.11,30.89,4.95,60.54,4.68,77.54,4.52,41.36-.38,43.07-6.19,72.3-3.39,12.67,1.21,20.64,3.1,43.48,5.08,14.95,1.3,27.41,1.87,35.8,2.15,0,1.51,0,3.03,0,4.54-22.85-1.38-57.98-2.94-101.22-2.45-27.65.31-28.58,1.12-50.67,1.47-26.87.43-129.82-14.18-226.11-2.64-4.35.52-12.18,1.51-22.04,3.12,0-2.06,0-4.12,0-6.19Z"/>
      <path class="cls-6" d="M125.78,488.74c.48-.03.63.24,1.09.25.45.01.57-.23,1-.36.72-.21,1.06.26,2.07.5,1.26.31,2.21-.06,2.22,0,0,.06-1,.49-2.18.27-.91-.17-1.08-.56-1.81-.46-.66.09-.75.43-1.38.38-.41-.04-.56-.2-1.17-.22-.4-.01-.64.05-.65-.01-.01-.07.36-.33.81-.35Z"/>
      <path class="cls-6" d="M169.97,486.73c.48-.03.63.24,1.09.25.45.01.57-.23,1-.36.72-.21,1.06.26,2.07.5,1.26.31,2.21-.06,2.22,0,0,.06-1,.49-2.18.27-.91-.17-1.08-.56-1.81-.46-.66.09-.75.43-1.38.38-.41-.04-.56-.2-1.17-.22-.4-.01-.64.05-.65-.01-.01-.07.36-.33.81-.35Z"/>
      <path d="M177.07,499.91c-7.93-.33-20.19-.7-35.24-.53-28.44.33-31.85,2.21-51.55,1.37-7.73-.33-20-1.8-44.55-4.76-19.75-2.37-24.54-3.28-24.53-4.25.02-2.06,21.15-3.44,30.03-4,17.67-1.12,42.65-2,73.58-.75,43.87.3,65.96,2.38,66.27,6.26.15,1.82-4.53,4.04-14.02,6.66Z"/>
      <rect x="172.2" y="401.23" width="9.89" height="6.84"/>
      <g>
        <rect class="cls-10" x="127.46" y="369.84" width="4.91" height="13.32"/>
        <path class="cls-10" d="M132.37,369.84h-4.91c-.64-.82-1.29-1.64-1.93-2.45h8.06c-.41.82-.82,1.64-1.23,2.45Z"/>
        <path class="cls-10" d="M126.93,364.58h4.91c.64.82,1.29,1.64,1.93,2.45h-8.06c.41-.82.82-1.64,1.23-2.45Z"/>
      </g>
      <path class="cls-2" d="M180.94,376.51c-22.68.4-45.35.8-68.03,1.2-13.06,14.47-26.12,28.93-39.19,43.4,1.46.02,2.93.04,4.39.05-.26,1.71-.51,3.41-.77,5.12.3-.01.59-.02.89-.03-.3,1.82-.59,3.64-.89,5.47.34,0,.68,0,1.02-.01-.44,1.82-.88,3.64-1.32,5.46.4,0,.81,0,1.21.01-.3,1.8-.61,3.61-.91,5.41.35,0,.71,0,1.06,0-.35,1.81-.71,3.63-1.06,5.44.41.01.81.02,1.22.04-.41,1.8-.81,3.6-1.22,5.4.46.03.91.05,1.37.08-.19,1.79-.38,3.59-.58,5.38.24-.03.48-.06.72-.09-.17,1.92-.33,3.85-.5,5.77.22,0,.44.01.66.02-.11,1.9-.21,3.81-.32,5.71.24.01.48.03.72.05-.26,1.88-.51,3.76-.77,5.64.29.03.58.05.87.08-.18,1.88-.36,3.76-.54,5.64.21-.02.42-.05.63-.07-.21,1.63-.42,3.27-.63,4.9.24,0,.48,0,.72,0,.03,1.85.06,3.7.09,5.55,20.66,2.41,41.32,4.82,61.98,7.22,13.05-40.94,26.11-81.88,39.16-122.82Z"/>
      <path class="cls-5" d="M221.51,415.15l-43.39-35.15c-13.14,13.99-26.27,27.97-39.41,41.96-.14,1.73-.29,3.47-.43,5.2.17,0,.34-.02.51-.03-.08,1.93-.16,3.86-.24,5.8l.66-.04-.38,6.32c.21.04.42.08.63.11-.13,1.71-.26,3.41-.38,5.12.2.02.39.04.59.06-.22,1.89-.43,3.77-.65,5.66l.69-.04c.71,16.4,1.42,32.79,2.13,49.19,27.32-1.39,54.65-2.79,81.98-4.18-.06-1.04-.11-2.09-.17-3.13.15,0,.3.01.45.02-.16-1.3-.31-2.6-.47-3.89.1-.02.21-.04.31-.05-.15-1.54-.29-3.08-.43-4.62.1,0,.2-.02.3-.03-.14-1.37-.28-2.75-.41-4.12.09,0,.17.02.26.03-.12-1.43-.25-2.86-.37-4.28.1-.02.19-.03.29-.05-.13-1.22-.26-2.43-.39-3.65l.28-.03c-.13-1.36-.26-2.71-.39-4.07-.23-8.54-.46-17.09-.69-25.63.06,0,.12,0,.18,0-.14-2.15-.29-4.3-.43-6.45h.23l-.38-5.09c.06,0,.12,0,.18,0-.14-2.35-.27-4.7-.41-7.05h.27c-.16-1.61-.32-3.21-.48-4.8l-.02-3.05Z"/>
      <path d="M189.52,448.02c-5.77.12-11.55.24-17.32.35.38,16.48.76,32.95,1.14,49.43,5.45-.35,10.9-.7,16.36-1.05-.06-16.25-.12-32.49-.18-48.74Z"/>
      <path class="cls-2" d="M78.12,421.17c1.74,0,3.49-.02,5.23-.03l4.5.02c16.91.14,33.81.29,50.72.43"/>
      <path class="cls-9" d="M137.6,418.63c27.95-1.15,55.89-2.31,83.84-3.46"/>
      <path class="cls-9" d="M138.82,439.21c27.94-1.36,55.88-2.73,83.82-4.09"/>
      <path class="cls-9" d="M137.58,432.94c28.4-.97,56.81-1.94,85.21-2.9"/>
      <path class="cls-9" d="M137.4,427.2c28.38-1.41,56.77-2.82,85.15-4.23"/>
      <path class="cls-4" d="M77.35,426.29c20.31.29,40.62.58,60.93.87"/>
      <path class="cls-4" d="M77.35,431.72c20.34.38,40.68.76,61.02,1.13"/>
      <path class="cls-4" d="M77.35,437.16c20.3.59,40.61,1.19,60.91,1.78"/>
      <path class="cls-4" d="M77.35,442.59c20.57.62,41.15,1.24,61.72,1.85"/>
      <path class="cls-4" d="M77.35,448.03c20.78.7,41.57,1.4,62.35,2.09"/>
      <path class="cls-4" d="M77.35,453.46c20.79.64,41.59,1.28,62.38,1.91"/>
      <path class="cls-4" d="M77.35,458.89c20.76.94,41.52,1.88,62.28,2.82"/>
      <path class="cls-4" d="M77.35,464.57c20.95,1.16,41.91,2.32,62.86,3.48"/>
      <path class="cls-4" d="M77.35,470.24c21.04,1.31,42.08,2.62,63.11,3.93"/>
      <path class="cls-4" d="M77.35,475.92c21.19,1.41,42.38,2.82,63.57,4.22"/>
      <path class="cls-4" d="M77.35,481.59c21.27,1.73,42.53,3.46,63.8,5.19"/>
      <path class="cls-4" d="M79.8,486.63c20.62,2.26,41.24,4.52,61.86,6.79"/>
      <path class="cls-9" d="M132.31,415.81c28.38-1.41,56.77-2.82,85.15-4.23"/>
      <path class="cls-9" d="M131.44,412.3c28.38-1.41,56.77-2.82,85.15-4.23"/>
      <path class="cls-9" d="M129.68,409.32c28.38-1.41,56.77-2.82,85.15-4.23"/>
      <path class="cls-9" d="M125.48,406.69c28.38-1.41,56.77-2.82,85.15-4.23"/>
      <path class="cls-9" d="M122.85,403.36c28.38-1.41,56.77-2.82,85.15-4.23"/>
      <path class="cls-9" d="M117.06,398.98c28.38-1.41,56.77-2.82,85.15-4.23"/>
      <path class="cls-9" d="M117.06,401.26c28.38-1.41,56.77-2.82,85.15-4.23"/>
      <path class="cls-9" d="M111.28,396.53c28.38-1.41,56.77-2.82,85.15-4.23"/>
      <path class="cls-9" d="M106.02,384.61c28.38-1.41,56.77-2.82,85.15-4.23"/>
      <path class="cls-9" d="M106.02,383.9c28.38-1.41,56.77-2.82,85.15-4.23"/>
      <path class="cls-9" d="M106.02,385.66c28.38-1.41,56.77-2.82,85.15-4.23"/>
      <path class="cls-9" d="M106.02,387.59c28.38-1.41,56.77-2.82,85.15-4.23"/>
      <path class="cls-9" d="M106.02,389.51c28.38-1.41,56.77-2.82,85.15-4.23"/>
      <path class="cls-9" d="M106.02,386.53c28.38-1.41,56.77-2.82,85.15-4.23"/>
      <path class="cls-9" d="M106.02,388.46c28.38-1.41,56.77-2.82,85.15-4.23"/>
      <path class="cls-9" d="M106.02,391.09c28.38-1.41,56.77-2.82,85.15-4.23"/>
      <path class="cls-9" d="M106.02,392.32c28.38-1.41,56.77-2.82,85.15-4.23"/>
      <path class="cls-9" d="M106.02,394.25c28.38-1.41,56.77-2.82,85.15-4.23"/>
      <path class="cls-9" d="M138.71,421.96c28.02-1.29,56.04-2.57,84.06-3.86"/>
      <path d="M217.57,463.92c-5.73.22-11.45.44-17.18.67-.06-5.73-.12-11.45-.18-17.18,5.85-.19,11.7-.38,17.55-.57-.06,5.69-.13,11.39-.19,17.08Z"/>
      <path d="M199.29,465.68c-.25-.04-.5-.09-.75-.13-.06-6.34-.12-12.67-.17-19.01.24-.07.47-.14.71-.21.07,6.45.14,12.9.21,19.35Z"/>
      <path class="cls-6" d="M218.5,464.78c-6.35.25-12.7.49-19.04.74-.06-6.35-.13-12.7-.19-19.05,6.49-.22,12.97-.43,19.46-.65-.07,6.32-.14,12.64-.22,18.95Z"/>
      <path class="cls-6" d="M171.12,497.76c-.33-17.13-.65-34.27-.98-51.4,6.83-.14,13.67-.27,20.5-.41.18,16.97.36,33.93.54,50.9"/>
      <path class="cls-7" d="M168.12,498.01c-.17-12.18-.33-24.36-.5-36.54"/>
      <path class="cls-7" d="M170.96,498.01c-.27-17.22-.54-34.43-.81-51.65"/>
      <path class="cls-6" d="M138.74,460.46c10.59-.22,21.18-.44,31.78-.66"/>
      <path class="cls-6" d="M138.7,459.04c10.55-.17,21.09-.35,31.64-.52"/>
      <path class="cls-6" d="M138.66,457.63c10.55-.15,21.11-.3,31.66-.45"/>
      <path class="cls-6" d="M138.62,456.21c10.58-.28,21.17-.56,31.75-.84"/>
      <path class="cls-6" d="M138.58,454.79c10.59-.42,21.17-.84,31.76-1.26"/>
      <path class="cls-6" d="M138.54,453.37c10.59-.42,21.17-.84,31.76-1.26"/>
      <path class="cls-6" d="M138.5,451.95c10.59-.42,21.17-.84,31.76-1.26"/>
      <path class="cls-6" d="M138.89,450.59c10.45-.44,20.89-.88,31.34-1.32"/>
      <path class="cls-6" d="M190.88,476.34c10.8-.43,21.59-.87,32.39-1.3"/>
      <path class="cls-6" d="M190.88,472.66c10.76-.44,21.53-.88,32.29-1.32"/>
      <path class="cls-6" d="M191.13,468.55c10.68-.42,21.35-.83,32.03-1.25"/>
      <path class="cls-6" d="M139.66,444.5c27.75-.97,55.5-1.94,83.25-2.91"/>
      <path class="cls-6" d="M191.02,480.54c10.79-.41,21.58-.83,32.37-1.24"/>
      <path class="cls-6" d="M191.16,484.74c10.78-.43,21.56-.86,32.34-1.3"/>
      <path class="cls-6" d="M191.3,489.47c10.77-.45,21.55-.9,32.32-1.35"/>
      <path class="cls-6" d="M191.18,493.34c10.85-.45,21.69-.9,32.54-1.36"/>
      <path class="cls-6" d="M139.63,461.72c10.16-.17,20.33-.33,30.49-.5"/>
      <path class="cls-7" d="M165.12,498.26c-.2-12.32-.4-24.63-.6-36.95"/>
      <path class="cls-7" d="M162.36,498.26c-.16-12.3-.32-24.6-.49-36.91"/>
      <path class="cls-7" d="M159.61,498.51c-.18-12.37-.36-24.74-.55-37.11"/>
      <path class="cls-7" d="M156.57,498.53c-.18-12.35-.37-24.71-.55-37.06"/>
      <path class="cls-7" d="M154.11,498.76c-.21-12.42-.43-24.85-.64-37.27"/>
      <path class="cls-7" d="M151.35,499.01c-.27-12.49-.54-24.98-.81-37.47"/>
      <path class="cls-7" d="M148.6,499.01c-.26-12.48-.52-24.95-.78-37.43"/>
      <path class="cls-7" d="M143.59,499.01l-.76-37.34"/>
      <path class="cls-7" d="M146.2,499.05c-.23-12.46-.47-24.92-.7-37.38"/>
      <path class="cls-9" d="M177.69,379.04c14.61,12.04,29.22,24.08,43.83,36.11"/>
      <g>
        <path class="cls-2" d="M119.91,465.28l-4.5-.23c-7.38-.38-14.75-.76-22.13-1.15.07-5.9.14-11.8.21-17.7l26.64.32c-.07,6.26-.15,12.51-.22,18.77Z"/>
        <path class="cls-2" d="M117.92,463.55c-7.54-.23-15.07-.47-22.61-.7l.18-15.03,22.61.27c-.06,5.15-.12,10.31-.18,15.46Z"/>
        <path class="cls-11" d="M120.1,465.52c.4-.17.8-.34,1.2-.51.1-6.11.2-12.22.3-18.33-.43-.12-.86-.23-1.29-.35-.07,6.4-.14,12.79-.22,19.19Z"/>
        <path class="cls-11" d="M95.48,462.87c.39-.14.77-.27,1.16-.41.1-4.71.2-9.42.29-14.12-.43-.08-.86-.16-1.29-.24-.05,4.92-.11,9.85-.16,14.77Z"/>
      </g>
      <path class="cls-3" d="M178.12,380l43.41,38.2c2.19,0,4.38,0,6.57,0-15.73-13.9-31.46-27.81-47.18-41.72-.93,1.17-1.87,2.34-2.8,3.51Z"/>
      <g>
        <path class="cls-8" d="M78.46,421.11c12.74-14.49,25.48-28.98,38.22-43.48"/>
        <path class="cls-8" d="M83.2,421.11c12.89-14.52,25.77-29.04,38.66-43.56"/>
        <path class="cls-8" d="M87.75,421.11c12.59-14.52,25.19-29.04,37.78-43.56"/>
        <path class="cls-8" d="M91.26,421.11c12.94-14.52,25.89-29.04,38.83-43.56"/>
        <path class="cls-8" d="M95.47,421.11c12.94-14.52,25.89-29.04,38.83-43.56"/>
        <path class="cls-8" d="M99.15,421.29c12.94-14.58,25.89-29.16,38.83-43.74"/>
        <path class="cls-8" d="M102.65,421.29c13-14.58,26-29.16,39.01-43.74"/>
        <path class="cls-8" d="M106.34,421.29c13-14.58,26-29.16,39.01-43.74"/>
        <path class="cls-8" d="M109.67,421.29c13.12-14.58,26.24-29.16,39.36-43.74"/>
        <path class="cls-8" d="M113.52,421.29c13.06-14.58,26.12-29.16,39.18-43.74"/>
        <path class="cls-8" d="M117.2,421.29c13.06-14.58,26.12-29.16,39.18-43.74"/>
        <path class="cls-8" d="M120.87,421.44c13.07-14.63,26.13-29.26,39.2-43.89"/>
        <path class="cls-8" d="M124.78,421.47c12.99-14.64,25.98-29.28,38.97-43.92"/>
        <path class="cls-8" d="M128.49,421.5c12.98-14.65,25.96-29.3,38.94-43.95"/>
        <path class="cls-8" d="M131.76,421.46c13.12-14.64,26.24-29.28,39.36-43.91"/>
        <path class="cls-8" d="M135.61,421.46c13.06-14.64,26.12-29.28,39.18-43.91"/>
      </g>
      <path class="cls-5" d="M175.93,446.71c.41-.12.82-.23,1.23-.35,4.09.53,8.18,1.05,12.27,1.58.06,16.25.12,32.49.18,48.74-3.86,1.17-7.71,2.34-11.57,3.51-.29-.06-.58-.12-.88-.18-.41-17.76-.82-35.53-1.23-53.29Z"/>
      <path class="cls-5" d="M177.07,446.36c4.12.53,8.25,1.05,12.37,1.58.05,16.25.11,32.49.16,48.74-3.8,1.11-7.61,2.22-11.41,3.33-.37-17.88-.75-35.76-1.12-53.64Z"/>
      <path d="M182.23,473.96c.02-.09.05-.34-.16-.48-.34-.23-.93-.12-1.28.22-.21.2-.29.44-.32.57l-.54.11c.03.06.05.12.07.19.14.04.28.09.41.13.04.11.13.33.34.48.36.26.82.19,1.12.03.24-.12.33-.33.36-.4.05-.14.04-.26.02-.33,0,.29-.19.55-.47.62-.42.11-.91-.21-1.05-.53-.15-.35.11-.7.43-.87.05-.02.53-.27.85-.1.2.11.22.31.22.36Z"/>
      <circle class="cls-1" cx="343.87" cy="358.43" r="19.24"/>
      <g>
        <path d="M286.5,497.46c.36,0,.67.08,1.01.18.48.14.64.31,1.01.41.5.13,1.19.29,2.03.37,1.91.18,3.07-.18,3.09-.09.01.05-2.25.78-5.02.69-1.46-.05-3.66-.34-3.69-.83-.02-.31.84-.72,1.57-.74Z"/>
        <path class="cls-5" d="M286.32,498.01c-.14-.4.05-.89.32-1.19,1.12-1.27,4.26-.06,4.89.18.88.34,2.17.84,2.12,1.33-.08.71-2.9.97-5.02.69-2.02-.27-2.26-.88-2.31-1.01Z"/>
        <path class="cls-5" d="M286.32,498.01c-.19-.5.07-1.16.32-1.19.22-.03.33.43.88.83.36.27.75.37,1.01.41.5.13,1.19.29,2.03.37.14.01.75.06,1.58.04.59-.02,1.11-.07,1.51-.13,0,.02-.01.04-.02.07-.14.34-.57.49-1.01.58-2.06.42-4,.04-4,.04-1.3-.26-2.08-.42-2.31-1.01Z"/>
      </g>
      <g>
        <path d="M188.75,510.77c.78-.02,1.45.19,2.19.42,1.04.32,1.38.71,2.19.95,1.07.31,2.56.66,4.37.84,4.11.4,6.62-.42,6.66-.21.02.11-4.85,1.78-10.84,1.58-3.14-.11-7.89-.78-7.95-1.89-.04-.71,1.8-1.65,3.38-1.68Z"/>
        <path class="cls-5" d="M188.36,512.03c-.32-.9-.03-2.1.7-2.74.76-.67,1.69-.44,5.3-.11,3.04.27,2.63.13,3.38.27,2.75.49,6.55,2.08,6.43,3.32-.15,1.52-6.14,2.27-10.84,1.58-1.92-.28-4.4-.67-4.97-2.31Z"/>
        <path class="cls-5" d="M188.36,512.03c-.4-1.13.16-2.65.7-2.74.48-.08.72.99,1.89,1.89.79.61,1.61.84,2.19.95,1.07.31,2.56.66,4.37.84.3.03,1.63.15,3.4.09,1.28-.04,2.39-.17,3.26-.3,0,.04-.03.09-.05.16-.29.77-1.22,1.13-2.17,1.33-4.44.96-8.62.09-8.62.09-2.8-.59-4.49-.97-4.97-2.31Z"/>
      </g>
      <g>
        <path d="M279,473.27c.3,0,.56.07.84.15.4.12.53.26.84.34.41.11.99.24,1.69.31,1.58.15,2.55-.15,2.57-.08,0,.04-1.87.65-4.18.57-1.21-.04-3.04-.28-3.07-.69-.02-.26.7-.6,1.3-.61Z"/>
        <path class="cls-5" d="M278.84,473.72c-.11-.33.04-.74.27-.99.93-1.05,3.54-.05,4.06.15.73.28,1.81.7,1.76,1.11-.06.59-2.41.81-4.18.57-1.68-.22-1.88-.73-1.92-.84Z"/>
        <path class="cls-5" d="M278.84,473.72c-.16-.41.06-.96.27-.99.18-.03.28.36.73.69.3.22.62.31.84.34.41.11.99.24,1.69.31.12.01.63.05,1.31.03.49-.02.92-.06,1.26-.11,0,.01,0,.03-.02.06-.11.28-.47.41-.84.48-1.71.35-3.32.03-3.32.03-1.08-.21-1.73-.35-1.92-.84Z"/>
      </g>
      <g>
        <path d="M311.79,503.37c.67-.01,1.24.16,1.87.36.89.28,1.18.61,1.87.81.91.26,2.2.57,3.75.72,3.52.35,5.67-.36,5.7-.18.02.1-4.16,1.53-9.28,1.35-2.69-.09-6.75-.67-6.81-1.62-.04-.61,1.54-1.41,2.89-1.44Z"/>
        <path class="cls-5" d="M311.45,504.46c-.27-.77-.02-1.8.6-2.34.65-.57,1.45-.38,4.54-.1,2.61.23,2.25.11,2.9.23,2.36.42,5.61,1.78,5.5,2.84-.13,1.3-5.26,1.94-9.28,1.35-1.64-.24-3.77-.58-4.26-1.98Z"/>
        <path class="cls-5" d="M311.45,504.46c-.35-.97.13-2.27.6-2.34.41-.07.62.85,1.62,1.62.67.52,1.38.72,1.87.81.91.26,2.2.57,3.75.72.26.03,1.39.12,2.91.07,1.1-.04,2.04-.14,2.79-.25,0,.03-.02.08-.04.14-.25.66-1.05.97-1.86,1.14-3.81.82-7.38.08-7.38.08-2.4-.5-3.85-.83-4.26-1.98Z"/>
      </g>
      <path d="M290.64,467.84c-1.62-.04-2.1.1-3.65.08-1.5-.02-1.89-.17-3.33-.27-2.4-.17-3.56.09-6.94.18-4.23.11-7.41-.16-7.43-.13-.02.03,3.33.35,7.3.29,3.03-.05,3.61-.27,6.05-.17,2.2.09,2.5.3,4.61.3,1.38,0,1.88-.08,3.91-.06,1.33.01,2.13.06,2.17.03.05-.04-1.21-.21-2.7-.25Z"/>
      <path d="M314.94,494.29c-1.2-.04-1.56.13-2.71.12-1.11-.01-1.4-.18-2.47-.29-1.78-.18-2.64.13-5.15.25-3.14.16-5.49-.14-5.51-.1-.01.04,2.47.38,5.42.28,2.25-.07,2.68-.33,4.49-.24,1.63.09,1.85.33,3.42.32,1.02,0,1.4-.11,2.9-.1.98,0,1.58.06,1.61.02.04-.05-.9-.24-2-.28Z"/>
      <path d="M279.54,487.89c-1.2-.04-1.56.13-2.71.12-1.11-.01-1.4-.18-2.47-.29-1.78-.18-2.64.13-5.15.25-3.14.16-5.49-.14-5.51-.1-.01.04,2.47.38,5.42.28,2.25-.07,2.68-.33,4.49-.24,1.63.09,1.85.33,3.42.32,1.02,0,1.4-.11,2.9-.1.98,0,1.58.06,1.61.02.04-.05-.9-.24-2-.28Z"/>
      <path d="M302.18,510.17c-1.2-.04-1.56.13-2.71.12-1.11-.01-1.4-.18-2.47-.29-1.78-.18-2.64.13-5.15.25-3.14.16-5.49-.14-5.51-.1-.01.04,2.47.38,5.42.28,2.25-.07,2.68-.33,4.49-.24,1.63.09,1.85.33,3.42.32,1.02,0,1.4-.11,2.9-.1.98,0,1.58.06,1.61.02.04-.05-.9-.24-2-.28Z"/>
      <path d="M229.25,500.6c2.24,0,2.91.07,5.06.08,2.07,0,2.62-.07,4.61-.11,3.33-.07,4.92.08,9.6.16,5.85.1,10.25-.02,10.28,0,.03.02-4.61.15-10.11.08-4.2-.05-4.99-.17-8.38-.14-3.04.03-3.46.13-6.39.12-1.91-.01-2.61-.06-5.42-.07-1.84,0-2.95.01-3,0-.07-.02,1.68-.1,3.74-.11Z"/>
      <g>
        <path d="M323.63,468.03c.21,0,.38.04.58.09.27.07.36.15.58.2.28.07.68.14,1.15.18,1.08.09,1.75-.09,1.76-.04,0,.02-1.28.38-2.86.33-.83-.02-2.08-.16-2.1-.4-.01-.15.48-.35.89-.36Z"/>
        <path class="cls-5" d="M323.52,468.3c-.08-.19.03-.43.18-.58.64-.61,2.42-.03,2.78.09.5.16,1.24.41,1.21.65-.04.35-1.65.47-2.86.33-1.15-.13-1.29-.42-1.31-.49Z"/>
        <path class="cls-5" d="M323.52,468.3c-.11-.24.04-.56.18-.58.13-.02.19.21.5.4.21.13.42.18.58.2.28.07.68.14,1.15.18.08,0,.43.03.9.02.34,0,.63-.04.86-.06,0,0,0,.02-.01.03-.08.16-.32.24-.57.28-1.17.2-2.27.02-2.27.02-.74-.12-1.18-.2-1.31-.49Z"/>
      </g>
      <g>
        <path d="M247.55,488.6c.36,0,.67.08,1.01.18.48.14.64.31,1.01.41.5.13,1.19.29,2.03.37,1.91.18,3.07-.18,3.09-.09.01.05-2.25.78-5.02.69-1.46-.05-3.66-.34-3.69-.83-.02-.31.84-.72,1.57-.74Z"/>
        <path class="cls-5" d="M247.37,489.16c-.14-.4.05-.89.32-1.19,1.12-1.27,4.26-.06,4.89.18.88.34,2.17.84,2.12,1.33-.08.71-2.9.97-5.02.69-2.02-.27-2.26-.88-2.31-1.01Z"/>
        <path class="cls-5" d="M247.37,489.16c-.19-.5.07-1.16.32-1.19.22-.03.33.43.88.83.36.27.75.37,1.01.41.5.13,1.19.29,2.03.37.14.01.75.06,1.58.04.59-.02,1.11-.07,1.51-.13,0,.02-.01.04-.02.07-.14.34-.57.49-1.01.58-2.06.42-4,.04-4,.04-1.3-.26-2.08-.42-2.31-1.01Z"/>
      </g>
      <g>
        <path d="M146.23,509.05c.36,0,.67.08,1.01.18.48.14.64.31,1.01.41.5.13,1.19.29,2.03.37,1.91.18,3.07-.18,3.09-.09.01.05-2.25.78-5.02.69-1.46-.05-3.66-.34-3.69-.83-.02-.31.84-.72,1.57-.74Z"/>
        <path class="cls-5" d="M146.05,509.6c-.14-.4.05-.89.32-1.19,1.12-1.27,4.26-.06,4.89.18.88.34,2.17.84,2.12,1.33-.08.71-2.9.97-5.02.69-2.02-.27-2.26-.88-2.31-1.01Z"/>
        <path class="cls-5" d="M146.05,509.6c-.19-.5.07-1.16.32-1.19.22-.03.33.43.88.83.36.27.75.37,1.01.41.5.13,1.19.29,2.03.37.14.01.75.06,1.58.04.59-.02,1.11-.07,1.51-.13,0,.02-.01.04-.02.07-.14.34-.57.49-1.01.58-2.06.42-4,.04-4,.04-1.3-.26-2.08-.42-2.31-1.01Z"/>
      </g>
      <path d="M266.11,478.7c-3.3-.07-4.28.08-7.45.03-3.06-.04-3.86-.21-6.8-.35-3.31-.15-8.01.02-14.15.08-7.48.08-14.06-.21-14.06-.18,0,0,.22.01.29.02,6.8.24,10.2.37,13.52.34,3.7-.03,4.91-.13,9.19-.14.9,0,1.91.01,3.15.05,4.48.13,5.1.37,9.42.41,2.82.02,3.84-.06,7.98,0,2.7.04,4.35.1,4.43.07.1-.05-2.48-.25-5.51-.32Z"/>
      <path d="M230.68,509.95c2.24-.03,2.91.24,5.06.26,2.07.01,2.62-.24,4.61-.37,3.33-.22,4.92.26,9.6.52,5.85.32,10.25-.06,10.28,0,.03.06-4.61.51-10.11.28-4.2-.17-4.99-.58-8.38-.48-3.04.09-3.46.45-6.39.39-1.91-.04-2.61-.21-5.42-.23-1.84-.01-2.95.05-3-.01-.07-.08,1.68-.34,3.74-.37Z"/>
      <g>
        <path d="M76.93,510.57c.71-.01,1.32.16,1.99.36.95.28,1.25.61,1.99.81.97.26,2.33.57,3.98.72,3.74.35,6.02-.36,6.06-.18.02.1-4.41,1.53-9.85,1.35-2.85-.09-7.17-.67-7.23-1.62-.04-.61,1.64-1.41,3.07-1.44Z"/>
        <path class="cls-5" d="M76.57,511.65c-.31-.97.43-2.05.63-2.34.96-1.4,2.55-1.69,2.91-1.75,1.39-.25,2.52.18,4.42,1.06,4.33,2.01,6.49,3.01,6.42,3.66-.17,1.44-5.79,1.88-9.85,1.35-1.65-.22-4.07-.56-4.52-1.98Z"/>
        <path class="cls-5" d="M76.57,511.65c-.11-.43-.15-1.18.63-2.34.34.44.9,1.06,1.72,1.62,1.71,1.17,3.52,1.32,5.97,1.53.32.03,1.51.12,3.09.07,1.16-.04,2.17-.14,2.97-.25,0,.03-.02.08-.05.14-.33.82-1.53,1.05-1.97,1.14-1.42.28-11.46,1.46-12.35-1.91Z"/>
      </g>
      <g>
        <path d="M49.75,501.67c.54-.01,1.01.12,1.52.28.72.21.96.47,1.52.62.74.2,1.78.43,3.04.55,2.85.26,4.6-.28,4.63-.14.02.07-3.37,1.17-7.52,1.03-2.18-.07-5.48-.51-5.52-1.24-.03-.46,1.25-1.08,2.35-1.1Z"/>
        <path class="cls-5" d="M49.47,502.5c-.25-.75.32-1.56.48-1.79.94-1.32,2.87-1.72,4.36-1.4.81.17.9.43,2.96,1.68,2.55,1.54,3.2,1.62,3.18,2-.07.93-4.11,1.49-7.52,1.03-1.3-.17-3.09-.44-3.45-1.51Z"/>
        <path class="cls-5" d="M49.47,502.5c-.28-.74.11-1.73.48-1.79.38-.06.47.86,1.31,1.24.78.35,1.15-.23,2.21-.06,1.11.18,1.08.87,2.35,1.23.52.14,1.13.1,2.36.06.89-.03,1.66-.11,2.27-.19,0,.02-.02.06-.03.1-.2.51-.85.74-1.51.87-3.09.63-5.98.06-5.98.06-1.95-.38-3.12-.63-3.45-1.51Z"/>
      </g>
      <g>
        <path d="M11.08,491.99c.24,0,.45.06.68.12.32.09.43.21.68.28.33.09.79.19,1.36.25,1.27.12,2.05-.12,2.06-.06,0,.03-1.5.52-3.36.46-.97-.03-2.44-.23-2.46-.55-.01-.21.56-.48,1.05-.49Z"/>
        <path class="cls-5" d="M11.41,491.91c-.09-.27.04-.59.22-.8.75-.85,2.84-.04,3.26.12.59.23,1.45.56,1.42.89-.05.48-1.93.65-3.36.46-1.35-.18-1.51-.58-1.54-.68Z"/>
        <path class="cls-5" d="M11.41,491.91c-.13-.33.05-.77.22-.8.15-.02.22.29.59.55.24.18.5.25.68.28.33.09.79.19,1.36.25.09,0,.5.04,1.05.03.4-.01.74-.05,1.01-.09,0,.01,0,.03-.02.05-.09.23-.38.33-.67.39-1.38.28-2.67.03-2.67.03-.87-.17-1.39-.28-1.54-.68Z"/>
      </g>
      <g>
        <path d="M18.5,503.21c.54-.01,1.01.12,1.52.28.72.21.96.47,1.52.62.74.2,1.78.43,3.04.55,2.85.26,4.6-.28,4.63-.14.02.07-3.37,1.17-7.52,1.03-2.18-.07-5.48-.51-5.52-1.24-.03-.46,1.25-1.08,2.35-1.1Z"/>
        <path class="cls-5" d="M18.23,504.03c-.25-.75.32-1.56.48-1.79.94-1.32,2.87-1.72,4.36-1.4.81.17.9.43,2.96,1.68,2.55,1.54,3.2,1.62,3.18,2-.07.93-4.11,1.49-7.52,1.03-1.3-.17-3.09-.44-3.45-1.51Z"/>
        <path class="cls-5" d="M18.23,504.03c-.28-.74.11-1.73.48-1.79.38-.06.47.86,1.31,1.24.78.35,1.15-.23,2.21-.06,1.11.18,1.08.87,2.35,1.23.52.14,1.13.1,2.36.06.89-.03,1.66-.11,2.27-.19,0,.02-.02.06-.03.1-.2.51-.85.74-1.51.87-3.09.63-5.98.06-5.98.06-1.95-.38-3.12-.63-3.45-1.51Z"/>
      </g>
      <g>
        <path d="M50.86,471.13c.24,0,.45.06.68.12.32.09.43.21.68.28.33.09.79.19,1.36.25,1.27.12,2.05-.12,2.06-.06,0,.03-1.5.52-3.36.46-.97-.03-2.44-.23-2.46-.55-.01-.21.56-.48,1.05-.49Z"/>
        <path class="cls-5" d="M50.73,471.5c-.09-.27.04-.59.22-.8.75-.85,2.84-.04,3.26.12.59.23,1.45.56,1.42.89-.05.48-1.93.65-3.36.46-1.35-.18-1.51-.58-1.54-.68Z"/>
        <path class="cls-5" d="M50.73,471.5c-.13-.33.05-.77.22-.8.15-.02.22.29.59.55.24.18.5.25.68.28.33.09.79.19,1.36.25.09,0,.5.04,1.05.03.4-.01.74-.05,1.01-.09,0,.01,0,.03-.02.05-.09.23-.38.33-.67.39-1.38.28-2.67.03-2.67.03-.87-.17-1.39-.28-1.54-.68Z"/>
      </g>
      <g>
        <path d="M31.84,483.35c.36,0,.67.08,1.01.18.48.14.64.31,1.01.41.5.13,1.19.29,2.03.37,1.91.18,3.07-.18,3.09-.09.01.05-2.25.78-5.02.69-1.46-.05-3.66-.34-3.69-.83-.02-.31.84-.72,1.57-.74Z"/>
        <path class="cls-5" d="M31.65,483.9c-.14-.4.05-.89.32-1.19,1.12-1.27,4.26-.06,4.89.18.88.34,2.17.84,2.12,1.33-.08.71-2.9.97-5.02.69-2.02-.27-2.26-.88-2.31-1.01Z"/>
        <path class="cls-5" d="M31.65,483.9c-.19-.5.07-1.16.32-1.19.22-.03.33.43.88.83.36.27.75.37,1.01.41.5.13,1.19.29,2.03.37.14.01.75.06,1.58.04.59-.02,1.11-.07,1.51-.13,0,.02-.01.04-.02.07-.14.34-.57.49-1.01.58-2.06.42-4,.04-4,.04-1.3-.26-2.08-.42-2.31-1.01Z"/>
      </g>
      <path d="M86.57,478.16c-3.3-.07-4.28.08-7.45.03-3.06-.04-3.86-.21-6.8-.35-4.9-.22-7.26.04-14.15.08-8.62.05-15.11-.3-15.15-.26-.04.04,6.79.43,14.9.43,6.19,0,7.35-.24,12.34-.09,4.48.13,5.1.37,9.42.41,2.82.03,3.84-.06,7.98,0,2.7.04,4.35.1,4.43.07.1-.05-2.48-.25-5.51-.32Z"/>
      <path d="M70.01,473.53c-1.66-.05-2.16.14-3.75.12-1.54-.02-1.94-.21-3.42-.33-2.46-.21-3.65.13-7.12.26-4.34.16-7.6-.18-7.62-.13-.02.05,3.41.43,7.49.34,3.11-.07,3.7-.36,6.21-.24,2.25.11,2.56.37,4.73.37,1.42,0,1.93-.12,4.01-.1,1.36.01,2.19.07,2.23.03.05-.05-1.24-.27-2.77-.32Z"/>
      <path d="M34.76,472.43c-1.62-.04-2.1.1-3.65.08-1.5-.02-1.89-.17-3.33-.27-2.4-.17-3.56.09-6.94.18-4.23.11-7.41-.16-7.43-.13-.02.03,3.33.35,7.3.29,3.03-.05,3.61-.27,6.05-.17,2.2.09,2.5.3,4.61.3,1.38,0,1.88-.08,3.91-.06,1.33.01,2.13.06,2.17.03.05-.04-1.21-.21-2.7-.25Z"/>
      <path d="M67.49,494.04c-1.2-.04-1.56.13-2.71.12-1.11-.01-1.4-.18-2.47-.29-1.78-.18-2.64.13-5.15.25-3.14.16-5.49-.14-5.51-.1-.01.04,2.47.38,5.42.28,2.25-.07,2.68-.33,4.49-.24,1.63.09,1.85.33,3.42.32,1.02,0,1.4-.11,2.9-.1.98,0,1.58.06,1.61.02.04-.05-.9-.24-2-.28Z"/>
      <path d="M95.61,504.89c2.24-.03,2.91.24,5.06.26,2.07.01,2.62-.24,4.61-.37,3.33-.22,4.92.26,9.6.52,5.85.32,10.25-.06,10.28,0,.03.06-4.61.51-10.11.28-4.2-.17-4.99-.58-8.38-.48-3.04.09-3.46.45-6.39.39-1.91-.04-2.61-.21-5.42-.23-1.84-.01-2.95.05-3-.01-.07-.08,1.68-.34,3.74-.37Z"/>
      <g>
        <path d="M38.62,466.74c.2,0,.37.05.56.1.27.08.36.17.56.23.28.07.66.16,1.13.2,1.06.1,1.71-.1,1.72-.05,0,.03-1.25.43-2.8.38-.81-.03-2.04-.19-2.05-.46-.01-.17.47-.4.87-.41Z"/>
        <path class="cls-5" d="M38.52,467.05c-.08-.22.03-.5.18-.67.62-.71,2.37-.03,2.72.1.49.19,1.21.47,1.18.74-.04.4-1.61.54-2.8.38-1.12-.15-1.26-.49-1.28-.56Z"/>
        <path class="cls-5" d="M38.52,467.05c-.1-.28.04-.64.18-.67.12-.02.19.24.49.46.2.15.42.2.56.23.28.07.66.16,1.13.2.08,0,.42.04.88.02.33-.01.62-.04.84-.07,0,0,0,.02-.01.04-.08.19-.32.27-.56.32-1.15.23-2.22.02-2.22.02-.72-.14-1.16-.24-1.28-.56Z"/>
      </g>
      <g>
        <path d="M376.57,507.64c.71-.01,1.32.16,1.99.36.95.28,1.25.61,1.99.81.97.26,2.33.57,3.98.72,3.74.35,6.02-.36,6.06-.18.02.1-4.41,1.53-9.85,1.35-2.85-.09-7.17-.67-7.23-1.62-.04-.61,1.64-1.41,3.07-1.44Z"/>
        <path class="cls-5" d="M376.21,508.72c-.31-.97.43-2.05.63-2.34.96-1.4,2.55-1.69,2.91-1.75,1.39-.25,2.52.18,4.42,1.06,4.33,2.01,6.49,3.01,6.42,3.66-.17,1.44-5.79,1.88-9.85,1.35-1.65-.22-4.07-.56-4.52-1.98Z"/>
        <path class="cls-5" d="M376.21,508.72c-.11-.43-.15-1.18.63-2.34.34.44.9,1.06,1.72,1.62,1.71,1.17,3.52,1.32,5.97,1.53.32.03,1.51.12,3.09.07,1.16-.04,2.17-.14,2.97-.25,0,.03-.02.08-.05.14-.33.82-1.53,1.05-1.97,1.14-1.42.28-11.46,1.46-12.35-1.91Z"/>
      </g>
      <g>
        <path d="M350.8,494.48c.54-.01,1.01.12,1.52.28.72.21.96.47,1.52.62.74.2,1.78.43,3.04.55,2.85.26,4.6-.28,4.63-.14.02.07-3.37,1.17-7.52,1.03-2.18-.07-5.48-.51-5.52-1.24-.03-.46,1.25-1.08,2.35-1.1Z"/>
        <path class="cls-5" d="M350.53,495.31c-.25-.75.32-1.56.48-1.79.94-1.32,2.87-1.72,4.36-1.4.81.17.9.43,2.96,1.68,2.55,1.54,3.2,1.62,3.18,2-.07.93-4.11,1.49-7.52,1.03-1.3-.17-3.09-.44-3.45-1.51Z"/>
        <path class="cls-5" d="M350.53,495.31c-.28-.74.11-1.73.48-1.79.38-.06.47.86,1.31,1.24.78.35,1.15-.23,2.21-.06,1.11.18,1.08.87,2.35,1.23.52.14,1.13.1,2.36.06.89-.03,1.66-.11,2.27-.19,0,.02-.02.06-.03.1-.2.51-.85.74-1.51.87-3.09.63-5.98.06-5.98.06-1.95-.38-3.12-.63-3.45-1.51Z"/>
      </g>
      <g>
        <path d="M343.38,475.26c.24,0,.45.06.68.12.32.09.43.21.68.28.33.09.79.19,1.36.25,1.27.12,2.05-.12,2.06-.06,0,.03-1.5.52-3.36.46-.97-.03-2.44-.23-2.46-.55-.01-.21.56-.48,1.05-.49Z"/>
        <path class="cls-5" d="M343.71,475.18c-.09-.27.04-.59.22-.8.75-.85,2.84-.04,3.26.12.59.23,1.45.56,1.42.89-.05.48-1.93.65-3.36.46-1.35-.18-1.51-.58-1.54-.68Z"/>
        <path class="cls-5" d="M343.71,475.18c-.13-.33.05-.77.22-.8.15-.02.22.29.59.55.24.18.5.25.68.28.33.09.79.19,1.36.25.09,0,.5.04,1.05.03.4-.01.74-.05,1.01-.09,0,.01,0,.03-.02.05-.09.23-.38.33-.67.39-1.38.28-2.67.03-2.67.03-.87-.17-1.39-.28-1.54-.68Z"/>
      </g>
      <g>
        <path d="M350.8,494.48c.54-.01,1.01.12,1.52.28.72.21.96.47,1.52.62.74.2,1.78.43,3.04.55,2.85.26,4.6-.28,4.63-.14.02.07-3.37,1.17-7.52,1.03-2.18-.07-5.48-.51-5.52-1.24-.03-.46,1.25-1.08,2.35-1.1Z"/>
        <path class="cls-5" d="M350.53,495.31c-.25-.75.32-1.56.48-1.79.94-1.32,2.87-1.72,4.36-1.4.81.17.9.43,2.96,1.68,2.55,1.54,3.2,1.62,3.18,2-.07.93-4.11,1.49-7.52,1.03-1.3-.17-3.09-.44-3.45-1.51Z"/>
        <path class="cls-5" d="M350.53,495.31c-.28-.74.11-1.73.48-1.79.38-.06.47.86,1.31,1.24.78.35,1.15-.23,2.21-.06,1.11.18,1.08.87,2.35,1.23.52.14,1.13.1,2.36.06.89-.03,1.66-.11,2.27-.19,0,.02-.02.06-.03.1-.2.51-.85.74-1.51.87-3.09.63-5.98.06-5.98.06-1.95-.38-3.12-.63-3.45-1.51Z"/>
      </g>
      <g>
        <path d="M387.37,469.86c.24,0,.45.06.68.12.32.09.43.21.68.28.33.09.79.19,1.36.25,1.27.12,2.05-.12,2.06-.06,0,.03-1.5.52-3.36.46-.97-.03-2.44-.23-2.46-.55-.01-.21.56-.48,1.05-.49Z"/>
        <path class="cls-5" d="M387.24,470.23c-.09-.27.04-.59.22-.8.75-.85,2.84-.04,3.26.12.59.23,1.45.56,1.42.89-.05.48-1.93.65-3.36.46-1.35-.18-1.51-.58-1.54-.68Z"/>
        <path class="cls-5" d="M387.24,470.23c-.13-.33.05-.77.22-.8.15-.02.22.29.59.55.24.18.5.25.68.28.33.09.79.19,1.36.25.09,0,.5.04,1.05.03.4-.01.74-.05,1.01-.09,0,.01,0,.03-.02.05-.09.23-.38.33-.67.39-1.38.28-2.67.03-2.67.03-.87-.17-1.39-.28-1.54-.68Z"/>
      </g>
      <g>
        <path d="M319.01,481.03c.36,0,.67.08,1.01.18.48.14.64.31,1.01.41.5.13,1.19.29,2.03.37,1.91.18,3.07-.18,3.09-.09.01.05-2.25.78-5.02.69-1.46-.05-3.66-.34-3.69-.83-.02-.31.84-.72,1.57-.74Z"/>
        <path class="cls-5" d="M318.82,481.59c-.14-.4.05-.89.32-1.19,1.12-1.27,4.26-.06,4.89.18.88.34,2.17.84,2.12,1.33-.08.71-2.9.97-5.02.69-2.02-.27-2.26-.88-2.31-1.01Z"/>
        <path class="cls-5" d="M318.82,481.59c-.19-.5.07-1.16.32-1.19.22-.03.33.43.88.83.36.27.75.37,1.01.41.5.13,1.19.29,2.03.37.14.01.75.06,1.58.04.59-.02,1.11-.07,1.51-.13,0,.02-.01.04-.02.07-.14.34-.57.49-1.01.58-2.06.42-4,.04-4,.04-1.3-.26-2.08-.42-2.31-1.01Z"/>
      </g>
      <g>
        <path d="M368.35,482.08c.36,0,.67.08,1.01.18.48.14.64.31,1.01.41.5.13,1.19.29,2.03.37,1.91.18,3.07-.18,3.09-.09.01.05-2.25.78-5.02.69-1.46-.05-3.66-.34-3.69-.83-.02-.31.84-.72,1.57-.74Z"/>
        <path class="cls-5" d="M368.16,482.63c-.14-.4.05-.89.32-1.19,1.12-1.27,4.26-.06,4.89.18.88.34,2.17.84,2.12,1.33-.08.71-2.9.97-5.02.69-2.02-.27-2.26-.88-2.31-1.01Z"/>
        <path class="cls-5" d="M368.16,482.63c-.19-.5.07-1.16.32-1.19.22-.03.33.43.88.83.36.27.75.37,1.01.41.5.13,1.19.29,2.03.37.14.01.75.06,1.58.04.59-.02,1.11-.07,1.51-.13,0,.02-.01.04-.02.07-.14.34-.57.49-1.01.58-2.06.42-4,.04-4,.04-1.3-.26-2.08-.42-2.31-1.01Z"/>
      </g>
      <path d="M371.27,471.16c-1.62-.04-2.1.1-3.65.08-1.5-.02-1.89-.17-3.33-.27-2.4-.17-3.56.09-6.94.18-4.23.11-7.41-.16-7.43-.13-.02.03,3.33.35,7.3.29,3.03-.05,3.61-.27,6.05-.17,2.2.09,2.5.3,4.61.3,1.38,0,1.88-.08,3.91-.06,1.33.01,2.13.06,2.17.03.05-.04-1.21-.21-2.7-.25Z"/>
      <path d="M389.75,492.77c-1.2-.04-1.56.13-2.71.12-1.11-.01-1.4-.18-2.47-.29-1.78-.18-2.64.13-5.15.25-3.14.16-5.49-.14-5.51-.1-.01.04,2.47.38,5.42.28,2.25-.07,2.68-.33,4.49-.24,1.63.09,1.85.33,3.42.32,1.02,0,1.4-.11,2.9-.1.98,0,1.58.06,1.61.02.04-.05-.9-.24-2-.28Z"/>
      <path d="M337.52,503.37c2.24-.03,2.91.24,5.06.26,2.07.01,2.62-.24,4.61-.37,3.33-.22,4.92.26,9.6.52,5.85.32,10.25-.06,10.28,0,.03.06-4.61.51-10.11.28-4.2-.17-4.99-.58-8.38-.48-3.04.09-3.46.45-6.39.39-1.91-.04-2.61-.21-5.42-.23-1.84-.01-2.95.05-3-.01-.07-.08,1.68-.34,3.74-.37Z"/>
      <g>
        <path d="M375.13,465.47c.2,0,.37.05.56.1.27.08.36.17.56.23.28.07.66.16,1.13.2,1.06.1,1.71-.1,1.72-.05,0,.03-1.25.43-2.8.38-.81-.03-2.04-.19-2.05-.46-.01-.17.47-.4.87-.41Z"/>
        <path class="cls-5" d="M375.03,465.78c-.08-.22.03-.5.18-.67.62-.71,2.37-.03,2.72.1.49.19,1.21.47,1.18.74-.04.4-1.61.54-2.8.38-1.12-.15-1.26-.49-1.28-.56Z"/>
        <path class="cls-5" d="M375.03,465.78c-.1-.28.04-.64.18-.67.12-.02.19.24.49.46.2.15.42.2.56.23.28.07.66.16,1.13.2.08,0,.42.04.88.02.33-.01.62-.04.84-.07,0,0,0,.02-.01.04-.08.19-.32.27-.56.32-1.15.23-2.22.02-2.22.02-.72-.14-1.16-.24-1.28-.56Z"/>
      </g>
      <rect class="cls-6" x=".13" y="275.23" width="400.04" height="243.52"/>
    </g>
  </g>
</svg>