<?xml version="1.0" encoding="UTF-8"?>
<svg id="Layer_1" xmlns="http://www.w3.org/2000/svg" version="1.1" viewBox="0 0 102.5 23.3">
  <!-- Generator: Adobe Illustrator 29.0.1, SVG Export Plug-In . SVG Version: 2.1.0 Build 192)  -->
  <defs>
    <style>
      .st0 {
        fill: #fff;
        stroke: #000;
        stroke-miterlimit: 10;
        stroke-width: .2px;
      }
    </style>
  </defs>
  <path class="st0" d="M8.1,14.5c0,.6,5.6-1.1,11.6,1.9s2.8,2.5,6.5,4.4c1.9.9,7.4,3.7,10,1.5,1.3-1,.6-2.1,1.7-4.2,2.2-4,7.7-5.7,11.9-5.3,3.1.3,7.2,1.8,7.3,3.5,0,2.3-7.4,3.3-7.2,4.4.2,1.9,20.6,1.2,20.8-.9,0-1.1-5.4-1.8-5.4-3.6,0-1.8,5.4-3.1,6.6-3.3,12-2.8,22,1.7,22.5.5.3-.7-3.1-3.7-7.7-4.7-8.4-1.8-14,4.1-18.7.9-1.9-1.3-2.2-3.2-4.4-3.5-1.6-.2-2.4.6-5.6,1.2,0,0-2.2.4-4.6.5-4.2,0-6.4-2.3-9.9-3.9-7.6-3.4-15.4-.3-15.4-.3s6.5-2,10.3,1.2c2.1,1.8,3.2,5.1,2.1,7.2-1.9,3.6-9.9,2.6-12,2.3-3.4-.4-3.6-1.1-6.9-1.6-7.2-1-13.5,1.3-13.4,1.9h0Z"/>
</svg>