<?xml version="1.0" encoding="UTF-8"?>
<svg id="Layer_2" xmlns="http://www.w3.org/2000/svg" version="1.1" viewBox="0 0 402.6 491.7">
  <!-- Generator: Adobe Illustrator 29.0.1, SVG Export Plug-In . SVG Version: 2.1.0 Build 192)  -->
  <defs>
    <style>
      .st0 {
        fill: #f6f5f5;
      }

      .st0, .st1, .st2, .st3, .st4, .st5, .st6, .st7 {
        stroke-miterlimit: 10;
      }

      .st0, .st1, .st3, .st4, .st5, .st6, .st7 {
        stroke-width: .2px;
      }

      .st0, .st4, .st5 {
        stroke: #000;
      }

      .st8 {
        fill: #585b5c;
      }

      .st1, .st2, .st3 {
        stroke: #fff;
      }

      .st2 {
        stroke-width: .5px;
      }

      .st9, .st4, .st7 {
        fill: #fff;
      }

      .st3, .st5, .st6 {
        fill: none;
      }

      .st6 {
        stroke: #f6f5f5;
      }

      .st7 {
        stroke: #231f20;
      }
    </style>
  </defs>
  <g id="Capa_1">
    <g>
      <rect width="315.6" height="490"/>
      <rect x="322.1" width="80.3" height="491.6"/>
      <path class="st9" d="M0,439c11.4-2.3,20.8-3.4,27.1-4,26.3-2.4,37.3,1,60.8-.6,2.3-.2,11-.8,21.9-.6,11.3.2,19.3,1.2,23.9,1.7,24.5,2.6,48.1,2.5,61.6,2.4,32.8-.2,34.2-3.3,57.4-1.8,10.1.6,16.4,1.7,34.5,2.7,11.9.7,21.8,1,28.4,1.1v8c-105.2-.3-210.4-.6-315.6-.9v-8h0Z"/>
      <path class="st7" d="M315.6,441.5v50.1H-.5v-50.1h31.6c18.1,0,21,.3,29.6,0,15.1-.5,16.5-1.3,28-1.4,11.7,0,16.8.7,28,1.4,9.6.5,23.2.9,40.1,0h31.6c18.1,0,21,.3,29.6,0,15.1-.5,16.5-1.3,28-1.4,11.7,0,16.8.7,28,1.4,9.9.6,24.1,1,41.8,0h-.2Z"/>
      <path class="st5" d="M208.2,425.3c-.3,0-.3.1-.6.1s-.3-.1-.5-.2c-.4-.1-.6.1-1.1.3-.7.2-1.2,0-1.2,0,0,0,.5.3,1.2.2.5,0,.6-.3,1-.2.4,0,.4.3.8.2.2,0,.3-.1.6-.1h.4s-.2-.2-.4-.2h-.2Z"/>
      <path class="st5" d="M139.9,461.5c.4,0,.5.2.9.2s.5-.2.8-.3c.6-.2.9.2,1.7.4,1.1.3,1.8,0,1.8,0,0,0-.8.4-1.8.2-.8-.1-.9-.5-1.5-.4-.5,0-.6.4-1.1.3-.3,0-.5-.2-1-.2h-.5s.3-.3.7-.3h0Z"/>
      <path class="st5" d="M130,452.6c-.3,0-.3.1-.6.1s-.3-.1-.5-.2c-.4-.1-.6.1-1.1.3-.7.2-1.2,0-1.2,0,0,0,.5.3,1.2.2.5,0,.6-.3,1-.2.4,0,.4.3.8.2.2,0,.3-.1.6-.1h.4s-.2-.2-.4-.2h-.2Z"/>
      <path class="st5" d="M93.9,447.9c-.3,0-.3.1-.6.1s-.3-.1-.5-.2c-.4-.1-.6.1-1.1.3-.7.2-1.2,0-1.2,0,0,0,.5.3,1.2.2.5,0,.6-.3,1-.2.4,0,.4.3.8.2.2,0,.3-.1.6-.1h.3s-.2-.2-.4-.2h-.1Z"/>
      <path d="M130.4,457.9c.2,0,.4,0,.7.1s.4.2.7.3c.3.1.8.2,1.4.3,1.3.1,2.1-.1,2.1,0,0,0-1.5.5-3.4.5s-2.5-.2-2.5-.6.6-.5,1.1-.5h-.1Z"/>
      <g>
        <path d="M12.4,456c.2,0,.4,0,.7.1s.4.2.7.3c.3,0,.8.2,1.3.3,1.3.1,2-.1,2,0,0,0-1.5.5-3.3.5s-2.4-.2-2.4-.6.6-.5,1-.5h0Z"/>
        <path class="st4" d="M12.3,456c0-.3,0-.6.2-.8.7-.9,2.8,0,3.2.1.6.2,1.4.6,1.4.9,0,.5-1.9.7-3.3.5-1.3-.2-1.5-.6-1.5-.7h0Z"/>
        <path class="st4" d="M12.3,456c-.1-.4,0-.8.2-.8s.2.3.6.6c.2.2.5.3.7.3.3,0,.8.2,1.3.3h2c0,.2-.4.3-.7.4-1.4.3-2.6,0-2.6,0-.9-.2-1.4-.3-1.5-.7h0Z"/>
      </g>
      <g>
        <path d="M17.5,439.9h.4c.2,0,.2.1.4.2.2,0,.5.1.8.1h1.1s-.9.2-1.9.2-1.4-.1-1.4-.2.6-.2.7-.2h-.1Z"/>
        <path class="st4" d="M17.3,439.8c0-.2,0-.4.1-.5s.3-.2,1-.2c1,0,1.1,0,1.2.1.2.1.6.4.5.7-.1.4-1.3.4-2,.3-.8-.1-.9-.4-.9-.4h0Z"/>
        <path class="st4" d="M17.3,439.8c0-.2,0-.5.1-.5s.1.2.3.3.3,0,.7,0,.2.2.5.3h1.2s-.2.2-.4.2c-.8.2-1.6,0-1.6,0-.5-.1-.8-.2-.9-.4h0Z"/>
      </g>
      <g>
        <path d="M76.2,474.3c.4,0,.8.1,1.2.2.6.2.8.4,1.2.5.6.2,1.4.4,2.4.5,2.3.2,3.7-.2,3.7-.1,0,0-2.7,1-6,.9-1.7,0-4.4-.4-4.4-1s1-.9,1.9-.9h0Z"/>
        <path class="st4" d="M76,475c-.2-.6.2-1.3.4-1.5.8-1.1,2.3-1.5,3.5-1.2.7.1.7.4,2.4,1.4,2,1.3,2.6,1.4,2.5,1.7,0,.8-3.3,1.2-6,.9-1-.1-2.5-.4-2.8-1.3Z"/>
        <path class="st4" d="M76,475c-.2-.6,0-1.5.4-1.5s.4.7,1.1,1c.6.3.9-.2,1.8,0,.9.1.9.7,1.9,1,.4.1.9,0,1.9,0s1.3-.1,1.8-.2h0c-.2.4-.7.6-1.2.7-2.5.5-4.8,0-4.8,0-1.6-.3-2.5-.5-2.8-1.3h0v.3Z"/>
      </g>
      <g>
        <path d="M71.2,447c0,0,.3.1.5.2.4.1.8.2,1.1.2h1.5c-.6.1-1.4.3-2.4.2-.7,0-1.7-.1-1.7-.3,0,0,.2-.2,1-.3h0Z"/>
        <path class="st4" d="M71,446.8c0-.2,0-.5.2-.7.3-.2.6,0,1.9,0h.7c.5.1,1.2.5,1.1.8,0,.4-1.5.5-2.7.4-.5,0-1.1-.2-1.2-.6h0Z"/>
        <path class="st4" d="M71,446.8c0-.3,0-.7.2-.7s.2.4.5.6c.4.3.7-.1,1.4,0,.4,0,.5.2,1,.3h.8s-.4.3-.5.3c-1.1.2-2.1,0-2.1,0-.7-.1-1.1-.2-1.2-.6h-.1Z"/>
      </g>
      <g>
        <path d="M194.8,443.7c.2,0,.4,0,.5.1.3,0,.3.2.5.2.3,0,.6.2,1.1.2,1,.1,1.6-.1,1.6,0,0,0-1.2.4-2.7.4s-1.9-.2-2-.5c0-.2.4-.4.8-.4h.2Z"/>
        <path class="st4" d="M195.1,443.5c0-.2,0-.5.2-.7.6-.7,2.3,0,2.6.1.5.2,1.2.5,1.1.8,0,.4-1.5.5-2.7.4-1.1-.1-1.2-.5-1.2-.6h0Z"/>
        <path class="st4" d="M195.1,443.5c-.1-.3,0-.6.2-.7.1,0,.2.2.5.5.2.1.4.2.5.2.3,0,.6.2,1.1.2h1.6c0,.2-.3.3-.5.3-1.1.2-2.1,0-2.1,0-.7-.1-1.1-.2-1.2-.6h-.1Z"/>
      </g>
      <g>
        <path d="M36.4,464.5c.3,0,.5,0,.8.1.4.1.5.3.8.4.4.1,1,.2,1.6.3,1.5.1,2.4-.2,2.5,0,0,0-1.8.7-4,.6-1.2,0-2.9-.3-2.9-.7s.7-.6,1.2-.6h0Z"/>
        <path class="st4" d="M36.3,465c0-.3,0-.8.3-1,.9-1.1,3.4,0,3.9.1.7.3,1.7.7,1.7,1.1,0,.6-2.3.8-4,.6-1.6-.2-1.8-.7-1.8-.9h-.1Z"/>
        <path class="st4" d="M36.3,465c-.2-.4,0-1,.3-1s.3.4.7.7c.3.2.6.3.8.4.4.1,1,.2,1.6.3h1.2c.5,0,.9,0,1.2-.1h0c0,.3-.5.4-.8.5-1.6.4-3.2,0-3.2,0-1-.2-1.7-.4-1.8-.9h0Z"/>
      </g>
      <g>
        <path d="M127.7,481.1c.5,0,.9.1,1.4.3.7.2.9.5,1.4.6.7.2,1.6.4,2.8.5,2.6.3,4.3-.3,4.3-.1,0,0-3.1,1.1-7,1-2,0-5.1-.5-5.1-1.2s1.2-1.1,2.2-1.1h0Z"/>
        <path class="st4" d="M127.4,481.9c-.2-.6,0-1.3.4-1.8,1.6-1.9,5.9,0,6.8.3,1.2.5,3,1.2,2.9,2-.1,1-4,1.4-7,1-2.8-.4-3.1-1.3-3.2-1.5h0Z"/>
        <path class="st4" d="M127.4,481.9c-.3-.9.6-2,.9-1.9.3,0,0,1.3.7,1.7.4.2.7,0,1.5-.1,1.2,0,1.3.6,2.9.9.7.1,1.2,0,2.2,0s2-.2,2.1,0c0,.1-.7.6-1.4.9-2.1.8-4.1.4-5.5,0-1.7-.4-2.9-.6-3.2-1.5h-.2Z"/>
      </g>
      <g>
        <path d="M110.4,448.5c.5-.1.7-.1.9,0,0,.1,0,.2.2.4,0,.2.3.1,1.2.2h1.8s-1.4.4-3.1.3c-.9,0-2.1-.2-2.1-.4s.4-.2,1.1-.4h0Z"/>
        <path class="st4" d="M110.5,448.2c0-.3,0-.6.2-.8.3-.3.7-.4.8-.4.3,0,.5.1.8.3.6.2.8,0,1.4.2.6.1,1.3.5,1.3.9s-1.8.6-3.1.5c-1.2-.2-1.4-.6-1.4-.7Z"/>
        <path class="st4" d="M110.5,448.3c0-.1,0-.4.2-.8,0,.2.3.4.5.5.3.1.4,0,.9.1s.5.3.9.4h1.9c0,.3-.5.4-.6.4-.5.1-3.6.5-3.9-.6h0Z"/>
      </g>
      <path d="M129.6,462h0c8.4,2.7,15.2,3.4,19.9,3.5,9.3.2,13.4-.3,21.4-.5,6.4-.1,17,.2,17,1,0,1.3-25.3,3.6-40.6,4.6-6.6.4-21.7,1.3-40.7-1.1-4.5-.6-11.9-1.5-11.9-2.8,0-2.2,24.7-4.1,28.2-4.4,2.7-.2,5-.4,6.6-.4h.1Z"/>
      <path class="st9" d="M159.5,449.3c-.6,0-1.1,0-1.7.1h0c0-.1,1.7-.1,1.7-.1Z"/>
      <path class="st5" d="M172.9,460.3c.4,0,.5.2.9.2s.5-.2.8-.3c.6-.2.9.2,1.7.4,1.1.3,1.8,0,1.8,0,0,0-.8.4-1.8.2-.8-.1-.9-.5-1.5-.4-.5,0-.6.4-1.1.3-.3,0-.5-.2-1-.2h-.5s.3-.3.7-.3h0Z"/>
      <path class="st5" d="M229.9,453.4c-.3,0-.3.1-.6.1s-.3-.1-.5-.2c-.4-.1-.6.1-1.1.3-.7.2-1.2,0-1.2,0,0,0,.5.3,1.2.2.5,0,.6-.3,1-.2.4,0,.4.3.8.2.2,0,.3-.1.6-.1h.4s-.2-.2-.4-.2h-.2Z"/>
      <path class="st5" d="M176.3,448c-.3,0-.3.1-.6.1s-.3-.1-.5-.2c-.4-.1-.6.1-1.1.3-.7.2-1.2,0-1.2,0,0,0,.5.3,1.2.2.5,0,.6-.3,1-.2.4,0,.4.3.8.2.2,0,.3-.1.6-.1h.4s-.2-.2-.4-.2h-.2Z"/>
      <g>
        <path d="M167.2,451.9c.2,0,.4,0,.7.1s.4.2.7.3c.3,0,.8.2,1.3.3,1.3.1,2-.1,2,0,0,0-1.5.5-3.3.5s-2.4-.2-2.4-.6.6-.5,1-.5h0Z"/>
        <path class="st4" d="M167.1,451.8c0-.3,0-.6.2-.8.7-.9,2.8,0,3.2.1.6.2,1.4.6,1.4.9,0,.5-1.9.7-3.3.5-1.3-.2-1.5-.6-1.5-.7h0Z"/>
        <path class="st4" d="M167.1,451.8c-.1-.4,0-.8.2-.8s.2.3.6.6c.2.2.5.3.7.3.3,0,.8.2,1.3.3h2c0,.2-.4.3-.7.4-1.4.3-2.6,0-2.6,0-.9-.2-1.4-.3-1.5-.7h0Z"/>
      </g>
      <g>
        <path d="M217.6,456.5c.3,0,.6,0,.9.2.4.1.6.3.9.4.5.1,1.1.3,1.9.4,1.8.2,2.9-.2,2.9,0,0,0-2.1.7-4.7.6-1.4,0-3.4-.3-3.4-.8s.8-.7,1.4-.7h.1Z"/>
        <path class="st4" d="M217.4,457c-.2-.5.2-1,.3-1.1.6-.8,1.8-1.1,2.7-.9.5.1.6.3,1.8,1.1,1.6,1,2,1,2,1.3,0,.6-2.5.9-4.7.6-.8-.1-1.9-.3-2.1-1h0Z"/>
        <path class="st4" d="M217.4,457c-.2-.5,0-1.1.3-1.1s.3.5.8.8c.5.2.7-.1,1.4,0s.7.5,1.4.8h1.5c.6,0,1,0,1.4-.1h0c-.1.3-.5.5-.9.5-1.9.4-3.7,0-3.7,0-1.2-.2-1.9-.4-2.1-1h0Z"/>
      </g>
      <g>
        <path d="M294.5,448.2c.2,0,.4,0,.5.1.3,0,.3.2.5.2.3,0,.6.2,1.1.2,1,.1,1.6-.1,1.6,0,0,0-1.2.4-2.7.4s-2-.2-2-.5.4-.4.8-.4h.2Z"/>
        <path class="st4" d="M294.4,448.5c0-.2,0-.5.2-.7.6-.7,2.3,0,2.6.1.5.2,1.2.5,1.1.8,0,.4-1.5.5-2.7.4-1.1-.1-1.2-.5-1.2-.6h0Z"/>
        <path class="st4" d="M294.4,448.5c-.1-.3,0-.6.2-.7.1,0,.2.2.5.5.2.1.4.2.5.2.3,0,.6.2,1.1.2h1.6c0,.2-.3.3-.5.3-1.1.2-2.1,0-2.1,0-.7-.1-1.1-.2-1.2-.6h0Z"/>
      </g>
      <g>
        <path d="M242.9,444.6c.3,0,.5,0,.8.1.4.1.5.3.8.4.4.1.9.2,1.6.3,1.5.1,2.4-.2,2.5,0,0,0-1.8.7-4,.6-1.2,0-2.9-.3-2.9-.7s.7-.6,1.2-.6h0Z"/>
        <path class="st4" d="M242.8,445c-.1-.3,0-.8.3-1,.9-1.1,3.4,0,3.9.1.7.3,1.7.7,1.7,1.1,0,.6-2.3.8-4,.6-1.6-.2-1.8-.7-1.8-.9h0Z"/>
        <path class="st4" d="M242.8,445c-.1-.4,0-1,.3-1s.3.4.7.7c.3.2.6.3.8.4.4.1.9.2,1.6.3h1.2c.5,0,.9,0,1.2-.1h0c-.1.3-.4.4-.8.5-1.6.4-3.2,0-3.2,0-1-.2-1.7-.4-1.8-.9h0Z"/>
      </g>
      <g>
        <path d="M263.3,464.3c.3,0,.5,0,.8.1.4.1.5.3.8.4.4.1,1,.2,1.6.3,1.5.1,2.4-.2,2.5,0,0,0-1.8.7-4,.6-1.2,0-2.9-.3-2.9-.7s.7-.6,1.2-.6h0Z"/>
        <path class="st4" d="M263.2,464.8c-.1-.3,0-.8.3-1,.9-1.1,3.4,0,3.9.1.7.3,1.7.7,1.7,1.1,0,.6-2.3.8-4,.6-1.6-.2-1.8-.7-1.8-.9h-.1Z"/>
        <path class="st4" d="M263.2,464.8c-.1-.4,0-1,.3-1s.3.4.7.7c.3.2.6.3.8.4.4.1,1,.2,1.6.3h1.2c.5,0,.9,0,1.2-.1h0c-.1.3-.5.4-.8.5-1.6.4-3.2,0-3.2,0-1-.2-1.7-.4-1.8-.9h0Z"/>
      </g>
      <g>
        <path d="M246.4,472.2c.3,0,.5,0,.8.1.4.1.5.3.8.4.4.1.9.2,1.6.3,1.5.1,2.4-.2,2.5,0,0,0-1.8.7-4,.6-1.2,0-2.9-.3-2.9-.7s.7-.6,1.2-.6h0Z"/>
        <path class="st4" d="M246.2,472.7c-.1-.3,0-.8.3-1,.9-1.1,3.4,0,3.9.1.7.3,1.7.7,1.7,1.1,0,.6-2.3.8-4,.6-1.6-.2-1.8-.7-1.8-.9h0Z"/>
        <path class="st4" d="M246.2,472.7c-.1-.4,0-1,.3-1s.3.4.7.7c.3.2.6.3.8.4.4.1.9.2,1.6.3h1.2c.5,0,.9,0,1.2-.1h0c-.1.3-.4.4-.8.5-1.6.4-3.2,0-3.2,0-1-.2-1.7-.4-1.8-.9h0Z"/>
      </g>
      <path d="M248.5,462.5c-1.9,0-2.4.1-4.2.1s-2.2-.2-3.9-.3c-2.8-.2-4.1.1-8.1.2-4.9.1-8.6-.2-8.6-.1,0,0,3.9.4,8.5.3,3.5,0,4.2-.3,7-.2,2.6.1,2.9.4,5.4.4s2.2-.1,4.5,0h2.5s-1.4-.2-3.1-.3h0Z"/>
      <path d="M268.4,447c-1.8,0-2.4.1-4.1.1s-2.1-.2-3.7-.3c-2.7-.2-4,.1-7.7.2-4.7.1-8.3-.2-8.3-.1,0,0,3.7.4,8.2.3,3.4,0,4-.3,6.8-.2,2.5.1,2.8.4,5.1.4s2.1-.1,4.4,0h2.4s-1.4-.2-3-.3h0Z"/>
      <path d="M150.7,455.5h-7.5c-3.1,0-3.9-.2-6.8-.4-4.9-.2-7.3,0-14.2,0s-15.2-.3-15.2-.3c0,0,6.8.5,15,.4,6.2,0,7.4-.2,12.4,0,4.5.1,5.1.4,9.5.4h8c2.7,0,4.4.1,4.4,0,.1,0-2.5-.3-5.6-.3h0v.2Z"/>
      <path d="M62.2,453.2c-1.7,0-2.2.1-3.8.1s-2-.2-3.4-.3c-2.5-.2-3.7.1-7.2.3-4.4.2-7.6-.2-7.7-.1,0,0,3.4.5,7.5.4,3.1,0,3.7-.4,6.2-.2,2.3.1,2.6.4,4.8.4s1.9-.1,4-.1h2.2s-1.2-.3-2.8-.3l.2-.2Z"/>
      <path d="M46.8,471.5c-1.2,0-1.6.1-2.7.1s-1.4-.2-2.5-.3c-1.8-.2-2.7.1-5.2.3-3.2.2-5.5-.1-5.5-.1,0,0,2.5.4,5.5.3,2.3,0,2.7-.3,4.5-.2,1.6,0,1.9.3,3.4.3s1.4-.1,2.9-.1h1.6s-.9-.2-2-.3h0Z"/>
      <path d="M206.8,481.7h-6.7c-2.8,0-3.5-.1-6.1-.2-4.4-.1-6.5,0-12.7,0s-13.6-.2-13.6-.2c0,0,6.1.3,13.4.3h11.1c4,0,4.6.2,8.5.3h11.2s-2.2-.1-5-.2h0Z"/>
      <path d="M21.2,473.9c-1.2,0-1.6.1-2.7.1s-1.4-.2-2.5-.3c-1.8-.2-2.6.1-5.2.3-3.2.2-5.5-.1-5.5-.1,0,0,2.5.4,5.4.3,2.3,0,2.7-.3,4.5-.2,1.6,0,1.9.3,3.4.3s1.4-.1,2.9-.1h1.6s-.9-.2-2-.3h.1Z"/>
      <path d="M279.1,452.1c2.2,0,2.9.2,5.1.3,2.1,0,2.6-.2,4.6-.4,3.3-.2,5,.3,9.7.5,5.9.3,10.3,0,10.3,0,0,0-4.6.5-10.2.3-4.2-.2-5-.6-8.4-.5-3.1,0-3.5.5-6.4.4-1.9,0-2.6-.2-5.5-.2h-3s1.7-.4,3.8-.4h0Z"/>
      <path d="M200.5,453.2c3.6.3,7.9,1,7.9,1.5s-5.1.8-8.4.7c-5,0-11.4-.7-11.4-1.4s6.1-1.3,12-.9h-.1Z"/>
      <path d="M29,447.9c3.6.2,8.4.7,8.4,1.3s-4.5,1-8.3,1-10.6-.9-10.6-1.5,5.7-1,10.5-.8h0Z"/>
      <path d="M205.6,467.9c5.2-1,7.6-.6,8.4-.5.2,0,4.2.9,4.2,1.7-.1,1.8-20.3,2.6-20.4,1.2-.1-.8,7.3-2.3,7.8-2.4h0Z"/>
      <path class="st1" d="M205.4,394.9c.9.9,1.6,0,2.9,1,2.3,1.9,1.1,6.1,3.8,8.5,1,.9,1.5.5,1.8,1.2,1.2,2.5-6.1,6.8-8.5,15-2,7.1-.1,16.6,4.2,19.8,3.3,2.5,8,1.2,8,1.8s-2.4.4-4.9,2.2c-1.6,1.2-2.5,2.7-3,3.6-1.5,2.5-1.8,5-1.8,6.5h-5.2c.1-.3.3-.8.3-1.4,0-1-.8-1.4-.6-1.9.2-.7,2,0,2.9-1,.6-.7.5-1.8.5-2.1-.1-1.3-.8-1.7-.7-2.2.3-1,2.7-.2,3.2-1.5.1-.2,0-.5,0-.6-.1-2.9-7.9-6.2-7.6-7.6,0-.3.5-.3.9-.5,2.6-1.8,1.1-13.8-1.3-21.4-.5-1.6-1.4-4.2-.5-6.4.5-1.3,1.4-1.8,1.3-3.1,0-1.5-1.4-2-1.3-3.3.1-1.2,1.4-1.4,1.5-2.6,0-1.3-1.5-1.8-1.6-3.3-.2-1.5,1.2-2.6,2.4-4.1,2.1-2.9,1.9-5.7,2.7-8.4,2.2-7.7,11.7-10.1,11.7-9.9,0,0-3,.9-6,4.3-5.1,5.7-7.1,15.1-4.9,17.5h-.2Z"/>
      <path class="st1" d="M262.3,422.1c-3.6-3.5-3.4-11.1-1.9-11.7.4-.2.8.3.9.1.5-.6-4-9.6-11.6-12-3.7-1.2-6.1-.2-7.6-2.3-1.2-1.8-.9-4.7.2-6.6,2.6-4.5,9.6-4.3,9.5-5.6,0-.9-3.6-.4-5.5-2.9-1.7-2.2-.4-5-1.6-5.7-1.8-1-5,5.3-8,4.5-2.7-.7-2.2-6.1-6.2-8-1.7-.8-2.4.1-3.8-.8-3.2-2-4.3-6.5-4.8-13-.9-12.8,1.8-22,1.5-22s-3.6,9.3-3.4,21.3c0,2.9.3,5,.5,7.2.8,8.1,1.3,12.1,3.7,15.7,2.2,3.2,5.4,5.3,5,5.8-.2.3-1-.3-2.6-.2-1.7.1-3.1,1.1-3.1,1.4s1.1-.1,2.1.1c2.4.6,3.6,4.4,4,5.8,3.5,11.5,5.3,17.1,7.4,18.7,2.4,1.9,7.7,3.3,10.8,3.4.2,0,1.1.2,2.1.6,2.2.8,3.6,4.4,2.8,5.5-.7.9-2.6-.7-5.3.2-1.7.5-2.6,1.7-3.6,2.9-4.1,4.5-6.1,3.8-8.2,6.4-4.8,6,0,16.9-2.1,17.6-.9.3-2.4-1.4-3.3-3-3.1-5.2-.6-9.7-1.2-19.1-.4-6.5-2.1-11.3-2.4-11.2-.2,0,1.8,5.5.9,12.8-.9,6.4-1.9,12.9-1.9,12.9,0,.3-.2,1,0,2,.1,1.5.7,2.5.8,2.8,1.1,3,.9,16.4,1.1,24.2,0,2,.2,5,.6,8.6,2.4,0,4.7,0,7.1.1-1.4-3.5-1.5-6.2-1.3-7.9.8-8.1,7.7-13.6,7.2-18.7-.2-2.5-.9-3.9-.7-7.8,0-1.6.3-9.1,3.2-10.1,2.3-.7,4,3.3,6.6,2.6,2.2-.6,1.6-3.8,4.6-7.2,3.6-4.1,8.8-4.2,8.7-6,0-.6-.5-.7-1.2-1.4h0ZM233,460.3c-1.8,3.3-1.9,6.3-2.2,6.3s-.6-2.2,0-4.5c.7-2.4,1.9-2.9,1.8-4.7,0-.8-.3-.7-.7-2.9-.3-1.2-.7-3.1-.3-3.3.4-.2,1,1.8,2.8,2.6,1.5.6,2.7-.1,3,.4.4.8-2.3,2.5-4.3,6.1h-.1Z"/>
      <path d="M88.4,460.9c6.1.3,12.4,1.8,12.3,2.6,0,.9-9.2.8-15.4.4-2.1-.1-10.3-.7-10.3-1.6s6.7-1.8,13.4-1.4Z"/>
      <path class="st1" d="M79.3,429.2c.5,3.9.8,5.8,2.2,7.5,1.3,1.5,3.2,2.5,3,2.8,0,.1-.6-.2-1.5-.1-1,0-1.9.5-1.8.7,0,.1.7,0,1.3,0,1.5.3,2.2,2.1,2.4,2.8,2.1,5.5,3.2,8.2,4.4,9,1.4.9,4.7,1.6,6.5,1.6s.7.1,1.3.3c1.3.4,2.2,2.1,1.7,2.6-.4.5-1.6-.3-3.2,0-1,.3-1.6.8-2.2,1.4-2.5,2.1-3.7,1.8-4.9,3.1-.7.7-1.1,1.5-1.2,2.4,3.3.1,6.7.2,10,.3.5-1,1.4-2.4,2.8-3.4,2.4-1.8,5.3-2.1,5.2-2.9,0-.3-.3-.4-.7-.7-2.2-1.7-2-5.3-1.1-5.6.3,0,.5.1.6,0,.3-.3-2.4-4.6-7-5.7-2.2-.6-3.7,0-4.6-1.1-.7-.9-.5-2.2.2-3.2,1.6-2.1,5.8-2.1,5.8-2.7s-2.2-.2-3.3-1.4c-1-1.1-.2-2.4-1-2.7-1.1-.5-3,2.5-4.8,2.2-1.6-.3-1.3-2.9-3.8-3.8-1-.4-1.5,0-2.3-.4-1.9-.9-2.6-3.1-2.9-6.2-.5-6.1,1.1-10.5.9-10.6s-2.2,4.5-2.1,10.2c0,1.4.2,2.4.3,3.4h0l-.2.2Z"/>
      <path class="st1" d="M41.1,424.6c-.3,2.8-.5,4.1-1.4,5.4-.8,1.1-2,1.8-1.9,2,0,0,.4-.1,1,0,.6,0,1.2.4,1.2.5h-.8c-.9.2-1.4,1.5-1.5,2-1.3,4-2,5.9-2.8,6.4-.9.6-2.9,1.1-4.1,1.2,0,0-.4,0-.8.2-.8.3-1.4,1.5-1,1.9.3.3,1-.2,2,0,.6.2,1,.6,1.4,1,1.6,1.5,2.3,1.3,3.1,2.2.4.5.7,1.1.8,1.7-2.1,0-4.2.2-6.2.2-.3-.7-.8-1.7-1.8-2.5-1.5-1.2-3.3-1.5-3.3-2.1s.2-.2.5-.5c1.4-1.2,1.3-3.8.7-4-.2,0-.3.1-.4,0-.2-.2,1.5-3.3,4.4-4.1,1.4-.4,2.3,0,2.9-.8.5-.6.3-1.6,0-2.3-1-1.5-3.6-1.5-3.6-1.9s1.4-.1,2.1-1c.6-.8.2-1.7.6-2,.7-.3,1.9,1.8,3,1.5,1-.2.8-2.1,2.4-2.7.7-.3.9,0,1.5-.3,1.2-.7,1.6-2.2,1.8-4.5.3-4.4-.7-7.5-.6-7.5s1.4,3.2,1.3,7.3c0,1,0,1.7-.2,2.5h0l-.3.2Z"/>
      <path class="st1" d="M50.5,471.6c1.2,2.3,1.4,5.6,0,7.2h7.8c3,0,6,0,9,.1-1.1-.2-2.1-.6-3.2-1.3-13.2-8.3-11.7-49.9,5.8-62.1,4.2-3,13.8-7.3,17.1-4,1.1,1.2,1.1,2.8,2.1,3,2.2.5,6.6-5.7,8.1-12.5,2.2-9.9-3.6-13.1-2.5-24.9.7-7.7,3.3-7.5,4.1-15.1,1.3-13.3-5.5-24.1-6-23.9-.4.2,4.3,8.8,3.1,21-.8,7.7-3.1,8-4.4,15.6-2.7,15.8,4.9,26.5,1.3,28.9-2.4,1.7-7.6-2.1-9.9-4.6-3.5-3.8-6-10.2-4.5-15.7,1-3.5,3.6-5.8,2.6-9-.5-1.5-1.3-1.8-1.5-3.3-.5-3.6,3.4-6.6,3-7.1-.5-.6-4.9,4.6-9.9,5.4-3.6.6-8-1.1-11.7-4-.8.5-1.6,1.1-2.4,1.7,7.3,6.5,14.2,16.2,13.2,27.1s-9.8,21.1-14.8,20c-3.5-.7-5.4-7.2-6.5-6.8-1.4.6,1.6,10.8-1.6,12.8-.7.5-1.5.4-1.7,1-.4,1.3,2.7,2.3,3,4.9.2,2-1.3,3.8-1.4,3.9-1.1,1.2-2,1-2.2,1.8-.5,1.7,3.7,3,4.1,6.4.2,1.8-.7,4.2-2.3,5.2s-1.4.4-1.6.9c-.4,1.1,2.4,2.1,3.2,4.9,0,.1.6,2.3-.4,4.2-1,1.9-2.8,2-2.9,3.1,0,1.4,2.4,1.7,2.7,3.7.2,1.3-.7,2.6-1.1,3.2-1.1,1.6-2.2,1.5-2.3,2.4-.3,1.6,3,2.4,4.7,5.6h0l-.2.3Z"/>
      <path d="M262.2,457.9c2.9,0,6.6.5,6.6,1.1s-3.6,1.2-7,1c-2.3-.2-4.9-.8-4.9-1.3s3.1-.8,5.3-.7h0Z"/>
      <path class="st1" d="M261.9,456.2c.4.8.5,2,0,2.6h5.6c-.1,0-.2-.2-.4-.3-.1-.1-.3-.1-.3-.2-4.7-3-4.2-17.8,2-22.2,1.5-1.1,4.9-2.6,6.1-1.4s.4,1,.8,1.1c.8.2,2.4-2,2.9-4.4.8-3.5-1.3-4.7-.9-8.9.3-2.7,1.2-2.7,1.5-5.4.5-4.7-2-8.6-2.1-8.5-.2,0,1.5,3.1,1.1,7.5-.3,2.8-1.1,2.9-1.6,5.6-1,5.6,1.8,9.5.5,10.3-.9.6-2.7-.8-3.5-1.7-1.2-1.3-2.1-3.7-1.6-5.6.4-1.3,1.3-2.1.9-3.2-.2-.5-.5-.6-.5-1.2-.2-1.3,1.2-2.4,1.1-2.5-.2-.2-1.8,1.6-3.5,1.9-1.3.2-2.8-.4-4.2-1.4-.3.2-.6.4-.9.6,2.6,2.3,5.1,5.8,4.7,9.7-.4,3.9-3.5,7.5-5.3,7.1-1.3-.3-1.9-2.6-2.3-2.4-.5.2.6,3.9-.6,4.6-.3.2-.5.1-.6.4-.1.5,1,.8,1.1,1.8,0,.7-.5,1.3-.5,1.4-.4.4-.7.4-.8.6-.2.6,1.3,1.1,1.5,2.3,0,.6-.2,1.5-.8,1.9-.3.2-.5.1-.6.3-.1.4.9.8,1.1,1.8,0,0,.2.8-.1,1.5-.4.7-1,.7-1,1.1s.9.6,1,1.3c0,.5-.2.9-.4,1.1-.4.6-.8.5-.8.9-.1.6,1.1.8,1.7,2h-.3Z"/>
      <g>
        <path class="st1" d="M203.5,469.6c1.4-1.1,2.8-2.2,4.2-3.2-.1-.8-.2-1.6-.3-2.3.5-.5,1-1.1,1.5-1.6v-3.6c.7,0,1.4-.2,2.1-.2.3.4.7.8,1,1.2,1.4,0,2.7-.1,4.1-.1.8,3.2,1.6,6.4,2.3,9.6-5,.2-10,.4-15,.5h0v-.3Z"/>
        <path class="st3" d="M216.1,459.6c-.1,1.2-.4,2.7-1.4,3.2-.6.3-1,0-1.7.2-1.6.5-1.7,2.8-2.7,4.2-.8,1.2-2.6,2.5-6.9,2.5"/>
      </g>
      <path class="st2" d="M173.3,357.3h6.1c.5,1.5,1.1,3,1.6,4.6,1.4.5,2.9,1,4.4,1.5,1.2,1.3,2.4,2.5,3.6,3.8,2.5,1,5,1.9,7.6,2.9-2.8,32-5.6,64-8.5,96-4,.2-8.1.5-12.1.7-1.6-.6-3.3-1.1-4.9-1.7,1.6-28.6,3.3-57.2,4.9-85.8h-29.4c.3,29.8.6,59.7.9,89.5-6.7.3-13.5.6-20.2.9-2.2-1.4-4.3-2.7-6.5-4.1-1.2-34.4-2.4-68.8-3.6-103.2,3.8-3.2,7.5-6.4,11.3-9.5,9.6-2.1,19.3-4.3,28.9-6.4,5.7,1,11.4,1.9,17,2.9-.4,2.7-.7,5.3-1.1,8h0Z"/>
      <path class="st8" d="M210.4,460.8c.9.7,1.8,1.5,2.7,2.2"/>
      <path class="st6" d="M213.1,463c-1.4-.2-2.8-.4-4.1-.6"/>
      <path class="st3" d="M127.2,469.7c.4-34.4.8-68.8,1.2-103.2"/>
      <path class="st3" d="M175.9,466.8c1.7-26,3.3-51.9,5-77.9"/>
      <rect class="st5" y="69.5" width="315.6" height="422.1"/>
      <path class="st1" d="M173.7,349.9c-1.3.5-2.6,1.1-4,1.6-2.3.5-4.6,1-6.8,1.4"/>
      <path class="st1" d="M171.4,350.8c-.7,1.8-1.3,3.6-2,5.4"/>
      <path class="st0" d="M325,393.9c4.5-8.9,9.1-17.8,13.6-26.8"/>
      <path class="st2" d="M391.3,176.1c-2.8,16.9,3.9,27.2,11.2,41.2v117.1c-2.1,3.9-4.3,7.5-6.7,10.9-15.5,21.7-39,33.1-42.2,28.5-3-4.3,9.7-24.7,17.5-35.4,9.2-12.5,11.5-11.3,16.9-20.1,8.7-14.1,13.2-34.1,10.8-52-2.8-21.1-12.7-20.3-20.1-43.7-8.1-25.9-6.8-61.1,9-78.7,4.5-5,10.1-8.5,14.8-10.2v16.6c-4.6,6.6-9.5,15.2-11.2,25.9h0Z"/>
      <path class="st2" d="M360.1,315.1c2.6-39.2-3.7-53-5.5-56.6-7.2-14.5-13.3-11.3-24.2-26.8-14.2-20.2-23.1-52.9-13.5-74.7,5.8-13.1,17.1-20.4,17.8-19.5.6.8-6.3,7.4-9.9,18.3-5.9,18,.8,37.1,2.2,41.3,10.1,28.6,28.7,23.1,44.5,49.3,16.7,27.7,14.8,65.5,8.1,90-7.2,26.4-24,46.5-28.1,43.9-3.7-2.3,5.8-23.8,8.6-65.2h0Z"/>
      <path class="st2" d="M337.1,361c4.2-14.4,6.9-14.7,8.9-24.4,3.1-15.4,0-33.1-8.9-45.5-10.5-14.7-19.8-8.8-35.5-22.7-15.9-14.1-27.3-43.3-20.5-64.9,5.4-17.2,21.1-25.7,22.7-23.8,1.9,2.4-17.4,18.6-16,40.5,1.1,17.7,15.1,30.2,19.9,34.4,18.2,16.1,28.3,6.8,41.5,19.2,17.6,16.5,21.4,53.3,14.3,79.1-6.9,24.9-25.2,46-30.1,44.2-4.5-1.7.1-24,3.8-36.4h0v.3Z"/>
      <path class="st3" d="M379.5,325.2c.4-.2,8.5-4.3,16,.4,5.4,3.4,6.7,9,6.9,10.1"/>
      <path class="st3" d="M343.6,351.7c.4-.2,8.4-4.6,16-.2,5.5,3.2,7,8.7,7.3,9.8"/>
      <path class="st3" d="M339,360.5c.4-.2,8.4-4.6,16-.2,5.5,3.2,7,8.7,7.3,9.8"/>
      <path class="st3" d="M347,340c4-3.7,9.8-4.9,15-3,5.3,1.9,9,6.7,9.5,12.3"/>
      <path class="st3" d="M345.4,308.2c1-1.2,2.9-3.2,6-4.4,5.8-2.3,11.1,0,12.2.4"/>
      <path class="st3" d="M359,273.8c1.1-.8,4.2-2.7,8.4-2.5,3.8.2,6.5,2,7.6,2.8"/>
      <path class="st3" d="M359.1,289.5c1.1-.8,4.2-2.7,8.4-2.5,3.8.2,6.5,2,7.6,2.8"/>
      <path class="st3" d="M353.4,256.3c.5-.6,4.4-4.7,10.3-4,5.6.7,8.6,5.4,9,6.1"/>
      <path class="st3" d="M344.8,246.2c.6-.8,4.4-6.3,11.2-6.8,6.8-.6,11.2,4.2,11.9,4.9"/>
      <path class="st3" d="M333.8,236.2c.3-1.1,2.3-7.6,8-10.2,5.8-2.6,13.1-.1,17.5,6.5"/>
      <path class="st3" d="M326.9,226.4c1.4-4.5,4.6-7.7,8.5-8.5,4.2-.8,7.4,1.6,8,2.2"/>
      <path class="st3" d="M319,209.7c0-.3,1.5-5.4,5.8-6.7,2.2-.6,4.2.1,4.9.5"/>
      <path class="st3" d="M314.3,193.1c.7-3.4,2.9-6,5.6-6.6,2-.4,3.6.4,4.3.7"/>
      <path class="st3" d="M313.3,170.3c.5-.4,2.3-1.6,4.7-1.3,2.4.3,3.9,1.9,4.3,2.3"/>
      <path class="st3" d="M319.8,151.9c.1,0,2.5-1.5,4.4-.1.8.5,1.2,1.2,1.4,1.7"/>
      <path class="st3" d="M344.3,382.3c.3-.3,7-6.5,15.4-4.2,6.1,1.7,9,6.6,9.5,7.6"/>
      <path class="st3" d="M342.1,392c.3-.3,7-6.5,15.4-4.2,6.1,1.7,9,6.6,9.5,7.6"/>
      <path class="st3" d="M345.8,369.5c.3-.3,7-6.5,15.4-4.2,6.1,1.7,9,6.6,9.5,7.6"/>
      <path class="st3" d="M344.5,328.5c1-1,4.1-3.9,9.2-4.5,5.6-.7,9.8,1.8,10.8,2.5"/>
      <path class="st3" d="M337.1,291.1c.3-.6,3.7-7.5,10.9-8.2,6.1-.6,10.2,3.7,10.8,4.4"/>
      <path class="st3" d="M326.9,281.9c.2-.7,3.3-8.6,11-10.4,6.8-1.6,11.8,2.9,12.5,3.5"/>
      <path class="st3" d="M313.5,275.6c.2-.9,1.2-5.8,5.4-8.8,4.8-3.4,9.8-1.5,10.5-1.2"/>
      <path class="st3" d="M304.5,270.8c-1.2-4.1.1-8.5,3-10.6,3.2-2.3,6.9-.5,7.2-.3"/>
      <path class="st3" d="M292.1,257.4c.2-3.8,2.3-6.9,5.2-7.9,3-1,5.5.7,5.9,1"/>
      <path class="st3" d="M284,242.1c0-.2.7-4.4,4-5.8,2.1-.9,3.9-.2,4.4,0"/>
      <path class="st3" d="M279.2,215.1c.6-.4,2.3-1.6,4.7-1.5,2,0,3.4,1,4,1.4"/>
      <path class="st3" d="M283.8,196.9c.7-.2,2.2-.4,4,.3,2,.8,3.2,2.2,3.6,2.9"/>
      <path class="st3" d="M293.2,185c.3-.1,2.2-1,4.1.2,1.2.8,1.8,2,2,2.5"/>
      <path class="st3" d="M384.5,344.5c1,.2,2.7.7,4.5,2,1.6,1.2,2.5,2.6,3,3.4"/>
      <path class="st3" d="M382.6,364.9c.6.1,1.3.4,2,.8,2.5,1.5,3.5,4,3.8,4.9"/>
      <path class="st3" d="M402.4,313.5c1.1.7,2.4,1.6,3.7,2.7,3,2.6,4.8,5.5,5.9,7.6"/>
      <path class="st3" d="M402.6,270.3c1.3.3,2.8.8,4.4,1.5,3.7,1.7,6.3,4.2,8,6"/>
      <path class="st3" d="M398,254c1.3,0,2.9.3,4.5.7,3.9,1,6.8,2.9,8.8,4.5"/>
      <path class="st3" d="M395.4,302c1.1.7,2.4,1.6,3.7,2.7,3,2.6,4.8,5.5,5.9,7.6"/>
      <path class="st3" d="M384,231.8c2.3-1.7,6.6-4.6,12.5-5.5,4.6-.8,8.4-.1,10.8.5"/>
      <path class="st3" d="M376.3,213.4c1.7-1.5,7.8-6.4,15.8-5.3,2.8.4,5.1,1.4,6.8,2.4"/>
      <path class="st3" d="M373.4,194.4c.2-.3,4.7-6,11.2-4.7,4.8,1,7.3,5.2,7.8,6"/>
      <path class="st3" d="M374.8,175.2c3.6-3.8,8.3-5.1,12.1-3.2s3.6,3,4.3,4.2"/>
      <path class="st3" d="M382.3,151.7c4-2.2,8.5-2,11.7.7,2.3,2,3.2,4.8,3.5,6"/>
      <path class="st3" d="M393.2,138.4c3.8-3.1,8.8-2.7,11.6.5,3.1,3.5,2.2,8.8,2.1,9.1"/>
      <path class="st2" d="M358.6,341.1c12-30.3,13.7-33.1,15.2-41.6.9-5.3,4.2-26.1-2.9-47.7-6.9-20.8-15.5-18.3-23.7-37.8-10.1-23.9-10-57.9,3.9-76.8,9.3-12.6,23.1-16.2,23.7-15,.6,1.3-14,6.6-19.8,21.8-7.8,20.7,5.5,47.9,12.5,62.2,13,26.6,19.1,22.8,26.5,40.8,12.6,30.7,4.7,70.4-8.9,96.4-13.3,25.4-36,41.6-40,37.4-1.2-1.2-.5-4.6,13.5-39.8h0Z"/>
      <path class="st3" d="M360.7,335.5c.4-.2,8.5-4.3,16,.4,5.4,3.4,6.7,9,6.9,10.1"/>
      <path class="st3" d="M359.8,356.4c.5-.3,8-3.6,14.9.6,5.2,3.2,6.5,8.5,6.8,9.6"/>
      <path class="st3" d="M366.2,323c.4-.2,8.3-4.5,15.9-.1,5.7,3.3,7.2,9.2,7.4,10.2"/>
      <path class="st3" d="M372.1,308.5c.5-.3,7.5-5.1,15.2-1.9,5.9,2.4,8.1,7.7,8.5,8.8"/>
      <path class="st3" d="M374.8,291.1c.4-.5,6.6-6.7,14.6-4.4,6.5,1.9,9.5,8,9.9,9"/>
      <path class="st3" d="M375.1,276.2c3.3-5.5,8.8-8.5,14.4-8,6.1.6,9.7,5.4,10.5,6.4"/>
      <path class="st3" d="M372.7,258.4c3.4-5.3,9-8.2,14.5-7.4,6,.9,9.5,5.8,10.2,6.8"/>
      <path class="st3" d="M367.1,242.8c3.5-5.9,9.3-9.1,14.8-8.2,4.3.7,7.1,3.6,8.2,4.9"/>
      <path class="st3" d="M357.5,230.4c3.4-5.6,8.9-8.7,14.4-8,4.8.6,7.9,4,8.9,5.2"/>
      <path class="st3" d="M350.9,221.5c3.4-6,9-9.4,14.5-8.6,4.2.6,7,3.4,8.1,4.7"/>
      <path class="st3" d="M343.6,204c.6-.8,5.6-6.9,13.1-6.3,4.1.4,7,2.6,8.3,3.8"/>
      <path class="st3" d="M340.4,186.4c1.1-1,5.2-4.5,10.9-4,3.1.3,5.4,1.6,6.7,2.4"/>
      <path class="st3" d="M340.5,167.2c1.3-.8,4.2-2.4,8.1-2.1,1.9.1,3.5.7,4.5,1.3"/>
      <path class="st3" d="M347.4,143c.1-.1,2.2-1.6,4.4-.4,1.8.9,2.4,2.9,2.5,3.2"/>
      <path class="st3" d="M355.3,132.1c1.2-.5,2.5-.3,3.4.6,1,1,1,2.4,1,2.6"/>
      <path class="st3" d="M364.4,125.5c1-.5,2.1-.3,2.8.4.5.6.6,1.3.6,1.6"/>
      <g>
        <path class="st9" d="M322.2,491.5l.6-139.4c5.6-15.9,11.6-24.3,17.9-24.9h.7c4.8,0,8.5,4.8,13.2,10.8,3.1,4,6.7,8.6,11.4,13,10,9.3,22.3,14.5,36.5,15.5v124.9h-80.3Z"/>
        <path d="M341.4,327.3c4.7,0,8.4,4.8,13.1,10.8,3.1,4.1,6.7,8.6,11.4,13,10,9.3,22.3,14.5,36.4,15.5v124.7h-79.9l.3-69.4.3-69.9c5.5-15.9,11.5-24.3,17.8-24.8h.7M341.4,327h-.7c-7.9.7-13.9,13.1-18,25-.2,46.5-.4,93-.6,139.5h80.4v-125.2c-17.2-1.2-28.7-8.3-36.5-15.5-11.9-11-16.6-23.9-24.6-23.9h0Z"/>
      </g>
      <path class="st5" d="M322.6,395.3c3-1.5,7.9-3.5,13.8-3,15.5,1.4,21.5,18.5,36.5,25.3,6.1,2.8,15.8,4.7,29.6-1.5"/>
      <path class="st5" d="M322.6,428.5c3.1-1.5,8-3.3,13.8-3,14.9.9,21.4,14.9,35.6,22,6.5,3.2,16.5,5.9,30.5,1.9"/>
      <path class="st5" d="M322.2,463.9c4.5-1.9,11.5-3.8,19.4-2.2,13.7,2.8,18.5,13.8,31.8,19.1,6.1,2.4,15.3,4.2,28,0"/>
      <path class="st5" d="M322.6,368.3c4-4.5,10.3-9.8,17.7-9.1,13.6,1.3,18.5,22,34.3,31.2,6,3.5,15,6.2,27.9,1.6"/>
    </g>
  </g>
</svg>