<?xml version="1.0" encoding="UTF-8"?>
<svg id="Layer_2" data-name="Layer 2" xmlns="http://www.w3.org/2000/svg" viewBox="0 0 407.07 158.08">
  <defs>
    <style>
      .cls-1 {
        fill: #fff;
      }

      .cls-2 {
        fill: none;
        stroke: #f6f5f5;
        stroke-miterlimit: 10;
        stroke-width: .5px;
      }
    </style>
  </defs>
  <g id="Capa_1" data-name="Capa 1">
    <g>
      <rect x="1.28" y="1.92" width="403.56" height="151.73"/>
      <path class="cls-2" d="M406.82,80.52v33.38c-4.77.84-8.7,1.51-11.46,1.96-1.74.28-5.64.92-10.51.39-7.66-.82-8.41-3.46-15.35-5.13-7.99-1.93-21.66-1.99-29.67,2.29-1.21.64-3.96,2.27-7.2,1.88-2.76-.34-4.53-1.94-5.26-2.57-6.1-5.35-12.61-4.04-31.13-12.89-7.22-3.45-6.61-3.82-8.61-4.04-8.07-.92-20.38,4.93-26.32,7.46-.71.3-2.56,1.15-4.33.73-2.22-.53-3.1-2.66-3.37-3.31-.59-1.26-1.74-2.81-3.34-4.53-5.65-6.06-16.86-14.14-28.28-18.31-6.39-2.33-8.71-1.28-12.16-3.86-2.68-2.01-3.95-4.42-4.78-7.71-.51-2.05-.86-4.44-1.26-7.28-1.26-8.81-1.18-13.27,2.41-16.65,2.5-2.36,3.9-1.52,6.41-4.15.82-.85,1.45-1.76,1.95-2.7,1.31-2.47,1.63-5.16,1.71-7.63.03-.86.02-1.69.02-2.47,0-1.94-.22-2.26-.4-7.1-.13-3.55-.2-5.32-.1-5.58,2.41-6.09,19.4-2.59,28.24-10.06.93-.79,1.62-1.59,2.14-2.39,39.65,0,79.31,0,118.96,0-8.65,3.05-19.7,8.31-22.27,17.65-3.27,11.88,9.39,22.23,11.24,23.69,3.75,1.4,8.45-1.34,15.81,1.78,18.46,7.83,15.41,22.85,33.51,35.07,1.11.75,2.24,1.44,3.41,2.08Z"/>
      <path class="cls-2" d="M206.49,112.81c-2.57,2.28-4.01,1.48-6.59,4.02-3.32,3.27-3.74,7.37-3.78,10.88,0,.52,0,1.03,0,1.52,0,1.88.23,2.19.41,6.88.13,3.43.21,5.15.1,5.41-.16.38-.38.72-.65,1.02-3.14,3.5-19.97,1.23-28.37,8.71-.62.55-1.72,1.62-2.79,3.37-94.8,4.9-123.87,3.61-124.23.11-.32-3.13,22.41-5.74,25.43-18.25,1.85-7.65-4.41-16.04-11.55-22.94-3.85-1.35-8.69,1.29-16.25-1.72-18.98-7.58-15.84-22.13-34.45-33.96-1.14-.72-2.3-1.39-3.51-2.02v-32.32c4.91-.82,8.94-1.47,11.78-1.9,1.79-.27,5.8-.89,10.8-.38,7.88.79,8.65,3.35,15.78,4.97,8.22,1.87,22.26,1.92,30.5-2.22,1.24-.62,4.07-2.2,7.4-1.82,2.84.32,4.66,1.87,5.4,2.49,6.28,5.18,12.97,3.91,32,12.48,7.43,3.34,6.8,3.7,8.85,3.92,8.3.89,20.96-4.77,27.06-7.22.73-.29,2.63-1.12,4.45-.71,2.28.51,3.18,2.58,3.47,3.21.33.67.84,1.43,1.51,2.26,4.81,5.95,17.77,15.31,31,19.86,6.57,2.26,8.96,1.24,12.5,3.73,4.48,3.16,5.12,7.35,6.21,14.52.39,2.57.66,4.76.74,6.66h0c.18,4.38-.64,7.18-3.22,9.46Z"/>
      <path class="cls-1" d="M352.32,142.73c-19.8-1.18-22.18-5.53-49.75-11.76-24.55-5.54-44.53-7.03-54.54-15.75-.42-.37-7.04-6.23-4.9-8.76,1.24-1.47,4.96-1.44,4.96-2.38,0-.55-1.26-.63-2.74-1.76-1.11-.85-2.69-2.55-2.06-3.77.23-.44.81-.96,3.64-1.57,5.06-1.09,6.17-.08,8.34-.9,4.12-1.56,2.7-5.64,6.42-6.76,2.03-.61,5.08.47,11.25,2.76,4.53,1.68,4.09,1.93,6.45,2.52,5.58,1.4,10.66.79,12.44.43,2.06-.42,4.17-.79,6.06-1.48,11.86-4.35,29.5-4.05,31.87-4.06,12.9-.02,20.64,2.36,20.78,1.93.2-.62-15.86-5.1-31.34-5.4-3.58-.07-10.71.08-17.41,1-1.57.22-3.14.43-4.67.74-3.39.62-6.67.8-9.84.58-6.97-.48-12.69-2.96-15.13-4.3-2.44-1.34-5.23-3.31-10.02-4.85-1.32-.43-2.84-.83-4.23-.38-1.92.64-1.49,2.54-3.14,3.77-2.22,1.65-6.47.96-8.26.67-12.12-1.97-25.87-15.22-21.71-21.13,1.47-2.09,4.74-2.62,4.47-3.1-.47-.83-10.4-.23-17.72,4.36-3.22,2.02-3.97,3.59-6.29,3.6-3.59.02-3.11-4.5-9.36-6.16-3.54-.94-8.04-2.24-13.55-3.4-1.17-.25-3.63-.75-4.09-2.01-.28-.77.35-1.4.88-2.28,1.1-1.83,1.46-4.25.74-5.93-.91-2.14-4.02-4.16-7.03-6.1-.43-.28-1.49-.95-1.27-1.41.15-.33.88-.45,1.94-.51,4.13-.22,5.93.93,7.12.22,1.03-.61.32-1.88.73-2.77,1.17-2.56,12.48-3.79,32.17-.22,20.54,3.73,35.15,9.94,38.9,11.56,30.03,12.98,47.94,27.09,48.23,26.84.32-.26-17.34-18.05-48.92-32.45-19.89-9.07-43.54-12.47-44.25-21.91-.29-3.84,3.11-8.75,1.34-9.46-1.1-.44-2.61,1.41-6.46,3.09-6.71,2.93-10.61,1.04-15.34,3.32-5.01,2.41-2.47,5.42-7.02,9.25-3.61,3.03-8.95,4.29-16.55,4.87-.45-1.05-1.24-2.51-2.64-4.03-3.7-4.02-9.61-6.24-10.25-5.73-.32.26,1.06,1.27,2.13,2.92,1.47,2.26,1.91,5.04,1.6,7.25-6.1,1.42-15.45,2.98-26.55,2.14-16.33-1.24-19.05-6.35-40.01-9.46-14.59-2.16-26.41-1.63-32.35-1.34-10.72.53-19.73,1.97-19.67,2.4.08.57,18.23-2.01,40.88,1.36,7.66,1.14,13.35,2.52,17.99,3.98,8.97,2.82,12.29,5.48,21.12,8.02,6.66,1.91,12.43,2.64,15.98,2.96,0,0,15.17.87,23.86,7.51,3.63,2.77,6.51,6.85,4.9,8.76-1.24,1.47-4.96,1.44-4.96,2.38,0,.55,1.26.63,2.74,1.76.18.13,2.54,2.01,2.06,3.77-.6,2.19-5.46,3.6-9.09,3.09-1.76-.25-1.89-.76-2.9-.61-3.24.46-2.72,5.81-6.42,6.76-1.01.26-1.95.14-4.8-.68-7.76-2.23-8.57-3.13-12.9-4.6-4-1.36-8.25-1.3-12.44-.43-2.06.42-4.17.79-6.06,1.48-10.14,3.6-20.92,4.29-31.87,4.06-5.77-.12-9.63-.25-11.91-.5-5.61-.61-8.83-1.5-8.86-1.43-.06.16,15.85,5.1,31.34,5.4,3.58.07,10.71-.08,17.41-1,1.57-.22,3.14-.43,4.67-.74,3.39-.62,6.67-.8,9.84-.58,6.97.48,12.69,2.96,15.12,4.3,2.44,1.34,5.23,3.31,10.02,4.85,1.32.43,2.84.83,4.23.37,1.92-.64,1.49-2.54,3.14-3.77,2.22-1.65,6.47-.96,8.26-.67,12.12,1.97,25.87,15.22,21.71,21.13-1.48,2.09-4.74,2.62-4.47,3.1.47.83,10.4.23,17.72-4.36,3.22-2.02,3.97-3.59,6.29-3.6,3.59-.02,3.11,4.5,9.36,6.16,3.54.94,8.04,2.24,13.55,3.4,1.17.25,3.63.75,4.09,2.01.28.77-.35,1.4-.88,2.28-1.1,1.83-1.46,4.25-.74,5.93.91,2.14,4.02,4.16,7.03,6.1.43.28,1.49.95,1.27,1.41-.15.33-.88.45-1.94.51-4.13.22-5.93-.93-7.12-.22-1.03.61-.32,1.88-.73,2.77-.97,2.11-9.21,3.99-32.17.22-14.03-2.3-25.83-4.28-40.42-10.1,0,0-17.22-6.87-45.45-27.32,0,0-1.22-1-1.26-.97-.11.09,17.28,18.02,48.92,32.45,19.89,9.07,43.54,12.47,44.25,21.91.29,3.84-3.11,8.75-1.34,9.46,1.1.44,2.61-1.41,6.47-3.09,6.71-2.93,10.61-1.04,15.34-3.32,5.01-2.41,2.47-5.43,7.02-9.25,3.61-3.03,8.95-4.29,16.55-4.87.15.41.37.95.71,1.56,3.2,5.78,11.47,8.81,12.18,8.2.3-.26-.89-1-2.13-2.92-1.47-2.26-1.91-5.04-1.6-7.25,2.76.01,5.65-.04,8.67-.17,5.89-.25,11.33-.76,16.25-1.41,6.28,1.18,16.25,3.11,28.45,5.75,26.8,5.81,34.09,8.51,48.33,8.81,17.22.35,31.13-3.09,31.04-3.65-.1-.56-13.17,1.59-29.68.6Z"/>
    </g>
  </g>
</svg>