<?xml version="1.0" encoding="UTF-8"?>
<svg id="Layer_2" data-name="Layer 2" xmlns="http://www.w3.org/2000/svg" viewBox="0 0 403.13 214.63">
  <defs>
    <style>
      .cls-1, .cls-2 {
        fill: #fff;
      }

      .cls-2, .cls-3 {
        stroke: #000;
        stroke-miterlimit: 10;
        stroke-width: .5px;
      }

      .cls-3 {
        fill: none;
      }
    </style>
  </defs>
  <g id="Capa_1" data-name="Capa 1">
    <path d="M402.88,25.29c0,16.56,0,33.13,0,49.69,0,46.46,0,92.91,0,139.37H79.42c-26.39,0-52.78,0-79.17,0,0-63.02,0-126.04,0-189.06h402.63Z"/>
    <path class="cls-1" d="M402.82,88.09c.02,42.09.04,84.17.06,126.26-104.74,0-209.47,0-314.21.01,4.55-5.18,12.19-12.5,23.71-17.68,15.49-6.97,27.51-5.37,41.18-7.44,18.46-2.79,30.27-10.88,53.12-26.94,63.48-44.61,72.09-80.16,101.65-78.84,16.28.73,18.67,11.73,42.65,14.38,21.31,2.35,39.78-4.1,51.84-9.75Z"/>
    <rect class="cls-3" x=".25" y="25.29" width="402.63" height="189.06" transform="translate(403.13 239.64) rotate(-180)"/>
    <g>
      <path class="cls-2" d="M282.96,185.29c-.31.9-.58,1.86-.79,2.88-1.18,2.71-3.24,5.53-3.54,9.05-.44,5.2,3.67,9.88,6.71,13.22,1.62,1.78,3.14,3.08,4.18,3.91-23.83-.05-47.66-.1-71.49-.16-7.76-8.06-23.19-16.29-35.8-27.54-29.6-26.42-42.13-53.81-41.99-53.9.13-.08,14.16,24.45,42.89,47.76.9.73,15.77,12.63,38.7,22.91,21.74,9.74,33.14,10.15,35.16,7.29.76-1.08.43-2.9,1.77-3.45,1.54-.64,3.1,1.28,7.68,1.97,1.18.17,2.01.19,2.29-.2.4-.56-.52-1.68-.89-2.15-1.34-1.68-5.17-6.41-5.53-9.62-.5-4.5,5.75-6.53,4.64-10.35-.31-1.07-.83-2.12-3.76-3.58-5.6-2.81-10.05-5.57-13.58-7.63-6.23-3.64-4.13-9.44-8.05-10.26-2.54-.53-3.9,1.34-8.12,3.22-9.59,4.28-20.63,2.72-20.85,1.53-.13-.7,3.62-.62,5.95-3,6.62-6.73-3.75-27.28-16.27-32.7-1.85-.8-6.24-2.7-9.24-1.07-2.24,1.22-2.43,3.8-4.75,4.18-1.86.3-3.64-.87-4.48-1.48-6.13-4.48-14.84-14.04-17.39-16.42-8.81-8.19-18.8-.22-42.46-5.94-18.83-4.55-32.27-14.37-32.29-14.43.06-.09,3.26,1.84,9.16,3.96,2.4.86,6.57,1.94,12.82,3.46,11.86,2.87,23.86,4.52,36.18,2.2,2.3-.46,4.73-.45,7.13-.51,2.32-.06,7.17.55,13.42,3.48,11.21,5.26,13.06,11.98,17.45,11.07,3.97-.83,4.25-6.69,9.36-7.32,1.5-.18,1.46.33,5.21.6,4.21.31,7.56.56,8.73-1.01,1.11-1.5-.09-4.16-.93-5.41-1.22-1.82-2.56-2.22-2.36-2.94.33-1.23,4.38-.32,6.24-1.94,2.48-2.16.31-8.39-2.28-12.59-7.26-11.76-18.75-9.13-37.94-21.91-9.59-6.38-10.05-8.67-22.06-16.58-4.55-3-10.28-6.14-18.22-9.43-23.52-9.73-44.22-10.64-44.1-11.4.08-.52,9.62-.62,22.29,1.49,8.8,1.47,28.01,4.72,48.11,16.58,11.4,6.73,10.98,9.07,22.78,14.94,6.91,3.44,24.81,12.35,31.52,6.78,3.19-2.65,4.26-8.93,3.22-13.56-.6-2.67-1.73-4.08-1.31-4.32.95-.55,8.43,5.31,10.41,13.59.85,3.56-.27,3.55.37,7.85,1.44,9.59,7.58,13.33,5.52,16.37-1.73,2.56-6.56.73-9.46,3.82-1.51,1.61-2.04,4.2-.91,8.59,3.56,13.8,16.59,18.43,22.98,32.89,4.3,9.75,1.72,15.23,4.29,21.3.93,2.19,1.91,3.48,3.45,5.14,6.89,7.48,16.31,6.54,26.7,14.73,1.87,1.47,2.55,2.3,3.02,3.31.44.95.58,1.86.51,2.76Z"/>
      <path class="cls-2" d="M365.07,194.3c-.11,1.06-2.86.98-6.67,2.66-6.63,2.93-6.69,6.9-11.59,8.84-1.03.41-1.93.59-2.76.62-5.15.2-8.31-1.11-10.69-1.45-2.89-.42-7.33.93-13.91,9.4-4.61,0-9.22.02-13.83.03.06-.35.12-.81.13-1.35,0,0,0-.38-.02-.77-.14-3.3-.35-8.42-4.29-11.71-4.12-3.43-10.11-3.01-11.8-7.15-.36-.87-.46-1.74-.24-3.63.11-.92.26-1.8.44-2.63.43-1,.75-1.99.83-2.99,2.26-6.74,6.32-10.81,5.91-17.4-.11-1.83-.33-3.14-1.15-4.99-2.29-5.11-7.41-7.17-10.98-15.47-5.3-12.31-.15-21.95-6.78-32.38-2.11-3.32-4.1-4.65-6.07-4.87-3.78-.41-5.61,3.22-8.33,2.53-3.23-.82-1.8-6.33-7.05-13.04-2.35-3.01-3.05-2.42-4.8-5.08-4.07-6.17-3.17-13.71-2.23-13.85.42-.07.62,1.4,1.96,3.37,2.32,3.42,7.01,6.77,10.69,6.76,7.74-.02,13.17-14.86,15.27-20.58,3.58-9.77,1.81-11.01,4.6-21.11,4.9-17.81,14.77-29.8,19.3-35.28,6.52-7.89,12.53-12.78,12.91-12.5.56.42-11.74,11.73-20.13,29.98-2.84,6.17-4.38,11.1-5.29,15.33-2.39,11.15-1.22,12.81-3.09,21.76-3.75,17.91-12.58,22.24-9.56,33.32,1.08,3.96,3.72,8.96,6.65,9.01,2.2.04,4.13-2.62,5.13-2.03.58.34,0,1.29.41,3.06.28,1.22,1.24,3.49,2.89,3.85,1.74.38,3.66-1.52,6.08-3.9,2.15-2.12,1.8-2.41,2.85-3.08,3.58-2.26,7.51,1.24,10.51-.3,3.32-1.71.16-6.85,3.76-15.94,2.01-5.07,4.63-7.96,6.11-9.13,1.53-1.21,3.03-2.48,4.76-3.38,9.15-4.95,15.56-12.2,21.09-20.15,2.92-4.19,4.82-7.02,5.76-8.8,2.31-4.36,3.07-7.22,3.17-7.22,0,.14-2.08,13.18-10.84,25.73-11.05,15.83-22.38,16.06-22.6,25.73-.07,2.81.64,13.27-.3,19.24-.13.82-.48,2.47-1.83,3.25-1.68.96-3.46-.54-5.63-.14-2.91.54-4.42,4-5.06,5.46-4.32,9.87,2.4,28.03,10.83,28.79,2.98.27,5.26-1.73,5.63-1.22.63.85-5.24,7.55-13.94,9.87-3.83,1.02-5.88.57-7.11,2.21-1.91,2.54,3.1,5.06,1.56,10.56-.87,3.12-1.88,7.14-3.56,11.8-.88,2.43-.54,3.35-.04,4.18,1.76,2.95,6.94.97,9.51,4.03,1.84,2.18,2.49,7.11,2.73,8.85.07.48.21,1.66.82,1.8.43.1.94-.35,1.56-1.07,2.41-2.8,2.15-4.81,3.52-5.22,1.19-.35,2.15.96,3.31,1.23,3.09.72,9.91-5.44,17.19-22.78,7.68-18.29,9.3-33.41,9.39-34.33,2.93-29.41-4.06-51.95-3.93-51.97.15-.02,9.9,23.52,8.41,55.31-.93,19.89-9.81,38.88-.23,45.35,3.9,2.63,10.87,3.3,10.68,5.01Z"/>
    </g>
  </g>
</svg>