<?xml version="1.0" encoding="UTF-8"?>
<svg id="Layer_2" data-name="Layer 2" xmlns="http://www.w3.org/2000/svg" viewBox="0 0 418.46 491.72">
  <defs>
    <style>
      .cls-1 {
        fill: #f6f5f5;
      }

      .cls-1, .cls-2, .cls-3, .cls-4, .cls-5, .cls-6, .cls-7, .cls-8 {
        stroke-miterlimit: 10;
      }

      .cls-1, .cls-2, .cls-4, .cls-5, .cls-6, .cls-7, .cls-8 {
        stroke-width: .25px;
      }

      .cls-1, .cls-5, .cls-6 {
        stroke: #000;
      }

      .cls-2, .cls-3, .cls-4 {
        stroke: #fff;
      }

      .cls-3 {
        stroke-width: .5px;
      }

      .cls-9, .cls-5, .cls-8 {
        fill: #fff;
      }

      .cls-4, .cls-6, .cls-7 {
        fill: none;
      }

      .cls-10 {
        fill: #585b5c;
      }

      .cls-7 {
        stroke: #f6f5f5;
      }

      .cls-8 {
        stroke: #231f20;
      }
    </style>
  </defs>
  <g id="Capa_1" data-name="Capa 1">
    <g>
      <rect x="3.36" width="315.58" height="490.01"/>
      <rect x="325.45" y="0" width="80.29" height="491.59"/>
      <path class="cls-9" d="M3.36,438.99c11.45-2.32,20.83-3.4,27.06-3.96,26.32-2.35,37.28,1.01,60.82-.64,2.29-.16,11.01-.8,21.92-.61,11.31.2,19.31,1.16,23.91,1.66,24.52,2.65,48.06,2.5,61.55,2.41,32.84-.2,34.2-3.31,57.4-1.81,10.06.65,16.38,1.66,34.52,2.72,11.87.69,21.76,1,28.42,1.15v7.96c-105.2-.28-210.41-.57-315.61-.85v-8.04Z"/>
      <path class="cls-8" d="M318.91,441.45v50.15H2.88v-50.15h31.56c18.15,0,20.98.26,29.57,0,15.11-.45,16.47-1.28,27.98-1.37,11.73-.08,16.77.73,27.98,1.37,9.62.55,23.24.93,40.08.09.56-.03,1.12-.06,1.69-.09h29.87c18.15,0,20.98.26,29.57,0,15.11-.45,16.47-1.28,27.98-1.37,11.73-.08,16.77.73,27.98,1.37,9.94.56,24.15.95,41.77,0Z"/>
      <path class="cls-6" d="M211.52,425.28c-.26-.02-.34.13-.6.13-.24,0-.31-.14-.54-.22-.39-.13-.58.14-1.14.27-.69.16-1.21-.06-1.21-.02,0,.03.54.29,1.19.18.5-.09.59-.31.99-.25.36.06.4.26.75.23.23-.02.31-.11.64-.11.22,0,.35.03.35,0,0-.04-.2-.19-.44-.21Z"/>
      <path class="cls-6" d="M143.29,461.49c.4-.02.52.21.9.22.37.01.47-.2.82-.31.59-.19.88.22,1.72.44,1.05.27,1.83-.05,1.84,0,0,.05-.82.43-1.81.24-.75-.15-.89-.49-1.5-.4-.54.08-.62.38-1.14.33-.34-.03-.47-.17-.97-.19-.33-.01-.53.04-.54,0-.01-.06.3-.29.67-.31Z"/>
      <path class="cls-6" d="M133.33,452.64c-.26-.02-.34.13-.6.13-.24,0-.31-.14-.54-.22-.39-.13-.58.14-1.14.27-.69.16-1.21-.06-1.21-.02,0,.03.54.29,1.19.18.5-.09.59-.31.99-.25.36.06.4.26.75.23.23-.02.31-.11.64-.11.22,0,.35.03.35,0,0-.04-.2-.19-.44-.21Z"/>
      <path class="cls-6" d="M97.22,447.9c-.26-.02-.34.13-.6.13-.24,0-.31-.14-.54-.22-.39-.13-.58.14-1.14.27-.69.16-1.21-.06-1.21-.02,0,.03.54.29,1.19.18.5-.09.59-.31.99-.25.36.06.4.26.75.23.23-.02.31-.11.64-.11.22,0,.35.03.35,0,0-.04-.2-.19-.44-.21Z"/>
      <path d="M133.74,457.9c.24,0,.45.06.68.13.32.1.43.22.68.29.33.1.8.21,1.36.26,1.28.13,2.06-.13,2.07-.07,0,.03-1.51.55-3.38.49-.98-.03-2.46-.24-2.48-.59-.01-.22.56-.51,1.05-.52Z"/>
      <g>
        <path d="M15.78,456.02c.24,0,.44.06.67.13.32.1.42.22.67.29.33.09.79.2,1.34.26,1.26.12,2.03-.13,2.04-.06,0,.03-1.49.55-3.33.48-.96-.03-2.42-.24-2.44-.58-.01-.22.55-.5,1.04-.51Z"/>
        <path class="cls-5" d="M15.66,455.95c-.09-.28.04-.62.21-.84.74-.89,2.82-.04,3.24.13.58.24,1.44.59,1.4.93-.05.5-1.92.68-3.33.48-1.33-.19-1.5-.61-1.53-.71Z"/>
        <path class="cls-5" d="M15.66,455.95c-.12-.35.05-.81.21-.84.15-.02.22.3.58.58.24.19.49.26.67.29.33.09.79.2,1.34.26.09,0,.5.04,1.04.03.39-.01.73-.05,1-.09,0,.01,0,.03-.02.05-.09.24-.37.34-.67.41-1.36.29-2.65.03-2.65.03-.86-.18-1.38-.3-1.53-.71Z"/>
      </g>
      <g>
        <path d="M20.82,439.88c.19-.03.28-.03.35-.01.18.03.24.13.4.17.19.06.47.12.79.15.24.02.44.02.61.02.29-.01.48-.05.48-.05,0,0-.86.19-1.94.16-.6-.02-1.36-.11-1.36-.22,0-.1.58-.2.66-.21Z"/>
        <path class="cls-5" d="M20.71,439.75c-.06-.17.01-.37.13-.49.14-.15.32-.16.99-.16.96,0,1.07.02,1.22.11.23.13.59.43.53.67-.1.4-1.29.39-1.97.29-.79-.12-.88-.36-.9-.42Z"/>
        <path class="cls-5" d="M20.71,439.75c-.07-.2.03-.48.13-.49.1-.02.12.22.34.34.22.12.34-.05.66.04.27.07.24.2.53.28.14.04.3.03.62.02.39-.02.57-.06.58-.03.01.05-.22.2-.39.24-.81.17-1.56.02-1.56.02-.51-.11-.81-.17-.9-.42Z"/>
      </g>
      <g>
        <path d="M79.6,474.32c.43,0,.8.1,1.21.23.57.18.76.39,1.21.52.59.17,1.42.37,2.42.46,2.27.22,3.66-.23,3.68-.12.01.06-2.68.98-5.99.87-1.74-.06-4.36-.43-4.4-1.04-.02-.39,1-.91,1.87-.93Z"/>
        <path class="cls-5" d="M79.38,475.01c-.2-.64.25-1.31.38-1.51.75-1.11,2.29-1.45,3.47-1.18.65.15.71.36,2.36,1.41,2.03,1.3,2.55,1.36,2.53,1.68-.05.78-3.27,1.25-5.99.87-1.04-.15-2.46-.37-2.75-1.27Z"/>
        <path class="cls-5" d="M79.38,475.03c-.23-.62.08-1.46.38-1.51.3-.05.38.72,1.05,1.04.62.29.91-.2,1.76-.06.88.15.86.73,1.87,1.03.41.12.9.08,1.88.04.71-.03,1.32-.1,1.8-.17,0,.02-.01.05-.03.09-.16.43-.67.62-1.2.74-2.46.54-4.76.07-4.76.07-1.55-.32-2.48-.52-2.75-1.26Z"/>
      </g>
      <g>
        <path d="M74.58,447c.12.07.31.15.54.23.42.14.77.18,1.08.21.39.04.69.03.83.02.27-.01.5-.04.69-.07-.6.13-1.44.26-2.44.23-.69-.02-1.72-.13-1.73-.29,0-.07.19-.18,1.02-.33Z"/>
        <path class="cls-5" d="M74.39,446.75c-.07-.21,0-.5.17-.67.27-.25.61-.06,1.91.04.42.03.49.02.69.07.5.13,1.16.47,1.13.75-.05.4-1.53.55-2.67.39-.47-.07-1.09-.17-1.23-.57Z"/>
        <path class="cls-5" d="M74.39,446.75c-.1-.28.04-.66.17-.67.15-.02.15.42.48.64.39.26.68-.12,1.45.01.43.07.51.23.99.27.31.02.57-.02.75-.06.02,0,.04.01.04.03.02.08-.43.3-.54.33-1.1.24-2.13.02-2.13.02-.69-.14-1.11-.24-1.23-.57Z"/>
      </g>
      <g>
        <path d="M198.12,443.67c.19,0,.36.05.54.1.26.08.34.18.54.23.26.08.63.16,1.08.21,1.01.1,1.63-.1,1.64-.05,0,.03-1.2.44-2.67.39-.77-.03-1.95-.19-1.96-.47-.01-.17.44-.4.83-.41Z"/>
        <path class="cls-5" d="M198.47,443.52c-.07-.23.03-.5.17-.67.6-.71,2.26-.03,2.6.1.47.19,1.16.47,1.13.75-.04.4-1.54.55-2.67.39-1.07-.15-1.2-.49-1.23-.57Z"/>
        <path class="cls-5" d="M198.47,443.52c-.1-.28.04-.65.17-.67.12-.02.18.24.47.47.19.15.4.21.54.23.26.08.63.16,1.08.21.07,0,.4.04.84.02.32-.01.59-.04.81-.07,0,0,0,.02-.01.04-.07.19-.3.28-.54.33-1.1.24-2.13.02-2.13.02-.69-.14-1.11-.24-1.23-.57Z"/>
      </g>
      <g>
        <path d="M39.77,464.54c.29,0,.54.07.81.15.38.12.51.26.81.35.39.11.95.24,1.62.31,1.52.15,2.44-.16,2.46-.08,0,.04-1.79.66-4,.58-1.16-.04-2.91-.29-2.94-.7-.02-.26.67-.61,1.25-.62Z"/>
        <path class="cls-5" d="M39.62,465c-.11-.34.04-.75.26-1.01.89-1.07,3.39-.05,3.89.15.7.28,1.73.71,1.69,1.12-.06.6-2.31.82-4,.58-1.61-.23-1.8-.74-1.84-.85Z"/>
        <path class="cls-5" d="M39.62,465c-.15-.42.06-.97.26-1.01.18-.03.27.36.7.7.29.22.59.31.81.35.39.11.95.24,1.62.31.11.01.6.05,1.25.03.47-.02.88-.06,1.21-.11,0,.01,0,.03-.02.06-.11.28-.45.41-.8.49-1.64.35-3.18.03-3.18.03-1.04-.22-1.66-.36-1.84-.85Z"/>
      </g>
      <g>
        <path d="M131.06,481.13c.5-.01.93.12,1.41.27.67.21.89.46,1.41.61.69.2,1.65.42,2.81.54,2.64.26,4.26-.27,4.28-.13.01.07-3.12,1.14-6.97,1.01-2.02-.07-5.07-.5-5.11-1.21-.03-.45,1.16-1.06,2.17-1.08Z"/>
        <path class="cls-5" d="M130.8,481.93c-.19-.59.07-1.3.45-1.75,1.55-1.86,5.9-.09,6.78.27,1.22.5,3.01,1.23,2.94,1.95-.11,1.04-4.02,1.43-6.97,1.01-2.79-.4-3.13-1.28-3.2-1.48Z"/>
        <path class="cls-5" d="M130.8,481.94c-.29-.87.55-1.97.85-1.91.32.06,0,1.34.69,1.73.39.22.67-.08,1.46-.1,1.18-.04,1.34.62,2.88.89.67.12,1.22.09,2.18.05,1.29-.05,2.02-.23,2.07-.09.05.15-.68.58-1.4.85-2.06.79-4.06.38-5.54.06-1.71-.38-2.92-.64-3.2-1.48Z"/>
      </g>
      <g>
        <path d="M113.75,448.5c.46-.12.69-.15.86-.02.14.11.09.21.22.36.13.16.32.15,1.25.24.66.06.87.03.97.02.48-.02.75-.07.75-.06,0,.02-1.39.37-3.1.3-.86-.04-2.07-.19-2.08-.41,0-.11.38-.22,1.14-.42Z"/>
        <path class="cls-5" d="M113.87,448.22c-.09-.28.05-.6.2-.78.28-.34.7-.35.79-.36.33-.01.46.13.84.27.63.23.79.06,1.38.21.56.15,1.34.55,1.31.87-.05.46-1.78.63-3.1.45-1.24-.18-1.39-.57-1.42-.66Z"/>
        <path class="cls-5" d="M113.87,448.29c-.04-.14-.05-.39.2-.78.1.17.27.4.54.54.31.15.45.05.93.15.49.11.47.26.94.35.27.06.5.04.97.02.37-.01.68-.05.93-.08,0,.01,0,.03-.01.04-.1.27-.48.35-.62.38-.47.1-3.59.47-3.88-.63Z"/>
      </g>
      <path d="M132.99,462.04s.03-.03.03-.03c8.35,2.71,15.19,3.4,19.9,3.53,9.29.25,13.38-.33,21.38-.45,6.45-.1,16.99.17,17.03,1,.06,1.29-25.3,3.56-40.59,4.58-6.64.44-21.7,1.34-40.73-1.07-4.48-.57-11.89-1.53-11.89-2.75.01-2.23,24.69-4.12,28.22-4.39,2.74-.21,5.03-.35,6.63-.43Z"/>
      <path class="cls-9" d="M162.86,449.29c-.57.04-1.15.08-1.71.12v-.12h1.71Z"/>
      <path class="cls-6" d="M176.3,460.32c.4-.02.52.21.9.22.37.01.47-.2.82-.31.59-.19.88.22,1.72.44,1.05.27,1.83-.05,1.84,0,0,.05-.82.43-1.81.24-.75-.15-.89-.49-1.5-.4-.54.08-.62.38-1.14.33-.34-.03-.47-.17-.97-.19-.33-.01-.53.04-.54,0-.01-.06.3-.29.67-.31Z"/>
      <path class="cls-6" d="M233.28,453.36c-.26-.02-.34.13-.6.13-.24,0-.31-.14-.54-.22-.39-.13-.58.14-1.14.27-.69.16-1.21-.06-1.21-.02,0,.03.54.29,1.19.18.5-.09.59-.31.99-.25.36.06.4.26.75.23.23-.02.31-.11.64-.11.22,0,.35.03.35,0,0-.04-.2-.19-.44-.21Z"/>
      <path class="cls-6" d="M179.66,447.99c-.26-.02-.34.13-.6.13-.24,0-.31-.14-.54-.22-.39-.13-.58.14-1.14.27-.69.16-1.21-.06-1.21-.02,0,.03.54.29,1.19.18.5-.09.59-.31.99-.25.36.06.4.26.75.23.23-.02.31-.11.64-.11.22,0,.35.03.35,0,0-.04-.2-.19-.44-.21Z"/>
      <g>
        <path d="M170.56,451.87c.24,0,.44.06.67.13.32.1.42.22.67.29.33.09.79.2,1.34.26,1.26.12,2.03-.13,2.04-.06,0,.03-1.49.55-3.33.48-.96-.03-2.42-.24-2.44-.58-.01-.22.55-.5,1.04-.51Z"/>
        <path class="cls-5" d="M170.44,451.8c-.09-.28.04-.62.21-.84.74-.89,2.82-.04,3.24.13.58.24,1.44.59,1.4.93-.05.5-1.92.68-3.33.48-1.33-.19-1.5-.61-1.53-.71Z"/>
        <path class="cls-5" d="M170.44,451.8c-.12-.35.05-.81.21-.84.15-.02.22.3.58.58.24.19.49.26.67.29.33.09.79.2,1.34.26.09,0,.5.04,1.04.03.39-.01.73-.05,1-.09,0,.01,0,.03-.02.05-.09.24-.37.34-.67.41-1.36.29-2.65.03-2.65.03-.86-.18-1.38-.3-1.53-.71Z"/>
      </g>
      <g>
        <path d="M220.96,456.45c.34,0,.62.08.94.17.45.13.59.3.94.39.46.13,1.1.28,1.88.35,1.77.17,2.85-.17,2.86-.09,0,.05-2.09.74-4.66.65-1.35-.04-3.39-.32-3.42-.79-.02-.29.78-.68,1.45-.7Z"/>
        <path class="cls-5" d="M220.79,456.97c-.16-.48.2-.99.3-1.13.58-.84,1.78-1.09,2.7-.89.5.11.56.27,1.83,1.06,1.58.98,1.98,1.03,1.97,1.27-.04.59-2.54.94-4.66.65-.81-.11-1.92-.28-2.14-.96Z"/>
        <path class="cls-5" d="M220.79,456.97c-.17-.47.07-1.1.3-1.13.23-.04.29.55.81.79.48.22.71-.15,1.37-.04.68.12.67.55,1.45.78.32.09.7.06,1.46.04.55-.02,1.03-.07,1.4-.12,0,.02-.01.04-.02.07-.13.32-.53.47-.93.55-1.91.4-3.7.04-3.7.04-1.21-.24-1.93-.4-2.14-.96Z"/>
      </g>
      <g>
        <path d="M297.84,448.22c.19,0,.36.05.54.1.26.08.34.18.54.23.26.08.63.16,1.08.21,1.01.1,1.63-.1,1.64-.05,0,.03-1.2.44-2.67.39-.77-.03-1.95-.19-1.96-.47-.01-.17.44-.4.83-.41Z"/>
        <path class="cls-5" d="M297.74,448.53c-.07-.23.03-.5.17-.67.6-.71,2.26-.03,2.6.1.47.19,1.16.47,1.13.75-.04.4-1.54.55-2.67.39-1.07-.15-1.2-.49-1.23-.57Z"/>
        <path class="cls-5" d="M297.74,448.53c-.1-.28.04-.65.17-.67.12-.02.18.24.47.47.19.15.4.21.54.23.26.08.63.16,1.08.21.07,0,.4.04.84.02.32-.01.59-.04.81-.07,0,0,0,.02-.01.04-.07.19-.3.28-.54.33-1.1.24-2.13.02-2.13.02-.69-.14-1.11-.24-1.23-.57Z"/>
      </g>
      <g>
        <path d="M246.28,444.56c.29,0,.54.07.81.15.38.12.51.26.81.35.39.11.95.24,1.62.31,1.52.15,2.44-.16,2.46-.08,0,.04-1.79.66-4,.58-1.16-.04-2.91-.29-2.94-.7-.02-.26.67-.61,1.25-.62Z"/>
        <path class="cls-5" d="M246.13,445.03c-.11-.34.04-.75.26-1.01.89-1.07,3.39-.05,3.89.15.7.28,1.73.71,1.69,1.12-.06.6-2.31.82-4,.58-1.61-.23-1.8-.74-1.84-.85Z"/>
        <path class="cls-5" d="M246.13,445.03c-.15-.42.06-.97.26-1.01.18-.03.27.36.7.7.29.22.59.31.81.35.39.11.95.24,1.62.31.11.01.6.05,1.25.03.47-.02.88-.06,1.21-.11,0,.01,0,.03-.02.06-.11.28-.45.41-.8.49-1.64.35-3.18.03-3.18.03-1.04-.22-1.66-.36-1.84-.85Z"/>
      </g>
      <g>
        <path d="M266.68,464.32c.29,0,.54.07.81.15.38.12.51.26.81.35.39.11.95.24,1.62.31,1.52.15,2.44-.16,2.46-.08,0,.04-1.79.66-4,.58-1.16-.04-2.91-.29-2.94-.7-.02-.26.67-.61,1.25-.62Z"/>
        <path class="cls-5" d="M266.53,464.79c-.11-.34.04-.75.26-1.01.89-1.07,3.39-.05,3.89.15.7.28,1.73.71,1.69,1.12-.06.6-2.31.82-4,.58-1.61-.23-1.8-.74-1.84-.85Z"/>
        <path class="cls-5" d="M266.53,464.79c-.15-.42.06-.97.26-1.01.18-.03.27.36.7.7.29.22.59.31.81.35.39.11.95.24,1.62.31.11.01.6.05,1.25.03.47-.02.88-.06,1.21-.11,0,.01,0,.03-.02.06-.11.28-.45.41-.8.49-1.64.35-3.18.03-3.18.03-1.04-.22-1.66-.36-1.84-.85Z"/>
      </g>
      <g>
        <path d="M249.75,472.24c.29,0,.54.07.81.15.38.12.51.26.81.35.39.11.95.24,1.62.31,1.52.15,2.44-.16,2.46-.08,0,.04-1.79.66-4,.58-1.16-.04-2.91-.29-2.94-.7-.02-.26.67-.61,1.25-.62Z"/>
        <path class="cls-5" d="M249.6,472.7c-.11-.34.04-.75.26-1.01.89-1.07,3.39-.05,3.89.15.7.28,1.73.71,1.69,1.12-.06.6-2.31.82-4,.58-1.61-.23-1.8-.74-1.84-.85Z"/>
        <path class="cls-5" d="M249.6,472.7c-.15-.42.06-.97.26-1.01.18-.03.27.36.7.7.29.22.59.31.81.35.39.11.95.24,1.62.31.11.01.6.05,1.25.03.47-.02.88-.06,1.21-.11,0,.01,0,.03-.02.06-.11.28-.45.41-.8.49-1.64.35-3.18.03-3.18.03-1.04-.22-1.66-.36-1.84-.85Z"/>
      </g>
      <path d="M251.87,462.47c-1.88-.05-2.44.12-4.24.1-1.74-.02-2.19-.2-3.86-.32-2.79-.2-4.13.11-8.05.21-4.91.13-8.6-.19-8.62-.15-.02.04,3.86.41,8.48.34,3.52-.06,4.18-.32,7.02-.2,2.55.11,2.9.35,5.35.36,1.6,0,2.19-.1,4.54-.07,1.54.02,2.47.08,2.52.04.06-.05-1.41-.25-3.14-.3Z"/>
      <path d="M271.77,446.99c-1.8-.05-2.35.12-4.08.1-1.67-.02-2.11-.2-3.72-.32-2.68-.2-3.97.11-7.74.22-4.72.13-8.27-.19-8.29-.15-.02.04,3.71.41,8.15.34,3.39-.06,4.02-.32,6.75-.2,2.45.1,2.79.35,5.15.36,1.54,0,2.1-.1,4.37-.08,1.48.02,2.38.07,2.42.04.06-.05-1.36-.25-3.01-.3Z"/>
      <path d="M154.05,455.48c-3.32-.08-4.31.08-7.5.03-3.07-.05-3.88-.22-6.84-.36-4.93-.23-7.3.04-14.23.09-8.67.05-15.2-.3-15.24-.27-.04.04,6.83.45,14.99.44,6.22,0,7.39-.24,12.41-.09,4.51.14,5.13.38,9.47.42,2.83.03,3.86-.06,8.02,0,2.72.04,4.37.11,4.45.07.1-.05-2.49-.26-5.55-.33Z"/>
      <path d="M65.51,453.18c-1.67-.05-2.17.15-3.77.13-1.55-.02-1.95-.21-3.43-.34-2.48-.21-3.67.14-7.16.27-4.36.16-7.64-.18-7.66-.14-.02.05,3.43.45,7.53.35,3.13-.08,3.72-.37,6.24-.25,2.27.11,2.58.38,4.76.38,1.43,0,1.94-.12,4.04-.1,1.37.01,2.2.07,2.24.03.05-.06-1.25-.28-2.79-.33Z"/>
      <path d="M50.19,471.49c-1.21-.04-1.57.14-2.73.13-1.12-.01-1.41-.19-2.48-.29-1.79-.18-2.65.13-5.18.26-3.16.16-5.52-.14-5.54-.1-.01.04,2.48.39,5.45.29,2.26-.08,2.69-.34,4.52-.24,1.64.09,1.86.34,3.44.33,1.03,0,1.41-.11,2.92-.1.99,0,1.59.06,1.62.02.04-.05-.9-.25-2.01-.28Z"/>
      <path d="M210.13,481.71c-2.97-.06-3.85.01-6.7-.03-2.75-.04-3.47-.13-6.12-.21-4.41-.14-6.53-.03-12.73-.05-7.76-.03-13.6-.24-13.63-.22-.04.02,6.11.26,13.41.31,5.57.04,6.61-.07,11.1.03,4.03.09,4.59.21,8.47.26,2.54.03,3.46,0,7.18.05,2.43.04,3.91.08,3.98.06.09-.02-2.23-.14-4.96-.19Z"/>
      <path d="M24.58,473.93c-1.21-.04-1.57.14-2.73.13-1.12-.01-1.41-.19-2.48-.29-1.79-.18-2.65.13-5.18.26-3.16.16-5.52-.14-5.54-.1-.01.04,2.48.39,5.45.29,2.26-.08,2.69-.34,4.52-.24,1.64.09,1.86.34,3.44.33,1.03,0,1.41-.11,2.92-.1.99,0,1.59.06,1.62.02.04-.05-.9-.25-2.01-.28Z"/>
      <path d="M282.42,452.12c2.25-.03,2.92.25,5.09.26,2.09.01,2.63-.24,4.64-.38,3.34-.23,4.95.27,9.66.53,5.89.33,10.31-.06,10.34,0,.03.06-4.63.52-10.17.29-4.22-.18-5.02-.59-8.42-.49-3.06.09-3.48.46-6.42.4-1.92-.04-2.62-.21-5.45-.23-1.85-.01-2.97.05-3.02-.01-.07-.08,1.69-.35,3.76-.38Z"/>
      <path d="M203.86,453.18c3.63.26,7.91,1.01,7.89,1.53-.03.56-5.11.76-8.42.73-4.99-.05-11.43-.69-11.42-1.35,0-.64,6.08-1.34,11.96-.91Z"/>
      <path d="M32.34,447.91c3.62.16,8.38.72,8.37,1.26,0,.53-4.5.98-8.28.97-5.13,0-10.63-.86-10.61-1.46.02-.61,5.74-.99,10.52-.78Z"/>
      <path d="M208.91,467.9c5.17-1.05,7.62-.62,8.41-.46.2.04,4.25.88,4.2,1.68-.1,1.78-20.27,2.58-20.44,1.22-.1-.83,7.33-2.34,7.83-2.44Z"/>
      <path class="cls-2" d="M208.72,394.87c.87.94,1.6-.06,2.89,1.02,2.31,1.94,1.14,6.14,3.79,8.52,1.02.91,1.46.54,1.76,1.19,1.16,2.53-6.14,6.77-8.47,15.03-2,7.13-.11,16.56,4.19,19.76,3.32,2.47,8.02,1.18,8.03,1.76.01.43-2.39.35-4.86,2.24-1.64,1.25-2.52,2.71-3.03,3.62-1.46,2.54-1.78,5.01-1.84,6.48-1.75,0-3.5.01-5.25.02.14-.32.3-.81.27-1.37-.07-1.03-.75-1.43-.6-1.88.24-.74,2.01.09,2.89-1.03.56-.7.5-1.84.47-2.15-.13-1.29-.84-1.66-.67-2.21.31-.95,2.66-.22,3.17-1.5.1-.25.09-.48.08-.64-.12-2.89-7.87-6.19-7.58-7.64.07-.32.47-.26.89-.55,2.57-1.77,1.1-13.75-1.31-21.43-.52-1.64-1.41-4.16-.54-6.36.52-1.31,1.4-1.83,1.33-3.09-.08-1.55-1.45-2.02-1.34-3.32.11-1.25,1.41-1.37,1.49-2.57.09-1.33-1.48-1.81-1.65-3.31-.17-1.51,1.24-2.56,2.38-4.12,2.12-2.92,1.91-5.72,2.69-8.42,2.22-7.67,11.66-10.06,11.74-9.87.02.04-3,.93-5.99,4.29-5.06,5.67-7.15,15.12-4.92,17.53Z"/>
      <path class="cls-2" d="M265.71,422.13c-3.56-3.49-3.38-11.11-1.85-11.73.44-.18.8.28.93.14.53-.59-3.97-9.58-11.56-11.98-3.67-1.16-6.14-.17-7.55-2.26-1.2-1.77-.89-4.66.25-6.63,2.6-4.48,9.61-4.3,9.53-5.57-.06-.91-3.63-.38-5.49-2.85-1.68-2.24-.4-5.04-1.59-5.69-1.78-.97-4.97,5.27-7.97,4.52-2.66-.67-2.16-6.06-6.23-7.95-1.73-.8-2.45.11-3.84-.75-3.17-1.96-4.32-6.54-4.77-13.02-.88-12.79,1.75-21.98,1.48-22.05-.28-.07-3.62,9.29-3.45,21.29.04,2.85.27,5.03.49,7.17.84,8.07,1.26,12.1,3.68,15.67,2.16,3.19,5.37,5.27,5.02,5.79-.18.27-1.03-.34-2.55-.22-1.7.14-3.15,1.11-3.07,1.42.06.24,1.09-.13,2.09.1,2.44.56,3.59,4.42,4,5.77,3.49,11.53,5.34,17.13,7.35,18.74,2.39,1.9,7.7,3.32,10.75,3.42.25,0,1.09.2,2.14.56,2.18.75,3.63,4.42,2.77,5.52-.73.94-2.61-.69-5.31.16-1.69.54-2.59,1.7-3.65,2.86-4.12,4.49-6.09,3.8-8.16,6.42-4.78,6.04,0,16.91-2.08,17.62-.87.29-2.39-1.44-3.32-2.99-3.11-5.17-.59-9.73-1.23-19.07-.44-6.49-2.14-11.29-2.35-11.25-.23.04,1.83,5.51.85,12.75-.86,6.37-1.86,12.91-1.86,12.91-.04.28-.16,1.04-.07,2.03.14,1.45.66,2.47.77,2.76,1.12,3.02.89,16.42,1.1,24.24.05,2.01.18,4.97.55,8.58,2.36.03,4.73.06,7.09.1-1.41-3.47-1.47-6.17-1.3-7.93.79-8.14,7.73-13.58,7.22-18.73-.25-2.51-.85-3.89-.72-7.77.06-1.62.31-9.15,3.22-10.08,2.28-.73,4.01,3.29,6.59,2.6,2.24-.6,1.65-3.83,4.62-7.19,3.62-4.11,8.82-4.18,8.7-6.01-.04-.56-.52-.73-1.23-1.42ZM236.38,460.32c-1.82,3.34-1.89,6.33-2.24,6.27-.3-.05-.55-2.24.08-4.45.68-2.4,1.85-2.88,1.77-4.73-.03-.82-.26-.74-.74-2.89-.28-1.24-.69-3.09-.33-3.26.39-.18.96,1.84,2.79,2.6,1.53.64,2.67-.15,2.96.36.45.77-2.32,2.49-4.29,6.11Z"/>
      <path d="M91.79,460.91c6.08.33,12.38,1.8,12.31,2.56-.08.91-9.2.82-15.42.39-2.14-.15-10.28-.72-10.28-1.56,0-.76,6.67-1.76,13.39-1.39Z"/>
      <path class="cls-2" d="M82.69,429.2c.51,3.86.76,5.8,2.22,7.5,1.31,1.53,3.25,2.52,3.04,2.77-.11.13-.63-.16-1.54-.1-1.03.07-1.9.53-1.85.68.04.12.66-.06,1.27.05,1.47.27,2.17,2.12,2.42,2.76,2.11,5.52,3.23,8.21,4.44,8.98,1.44.91,4.65,1.59,6.49,1.64.15,0,.66.1,1.29.27,1.32.36,2.19,2.12,1.67,2.64-.44.45-1.57-.33-3.21.08-1.02.26-1.56.81-2.2,1.37-2.49,2.15-3.68,1.82-4.93,3.08-.7.7-1.06,1.55-1.23,2.42,3.32.11,6.65.22,9.97.34.52-1.04,1.38-2.37,2.79-3.44,2.41-1.83,5.32-2.06,5.25-2.88-.02-.27-.32-.35-.74-.68-2.15-1.67-2.04-5.32-1.12-5.62.26-.08.48.14.56.07.32-.28-2.4-4.59-6.98-5.74-2.22-.56-3.71-.08-4.56-1.08-.72-.85-.54-2.23.15-3.18,1.57-2.15,5.8-2.06,5.75-2.67-.04-.44-2.19-.18-3.32-1.37-1.02-1.07-.24-2.42-.96-2.72-1.08-.46-3,2.53-4.82,2.16-1.61-.32-1.3-2.9-3.77-3.81-1.04-.39-1.48.05-2.32-.36-1.92-.94-2.61-3.13-2.88-6.24-.53-6.13,1.06-10.53.89-10.56-.17-.03-2.19,4.45-2.09,10.2.02,1.36.16,2.41.3,3.44Z"/>
      <path class="cls-2" d="M44.47,424.56c-.32,2.76-.48,4.15-1.39,5.37-.82,1.09-2.03,1.81-1.9,1.99.07.09.39-.12.97-.07.64.05,1.19.38,1.16.49-.02.08-.41-.04-.79.04-.92.19-1.36,1.51-1.51,1.98-1.32,3.95-2.02,5.87-2.78,6.42-.9.65-2.91,1.14-4.06,1.17-.09,0-.41.07-.81.19-.83.26-1.37,1.51-1.05,1.89.28.32.99-.24,2.01.05.64.18.98.58,1.38.98,1.56,1.54,2.3,1.3,3.09,2.2.44.5.67,1.11.77,1.73-2.08.08-4.16.16-6.24.24-.3-.74-.82-1.69-1.75-2.46-1.48-1.24-3.33-1.45-3.29-2.06.01-.19.2-.25.46-.49,1.35-1.2,1.28-3.81.7-4.02-.16-.06-.3.1-.35.05-.2-.2,1.5-3.28,4.37-4.1,1.39-.4,2.32-.06,2.86-.77.45-.6.34-1.6-.09-2.27-.98-1.53-3.63-1.47-3.6-1.91.02-.31,1.37-.13,2.08-.98.64-.77.15-1.73.6-1.95.67-.33,1.88,1.81,3.01,1.55,1.01-.23.81-2.08,2.36-2.73.65-.28.93.04,1.45-.26,1.2-.67,1.63-2.24,1.8-4.46.33-4.38-.66-7.53-.56-7.55.1-.02,1.37,3.18,1.31,7.3-.02.98-.1,1.72-.19,2.46Z"/>
      <path class="cls-2" d="M53.85,471.63c1.16,2.32,1.37,5.63.12,7.21,2.59.01,5.18.03,7.76.05,3.01.03,6.02.06,9.03.11-1.07-.24-2.13-.64-3.16-1.29-13.23-8.34-11.69-49.93,5.75-62.13,4.25-2.98,13.82-7.26,17.06-3.95,1.14,1.16,1.07,2.77,2.1,3.02,2.19.53,6.58-5.66,8.07-12.45,2.19-9.94-3.6-13.14-2.49-24.89.72-7.66,3.3-7.46,4.06-15.06,1.33-13.29-5.52-24.06-6.02-23.89-.43.16,4.31,8.83,3.09,21.01-.78,7.72-3.06,7.98-4.39,15.61-2.74,15.76,4.94,26.46,1.35,28.94-2.44,1.68-7.55-2.13-9.89-4.64-3.5-3.75-6.02-10.24-4.47-15.67,1-3.52,3.55-5.8,2.59-9-.47-1.55-1.27-1.75-1.5-3.27-.53-3.6,3.38-6.58,2.98-7.08-.47-.58-4.91,4.61-9.9,5.42-3.59.58-7.96-1.11-11.71-4-.83.54-1.64,1.1-2.44,1.67,7.28,6.54,14.24,16.17,13.22,27.06-1.01,10.92-9.84,21.07-14.79,20.02-3.53-.74-5.37-7.24-6.52-6.75-1.42.6,1.64,10.79-1.61,12.83-.71.45-1.55.39-1.73,1.01-.37,1.26,2.73,2.29,3.04,4.89.23,1.97-1.28,3.75-1.4,3.89-1.08,1.24-1.95,1-2.19,1.76-.51,1.68,3.69,3.02,4.07,6.4.21,1.83-.7,4.23-2.27,5.19-.83.51-1.44.37-1.62.85-.38,1.07,2.41,2.11,3.17,4.91.04.15.59,2.29-.41,4.18-1.03,1.94-2.83,1.95-2.88,3.11-.06,1.37,2.42,1.71,2.73,3.7.2,1.32-.66,2.57-1.09,3.2-1.13,1.65-2.17,1.53-2.35,2.4-.31,1.56,3.01,2.35,4.65,5.63Z"/>
      <path d="M265.55,457.94c2.89.02,6.63.53,6.63,1.1,0,.57-3.6,1.24-7.03.95-2.26-.19-4.88-.84-4.85-1.31.03-.51,3.14-.75,5.26-.74Z"/>
      <path class="cls-2" d="M265.22,456.24c.42.83.49,2.01.04,2.57,1.85.02,3.71.03,5.56.05-.1-.08-.24-.19-.42-.3-.15-.1-.27-.15-.28-.16-4.72-2.98-4.17-17.83,2.05-22.18,1.52-1.06,4.94-2.59,6.09-1.41.41.42.38.99.75,1.08.78.19,2.35-2.02,2.88-4.44.78-3.55-1.29-4.69-.89-8.89.26-2.74,1.18-2.66,1.45-5.38.47-4.74-1.97-8.59-2.15-8.53-.16.06,1.54,3.15,1.1,7.5-.28,2.75-1.09,2.85-1.57,5.57-.98,5.63,1.76,9.45.48,10.33-.87.6-2.69-.76-3.53-1.66-1.25-1.34-2.15-3.66-1.6-5.6.36-1.26,1.27-2.07.92-3.21-.17-.55-.45-.62-.53-1.17-.19-1.28,1.21-2.35,1.07-2.53-.17-.21-1.75,1.65-3.53,1.94-1.28.21-2.84-.39-4.18-1.43-.29.19-.59.39-.87.6,2.6,2.33,5.08,5.77,4.72,9.66-.36,3.9-3.51,7.52-5.28,7.15-1.26-.27-1.92-2.58-2.33-2.41-.51.21.59,3.85-.58,4.58-.26.16-.55.14-.62.36-.13.45.98.82,1.08,1.75.08.7-.46,1.34-.5,1.39-.39.44-.7.36-.78.63-.18.6,1.32,1.08,1.45,2.29.07.65-.25,1.51-.81,1.85-.29.18-.51.13-.58.3-.14.38.86.75,1.13,1.75.02.05.21.82-.15,1.49-.37.69-1.01.69-1.03,1.11-.02.49.86.61.97,1.32.07.47-.24.92-.39,1.14-.4.59-.77.55-.84.86-.11.56,1.07.84,1.66,2.01Z"/>
      <g>
        <path class="cls-2" d="M206.84,469.65c1.41-1.08,2.83-2.17,4.24-3.25-.1-.78-.19-1.56-.29-2.34.5-.55,1.01-1.1,1.51-1.64,0-1.21-.01-2.42-.02-3.63.71-.08,1.42-.17,2.13-.25.33.39.66.79.98,1.18,1.37-.05,2.73-.1,4.1-.15.78,3.19,1.55,6.38,2.33,9.56-5,.18-9.99.35-14.99.53Z"/>
        <path class="cls-4" d="M219.51,459.56c-.1,1.16-.39,2.68-1.4,3.21-.61.32-.99.01-1.67.23-1.55.49-1.72,2.76-2.66,4.21-.81,1.23-2.59,2.49-6.93,2.45"/>
      </g>
      <path class="cls-3" d="M176.63,357.31h6.09c.53,1.53,1.06,3.05,1.59,4.58,1.45.51,2.9,1.02,4.35,1.53,1.21,1.27,2.42,2.54,3.62,3.82,2.52.97,5.03,1.93,7.55,2.9-2.83,31.99-5.65,63.98-8.48,95.97-4.03.23-8.07.46-12.1.7-1.65-.57-3.29-1.14-4.94-1.71,1.65-28.6,3.29-57.2,4.94-85.8h-29.39c.31,29.84.61,59.69.92,89.53-6.74.29-13.48.57-20.23.86-2.17-1.35-4.34-2.7-6.51-4.06-1.19-34.4-2.39-68.81-3.58-103.21,3.78-3.18,7.55-6.37,11.33-9.55,9.63-2.14,19.26-4.28,28.88-6.42,5.68.95,11.36,1.91,17.03,2.86-.36,2.67-.72,5.33-1.09,8Z"/>
      <path class="cls-10" d="M213.76,460.8c.89.73,1.79,1.46,2.68,2.2"/>
      <path class="cls-7" d="M216.44,463c-1.38-.2-2.75-.39-4.13-.59"/>
      <path class="cls-4" d="M130.55,469.69c.41-34.42.83-68.84,1.25-103.25"/>
      <path class="cls-4" d="M179.25,466.8c1.66-25.97,3.33-51.94,4.99-77.91"/>
      <rect class="cls-6" x="3.36" y="69.53" width="315.56" height="422.06"/>
      <path class="cls-2" d="M177.05,349.93c-1.32.53-2.65,1.06-3.97,1.59-2.28.48-4.55.95-6.83,1.43"/>
      <path class="cls-2" d="M174.78,350.77c-.66,1.79-1.32,3.58-1.98,5.37"/>
      <path class="cls-1" d="M328.39,393.88c4.55-8.92,9.09-17.84,13.64-26.76"/>
      <path class="cls-3" d="M394.63,176.12c-2.84,16.85,3.94,27.21,11.24,41.18v117.13c-2.06,3.87-4.29,7.5-6.69,10.85-15.55,21.72-38.97,33.09-42.24,28.45-3.04-4.31,9.67-24.73,17.5-35.37,9.18-12.46,11.5-11.27,16.92-20.06,8.71-14.11,13.18-34.15,10.8-52.02-2.82-21.15-12.71-20.34-20.07-43.73-8.13-25.86-6.79-61.06,9.01-78.71,4.51-5.04,10.07-8.51,14.76-10.22v16.64c-4.59,6.63-9.45,15.16-11.24,25.85Z"/>
      <path class="cls-3" d="M363.45,315.15c2.62-39.25-3.73-53.01-5.52-56.62-7.19-14.5-13.28-11.3-24.19-26.82-14.2-20.21-23.13-52.91-13.48-74.72,5.8-13.12,17.09-20.36,17.81-19.47.61.75-6.34,7.39-9.93,18.3-5.94,18.04.78,37.14,2.24,41.3,10.08,28.64,28.7,23.15,44.48,49.34,16.68,27.68,14.76,65.53,8.06,90.01-7.24,26.44-24.05,46.45-28.08,43.93-3.73-2.33,5.84-23.79,8.61-65.24Z"/>
      <path class="cls-3" d="M340.48,360.96c4.22-14.41,6.9-14.74,8.86-24.35,3.15-15.42.04-33.11-8.87-45.49-10.55-14.66-19.78-8.77-35.52-22.71-15.9-14.08-27.27-43.28-20.49-64.93,5.38-17.19,21.12-25.73,22.71-23.75,1.9,2.36-17.37,18.58-16.02,40.53,1.09,17.74,15.1,30.16,19.91,34.43,18.19,16.14,28.32,6.83,41.53,19.24,17.61,16.55,21.43,53.32,14.26,79.13-6.92,24.89-25.25,46.05-30.12,44.25-4.52-1.67.15-24.05,3.75-36.35Z"/>
      <path class="cls-4" d="M382.84,325.16c.39-.2,8.55-4.26,15.99.42,5.35,3.36,6.67,8.95,6.92,10.09"/>
      <path class="cls-4" d="M346.95,351.68c.38-.22,8.38-4.59,15.99-.2,5.47,3.16,7.01,8.68,7.3,9.81"/>
      <path class="cls-4" d="M342.34,360.49c.38-.22,8.38-4.59,15.99-.2,5.47,3.16,7.01,8.68,7.3,9.81"/>
      <path class="cls-4" d="M350.33,340.02c4.04-3.73,9.83-4.91,14.98-3.03,5.26,1.92,8.97,6.72,9.52,12.32"/>
      <path class="cls-4" d="M348.77,308.21c.99-1.19,2.94-3.17,6.01-4.39,5.81-2.3,11.1-.07,12.23.44"/>
      <path class="cls-4" d="M362.4,273.82c1.14-.79,4.18-2.67,8.36-2.5,3.81.16,6.52,1.95,7.65,2.8"/>
      <path class="cls-4" d="M362.43,289.53c1.14-.79,4.18-2.67,8.36-2.5,3.81.16,6.52,1.95,7.65,2.8"/>
      <path class="cls-4" d="M356.77,256.33c.52-.57,4.44-4.72,10.26-3.99,5.6.7,8.59,5.38,9.03,6.09"/>
      <path class="cls-4" d="M348.17,246.25c.57-.84,4.38-6.26,11.16-6.81,6.76-.55,11.2,4.16,11.87,4.9"/>
      <path class="cls-4" d="M337.16,236.19c.3-1.06,2.28-7.62,7.99-10.23,5.8-2.65,13.07-.13,17.48,6.48"/>
      <path class="cls-4" d="M330.27,226.36c1.38-4.46,4.65-7.73,8.54-8.47,4.17-.79,7.36,1.65,8.05,2.21"/>
      <path class="cls-4" d="M322.32,209.67c.08-.31,1.49-5.44,5.76-6.68,2.25-.65,4.16.11,4.92.47"/>
      <path class="cls-4" d="M317.68,193.08c.73-3.42,2.9-6.01,5.56-6.6,1.95-.43,3.58.35,4.28.74"/>
      <path class="cls-4" d="M316.69,170.34c.49-.36,2.27-1.59,4.72-1.29,2.4.29,3.89,1.87,4.31,2.34"/>
      <path class="cls-4" d="M323.18,151.88c.13-.08,2.45-1.51,4.43-.15.76.52,1.17,1.25,1.39,1.72"/>
      <path class="cls-4" d="M347.7,382.28c.31-.31,6.95-6.55,15.42-4.22,6.09,1.67,8.98,6.64,9.54,7.65"/>
      <path class="cls-4" d="M345.47,391.96c.31-.31,6.95-6.55,15.42-4.22,6.09,1.67,8.98,6.64,9.54,7.65"/>
      <path class="cls-4" d="M349.12,369.52c.31-.31,6.95-6.55,15.42-4.22,6.09,1.67,8.98,6.64,9.54,7.65"/>
      <path class="cls-4" d="M347.87,328.51c.97-.96,4.15-3.88,9.24-4.52,5.63-.71,9.75,1.84,10.81,2.55"/>
      <path class="cls-4" d="M340.47,291.12c.27-.57,3.72-7.5,10.87-8.24,6.08-.63,10.19,3.7,10.81,4.37"/>
      <path class="cls-4" d="M330.26,281.92c.24-.66,3.28-8.61,10.98-10.38,6.79-1.56,11.83,2.91,12.52,3.54"/>
      <path class="cls-4" d="M316.86,275.59c.17-.88,1.17-5.83,5.43-8.83,4.82-3.39,9.82-1.49,10.46-1.23"/>
      <path class="cls-4" d="M307.86,270.83c-1.22-4.15.12-8.54,3-10.56,3.25-2.28,6.9-.45,7.2-.29"/>
      <path class="cls-4" d="M295.42,257.4c.22-3.79,2.33-6.95,5.21-7.93,2.95-1,5.49.71,5.92,1.01"/>
      <path class="cls-4" d="M287.4,242.1c.03-.19.67-4.41,3.99-5.84,2.06-.89,3.91-.17,4.44.06"/>
      <path class="cls-4" d="M282.51,215.15c.59-.45,2.31-1.63,4.7-1.53,1.96.08,3.38.98,3.99,1.44"/>
      <path class="cls-4" d="M287.21,196.87c.7-.16,2.25-.41,4.04.27,2.03.76,3.2,2.25,3.65,2.88"/>
      <path class="cls-4" d="M296.58,184.99c.26-.12,2.21-1.02,4.13.18,1.25.78,1.8,2.03,1.98,2.48"/>
      <path class="cls-4" d="M387.82,344.48c.98.2,2.74.7,4.52,2.04,1.6,1.21,2.52,2.58,3,3.42"/>
      <path class="cls-4" d="M385.99,364.89c.6.15,1.3.4,2.01.81,2.55,1.47,3.52,4,3.83,4.94"/>
      <path class="cls-4" d="M405.77,313.5c1.15.69,2.42,1.58,3.7,2.71,2.99,2.64,4.8,5.51,5.87,7.61"/>
      <path class="cls-4" d="M405.97,270.29c1.31.32,2.8.81,4.38,1.55,3.68,1.74,6.32,4.16,8.01,6.03"/>
      <path class="cls-4" d="M401.33,254.03c1.34.07,2.88.28,4.54.73,3.88,1.04,6.83,2.94,8.77,4.47"/>
      <path class="cls-4" d="M398.78,301.97c1.15.69,2.42,1.58,3.7,2.71,2.99,2.64,4.8,5.51,5.87,7.61"/>
      <path class="cls-4" d="M387.35,231.76c2.26-1.74,6.56-4.55,12.51-5.53,4.56-.75,8.36-.14,10.79.48"/>
      <path class="cls-4" d="M379.7,213.39c1.68-1.46,7.8-6.42,15.82-5.3,2.81.39,5.1,1.43,6.76,2.41"/>
      <path class="cls-4" d="M376.79,194.41c.21-.28,4.74-6.03,11.22-4.68,4.84,1,7.34,5.25,7.78,6.02"/>
      <path class="cls-4" d="M378.21,175.21c3.6-3.76,8.33-5.07,12.12-3.25,2.24,1.07,3.59,2.96,4.3,4.16"/>
      <path class="cls-4" d="M385.63,151.66c4-2.24,8.54-1.99,11.69.73,2.33,2.01,3.21,4.77,3.53,6.03"/>
      <path class="cls-4" d="M396.61,138.4c3.83-3.07,8.77-2.69,11.6.49,3.12,3.51,2.2,8.75,2.13,9.13"/>
      <path class="cls-3" d="M361.91,341.11c12.04-30.28,13.7-33.06,15.17-41.65.91-5.31,4.22-26.06-2.92-47.68-6.88-20.81-15.47-18.31-23.7-37.75-10.1-23.87-9.96-57.95,3.87-76.77,9.27-12.62,23.1-16.2,23.67-14.97.6,1.29-14.04,6.64-19.75,21.8-7.79,20.7,5.5,47.93,12.47,62.23,12.95,26.55,19.13,22.77,26.52,40.79,12.61,30.74,4.66,70.41-8.94,96.4-13.28,25.38-35.98,41.57-39.95,37.41-1.17-1.23-.45-4.59,13.55-39.82Z"/>
      <path class="cls-4" d="M364.07,335.48c.39-.2,8.55-4.26,15.99.42,5.35,3.36,6.67,8.95,6.92,10.09"/>
      <path class="cls-4" d="M363.14,356.42c.55-.26,7.95-3.64,14.86.61,5.18,3.19,6.55,8.49,6.81,9.59"/>
      <path class="cls-4" d="M369.52,323.02c.39-.22,8.32-4.51,15.91-.12,5.73,3.31,7.17,9.2,7.41,10.24"/>
      <path class="cls-4" d="M375.48,308.49c.48-.34,7.46-5.08,15.22-1.89,5.88,2.42,8.12,7.73,8.53,8.76"/>
      <path class="cls-4" d="M378.19,291.06c.44-.46,6.6-6.69,14.64-4.35,6.51,1.9,9.47,8.02,9.94,9.04"/>
      <path class="cls-4" d="M378.48,276.19c3.34-5.46,8.82-8.53,14.37-7.97,6.08.62,9.73,5.36,10.49,6.41"/>
      <path class="cls-4" d="M376.05,258.43c3.44-5.34,8.99-8.23,14.49-7.44,6.04.86,9.5,5.78,10.2,6.83"/>
      <path class="cls-4" d="M370.43,242.8c3.54-5.86,9.27-9.09,14.82-8.22,4.27.67,7.1,3.56,8.22,4.86"/>
      <path class="cls-4" d="M360.88,230.45c3.4-5.58,8.91-8.69,14.37-7.97,4.81.63,7.9,4.03,8.91,5.23"/>
      <path class="cls-4" d="M354.22,221.52c3.37-6,9.01-9.37,14.52-8.6,4.21.6,7.02,3.44,8.12,4.7"/>
      <path class="cls-4" d="M346.96,203.97c.65-.82,5.65-6.93,13.11-6.27,4.13.37,7.03,2.63,8.29,3.76"/>
      <path class="cls-4" d="M343.78,186.45c1.06-.97,5.17-4.46,10.89-3.97,3.07.26,5.38,1.56,6.67,2.45"/>
      <path class="cls-4" d="M343.88,167.24c1.29-.82,4.23-2.42,8.07-2.11,1.9.15,3.45.73,4.54,1.26"/>
      <path class="cls-4" d="M350.77,142.99c.15-.11,2.21-1.55,4.43-.39,1.8.94,2.37,2.89,2.46,3.21"/>
      <path class="cls-4" d="M358.69,132.15c1.18-.53,2.49-.3,3.39.6.98.99,1.04,2.37,1.04,2.63"/>
      <path class="cls-4" d="M367.78,125.46c.99-.51,2.1-.35,2.76.39.53.59.61,1.34.63,1.62"/>
      <g>
        <path class="cls-9" d="M325.57,491.47l.57-139.37c5.56-15.94,11.58-24.34,17.91-24.91.23-.02.46-.03.68-.03,4.8,0,8.49,4.79,13.17,10.84,3.13,4.05,6.67,8.64,11.37,12.99,10.02,9.29,22.29,14.51,36.48,15.52v124.95h-80.17Z"/>
        <path d="M344.73,327.29c4.73,0,8.41,4.76,13.07,10.8,3.13,4.06,6.68,8.65,11.38,13.01,10.01,9.28,22.27,14.51,36.44,15.55v124.71h-79.92s.29-69.35.29-69.35l.29-69.85c5.54-15.91,11.53-24.26,17.79-24.83.23-.02.45-.03.67-.03M344.73,327.04c-.23,0-.46.01-.69.03-7.86.71-13.87,13.1-18.02,25.03-.19,46.5-.38,93-.57,139.49,26.81,0,53.62,0,80.42,0v-125.19c-17.18-1.2-28.73-8.28-36.52-15.5-11.9-11.03-16.61-23.87-24.62-23.87h0Z"/>
      </g>
      <path class="cls-6" d="M325.92,395.34c2.97-1.54,7.89-3.51,13.83-2.97,15.53,1.42,21.5,18.54,36.47,25.32,6.13,2.78,15.76,4.73,29.65-1.48"/>
      <path class="cls-6" d="M325.92,428.45c3.1-1.52,7.96-3.34,13.83-2.97,14.86.93,21.41,14.92,35.61,21.98,6.55,3.25,16.5,5.92,30.51,1.86"/>
      <path class="cls-6" d="M325.56,463.87c4.54-1.87,11.45-3.82,19.41-2.18,13.7,2.82,18.55,13.83,31.8,19.11,6.09,2.43,15.27,4.18,27.98,0"/>
      <path class="cls-6" d="M325.92,368.32c4.05-4.49,10.29-9.83,17.67-9.1,13.57,1.34,18.46,21.99,34.27,31.23,5.95,3.48,15.01,6.25,27.9,1.64"/>
    </g>
  </g>
</svg>