<?xml version="1.0" encoding="UTF-8"?>
<svg id="Layer_2" data-name="Layer 2" xmlns="http://www.w3.org/2000/svg" viewBox="0 0 103.04 106.22">
  <defs>
    <style>
      .cls-1 {
        fill: #fff;
      }
    </style>
  </defs>
  <g id="Capa_1" data-name="Capa 1">
    <g>
      <ellipse class="cls-1" cx="51.52" cy="28.03" rx="5.13" ry="5.12" transform="translate(-4.73 44.64) rotate(-45)"/>
      <path class="cls-1" d="M69.35,16.46c.42.02.52.13.86.09,1.5-.2,2.32-2.72,2.51-3.22.36-.99,1.82-3.82,12.98-8.21C96.38.91,103.09.35,103.04.02c-.07-.45-30.61,5.45-35.8,11.74-.48.58-1.41,1.97-3.25,3.74-2.56,2.45-4.68,3.51-4.41,4.35.18.56,1.19.29,2.57.96,2.61,1.27,3.43,4.54,3.51,4.89.97,4.18-1.91,8.73-4.9,9.8-.69.25-1.08.19-1.46.63-1.35,1.56,1.38,4.4.04,7.01-.74,1.43-2.37,2.2-2.7,2.34-1.57.7-2.32.17-2.87.8-.97,1.15,1.32,3.12.71,6.17-.05.25-.57,2.71-2.52,3.88-.17.1-.33.18-.47.24-.12-.06-.26-.12-.4-.21-1.96-1.17-2.47-3.63-2.52-3.88-.61-3.05,1.68-5.02.71-6.17-.55-.63-1.3-.1-2.87-.8-.32-.14-1.96-.91-2.7-2.34-1.34-2.61,1.39-5.46.04-7.02-.38-.44-.77-.38-1.46-.62-2.99-1.07-5.87-5.62-4.9-9.8.08-.36.91-3.62,3.51-4.89,1.39-.68,2.39-.4,2.57-.97.27-.84-1.84-1.9-4.41-4.35-1.84-1.77-2.77-3.15-3.25-3.74C30.61,5.51.07-.4,0,.05c-.05.32,6.65.89,17.34,5.1,11.16,4.39,12.62,7.22,12.98,8.21.18.5,1,3.02,2.5,3.22.34.04.45-.06.86-.09,1.48-.08,3.24,1.14,3.52,2.22.54,2-3.64,5.04-6.94,6.45-1.34.57-6.4,2.73-11.34.72-3.33-1.36-5.16-4.02-6.05-3.41-.48.32-.19,1.24.07,3.16.42,3.08,1.05,7.79-1.06,10.69-.85,1.17-1.87,1.65-2.22,1.88-7.18,4.65,17.58,61.44,17.72,61.38.11-.06-18.13-40.47-13.15-57.09.2-.67,2.26-7.34,5.19-7.4,1.63-.03,2.36,2.25,6.14,3.69,1.91.73,2.06.28,3.26.87,1.13.56,3.46,2.17,5.07,9.38,1.06,4.77.39,6.91,1.04,9.44,2.17,8.41,8.9,11.86,12.62,15.46-.29.24-.56.41-.7.49-1.64.97-2.93.27-3.32.99-.7,1.29,2.82,3.98,2.03,5.54-.53,1.06-2.22.41-3.11,1.45-2.1,2.45,4,10.13,2.52,11.47-.91.82-3.75-1.57-4.49-.78-.62.67.61,3.26,2.55,4.97,1.5,1.33,2.47,1.29,3.97,2.27,1.37.89,3.06,2.55,4.24,5.9.85-3.01,2.25-4.53,3.32-5.35,1.97-1.51,3.4-1.09,5.43-2.85,1.98-1.72,3.15-4.32,2.54-4.97-.75-.81-3.92,1.84-4.84.99-1.44-1.33,4.95-9.16,2.87-11.62-.87-1.03-2.58-.39-3.11-1.45-.78-1.56,2.74-4.24,2.03-5.54-.39-.72-1.68-.02-3.32-.99-.14-.08-.42-.26-.73-.52,3.72-3.61,10.48-7.06,12.65-15.49.65-2.53-.02-4.67,1.04-9.44,1.61-7.21,3.94-8.82,5.07-9.38,1.2-.59,1.35-.15,3.26-.87,3.79-1.44,4.51-3.72,6.15-3.69,2.93.06,4.98,6.73,5.18,7.4,4.98,16.61-13.27,57.03-13.15,57.09.13.07,24.9-56.73,17.72-61.38-.35-.23-1.37-.71-2.22-1.88-2.11-2.9-1.48-7.61-1.06-10.69.26-1.93.54-2.84.07-3.16-.89-.61-2.72,2.05-6.05,3.41-4.94,2.01-10-.15-11.34-.72-3.31-1.41-7.48-4.44-6.94-6.45.29-1.07,2.04-2.29,3.52-2.21ZM46.27,68.88c-3.41-1.48-6.84-4.94-7.55-9.25-.26-1.61.14-1.57-.14-6.12-.12-1.94-.18-3.02-.36-4.57-.42-3.58-.85-4.5-.42-4.77.78-.49,3.89,1.5,4.79,4.46.92,3.03-1.16,4.76.09,6.77,1.17,1.87,3.48,1.15,4.43,3.07.76,1.55-.39,2.41-.23,4.73.09,1.28.67,2.34,1.35,3.2-.55.03-.97,0-1.18.33-.4.63.63,1.61,1.31,2.82-.67-.14-1.41-.38-2.1-.68ZM64.82,48.91c-.18,1.55-.25,2.64-.37,4.57-.28,4.55.13,4.52-.14,6.12-.7,4.31-4.14,7.77-7.55,9.25-.68.3-1.4.53-2.06.67.68-1.19,1.66-2.14,1.27-2.76-.21-.33-.65-.3-1.22-.33.7-.88,1.31-1.95,1.39-3.26.15-2.32-.99-3.18-.23-4.73.95-1.93,3.26-1.2,4.43-3.08,1.25-2.01-.83-3.74.09-6.77.9-2.96,4.01-4.95,4.79-4.46.43.27,0,1.19-.42,4.77Z"/>
    </g>
  </g>
</svg>