<?xml version="1.0" encoding="UTF-8"?>
<svg id="Layer_2" data-name="Layer 2" xmlns="http://www.w3.org/2000/svg" viewBox="0 0 404.7 263.3">
  <defs>
    <style>
      .cls-1, .cls-2 {
        stroke: #fff;
      }

      .cls-1, .cls-2, .cls-3, .cls-4 {
        stroke-miterlimit: 10;
        stroke-width: .25px;
      }

      .cls-1, .cls-3 {
        fill: #fff;
      }

      .cls-3, .cls-4 {
        stroke: #000;
      }

      .cls-4 {
        fill: none;
      }
    </style>
  </defs>
  <g id="Capa_1" data-name="Capa 1">
    <g>
      <path class="cls-2" d="M404.57.13h-99.68s0,51.48,0,51.48h-3.95c-.75-3.26-1.51-6.52-2.27-9.78H103.71c-1.26,3.26-2.52,6.52-3.78,9.78h-2.45V.13s-96.8,0-96.8,0v120c27.44-8.24,54.88-16.48,82.32-24.72-21.58,55.83-43.16,111.66-64.73,167.48,110.61.1,221.22.19,331.83.29-.02-.09-.05-.19-.07-.29h54.54s0-262.76,0-262.76ZM360.76,154.96c-10.8,4.86-21.61,9.73-32.41,14.59l-1.96-8.44c-2.85-12.28-5.71-24.56-8.56-36.84,14.5,6.99,29.01,13.99,43.51,20.98-.19,3.24-.38,6.47-.58,9.71Z"/>
      <rect class="cls-2" x=".13" y=".13" width="404.44" height="31.78"/>
      <rect class="cls-2" x=".13" y=".13" width="404.44" height="7.27"/>
      <rect class="cls-2" x=".13" y="53.86" width="404.44" height="23.57"/>
      <rect class="cls-2" x=".13" y="103.81" width="404.44" height="24.71"/>
      <rect class="cls-2" x=".13" y="155.7" width="404.44" height="31.28"/>
      <rect class="cls-2" x=".13" y="186.66" width="404.44" height="17.41"/>
      <path class="cls-2" d="M83.01,95.4c-21.58,55.83-43.16,111.66-64.73,167.48H.68V120.13c27.44-8.24,54.88-16.48,82.32-24.72Z"/>
      <path class="cls-2" d="M361.33,145.26c-11.65,5.29-23.3,10.57-34.95,15.86-2.85-12.28-5.71-24.56-8.56-36.84,14.5,6.99,29.01,13.99,43.51,20.98Z"/>
      <path class="cls-1" d="M326.38,161.11c-74.76,33.93-149.53,67.85-224.29,101.77H18.27c21.58-55.82,43.16-111.65,64.73-167.48,35.94-10.79,71.87-21.59,107.81-32.38,42.34,20.42,84.68,40.83,127.01,61.25,2.85,12.28,5.71,24.56,8.56,36.84Z"/>
      <path class="cls-2" d="M361.33,145.26c-.19,3.24-.38,6.47-.58,9.71-10.8,4.86-21.61,9.73-32.41,14.59-4.31,1.94-8.62,3.88-12.93,5.82-7.06,3.18-14.11,6.35-21.16,9.53-4.12,1.85-8.25,3.71-12.37,5.57-53.21,23.95-106.42,47.9-159.63,71.85-6.72.19-13.44.38-20.16.57,74.76-33.92,149.53-67.85,224.29-101.77,11.65-5.28,23.3-10.57,34.95-15.86Z"/>
      <path class="cls-3" d="M236.17,169.16c-27.3-13.55-54.61-27.09-81.91-40.64-18.54,9.19-37.08,18.39-55.63,27.58,22.66,17.7,45.32,35.4,67.98,53.11,23.19-13.35,46.37-26.7,69.56-40.05Z"/>
      <path class="cls-3" d="M229.62,169.79c-.32-2.54-.63-5.07-.95-7.61-24.8-11.22-49.6-22.44-74.4-33.66-18.54,9.19-37.08,18.39-55.63,27.58,22.42,16.27,44.84,32.55,67.26,48.82,21.24-11.71,42.48-23.42,63.72-35.13Z"/>
      <path class="cls-3" d="M164.31,198.36c-22.28-17.13-44.55-34.26-66.83-51.39,21.63-8.04,43.26-16.08,64.89-24.12,23.89,12.9,47.79,25.8,71.68,38.7-23.25,12.27-46.5,24.54-69.75,36.81Z"/>
      <path d="M164.31,198.36c-22.28-17.13-44.55-34.26-66.83-51.39.38,3.05.77,6.09,1.15,9.14-2.52,1.63-5.03,3.27-7.55,4.9,23.58,18.4,47.15,36.79,70.73,55.19,22.81-12.88,45.63-25.77,68.44-38.65,1.97-2.8,3.94-5.59,5.91-8.39-23.19,13.35-46.37,26.7-69.56,40.05-.77-3.62-1.54-7.23-2.3-10.85Z"/>
      <path class="cls-2" d="M315.54,262.89c-6.63,0-13.25,0-19.88,0-.47-26-.94-51.99-1.41-77.99,7.05-3.18,14.11-6.35,21.16-9.53.04,29.17.08,58.34.12,87.52Z"/>
      <path class="cls-2" d="M284.43,262.89h11.69c-.47-26-.94-51.99-1.41-77.99-4.28,1.86-8.55,3.71-12.83,5.57.85,24.14,1.7,48.28,2.55,72.42Z"/>
      <path class="cls-1" d="M284.43,262.89h11.69c-.14-7.99-.29-15.98-.43-23.97-4.21-5.14-8.43-10.29-12.64-15.43.46,13.13.92,26.27,1.39,39.4Z"/>
      <rect class="cls-2" x="94.19" y=".13" width="214" height="51.48"/>
      <rect class="cls-2" x="86.11" y=".13" width="231.07" height="58.06"/>
      <rect class="cls-2" x="94.64" y=".13" width="214" height="51.48"/>
      <path class="cls-3" d="M298.67,41.83c3.17,3.26,6.35,6.52,9.52,9.78H94.19c3.17-3.26,6.35-6.52,9.52-9.78,64.99,0,129.97,0,194.96,0Z"/>
      <rect class="cls-2" x="103.71" y=".13" width="194.96" height="41.7"/>
      <rect class="cls-4" x=".68" y=".13" width="403.89" height="262.76"/>
      <g>
        <path class="cls-4" d="M154.72,145.41c3.28,1.87,3.63,5.51.74,8.23-2.92,2.78-7.85,3.27-10.96,1-3.09-2.33-3.33-6.22-.58-8.6,2.73-2.32,7.55-2.56,10.81-.63Z"/>
        <path class="cls-4" d="M137.9,154.79c-1.52,2.25-1.97,4.97-1.38,7.57"/>
        <path class="cls-4" d="M156.38,166.61c.29-.26.58-.53.85-.81,4.76-4.85,4.42-10.98-.66-13.93-5.02-3.09-12.54-2.63-16.9,1.26-.55.5-1.03,1.04-1.44,1.6"/>
        <path class="cls-4" d="M162.67,154.36c1.41.78,1.52,2.42.24,3.7-1.29,1.29-3.46,1.66-4.84.81-1.38-.86-1.47-2.55-.21-3.77,1.25-1.2,3.41-1.53,4.82-.74Z"/>
        <path class="cls-4" d="M167.2,159.68c.29.16.31.51.04.79-.27.28-.73.37-1.02.21-.29-.16-.31-.51-.04-.79.27-.27.72-.37,1.02-.21Z"/>
        <path class="cls-4" d="M160.85,156.13c.29.17.31.51.05.77-.26.26-.71.33-1,.16-.29-.17-.31-.52-.05-.77.26-.26.71-.33,1-.16Z"/>
        <path class="cls-4" d="M170.86,161.6c.29.15.31.51.04.79-.28.29-.74.4-1.03.24-.29-.16-.31-.51-.03-.8.27-.28.73-.39,1.03-.24Z"/>
        <path class="cls-4" d="M150.1,149.53c.28.18.31.51.06.74-.25.23-.68.26-.96.07-.28-.19-.31-.52-.06-.74.25-.22.68-.25.96-.07Z"/>
        <line class="cls-4" x1="140.29" y1="143.45" x2="176.38" y2="165.16"/>
        <line class="cls-4" x1="147.72" y1="134.5" x2="149.65" y2="149.92"/>
      </g>
    </g>
  </g>
</svg>