<?xml version="1.0" encoding="UTF-8"?>
<svg id="Layer_2" data-name="Layer 2" xmlns="http://www.w3.org/2000/svg" viewBox="0 0 404.04 203.98">
  <defs>
    <style>
      .cls-1 {
        stroke-width: .25px;
      }

      .cls-1, .cls-2 {
        fill: #fff;
        stroke: #000;
        stroke-miterlimit: 10;
      }

      .cls-2 {
        stroke-width: .5px;
      }
    </style>
  </defs>
  <g id="Capa_1" data-name="Capa 1">
    <g>
      <rect x=".25" y="0" width="399.11" height="203.85"/>
      <path class="cls-1" d="M403.92.19v203.67H129.48c-10.18-8.47-47.69-41.73-57.31-99.34C63.5,52.58,82.82,12.67,89.5.19h314.41Z"/>
      <path class="cls-2" d="M307.54,108.74c-1.8,6.97-89.24-25.53-138.79-19.46-14.19,1.74-25.27,6.64-30.34,16.53-3.4,6.64-.87,9.24-3.87,17.59C120.51,162.42,42.45,168.74.25,164.21v-20.46c13.67-4.17,27.35-9.03,27.13-15.96-.2-6.2-11.5-13.2-27.13-17.8v-28.74c41.69-4.12,50.36-18.6,116.22-20.89,14.71-.51,34.65-.5,58.18,2.23h0c22.19,2.57,47.58,7.57,74.8,16.83,32.92,11.2,59.1,25.43,58.1,29.32Z"/>
    </g>
  </g>
</svg>