<?xml version="1.0" encoding="UTF-8"?>
<svg id="Layer_2" xmlns="http://www.w3.org/2000/svg" version="1.1" viewBox="0 0 402.8 157.2">
  <!-- Generator: Adobe Illustrator 29.0.1, SVG Export Plug-In . SVG Version: 2.1.0 Build 192)  -->
  <defs>
    <style>
      .st0 {
        stroke-width: .5px;
      }

      .st0, .st1 {
        stroke: #fff;
      }

      .st0, .st1, .st2, .st3 {
        stroke-miterlimit: 10;
      }

      .st0, .st1, .st3 {
        fill: none;
      }

      .st1, .st2, .st3 {
        stroke-width: .2px;
      }

      .st2 {
        fill: #fff;
      }

      .st2, .st3 {
        stroke: #000;
      }
    </style>
  </defs>
  <g id="Capa_1">
    <g>
      <path d="M22.1,34c3.4,0,4.4.3,7.7.3,3.1,0,4-.3,7-.5,5-.3,7.5.3,14.6.6,8.9.4,15.6,0,15.6,0,0,0-7,.6-15.4.3-6.4-.2-7.6-.7-12.7-.6-4.6.1-5.3.5-9.7.5-2.9,0-4-.2-8.2-.3-2.8,0-4.5,0-4.6,0-.1,0,2.6-.4,5.7-.5h0Z"/>
      <path d="M99.4,10.2c3.4,0,4.4.3,7.7.3,3.2,0,4-.3,7-.4,5.1-.3,7.5.3,14.6.6,8.9.4,15.6,0,15.6,0,0,0-7,.6-15.4.4-6.4-.2-7.6-.7-12.7-.6-4.6.1-5.3.6-9.7.5-2.9,0-4-.2-8.2-.3-2.8,0-4.5,0-4.6,0,0,0,2.6-.4,5.7-.4h0Z"/>
      <g>
        <path d="M76,93.2c4.6-1.2,5.8-1.1,6.7-.9,2.3.3,2.7,1.6,5.5,2.4,2.7.8,6.4,1.7,10.9,2.2,3.2.3,6.1.3,8.5.2,5.1-.3,8.1-1.1,8.2-.8.1.4-5.9,3.1-12,4.4-17.7,4-35.2-2.9-35-5.2,0-.5,2.4-1.1,7.2-2.3Z"/>
        <path class="st2" d="M76.2,94.4c-.7-2.3,0-5.6,1.7-7.1,3-2.5,6.5,2,13.1,0,2.4-.8,3.6-1.9,5.7-1.4,1.4.3,2.3,1.1,5,1.9,1.3.4,2.2.5,2.5.6,4.3,1.3,11.7,4.9,11.4,7.9-.4,3.9-15.2,5.8-27.1,4.1-10.8-1.6-12.2-5.2-12.4-6h0Z"/>
        <path class="st2" d="M76.2,94.4c-.8-1.9-.1-3.9,0-4.2.4-1.4,1.3-2.3,1.8-2.8.6.4,1.3,1,1.9,1.9,1.1,1.8.5,2.9,1.2,4.6,1,2.4,4.1,3.5,6.3,3.5,1.9,0,2-.9,4.3-1.4,2.6-.6,3.7.3,7.5.8,2.8.4,4.9.3,8.5.2,3.2-.1,6-.4,8.2-.8,0,0,0,.2-.1.4-.7,2-3.1,2.9-5.4,3.4-7.8,1.7-21.5.2-21.5.2,0,0-10.4-1.2-12.4-6h0Z"/>
      </g>
      <g>
        <path d="M302.6,75.2c2.8-.7,3.9-.9,5.3-.7,2,.3,2.5,1.4,4.7,2.1,2.3.7,5.5,1.5,9.4,1.9,2.8.3,5.2.3,7.3.2,4.6-.2,7-.9,7-.7,0,.4-7.2,3.6-16.2,4.3-6.1.5-10.4-.4-18.1-1.9-7.2-1.4-7.5-2.3-7.5-2.6,0-.7,2.7-1.3,8-2.7h0Z"/>
        <path class="st2" d="M302.3,76.4c-.6-2,0-4.6,1.5-6.1,1.5-1.6,3.2-1.3,6.7-1.6,8.3-.7,8.4-2.7,12.2-1.8,4,1,4.5,4.5,8.2,5.3,1.3.3,1.6,0,2.5.4,1.8,1,3.1,3.7,2.7,5.5-1.3,5.7-21.4,3.8-23.3,3.5-9.3-1.4-10.5-4.4-10.7-5.2h0Z"/>
        <path class="st2" d="M302.3,76.4c-.7-2.2.5-4.6,1.5-6.1.8,1.4,2,3.2,4.1,4.2,2.3,1.1,3.4.1,6.6.8,3.7.8,3.6,2.3,7.5,3.2,1.9.4,3.7.3,7.3.2,2.8,0,5.1-.4,7-.7,0,0,0,.2-.1.3-.6,1.7-2.6,2.5-4.7,3-9.5,2.1-18.5.2-18.5.2-6.1-1.3-9.8-2.2-10.7-5.2h0Z"/>
      </g>
      <g>
        <path d="M24.5,125.1c.5,0,1.6-.3,2.8.1s1.4,1.2,2.7,1.7c1.3.6,3.2,1.2,5.4,1.5,1.5.2,2.8.2,3.9.2,2.6-.2,4.1-1,4.3-.6.2.4-.9,1.8-2.1,2.8-5.1,3.9-12.8,1.1-16.2-.1-1.9-.7-5-1.8-4.9-3.2,0-1.2,2.5-2.2,4.1-2.4h0Z"/>
        <path class="st2" d="M24.1,126.8c-.4-1.7.2-3.8.9-5,1.3-2.4,2.9-1.7,8-3,4.1-1,4.3-1.8,5.6-1.2,3.1,1.3,5.8,7.1,5,10.5-1.3,5.5-11.4,3.3-13.4,2.9-5.3-1.1-6-3.5-6.1-4.2h0Z"/>
        <path class="st2" d="M24.1,126.8c-.1-.6-.2-1.6,0-2.8.2-.9.5-1.7.8-2.3.4,1,1.2,2.3,2.3,3.5,0,0,.2.2.3.3,0,0,1.1,1,2.4,1.5,2.1.7,4.1-2.2,6.6-1.1,1.5.7,1.4,2.1,3,2.8,1.5.7,3,0,4-.5,0,0,0,.2,0,.3-.4,1.4-1.5,2.1-2.7,2.4-4.9,1.6-10.6.2-10.6.2-2-.6-5.7-1.8-6.1-4.2h0Z"/>
      </g>
      <g>
        <path d="M41.4,16.6c.7,0,1.2.2,1.9.5.9.4,1.2.8,1.9,1.1.9.4,2.2.8,3.7,1,3.5.5,5.7-.5,5.7-.2,0,.1-4.2,2-9.3,1.8-2.7-.1-6.7-.9-6.8-2.2,0-.8,1.5-1.9,2.9-1.9h0Z"/>
        <path class="st2" d="M41.1,18.1c-.3-1.1.1-2.4.6-3.1.9-1.5,2-1.1,5.5-1.9,2.8-.6,3-1.1,3.9-.7,2.1.8,4,4.4,3.5,6.6-.9,3.5-7.9,2.1-9.3,1.8-3.7-.7-4.1-2.2-4.2-2.7Z"/>
        <path class="st2" d="M41.1,18.1c-.3-1.1.2-2.4.6-3.1.3.6.8,1.5,1.6,2.2,0,0,.1.1.2.2,0,0,.8.6,1.7.9,1.5.5,2.8-1.4,4.5-.7,1,.4,1,1.3,2.1,1.7,1.1.4,2.1,0,2.8-.3,0,0,0,.1,0,.2-.2.9-1,1.3-1.9,1.5-3.8,1.1-7.4.1-7.4.1-2.4-.7-3.9-1.1-4.2-2.7h0Z"/>
      </g>
      <g>
        <path d="M83.2,42.3c1.4,0,2.7.4,4,.8,1.9.6,2.5,1.3,4,1.8,1.9.6,4.7,1.2,8,1.6,7.5.8,12.1-.8,12.2-.4,0,.2-8.9,3.4-19.8,3-5.7-.2-14.4-1.5-14.5-3.6,0-1.3,3.3-3.1,6.2-3.2h0Z"/>
        <path class="st2" d="M82.4,44.7c-.5-1.7.4-3.5,1.3-5.2.7-1.5,2.4-4.8,5.3-5.5,2.1-.4,2.8,1,8.5,2.9,2.2.7,2.4.6,3.8,1.1,4.3,1.5,10.5,5.4,10.1,8.1-.5,3.5-12,4.2-19.8,3-7.9-1.2-8.9-3.6-9.1-4.4h0Z"/>
        <path class="st2" d="M82.4,44.7c-.6-1.9.5-3.9,1.3-5.2.7,1,1.8,2.4,3.4,3.6,0,0,.2.2.4.3.8.3,2.1.8,3.6,1.5,3.8,1.8,3.9,2.6,5.7,3.1,2.5.7,3.5-.5,8.5-1.3,2.5-.4,4.6-.5,6-.6,0,0,0,.2,0,.3-.5,1.5-2.2,2.1-4,2.5-8.1,1.8-15.8.2-15.8.2-5.2-1.1-8.3-1.8-9.1-4.4Z"/>
      </g>
      <path d="M16.9,89.8c3,0,3.9.2,6.8.2,2.8,0,3.5-.2,6.2-.3,4.5-.2,6.6.2,12.8.4,7.8.2,13.7,0,13.8,0,0,0-6.2.4-13.5.2-5.6-.1-6.7-.4-11.2-.4-4.1,0-4.6.3-8.5.3-2.6,0-3.5-.2-7.2-.2-2.4,0-3.9,0-4,0,0,0,2.2-.3,5-.3h0Z"/>
      <path d="M347.3,108.9c4.2,0,5.5.3,9.5.3,3.9,0,4.9-.3,8.7-.4,6.2-.3,9.2.3,18,.6,11,.4,19.3,0,19.3,0,0,0-8.6.6-19,.3-7.9-.2-9.4-.7-15.7-.6-5.7.1-6.5.6-12,.5-3.6,0-4.9-.2-10.2-.3-3.5,0-5.5,0-5.6,0-.1,0,3.2-.4,7-.4h0Z"/>
      <path d="M284.2,28.8c3.1,0,4,.1,6.9.1,2.8,0,3.6-.1,6.3-.2,4.6-.1,6.8.1,13.2.3,8,.2,14.1,0,14.1,0s-6.3.3-13.9.1c-5.8,0-6.8-.3-11.5-.2-4.2,0-4.8.2-8.8.2-2.6,0-3.6-.1-7.4-.1-2.5,0-4,0-4.1,0,0,0,2.3-.2,5.1-.2h0Z"/>
      <path d="M398.6,56.5c-13.3-.2-15.8-.8-26.5-.6-9.6.1-10.9.6-20.2.5-6,0-8.2-.3-17.1-.3-5.8,0-9.3,0-9.5,0-.2,0,5.3-.5,11.8-.5,7.1,0,9.2.3,16,.3,6.5,0,8.3-.3,14.6-.5,10.5-.3,15.5.3,30.3.7l.5.4h0Z"/>
      <path d="M76.1,142.6c2.3,0,3,.3,5.2.3,2.1,0,2.7-.3,4.8-.4,3.4-.3,5.1.3,9.9.6,6.1.4,10.6,0,10.6,0,0,0-4.8.6-10.4.3-4.3-.2-5.2-.7-8.7-.6-3.1.1-3.6.5-6.6.5-2,0-2.7-.2-5.6-.3-1.9,0-3.1,0-3.1,0,0,0,1.7-.4,3.9-.4h0Z"/>
      <g>
        <path d="M349.4,137.9c1.9-.2,2-.6,3-.5,1.5,0,2,1.1,3.5,1.6,1.7.5,4.1,1.1,6.9,1.4,2.1.2,3.9.2,5.4.1,3.3-.2,5.1-.7,5.2-.5,0,.3-4.4,2.4-9.7,3.2-10.3,1.6-20.2-2.2-20.1-3.7,0-.5,1.5-.9,2.3-1.2,1.3-.4,1.7-.1,3.6-.4h0Z"/>
        <path class="st2" d="M348.3,138.8c-.5-1.9.8-3.9,1.1-4.5,1.4-2.2,3.4-2.9,4.5-3.2.2,0,.4-.1.6-.1,2.4-.4,3.9,1.5,6.4,2.8,1.5.8,1.5.4,4.1,1.4,3.5,1.3,8.5,3.2,8.4,4.8-.1,2.2-9.2,3.7-17.2,2.6-2.9-.4-7.1-1.1-7.9-3.8h0Z"/>
        <path class="st2" d="M348.3,138.8c-.2-.8-.3-2.3,1.1-4.5.3.4.7.9,1.2,1.5.8.9,1.8,1,1.8,1.6,0,.4-.3.5-.3.7.1.9,5.3-.6,10.8.9,2.2.6,2.9,1.3,5.2,1.5,2.1.2,4-.1,5.2-.5,0,0,0,.1,0,.3-.6,1.6-2.7,2-3.4,2.2-2.5.5-20,2.8-21.5-3.6h0Z"/>
      </g>
      <g>
        <path d="M328.5,11c1.1-.1,1.2-.3,1.7-.3.8,0,1.1.6,2,.9,1,.3,2.4.6,4,.8,1.2.1,2.2.1,3.1,0,1.9-.1,3-.4,3-.3,0,.2-2.6,1.4-5.6,1.8-6,.9-11.8-1.3-11.7-2.1,0-.3.8-.6,1.3-.7.8-.2,1,0,2.1-.2h0Z"/>
        <path class="st2" d="M327.8,11.5c-.3-1.1.4-2.3.6-2.6.8-1.3,2-1.7,2.6-1.9.1,0,.2,0,.3,0,1.4-.2,2.2.8,3.7,1.6.9.4.9.3,2.4.8,2,.8,4.9,1.9,4.9,2.8,0,1.3-5.4,2.2-10,1.5-1.7-.2-4.1-.6-4.6-2.2h0Z"/>
        <path class="st2" d="M327.8,11.5c-.1-.5-.1-1.3.6-2.6.2.2.4.5.7.9.5.5,1,.6,1.1,1,0,.2-.2.3-.2.4,0,.5,3.1-.4,6.3.5,1.3.4,1.7.7,3,.9,1.2.1,2.3,0,3-.3,0,0,0,0,0,.1-.3.9-1.5,1.2-2,1.3-1.4.3-11.6,1.6-12.5-2.1h0Z"/>
      </g>
      <g>
        <path d="M370.3,35.1c1.3,0,2.3.3,3.5.7,1.7.5,2.2,1.2,3.5,1.6,1.7.5,4.1,1.1,7,1.4,6.6.7,10.7-.7,10.7-.3,0,.2-7.8,3-17.5,2.6-5.1-.2-12.7-1.3-12.8-3.2,0-1.2,2.9-2.8,5.5-2.8h0Z"/>
        <path class="st2" d="M369.7,37.2c-.5-1.5,0-3.6,1.1-4.6,1.9-1.5,4.3,1.3,8.4,0,1.1-.4,1.5-.7,2.5-.8,1.2,0,1.8.4,4.4,1.1.9.2,1.3.3,1.6.4,2.8.9,7.6,3.1,7.4,5.1-.2,2.5-9.8,3.8-17.5,2.6-7-1-7.9-3.3-8-3.9h0Z"/>
        <path class="st2" d="M369.7,37.2c-.3-.9-.3-2.3,1.1-4.6.6.6,1.6,1.7,3,3.2,1.1,1.1,1.9,1.9,3.1,2.1.4,0,.8,0,1,0,4-.3,5.3-.5,6.5-.5,2.6,0,2.5,1.1,5.5,1.5,2.2.3,4.1-.1,5.3-.5,0,0,0,.2,0,.3-.5,1.3-2,1.9-3.5,2.2-5,1.1-13.9.2-13.9.2,0,0-6.9-.7-8-3.9h0Z"/>
      </g>
      <path d="M171.2.1h108.1l-6.9,7.5-19.2,6.3c2.9,3.9,5.8,7.8,8.7,11.7l-.2,7.9c-9,2.2-18,4.5-27,6.7l25.5,6.2c4.4,2,8.7,4.1,13,6.1-10.9,6.4-21.7,12.8-32.6,19.1,17.1,5.1,34.3,10.2,51.4,15.3,7,4.6,14,9.1,21,13.7-4.1,4-8.3,8.1-12.4,12.1-13.4,4.5-26.9,9-40.3,13.5l51.8,13.7c9.7,5.9,19.5,11.7,29.2,17.6H119c2.8-5.7,5.6-11.4,8.4-17.1,10.4-6.3,20.8-12.5,31.1-18.8l-37.4-37.3c4.5-3.9,9-7.8,13.6-11.7l43.9-16.8c-9.6-2.1-19.1-4.3-28.7-6.4-1.5-4-3-7.9-4.5-11.9,4.4-4.1,8.7-8.3,13.1-12.4l21.5-9.6c-8.7-1.6-17.4-3.3-26.2-4.9,5.8-3.5,11.7-7,17.5-10.5h0Z"/>
      <path class="st0" d="M141.7,157.7c2.1-3,4.1-6.1,6.2-9.1,3.4-9,6.8-17.9,10.2-26.9"/>
      <path class="st0" d="M151.6,117.4c1.2-6.9,2.3-13.8,3.5-20.8,7.6-13.5,15.1-27,22.7-40.5"/>
      <path class="st0" d="M160,53.2c.6-2.5,1.3-5.1,1.9-7.6,6-10,12-20,18-30"/>
      <path class="st0" d="M158.2,23.9c-1.6,9-3.3,18-5,27"/>
      <path class="st0" d="M170.8,1.2c-.8,6.2-1.6,12.4-2.5,18.7"/>
      <path class="st0" d="M134.6,70.8c-.5,9.3-1.1,18.6-1.6,27.9"/>
      <path class="st0" d="M291.7,86.4c.3,11.5.5,22.9.8,34.4"/>
      <path class="st1" d="M313.4,138.8c-.2,9.1-.3,18.2-.5,27.3"/>
      <path class="st0" d="M127.6,136.3c-.5,9.3-1.1,18.6-1.6,27.9"/>
      <path class="st0" d="M260.9,46.5c-.2,6.8-.4,13.5-.6,20.3"/>
      <path class="st0" d="M255.9,36c-.9-7.3-1.8-14.7-2.6-22"/>
      <path class="st0" d="M249.9,69.6c-.2-3.9-.5-7.8-.7-11.7-4.8-5.9-9.6-11.8-14.4-17.7"/>
      <path class="st0" d="M273,123.1c-2.4-8.5-4.7-17-7.1-25.5-8.4-8.6-16.8-17.3-25.2-25.9"/>
      <path class="st0" d="M292.5,157.2c-1.6-2.9-3.2-5.7-4.7-8.5-8.6-7.3-17.3-14.6-26-22"/>
      <rect class="st3" x=".1" y=".1" width="402.5" height="157.5"/>
    </g>
  </g>
</svg>