<?xml version="1.0" encoding="UTF-8"?>
<svg id="Layer_2" xmlns="http://www.w3.org/2000/svg" version="1.1" viewBox="0 0 403.4 204">
  <!-- Generator: Adobe Illustrator 29.0.1, SVG Export Plug-In . SVG Version: 2.1.0 Build 192)  -->
  <defs>
    <style>
      .st0 {
        stroke-width: .2px;
      }

      .st0, .st1 {
        fill: #fff;
        stroke: #000;
        stroke-miterlimit: 10;
      }

      .st1 {
        stroke-width: .5px;
      }
    </style>
  </defs>
  <g id="Capa_1">
    <g>
      <rect x="-.4" width="399.1" height="203.9"/>
      <path class="st0" d="M403.3.2v203.7H128.8c-10.2-8.5-47.7-41.7-57.3-99.3C62.9,52.6,82.2,12.7,88.9.2h314.4Z"/>
      <path class="st1" d="M306.9,108.7c-1.8,7-89.2-25.5-138.8-19.5-14.2,1.7-25.3,6.6-30.3,16.5-3.4,6.6-.9,9.2-3.9,17.6C119.9,162.4,41.8,168.7-.4,164.2v-20.5c13.7-4.2,27.4-9,27.1-16-.2-6.2-11.5-13.2-27.1-17.8v-28.7c41.7-4.1,50.4-18.6,116.2-20.9,14.7-.5,34.6-.5,58.2,2.2h0c22.2,2.6,47.6,7.6,74.8,16.8,32.9,11.2,59.1,25.4,58.1,29.3h0Z"/>
    </g>
  </g>
</svg>