<?xml version="1.0" encoding="UTF-8"?>
<svg id="Layer_2" data-name="Layer 2" xmlns="http://www.w3.org/2000/svg" viewBox="0 0 295.58 326.9">
  <defs>
    <style>
      .cls-1 {
        fill: #fff;
      }
    </style>
  </defs>
  <g id="Capa_1" data-name="Capa 1">
    <g>
      <g>
        <path class="cls-1" d="M150.82,42.01c.83-1.46,1.22-3.32,1.22-3.32.24-1.13.28-2.1.27-2.81V10.4c-.02-.97-.21-2.94-1.46-4.97-1.93-3.11-5.01-4.08-5.81-4.31h28.26c2.17-.15,5.49-.11,9.17,1.09,2.54.83,4.49,1.95,5.63,2.68.89.58,1.75,1.21,2.56,1.9,2.4,2.04,4.35,4.57,5.85,7.58,1.5,3.01,2.24,6.51,2.24,10.5,0,3.67-.65,6.84-1.94,9.52-1.29,2.67-3.04,4.87-5.23,6.59-.82.64-1.62,1.18-2.4,1.63-.44.25-2.33,1.34-5.21,2.21-3.49,1.05-6.76,1.27-9.14,1.26h-33.9c4.78-.12,8.64-1.83,9.91-4.07ZM161.42,40.24c0,.64.27,1.17.82,1.6.54.43,1.27.78,2.17,1.05.91.27,1.96.47,3.16.58,1.2.11,2.46.17,3.77.17,2.67,0,5.1-.4,7.27-1.19,2.17-.79,4.03-1.99,5.57-3.6,1.54-1.61,2.72-3.64,3.53-6.08s1.22-5.32,1.22-8.63c0-3.04-.44-5.83-1.33-8.39-.88-2.56-2.16-4.78-3.84-6.66-1.68-1.88-3.73-3.34-6.15-4.38-2.42-1.04-5.18-1.56-8.26-1.56-1.36,0-2.7.09-4.01.27-1.32.18-2.63.45-3.94.82v36.02Z"/>
        <path class="cls-1" d="M283.51,7.1s-4.62-4.95-12.67-4.65c-1,.04-3.3.18-5.2,1.6-1.43,1.06-2.14,2.66-2.14,4.79,0,1.63.65,3.01,1.94,4.15,1.29,1.13,2.91,2.16,4.86,3.09,1.95.93,4.04,1.87,6.29,2.82,2.24.95,4.34,2.1,6.29,3.43,1.95,1.34,3.57,2.93,4.86,4.79,1.29,1.86,1.94,4.17,1.94,6.93,0,1.95-.39,3.72-1.16,5.3-.77,1.59-1.86,2.93-3.26,4.04-1.41,1.11-3.1,1.97-5.1,2.58-1.99.61-4.21.92-6.66.92-1.13,0-2.27-.1-3.4-.31-1.13-.2-2.25-.43-3.36-.68-1.11-.25-2.23-.48-3.36-.68-1.13-.2-2.27-.31-3.4-.31-.18,0-.42.03-.71.1-.29.07-.61.15-.95.24-.34.09-.67.18-.99.27-.32.09-.57.18-.75.27-.36-2.54-.75-5.1-1.16-7.68s-.93-5.19-1.56-7.82c.47,1.6,2.26,7.03,7.69,10.57,0,0,4.28,2.79,10.39,3.03,1.89.07,3.42-.22,4.08-.34,1.22-.23,2.28-.6,3.16-1.12.88-.52,1.56-1.22,2.04-2.11.48-.88.71-2,.71-3.36,0-1.86-.66-3.41-1.97-4.66-1.31-1.25-2.96-2.38-4.93-3.4-1.97-1.02-4.1-2-6.39-2.96-2.29-.95-4.42-2.04-6.39-3.26-1.97-1.22-3.61-2.67-4.93-4.35-1.32-1.68-1.97-3.74-1.97-6.19,0-4.26,1.29-7.35,3.87-9.28,2.58-1.93,6.5-2.89,11.76-2.89,1.36,0,2.67.1,3.94.31,1.24.2,2.22.4,2.89.55.38.09.66.15.71.16.96.23,3.25.36,8.7.1,0,4.45,0,8.9,0,13.36-.32-1.64-1.19-4.67-3.71-7.38Z"/>
        <path class="cls-1" d="M209.05,41.67c.81-.99,1.68-2.59,1.85-5.24V10.6c0-.63-.02-1.23-.06-1.78-.05-.65-.12-1.22-.18-1.55-.19-1.17-.62-2.59-1.05-3.35-1.36-2.42-5.2-2.76-5.74-2.8h40.33c.01,4.25.02,8.51.03,12.76-.14-1.09-.56-3.13-2.06-5.05-.49-.62-1.46-1.72-3.59-2.85-4.01-2.12-8.27-2.46-10.96-2.45h-7.61v16.52h3.53c1.18,0,2.33-.15,3.47-.44.48-.12.95-.28,1.4-.47.81-.34,1.37-.7,1.76-.95,1.91-1.24,2.86-1.86,3.02-2,.66-.58,1.91-1.91,2.52-4.63-.05,1.59-.1,3.19-.17,4.83-.07,1.63-.1,3.24-.1,4.83s.03,3.25.1,4.86c.07,1.61.12,3.23.17,4.86-.51-2.82-1.82-4.33-2.47-4.96-.81-.79-1.7-1.31-2.83-1.97-1.01-.59-1.85-1.15-3.09-1.46-1.16-.29-2.41-.44-3.77-.44h-3.53v20.19c1.09.32,2.3.56,3.64.71,1.34.16,2.82.24,4.45.24,3.67,0,6.46-.92,9.12-1.72,1.74-.52,3.01-.91,4.31-1.51,1.95-.9,5.76-3.14,9-8.8.15-.26-1.55,3.33-3.23,7.2-1.36,3.14-2.23,5.82-2.76,7.62-14.97.01-29.95.02-44.92.03,0,0,0,0,0,0,0,0,6.49-.78,9.44-4.38Z"/>
      </g>
      <path class="cls-1" d="M22.77,66.63c0-1.54-.09-2.79-.27-3.74-.04-.21-.39-1.28-1.05-2.28-1.81-2.7-5.16-3.36-5.95-3.5,7.82-.01,15.64-.02,23.46-.04,1.55-.11,3.69-.08,6.1.58,2.98.81,4.91,2.17,5.3,2.45,1.54,1.09,2.77,2.48,3.7,4.18.93,1.7,1.39,3.7,1.39,6.02,0,2.04-.42,3.8-1.26,5.27-.84,1.47-1.95,2.71-3.33,3.7-1.38,1-2.95,1.73-4.69,2.21-1.74.48-3.55.71-5.4.71-1.5,0-3-.11-4.52-.34-1.52-.23-2.98-.61-4.38-1.16v11.89c0,1.54.07,2.8.2,3.77.03.24.37,1.41.95,2.35,1.74,2.81,5.74,3.21,6.39,3.26H15.5c.69-.07,4.5-.53,6.15-3.26.56-.92.88-2.06.92-2.35.14-.97.2-2.23.2-3.77v-25.96ZM31.88,78.59c.72.32,1.55.59,2.48.82.93.23,1.82.34,2.68.34,3.08,0,5.4-.96,6.97-2.89,1.56-1.93,2.34-4.36,2.34-7.31,0-1.45-.16-2.8-.48-4.04-.32-1.25-.82-2.33-1.5-3.26-.68-.93-1.58-1.65-2.68-2.18-1.11-.52-2.46-.78-4.04-.78-1.04,0-2.04.09-2.99.27-.95.18-1.88.45-2.79.82v18.21Z"/>
      <path class="cls-1" d="M245.41,57.07h25.36c1.58-.04,3.85.12,6.36,1.06.97.36,2.94,1.12,4.83,2.82,1.34,1.2,2.36,2.59,3.06,4.18.7,1.59,1.05,3.31,1.05,5.17,0,1.59-.26,2.98-.78,4.18-.52,1.2-1.24,2.24-2.14,3.13-.91.88-1.97,1.62-3.2,2.21-1.22.59-2.56,1.04-4.01,1.36.95,1.54,2.13,3.36,3.53,5.47s2.96,4.15,4.66,6.12c2.38,2.76,4.61,4.51,5.47,5.2,2.21,1.76,4.28,3.07,5.98,4.01h-14.48c-1.27-3.32-2.7-5.88-3.8-7.63-2.21-3.52-6.14-9.6-13.36-12.69-.92-.39-1.7-.66-2.21-.82v11.76c0,1.54.06,2.79.17,3.74.04.35.36,1.37.88,2.24,1.59,2.67,5.07,3.28,5.81,3.4h-23.24c.68-.09,4.46-.62,6.15-3.4.57-.93.89-2.06.92-2.24.14-.95.2-2.2.2-3.74v-25.83c0-1.36-.07-2.51-.2-3.47-.01-.09-.34-1.36-.92-2.38-1.64-2.87-5.4-3.7-6.09-3.84ZM261.73,78.18c1.45.68,2.97,1.02,4.55,1.02,2.99,0,5.4-.84,7.24-2.51,1.83-1.68,2.75-4.12,2.75-7.34,0-1.36-.21-2.64-.65-3.84-.43-1.2-1.05-2.24-1.87-3.13-.82-.88-1.79-1.57-2.92-2.07-1.13-.5-2.4-.75-3.81-.75-.91,0-1.79.05-2.65.14-.86.09-1.75.3-2.65.61v17.87Z"/>
      <path class="cls-1" d="M108.94,57.07h25.36c1.58-.04,3.85.12,6.36,1.06.97.36,2.94,1.12,4.83,2.82,1.34,1.2,2.36,2.59,3.06,4.18.7,1.59,1.05,3.31,1.05,5.17,0,1.59-.26,2.98-.78,4.18-.52,1.2-1.24,2.24-2.14,3.13-.91.88-1.97,1.62-3.2,2.21-1.22.59-2.56,1.04-4.01,1.36.95,1.54,2.13,3.36,3.53,5.47s2.96,4.15,4.66,6.12c2.38,2.76,4.61,4.51,5.47,5.2,2.21,1.76,4.28,3.07,5.98,4.01h-14.48c-1.27-3.32-2.7-5.88-3.8-7.63-2.21-3.52-6.14-9.6-13.36-12.69-.92-.39-1.7-.66-2.21-.82v11.76c0,1.54.06,2.79.17,3.74.04.35.36,1.37.88,2.24,1.59,2.67,5.07,3.28,5.81,3.4h-23.24c.68-.09,4.46-.62,6.15-3.4.57-.93.89-2.06.92-2.24.14-.95.2-2.2.2-3.74v-25.83c0-1.36-.07-2.51-.2-3.47-.01-.09-.34-1.36-.92-2.38-1.64-2.87-5.4-3.7-6.09-3.84ZM125.26,78.18c1.45.68,2.97,1.02,4.55,1.02,2.99,0,5.4-.84,7.24-2.51,1.83-1.68,2.75-4.12,2.75-7.34,0-1.36-.21-2.64-.65-3.84-.43-1.2-1.05-2.24-1.87-3.13-.82-.88-1.79-1.57-2.92-2.07-1.13-.5-2.4-.75-3.81-.75-.91,0-1.79.05-2.65.14-.86.09-1.75.3-2.65.61v17.87Z"/>
      <path class="cls-1" d="M191.19,61.94c-1.76-.95-3.96-1.46-4.21-1.5-1.59-.23-3.4-.34-5.44-.34v32.49c0,1.54.07,2.8.2,3.77.04.27.38,1.42.95,2.35,1.73,2.79,5.67,3.2,6.32,3.26h-24.06c.65-.06,4.59-.47,6.32-3.26.58-.93.91-2.08.95-2.35.14-.97.2-2.23.2-3.77v-32.49c-2.04,0-3.85.11-5.44.34-.21.03-2.42.54-4.21,1.5-4.66,2.48-6.46,8.02-6.86,9.38.09-.86.17-1.73.24-2.62.07-.88.14-1.87.2-2.96.07-1.09.12-2.33.17-3.74.04-1.4.07-3.03.07-4.89h40.51c0,1.86.02,3.49.07,4.89.04,1.41.1,2.65.17,3.74.07,1.09.14,2.07.2,2.96.07.88.15,1.76.24,2.62-.37-1.36-2.01-6.91-6.59-9.38Z"/>
      <path class="cls-1" d="M238.04,98.21c-.55-.7-.96-1.39-1.25-2.02-2.2-4.64-13.9-36.16-15-39.12-.8-2.18-1.59-4.37-2.39-6.55-.91,2.18-1.82,4.37-2.74,6.55-5.03,11.95-10.05,23.9-15.08,35.85-.45,1.09-.9,2.05-1.33,2.89-.09.17-.73,1.26-1.5,2.21-1.69,2.09-3.93,3.32-5.27,3.94h16.92c-3.61-1.63-6.02-3.96-5.98-5.64,0-.16-.1-1.14.37-2.24.25-.59.49-1.2.71-1.83l3.47-9.58c2.33-6.16,4.67-12.32,7-18.49l5.57,15.9c.32.86.63,1.72.95,2.58l2.31,6.73c.18.45.4,1.01.65,1.67.25.66.5,1.31.75,1.97.25.66.45,1.3.61,1.94.15.59.24,1.04.24,1.56,0,0,0,1.19-.76,2.49-.91,1.55-3.25,2.77-6.17,2.95h23.65c-1.3-.38-3.83-1.34-5.75-3.76Z"/>
      <path class="cls-1" d="M64.9,98.17c.81-.99,1.68-2.59,1.85-5.24v-25.83c0-.63-.02-1.23-.06-1.78-.05-.65-.12-1.22-.18-1.55-.19-1.17-.62-2.59-1.05-3.35-1.36-2.42-5.2-2.76-5.74-2.8h40.33c.01,4.25.02,8.51.03,12.76-.14-1.09-.56-3.13-2.06-5.05-.49-.62-1.46-1.72-3.59-2.85-4.01-2.12-8.27-2.46-10.96-2.45h-7.61v16.52h3.53c1.18,0,2.33-.15,3.47-.44.48-.12.95-.28,1.4-.47.81-.34,1.37-.7,1.76-.95,1.91-1.24,2.86-1.86,3.02-2,.66-.58,1.91-1.91,2.52-4.63-.05,1.59-.1,3.19-.17,4.83-.07,1.63-.1,3.24-.1,4.83s.03,3.25.1,4.86c.07,1.61.12,3.23.17,4.86-.51-2.82-1.82-4.33-2.47-4.96-.81-.79-1.7-1.31-2.83-1.97-1.01-.59-1.85-1.15-3.09-1.46-1.16-.29-2.41-.44-3.77-.44h-3.53v20.19c1.09.32,2.3.56,3.64.71,1.34.16,2.82.24,4.45.24,3.67,0,6.46-.92,9.12-1.72,1.74-.52,3.01-.91,4.31-1.51,1.95-.9,5.76-3.14,9-8.8.15-.26-1.55,3.33-3.23,7.2-1.36,3.14-2.23,5.82-2.76,7.62-14.97.01-29.95.02-44.92.03,0,0,0,0,0,0,0,0,6.49-.78,9.44-4.38Z"/>
      <g>
        <path class="cls-1" d="M17.94,155.69c.55-.19,1.44-.52,2.14-1.36.59-.71.84-1.45.99-2.34.16-.95.24-2.11.24-3.47v-25.83c0-.63-.02-1.23-.06-1.78-.05-.65-.12-1.22-.18-1.55-.14-.84-.56-2.47-1.05-3.35-1.36-2.47-5.24-2.91-5.78-2.97h40.37c.01,4.31.02,8.62.03,12.93-.14-1.09-.56-3.13-2.06-5.05-.49-.62-1.46-1.72-3.59-2.85-4.01-2.12-8.27-2.46-10.96-2.45h-7.61v16.52h3.53c1.18,0,2.33-.15,3.47-.44.48-.12.95-.28,1.4-.47.81-.34,1.37-.7,1.76-.95,1.91-1.24,2.86-1.86,3.02-2,.66-.58,1.91-1.91,2.52-4.63-.05,1.59-.1,3.19-.17,4.83-.07,1.63-.1,3.24-.1,4.83s.03,3.25.1,4.86c.07,1.61.12,3.23.17,4.86-.51-2.82-1.82-4.33-2.47-4.96-.81-.79-1.7-1.31-2.83-1.97-1.01-.59-1.85-1.15-3.09-1.46-1.16-.29-2.41-.44-3.77-.44h-3.53v20.19c1.09.32,2.3.56,3.64.71,1.34.16,2.82.24,4.45.24,3.67,0,6.46-.92,9.12-1.72,1.74-.52,3.01-.91,4.31-1.51,1.95-.91,5.76-3.14,9-8.8-1.13,2.4-2.21,4.8-3.23,7.2-1.02,2.4-1.92,4.87-2.68,7.41-3.53-.09-7.05-.16-10.53-.2-3.49-.05-7-.07-10.54-.07h-6.32c-2,0-3.84.01-5.54.03-1.06.01-2.63.04-4.55.1-1.92.06-4.47.17-7.51.38.75-.21,4.61-1.29,7.92-2.45Z"/>
        <path class="cls-1" d="M66.36,121.39c-.18-.79-.47-1.94-.92-3.3-.34-1.03-.55-1.65-.8-2.11-.31-.57-1.43-2.25-5.35-2.81,8.04.02,16.08.03,24.12.05-.99.14-3.47.64-5.45,2.66-1.04,1.06-1.57,2.17-1.71,2.46-.57,1.24-.73,2.35-.78,3.06v33.57c.63.18,1.52.31,2.65.37,1.13.07,2.36.1,3.67.1,2.54,0,4.76-.25,6.66-.75,2.34-.61,3.94-1.6,5.17-2.34,4.35-2.64,7.41-6.16,9.38-8.94-1.18,2.36-2.21,4.75-3.09,7.17-.88,2.42-1.64,4.91-2.28,7.44-3.13-.09-6.26-.16-9.41-.2-3.15-.05-6.29-.07-9.41-.07-2.06,0-4.13,0-6.2.03-1.07,0-2.17.02-3.62.04-4.49.06-9.17.15-12.11.21,1.44-.11,4.39-.49,6.87-1.98,1.12-.68,1.66-1.29,2.01-1.9.58-1.02.63-2.03.61-2.58v-30.18Z"/>
      </g>
      <g>
        <path class="cls-1" d="M145.69,267.63c3-2.99,2.85-6.83,2.81-7.42v-25.49c.03-.99-.05-2.85-1.07-4.82-1.78-3.45-5.09-4.64-5.87-4.89,7.7-.02,15.4-.04,23.1-.07,1.13-.04,2.78-.06,4.77.07,2.89.18,5.73.37,9.21,1.53,3.06,1.02,5.79,2.55,8.19,4.59s4.35,4.57,5.85,7.58c1.5,3.01,2.24,6.51,2.24,10.5,0,3.67-.65,6.84-1.94,9.52-1.29,2.67-3.04,4.87-5.23,6.59-2.87,2.25-5.54,3.19-7.61,3.84-2.01.63-5.17,1.37-9.14,1.26-10.68.01-21.37.02-32.05.03.69,0,4.04-.11,6.74-2.81ZM157.61,264.56c0,.64.27,1.17.82,1.6.54.43,1.27.78,2.17,1.05.91.27,1.96.47,3.16.58,1.2.11,2.46.17,3.77.17,2.67,0,5.1-.4,7.27-1.19,2.17-.79,4.03-1.99,5.57-3.6,1.54-1.61,2.72-3.64,3.53-6.08s1.22-5.32,1.22-8.63c0-3.04-.44-5.83-1.33-8.39-.88-2.56-2.16-4.78-3.84-6.66-1.68-1.88-3.73-3.34-6.15-4.38-2.42-1.04-5.18-1.56-8.26-1.56-1.36,0-2.7.09-4.01.27-1.32.18-2.63.45-3.94.82v36.02Z"/>
        <path class="cls-1" d="M203.9,267.8c.55-.19,1.44-.52,2.14-1.36.59-.71.84-1.45.99-2.34.16-.95.24-2.11.24-3.47v-25.83c0-.63-.02-1.23-.06-1.78-.05-.65-.12-1.22-.18-1.55-.14-.84-.56-2.47-1.05-3.35-1.36-2.47-5.24-2.91-5.78-2.97h40.37c.01,4.31.02,8.62.03,12.93-.14-1.09-.56-3.13-2.06-5.05-.49-.62-1.46-1.72-3.59-2.85-4.01-2.12-8.27-2.46-10.96-2.45h-7.61v16.52h3.53c1.18,0,2.33-.15,3.47-.44.48-.12.95-.28,1.4-.47.81-.34,1.37-.7,1.76-.95,1.91-1.24,2.86-1.86,3.02-2,.66-.58,1.91-1.91,2.52-4.63-.05,1.59-.1,3.19-.17,4.83-.07,1.63-.1,3.24-.1,4.83s.03,3.25.1,4.86c.07,1.61.12,3.23.17,4.86-.51-2.82-1.82-4.33-2.47-4.96-.81-.79-1.7-1.31-2.83-1.97-1.01-.59-1.85-1.15-3.09-1.46-1.16-.29-2.41-.44-3.77-.44h-3.53v20.19c1.09.32,2.3.56,3.64.71,1.34.16,2.82.24,4.45.24,3.67,0,6.46-.92,9.12-1.72,1.74-.52,3.01-.91,4.31-1.51,1.95-.9,5.76-3.14,9-8.8-1.13,2.4-2.21,4.8-3.23,7.2-1.02,2.4-1.92,4.87-2.68,7.41-15,.08-30,.16-44.99.24.75-.21,4.61-1.29,7.92-2.45Z"/>
        <path class="cls-1" d="M257.51,233.57c.04-.57.15-3.13-1.72-5.42-2.02-2.48-4.84-2.77-5.35-2.81,8.04.02,16.08.03,24.12.05-.71.08-3.3.44-5.45,2.66-2.15,2.21-2.44,4.81-2.49,5.52v33.57c.63.18,1.52.31,2.65.37,1.13.07,2.36.1,3.67.1,2.54,0,4.76-.25,6.66-.75,2.34-.61,3.94-1.6,5.17-2.34,4.35-2.64,7.41-6.16,9.38-8.94-1.18,2.36-2.21,4.75-3.09,7.17-.88,2.42-1.64,4.91-2.28,7.44-13.58,0-27.17,0-40.75,0,1.44-.11,4.39-.49,6.87-1.98,1.12-.68,1.66-1.29,2.01-1.9.58-1.02.63-2.03.61-2.58v-30.18Z"/>
      </g>
      <g>
        <path class="cls-1" d="M65.48,174.79s-4.62-4.95-12.67-4.65c-1,.04-3.3.18-5.2,1.6-1.43,1.06-2.14,2.66-2.14,4.79,0,1.63.65,3.01,1.94,4.15,1.29,1.13,2.91,2.16,4.86,3.09,1.95.93,4.04,1.87,6.29,2.82,2.24.95,4.34,2.1,6.29,3.43,1.95,1.34,3.57,2.93,4.86,4.79,1.29,1.86,1.94,4.17,1.94,6.93,0,1.95-.39,3.72-1.16,5.3-.77,1.59-1.86,2.93-3.26,4.04-1.41,1.11-3.1,1.97-5.1,2.58-1.99.61-4.21.92-6.66.92-1.13,0-2.27-.1-3.4-.31-1.13-.2-2.25-.43-3.36-.68-1.11-.25-2.23-.48-3.36-.68-1.13-.2-2.27-.31-3.4-.31-.18,0-.42.03-.71.1-.29.07-.61.15-.95.24-.34.09-.67.18-.99.27-.32.09-.57.18-.75.27-.36-2.54-.75-5.1-1.16-7.68s-.93-5.19-1.56-7.82c.47,1.6,2.26,7.03,7.69,10.57,0,0,4.28,2.79,10.39,3.03,1.89.07,3.42-.22,4.08-.34,1.22-.23,2.28-.6,3.16-1.12.88-.52,1.56-1.22,2.04-2.11.48-.88.71-2,.71-3.36,0-1.86-.66-3.41-1.97-4.66-1.31-1.25-2.96-2.38-4.93-3.4-1.97-1.02-4.1-2-6.39-2.96-2.29-.95-4.42-2.04-6.39-3.26-1.97-1.22-3.61-2.67-4.93-4.35-1.32-1.68-1.97-3.74-1.97-6.19,0-4.26,1.29-7.35,3.87-9.28,2.58-1.93,6.5-2.89,11.76-2.89,1.36,0,2.67.1,3.94.31,1.24.2,2.22.4,2.89.55.38.09.66.15.71.16.96.23,3.25.36,8.7.1,0,4.45,0,8.9,0,13.36-.32-1.64-1.19-4.67-3.71-7.38Z"/>
        <path class="cls-1" d="M136.34,211.17c1.67-1.45,2.5-3.37,2.59-3.57.62-1.47.76-2.79.78-3.61v-25.83c0-.63-.02-1.23-.06-1.78-.05-.65-.12-1.22-.18-1.55-.19-1.17-.62-2.59-1.05-3.35-1.36-2.42-5.2-2.76-5.74-2.8h40.33c.01,4.25.02,8.51.03,12.76-.14-1.09-.56-3.13-2.06-5.05-.49-.62-1.46-1.72-3.59-2.85-4.01-2.12-8.27-2.46-10.96-2.45h-7.61v16.52h3.53c1.18,0,2.33-.15,3.47-.44.48-.12.95-.28,1.4-.47.81-.34,1.37-.7,1.76-.95,1.91-1.24,2.86-1.86,3.02-2,.66-.58,1.91-1.91,2.52-4.63-.05,1.59-.1,3.19-.17,4.83-.07,1.63-.1,3.24-.1,4.83s.03,3.25.1,4.86c.07,1.61.12,3.23.17,4.86-.51-2.82-1.82-4.33-2.47-4.96-.81-.79-1.7-1.31-2.83-1.97-1.01-.59-1.85-1.15-3.09-1.46-1.16-.29-2.41-.44-3.77-.44h-3.53v20.19c1.09.32,2.3.56,3.64.71,1.34.16,2.82.24,4.45.24,3.67,0,6.46-.92,9.12-1.72,1.74-.52,3.01-.91,4.31-1.51,1.95-.9,5.76-3.14,9-8.8.15-.26-1.55,3.33-3.23,7.2-1.36,3.14-2.23,5.82-2.76,7.62-14.97.01-29.95.02-44.92.03-.07,0,4.69.36,7.92-2.45Z"/>
        <path class="cls-1" d="M76.53,168.64h23.92c-.67.08-4.65.58-6.35,3.43-.56.94-.89,2.14-.92,2.31-.14.98-.2,2.23-.2,3.77v22.56c0,1.22.24,2.44.71,3.64.48,1.2,1.22,2.28,2.24,3.23s2.33,1.72,3.94,2.31c1.61.59,3.54.88,5.81.88,2.72,0,4.97-.42,6.76-1.26,1.79-.84,3.19-1.87,4.21-3.09,1.02-1.22,1.73-2.56,2.14-4.01.41-1.45.61-2.79.61-4.01-.04-6.77-.09-13.53-.13-20.3-.07-.86-.22-2.08-.62-3.51-.33-1.18-.73-2.29-1.3-3.25-1.29-2.17-4.73-2.61-5.77-2.72h17.13c-.82.05-3.9.34-5.32,2.57-.58.91-.76,1.95-.97,3.18-.26,1.55-.24,2.86-.17,3.77v18.62c0,5.66-1.6,10.05-4.79,13.15-3.19,3.1-7.67,4.66-13.42,4.66-3.44,0-6.41-.42-8.9-1.26-2.49-.84-4.55-1.94-6.19-3.3-1.63-1.36-2.84-2.88-3.64-4.55-.79-1.68-1.19-3.35-1.19-5.03v-22.29c0-1.22-.07-2.3-.2-3.23,0,0-.32-1.3-.95-2.38-1.74-2.96-5.92-3.81-6.46-3.91Z"/>
        <path class="cls-1" d="M187.86,209.18c.75-1.21,1.17-2.63,1.22-2.96.18-1.22.27-2.85.27-4.89l.27-26.44c-.21-.22-.51-.54-.89-.9-1.46-1.42-2.77-2.39-3.16-2.67-2.74-1.91-7.81-2.58-8.27-2.64,6.42-.02,12.83-.03,19.25-.05,4.53,5.62,9.12,11.1,13.76,16.45,4.64,5.35,9.12,10.9,13.42,16.65h.14v-5.5c0-2.22-.03-4.52-.1-6.9-.07-2.38-.17-4.69-.31-6.93s-.34-4.13-.61-5.67c-.18-1.18-.49-2.14-.92-2.89-.2-.35-.53-.82-1.11-1.4-1.87-1.85-4.94-3.37-5.85-3.8h19.03c-1.25.41-4,1.43-5.74,3.34-.18.19-.52.53-.82,1.08-.52.95-.86,2.23-1.02,3.84-.16,1.61-.24,3.66-.24,6.15v31.2c-7.25-10.82-16.56-22.1-28.58-32.6-1.8-1.57-3.6-3.07-5.4-4.51v23.04c0,2.31.09,4.16.27,5.54.09.7.48,2.07,1.19,3.3,1.98,3.42,6.19,4.34,7.45,4.57h-21.11c.94-.13,5.65-.85,7.84-4.4ZM192.23,165.59c.24-.66.59-1.3,1.04-1.93.45-.63,1.06-1.18,1.82-1.66.76-.48,1.73-.86,2.91-1.15,1.18-.29,2.62-.43,4.32-.43.91,0,1.92.11,3.04.33,1.12.22,2.24.45,3.36.7,1.12.25,2.2.48,3.23.7.5.11,1.45.24,2.64.33,1.44.11,3.13.24,4.7-.06,2.45-.47,3.3-1.71,3.48-1.99-.18.52-.52,1.08-1,1.68-.49.6-1.12,1.16-1.91,1.68-.79.52-1.71.95-2.77,1.29-1.06.34-2.26.51-3.59.51-1.45,0-2.77-.11-3.95-.33-1.18-.22-2.33-.45-3.45-.7-1.93-.42-2.91-.62-3.32-.7-2.94-.57-4.42-.85-5.75-.76-2.95.22-4.47,2.06-4.79,2.48Z"/>
        <path class="cls-1" d="M263.84,167.69c3.85,0,7.37.53,10.57,1.6,3.19,1.06,5.95,2.59,8.26,4.59,2.31,1.99,4.1,4.45,5.37,7.37,1.27,2.92,1.9,6.22,1.9,9.89s-.64,6.97-1.9,9.89c-1.27,2.92-3.06,5.38-5.37,7.37-2.31,1.99-5.06,3.52-8.26,4.59s-6.72,1.6-10.57,1.6-7.38-.53-10.57-1.6-5.95-2.59-8.26-4.59c-2.31-1.99-4.1-4.45-5.37-7.37s-1.9-6.22-1.9-9.89.63-6.97,1.9-9.89,3.06-5.38,5.37-7.37c2.31-1.99,5.06-3.52,8.26-4.59,3.19-1.06,6.72-1.6,10.57-1.6ZM263.84,170.14c-2.81,0-5.25.57-7.31,1.7-2.06,1.13-3.76,2.67-5.1,4.62-1.34,1.95-2.32,4.18-2.96,6.69-.63,2.51-.95,5.18-.95,7.99s.32,5.42.95,7.95c.63,2.54,1.62,4.78,2.96,6.73,1.34,1.95,3.04,3.49,5.1,4.62,2.06,1.13,4.5,1.7,7.31,1.7s5.24-.57,7.31-1.7c2.06-1.13,3.76-2.67,5.1-4.62,1.34-1.95,2.32-4.19,2.96-6.73.63-2.54.95-5.19.95-7.95s-.32-5.47-.95-7.99-1.62-4.75-2.96-6.69c-1.34-1.95-3.04-3.49-5.1-4.62-2.06-1.13-4.5-1.7-7.31-1.7Z"/>
      </g>
      <g>
        <path class="cls-1" d="M184.36,323.88c3-2.99,2.85-6.83,2.81-7.42v-25.49c.03-.99-.05-2.85-1.07-4.82-1.78-3.45-5.09-4.64-5.87-4.89,7.7-.02,15.4-.04,23.1-.07,1.13-.04,2.78-.06,4.77.07,2.89.18,5.73.37,9.21,1.53,3.06,1.02,5.79,2.55,8.19,4.59s4.35,4.57,5.85,7.58c1.5,3.01,2.24,6.51,2.24,10.5,0,3.67-.65,6.84-1.94,9.52-1.29,2.67-3.04,4.87-5.23,6.59-2.87,2.25-5.54,3.19-7.61,3.84-2.01.63-5.17,1.37-9.14,1.26-10.68.01-21.37.02-32.05.03.69,0,4.04-.11,6.74-2.81ZM196.27,320.8c0,.64.27,1.17.82,1.6.54.43,1.27.78,2.17,1.05.91.27,1.96.47,3.16.58,1.2.11,2.46.17,3.77.17,2.67,0,5.1-.4,7.27-1.19,2.17-.79,4.03-1.99,5.57-3.6,1.54-1.61,2.72-3.64,3.53-6.08s1.22-5.32,1.22-8.63c0-3.04-.44-5.83-1.33-8.39-.88-2.56-2.16-4.78-3.84-6.66-1.68-1.88-3.73-3.34-6.15-4.38-2.42-1.04-5.18-1.56-8.26-1.56-1.36,0-2.7.09-4.01.27-1.32.18-2.63.45-3.94.82v36.02Z"/>
        <path class="cls-1" d="M66.42,280.96h23.92c-.67.08-4.65.58-6.35,3.43-.56.94-.89,2.14-.92,2.31-.14.98-.2,2.23-.2,3.77v22.56c0,1.22.24,2.44.71,3.64.48,1.2,1.22,2.28,2.24,3.23s2.33,1.72,3.94,2.31c1.61.59,3.54.88,5.81.88,2.72,0,4.97-.42,6.76-1.26,1.79-.84,3.19-1.87,4.21-3.09,1.02-1.22,1.73-2.56,2.14-4.01.41-1.45.61-2.79.61-4.01v-16.72c.2-2.65-.1-4.52-.34-5.57-.16-.71-.38-1.41-.41-1.52-.37-1.2-.92-2.6-1.3-3.25-1.29-2.17-4.73-2.61-5.77-2.72h17.13c-.82.05-3.9.34-5.32,2.57-.58.91-.76,1.95-.97,3.18-.26,1.55-.24,2.86-.17,3.77v18.62c0,5.66-1.6,10.05-4.79,13.15-3.19,3.1-7.67,4.66-13.42,4.66-3.44,0-6.41-.42-8.9-1.26-2.49-.84-4.55-1.94-6.19-3.3-1.63-1.36-2.84-2.88-3.64-4.55-.79-1.68-1.19-3.35-1.19-5.03v-22.29c0-1.22-.07-2.3-.2-3.23,0,0-.32-1.3-.95-2.38-1.74-2.96-5.92-3.81-6.46-3.91Z"/>
        <path class="cls-1" d="M156.58,281.3c.91.44,3.98,1.95,5.85,3.8.58.58.91,1.04,1.11,1.4.43.75.74,1.71.92,2.89.27,1.54.48,3.43.61,5.67s.24,4.55.31,6.93c.07,2.38.1,4.68.1,6.9v5.5h-.14c-4.3-5.75-8.78-11.3-13.42-16.65-4.64-5.35-9.23-10.83-13.76-16.45-6.42.02-12.83.03-19.25.05.46.06,5.53.72,8.27,2.64.39.27,1.7,1.24,3.16,2.67.37.36.68.68.89.9l-.27,26.44c0,2.04-.09,3.67-.27,4.89-.05.33-.48,1.75-1.22,2.96-2.2,3.55-6.9,4.28-7.84,4.4h21.11c-1.26-.23-5.48-1.15-7.45-4.57-.71-1.23-1.1-2.6-1.19-3.3-.18-1.38-.27-3.23-.27-5.54v-23.04c1.8,1.44,3.6,2.94,5.4,4.51,12.02,10.5,21.34,21.78,28.58,32.6v-31.2c0-2.49.08-4.54.24-6.15.16-1.61.5-2.89,1.02-3.84.3-.55.64-.88.82-1.08,1.74-1.91,4.49-2.93,5.74-3.34h-19.03Z"/>
        <path class="cls-1" d="M14.02,288.71h-.14c-.23,1.95-.5,3.8-.82,5.54-.32,1.74-.62,3.58-.92,5.5-.29,1.93-.54,4.03-.75,6.32-.2,2.29-.31,4.95-.31,7.99,0,1.54.06,2.91.17,4.11.11,1.2.42,2.22.92,3.06.45.75,1.02,1.21,2.24,2.04,1.1.75,2.61,1.71,4.52,2.72H0c1.5-.95,2.7-1.81,3.59-2.48,1.29-.98,1.74-1.37,2.11-1.94.52-.79.92-1.71,1.19-2.75.27-1.04.5-2.17.68-3.4.77-4.8,1.44-9.59,2-14.37.57-4.78,1.3-9.57,2.21-14.37-.07-.67-.26-1.42-.66-2.16-1.69-3.15-5.77-3.51-6.27-3.55h21.41c-.41.06-3.55.57-4.16,2.52-.2.64-.08,1.29.14,2.44.31,1.61.83,2.77.95,3.06.63,1.54,1.45,3.43,2.45,5.68,1,2.24,2.1,4.75,3.3,7.51,1.2,2.76,2.34,5.62,3.43,8.56.32-.5.79-1.43,1.43-2.79.63-1.36,1.34-2.93,2.11-4.72.77-1.79,1.56-3.67,2.38-5.64.82-1.97,1.55-3.82,2.21-5.54.66-1.72,1.2-3.21,1.63-4.45.22-.64.7-1.34.65-2.34-.06-1.04-.58-1.8-.77-2.04-.59-.78-1.31-1.1-2.34-1.56-.83-.37-1.56-.57-2.06-.68h28.82c-6.08-.09-10.76,2.15-12.05,4.66-.87,1.68-1,3.43-1,3.43-.09,1.22.18,2.06.34,3.19.23,1.63.51,3.55.85,5.74.34,2.2.71,4.53,1.12,7,.41,2.47.8,4.76,1.19,6.86.38,2.11.71,3.9.99,5.37.09.48.23,1.37.54,2.55.28,1.04.6,2.01.75,2.36.96,2.32,4.51,3.47,5.85,3.85h-24.52c3.15-.81,5.35-1.97,6.11-2.64.59-.53,1.14-1.17,1.14-1.17.21-.25.52-.58.72-.91.48-.77.71-1.83.71-3.19,0-.23-.1-1.02-.31-2.38-.2-1.36-.45-3.02-.75-5-.29-1.97-.63-4.12-1.02-6.46-.39-2.33-.76-4.56-1.12-6.69-.36-2.13-.69-4.03-.99-5.71-.29-1.68-.53-2.85-.71-3.53h-.14c-.95,3.17-2.07,6.28-3.36,9.31-1.29,3.04-2.58,6.08-3.87,9.14-1.29,3.06-2.49,6.13-3.6,9.21-.32.9-.38,1.15-.82,2.42-1.13,3.28-2.11,5.89-2.78,7.61-1.47-7.72-4.24-17.35-9.65-27.48-1.94-3.63-3.98-6.89-6.02-9.8Z"/>
        <path class="cls-1" d="M263.79,280.01c3.85,0,7.37.53,10.57,1.6,3.19,1.06,5.95,2.59,8.26,4.59,2.31,1.99,4.1,4.45,5.37,7.37,1.27,2.92,1.9,6.22,1.9,9.89s-.64,6.97-1.9,9.89c-1.27,2.92-3.06,5.38-5.37,7.37-2.31,1.99-5.06,3.52-8.26,4.59s-6.72,1.6-10.57,1.6-7.38-.53-10.57-1.6-5.95-2.59-8.26-4.59c-2.31-1.99-4.1-4.45-5.37-7.37s-1.9-6.22-1.9-9.89.63-6.97,1.9-9.89,3.06-5.38,5.37-7.37c2.31-1.99,5.06-3.52,8.26-4.59,3.19-1.06,6.72-1.6,10.57-1.6ZM263.79,282.45c-2.81,0-5.25.57-7.31,1.7-2.06,1.13-3.76,2.67-5.1,4.62-1.34,1.95-2.32,4.18-2.96,6.69-.63,2.51-.95,5.18-.95,7.99s.32,5.42.95,7.95c.63,2.54,1.62,4.78,2.96,6.73,1.34,1.95,3.04,3.49,5.1,4.62,2.06,1.13,4.5,1.7,7.31,1.7s5.24-.57,7.31-1.7c2.06-1.13,3.76-2.67,5.1-4.62,1.34-1.95,2.32-4.19,2.96-6.73.63-2.54.95-5.19.95-7.95s-.32-5.47-.95-7.99-1.62-4.75-2.96-6.69c-1.34-1.95-3.04-3.49-5.1-4.62-2.06-1.13-4.5-1.7-7.31-1.7Z"/>
      </g>
    </g>
  </g>
</svg>