<?xml version="1.0" encoding="UTF-8"?>
<svg id="Layer_2" data-name="Layer 2" xmlns="http://www.w3.org/2000/svg" viewBox="0 0 394.58 315.03">
  <defs>
    <style>
      .cls-1 {
        stroke: #f6f5f5;
        stroke-miterlimit: 10;
        stroke-width: .5px;
      }
    </style>
  </defs>
  <g id="Capa_1" data-name="Capa 1">
    <g>
      <path class="cls-1" d="M394.32,166.42c-.18-.62-3.18.35-13.26.88,0,0-11.47.6-22.45-.17-18.23-1.27-29.31-2.06-37.79-9.42-11.35-9.86-9.43-21.99-21-28.31-4.61-2.52-7.56-.31-9.91-1.44-1.16-1.18-9.1-9.54-7.04-19.12,2.08-9.7,12.95-13.95,18.1-15.96,12.96-5.06,23.96-2.01,24.15-3.43.18-1.41-10.39-6.65-22.47-5.21-9.41,1.12-13.19,5.52-20.22,3.14-4.27-1.45-6.46-4.3-9.89-3.25-3.55,1.09-5.41,5.25-7.33,4.52-.73-.27-1.04-1.09-1.16-1.42-1.67-4.39,5.58-11.55,8.19-14.12,6.9-6.81,11.91-7.92,11.71-11.1-.13-2.1-2.36-2.98-5.4-5.3-8.87-6.77-7.58-12.69-13.72-17.84-9.01-7.55-19.5-1.28-22.55-6.27-5.11-8.4,21.49-31.13,20.37-32.3-1.19-1.25-34.07,21.72-29.69,38,.5,1.86.91,1.48,3.58,7.45,4.23,9.44,6.68,14.91,6.62,21.75-.01,1.34-.12,13.53-6.67,16.66-3.94,1.88-6.9-1.09-10.45,1.25-3.96,2.6-1.34,7.02-5.1,11.11-5.54,6.03-16.19,3.2-17.7,8.12-.06.21-.02,1.64.06,4.51.11,3.91.25,4.16.25,5.73.01,3.16.03,7.2-2.3,10.34-1.57,2.12-2.45,1.45-4.02,3.35-2.25,2.73-2.3,6.32-1.51,13.44.66,5.97,1.05,9.47,3.78,12.1,2.16,2.08,3.62,1.23,7.62,3.11,9.19,4.32,18.16,13.84,19.82,18.44.17.53.72,2.25,2.11,2.68,1.11.34,2.27-.35,2.72-.59,3.72-2.05,11.44-6.76,16.5-6.02,1.25.18.87.48,5.4,3.26,11.61,7.14,15.69,6.08,19.51,10.4.46.51,1.56,1.81,3.29,2.08,2.03.32,3.76-1,4.51-1.51,5.02-3.46,13.58-3.41,18.59-1.85,4.35,1.35,4.82,3.48,9.62,4.14,3.05.43,5.5-.09,6.59-.32,14.38-2.98,79.38-18.62,78.55-21.49Z"/>
      <path class="cls-1" d="M.26,148.61c.18.62,3.18-.35,13.26-.88,0,0,11.47-.6,22.45.17,18.23,1.27,29.31,2.06,37.79,9.42,11.35,9.86,9.43,21.99,21,28.31,4.61,2.52,7.56.31,9.91,1.44,1.16,1.18,9.1,9.54,7.04,19.12-2.08,9.7-12.95,13.95-18.1,15.96-12.96,5.06-23.96,2.01-24.15,3.43-.18,1.41,10.39,6.65,22.47,5.21,9.41-1.12,13.19-5.52,20.22-3.14,4.27,1.45,6.46,4.3,9.89,3.25,3.55-1.09,5.41-5.25,7.33-4.52.73.27,1.04,1.09,1.16,1.42,1.67,4.39-5.58,11.55-8.19,14.12-6.9,6.81-11.91,7.92-11.71,11.1.13,2.1,2.36,2.98,5.4,5.3,8.87,6.77,7.58,12.69,13.72,17.84,9.01,7.55,19.5,1.28,22.55,6.27,5.11,8.4-21.49,31.13-20.37,32.3,1.19,1.25,34.07-21.72,29.69-38-.5-1.86-.91-1.48-3.58-7.45-4.23-9.44-6.68-14.91-6.62-21.75.01-1.34.12-13.53,6.67-16.66,3.94-1.88,6.9,1.09,10.45-1.25,3.96-2.6,1.34-7.02,5.1-11.11,5.54-6.03,16.19-3.2,17.7-8.12.06-.21.02-1.64-.06-4.51-.11-3.91-.25-4.16-.25-5.73-.01-3.16-.03-7.2,2.3-10.34,1.57-2.12,2.45-1.45,4.02-3.35,2.25-2.73,2.3-6.32,1.51-13.44-.66-5.97-1.05-9.47-3.78-12.1-2.16-2.08-3.62-1.23-7.62-3.11-9.19-4.32-18.16-13.84-19.82-18.44-.17-.53-.72-2.25-2.11-2.68-1.11-.34-2.27.35-2.72.59-3.72,2.05-11.44,6.76-16.5,6.02-1.25-.18-.87-.48-5.4-3.26-11.61-7.14-15.69-6.08-19.51-10.4-.46-.51-1.56-1.81-3.29-2.08-2.03-.32-3.76,1-4.51,1.51-5.02,3.46-13.58,3.41-18.59,1.85-4.35-1.35-4.82-3.48-9.62-4.14-3.05-.43-5.5.09-6.59.32-14.38,2.98-79.38,18.62-78.55,21.49Z"/>
    </g>
  </g>
</svg>