<?xml version="1.0" encoding="UTF-8"?>
<svg id="Layer_2" data-name="Layer 2" xmlns="http://www.w3.org/2000/svg" viewBox="0 0 267.53 231.18">
  <defs>
    <style>
      .cls-1, .cls-2, .cls-3, .cls-4 {
        stroke: #000;
        stroke-miterlimit: 10;
      }

      .cls-1, .cls-2, .cls-4 {
        stroke-width: .25px;
      }

      .cls-2, .cls-3 {
        fill: #fff;
      }

      .cls-3 {
        stroke-width: .5px;
      }

      .cls-4 {
        fill: none;
      }
    </style>
  </defs>
  <g id="Capa_1" data-name="Capa 1">
    <g>
      <rect x=".12" y="0" width="267.28" height="228.77"/>
      <path class="cls-2" d="M267.4,138.82v5.64c-26.53,1.05-48.13.43-63.71-.42-19.56-1.07-28.37-2.45-48.85-2.31-20.1.14-22.47,1.54-48.84,2.31-15,.44-19.95,0-51.63,0H.12v-2.06c38.73-3.17,54.09-5.13,57.13-6.37.25-.1,1.46-.62,3.18-.89,3.94-.62,7.04.69,7.84.89,7.67,1.95,37.92,3.57,49.74,3.92,14.62.43,25.17.73,35.98-1.1,13.63-2.31,15.72-2.8,15.72-2.8,4.39-1.03,7.71-2.02,13.08-2.41,1.93-.14,4.76-.33,8.42.05,4.09.43,6.41,1.28,11.14,2.59,0,0,2.35.65,12.39,2.96,10.67,2.46,20.13,2.16,31.53,1.79,5.48-.18,12.69-.63,21.14-1.78Z"/>
      <path class="cls-2" d="M267.4,144.52v86.53H.12v-86.97h54.24c31.68,0,36.64.45,51.63,0,26.38-.79,28.75-2.23,48.84-2.37,20.48-.15,29.29,1.27,48.85,2.37,15.59.88,37.19,1.51,63.71.44Z"/>
      <ellipse class="cls-3" cx="207.07" cy="92.7" rx="11.71" ry="12.01"/>
      <path class="cls-2" d="M117.06,98.85c.06.6,5.59-1.07,11.55,1.91,3,1.5,2.82,2.54,6.52,4.4,1.88.94,7.36,3.68,10.01,1.52,1.26-1.03.6-2.11,1.73-4.2,2.17-4,7.66-5.7,11.92-5.35,3.13.26,7.24,1.75,7.28,3.5.05,2.28-7.36,3.29-7.21,4.42.25,1.87,20.62,1.2,20.78-.94.08-1.12-5.45-1.85-5.44-3.63,0-1.75,5.37-3.06,6.62-3.35,12.01-2.76,22.04,1.65,22.48.47.27-.73-3.06-3.66-7.72-4.66-8.37-1.8-14.03,4.12-18.66.89-1.87-1.3-2.22-3.15-4.45-3.49-1.6-.24-2.43.56-5.55,1.17,0,0-2.21.44-4.6.46-4.23.04-6.45-2.34-9.9-3.89-7.59-3.42-15.42-.26-15.42-.3,0-.04,6.54-2.04,10.28,1.21,2.06,1.79,3.23,5.13,2.14,7.21-1.86,3.56-9.91,2.57-12.01,2.33-3.39-.39-3.59-1.11-6.94-1.59-7.23-1.04-13.48,1.27-13.42,1.91Z"/>
      <rect class="cls-4" x=".12" y="35.52" width="267.28" height="195.53"/>
      <path d="M36.05,163.12c-2.36-.06-3.06.12-5.33.09-2.18-.03-2.75-.22-4.85-.35-3.5-.22-5.18.1-10.11.2-6.16.12-10.8-.23-10.82-.19-.03.04,4.85.46,10.64.39,4.42-.05,5.25-.33,8.82-.19,3.2.12,3.64.39,6.72.4,2.01,0,2.75-.1,5.7-.06,1.93.02,3.11.09,3.16.05.07-.05-1.77-.28-3.94-.34Z"/>
      <path d="M242.54,210.64c-5.19-.12-6.75.13-11.74.05-4.81-.07-6.07-.35-10.71-.56-7.72-.36-11.43.07-22.29.14-13.58.09-23.8-.48-23.86-.42-.06.06,10.7.7,23.47.7,9.75,0,11.58-.38,19.44-.14,7.06.22,8.04.59,14.83.66,4.44.04,6.05-.1,12.57-.01,4.26.06,6.85.17,6.97.11.16-.07-3.91-.41-8.69-.52Z"/>
      <path d="M156.57,198.95c-2.61-.08-3.4.23-5.91.2-2.42-.03-3.05-.34-5.38-.54-3.88-.33-5.75.21-11.21.42-6.83.26-11.97-.29-12-.21-.03.07,5.37.7,11.8.55,4.9-.12,5.83-.59,9.78-.4,3.55.17,4.04.61,7.45.6,2.23,0,3.05-.19,6.32-.16,2.14.02,3.44.12,3.51.05.08-.09-1.96-.44-4.36-.51Z"/>
      <path d="M99.12,174.67c-1.21-.04-1.58.09-2.74.08-1.12-.01-1.42-.14-2.5-.23-1.8-.14-2.67.08-5.21.17-3.17.1-5.56-.13-5.57-.1-.01.03,2.5.3,5.48.24,2.28-.05,2.71-.24,4.54-.16,1.65.07,1.87.26,3.46.26,1.04,0,1.41-.08,2.94-.06.99.01,1.6.05,1.63.02.04-.04-.91-.19-2.03-.22Z"/>
      <path d="M57.3,150.26c-.98-.03-1.28.1-2.22.09-.91-.01-1.15-.14-2.02-.23-1.46-.14-2.16.1-4.22.19-2.57.12-4.5-.11-4.51-.08-.01.03,2.02.3,4.44.23,1.84-.06,2.19-.26,3.68-.18,1.34.07,1.52.26,2.8.25.84,0,1.15-.09,2.38-.07.81,0,1.3.05,1.32.02.03-.04-.74-.19-1.64-.22Z"/>
      <path d="M82.03,189.19c-1.89-.05-2.45.09-4.27.06-1.75-.02-2.21-.16-3.89-.26-2.81-.17-4.16.07-8.1.13-4.94.08-8.65-.18-8.68-.15-.02.03,3.89.34,8.53.3,3.54-.03,4.21-.23,7.07-.13,2.57.09,2.92.29,5.39.3,1.61,0,2.2-.07,4.57-.04,1.55.02,2.49.07,2.53.04.06-.04-1.42-.2-3.16-.25Z"/>
      <g>
        <path d="M110.11,184.54c.48-.01.88.11,1.33.25.63.19.84.42,1.33.56.65.18,1.56.39,2.66.5,2.49.24,4.02-.25,4.04-.12.01.07-2.95,1.05-6.58.93-1.91-.06-4.79-.46-4.83-1.11-.03-.42,1.09-.97,2.05-.99Z"/>
        <path class="cls-2" d="M109.87,185.28c-.18-.54.07-1.2.42-1.61,1.47-1.71,5.57-.08,6.4.25,1.15.46,2.85,1.13,2.78,1.8-.1.96-3.79,1.31-6.58.93-2.64-.36-2.96-1.18-3.02-1.36Z"/>
        <path class="cls-2" d="M109.87,185.28c-.25-.67.09-1.56.42-1.61.29-.05.44.58,1.15,1.11.48.36.98.5,1.33.56.65.18,1.56.39,2.66.5.18.02.99.09,2.06.05.78-.03,1.45-.1,1.98-.17,0,.02-.02.05-.03.09-.18.46-.74.66-1.32.78-2.7.57-5.23.05-5.23.05-1.7-.35-2.73-.57-3.02-1.36Z"/>
      </g>
      <g>
        <path d="M169.01,163.49c.48-.01.88.11,1.33.25.63.19.84.42,1.33.56.65.18,1.56.39,2.66.5,2.49.24,4.02-.25,4.04-.12.01.07-2.95,1.05-6.58.93-1.91-.06-4.79-.46-4.83-1.11-.03-.42,1.09-.97,2.05-.99Z"/>
        <path class="cls-2" d="M168.77,164.24c-.18-.54.07-1.2.42-1.61,1.47-1.71,5.57-.08,6.4.25,1.15.46,2.85,1.13,2.78,1.8-.1.96-3.79,1.31-6.58.93-2.64-.36-2.96-1.18-3.02-1.36Z"/>
        <path class="cls-2" d="M168.77,164.24c-.25-.67.09-1.56.42-1.61.29-.05.44.58,1.15,1.11.48.36.98.5,1.33.56.65.18,1.56.39,2.66.5.18.02.99.09,2.06.05.78-.03,1.45-.1,1.98-.17,0,.02-.02.05-.03.09-.18.46-.74.66-1.32.78-2.7.57-5.23.05-5.23.05-1.7-.35-2.73-.57-3.02-1.36Z"/>
      </g>
      <g>
        <path d="M59.14,167.45c.48-.01.88.11,1.33.25.63.19.84.42,1.33.56.65.18,1.56.39,2.66.5,2.49.24,4.02-.25,4.04-.12.01.07-2.95,1.05-6.58.93-1.91-.06-4.79-.46-4.83-1.11-.03-.42,1.09-.97,2.05-.99Z"/>
        <path class="cls-2" d="M58.9,168.19c-.18-.54.07-1.2.42-1.61,1.47-1.71,5.57-.08,6.4.25,1.15.46,2.85,1.13,2.78,1.8-.1.96-3.79,1.31-6.58.93-2.64-.36-2.96-1.18-3.02-1.36Z"/>
        <path class="cls-2" d="M58.9,168.19c-.25-.67.09-1.56.42-1.61.29-.05.44.58,1.15,1.11.48.36.98.5,1.33.56.65.18,1.56.39,2.66.5.18.02.99.09,2.06.05.78-.03,1.45-.1,1.98-.17,0,.02-.02.05-.03.09-.18.46-.74.66-1.32.78-2.7.57-5.23.05-5.23.05-1.7-.35-2.73-.57-3.02-1.36Z"/>
      </g>
      <g>
        <path d="M216.96,209.55c1.12-.02,2.08.26,3.13.58,1.49.45,1.98.99,3.13,1.31,1.53.43,3.67.92,6.26,1.17,5.88.56,9.48-.59,9.54-.29.03.15-6.95,2.48-15.52,2.19-4.5-.15-11.29-1.08-11.39-2.63-.06-.98,2.58-2.29,4.84-2.34Z"/>
        <path class="cls-2" d="M216.39,211.3c-.49-1.58.68-3.32,1-3.8,1.52-2.27,4.02-2.73,4.58-2.84,2.2-.41,3.97.3,6.96,1.72,6.82,3.25,10.23,4.88,10.1,5.93-.27,2.33-9.13,3.06-15.52,2.19-2.6-.35-6.41-.91-7.12-3.21Z"/>
        <path class="cls-2" d="M216.39,211.3c-.18-.69-.23-1.91,1-3.8.54.71,1.41,1.72,2.71,2.63,2.7,1.89,5.54,2.14,9.4,2.48.5.04,2.38.2,4.87.12,1.83-.06,3.42-.23,4.67-.41-.01.05-.04.13-.07.22-.52,1.33-2.41,1.71-3.11,1.85-2.23.45-18.04,2.37-19.46-3.09Z"/>
      </g>
      <g>
        <path d="M92.51,209.43c.57-.01,1.06.13,1.6.3.76.23,1.01.51,1.6.67.78.22,1.87.47,3.19.6,3,.29,4.83-.3,4.86-.15.02.08-3.54,1.26-7.91,1.12-2.29-.08-5.76-.55-5.81-1.34-.03-.5,1.32-1.17,2.47-1.19Z"/>
        <path class="cls-2" d="M92.22,210.32c-.21-.65.08-1.44.51-1.94,1.77-2.05,6.7-.1,7.7.3,1.38.55,3.42,1.36,3.34,2.16-.12,1.15-4.56,1.58-7.91,1.12-3.17-.44-3.56-1.42-3.63-1.64Z"/>
        <path class="cls-2" d="M92.22,210.32c-.3-.8.11-1.87.51-1.94.35-.06.53.7,1.38,1.34.57.43,1.17.6,1.6.67.78.22,1.87.47,3.19.6.22.02,1.19.1,2.48.06.94-.03,1.74-.12,2.38-.21,0,.03-.02.07-.04.11-.22.55-.89.8-1.59.94-3.25.68-6.29.06-6.29.06-2.05-.42-3.28-.68-3.63-1.64Z"/>
      </g>
      <g>
        <path d="M198.58,215.95c.57-.01,1.06.13,1.6.3.76.23,1.01.51,1.6.67.78.22,1.87.47,3.19.6,3,.29,4.83-.3,4.86-.15.02.08-3.54,1.26-7.91,1.12-2.29-.08-5.76-.55-5.81-1.34-.03-.5,1.32-1.17,2.47-1.19Z"/>
        <path class="cls-2" d="M198.29,216.84c-.21-.65.08-1.44.51-1.94,1.77-2.05,6.7-.1,7.7.3,1.38.55,3.42,1.36,3.34,2.16-.12,1.15-4.56,1.58-7.91,1.12-3.17-.44-3.56-1.42-3.63-1.64Z"/>
        <path class="cls-2" d="M198.29,216.84c-.3-.8.11-1.87.51-1.94.35-.06.53.7,1.38,1.34.57.43,1.17.6,1.6.67.78.22,1.87.47,3.19.6.22.02,1.19.1,2.48.06.94-.03,1.74-.12,2.38-.21,0,.03-.02.07-.04.11-.22.55-.89.8-1.59.94-3.25.68-6.29.06-6.29.06-2.05-.42-3.28-.68-3.63-1.64Z"/>
      </g>
      <g>
        <path d="M51.5,213.69c1.06-.02,1.96.26,2.95.58,1.4.45,1.86.99,2.95,1.31,1.44.43,3.46.92,5.9,1.17,5.54.56,8.93-.59,8.98-.29.03.15-6.55,2.48-14.62,2.19-4.24-.15-10.64-1.08-10.73-2.63-.06-.98,2.43-2.29,4.56-2.34Z"/>
        <path class="cls-2" d="M50.96,215.44c-.43-1.25-.04-2.91.94-3.8,1.03-.93,2.28-.61,7.15-.16,4.1.38,3.55.18,4.56.37,3.71.68,8.83,2.89,8.67,4.61-.2,2.11-8.28,3.15-14.62,2.19-2.58-.39-5.93-.94-6.7-3.21Z"/>
        <path class="cls-2" d="M50.96,215.44c-.55-1.58.21-3.68.94-3.8.64-.11.97,1.38,2.55,2.63,1.06.84,2.17,1.17,2.95,1.31,1.44.43,3.46.92,5.9,1.17.41.04,2.19.2,4.58.12,1.73-.06,3.22-.23,4.4-.41-.01.05-.03.13-.07.22-.4,1.08-1.65,1.57-2.93,1.85-6,1.34-11.62.12-11.62.12-3.78-.82-6.06-1.34-6.7-3.21Z"/>
      </g>
      <g>
        <path d="M137.26,215.81c1.06-.02,1.96.26,2.95.58,1.4.45,1.86.99,2.95,1.31,1.44.43,3.46.92,5.9,1.17,5.54.56,8.93-.59,8.98-.29.03.15-6.55,2.48-14.62,2.19-4.24-.15-10.64-1.08-10.73-2.63-.06-.98,2.43-2.29,4.56-2.34Z"/>
        <path class="cls-2" d="M136.73,217.56c-.43-1.25-.04-2.91.94-3.8,1.03-.93,2.28-.61,7.15-.16,4.1.38,3.55.18,4.56.37,3.71.68,8.83,2.89,8.67,4.61-.2,2.11-8.28,3.15-14.62,2.19-2.58-.39-5.93-.94-6.7-3.21Z"/>
        <path class="cls-2" d="M136.73,217.56c-.55-1.58.21-3.68.94-3.8.64-.11.97,1.38,2.55,2.63,1.06.84,2.17,1.17,2.95,1.31,1.44.43,3.46.92,5.9,1.17.41.04,2.19.2,4.58.12,1.73-.06,3.22-.23,4.4-.41-.01.05-.03.13-.07.22-.4,1.08-1.65,1.57-2.93,1.85-6,1.34-11.62.12-11.62.12-3.78-.82-6.06-1.34-6.7-3.21Z"/>
      </g>
      <path d="M30.05,198.42c3.52-.02,4.58.2,7.97.21,3.27,0,4.12-.19,7.26-.3,5.24-.18,7.76.22,15.13.42,9.22.26,16.15-.05,16.19,0,.04.05-7.26.42-15.93.23-6.62-.14-7.86-.47-13.19-.39-4.79.07-5.45.36-10.06.32-3.01-.03-4.11-.17-8.53-.19-2.89-.01-4.65.04-4.73,0-.11-.06,2.65-.28,5.89-.3Z"/>
      <path d="M258.56,163.57c-2.41-.07-3.14.21-5.45.18-2.24-.03-2.82-.3-4.97-.48-3.58-.3-5.31.19-10.35.37-6.31.23-11.05-.26-11.08-.2-.03.07,4.96.63,10.89.5,4.53-.1,5.38-.52,9.03-.35,3.28.15,3.73.55,6.88.54,2.06,0,2.81-.17,5.84-.14,1.98.02,3.18.11,3.24.05.07-.08-1.81-.39-4.03-.46Z"/>
      <path d="M196.54,154.62c-.99-.05-1.29.24-2.25.23-.92,0-1.16-.28-2.04-.43-1.47-.26-2.19.24-4.27.48-2.6.29-4.55-.15-4.57-.09-.01.07,2.04.58,4.49.39,1.87-.15,2.22-.58,3.73-.44,1.35.12,1.53.51,2.83.47.85-.02,1.16-.2,2.41-.2.82,0,1.31.07,1.33.01.03-.08-.74-.38-1.66-.42Z"/>
      <path d="M109.5,156.87c-.99-.03-1.29.09-2.25.08-.92-.01-1.16-.13-2.05-.2-1.48-.13-2.19.08-4.27.16-2.6.1-4.55-.11-4.57-.08-.01.03,2.04.27,4.49.21,1.87-.05,2.22-.22,3.72-.15,1.35.07,1.54.23,2.84.23.85,0,1.16-.07,2.41-.06.82,0,1.31.04,1.33.02.03-.03-.75-.17-1.66-.2Z"/>
      <g>
        <path d="M128.53,170.8c.86-.02,1.59.2,2.39.45,1.14.34,1.51.76,2.39,1,1.17.33,2.8.7,4.78.89,4.49.43,7.24-.45,7.28-.22.02.12-5.31,1.89-11.85,1.67-3.43-.11-8.62-.83-8.7-2.01-.05-.75,1.97-1.75,3.7-1.78Z"/>
        <path class="cls-2" d="M128.1,172.14c-.39-1.22.5-2.52.76-2.9,1.48-2.14,4.52-2.79,6.87-2.27,1.28.28,1.41.7,4.66,2.72,4.01,2.5,5.04,2.62,5,3.23-.1,1.51-6.47,2.42-11.85,1.67-2.05-.28-4.87-.71-5.44-2.45Z"/>
        <path class="cls-2" d="M128.1,172.14c-.44-1.2.17-2.81.76-2.9.59-.09.75,1.4,2.07,2.01,1.22.56,1.81-.38,3.48-.09,1.74.3,1.7,1.42,3.7,1.99.81.23,1.78.15,3.72.09,1.4-.05,2.61-.18,3.57-.31-.01.04-.03.1-.05.17-.32.82-1.34,1.19-2.37,1.41-4.86,1.02-9.42.09-9.42.09-3.07-.62-4.91-1.03-5.44-2.45Z"/>
      </g>
      <g>
        <path d="M141.75,149.72c.38,0,.71.09,1.07.2.51.15.67.34,1.07.45.52.15,1.25.31,2.13.4,2,.19,3.23-.2,3.25-.1.01.05-2.37.84-5.29.75-1.53-.05-3.85-.37-3.88-.9-.02-.34.88-.78,1.65-.8Z"/>
        <path class="cls-2" d="M141.55,150.31c-.14-.44.06-.96.34-1.29,1.18-1.37,4.48-.06,5.14.2.92.37,2.29.91,2.23,1.44-.08.77-3.05,1.06-5.29.75-2.12-.29-2.38-.95-2.43-1.09Z"/>
        <path class="cls-2" d="M141.55,150.31c-.2-.54.08-1.25.34-1.29.23-.04.35.47.92.9.38.29.78.4,1.07.45.52.15,1.25.31,2.13.4.15.01.79.07,1.66.04.62-.02,1.16-.08,1.59-.14,0,.02-.01.04-.02.07-.14.37-.6.53-1.06.63-2.17.46-4.2.04-4.2.04-1.37-.28-2.19-.46-2.43-1.09Z"/>
      </g>
      <g>
        <path d="M75.21,151.64c.31,0,.57.07.86.16.41.12.54.27.86.36.42.12,1.01.25,1.72.32,1.62.15,2.61-.16,2.62-.08,0,.04-1.91.68-4.26.6-1.24-.04-3.1-.3-3.13-.72-.02-.27.71-.63,1.33-.64Z"/>
        <path class="cls-2" d="M75.05,152.12c-.11-.35.04-.78.27-1.04.95-1.11,3.61-.05,4.15.16.75.3,1.84.73,1.8,1.16-.06.62-2.46.85-4.26.6-1.71-.24-1.92-.77-1.96-.88Z"/>
        <path class="cls-2" d="M75.05,152.12c-.12-.38.1-.79.27-1.04.14.2.38.49.74.72.09.06.31.21.86.36.42.12,1.01.25,1.72.32.65.06,1.18.04,1.34.03.8-.03,1.24-.14,1.26-.05.03.09-.43.35-.85.51-1.21.46-2.32.25-3.39.03-1.11-.23-1.79-.37-1.96-.88Z"/>
      </g>
      <g>
        <path class="cls-1" d="M109.18,148.86c.2,0,.37.04.56.1.26.07.35.16.56.21.27.07.65.15,1.11.19,1.05.09,1.69-.1,1.7-.05,0,.03-1.24.4-2.76.36-.8-.02-2.01-.18-2.02-.43-.01-.16.46-.37.86-.38Z"/>
        <path class="cls-2" d="M109.08,149.14c-.07-.21.03-.46.18-.62.62-.66,2.34-.03,2.68.1.48.18,1.19.43,1.16.69-.04.37-1.59.51-2.76.36-1.11-.14-1.24-.45-1.27-.52Z"/>
        <path class="cls-2" d="M109.08,149.14c-.08-.23.07-.47.18-.62.09.12.24.29.48.43.06.04.2.12.56.21.27.07.65.15,1.11.19.42.04.77.02.86.02.52-.02.8-.08.82-.03.02.05-.28.2-.55.3-.78.27-1.5.15-2.19.02-.72-.13-1.16-.22-1.27-.52Z"/>
      </g>
      <g>
        <path class="cls-1" d="M205.94,149.1c.2,0,.37.04.56.1.26.07.35.16.56.21.27.07.65.15,1.11.19,1.05.09,1.69-.1,1.7-.05,0,.03-1.24.4-2.76.36-.8-.02-2.01-.18-2.02-.43-.01-.16.46-.37.86-.38Z"/>
        <path class="cls-2" d="M205.84,149.39c-.07-.21.03-.46.18-.62.62-.66,2.34-.03,2.68.1.48.18,1.19.43,1.16.69-.04.37-1.59.51-2.76.36-1.11-.14-1.24-.45-1.27-.52Z"/>
        <path class="cls-2" d="M205.84,149.39c-.08-.23.07-.47.18-.62.09.12.24.29.48.43.06.04.2.12.56.21.27.07.65.15,1.11.19.42.04.77.02.86.02.52-.02.8-.08.82-.03.02.05-.28.2-.55.3-.78.27-1.5.15-2.19.02-.72-.13-1.16-.22-1.27-.52Z"/>
      </g>
      <g>
        <path d="M209.94,168.84c.57-.01,1.06.13,1.6.3.76.23,1.01.51,1.6.67.78.22,1.87.47,3.19.6,3,.29,4.83-.3,4.86-.15.02.08-3.54,1.26-7.91,1.12-2.29-.08-5.76-.55-5.81-1.34-.03-.5,1.32-1.17,2.47-1.19Z"/>
        <path class="cls-2" d="M209.65,169.73c-.21-.65.08-1.44.51-1.94,1.77-2.05,6.7-.1,7.7.3,1.38.55,3.42,1.36,3.34,2.16-.12,1.15-4.56,1.58-7.91,1.12-3.17-.44-3.56-1.42-3.63-1.64Z"/>
        <path class="cls-2" d="M209.65,169.73c-.3-.8.11-1.87.51-1.94.35-.06.53.7,1.38,1.34.57.43,1.17.6,1.6.67.78.22,1.87.47,3.19.6.22.02,1.19.1,2.48.06.94-.03,1.74-.12,2.38-.21,0,.03-.02.07-.04.11-.22.55-.89.8-1.59.94-3.25.68-6.29.06-6.29.06-2.05-.42-3.28-.68-3.63-1.64Z"/>
      </g>
      <g>
        <path d="M166.11,186.42c1.06-.02,1.96.26,2.95.58,1.4.45,1.86.99,2.95,1.31,1.44.43,3.46.92,5.9,1.17,5.54.56,8.93-.59,8.98-.29.03.15-6.55,2.48-14.62,2.19-4.24-.15-10.64-1.08-10.73-2.63-.06-.98,2.43-2.29,4.56-2.34Z"/>
        <path class="cls-2" d="M165.57,188.17c-.43-1.25-.04-2.91.94-3.8,1.03-.93,2.28-.61,7.15-.16,4.1.38,3.55.18,4.56.37,3.71.68,8.83,2.89,8.67,4.61-.2,2.11-8.28,3.15-14.62,2.19-2.58-.39-5.93-.94-6.7-3.21Z"/>
        <path class="cls-2" d="M165.57,188.17c-.55-1.58.21-3.68.94-3.8.64-.11.97,1.38,2.55,2.63,1.06.84,2.17,1.17,2.95,1.31,1.44.43,3.46.92,5.9,1.17.41.04,2.19.2,4.58.12,1.73-.06,3.22-.23,4.4-.41-.01.05-.03.13-.07.22-.4,1.08-1.65,1.57-2.93,1.85-6,1.34-11.62.12-11.62.12-3.78-.82-6.06-1.34-6.7-3.21Z"/>
      </g>
      <g>
        <path class="cls-1" d="M240.9,185.8c.49,0,.9.1,1.36.23.65.18.86.39,1.36.51.67.17,1.6.36,2.73.45,2.56.22,4.12-.23,4.15-.11.01.06-3.02.96-6.75.85-1.96-.06-4.91-.42-4.96-1.02-.03-.38,1.12-.89,2.11-.91Z"/>
        <path class="cls-2" d="M240.65,186.49c-.18-.5.07-1.1.43-1.48,1.51-1.57,5.72-.07,6.57.23,1.18.42,2.92,1.04,2.85,1.65-.1.88-3.89,1.2-6.75.85-2.71-.33-3.04-1.08-3.1-1.25Z"/>
        <path class="cls-2" d="M240.65,186.49c-.19-.54.16-1.12.43-1.48.22.28.6.69,1.18,1.02.15.09.49.29,1.36.51.67.17,1.6.36,2.73.45,1.03.09,1.87.05,2.12.05,1.26-.04,1.96-.2,2-.07.04.13-.68.49-1.35.72-1.92.65-3.68.35-5.37.05-1.76-.32-2.84-.53-3.1-1.25Z"/>
      </g>
    </g>
  </g>
</svg>