<?xml version="1.0" encoding="UTF-8"?>
<svg id="Layer_1" xmlns="http://www.w3.org/2000/svg" version="1.1" viewBox="0 0 423.9 224.6">
  <!-- Generator: Adobe Illustrator 29.0.1, SVG Export Plug-In . SVG Version: 2.1.0 Build 192)  -->
  <defs>
    <style>
      .st0 {
        stroke: #fff;
      }

      .st0, .st1 {
        stroke-miterlimit: 10;
        stroke-width: .2px;
      }

      .st2, .st1 {
        fill: #fff;
      }

      .st1 {
        stroke: #000;
      }
    </style>
  </defs>
  <g>
    <path class="st0" d="M287,82c-9.1,5.5-9.9,6-10,5.9-.2-.3,5.1-5.9,12.9-10.3,6.6-3.8,8.3-2.5,14.5-6.5,1.3-.8,10.3-6.7,9.4-11-.3-1.4-1.5-2.3-1.6-2.3-2.2-1.6-5.1,0-5.2-.2-.1-.3,5.5-4.6,12.5-5.8,16-2.7,30.2,12.5,30,12.9-.1.2-4.2-3.5-10-2.9-1.3.1-4,.4-6.3,2.6-3.5,3.3-4.1,9.2-3.8,13.5.2,3.5,2.1,6.2,1,7.5-.7.8-2,.4-2.7.2-7.1-1.6-14.9,5.8-15.6,4.7-.5-.9,4.7-3.7,4.4-7.4-.4-4.1-7.6-7.4-9.6-5.6-.8.7-.7,2.1-2.4,3.8-.5.5-1,1-1.4.9-.8-.4.1-3.2-1-4.2-.4-.3-.9-.3-1.3-.3-7,.6-13.7,4.7-13.7,4.7h0Z"/>
    <path class="st0" d="M287,82.9c-9.1,5.5-9.9,6-10,5.9-.2-.3,5.1-5.9,12.9-10.3,6.6-3.8,8.3-2.5,14.5-6.5,1.3-.8,10.3-6.7,9.4-11-.3-1.4-1.5-2.3-1.6-2.3-2.2-1.6-5.1,0-5.2-.2-.1-.3,5.5-4.6,12.5-5.8,16-2.7,30.2,12.5,30,12.9-.1.2-4.2-3.5-10-2.9-1.3.1-4,.4-6.3,2.6-3.5,3.3-4.1,9.2-3.8,13.5.2,3.5,2.1,6.2,1,7.4-.7.8-2,.4-2.7.2-7.1-1.6-14.9,5.8-15.6,4.7-.5-.9,4.7-3.7,4.4-7.4-.4-4.1-7.6-7.4-9.6-5.6-.8.7-.7,2.1-2.4,3.8-.5.5-1,1-1.4.9-.8-.4.1-3.2-1-4.2-.4-.3-.9-.3-1.3-.3-7,.6-13.7,4.7-13.7,4.7h0Z"/>
  </g>
  <g>
    <path class="st0" d="M196.7,157.2c.2-.4.5-.9.4-1.4-.2-1.6-2.8-2.1-2.7-3,0-.5.8-.7,1.3-.9,2.2-.8,3.2,0,4.1-.5,2.4-1,3.4-9.7.4-12.1-2.7-2.1-7.4,1.6-7.9.7-.6-1.2,9-5.3,11.3-13,.2-.7.6-2.2,1.5-2.5,1.5-.5,2.7,2.6,5.3,4.6,3.2,2.4,8.1,4.7,12.3,2.9,2.8-1.2,4.3-3.7,5.1-4.9,3.3-5.4,2.5-11.2,2.7-11.2.4,0,5.2,21.4-4.8,35.7-4.3,6.2-10.4,9.6-10.6,9.4-.1-.2,2.5-2.3,2.4-5.2,0,0-.1-1.8-1-2.7-2.9-3-11.8,2.9-13.1,3.8-6.2,4.1-6.1,6.4-12.2,11-7.3,5.4-14.2,7.9-14.3,7.6,0-.1.7-.7,9.4-6.9,0,0,6.4-4.6,10.3-11.1h0Z"/>
    <path class="st0" d="M196.7,158.1c.2-.4.5-.9.4-1.4-.2-1.6-2.8-2.1-2.7-3,0-.5.8-.7,1.3-.9,2.2-.8,3.2,0,4.1-.5,2.4-1,3.4-9.7.4-12.1-2.7-2.1-7.4,1.6-7.9.7-.6-1.2,9-5.3,11.3-13,.2-.7.6-2.2,1.5-2.5,1.5-.5,2.7,2.6,5.3,4.6,3.2,2.4,8.1,4.7,12.3,2.9,2.8-1.2,4.3-3.7,5.1-4.9,3.3-5.4,2.5-11.2,2.7-11.2.4,0,5.2,21.4-4.8,35.7-4.3,6.2-10.4,9.6-10.6,9.4-.1-.2,2.5-2.3,2.4-5.2,0,0-.1-1.8-1-2.7-2.9-3-11.8,2.9-13.1,3.8-6.2,4.1-6.1,6.4-12.2,11-7.3,5.4-14.2,7.9-14.3,7.6,0-.1.7-.7,9.4-6.9,0,0,6.4-4.6,10.3-11.1h0Z"/>
  </g>
  <path class="st0" d="M204.7,136.6c-4.6-1.8-6-7.2-7.3-6.7-.6.3-.5,1.6-.8,2.9-1,5.8-8.8,11.1-15.6,11.7,0,0-9.5.9-10.1,2.2,0,0-.2.4-.5.8-1.1,1.5-3.3,2.2-4,1.4-.4-.4,0-.9-.5-1.4-.4-.5-.9-.2-2.1-.4-1.8-.2-2.4-.8-3.2-.3-.2.2-.1.2-.6.6-.5.5-1.1,1.2-1.9,1.3-.9.1-1.2-.7-1.9-.5-.8.2-.8,1.1-1.4,1.2-.8.1-1.1-.8-1.8-.7-.7.1-.8,1.1-1.5,1.2-.8.1-1.1-.9-1.9-.8-.7.1-.7,1.1-1.4,1.3-.7.2-1.1-.8-1.9-.7-.7.1-.8,1-1.5,1.1-.7,0-1-.8-1.6-.8-.8,0-.9,1.3-1.6,1.4-.7,0-1-.9-1.7-.8-.5,0-.7.6-.9.8-1,1.5-3.3,2-4.2,2.2-4.4.9-11.4-7.6-12.7-9.7-.2-.3-.7-1.2-1.6-1.4-.7-.1-1.4.3-1.5.4-2.7,1.9-13.6.9-13.8,2.8-.1.7,1.6,1,1.7,2.3.2,1.8-3.1,4.2-6.3,4.9-3.5.7-4.6-1.1-8.8-1.5-6.1-.6-10.8,2.5-10.8,2.6,0,.2,4.3-2.1,9.5-.9,3.9.9,4,2.6,7.4,3.7,7.4,2.3,14.1-4,15.1-2.2.6,1-.9,3.7-2.3,5.2s-2.7,2-8.1,3.1c-8.2,1.7-11.2,2.7-13,.9-.4-.4-1-1.2-2.1-1.5-1.5-.4-2.8.3-3.2.5-3.7,1.7-8.3-6.4-15-6.9-5.7-.4-9.5,4.8-14.3,3.2-.5-.2-1.4-.5-2.5-.2-2,.6-3.2,3.1-3.7,5.2-.5,2.5.5,3,.3,5.1-.5,4.4-5.1,4.6-6.5,9.3-1,3.4,1,4.6.4,8.5-.3,2-1.4,4.9-5.8,8.6-10.4,8.7-24.2,8.8-24.2,10,0,1.4,18,.1,30.3.7,3.8.2,7.8.6,11.9-1.4.9-.4,1.5-.9,2.8-1.3,4.2-1.1,6.5,1.4,8.2,0,1.4-1.2.2-3.1,1.8-5.3,1.7-2.3,3.8-1.2,5-3.2,1.3-2.1-.9-4.1,0-7.6.7-3.1,3.5-6.1,6.3-6.4,2.5-.3,4.4,1.7,5.5.6.7-.7.2-1.8,1-3.2.8-1.5,2.2-2.2,3.3-2.6,5.4-1.6,9.8-1.9,12.9-1.9,5.4,0,7.1,1.1,12.4.4,5-.6,10.8-2.5,11-5,0-1.2-1.2-1.6-1.2-3,0-3,6.2-4.9,7-5.1,5.9-1.8,12.3-.6,12.6,1.4.1,1.1-1.4,1.8-1.1,3.1.3,1.4,2.6,2,2.9,2.1,4.9,1.2,10.5-3.1,11.9-4.3,1.4-1.1,2.2-2,3.8-2.3,1.9-.4,3.9.1,5.1.5,2.4.7,3.3,1.5,3.9.9.8-.8-.2-2.7.8-3.8.6-.6,1.5-.7,2.1-.3.7.6,0,1.8.7,2.8.6.9,1.4.5,3.8,1.2,1.9.6,2.5,1.3,3.1.9.6-.4.3-1.4.6-2.7.6-2.7,3.8-5.4,6.1-4.4,1.2.5,2.4,2.1,2.3,3.5-.2,1.7-1.9,1.9-3.5,4.8-.9,1.6-.4,1.8-1.1,2.9-1.6,2.7-4.9,3.2-9.9,3.9-.8.1-1.5.2-2.2.2-2.3,0-3.2-.5-4.5-.6-3.1-.1-5.9,2.7-5.7,3.1.1.2,1.6-.9,4.1-1.4,5.6-.9,7.9,3.4,12.9,2.2,1.4-.3.7-.6,4.4-2.2,5.4-2.4,7.2-1.7,8.4-3.9.8-1.5.9-3.4,2.6-4.7.4-.3,1.4-1.1,2.4-.7.6.2.6.6,1,.7.4,0,.8-.4,2.1-2.6.8-1.4,1.3-2.1,1.6-2.4,1.8-1.7,5.8-1.1,8,1.4,1.4,1.5.8,3.3,2,4,1,.5,2.1-.2,3.7-1.1,5.4-2.9,7-1.7,10.9-4.8,1.5-1.2,2.9-2.7,2.7-3.1-.3-.6-3,1.9-6.2,1.6-4-.4-7.7-5.3-9-10.2-1.5-5.9.5-11.6-.8-12.1-.6-.2-1,.8-2.4,1.6-2.7,1.5-5.8.3-6.6,0h0ZM126.2,156.6c-.2.4-.5.3-1.6.9-1.6.8-2.5,1.8-3.4,2.7-2.7,2.7-6.6,5.5-6.8,5.2-.3-.3,5.4-4.2,5.1-8.9-.2-2.5-1.9-4.7-3.5-5.8-2.5-1.8-5.1-1.1-5.2-1.5,0-.5,3.6-2.1,7.5-1,4.9,1.4,8.5,6.8,7.7,8.4ZM170.5,154.6c-.8.7-1.3,1.1-2.1,2.1-.9,1.1-.7,1.8-1.3,2.1-.8.4-1.6-.4-2.8-.9-2.4-1.1-5.3-.4-6.9.6-1.6,1-1.2,1.9-3,3.4-2.6,2.2-5.9,2.5-6.2,1.8-.2-.6,1.6-1.4,1.6-2.9,0-2.1-3.9-3.6-4.6-3.9-4.8-1.8-8.9-.2-8.9-.5,0-.3,3-1.8,6.7-1.8,2.8,0,3.1,1.2,5.6,1,2.3-.2,3-1.1,4.8-.6,1.6.5,2.6,1.6,2.9,1.3.2-.3,0-1.1-.4-1.7-.7-1.1-1.7-1.4-1.7-1.5,0-.3,4.5,1.6,8.8,1.3,6.1-.4,10.1-5.5,10.6-4.7.4.5-1.3,3.2-3.1,4.9h0Z"/>
  <g>
    <path class="st0" d="M321.5,63.7c1.8.5,3.2,2,3.3,2.1,2.5,2.7,3.3,7.1,2.3,10.3-.8,2.6-2.5,3.2-7.4,6.7-3.9,2.8-8.4,6.4-17.4,13.6,0,0-4.2,3.3-4.5,2.8-.3-.4,2.7-3.4,2.1-4.6-.4-.8-2.2-.5-3.2-.3-11,2.4-16.3,11.1-16.3,11.1-1.4,2.3-1.9,3.9-4.1,6.7-.9,1.1-4.3,5.4-6.2,4.5-.7-.3-.6-1.1-1.6-1.7-.9-.5-1.6-.3-3.6-.2-1.7,0-2.5,0-3.1,0-4.4.6-9.3,5.1-19.2,13.6-.3.3-2.3,2.1-4.6,4.7-3.8,4.1-4.8,6.1-5.3,8.1-.2.6-1,3.8.2,4.9.9.8,2.2,0,2.3.3.2.5-5.9,7.1-11.9,4.3-4.6-2.2-6.6-8.4-5.6-12.8.6-2.6,2.3-4.4,3.5-5.7.6-.6,1-1,1.5-1.3,1-.8,1.8-1.2,2.5-1.5,2.4-1.2,3.6-1.8,4.8-3.1,1.3-1.4,1.1-2.1,2.3-2.8,1.1-.6,1.6,0,2.6-.8,1.1-.8.8-1.8,1.9-2.5,1-.6,1.5.1,2.6-.4,1.3-.7,1-1.9,2.4-2.8,1-.6,1.3-.1,2.4-.8,1.4-.8,1.2-1.5,2.4-2.2,1.3-.7,1.7,0,2.9-.8,1-.6.8-1.2,1.9-2.1.9-.8,1.2-.4,2.8-1.3,1.2-.7,2-1.1,2.3-2.1.3-.9-.1-1.3.2-1.8.5-.9,2-.9,3.1-.8,1.9,0,2.2.6,3.2.4,1.4-.3,2.1-1.6,2.9-2.6,3-3.5,6.7-.7,11.4-4.1,2.2-1.6,4.5-4.4,4-6.3-.3-.9-1-.9-1.1-1.6-.6-2.6,11.9-5.8,23-14.7,8.4-6.7,13-14.2,18.3-12.6h0Z"/>
    <path class="st0" d="M321.3,64.5c1.8.5,3.2,2,3.3,2.1,2.5,2.7,3.3,7.1,2.3,10.3-.8,2.6-2.5,3.2-7.4,6.7-3.9,2.8-8.4,6.4-17.4,13.6,0,0-4.2,3.3-4.5,2.8-.3-.4,2.7-3.4,2.1-4.6-.4-.8-2.2-.5-3.2-.3-11,2.4-16.3,11.1-16.3,11.1-1.4,2.3-1.9,3.9-4.1,6.7-.9,1.1-4.3,5.4-6.2,4.5-.7-.3-.6-1.1-1.6-1.7-.9-.5-1.6-.3-3.6-.2-1.7,0-2.5,0-3.1,0-4.4.6-9.3,5.1-19.2,13.6-.3.3-2.3,2.1-4.6,4.7-3.8,4.1-4.8,6.1-5.3,8.1-.2.6-1,3.8.2,4.9.9.8,2.2,0,2.3.3.2.5-5.9,7.1-11.9,4.3-4.6-2.2-6.6-8.4-5.6-12.8.6-2.6,2.3-4.4,3.5-5.7.6-.6,1-1,1.5-1.3,1-.8,1.8-1.2,2.5-1.5,2.4-1.2,3.6-1.8,4.8-3.1,1.3-1.4,1.1-2.1,2.3-2.8,1.1-.6,1.6,0,2.6-.8,1.1-.8.8-1.8,1.9-2.5,1-.6,1.5.1,2.6-.4,1.3-.7,1-1.9,2.4-2.8,1-.6,1.3-.1,2.4-.8,1.4-.8,1.2-1.5,2.4-2.2,1.3-.7,1.7,0,2.9-.8,1-.6.8-1.2,1.9-2.1.9-.8,1.2-.4,2.8-1.3,1.2-.7,2-1.1,2.3-2.1.3-.9-.1-1.3.2-1.8.5-.9,2-.9,3.1-.8,1.9,0,2.2.6,3.2.4,1.4-.3,2.1-1.6,2.9-2.6,3-3.5,6.7-.7,11.4-4.1,2.2-1.6,4.5-4.4,4-6.3-.3-.9-1-.9-1.1-1.6-.6-2.6,11.9-5.8,23-14.7,8.4-6.7,13-14.2,18.3-12.6h0Z"/>
  </g>
  <path class="st2" d="M206.9,144.4c-2.9-2-4-1.7-5.7-3.8-1.7-2.1-1.1-3.3-2.8-5.3-2.4-2.9-5.9-3.1-6-3,0,.1,1.9.6,2.9,2.5.1.3.8,1.5.4,2.5-.5,1.2-2.5,1.5-4,.9-1.9-.7-2.6-2.7-3.4-2.4-.4.2-.3.8-1.1,1.7-.3.3-.9,1-1.6,1-1.1,0-1.5-1.5-2.2-1.3-.6.1-.4,1.3-1.4,2.1-.9.8-2.1.7-2.2.7-1.6-.2-2.4-1.9-2.9-1.5-.2.2-.1.5-.3,1.1-.4,1.1-1.6,1.9-2.5,1.9-1.8,0-2.9-2.4-3.7-1.9-.4.2-.2.7-.7,1.5,0,0-.9,1.2-1.9,1.2-1.4,0-2.2-1.8-2.9-1.4-.3.2-.2.7-.4,1.2-.8,2.2-6.4,1.3-6.6,2.2-.1.8,3.4,1.3,4.1,3.4,1,3-3.6,9.5-9.3,11.2-10.4,3.1-21-11.2-21.4-13.9,0-.1,0-.6-.3-.9-1-1.1-3.9.4-5.2,1.1-7.6,3.9-16.4,6-19.8,5.7-.3,0-1.2-.2-2.4,0-1.1.2-1.8.7-2,.9-2.2,1.4-6.7,3.7-9.5,5.1-5.6,2.8-10.5,2.5-10.5,2.7,0,.2,4.3.5,9.7-.9,7.7-2,10.7-5.7,15.7-4.1,1.5.5,3.3,1.4,3.3,2.3,0,2.2-10,.6-13.6,6.9-1.6,2.7-.5,4.4-3,9.6-.7,1.3-1.4,2.5-1.3,4.3,0,2.8,1.8,4.1,1.3,5.1-.7,1.1-4,.8-5.2-1.1-.5-.8-.4-1.5-1-1.9-.9-.6-2.2.3-2.7.6-3,1.7-7.4-.7-9.1-1.6-4.7-2.5-9-8.6-10.8-10.1-.3-.2-.7-.6-1.3-.9-.5-.3-1-.5-1.1-.6-1.4-.6-3.6-2.4-4-2.6-3.2-2.4-8.7-2.7-8.7-2.5,0,.2,4.8.6,7.8,4.8.9,1.2,1.8,3,1.4,3.4-.5.6-2.6-1.9-6-3.2-3.5-1.3-6.9-.6-13.6.9-1.8.4-3.6.8-5.9,1.5-9.7,3.2-16.4,9-16.2,9.2.1.2,6.8-4.8,17.4-7.6,5.3-1.4,9.3-1.6,11.7.9.3.3,1.6,1.6,1.6,3.4,0,3.3-3.9,5.6-4.1,5.7-4.5,2.5-9.5-.3-9.6.2-.1.4,4.1,3.4,8.1,2.1,1.3-.4,2.4-1.2,2.9-.7.8.8-.3,3.4-.4,3.8-2.6,6.6-10.9,9.5-11.4,9.6.4,0,7.2-1.1,12.7-6.9,1.2-1.3,3.1-3.7,5.2-3.2,1.3.3,1.4,1.3,3.1,1.9,2.3.8,3.2-.8,5,0,2.7,1.2,2.2,4.4,3.7,4.4s1.9-2.1,5.8-6.9c1.3-1.6,1.9-2.4,2.3-2.5,5-1.9,13.3,12.1,15.4,10.4.2-.1,0-.2.4-.7,1.6-2.5,6.3-2.9,9.3-1.1.9.5,1,.9,1.5.8,1.5-.4.2-5.4,2.6-10,1.9-3.8,4.7-4.1,4.6-6.4-.1-2.6-3.8-3.2-3.8-5.6,0-3,6-5.4,7.3-5.9,3.1-1.2,4.3-1,6.4-1.5,4.2-.9,7.7-10.9,13.2-12.1,5.1-1.1,11.7,5.6,11.8,10.9,0,3.2-2.4,6.4-2,6.7.3.2,1.6-2.2,3.7-2.3.7,0,.9.3,1.6.4,1.9.2,2.8-1.5,4.5-2.5,2.7-1.5,6.4-.5,8.7,1.3,1.5,1.2,4,4.1,3.3,5.8-1,2.5-7.3-1.3-15.4,1.9-3.9,1.6-3.9,3-7.8,4.2-6.3,1.9-11.3-.2-11.4,0,0,.3,6.2,3.6,13.2,1.5,4-1.2,3.6-2.8,7.6-4,6.1-1.8,8.3,1.5,13.4-.8,3.4-1.6,6.3-4.9,5.9-6.2-.2-.6-1.1-.4-1.8-1-2-1.7-.6-8.1.6-11.1,4.9-12.1,26.7-17,32.3-9.5,2.6,3.6.5,8.6,4.3,12.1,1.9,1.8,5.3,3.2,8.4,1.5,2.8-1.6,4.5-5.2,4-8.3-.5-3.3-3.4-5.3-6-7.1h0ZM119.4,152.9c-2.4,2.9-3.1,6-3.8,5.8-.5-.1-.2-1.4-1.1-2.7-1.1-1.5-2.9-1.5-2.8-1.9,0-.4,1.6-.5,2.7-.6,1.9-.1,1.9.1,2.5-.1,1.5-.4,1.6-1.7,3.3-3,1.6-1.2,3.4-1.6,3.6-1.3.1.3-2.2,1.2-4.5,3.9h0Z"/>
  <path class="st2" d="M289.6,80.7c-.3,0,.6,6.2-.7,16.8-1.3,11-3.3,13-4,13.5-.4.3-2.2,1.6-2.1,3,0,.3.1.4.2.8.4,1.3-.3,3.2-1.1,3.7-1.5.9-4.8-2.2-6.5-4.8s-3.4-5.2-2.8-10.1c.4-3.3,2.2-5.5,1.5-6.2-.4-.4-1,0-2.5.8-2.4,1.1-6,2.7-8.8,1.4-1.1-.5-1.7-1.3-1.9-1.6-5.1-5.5-45.9,29.4-45.8,29.5,0,0,28.9-25.2,43.2-24.4.6,0,6.3.4,6.9,3.1.4,1.5-1.2,2.6-1.8,6.3-.3,2.3.2,2.5-.2,3.9-.4,1.6-1.6,3.3-6.4,5.8-3.7,1.9-5.7,2-7.4,3-9.2,5.5-8.1,17.5-13.8,18.3-4.8.7-8-7.5-12.8-5.6-2.3.9-3.4,3.2-3.5,3.4-1,2.2-1.2,5.5.3,7.4,2.1,2.7,5.4-.3,10.7,2.4,1.9,1,4.7,3,5,2.6.1-.2-.3-1,0-1.9,0,0,.2-.9.6-1.2,1.3-1.1,4,1.5,4.8.6.5-.5-.3-1.5.1-3.2.1-.4.6-1.9,1.7-2.4,1.8-.9,3.8,1.3,4.4.5.4-.5-.3-1.4,0-2.8.4-1.2,1.4-1.9,1.6-2,2.1-1.2,4.5.9,5.4-.2.3-.4,0-.8.3-1.8.6-2,2.4-3,2.6-3.1,2.3-1.2,4.4.4,5.1-.7.4-.6-.2-1.2,0-2.8,0-.3.4-2,1.4-2.9,1.8-1.8,4.6,0,5.6-1.5.4-.6,0-1,.4-2.2.5-1.4,2.1-2.8,2.1-2.8,2.5-2,3.8-3,4.6-3,1.6-.2,3.5.6,4.6,2.1.8,1.1.8,2.1,1.3,2.1.7,0,1.2-2.1,2.6-4.9,1.1-2.1,2-3.2,2.4-3.8,3.8-5.7,3-34.9,2.4-34.9h0ZM259.5,128.3c-.2.7-.2,1.1-.6,1.5-.6.5-1.2,0-2.5.2-.3,0-1.8.2-2.9,1.4-1,1-1.3,2.4-1.4,2.8-.2,1.1,0,1.4-.2,1.9-.6,1.1-2.2.2-3.8.8-2.8,1-3.4,4.9-4.2,4.6-.6-.2-.7-2.2-.4-3.9.6-3.5,2.8-6.9,5.9-8.8,2.8-1.7,3.5-.5,8.5-2.8,1.7-.8,3.5-1.8,3.8-1.4.2.4-1.5,1.4-2.1,3.8h0Z"/>
  <path class="st0" d="M204.5,138.8c-4.9-1.8-7.1-6.7-8-6-.4.3,0,1.2,0,2.3,0,4.8-7.9,10.7-15.6,11.7-.8.1-8.7,1.1-9.8,1.8-.2.1-.8.4-.8.9s0,.2,0,.3c0,.7-3.1,2.4-4,1.4-.4-.4,0-.9-.5-1.4-.4-.5-.9-.2-2.1-.4-1.8-.2-2.4-.8-3.2-.3-.2.2-.1.2-.6.6-.5.5-1.1,1.2-1.9,1.3-.9.1-1.1-.7-1.9-.5-.9.2-.9,1.1-1.7,1.2-.7,0-.9-.7-1.5-.7-.8,0-1,1.2-1.8,1.2-.7,0-.9-.9-1.6-.8-.8,0-.9,1.2-1.8,1.3-.7,0-.9-.7-1.6-.7-.8,0-1,1.2-1.7,1.2s-.8-.9-1.4-.9c-.8,0-1.1,1.4-2,1.4-.6,0-.8-.8-1.4-.7-.6,0-1,.6-1.2,1,0,0-1,1.3-3.8,2-4.3,1-11.3-7.4-12.7-9.7-.2-.3-.7-1.2-1.6-1.4-.7-.1-1.4.3-1.5.4-2.7,1.9-13.9,1.4-14,3.1,0,.6,1.7.8,1.9,2,.3,1.9-3.9,4.4-6.3,4.9-.8.1-1.4.2-2,.1-.6,0-1.3,0-2.3-.3-1.8-.4-3.1-1-3.3-1.1-3.6-1.7-12.7,2.9-12.7,3.1,0,.1,5.2-2.9,10.2-1.6.4.1,1.3.3,2.4.8,1.8.9,2.5,2.1,5,2.9,7.4,2.3,14.1-4,15.1-2.2.6,1-.9,3.7-2.3,5.2s-2.7,2-8.1,3.1c-8.2,1.7-11.2,2.7-13,.9-.4-.4-1-1.2-2.1-1.5-1.5-.4-2.8.3-3.2.5-3.7,1.7-8.3-6.4-15-6.9-5.7-.4-9.5,4.8-14.3,3.2-.5-.2-1.4-.5-2.5-.2-2,.6-3.2,3.1-3.7,5.2-.5,2.5.5,3,.3,5.1-.5,4.4-5.1,4.6-6.5,9.3-1,3.4,1,4.6.4,8.5-.3,2-1.4,4.9-5.8,8.6-10.4,8.7-24.2,8.8-24.2,10,0,1.4,18,.1,30.3.7,3.8.2,7.8.6,11.9-1.4.9-.4,1.5-.9,2.8-1.3,4.2-1.1,6.5,1.4,8.2,0,1.4-1.2.2-3.1,1.8-5.3,1.7-2.3,3.8-1.2,5-3.2,1.3-2.1-.9-4.1,0-7.6.7-3.1,3.5-6.1,6.3-6.4,2.5-.3,4.4,1.7,5.5.6.7-.7.2-1.8,1-3.2.8-1.5,2.2-2.2,3.3-2.6,5.4-1.6,9.8-1.9,12.9-1.9,5.4,0,7.1,1.1,12.4.4,5-.6,10.8-2.5,11-5,0-1.2-1.2-1.6-1.2-3,0-3,6.2-4.9,7-5.1,5.9-1.8,12.3-.6,12.6,1.4.1,1.1-1.4,1.8-1.1,3.1.3,1.4,2.6,2,2.9,2.1,4.9,1.2,10.5-3.1,11.9-4.3,1.4-1.1,2.2-2,3.8-2.3,1.9-.4,3.9.1,5.1.5.8.2,1.5.1,2.1.7.4.4.5,1,.9,1,.4,0,.8-.6.9-.8.9-1.6,0-2.9.8-3.8.6-.6,1.5-.7,2.1-.3.7.6,0,1.8.7,2.8.6.9,1.4.5,3.8,1.2,1.9.6,2.5,1.3,3.1.9.6-.4.3-1.4.6-2.7.6-2.7,3.8-5.4,6.1-4.4,1.2.5,2.4,2.1,2.3,3.5-.2,1.7-1.9,1.9-3.5,4.8-.9,1.6-.4,1.8-1.1,2.9-1.6,2.7-4.9,3.2-9.9,3.9-.8.1-1.5.2-2.2.2-2.3,0-3.2-.5-4.5-.6-3.1-.1-5.9,2.7-5.7,3.1.1.2,1.6-.9,4.1-1.4,5.6-.9,7.9,3.4,12.9,2.2.9-.2.9-.4,1.6-.8.7-.4,1.7-.9,2.7-1.4,3.4-1.4,7.2-.8,8.1-3,.1-.2,0-.1.2-.9.3-1.2.9-3.4,2.6-4.7.2-.1,1.7-1.3,2.4-.7.6.4.3,1.5.7,1.6.4.1,1.1-1.3,2.4-3.6.9-1.4,1.3-2.1,1.6-2.4,1.8-1.7,5.8-1.1,8,1.4,1.4,1.5.8,3.3,2,4,1,.5,2.1-.2,3.7-1.1,4.1-2.2,6-2,8.4-3.2.3-.2,1.3-.6,2.5-1.6.2-.2,2.3-1.9,2-2.5-.3-.6-2.8,1.2-5.5.9-4-.4-7.7-5.4-9-10.2-1.5-5.9.5-11.6-.8-12.1-.6-.2-1,.8-2.4,1.6-2.6,1.5-5.5.4-6.6,0h0ZM126.5,159.3c-.2.4-.5.3-1.9,1-1.1.5-1.9,1-3.5,2.1-3.4,2.2-7.3,6.1-7.5,5.9-.2-.2,6.1-4.5,5.8-9.6-.2-2.5-1.9-4.7-3.5-5.8-2.5-1.8-5.1-1.1-5.2-1.5,0-.5,3.6-2.1,7.5-1,5.2,1.4,9.1,7.2,8.2,8.9h0ZM170.3,156.8c-.8.7-1.3,1.1-2.1,2.1-.9,1.1-.7,1.8-1.3,2.1-.8.4-1.6-.4-2.8-.9-2.4-1.1-5.3-.4-6.9.6-1.6,1-1.2,1.9-3,3.4-2.6,2.2-5.9,2.5-6.2,1.8-.2-.6,1.6-1.4,1.6-2.9,0-2.1-3.9-3.6-4.6-3.9-4.8-1.8-8.9-.2-8.9-.5,0-.3,3-1.8,6.7-1.8,2.8,0,3.1,1.2,5.6,1,2.3-.2,3-1.1,4.8-.6,1.6.5,2.6,1.6,2.9,1.3.2-.3,0-1.1-.4-1.7-.7-1.1-1.7-1.4-1.7-1.5,0-.3,4.5,1.6,8.8,1.3,6.1-.4,10.1-5.5,10.6-4.7.4.5-1.3,3.2-3.1,4.9h0Z"/>
  <path class="st0" d="M203.8,139.5c-4.6-1.8-6-7.2-7.3-6.7-.6.3-.5,1.6-.8,2.9-1,5.8-8.8,11.1-15.6,11.7,0,0-9.5.9-10.1,2.2,0,0-.2.4-.5.8-1.1,1.5-3.3,2.2-4,1.4-.4-.4,0-.9-.5-1.4-.4-.5-.9-.2-2.1-.4-1.8-.2-2.4-.8-3.2-.3-.2.2-.1.2-.6.6-.5.5-1.1,1.2-1.9,1.3-.9.1-1.2-.7-1.9-.5-.8.2-.8,1.1-1.4,1.2-.8.1-1.1-.8-1.8-.7-.7.1-.8,1.1-1.5,1.2-.8.1-1.1-.9-1.9-.8-.7.1-.7,1.1-1.4,1.3-.7.2-1.1-.8-1.9-.7-.7.1-.8,1-1.5,1.1-.7,0-1-.8-1.6-.8-.8,0-.9,1.3-1.6,1.4-.7,0-1-.9-1.7-.8-.5,0-.7.6-.9.8-1,1.5-3.3,2-4.2,2.2-4.4.9-11.4-7.6-12.7-9.7-.2-.3-.7-1.2-1.6-1.4-.7-.1-1.4.3-1.5.4-2.7,1.9-13.6.9-13.8,2.8-.1.7,1.6,1,1.7,2.3.2,1.8-3.1,4.2-6.3,4.9-3.5.7-4.6-1.1-8.8-1.5-6.1-.6-10.8,2.5-10.8,2.6,0,.2,4.3-2.1,9.5-.9,3.9.9,4,2.6,7.4,3.7,7.4,2.3,14.1-4,15.1-2.2.6,1-.9,3.7-2.3,5.2s-2.7,2-8.1,3.1c-8.2,1.7-11.2,2.7-13,.9-.4-.4-1-1.2-2.1-1.5-1.5-.4-2.8.3-3.2.5-3.7,1.7-8.3-6.4-15-6.9-5.7-.4-9.5,4.8-14.3,3.2-.5-.2-1.4-.5-2.5-.2-2,.6-3.2,3.1-3.7,5.2-.5,2.5.5,3,.3,5.1-.5,4.4-5.1,4.6-6.5,9.3-1,3.4,1,4.6.4,8.5-.3,2-1.4,4.9-5.8,8.6-10.4,8.7-24.2,8.8-24.2,10,0,1.4,18,.1,30.4.7,3.8.2,7.8.6,11.9-1.4.9-.4,1.5-.9,2.8-1.3,4.2-1.1,6.5,1.4,8.2,0,1.4-1.2.2-3.1,1.8-5.3,1.7-2.3,3.8-1.2,5-3.2,1.3-2.1-.9-4.1,0-7.6.7-3.1,3.5-6.1,6.3-6.4,2.5-.3,4.4,1.7,5.5.6.7-.7.2-1.8,1-3.2.8-1.5,2.2-2.2,3.3-2.6,5.4-1.6,9.8-1.9,12.9-1.9,5.4,0,7.1,1.1,12.4.4,5-.6,10.8-2.5,11-5,0-1.2-1.2-1.6-1.2-3,0-3,6.2-4.9,7-5.1,5.9-1.8,12.3-.6,12.6,1.4.1,1.1-1.4,1.8-1.1,3.1.3,1.4,2.6,2,2.9,2.1,4.9,1.2,10.5-3.1,11.9-4.3,1.4-1.1,2.2-2,3.8-2.3,1.9-.4,3.9.1,5.1.5,2.4.7,3.3,1.5,3.9.9.8-.8-.2-2.7.8-3.8.6-.6,1.5-.7,2.1-.3.7.6,0,1.8.7,2.8.6.9,1.4.5,3.8,1.2,1.9.6,2.5,1.3,3.1.9.6-.4.3-1.4.6-2.7.6-2.7,3.8-5.4,6.1-4.4,1.2.5,2.4,2.1,2.3,3.5-.2,1.7-1.9,1.9-3.5,4.8-.9,1.6-.4,1.8-1.1,2.9-1.6,2.7-4.9,3.2-9.9,3.9-.8.1-1.5.2-2.2.2-2.3,0-3.2-.5-4.5-.6-3.1-.1-5.9,2.7-5.7,3.1.1.2,1.6-.9,4.1-1.4,5.6-.9,7.9,3.4,12.9,2.2,1.4-.3.7-.6,4.4-2.2,5.4-2.4,7.2-1.7,8.4-3.9.8-1.5.9-3.4,2.6-4.7.4-.3,1.4-1.1,2.4-.7.6.2.6.6,1,.7.4,0,.8-.4,2.1-2.6.8-1.4,1.3-2.1,1.6-2.4,1.8-1.7,5.8-1.1,8,1.4,1.4,1.5.8,3.3,2,4,1,.5,2.1-.2,3.7-1.1,5.4-2.9,7-1.7,10.9-4.8,1.5-1.2,2.9-2.7,2.7-3.1-.3-.6-3,1.9-6.2,1.6-4-.4-7.7-5.3-9-10.2-1.5-5.9.5-11.6-.8-12.1-.6-.2-1,.8-2.4,1.6-2.7,1.5-5.8.3-6.6,0h0ZM125.3,159.4c-.2.4-.5.3-1.6.9-1.6.8-2.5,1.8-3.4,2.7-2.7,2.7-6.6,5.5-6.8,5.2-.3-.3,5.4-4.2,5.1-8.9-.2-2.5-1.9-4.7-3.5-5.8-2.5-1.8-5.1-1.1-5.2-1.5,0-.5,3.6-2.1,7.5-1,4.9,1.4,8.5,6.8,7.7,8.4ZM169.6,157.4c-.8.7-1.3,1.1-2.1,2.1-.9,1.1-.7,1.8-1.3,2.1-.8.4-1.6-.4-2.8-.9-2.4-1.1-5.3-.4-6.9.6-1.6,1-1.2,1.9-3,3.4-2.6,2.2-5.9,2.5-6.2,1.8-.2-.6,1.6-1.4,1.6-2.9,0-2.1-3.9-3.6-4.6-3.9-4.8-1.8-8.9-.2-8.9-.5,0-.3,3-1.8,6.7-1.8,2.8,0,3.1,1.2,5.6,1,2.3-.2,3-1.1,4.8-.6,1.6.5,2.6,1.6,2.9,1.3.2-.3,0-1.1-.4-1.7-.7-1.1-1.7-1.4-1.7-1.5,0-.3,4.5,1.6,8.8,1.3,6.1-.4,10.1-5.5,10.6-4.7.4.5-1.3,3.2-3.1,4.9h0Z"/>
  <path class="st0" d="M207.8,150.9c.6,1.3.2,2.9-.9,3.6-1.1.7-2.6.2-3.2-1.1s-.2-2.9.9-3.6c1.1-.7,2.6-.2,3.2,1.1Z"/>
  <path class="st0" d="M225.7,142.9c.6,1.3.2,2.9-.9,3.6-1.1.7-2.6.2-3.2-1.1s-.2-2.9.9-3.6c1.1-.7,2.6-.2,3.2,1.1h0Z"/>
  <path class="st0" d="M271.3,109.9c.6,1.3.2,2.9-1,3.6-1.1.7-2.6.2-3.2-1.1s-.2-2.9,1-3.6c1.1-.7,2.6-.2,3.2,1.1Z"/>
  <g>
    <path class="st0" d="M320.8,66.4c1.8.5,3.2,2,3.3,2.1,2.5,2.7,3.3,7.1,2.3,10.3-.8,2.6-2.5,3.2-7.4,6.7-3.9,2.8-8.4,6.4-17.4,13.6,0,0-4.2,3.3-4.5,2.8-.3-.4,2.7-3.4,2.1-4.6-.4-.8-2.2-.5-3.2-.3-11,2.4-16.3,11.1-16.3,11.1-1.4,2.3-1.9,3.9-4.1,6.7-.9,1.1-4.3,5.4-6.2,4.5-.7-.3-.6-1.1-1.6-1.7-.9-.5-1.6-.3-3.6-.2-1.7,0-2.5,0-3.1,0-4.4.6-9.3,5.1-19.2,13.6-.3.3-2.3,2.1-4.6,4.7-3.8,4.1-4.8,6.1-5.3,8.1-.2.6-1,3.8.2,4.9.9.8,2.2,0,2.3.3.2.5-5.9,7.1-11.9,4.3-4.6-2.2-6.6-8.4-5.6-12.8.6-2.6,2.3-4.4,3.5-5.7.6-.6,1-1,1.5-1.3,1-.8,1.8-1.2,2.5-1.5,2.4-1.2,3.6-1.8,4.8-3.1,1.3-1.4,1.1-2.1,2.3-2.8,1.1-.6,1.6,0,2.6-.8,1.1-.8.8-1.8,1.9-2.5,1-.6,1.5.1,2.6-.4,1.3-.7,1-1.9,2.4-2.8,1-.6,1.3-.1,2.4-.8,1.4-.8,1.2-1.5,2.4-2.2,1.3-.7,1.7,0,2.9-.8,1-.6.8-1.2,1.9-2.1.9-.8,1.2-.4,2.8-1.3,1.2-.7,2-1.1,2.3-2.1.3-.9-.1-1.3.2-1.8.5-.9,2-.9,3.1-.8,1.9,0,2.2.6,3.2.4,1.4-.3,2.1-1.6,2.9-2.6,3-3.5,6.7-.7,11.4-4.1,2.2-1.6,4.5-4.4,4-6.3-.3-.9-1-.9-1.1-1.6-.6-2.6,11.9-5.8,23-14.7,8.4-6.7,13-14.2,18.3-12.6h0Z"/>
    <path class="st0" d="M320.6,67.2c1.8.5,3.2,2,3.3,2.1,2.5,2.7,3.3,7.1,2.3,10.3-.8,2.6-2.5,3.2-7.4,6.7-3.9,2.8-8.4,6.4-17.4,13.6,0,0-4.2,3.3-4.5,2.8-.3-.4,2.7-3.4,2.1-4.6-.4-.8-2.2-.5-3.2-.3-11,2.4-16.3,11.1-16.3,11.1-1.4,2.3-1.9,3.9-4.1,6.7-.9,1.1-4.3,5.4-6.2,4.5-.7-.3-.6-1.1-1.6-1.7-.9-.5-1.6-.3-3.6-.2-1.7,0-2.5,0-3.1,0-4.4.6-9.3,5.1-19.2,13.6-.3.3-2.3,2.1-4.6,4.7-3.8,4.1-4.8,6.1-5.3,8.1-.2.6-1,3.8.2,4.9.9.8,2.2,0,2.3.3.2.5-5.9,7.1-11.9,4.3-4.6-2.2-6.6-8.4-5.6-12.8.6-2.6,2.3-4.4,3.5-5.7.6-.6,1-1,1.5-1.3,1-.8,1.8-1.2,2.5-1.5,2.4-1.2,3.6-1.8,4.8-3.1,1.3-1.4,1.1-2.1,2.3-2.8,1.1-.6,1.6,0,2.6-.8,1.1-.8.8-1.8,1.9-2.5,1-.6,1.5.1,2.6-.4,1.3-.7,1-1.9,2.4-2.8,1-.6,1.3-.1,2.4-.8,1.4-.8,1.2-1.5,2.4-2.2,1.3-.7,1.7,0,2.9-.8,1-.6.8-1.2,1.9-2.1.9-.8,1.2-.4,2.8-1.3,1.2-.7,2-1.1,2.3-2.1.3-.9-.1-1.3.2-1.8.5-.9,2-.9,3.1-.8,1.9,0,2.2.6,3.2.4,1.4-.3,2.1-1.6,2.9-2.6,3-3.5,6.7-.7,11.4-4.1,2.2-1.6,4.5-4.4,4-6.3-.3-.9-1-.9-1.1-1.6-.6-2.6,11.9-5.8,23-14.7,8.4-6.7,13-14.2,18.3-12.6h0Z"/>
  </g>
  <g>
    <path class="st0" d="M195.3,162.7c.2-.4.5-.9.4-1.4-.2-1.6-2.8-2.1-2.7-3,0-.5.8-.7,1.3-.9,2.2-.8,3.2,0,4.1-.5,2.4-1,3.4-9.7.4-12.1-2.7-2.1-7.4,1.6-7.9.7-.6-1.2,9-5.3,11.3-13,.2-.7.6-2.2,1.5-2.5,1.5-.5,2.7,2.6,5.3,4.6,3.2,2.4,8.1,4.7,12.3,2.9,2.8-1.2,4.3-3.7,5.1-4.9,3.3-5.4,2.5-11.2,2.7-11.2.4,0,5.2,21.4-4.8,35.7-4.3,6.2-10.4,9.6-10.6,9.4-.1-.2,2.5-2.3,2.4-5.2,0,0-.1-1.8-1-2.7-2.9-3-11.8,2.9-13.1,3.8-6.2,4.1-6.1,6.4-12.2,11-7.3,5.4-14.2,7.9-14.3,7.6,0-.1.7-.7,9.4-6.9,0,0,6.4-4.6,10.3-11.1h0Z"/>
    <path class="st0" d="M195.3,163.6c.2-.4.5-.9.4-1.4-.2-1.6-2.8-2.1-2.7-3,0-.5.8-.7,1.3-.9,2.2-.8,3.2,0,4.1-.5,2.4-1,3.4-9.7.4-12.1-2.7-2.1-7.4,1.6-7.9.7-.6-1.2,9-5.3,11.3-13,.2-.7.6-2.2,1.5-2.5,1.5-.5,2.7,2.6,5.3,4.6,3.2,2.4,8.1,4.7,12.3,2.9,2.8-1.2,4.3-3.7,5.1-4.9,3.3-5.4,2.5-11.2,2.7-11.2.4,0,5.2,21.4-4.8,35.7-4.3,6.2-10.4,9.6-10.6,9.4-.1-.2,2.5-2.3,2.4-5.2,0,0-.1-1.8-1-2.7-2.9-3-11.8,2.9-13.1,3.8-6.2,4.1-6.1,6.4-12.2,11-7.3,5.4-14.2,7.9-14.3,7.6,0-.1.7-.7,9.4-6.9,0,0,6.4-4.6,10.3-11.1h0Z"/>
  </g>
  <path class="st0" d="M407.2,76c0,0-27.1-30.8-31.4-27.4-.2.2-.7.7-1.6,1-2.2.6-4.7-1-6.4-2.1-1-.7-1.5-1.1-1.8-.9-.6.4.8,2.3.6,4.8-.2,3.4-3,4.5-2.5,7,.3,1.4,1.3,2.1,1.6,2.4,2.4,1.7,6.1.4,6.8-1.7.6-1.8-1.3-3.4-.7-5,.7-1.9,5-1.5,5.5-1.5,10.8,1,29.9,23.3,30,23.3h0ZM369.1,58.1c-.2.5-.7.8-1.2.6s-.7-.8-.5-1.3.7-.8,1.2-.6.7.8.5,1.3Z"/>
  <path class="st0" d="M347,48.6c-.4-.3-2.5-2.5-2.6-6.2,0-3,1.4-5.1,1.7-5.7,1.9,5.3,4.3,7.2,6.2,8,3.2,1.3,5.9-.4,7.9,1.7,1.6,1.7.6,3.5,2.2,5.9,1.9,2.8,4.4,1.9,7.7,3.9,5.3,3.2,7.4,10.8,6.7,11.3-.4.4-2-2.8-6.3-6.1-1.4-1-1.8-1.2-12.9-6.6-1.8-.9-3.4-1.7-5.6-3-2.2-1.3-4-2.5-5.1-3.4h0Z"/>
  <path class="st0" d="M357.6,45.1c0,.7.3,1.5.8,2.1,1.1,1.1,2.8.2,3.2,1,.4.8-.8,3.1-2.7,4.1-2.6,1.4-4.1-.7-6.4.6-2.2,1.3-1.5,3.8-3.9,5.1-1.3.7-3.2.9-4.7,0-2.3-1.2-2.1-3.9-4.9-5.4-.7-.4-1.8-.9-2.6-.5-1.6.9-.5,4.2-2,7-1.6,3.1-5.9,5.2-9.5,3.7-3-1.2-5.4-5.1-4.8-7.7.5-2,2.3-2,3.8-4.3,1.8-2.7,1.6-6.1,1.2-8.9,1.6.9,4.2,2.1,7.4,2.4,4,.4,4.9-.9,9.2-.6,3.9.3,4.5,1.5,8.4,1.8,3.1.2,5.6-.2,7.3-.7h0Z"/>
  <path class="st1" d="M407.2,76c0,0-27.1-30.8-31.4-27.4-.2.2-.7.7-1.6,1-2.2.6-4.7-1-6.4-2.1-1-.7-1.5-1.1-1.8-.9-.6.4.8,2.3.6,4.8-.2,3.4-3,4.5-2.5,7,.3,1.4,1.3,2.1,1.6,2.4,2.4,1.7,6.1.4,6.8-1.7.6-1.8-1.3-3.4-.7-5,.7-1.9,5-1.5,5.5-1.5,10.8,1,29.9,23.3,30,23.3h0ZM369.2,58c-.2.5-.7.8-1.2.6s-.7-.8-.5-1.3.7-.8,1.2-.6.7.8.5,1.3Z"/>
  <path class="st0" d="M347,48.6c-.4-.3-2.5-2.5-2.6-6.2,0-3,1.4-5.1,1.7-5.7,1.9,5.3,4.3,7.2,6.2,8,3.2,1.3,5.9-.4,7.9,1.7,1.6,1.7.6,3.5,2.2,5.9,1.9,2.8,4.4,1.9,7.7,3.9,5.3,3.2,7.4,10.8,6.7,11.3-.4.4-2-2.8-6.3-6.1-1.4-1-1.8-1.2-12.9-6.6-1.8-.9-3.4-1.7-5.6-3-2.2-1.3-4-2.5-5.1-3.4h0Z"/>
  <path class="st0" d="M357.6,45c0,.7.3,1.5.8,2.1,1.1,1.1,2.8.2,3.2,1,.4.8-.8,3.1-2.7,4.1-2.6,1.4-4.1-.7-6.4.6-2.2,1.3-1.5,3.8-3.9,5.1-1.3.7-3.2.9-4.7,0-2.3-1.2-2.1-3.9-4.9-5.4-.7-.4-1.8-.9-2.6-.5-1.6.9-.5,4.2-2,7-1.6,3.1-5.9,5.2-9.5,3.7-3-1.2-5.4-5.1-4.8-7.7.5-2,2.3-2,3.8-4.3,1.8-2.7,1.6-6.1,1.2-8.9,1.6.9,4.2,2.1,7.4,2.4,4,.4,4.9-.9,9.2-.6,3.9.3,4.5,1.5,8.4,1.8,3.1.2,5.6-.2,7.3-.7h0Z"/>
  <path class="st1" d="M409.8,20.4c0,0-37.5-10.1-39.5-4.6-.1.3-.3,1-.9,1.8-1.5,1.8-4.5,2-6.4,2.1-1.2,0-1.8,0-1.9.3-.3.7,1.7,1.5,2.8,3.7,1.4,3-.5,5.6,1.1,7.4.9,1,2.1,1,2.5,1,2.8,0,5.4-3.3,5-5.5-.3-1.9-2.7-2.1-2.9-3.8-.3-2,3.6-4.3,4-4.5,9.6-5.5,36.4,2.1,36.4,2h0ZM369.1,27.7c0,.6-.2,1.1-.7,1.2s-1-.3-1.1-.8.2-1.1.7-1.2,1,.3,1.1.8Z"/>
  <path class="st0" d="M345.8,32.8c-.5,0-3.3-.6-5.1-3.7-1.5-2.5-1.3-5.2-1.2-5.8,4.1,3.4,7.1,3.6,9,3.1,3.4-.8,4.8-3.8,7.5-3.2,2.2.5,2.1,2.6,4.6,3.7,2.9,1.3,4.7-1,8.4-1.3,6-.4,11.3,4.8,11,5.6-.2.6-3-1.2-8.2-1.4-1.6,0-2.1,0-14.1,2-1.9.3-3.7.6-6.1.8-2.5.2-4.6.2-6,.2h0Z"/>
  <path class="st0" d="M353.1,23.5c.4.6.9,1.1,1.7,1.3,1.5.3,2.5-1.5,3.2-1.1.7.4.8,3.1-.3,5.1-1.5,2.7-3.8,1.9-5.1,4.3-1.2,2.4.5,4.1-.9,6.7-.8,1.4-2.3,2.7-3.9,2.9-2.6.3-3.6-2.1-6.6-1.7-.8.1-2,.3-2.5,1.2-1,1.7,1.5,3.9,1.6,7.2.1,3.6-2.6,7.9-6.3,8.8-3.2.8-7-1.1-7.7-3.7-.5-1.9,1-3.1,1.2-5.9.3-3.3-1.5-6.2-3.1-8.2,1.8-.2,4.5-.7,7.4-2.4,3.5-2,3.7-3.7,7.5-5.9,3.4-2,4.5-1.4,8-3.5,2.7-1.6,4.7-3.5,5.9-4.9h0Z"/>
  <path class="st1" d="M372.4,89.5c-.4-.2-4.5-1.8-4.5-3.8,0-1.7,2.3-2.2,2.4-4.2,0-2.2-2.9-5.2-5.7-4.6-.4,0-1.6.3-2.4,1.5-1.3,2.1.8,4.3-.1,7.5-.7,2.4-2.6,3.5-2.2,4.2.2.3.8.2,2,0,1.9-.2,4.9-.6,6.6,1,.7.6,1,1.3,1.1,1.6,2.7,5.1,38.6-10.8,38.5-10.9,0,0-25.5,11.7-35.8,7.9h0ZM366,82c-.5,0-.9-.5-.9-1.1s.4-1,1-1,.9.5.9,1.1c0,.6-.4,1-1,1Z"/>
  <path class="st0" d="M343.3,79.7c-.5.2-3.2,1.2-4.6,4.5-1.1,2.8-.6,5.3-.4,6,3.7-4,6.5-4.7,8.5-4.6,3.4.2,5.2,3,7.9,2,2.1-.8,1.8-3,4.1-4.4,2.8-1.7,4.7.3,8.5,0,6-.6,10.6-6.5,10.2-7.3-.3-.5-2.8,1.7-7.9,2.7-1.6.3-2.1.3-14.2.2-1.9,0-3.7,0-6.2.2-2.5.2-4.6.5-5.9.8h0Z"/>
  <path class="st0" d="M351.7,87.7c.3-.6.8-1.3,1.5-1.5,1.5-.5,2.7,1.1,3.3.6.6-.5.4-3.2-1-5-1.8-2.5-4-1.2-5.6-3.4-1.5-2.1,0-4.2-1.8-6.4-1-1.3-2.6-2.3-4.3-2.2-2.6,0-3.3,2.7-6.4,2.7-.8,0-2,0-2.6-.8-1.2-1.5,1-4,.7-7.4-.4-3.5-3.5-7.4-7.4-7.7-3.2-.2-6.8,2.2-7.1,4.9-.3,2,1.4,2.9,2,5.6.7,3.2-.7,6.4-2,8.7,1.8,0,4.6,0,7.6,1.2,3.8,1.4,4.2,3,8.2,4.7,3.7,1.5,4.6.7,8.3,2.2,2.9,1.2,5.1,2.8,6.4,3.9h0Z"/>
  <g>
    <path class="st0" d="M286.3,84.3c-9.1,5.5-9.9,6-10,5.9-.2-.3,5.1-5.9,12.9-10.3,6.6-3.8,8.3-2.5,14.5-6.5,1.3-.8,10.3-6.7,9.4-11-.3-1.4-1.5-2.3-1.6-2.3-2.2-1.6-5.1,0-5.2-.2-.1-.3,5.5-4.6,12.5-5.8,16-2.7,30.2,12.5,30,12.9-.1.2-4.2-3.5-10-2.9-1.3.1-4,.4-6.3,2.6-3.5,3.3-4.1,9.2-3.8,13.5.2,3.5,2.1,6.2,1,7.4-.7.8-2,.4-2.7.2-7.1-1.6-14.9,5.8-15.6,4.7-.5-.9,4.7-3.7,4.4-7.4-.4-4.1-7.6-7.4-9.6-5.6-.8.7-.7,2.1-2.4,3.8-.5.5-1,1-1.4.9-.8-.4.1-3.2-1-4.2-.4-.3-.9-.3-1.3-.3-7,.6-13.7,4.7-13.7,4.7h0Z"/>
    <path class="st0" d="M286.3,85.2c-9.1,5.5-9.9,6-10,5.9-.2-.3,5.1-5.9,12.9-10.3,6.6-3.8,8.3-2.5,14.5-6.5,1.3-.8,10.3-6.7,9.4-11-.3-1.4-1.5-2.3-1.6-2.3-2.2-1.6-5.1,0-5.2-.2-.1-.3,5.5-4.6,12.5-5.8,16-2.7,30.2,12.5,30,12.9-.1.2-4.2-3.5-10-2.9-1.3.1-4,.4-6.3,2.6-3.5,3.3-4.1,9.2-3.8,13.5.2,3.5,2.1,6.2,1,7.4-.7.8-2,.4-2.7.2-7.1-1.6-14.9,5.8-15.6,4.7-.5-.9,4.7-3.7,4.4-7.4-.4-4.1-7.6-7.4-9.6-5.6-.8.7-.7,2.1-2.4,3.8-.5.5-1,1-1.4.9-.8-.4.1-3.2-1-4.2-.4-.3-.9-.3-1.3-.3-7,.6-13.7,4.7-13.7,4.7h0Z"/>
  </g>
  <path class="st2" d="M61.7,182.6c1.1-1,2-1.7,1.9-2.7-.1-1.3-1.2-2.3-2.4-2.1-1.1.1-1.5,1.6-1.9,2.7-.5,1.6-.5,3-.4,3.8.7-.3,1.7-.7,2.8-1.7Z"/>
  <path class="st2" d="M207.3,152.7c.7-1.4,1.2-2.5.8-3.4-.6-1.2-2-1.5-3-.8-.9.6-.8,2.1-.8,3.4,0,1.7.7,3,1.1,3.6.5-.6,1.3-1.5,1.9-2.8h0Z"/>
  <path class="st2" d="M226.5,146.7c.2-1.6.3-2.8-.4-3.4-.9-.8-2.3-.6-3.1.4-.6.9,0,2.3.4,3.4.6,1.5,1.6,2.5,2.2,3,.3-.7.7-1.9.9-3.4h0Z"/>
  <path class="st2" d="M318,79.5c.2-1.6.3-2.8-.4-3.4-1-.8-2.3-.6-3.1.5-.6,1,0,2.3.4,3.4.6,1.5,1.6,2.5,2.2,3,.3-.7.7-1.9.9-3.4h0Z"/>
  <path class="st2" d="M327.4,62.2c.2-1.6.3-2.8-.4-3.4-1-.8-2.3-.6-3.1.5-.6,1,0,2.3.4,3.4.6,1.5,1.6,2.5,2.2,3,.3-.7.7-1.9.9-3.4h0Z"/>
  <path class="st2" d="M271.9,114.9c.2-1.6.3-2.8-.4-3.4-1-.8-2.3-.6-3.1.4-.6.9,0,2.3.4,3.4.6,1.5,1.6,2.5,2.2,3,.3-.7.7-1.9.9-3.4h0Z"/>
</svg>