<?xml version="1.0" encoding="UTF-8"?>
<svg id="Layer_2" xmlns="http://www.w3.org/2000/svg" version="1.1" viewBox="0 0 267.5 231.2">
  <!-- Generator: Adobe Illustrator 29.0.1, SVG Export Plug-In . SVG Version: 2.1.0 Build 192)  -->
  <defs>
    <style>
      .st0, .st1, .st2, .st3 {
        stroke: #000;
        stroke-miterlimit: 10;
      }

      .st0, .st1, .st3 {
        stroke-width: .2px;
      }

      .st1, .st2 {
        fill: #fff;
      }

      .st2 {
        stroke-width: .5px;
      }

      .st3 {
        fill: none;
      }
    </style>
  </defs>
  <g id="Capa_1">
    <g>
      <rect x=".1" width="267.3" height="228.8"/>
      <path class="st1" d="M267.4,138.8v5.6c-26.5,1.1-48.1.4-63.7-.4-19.6-1.1-28.4-2.4-48.9-2.3-20.1.1-22.5,1.5-48.8,2.3-15,.4-19.9,0-51.6,0H.1v-2.1c38.7-3.2,54.1-5.1,57.1-6.4.2-.1,1.5-.6,3.2-.9,3.9-.6,7,.7,7.8.9,7.7,1.9,37.9,3.6,49.7,3.9,14.6.4,25.2.7,36-1.1,13.6-2.3,15.7-2.8,15.7-2.8,4.4-1,7.7-2,13.1-2.4,1.9-.1,4.8-.3,8.4,0,4.1.4,6.4,1.3,11.1,2.6,0,0,2.4.6,12.4,3,10.7,2.5,20.1,2.2,31.5,1.8,5.5-.2,12.7-.6,21.1-1.8h0Z"/>
      <path class="st1" d="M267.4,144.5v86.5H.1v-87h54.2c31.7,0,36.6.4,51.6,0,26.4-.8,28.8-2.2,48.8-2.4,20.5-.1,29.3,1.3,48.8,2.4,15.6.9,37.2,1.5,63.7.4h0Z"/>
      <ellipse class="st2" cx="207.1" cy="92.7" rx="11.7" ry="12"/>
      <rect class="st3" x=".1" y="35.5" width="267.3" height="195.5"/>
      <path d="M36,163.1c-2.4,0-3.1.1-5.3,0-2.2,0-2.8-.2-4.9-.4-3.5-.2-5.2.1-10.1.2-6.2.1-10.8-.2-10.8-.2,0,0,4.8.5,10.6.4,4.4,0,5.2-.3,8.8-.2,3.2.1,3.6.4,6.7.4,2,0,2.8-.1,5.7,0,1.9,0,3.1,0,3.2,0,0,0-1.8-.3-3.9-.3h0Z"/>
      <path d="M242.5,210.6c-5.2-.1-6.8.1-11.7,0-4.8,0-6.1-.4-10.7-.6-7.7-.4-11.4,0-22.3.1-13.6,0-23.8-.5-23.9-.4s10.7.7,23.5.7,11.6-.4,19.4-.1c7.1.2,8,.6,14.8.7,4.4,0,6.1-.1,12.6,0,4.3,0,6.9.2,7,.1.2,0-3.9-.4-8.7-.5h0Z"/>
      <path d="M156.6,198.9c-2.6,0-3.4.2-5.9.2-2.4,0-3.1-.3-5.4-.5-3.9-.3-5.8.2-11.2.4-6.8.3-12-.3-12-.2,0,0,5.4.7,11.8.6,4.9-.1,5.8-.6,9.8-.4,3.6.2,4,.6,7.4.6,2.2,0,3.1-.2,6.3-.2,2.1,0,3.4.1,3.5,0,0,0-2-.4-4.4-.5h0Z"/>
      <path d="M99.1,174.7c-1.2,0-1.6,0-2.7,0-1.1,0-1.4-.1-2.5-.2-1.8-.1-2.7,0-5.2.2-3.2.1-5.6-.1-5.6-.1s2.5.3,5.5.2c2.3,0,2.7-.2,4.5-.2,1.7,0,1.9.3,3.5.3s1.4,0,2.9,0c1,0,1.6,0,1.6,0,0,0-.9-.2-2-.2Z"/>
      <path d="M57.3,150.3c-1,0-1.3.1-2.2,0-.9,0-1.2-.1-2-.2-1.5-.1-2.2.1-4.2.2-2.6.1-4.5-.1-4.5,0,0,0,2,.3,4.4.2,1.8,0,2.2-.3,3.7-.2,1.3,0,1.5.3,2.8.2.8,0,1.2,0,2.4,0,.8,0,1.3,0,1.3,0,0,0-.7-.2-1.6-.2h0Z"/>
      <path d="M82,189.2c-1.9,0-2.4,0-4.3,0-1.8,0-2.2-.2-3.9-.3-2.8-.2-4.2,0-8.1.1-4.9,0-8.7-.2-8.7-.1,0,0,3.9.3,8.5.3,3.5,0,4.2-.2,7.1-.1,2.6,0,2.9.3,5.4.3,1.6,0,2.2,0,4.6,0,1.6,0,2.5,0,2.5,0,0,0-1.4-.2-3.2-.2h0Z"/>
      <g>
        <path d="M110.1,184.5c.5,0,.9.1,1.3.2.6.2.8.4,1.3.6.7.2,1.6.4,2.7.5,2.5.2,4-.2,4-.1,0,0-2.9,1.1-6.6.9-1.9,0-4.8-.5-4.8-1.1,0-.4,1.1-1,2.1-1h0Z"/>
        <path class="st1" d="M109.9,185.3c-.2-.5,0-1.2.4-1.6,1.5-1.7,5.6,0,6.4.2,1.2.5,2.8,1.1,2.8,1.8,0,1-3.8,1.3-6.6.9-2.6-.4-3-1.2-3-1.4h0Z"/>
        <path class="st1" d="M109.9,185.3c-.2-.7,0-1.6.4-1.6.3,0,.4.6,1.2,1.1.5.4,1,.5,1.3.6.7.2,1.6.4,2.7.5.2,0,1,0,2.1,0,.8,0,1.4-.1,2-.2,0,0,0,0,0,0-.2.5-.7.7-1.3.8-2.7.6-5.2,0-5.2,0-1.7-.4-2.7-.6-3-1.4Z"/>
      </g>
      <g>
        <path d="M169,163.5c.5,0,.9.1,1.3.2.6.2.8.4,1.3.6.6.2,1.6.4,2.7.5,2.5.2,4-.2,4-.1,0,0-2.9,1.1-6.6.9-1.9,0-4.8-.5-4.8-1.1,0-.4,1.1-1,2.1-1h0Z"/>
        <path class="st1" d="M168.8,164.2c-.2-.5,0-1.2.4-1.6,1.5-1.7,5.6,0,6.4.2,1.1.5,2.9,1.1,2.8,1.8-.1,1-3.8,1.3-6.6.9-2.6-.4-3-1.2-3-1.4h0Z"/>
        <path class="st1" d="M168.8,164.2c-.2-.7,0-1.6.4-1.6.3,0,.4.6,1.1,1.1.5.4,1,.5,1.3.6.6.2,1.6.4,2.7.5.2,0,1,0,2.1,0,.8,0,1.4-.1,2-.2,0,0,0,0,0,0-.2.5-.7.7-1.3.8-2.7.6-5.2,0-5.2,0-1.7-.4-2.7-.6-3-1.4h0Z"/>
      </g>
      <g>
        <path d="M59.1,167.4c.5,0,.9.1,1.3.2.6.2.8.4,1.3.6.7.2,1.6.4,2.7.5,2.5.2,4-.2,4-.1,0,0-2.9,1.1-6.6.9-1.9,0-4.8-.5-4.8-1.1,0-.4,1.1-1,2-1h0Z"/>
        <path class="st1" d="M58.9,168.2c-.2-.5,0-1.2.4-1.6,1.5-1.7,5.6,0,6.4.2,1.2.5,2.8,1.1,2.8,1.8,0,1-3.8,1.3-6.6.9-2.6-.4-3-1.2-3-1.4h0Z"/>
        <path class="st1" d="M58.9,168.2c-.2-.7,0-1.6.4-1.6.3,0,.4.6,1.2,1.1.5.4,1,.5,1.3.6.7.2,1.6.4,2.7.5.2,0,1,0,2.1,0,.8,0,1.4-.1,2-.2,0,0,0,0,0,0-.2.5-.7.7-1.3.8-2.7.6-5.2,0-5.2,0-1.7-.4-2.7-.6-3-1.4Z"/>
      </g>
      <g>
        <path d="M217,209.6c1.1,0,2.1.3,3.1.6,1.5.4,2,1,3.1,1.3,1.5.4,3.7.9,6.3,1.2,5.9.6,9.5-.6,9.5-.3,0,.1-6.9,2.5-15.5,2.2-4.5-.1-11.3-1.1-11.4-2.6,0-1,2.6-2.3,4.8-2.3h0Z"/>
        <path class="st1" d="M216.4,211.3c-.5-1.6.7-3.3,1-3.8,1.5-2.3,4-2.7,4.6-2.8,2.2-.4,4,.3,7,1.7,6.8,3.2,10.2,4.9,10.1,5.9-.3,2.3-9.1,3.1-15.5,2.2-2.6-.4-6.4-.9-7.1-3.2h0Z"/>
        <path class="st1" d="M216.4,211.3c-.2-.7-.2-1.9,1-3.8.5.7,1.4,1.7,2.7,2.6,2.7,1.9,5.5,2.1,9.4,2.5.5,0,2.4.2,4.9.1,1.8,0,3.4-.2,4.7-.4,0,0,0,.1,0,.2-.5,1.3-2.4,1.7-3.1,1.9-2.2.4-18,2.4-19.5-3.1h0Z"/>
      </g>
      <g>
        <path d="M92.5,209.4c.6,0,1.1.1,1.6.3.8.2,1,.5,1.6.7.8.2,1.9.5,3.2.6,3,.3,4.8-.3,4.9-.1,0,0-3.5,1.3-7.9,1.1-2.3,0-5.8-.6-5.8-1.3,0-.5,1.3-1.2,2.5-1.2h0Z"/>
        <path class="st1" d="M92.2,210.3c-.2-.6,0-1.4.5-1.9,1.8-2.1,6.7-.1,7.7.3,1.4.6,3.4,1.4,3.3,2.2-.1,1.1-4.6,1.6-7.9,1.1-3.2-.4-3.6-1.4-3.6-1.6h0Z"/>
        <path class="st1" d="M92.2,210.3c-.3-.8.1-1.9.5-1.9.3,0,.5.7,1.4,1.3.6.4,1.2.6,1.6.7.8.2,1.9.5,3.2.6.2,0,1.2.1,2.5,0,.9,0,1.7-.1,2.4-.2,0,0,0,0,0,.1-.2.6-.9.8-1.6.9-3.2.7-6.3,0-6.3,0-2.1-.4-3.3-.7-3.6-1.6h0Z"/>
      </g>
      <g>
        <path d="M198.6,215.9c.6,0,1.1.1,1.6.3.8.2,1,.5,1.6.7.8.2,1.9.5,3.2.6,3,.3,4.8-.3,4.9-.1,0,0-3.5,1.3-7.9,1.1-2.3,0-5.8-.6-5.8-1.3,0-.5,1.3-1.2,2.5-1.2h0Z"/>
        <path class="st1" d="M198.3,216.8c-.2-.6,0-1.4.5-1.9,1.8-2.1,6.7-.1,7.7.3,1.4.6,3.4,1.4,3.3,2.2-.1,1.1-4.6,1.6-7.9,1.1-3.2-.4-3.6-1.4-3.6-1.6h0Z"/>
        <path class="st1" d="M198.3,216.8c-.3-.8.1-1.9.5-1.9.4,0,.5.7,1.4,1.3.6.4,1.2.6,1.6.7.8.2,1.9.5,3.2.6.2,0,1.2.1,2.5,0,.9,0,1.7-.1,2.4-.2,0,0,0,0,0,.1-.2.6-.9.8-1.6.9-3.2.7-6.3,0-6.3,0-2.1-.4-3.3-.7-3.6-1.6h0Z"/>
      </g>
      <g>
        <path d="M51.5,213.7c1.1,0,2,.3,3,.6,1.4.4,1.9,1,3,1.3,1.4.4,3.5.9,5.9,1.2,5.5.6,8.9-.6,9-.3,0,.1-6.6,2.5-14.6,2.2-4.2-.1-10.6-1.1-10.7-2.6,0-1,2.4-2.3,4.6-2.3h0Z"/>
        <path class="st1" d="M51,215.4c-.4-1.2,0-2.9.9-3.8,1-.9,2.3-.6,7.2-.2,4.1.4,3.5.2,4.6.4,3.7.7,8.8,2.9,8.7,4.6-.2,2.1-8.3,3.1-14.6,2.2-2.6-.4-5.9-.9-6.7-3.2h0Z"/>
        <path class="st1" d="M51,215.4c-.5-1.6.2-3.7.9-3.8.6-.1,1,1.4,2.5,2.6,1.1.8,2.2,1.2,3,1.3,1.4.4,3.5.9,5.9,1.2.4,0,2.2.2,4.6.1,1.7,0,3.2-.2,4.4-.4,0,0,0,.1,0,.2-.4,1.1-1.7,1.6-2.9,1.9-6,1.3-11.6.1-11.6.1-3.8-.8-6.1-1.3-6.7-3.2h0Z"/>
      </g>
      <g>
        <path d="M137.3,215.8c1.1,0,2,.3,2.9.6,1.4.4,1.9,1,2.9,1.3,1.4.4,3.5.9,5.9,1.2,5.5.6,8.9-.6,9-.3,0,.1-6.6,2.5-14.6,2.2-4.2-.1-10.6-1.1-10.7-2.6,0-1,2.4-2.3,4.6-2.3h0Z"/>
        <path class="st1" d="M136.7,217.6c-.4-1.2,0-2.9.9-3.8,1-.9,2.3-.6,7.1-.2,4.1.4,3.6.2,4.6.4,3.7.7,8.8,2.9,8.7,4.6-.2,2.1-8.3,3.1-14.6,2.2-2.6-.4-5.9-.9-6.7-3.2h0Z"/>
        <path class="st1" d="M136.7,217.6c-.6-1.6.2-3.7.9-3.8.6-.1,1,1.4,2.6,2.6,1.1.8,2.2,1.2,2.9,1.3,1.4.4,3.5.9,5.9,1.2.4,0,2.2.2,4.6.1,1.7,0,3.2-.2,4.4-.4,0,0,0,.1,0,.2-.4,1.1-1.6,1.6-2.9,1.9-6,1.3-11.6.1-11.6.1-3.8-.8-6.1-1.3-6.7-3.2h0Z"/>
      </g>
      <path d="M30,198.4c3.5,0,4.6.2,8,.2,3.3,0,4.1-.2,7.3-.3,5.2-.2,7.8.2,15.1.4,9.2.3,16.1,0,16.2,0s-7.3.4-15.9.2c-6.6-.1-7.9-.5-13.2-.4-4.8,0-5.5.4-10.1.3-3,0-4.1-.2-8.5-.2-2.9,0-4.6,0-4.7,0-.1,0,2.6-.3,5.9-.3Z"/>
      <path d="M258.6,163.6c-2.4,0-3.1.2-5.4.2-2.2,0-2.8-.3-5-.5-3.6-.3-5.3.2-10.4.4-6.3.2-11.1-.3-11.1-.2,0,0,5,.6,10.9.5,4.5-.1,5.4-.5,9-.4,3.3.1,3.7.6,6.9.5,2.1,0,2.8-.2,5.8-.1,2,0,3.2.1,3.2,0,0,0-1.8-.4-4-.5h0Z"/>
      <path d="M196.5,154.6c-1,0-1.3.2-2.2.2-.9,0-1.2-.3-2-.4-1.5-.3-2.2.2-4.3.5-2.6.3-4.6-.1-4.6,0,0,0,2,.6,4.5.4,1.9-.1,2.2-.6,3.7-.4,1.4.1,1.5.5,2.8.5.9,0,1.2-.2,2.4-.2s1.3,0,1.3,0c0,0-.7-.4-1.7-.4Z"/>
      <path d="M109.5,156.9c-1,0-1.3,0-2.2,0-.9,0-1.2-.1-2.1-.2-1.5-.1-2.2,0-4.3.2-2.6.1-4.6-.1-4.6,0,0,0,2,.3,4.5.2,1.9,0,2.2-.2,3.7-.1,1.3,0,1.5.2,2.8.2s1.2,0,2.4,0c.8,0,1.3,0,1.3,0,0,0-.8-.2-1.7-.2h0Z"/>
      <g>
        <path d="M128.5,170.8c.9,0,1.6.2,2.4.4,1.1.3,1.5.8,2.4,1,1.2.3,2.8.7,4.8.9,4.5.4,7.2-.4,7.3-.2,0,.1-5.3,1.9-11.9,1.7-3.4-.1-8.6-.8-8.7-2,0-.8,2-1.8,3.7-1.8h0Z"/>
        <path class="st1" d="M128.1,172.1c-.4-1.2.5-2.5.8-2.9,1.5-2.1,4.5-2.8,6.9-2.3,1.3.3,1.4.7,4.7,2.7,4,2.5,5,2.6,5,3.2-.1,1.5-6.5,2.4-11.9,1.7-2.1-.3-4.9-.7-5.4-2.4h0Z"/>
        <path class="st1" d="M128.1,172.1c-.4-1.2.2-2.8.8-2.9s.8,1.4,2.1,2c1.2.6,1.8-.4,3.5,0,1.7.3,1.7,1.4,3.7,2,.8.2,1.8.1,3.7,0,1.4,0,2.6-.2,3.6-.3,0,0,0,.1,0,.2-.3.8-1.3,1.2-2.4,1.4-4.9,1-9.4,0-9.4,0-3.1-.6-4.9-1-5.4-2.4h0Z"/>
      </g>
      <g>
        <path d="M141.8,149.7c.4,0,.7,0,1.1.2.5.1.7.3,1.1.4.5.1,1.2.3,2.1.4,2,.2,3.2-.2,3.2-.1,0,0-2.4.8-5.3.8-1.5,0-3.9-.4-3.9-.9,0-.3.9-.8,1.6-.8h0Z"/>
        <path class="st1" d="M141.6,150.3c-.1-.4,0-1,.3-1.3,1.2-1.4,4.5,0,5.1.2.9.4,2.3.9,2.2,1.4,0,.8-3.1,1.1-5.3.8-2.1-.3-2.4-.9-2.4-1.1h0Z"/>
        <path class="st1" d="M141.6,150.3c-.2-.5,0-1.2.3-1.3.2,0,.4.5.9.9.4.3.8.4,1.1.4.5.1,1.2.3,2.1.4.1,0,.8,0,1.7,0,.6,0,1.2,0,1.6-.1,0,0,0,0,0,0-.1.4-.6.5-1.1.6-2.2.5-4.2,0-4.2,0-1.4-.3-2.2-.5-2.4-1.1h0Z"/>
      </g>
      <g>
        <path d="M75.2,151.6c.3,0,.6,0,.9.2.4.1.5.3.9.4.4.1,1,.2,1.7.3,1.6.1,2.6-.2,2.6,0,0,0-1.9.7-4.3.6-1.2,0-3.1-.3-3.1-.7,0-.3.7-.6,1.3-.6h0Z"/>
        <path class="st1" d="M75.1,152.1c-.1-.4,0-.8.3-1,.9-1.1,3.6,0,4.2.2.8.3,1.8.7,1.8,1.2,0,.6-2.5.9-4.3.6-1.7-.2-1.9-.8-2-.9h0Z"/>
        <path class="st1" d="M75.1,152.1c-.1-.4,0-.8.3-1,.1.2.4.5.7.7,0,0,.3.2.9.4.4.1,1,.2,1.7.3.7,0,1.2,0,1.3,0,.8,0,1.2-.1,1.3,0,0,0-.4.4-.8.5-1.2.5-2.3.2-3.4,0-1.1-.2-1.8-.4-2-.9h0Z"/>
      </g>
      <g>
        <path class="st0" d="M109.2,148.9c.2,0,.4,0,.6.1.3,0,.3.2.6.2.3,0,.7.1,1.1.2,1.1,0,1.7-.1,1.7,0,0,0-1.2.4-2.8.4-.8,0-2-.2-2-.4,0-.2.5-.4.9-.4h0Z"/>
        <path class="st1" d="M109.1,149.1c0-.2,0-.5.2-.6.6-.7,2.3,0,2.7.1.5.2,1.2.4,1.2.7,0,.4-1.6.5-2.8.4-1.1-.1-1.2-.4-1.3-.5h0Z"/>
        <path class="st1" d="M109.1,149.1c0-.2,0-.5.2-.6,0,.1.2.3.5.4,0,0,.2.1.6.2.3,0,.7.1,1.1.2.4,0,.8,0,.9,0,.5,0,.8,0,.8,0s-.3.2-.6.3c-.8.3-1.5.1-2.2,0-.7-.1-1.2-.2-1.3-.5h0Z"/>
      </g>
      <g>
        <path class="st0" d="M205.9,149.1c.2,0,.4,0,.6.1.3,0,.4.2.6.2.3,0,.6.1,1.1.2,1.1,0,1.7-.1,1.7,0,0,0-1.2.4-2.8.4-.8,0-2-.2-2-.4,0-.2.5-.4.9-.4h0Z"/>
        <path class="st1" d="M205.8,149.4c0-.2,0-.5.2-.6.6-.7,2.3,0,2.7.1.5.2,1.2.4,1.2.7,0,.4-1.6.5-2.8.4-1.1-.1-1.2-.4-1.3-.5h0Z"/>
        <path class="st1" d="M205.8,149.4c0-.2,0-.5.2-.6,0,.1.2.3.5.4,0,0,.2.1.6.2.3,0,.6.1,1.1.2.4,0,.8,0,.9,0,.5,0,.8,0,.8,0s-.3.2-.6.3c-.8.3-1.5.1-2.2,0-.7-.1-1.2-.2-1.3-.5h0Z"/>
      </g>
      <g>
        <path d="M209.9,168.8c.6,0,1.1.1,1.6.3.8.2,1,.5,1.6.7.8.2,1.9.5,3.2.6,3,.3,4.8-.3,4.9-.1,0,0-3.5,1.3-7.9,1.1-2.3,0-5.8-.6-5.8-1.3,0-.5,1.3-1.2,2.5-1.2h0Z"/>
        <path class="st1" d="M209.6,169.7c-.2-.6,0-1.4.5-1.9,1.8-2.1,6.7-.1,7.7.3,1.4.6,3.4,1.4,3.3,2.2-.1,1.1-4.6,1.6-7.9,1.1-3.2-.4-3.6-1.4-3.6-1.6h0Z"/>
        <path class="st1" d="M209.6,169.7c-.3-.8.1-1.9.5-1.9.4,0,.5.7,1.4,1.3.6.4,1.2.6,1.6.7.8.2,1.9.5,3.2.6.2,0,1.2.1,2.5,0,.9,0,1.7-.1,2.4-.2,0,0,0,0,0,.1-.2.6-.9.8-1.6.9-3.2.7-6.3,0-6.3,0-2.1-.4-3.3-.7-3.6-1.6h0Z"/>
      </g>
      <g>
        <path d="M166.1,186.4c1.1,0,2,.3,2.9.6,1.4.4,1.9,1,2.9,1.3,1.4.4,3.5.9,5.9,1.2,5.5.6,8.9-.6,9-.3,0,.1-6.6,2.5-14.6,2.2-4.2-.1-10.6-1.1-10.7-2.6,0-1,2.4-2.3,4.6-2.3h0Z"/>
        <path class="st1" d="M165.6,188.2c-.4-1.2,0-2.9.9-3.8,1-.9,2.3-.6,7.1-.2,4.1.4,3.6.2,4.6.4,3.7.7,8.8,2.9,8.7,4.6-.2,2.1-8.3,3.1-14.6,2.2-2.6-.4-5.9-.9-6.7-3.2h0Z"/>
        <path class="st1" d="M165.6,188.2c-.6-1.6.2-3.7.9-3.8.6-.1,1,1.4,2.6,2.6,1.1.8,2.2,1.2,2.9,1.3,1.4.4,3.5.9,5.9,1.2.4,0,2.2.2,4.6.1,1.7,0,3.2-.2,4.4-.4,0,0,0,.1,0,.2-.4,1.1-1.6,1.6-2.9,1.9-6,1.3-11.6.1-11.6.1-3.8-.8-6.1-1.3-6.7-3.2h0Z"/>
      </g>
      <g>
        <path class="st0" d="M240.9,185.8c.5,0,.9.1,1.4.2.6.2.9.4,1.4.5.7.2,1.6.4,2.7.4,2.6.2,4.1-.2,4.1-.1,0,0-3,1-6.8.9-2,0-4.9-.4-5-1,0-.4,1.1-.9,2.1-.9h0Z"/>
        <path class="st1" d="M240.6,186.5c-.2-.5,0-1.1.4-1.5,1.5-1.6,5.7,0,6.6.2,1.2.4,2.9,1,2.9,1.6-.1.9-3.9,1.2-6.8.9-2.7-.3-3-1.1-3.1-1.2Z"/>
        <path class="st1" d="M240.6,186.5c-.2-.5.2-1.1.4-1.5.2.3.6.7,1.2,1,.1,0,.5.3,1.4.5.7.2,1.6.4,2.7.4,1,0,1.9,0,2.1,0,1.3,0,2-.2,2,0,0,.1-.7.5-1.4.7-1.9.6-3.7.4-5.4,0-1.8-.3-2.8-.5-3.1-1.2h0Z"/>
      </g>
    </g>
  </g>
</svg>