<svg width="640" height="480" viewBox="0 0 640 480" fill="none" xmlns="http://www.w3.org/2000/svg">
  <path d="M510.7 118.3C554.3 158.9 560.1 230.6 539 287.4C518 344.2 470 386 412 413C354.1 439.9 286.3 451.9 228.7 431.8C171.1 411.8 123.5 359.7 103.7 299.3C83.8 239 91.8 170.4 131.6 126.6C171.3 82.7 242.9 63.6 311.9 60.7C380.8 57.7 467.2 77.6 510.7 118.3Z" fill="#FFD9A1" fill-opacity="0.75"/>
  <path d="M488 154C526.8 191.8 533.5 250.9 515.9 300.4C498.4 349.9 456.7 389.9 404.2 412.5C351.8 435.2 288.7 440.4 235.8 422.7C182.9 404.9 140.1 364.1 122.4 312.1C104.8 260.2 112.3 197.1 146.8 157.6C181.4 118.1 242.9 102.1 303.4 98.2C363.9 94.3 449.2 116.2 488 154Z" stroke="#3A1F00" stroke-opacity="0.28" stroke-width="2"/>
</svg>
