<svg width="330" height="330" viewBox="0 0 330 330" fill="none" xmlns="http://www.w3.org/2000/svg">
  <path d="M261.2 94.1C289.8 124.5 289.2 173.3 266.3 210.1C243.3 247 198.1 271.8 155.4 270.2C112.8 268.5 72.7 240.3 56.5 199.3C40.2 158.2 47.8 104.2 78.2 73.9C108.5 43.6 161.6 37 204.4 48.1C247.2 59.2 232.6 63.7 261.2 94.1Z" fill="#A5BBCD" fill-opacity="0.52"/>
  <path d="M244.4 112.4C264.8 133.7 266 166.6 250.8 192.5C235.6 218.4 203.9 237.3 173.3 239.8C142.6 242.2 113 228.2 95.8 203.1C78.6 178 73.8 141.8 89.5 114.6C105.3 87.3 141.6 69 175.8 69.2C210.1 69.3 224 91.1 244.4 112.4Z" stroke="#E7EFF5" stroke-opacity="0.64" stroke-width="2"/>
</svg>
