<svg width="560" height="300" viewBox="0 0 560 300" fill="none" xmlns="http://www.w3.org/2000/svg">
  <path d="M500.6 141.6C507.2 191.6 457.4 234 382.5 255.3C307.6 276.6 207.7 276.8 138.8 247.8C69.9 218.8 32.2 160.7 41 113C49.8 65.3 105 28 182.9 19.2C260.8 10.4 361.5 30.2 428.8 59.9C496.1 89.6 494 91.6 500.6 141.6Z" fill="#F0E7DA" fill-opacity="0.92"/>
  <path d="M498 146C504.6 192.2 459.7 231.7 389.8 252.8C320 273.9 225.4 276.5 157.2 251.6C88.9 226.8 47.1 174.6 48.4 127.5C49.7 80.3 94.2 38.2 166.8 27.9C239.4 17.6 340.1 38.9 409.6 69.3C479 99.6 491.4 99.8 498 146Z" stroke="#2A2520" stroke-opacity="0.32" stroke-width="2"/>
</svg>
