<svg width="900" height="300" viewBox="0 0 900 300" fill="none" xmlns="http://www.w3.org/2000/svg">
  <path d="M0 182C48 153.7 96 125.3 150 131.8C204 138.3 264 179.7 321 195.8C378 212 432 202.8 489 185.7C546 168.7 606 143.7 663 148.7C720 153.7 774 188.7 822 206.2C870 223.7 912 223.7 933 223.7V300H0V182Z" fill="#8AB0C9" fill-opacity="0.48"/>
  <path d="M0 202C48 175.3 96 148.7 153 152.2C210 155.7 276 189.3 331.5 200.7C387 212 432 201 486 182.2C540 163.3 603 136.7 661.5 141.7C720 146.7 774 183.3 822 201.7C870 220 912 220 933 220" stroke="#D7EBF8" stroke-opacity="0.7" stroke-width="3"/>
</svg>
