<?xml version="1.0" encoding="UTF-8"?>
<svg id="Layer_1" xmlns="http://www.w3.org/2000/svg" version="1.1" viewBox="0 0 114 51">
  <!-- Generator: Adobe Illustrator 29.0.1, SVG Export Plug-In . SVG Version: 2.1.0 Build 192)  -->
  <defs>
    <style>
      .st0 {
        fill: #fff;
        stroke: #000;
        stroke-miterlimit: 10;
        stroke-width: .2px;
      }
    </style>
  </defs>
  <path d="M25.3,24.9c5.2-1.4,7.6-1.9,10.8-1.5,5.1.7,6.6,4,11.8,5.7,5.7,1.9,13.8,4,23.6,5.1,22.1,2.4,35.6-2.5,35.9-1.3.1.7-26.1,10.8-58.3,9.5-22-.9-43.1-7.7-42.8-11.4,0-1.1,6.5-2.8,19.2-6.2Z"/>
  <path class="st0" d="M22.2,28.5c-1.8-6.3,1.4-13.7,3.7-16.5,4.2-5.1,10.5-2,28.1,0,19,2.2,19.4-.5,28.6,2.5,9.4,3.1,25.3,11.4,24.6,18.4-.9,9.8-33.6,13.5-58.3,9.5-23.4-3.7-26.2-12.1-26.8-14Z"/>
  <path class="st0" d="M22.2,28.5c-.3-1.3-.6-3.8-.3-6.4.5-5,2.8-8.5,4.1-10.2,1.1.9,2.7,2.3,4,4.6,3.7,6,1.4,10.3,4.4,12.7,2.7,2.2,5.5-1,13.6-.1,4.3.5,4.4,1.6,11.5,3.2,3.5.8,7.4,1.4,12,1.9,8.3.9,14.8.7,18.3.5,6.9-.3,12.8-1,17.6-1.8-.2,1-.6,2.5-1.6,3.9-2.9,4.6-9.1,6.5-23.4,7.2-13.2.6-21,1-32.4-1.4-9.1-1.9-25.5-5.4-27.7-14.1Z"/>
</svg>